ISO-10303-21;
HEADER;
FILE_DESCRIPTION (( 'STEP AP214' ),
    '1' );
FILE_NAME ('1mm-dowel.STEP',
    '2025-12-25T22:09:01',
    ( '' ),
    ( '' ),
    'SwSTEP 2.0',
    'SolidWorks 2025',
    '' );
FILE_SCHEMA (( 'AUTOMOTIVE_DESIGN' ));
ENDSEC;

DATA;
#1 = CARTESIAN_POINT ( 'NONE',  ( 0.000000000000000000, 7.099999999999999645, 0.000000000000000000 ) ) ;
#2 = AXIS2_PLACEMENT_3D ( 'NONE', #13, #52, #36 ) ;
#3 = CARTESIAN_POINT ( 'NONE',  ( 0.000000000000000000, 0.000000000000000000, -0.5000000000000000000 ) ) ;
#4 = PRODUCT_DEFINITION_SHAPE ( 'NONE', 'NONE',  #70 ) ;
#5 = CARTESIAN_POINT ( 'NONE',  ( 0.000000000000000000, 0.000000000000000000, 0.000000000000000000 ) ) ;
#6 = DIRECTION ( 'NONE',  ( 0.000000000000000000, 1.000000000000000000, 0.000000000000000000 ) ) ;
#7 = DIRECTION ( 'NONE',  ( 0.000000000000000000, 0.000000000000000000, 1.000000000000000000 ) ) ;
#8 = AXIS2_PLACEMENT_3D ( 'NONE', #111, #107, #33 ) ;
#9 = APPLICATION_CONTEXT ( 'automotive_design' ) ;
#10 = AXIS2_PLACEMENT_3D ( 'NONE', #5, #85, #32 ) ;
#11 = ORIENTED_EDGE ( 'NONE', *, *, #106, .F. ) ;
#12 = EDGE_LOOP ( 'NONE', ( #108, #119, #73, #101 ) ) ;
#13 = CARTESIAN_POINT ( 'NONE',  ( 0.000000000000000000, 7.099999999999999645, 0.000000000000000000 ) ) ;
#14 = CYLINDRICAL_SURFACE ( 'NONE', #16, 0.5000000000000000000 ) ;
#15 =( NAMED_UNIT ( * ) PLANE_ANGLE_UNIT ( ) SI_UNIT ( $, .RADIAN. ) );
#16 = AXIS2_PLACEMENT_3D ( 'NONE', #1, #63, #102 ) ;
#17 = SURFACE_STYLE_FILL_AREA ( #94 ) ;
#18 = UNCERTAINTY_MEASURE_WITH_UNIT (LENGTH_MEASURE( 1.000000000000000082E-05 ), #123, 'distance_accuracy_value', 'NONE');
#19 = LINE ( 'NONE', #95, #58 ) ;
#20 = UNCERTAINTY_MEASURE_WITH_UNIT (LENGTH_MEASURE( 1.000000000000000082E-05 ), #47, 'distance_accuracy_value', 'NONE');
#21 = FILL_AREA_STYLE_COLOUR ( '', #117 ) ;
#22 =( GEOMETRIC_REPRESENTATION_CONTEXT ( 3 ) GLOBAL_UNCERTAINTY_ASSIGNED_CONTEXT ( ( #18 ) ) GLOBAL_UNIT_ASSIGNED_CONTEXT ( ( #123, #15, #39 ) ) REPRESENTATION_CONTEXT ( 'NONE', 'WORKASPACE' ) );
#23 = CARTESIAN_POINT ( 'NONE',  ( 0.000000000000000000, 7.099999999999999645, 0.000000000000000000 ) ) ;
#24 = ORIENTED_EDGE ( 'NONE', *, *, #118, .F. ) ;
#25 = CIRCLE ( 'NONE', #97, 0.5000000000000000000 ) ;
#26 = ORIENTED_EDGE ( 'NONE', *, *, #76, .T. ) ;
#27 = PRODUCT ( '1mm-dowel', '1mm-dowel', '', ( #41 ) ) ;
#28 = EDGE_LOOP ( 'NONE', ( #24, #43, #54, #62 ) ) ;
#29 = ADVANCED_BREP_SHAPE_REPRESENTATION ( '1mm-dowel', ( #80, #90 ), #22 ) ;
#30 = CARTESIAN_POINT ( 'NONE',  ( 6.123233995736766036E-17, 7.099999999999999645, 0.5000000000000000000 ) ) ;
#31 =( GEOMETRIC_REPRESENTATION_CONTEXT ( 3 ) GLOBAL_UNCERTAINTY_ASSIGNED_CONTEXT ( ( #20 ) ) GLOBAL_UNIT_ASSIGNED_CONTEXT ( ( #47, #114, #121 ) ) REPRESENTATION_CONTEXT ( 'NONE', 'WORKASPACE' ) );
#32 = DIRECTION ( 'NONE',  ( 0.000000000000000000, -0.000000000000000000, 1.000000000000000000 ) ) ;
#33 = DIRECTION ( 'NONE',  ( 0.000000000000000000, 0.000000000000000000, 1.000000000000000000 ) ) ;
#34 = ORIENTED_EDGE ( 'NONE', *, *, #118, .T. ) ;
#35 = ADVANCED_FACE ( 'NONE', ( #44 ), #14, .T. ) ;
#36 = DIRECTION ( 'NONE',  ( 0.000000000000000000, 0.000000000000000000, -1.000000000000000000 ) ) ;
#37 = DIRECTION ( 'NONE',  ( -0.000000000000000000, -1.000000000000000000, -0.000000000000000000 ) ) ;
#38 = PRODUCT_DEFINITION_FORMATION_WITH_SPECIFIED_SOURCE ( 'ANY', '', #27, .NOT_KNOWN. ) ;
#39 =( NAMED_UNIT ( * ) SI_UNIT ( $, .STERADIAN. ) SOLID_ANGLE_UNIT ( ) );
#40 = ADVANCED_FACE ( 'NONE', ( #83 ), #120, .T. ) ;
#41 = PRODUCT_CONTEXT ( 'NONE', #9, 'mechanical' ) ;
#42 = CARTESIAN_POINT ( 'NONE',  ( 0.000000000000000000, 7.099999999999999645, -0.5000000000000000000 ) ) ;
#43 = ORIENTED_EDGE ( 'NONE', *, *, #109, .T. ) ;
#44 = FACE_OUTER_BOUND ( 'NONE', #28, .T. ) ;
#45 = CIRCLE ( 'NONE', #82, 0.5000000000000000000 ) ;
#46 = EDGE_CURVE ( 'NONE', #72, #50, #116, .T. ) ;
#47 =( LENGTH_UNIT ( ) NAMED_UNIT ( * ) SI_UNIT ( .MILLI., .METRE. ) );
#48 = DIRECTION ( 'NONE',  ( 0.000000000000000000, 1.000000000000000000, 0.000000000000000000 ) ) ;
#49 = CARTESIAN_POINT ( 'NONE',  ( 0.000000000000000000, 7.099999999999999645, 0.000000000000000000 ) ) ;
#50 = VERTEX_POINT ( 'NONE', #3 ) ;
#51 = EDGE_LOOP ( 'NONE', ( #26, #34 ) ) ;
#52 = DIRECTION ( 'NONE',  ( -0.000000000000000000, -1.000000000000000000, -0.000000000000000000 ) ) ;
#53 = EDGE_CURVE ( 'NONE', #50, #71, #67, .T. ) ;
#54 = ORIENTED_EDGE ( 'NONE', *, *, #106, .T. ) ;
#55 = EDGE_LOOP ( 'NONE', ( #89, #11 ) ) ;
#56 = ADVANCED_FACE ( 'NONE', ( #64 ), #93, .F. ) ;
#57 = SURFACE_SIDE_STYLE ('',( #17 ) ) ;
#58 = VECTOR ( 'NONE', #37, 1000.000000000000000 ) ;
#59 = PRODUCT_DEFINITION_CONTEXT ( 'detailed design', #92, 'design' ) ;
#60 = ADVANCED_FACE ( 'NONE', ( #81 ), #100, .T. ) ;
#61 = DIRECTION ( 'NONE',  ( 0.000000000000000000, 1.000000000000000000, 0.000000000000000000 ) ) ;
#62 = ORIENTED_EDGE ( 'NONE', *, *, #46, .F. ) ;
#63 = DIRECTION ( 'NONE',  ( -0.000000000000000000, -1.000000000000000000, -0.000000000000000000 ) ) ;
#64 = FACE_OUTER_BOUND ( 'NONE', #55, .T. ) ;
#65 = CARTESIAN_POINT ( 'NONE',  ( 0.000000000000000000, 0.000000000000000000, 0.000000000000000000 ) ) ;
#66 = CARTESIAN_POINT ( 'NONE',  ( 0.000000000000000000, 7.099999999999999645, 0.000000000000000000 ) ) ;
#67 = CIRCLE ( 'NONE', #8, 0.5000000000000000000 ) ;
#68 = APPLICATION_PROTOCOL_DEFINITION ( 'draft international standard', 'automotive_design', 1998, #92 ) ;
#69 = CLOSED_SHELL ( 'NONE', ( #35, #40, #60, #56 ) ) ;
#70 = PRODUCT_DEFINITION ( 'UNKNOWN', '', #38, #59 ) ;
#71 = VERTEX_POINT ( 'NONE', #125 ) ;
#72 = VERTEX_POINT ( 'NONE', #42 ) ;
#73 = ORIENTED_EDGE ( 'NONE', *, *, #46, .T. ) ;
#74 = CIRCLE ( 'NONE', #115, 0.5000000000000000000 ) ;
#75 = DIRECTION ( 'NONE',  ( -0.000000000000000000, -1.000000000000000000, -0.000000000000000000 ) ) ;
#76 = EDGE_CURVE ( 'NONE', #72, #103, #25, .T. ) ;
#77 = APPLICATION_PROTOCOL_DEFINITION ( 'draft international standard', 'automotive_design', 1998, #9 ) ;
#78 = SURFACE_STYLE_USAGE ( .BOTH. , #57 ) ;
#79 = DIRECTION ( 'NONE',  ( 0.000000000000000000, 0.000000000000000000, 1.000000000000000000 ) ) ;
#80 = MANIFOLD_SOLID_BREP ( 'Boss-Extrude1', #69 ) ;
#81 = FACE_OUTER_BOUND ( 'NONE', #51, .T. ) ;
#82 = AXIS2_PLACEMENT_3D ( 'NONE', #65, #122, #112 ) ;
#83 = FACE_OUTER_BOUND ( 'NONE', #12, .T. ) ;
#84 = VECTOR ( 'NONE', #75, 1000.000000000000000 ) ;
#85 = DIRECTION ( 'NONE',  ( 0.000000000000000000, 1.000000000000000000, 0.000000000000000000 ) ) ;
#86 = STYLED_ITEM ( 'NONE', ( #96 ), #80 ) ;
#87 = DIRECTION ( 'NONE',  ( 0.000000000000000000, 0.000000000000000000, 1.000000000000000000 ) ) ;
#88 = DIRECTION ( 'NONE',  ( 0.000000000000000000, -0.000000000000000000, 1.000000000000000000 ) ) ;
#89 = ORIENTED_EDGE ( 'NONE', *, *, #53, .F. ) ;
#90 = AXIS2_PLACEMENT_3D ( 'NONE', #98, #79, #124 ) ;
#91 = CARTESIAN_POINT ( 'NONE',  ( 0.000000000000000000, 7.099999999999999645, -0.5000000000000000000 ) ) ;
#92 = APPLICATION_CONTEXT ( 'automotive_design' ) ;
#93 = PLANE ( 'NONE',  #10 ) ;
#94 = FILL_AREA_STYLE ('',( #21 ) ) ;
#95 = CARTESIAN_POINT ( 'NONE',  ( 6.123233995736766036E-17, 7.099999999999999645, 0.5000000000000000000 ) ) ;
#96 = PRESENTATION_STYLE_ASSIGNMENT (( #78 ) ) ;
#97 = AXIS2_PLACEMENT_3D ( 'NONE', #66, #6, #7 ) ;
#98 = CARTESIAN_POINT ( 'NONE',  ( 0.000000000000000000, 0.000000000000000000, 0.000000000000000000 ) ) ;
#99 = MECHANICAL_DESIGN_GEOMETRIC_PRESENTATION_REPRESENTATION (  '', ( #86 ), #31 ) ;
#100 = PLANE ( 'NONE',  #104 ) ;
#101 = ORIENTED_EDGE ( 'NONE', *, *, #53, .T. ) ;
#102 = DIRECTION ( 'NONE',  ( 0.000000000000000000, 0.000000000000000000, -1.000000000000000000 ) ) ;
#103 = VERTEX_POINT ( 'NONE', #30 ) ;
#104 = AXIS2_PLACEMENT_3D ( 'NONE', #23, #61, #88 ) ;
#105 = SHAPE_DEFINITION_REPRESENTATION ( #4, #29 ) ;
#106 = EDGE_CURVE ( 'NONE', #71, #50, #45, .T. ) ;
#107 = DIRECTION ( 'NONE',  ( 0.000000000000000000, 1.000000000000000000, 0.000000000000000000 ) ) ;
#108 = ORIENTED_EDGE ( 'NONE', *, *, #109, .F. ) ;
#109 = EDGE_CURVE ( 'NONE', #103, #71, #19, .T. ) ;
#110 = PRESENTATION_LAYER_ASSIGNMENT (  '', '', ( #86 ) ) ;
#111 = CARTESIAN_POINT ( 'NONE',  ( 0.000000000000000000, 0.000000000000000000, 0.000000000000000000 ) ) ;
#112 = DIRECTION ( 'NONE',  ( 0.000000000000000000, 0.000000000000000000, 1.000000000000000000 ) ) ;
#113 = PRODUCT_RELATED_PRODUCT_CATEGORY ( 'part', '', ( #27 ) ) ;
#114 =( NAMED_UNIT ( * ) PLANE_ANGLE_UNIT ( ) SI_UNIT ( $, .RADIAN. ) );
#115 = AXIS2_PLACEMENT_3D ( 'NONE', #49, #48, #87 ) ;
#116 = LINE ( 'NONE', #91, #84 ) ;
#117 = COLOUR_RGB ( '',0.7921568627450980005, 0.8196078431372548767, 0.9333333333333333481 ) ;
#118 = EDGE_CURVE ( 'NONE', #103, #72, #74, .T. ) ;
#119 = ORIENTED_EDGE ( 'NONE', *, *, #76, .F. ) ;
#120 = CYLINDRICAL_SURFACE ( 'NONE', #2, 0.5000000000000000000 ) ;
#121 =( NAMED_UNIT ( * ) SI_UNIT ( $, .STERADIAN. ) SOLID_ANGLE_UNIT ( ) );
#122 = DIRECTION ( 'NONE',  ( 0.000000000000000000, 1.000000000000000000, 0.000000000000000000 ) ) ;
#123 =( LENGTH_UNIT ( ) NAMED_UNIT ( * ) SI_UNIT ( .MILLI., .METRE. ) );
#124 = DIRECTION ( 'NONE',  ( 1.000000000000000000, 0.000000000000000000, 0.000000000000000000 ) ) ;
#125 = CARTESIAN_POINT ( 'NONE',  ( 6.123233995736766036E-17, 0.000000000000000000, 0.5000000000000000000 ) ) ;
ENDSEC;
END-ISO-10303-21;
