ISO-10303-21;
HEADER;
FILE_DESCRIPTION (( 'STEP AP214' ),
    '1' );
FILE_NAME ('2mm-dowel.STEP',
    '2025-12-25T22:09:12',
    ( '' ),
    ( '' ),
    'SwSTEP 2.0',
    'SolidWorks 2025',
    '' );
FILE_SCHEMA (( 'AUTOMOTIVE_DESIGN' ));
ENDSEC;

DATA;
#1 = CARTESIAN_POINT ( 'NONE',  ( 0.000000000000000000, 7.099999999999999645, 0.000000000000000000 ) ) ;
#2 = STYLED_ITEM ( 'NONE', ( #42 ), #64 ) ;
#3 = FILL_AREA_STYLE_COLOUR ( '', #19 ) ;
#4 = ORIENTED_EDGE ( 'NONE', *, *, #71, .F. ) ;
#5 = ORIENTED_EDGE ( 'NONE', *, *, #125, .T. ) ;
#6 = DIRECTION ( 'NONE',  ( 0.000000000000000000, 0.000000000000000000, 1.000000000000000000 ) ) ;
#7 = ADVANCED_FACE ( 'NONE', ( #92 ), #13, .T. ) ;
#8 = DIRECTION ( 'NONE',  ( 0.000000000000000000, 0.000000000000000000, 1.000000000000000000 ) ) ;
#9 = DIRECTION ( 'NONE',  ( 0.000000000000000000, 1.000000000000000000, 0.000000000000000000 ) ) ;
#10 = DIRECTION ( 'NONE',  ( 0.000000000000000000, -0.000000000000000000, 1.000000000000000000 ) ) ;
#11 = UNCERTAINTY_MEASURE_WITH_UNIT (LENGTH_MEASURE( 1.000000000000000082E-05 ), #28, 'distance_accuracy_value', 'NONE');
#12 = CIRCLE ( 'NONE', #124, 1.000000000000000000 ) ;
#13 = CYLINDRICAL_SURFACE ( 'NONE', #56, 1.000000000000000000 ) ;
#14 = ORIENTED_EDGE ( 'NONE', *, *, #33, .F. ) ;
#15 = CARTESIAN_POINT ( 'NONE',  ( 1.224646799147353207E-16, 7.099999999999999645, 1.000000000000000000 ) ) ;
#16 = CARTESIAN_POINT ( 'NONE',  ( 0.000000000000000000, 0.000000000000000000, 0.000000000000000000 ) ) ;
#17 = ORIENTED_EDGE ( 'NONE', *, *, #88, .T. ) ;
#18 = PRODUCT_CONTEXT ( 'NONE', #77, 'mechanical' ) ;
#19 = COLOUR_RGB ( '',0.7921568627450980005, 0.8196078431372548767, 0.9333333333333333481 ) ;
#20 = AXIS2_PLACEMENT_3D ( 'NONE', #16, #100, #43 ) ;
#21 = DIRECTION ( 'NONE',  ( 0.000000000000000000, 1.000000000000000000, 0.000000000000000000 ) ) ;
#22 = ORIENTED_EDGE ( 'NONE', *, *, #125, .F. ) ;
#23 = VERTEX_POINT ( 'NONE', #81 ) ;
#24 = VERTEX_POINT ( 'NONE', #52 ) ;
#25 = VERTEX_POINT ( 'NONE', #15 ) ;
#26 = CARTESIAN_POINT ( 'NONE',  ( 1.224646799147353207E-16, 7.099999999999999645, 1.000000000000000000 ) ) ;
#27 = ADVANCED_FACE ( 'NONE', ( #69 ), #118, .T. ) ;
#28 =( LENGTH_UNIT ( ) NAMED_UNIT ( * ) SI_UNIT ( .MILLI., .METRE. ) );
#29 = AXIS2_PLACEMENT_3D ( 'NONE', #109, #54, #32 ) ;
#30 = PLANE ( 'NONE',  #29 ) ;
#31 = DIRECTION ( 'NONE',  ( 0.000000000000000000, 0.000000000000000000, -1.000000000000000000 ) ) ;
#32 = DIRECTION ( 'NONE',  ( 0.000000000000000000, -0.000000000000000000, 1.000000000000000000 ) ) ;
#33 = EDGE_CURVE ( 'NONE', #25, #23, #86, .T. ) ;
#34 = CLOSED_SHELL ( 'NONE', ( #27, #7, #59, #65 ) ) ;
#35 = ORIENTED_EDGE ( 'NONE', *, *, #39, .T. ) ;
#36 = CARTESIAN_POINT ( 'NONE',  ( 0.000000000000000000, 0.000000000000000000, 0.000000000000000000 ) ) ;
#37 = SHAPE_DEFINITION_REPRESENTATION ( #91, #97 ) ;
#38 = UNCERTAINTY_MEASURE_WITH_UNIT (LENGTH_MEASURE( 1.000000000000000082E-05 ), #123, 'distance_accuracy_value', 'NONE');
#39 = EDGE_CURVE ( 'NONE', #99, #24, #96, .T. ) ;
#40 = ORIENTED_EDGE ( 'NONE', *, *, #33, .T. ) ;
#41 =( GEOMETRIC_REPRESENTATION_CONTEXT ( 3 ) GLOBAL_UNCERTAINTY_ASSIGNED_CONTEXT ( ( #11 ) ) GLOBAL_UNIT_ASSIGNED_CONTEXT ( ( #28, #68, #107 ) ) REPRESENTATION_CONTEXT ( 'NONE', 'WORKASPACE' ) );
#42 = PRESENTATION_STYLE_ASSIGNMENT (( #46 ) ) ;
#43 = DIRECTION ( 'NONE',  ( 0.000000000000000000, 0.000000000000000000, 1.000000000000000000 ) ) ;
#44 = ORIENTED_EDGE ( 'NONE', *, *, #71, .T. ) ;
#45 = PRODUCT_DEFINITION_FORMATION_WITH_SPECIFIED_SOURCE ( 'ANY', '', #103, .NOT_KNOWN. ) ;
#46 = SURFACE_STYLE_USAGE ( .BOTH. , #61 ) ;
#47 = APPLICATION_PROTOCOL_DEFINITION ( 'draft international standard', 'automotive_design', 1998, #94 ) ;
#48 = CARTESIAN_POINT ( 'NONE',  ( 0.000000000000000000, 7.099999999999999645, -1.000000000000000000 ) ) ;
#49 = APPLICATION_PROTOCOL_DEFINITION ( 'draft international standard', 'automotive_design', 1998, #77 ) ;
#50 = PRODUCT_DEFINITION_CONTEXT ( 'detailed design', #94, 'design' ) ;
#51 = PRESENTATION_LAYER_ASSIGNMENT (  '', '', ( #2 ) ) ;
#52 = CARTESIAN_POINT ( 'NONE',  ( 0.000000000000000000, 0.000000000000000000, -1.000000000000000000 ) ) ;
#53 = DIRECTION ( 'NONE',  ( -0.000000000000000000, -1.000000000000000000, -0.000000000000000000 ) ) ;
#54 = DIRECTION ( 'NONE',  ( 0.000000000000000000, 1.000000000000000000, 0.000000000000000000 ) ) ;
#55 = ORIENTED_EDGE ( 'NONE', *, *, #88, .F. ) ;
#56 = AXIS2_PLACEMENT_3D ( 'NONE', #87, #74, #113 ) ;
#57 =( NAMED_UNIT ( * ) SI_UNIT ( $, .STERADIAN. ) SOLID_ANGLE_UNIT ( ) );
#58 = DIRECTION ( 'NONE',  ( 0.000000000000000000, 0.000000000000000000, 1.000000000000000000 ) ) ;
#59 = ADVANCED_FACE ( 'NONE', ( #70 ), #30, .T. ) ;
#60 = AXIS2_PLACEMENT_3D ( 'NONE', #1, #53, #31 ) ;
#61 = SURFACE_SIDE_STYLE ('',( #63 ) ) ;
#62 = ORIENTED_EDGE ( 'NONE', *, *, #102, .T. ) ;
#63 = SURFACE_STYLE_FILL_AREA ( #111 ) ;
#64 = MANIFOLD_SOLID_BREP ( 'Boss-Extrude1', #34 ) ;
#65 = ADVANCED_FACE ( 'NONE', ( #67 ), #73, .F. ) ;
#66 = MECHANICAL_DESIGN_GEOMETRIC_PRESENTATION_REPRESENTATION (  '', ( #2 ), #90 ) ;
#67 = FACE_OUTER_BOUND ( 'NONE', #79, .T. ) ;
#68 =( NAMED_UNIT ( * ) PLANE_ANGLE_UNIT ( ) SI_UNIT ( $, .RADIAN. ) );
#69 = FACE_OUTER_BOUND ( 'NONE', #72, .T. ) ;
#70 = FACE_OUTER_BOUND ( 'NONE', #120, .T. ) ;
#71 = EDGE_CURVE ( 'NONE', #24, #99, #98, .T. ) ;
#72 = EDGE_LOOP ( 'NONE', ( #14, #62, #35, #55 ) ) ;
#73 = PLANE ( 'NONE',  #78 ) ;
#74 = DIRECTION ( 'NONE',  ( -0.000000000000000000, -1.000000000000000000, -0.000000000000000000 ) ) ;
#75 = CARTESIAN_POINT ( 'NONE',  ( 0.000000000000000000, 0.000000000000000000, 0.000000000000000000 ) ) ;
#76 = PRODUCT_DEFINITION ( 'UNKNOWN', '', #45, #50 ) ;
#77 = APPLICATION_CONTEXT ( 'automotive_design' ) ;
#78 = AXIS2_PLACEMENT_3D ( 'NONE', #108, #21, #10 ) ;
#79 = EDGE_LOOP ( 'NONE', ( #4, #101 ) ) ;
#80 = AXIS2_PLACEMENT_3D ( 'NONE', #119, #89, #6 ) ;
#81 = CARTESIAN_POINT ( 'NONE',  ( 0.000000000000000000, 7.099999999999999645, -1.000000000000000000 ) ) ;
#82 =( NAMED_UNIT ( * ) PLANE_ANGLE_UNIT ( ) SI_UNIT ( $, .RADIAN. ) );
#83 = LINE ( 'NONE', #26, #121 ) ;
#84 = VECTOR ( 'NONE', #85, 1000.000000000000000 ) ;
#85 = DIRECTION ( 'NONE',  ( -0.000000000000000000, -1.000000000000000000, -0.000000000000000000 ) ) ;
#86 = CIRCLE ( 'NONE', #80, 1.000000000000000000 ) ;
#87 = CARTESIAN_POINT ( 'NONE',  ( 0.000000000000000000, 7.099999999999999645, 0.000000000000000000 ) ) ;
#88 = EDGE_CURVE ( 'NONE', #23, #24, #114, .T. ) ;
#89 = DIRECTION ( 'NONE',  ( 0.000000000000000000, 1.000000000000000000, 0.000000000000000000 ) ) ;
#90 =( GEOMETRIC_REPRESENTATION_CONTEXT ( 3 ) GLOBAL_UNCERTAINTY_ASSIGNED_CONTEXT ( ( #38 ) ) GLOBAL_UNIT_ASSIGNED_CONTEXT ( ( #123, #82, #57 ) ) REPRESENTATION_CONTEXT ( 'NONE', 'WORKASPACE' ) );
#91 = PRODUCT_DEFINITION_SHAPE ( 'NONE', 'NONE',  #76 ) ;
#92 = FACE_OUTER_BOUND ( 'NONE', #117, .T. ) ;
#93 = AXIS2_PLACEMENT_3D ( 'NONE', #75, #115, #8 ) ;
#94 = APPLICATION_CONTEXT ( 'automotive_design' ) ;
#95 = CARTESIAN_POINT ( 'NONE',  ( 0.000000000000000000, 7.099999999999999645, 0.000000000000000000 ) ) ;
#96 = CIRCLE ( 'NONE', #20, 1.000000000000000000 ) ;
#97 = ADVANCED_BREP_SHAPE_REPRESENTATION ( '2mm-dowel', ( #64, #112 ), #41 ) ;
#98 = CIRCLE ( 'NONE', #93, 1.000000000000000000 ) ;
#99 = VERTEX_POINT ( 'NONE', #104 ) ;
#100 = DIRECTION ( 'NONE',  ( 0.000000000000000000, 1.000000000000000000, 0.000000000000000000 ) ) ;
#101 = ORIENTED_EDGE ( 'NONE', *, *, #39, .F. ) ;
#102 = EDGE_CURVE ( 'NONE', #25, #99, #83, .T. ) ;
#103 = PRODUCT ( '2mm-dowel', '2mm-dowel', '', ( #18 ) ) ;
#104 = CARTESIAN_POINT ( 'NONE',  ( 1.224646799147353207E-16, 0.000000000000000000, 1.000000000000000000 ) ) ;
#105 = DIRECTION ( 'NONE',  ( -0.000000000000000000, -1.000000000000000000, -0.000000000000000000 ) ) ;
#106 = DIRECTION ( 'NONE',  ( 0.000000000000000000, 0.000000000000000000, 1.000000000000000000 ) ) ;
#107 =( NAMED_UNIT ( * ) SI_UNIT ( $, .STERADIAN. ) SOLID_ANGLE_UNIT ( ) );
#108 = CARTESIAN_POINT ( 'NONE',  ( 0.000000000000000000, 0.000000000000000000, 0.000000000000000000 ) ) ;
#109 = CARTESIAN_POINT ( 'NONE',  ( 0.000000000000000000, 7.099999999999999645, 0.000000000000000000 ) ) ;
#110 = ORIENTED_EDGE ( 'NONE', *, *, #102, .F. ) ;
#111 = FILL_AREA_STYLE ('',( #3 ) ) ;
#112 = AXIS2_PLACEMENT_3D ( 'NONE', #36, #106, #116 ) ;
#113 = DIRECTION ( 'NONE',  ( 0.000000000000000000, 0.000000000000000000, -1.000000000000000000 ) ) ;
#114 = LINE ( 'NONE', #48, #84 ) ;
#115 = DIRECTION ( 'NONE',  ( 0.000000000000000000, 1.000000000000000000, 0.000000000000000000 ) ) ;
#116 = DIRECTION ( 'NONE',  ( 1.000000000000000000, 0.000000000000000000, 0.000000000000000000 ) ) ;
#117 = EDGE_LOOP ( 'NONE', ( #110, #22, #17, #44 ) ) ;
#118 = CYLINDRICAL_SURFACE ( 'NONE', #60, 1.000000000000000000 ) ;
#119 = CARTESIAN_POINT ( 'NONE',  ( 0.000000000000000000, 7.099999999999999645, 0.000000000000000000 ) ) ;
#120 = EDGE_LOOP ( 'NONE', ( #5, #40 ) ) ;
#121 = VECTOR ( 'NONE', #105, 1000.000000000000000 ) ;
#122 = PRODUCT_RELATED_PRODUCT_CATEGORY ( 'part', '', ( #103 ) ) ;
#123 =( LENGTH_UNIT ( ) NAMED_UNIT ( * ) SI_UNIT ( .MILLI., .METRE. ) );
#124 = AXIS2_PLACEMENT_3D ( 'NONE', #95, #9, #58 ) ;
#125 = EDGE_CURVE ( 'NONE', #23, #25, #12, .T. ) ;
ENDSEC;
END-ISO-10303-21;
