ISO-10303-21;
HEADER;
FILE_DESCRIPTION (( 'STEP AP214' ),
    '1' );
FILE_NAME ('Ankle-pulley-plate.STEP',
    '2026-03-01T03:17:35',
    ( '' ),
    ( '' ),
    'SwSTEP 2.0',
    'SolidWorks 2025',
    '' );
FILE_SCHEMA (( 'AUTOMOTIVE_DESIGN' ));
ENDSEC;

DATA;
#1 = ADVANCED_FACE ( 'NONE', ( #1036 ), #514, .F. ) ;
#2 = CARTESIAN_POINT ( 'NONE',  ( 0.000000000000000000, 19.65000000000000213, 4.000000000000000000 ) ) ;
#3 = CARTESIAN_POINT ( 'NONE',  ( 22.50000000000000000, 56.34340520441121214, -0.001000000000001000089 ) ) ;
#4 = ORIENTED_EDGE ( 'NONE', *, *, #655, .F. ) ;
#5 = ORIENTED_EDGE ( 'NONE', *, *, #858, .F. ) ;
#6 = DIRECTION ( 'NONE',  ( 0.000000000000000000, -1.000000000000000000, 0.000000000000000000 ) ) ;
#7 = CIRCLE ( 'NONE', #613, 11.00000000000000000 ) ;
#8 = EDGE_CURVE ( 'NONE', #878, #1197, #134, .T. ) ;
#9 = DIRECTION ( 'NONE',  ( -4.034240641806528514E-17, -1.000000000000000000, 0.000000000000000000 ) ) ;
#10 = DIRECTION ( 'NONE',  ( -1.541976423090495387E-16, 1.000000000000000000, -0.000000000000000000 ) ) ;
#11 = VERTEX_POINT ( 'NONE', #167 ) ;
#12 = CARTESIAN_POINT ( 'NONE',  ( -22.49999999999999645, 61.71551627040728505, 61.57500000000015206 ) ) ;
#13 = DIRECTION ( 'NONE',  ( -1.541976423090495387E-16, 1.000000000000000000, 0.000000000000000000 ) ) ;
#14 = CARTESIAN_POINT ( 'NONE',  ( 22.50000000000000355, 43.72064597789372442, 1.749999999999987566 ) ) ;
#15 = DIRECTION ( 'NONE',  ( -1.000000000000000000, -6.308085367188388762E-17, 0.000000000000000000 ) ) ;
#16 = DIRECTION ( 'NONE',  ( -1.000000000000000000, 0.000000000000000000, 0.000000000000000000 ) ) ;
#17 = CIRCLE ( 'NONE', #737, 1.375000000000976108 ) ;
#18 = AXIS2_PLACEMENT_3D ( 'NONE', #314, #1123, #202 ) ;
#19 = EDGE_CURVE ( 'NONE', #811, #1209, #175, .T. ) ;
#20 = ORIENTED_EDGE ( 'NONE', *, *, #682, .T. ) ;
#21 = CARTESIAN_POINT ( 'NONE',  ( -22.50000000000000000, -33.99999999999994316, 1.749999999999987566 ) ) ;
#22 = ORIENTED_EDGE ( 'NONE', *, *, #1152, .F. ) ;
#23 = EDGE_CURVE ( 'NONE', #611, #734, #676, .T. ) ;
#24 = ORIENTED_EDGE ( 'NONE', *, *, #1287, .F. ) ;
#25 = AXIS2_PLACEMENT_3D ( 'NONE', #1101, #287, #690 ) ;
#26 = VERTEX_POINT ( 'NONE', #827 ) ;
#27 = LINE ( 'NONE', #834, #566 ) ;
#28 = CARTESIAN_POINT ( 'NONE',  ( -15.74301406505936640, 61.71551627040729215, 50.29904253416150794 ) ) ;
#29 = CARTESIAN_POINT ( 'NONE',  ( -15.74301406505936640, 61.71551627040729215, 50.29904253416150794 ) ) ;
#30 = EDGE_CURVE ( 'NONE', #1032, #1270, #1180, .T. ) ;
#31 = FILL_AREA_STYLE_COLOUR ( '', #1184 ) ;
#32 = AXIS2_PLACEMENT_3D ( 'NONE', #289, #586, #1206 ) ;
#33 = DIRECTION ( 'NONE',  ( -1.000000000000000000, 0.000000000000000000, -0.000000000000000000 ) ) ;
#34 = ORIENTED_EDGE ( 'NONE', *, *, #1002, .T. ) ;
#35 = CARTESIAN_POINT ( 'NONE',  ( -7.100000000000002309, 19.65000000000000213, 4.000000000000000000 ) ) ;
#36 = EDGE_LOOP ( 'NONE', ( #689, #226, #160, #1128 ) ) ;
#37 = EDGE_CURVE ( 'NONE', #268, #896, #118, .T. ) ;
#38 = SURFACE_SIDE_STYLE ('',( #416 ) ) ;
#39 = CARTESIAN_POINT ( 'NONE',  ( -9.293014065059789885, 56.33869772343309279, 17.38597053142565585 ) ) ;
#40 = LINE ( 'NONE', #626, #217 ) ;
#41 = CARTESIAN_POINT ( 'NONE',  ( 9.286773304553619823, 56.34340520441121214, 61.57500000000014495 ) ) ;
#42 = FACE_OUTER_BOUND ( 'NONE', #1168, .T. ) ;
#43 = CYLINDRICAL_SURFACE ( 'NONE', #869, 11.00000000000000000 ) ;
#44 = CARTESIAN_POINT ( 'NONE',  ( 9.286773304553614494, 54.93369772343308455, 17.38597053142565585 ) ) ;
#45 = VECTOR ( 'NONE', #797, 1000.000000000000000 ) ;
#46 = CARTESIAN_POINT ( 'NONE',  ( -17.11801406506034340, 61.71551627040729215, 34.09712760253297859 ) ) ;
#47 = EDGE_CURVE ( 'NONE', #315, #790, #934, .T. ) ;
#48 = CARTESIAN_POINT ( 'NONE',  ( -22.50000000000000000, -33.99999999999995026, 5.899999999999999467 ) ) ;
#49 = ORIENTED_EDGE ( 'NONE', *, *, #1020, .T. ) ;
#50 = LINE ( 'NONE', #233, #660 ) ;
#51 = AXIS2_PLACEMENT_3D ( 'NONE', #1100, #13, #802 ) ;
#52 = AXIS2_PLACEMENT_3D ( 'NONE', #1046, #721, #1135 ) ;
#53 = CARTESIAN_POINT ( 'NONE',  ( 0.000000000000000000, -28.14999999999999503, 4.000000000000000000 ) ) ;
#54 = CARTESIAN_POINT ( 'NONE',  ( 22.49999999999999289, 61.71551627040729215, 58.28000000000000114 ) ) ;
#55 = VERTEX_POINT ( 'NONE', #867 ) ;
#56 = CARTESIAN_POINT ( 'NONE',  ( -9.293014065059789885, 54.93369772343308455, 18.79097053142567120 ) ) ;
#57 = ORIENTED_EDGE ( 'NONE', *, *, #1069, .T. ) ;
#58 = EDGE_CURVE ( 'NONE', #1068, #939, #594, .T. ) ;
#59 = DIRECTION ( 'NONE',  ( -1.541976423090495387E-16, 1.000000000000000000, -0.000000000000000000 ) ) ;
#60 = CARTESIAN_POINT ( 'NONE',  ( -22.50000000000001066, 56.34340520441109135, -0.001000000000001000089 ) ) ;
#61 = LINE ( 'NONE', #448, #1031 ) ;
#62 = DIRECTION ( 'NONE',  ( 1.000000000000000000, 0.000000000000000000, 0.000000000000000000 ) ) ;
#63 = ORIENTED_EDGE ( 'NONE', *, *, #481, .F. ) ;
#64 = DIRECTION ( 'NONE',  ( -1.541976423090495387E-16, 1.000000000000000000, -0.000000000000000000 ) ) ;
#65 = ORIENTED_EDGE ( 'NONE', *, *, #326, .T. ) ;
#66 = LINE ( 'NONE', #731, #301 ) ;
#67 = FACE_OUTER_BOUND ( 'NONE', #1207, .T. ) ;
#68 = AXIS2_PLACEMENT_3D ( 'NONE', #820, #1034, #122 ) ;
#69 = FACE_OUTER_BOUND ( 'NONE', #905, .T. ) ;
#70 = DIRECTION ( 'NONE',  ( 2.621359919253841393E-15, -1.000000000000000000, 0.000000000000000000 ) ) ;
#71 = EDGE_CURVE ( 'NONE', #924, #525, #803, .T. ) ;
#72 = DIRECTION ( 'NONE',  ( 1.000000000000000000, 2.621359919253841393E-15, 0.000000000000000000 ) ) ;
#73 = FACE_OUTER_BOUND ( 'NONE', #786, .T. ) ;
#74 = LINE ( 'NONE', #957, #555 ) ;
#75 = VERTEX_POINT ( 'NONE', #669 ) ;
#76 = ORIENTED_EDGE ( 'NONE', *, *, #1173, .F. ) ;
#77 = EDGE_CURVE ( 'NONE', #78, #55, #166, .T. ) ;
#78 = VERTEX_POINT ( 'NONE', #271 ) ;
#79 = PLANE ( 'NONE',  #779 ) ;
#80 = ORIENTED_EDGE ( 'NONE', *, *, #765, .F. ) ;
#81 = EDGE_LOOP ( 'NONE', ( #994, #612, #111, #1006 ) ) ;
#82 = DIRECTION ( 'NONE',  ( -0.5000000000000015543, -0.4999999999999995004, -0.7071067811865467956 ) ) ;
#83 = EDGE_LOOP ( 'NONE', ( #1079, #711, #503, #1027 ) ) ;
#84 = DIRECTION ( 'NONE',  ( -0.000000000000000000, -0.000000000000000000, -1.000000000000000000 ) ) ;
#85 = ADVANCED_FACE ( 'NONE', ( #791 ), #677, .F. ) ;
#86 = DIRECTION ( 'NONE',  ( 1.000000000000000000, 5.046468293747122876E-15, 0.000000000000000000 ) ) ;
#87 = EDGE_CURVE ( 'NONE', #313, #1182, #74, .T. ) ;
#88 = ORIENTED_EDGE ( 'NONE', *, *, #507, .T. ) ;
#89 = ORIENTED_EDGE ( 'NONE', *, *, #157, .T. ) ;
#90 = AXIS2_PLACEMENT_3D ( 'NONE', #440, #830, #716 ) ;
#91 = CYLINDRICAL_SURFACE ( 'NONE', #161, 7.100000000000002309 ) ;
#92 = EDGE_CURVE ( 'NONE', #939, #26, #344, .T. ) ;
#93 = APPLICATION_PROTOCOL_DEFINITION ( 'draft international standard', 'automotive_design', 1998, #628 ) ;
#94 = ORIENTED_EDGE ( 'NONE', *, *, #472, .F. ) ;
#95 = CARTESIAN_POINT ( 'NONE',  ( -22.50000000000000000, -33.99999999999994316, 4.000000000000000000 ) ) ;
#96 = ORIENTED_EDGE ( 'NONE', *, *, #642, .F. ) ;
#97 = DIRECTION ( 'NONE',  ( -1.541976423090495387E-16, 1.000000000000000000, 0.000000000000000000 ) ) ;
#98 = ORIENTED_EDGE ( 'NONE', *, *, #284, .T. ) ;
#99 = EDGE_LOOP ( 'NONE', ( #353, #733 ) ) ;
#100 = CARTESIAN_POINT ( 'NONE',  ( 15.73499999998043819, -44.00000000000000000, 34.09712760254515729 ) ) ;
#101 = FACE_BOUND ( 'NONE', #403, .T. ) ;
#102 = CARTESIAN_POINT ( 'NONE',  ( -9.293014065059789885, 56.34340520441121214, 17.38597053142565585 ) ) ;
#103 = AXIS2_PLACEMENT_3D ( 'NONE', #367, #785, #585 ) ;
#104 = EDGE_LOOP ( 'NONE', ( #352, #168, #542, #325 ) ) ;
#105 = EDGE_CURVE ( 'NONE', #564, #1295, #1053, .T. ) ;
#106 = CARTESIAN_POINT ( 'NONE',  ( 7.100000000000002309, -28.14999999999999503, 4.000000000000000000 ) ) ;
#107 = EDGE_LOOP ( 'NONE', ( #225, #1241, #761, #658 ) ) ;
#108 = LINE ( 'NONE', #3, #810 ) ;
#109 = CARTESIAN_POINT ( 'NONE',  ( -28.25000000000002132, -28.24999999999990052, 5.899999999999999467 ) ) ;
#110 = ADVANCED_FACE ( 'NONE', ( #1267 ), #1273, .T. ) ;
#111 = ORIENTED_EDGE ( 'NONE', *, *, #187, .T. ) ;
#112 = VERTEX_POINT ( 'NONE', #996 ) ;
#113 = CARTESIAN_POINT ( 'NONE',  ( -27.01256313292356737, -27.01256313292345368, -0.000000000000000000 ) ) ;
#114 = FACE_OUTER_BOUND ( 'NONE', #220, .T. ) ;
#115 = ADVANCED_FACE ( 'NONE', ( #285 ), #1055, .T. ) ;
#116 = VECTOR ( 'NONE', #185, 1000.000000000000000 ) ;
#117 = DIRECTION ( 'NONE',  ( 4.034240641806528514E-17, 1.000000000000000000, 0.000000000000000000 ) ) ;
#118 = LINE ( 'NONE', #39, #907 ) ;
#119 = DIRECTION ( 'NONE',  ( 0.000000000000000000, 0.000000000000000000, -1.000000000000000000 ) ) ;
#120 = ORIENTED_EDGE ( 'NONE', *, *, #933, .F. ) ;
#121 = EDGE_CURVE ( 'NONE', #945, #680, #776, .T. ) ;
#122 = DIRECTION ( 'NONE',  ( 1.000000000000000000, 5.046468293747122876E-15, 0.000000000000000000 ) ) ;
#123 = CARTESIAN_POINT ( 'NONE',  ( -22.50000000000001066, 56.34340520441109135, 17.38597053142565585 ) ) ;
#124 = CARTESIAN_POINT ( 'NONE',  ( -22.50000000000001066, 56.34340520441109135, 61.57500000000015206 ) ) ;
#125 = LINE ( 'NONE', #144, #1159 ) ;
#126 = PRODUCT_DEFINITION_FORMATION_WITH_SPECIFIED_SOURCE ( 'ANY', '', #1294, .NOT_KNOWN. ) ;
#127 = VECTOR ( 'NONE', #130, 1000.000000000000000 ) ;
#128 = DIRECTION ( 'NONE',  ( 0.7071067811865479058, -2.852638914759767515E-17, -0.7071067811865471286 ) ) ;
#129 = ORIENTED_EDGE ( 'NONE', *, *, #424, .T. ) ;
#130 = DIRECTION ( 'NONE',  ( -0.000000000000000000, -0.000000000000000000, -1.000000000000000000 ) ) ;
#131 = DIRECTION ( 'NONE',  ( -1.102181015861748654E-16, 0.000000000000000000, -1.000000000000000000 ) ) ;
#132 = CARTESIAN_POINT ( 'NONE',  ( 0.000000000000000000, 19.65000000000000213, 4.000000000000000000 ) ) ;
#133 = VERTEX_POINT ( 'NONE', #1286 ) ;
#134 = CIRCLE ( 'NONE', #1235, 7.100000000000002309 ) ;
#135 = CARTESIAN_POINT ( 'NONE',  ( 0.000000000000000000, 19.65000000000000213, 4.000000000000000000 ) ) ;
#136 = CARTESIAN_POINT ( 'NONE',  ( -22.43933982822020923, -33.97487373415287237, 1.689339828220198125 ) ) ;
#137 = EDGE_CURVE ( 'NONE', #896, #78, #1157, .T. ) ;
#138 = FACE_BOUND ( 'NONE', #652, .T. ) ;
#139 = DIRECTION ( 'NONE',  ( 0.2810846377148224495, -0.6785983445458466656, 0.6785983445458466656 ) ) ;
#140 = VERTEX_POINT ( 'NONE', #849 ) ;
#141 = DIRECTION ( 'NONE',  ( -1.000000000000000000, 0.000000000000000000, 0.000000000000000000 ) ) ;
#142 = CARTESIAN_POINT ( 'NONE',  ( 15.73499999998042398, 56.34340520441119793, 50.29904253417369375 ) ) ;
#143 = FACE_OUTER_BOUND ( 'NONE', #1246, .T. ) ;
#144 = CARTESIAN_POINT ( 'NONE',  ( 7.100000000000002309, 19.65000000000000213, 4.000000000000000000 ) ) ;
#145 = EDGE_LOOP ( 'NONE', ( #1187, #1296, #355, #978 ) ) ;
#146 = FACE_OUTER_BOUND ( 'NONE', #1013, .T. ) ;
#147 = EDGE_CURVE ( 'NONE', #911, #1068, #488, .T. ) ;
#148 = CARTESIAN_POINT ( 'NONE',  ( -22.50000000000000000, -33.99999999999994316, 1.749999999999987566 ) ) ;
#149 = ORIENTED_EDGE ( 'NONE', *, *, #889, .F. ) ;
#150 = CARTESIAN_POINT ( 'NONE',  ( -22.49999999999999645, 44.03589794437405658, 5.899999999999997691 ) ) ;
#151 = CARTESIAN_POINT ( 'NONE',  ( -9.293014065059789885, 54.93369772343308455, 61.57500000000014495 ) ) ;
#152 = FACE_BOUND ( 'NONE', #99, .T. ) ;
#153 = EDGE_CURVE ( 'NONE', #1295, #734, #495, .T. ) ;
#154 = DIRECTION ( 'NONE',  ( 0.000000000000000000, 0.000000000000000000, -1.000000000000000000 ) ) ;
#155 = CIRCLE ( 'NONE', #893, 1.375000000000977884 ) ;
#156 = LINE ( 'NONE', #474, #917 ) ;
#157 = EDGE_CURVE ( 'NONE', #1203, #360, #297, .T. ) ;
#158 = DIRECTION ( 'NONE',  ( -1.000000000000000000, 0.000000000000000000, -0.000000000000000000 ) ) ;
#159 = VERTEX_POINT ( 'NONE', #538 ) ;
#160 = ORIENTED_EDGE ( 'NONE', *, *, #47, .T. ) ;
#161 = AXIS2_PLACEMENT_3D ( 'NONE', #2, #1119, #674 ) ;
#162 = VECTOR ( 'NONE', #437, 1000.000000000000114 ) ;
#163 = ORIENTED_EDGE ( 'NONE', *, *, #598, .F. ) ;
#164 = CARTESIAN_POINT ( 'NONE',  ( 0.000000000000000000, 19.65000000000000213, 5.899999999999999467 ) ) ;
#165 = ORIENTED_EDGE ( 'NONE', *, *, #526, .T. ) ;
#166 = LINE ( 'NONE', #477, #1113 ) ;
#167 = CARTESIAN_POINT ( 'NONE',  ( -12.49999999999999112, -43.99999999999999289, 1.749999999999987566 ) ) ;
#168 = ORIENTED_EDGE ( 'NONE', *, *, #944, .F. ) ;
#169 = CARTESIAN_POINT ( 'NONE',  ( -7.100000000000002309, 19.65000000000000213, 0.000000000000000000 ) ) ;
#170 = EDGE_CURVE ( 'NONE', #811, #1142, #212, .T. ) ;
#171 = AXIS2_PLACEMENT_3D ( 'NONE', #1234, #1139, #931 ) ;
#172 = ORIENTED_EDGE ( 'NONE', *, *, #981, .F. ) ;
#173 = CIRCLE ( 'NONE', #68, 1.375000000000977884 ) ;
#174 = ORIENTED_EDGE ( 'NONE', *, *, #326, .F. ) ;
#175 = LINE ( 'NONE', #577, #656 ) ;
#176 = EDGE_LOOP ( 'NONE', ( #837, #180, #1285, #708, #4 ) ) ;
#177 = CARTESIAN_POINT ( 'NONE',  ( 12.49999999999994849, -43.99999999999999289, 4.000000000000000000 ) ) ;
#178 = ORIENTED_EDGE ( 'NONE', *, *, #105, .F. ) ;
#179 = CARTESIAN_POINT ( 'NONE',  ( 22.50000000000000000, -33.99999999999997868, 4.000000000000000000 ) ) ;
#180 = ORIENTED_EDGE ( 'NONE', *, *, #137, .T. ) ;
#181 = CIRCLE ( 'NONE', #1143, 11.00000000000000000 ) ;
#182 = VERTEX_POINT ( 'NONE', #322 ) ;
#183 = LINE ( 'NONE', #993, #925 ) ;
#184 = PLANE ( 'NONE',  #358 ) ;
#185 = DIRECTION ( 'NONE',  ( 0.000000000000000000, 0.000000000000000000, 1.000000000000000000 ) ) ;
#186 = CARTESIAN_POINT ( 'NONE',  ( -15.74301406505936463, 56.34340520441111266, 50.29904253416150794 ) ) ;
#187 = EDGE_CURVE ( 'NONE', #1261, #1209, #701, .T. ) ;
#188 = ORIENTED_EDGE ( 'NONE', *, *, #695, .T. ) ;
#189 = DIRECTION ( 'NONE',  ( -0.000000000000000000, -0.000000000000000000, -1.000000000000000000 ) ) ;
#190 = DIRECTION ( 'NONE',  ( 3.691666887033558834E-15, 1.000000000000000000, -0.000000000000000000 ) ) ;
#191 = ORIENTED_EDGE ( 'NONE', *, *, #722, .F. ) ;
#192 = VECTOR ( 'NONE', #401, 1000.000000000000000 ) ;
#193 = PLANE ( 'NONE',  #556 ) ;
#194 = VECTOR ( 'NONE', #1104, 1000.000000000000000 ) ;
#195 = EDGE_CURVE ( 'NONE', #182, #1215, #298, .T. ) ;
#196 = EDGE_LOOP ( 'NONE', ( #1217, #908, #388, #899 ) ) ;
#197 = DIRECTION ( 'NONE',  ( -0.000000000000000000, -0.000000000000000000, -1.000000000000000000 ) ) ;
#198 = DIRECTION ( 'NONE',  ( -0.000000000000000000, -0.000000000000000000, -1.000000000000000000 ) ) ;
#199 = ORIENTED_EDGE ( 'NONE', *, *, #334, .T. ) ;
#200 = CARTESIAN_POINT ( 'NONE',  ( -49.38605552714444258, 61.71551627040729215, 16.79369717438737197 ) ) ;
#201 = DIRECTION ( 'NONE',  ( -0.000000000000000000, 0.000000000000000000, 1.000000000000000000 ) ) ;
#202 = DIRECTION ( 'NONE',  ( 3.691666887033559623E-15, 1.000000000000000000, 0.000000000000000000 ) ) ;
#203 = ORIENTED_EDGE ( 'NONE', *, *, #341, .T. ) ;
#204 = EDGE_CURVE ( 'NONE', #362, #1270, #108, .T. ) ;
#205 = CARTESIAN_POINT ( 'NONE',  ( 22.49999999999999289, 61.71551627040729215, 58.28000000000000114 ) ) ;
#206 = DIRECTION ( 'NONE',  ( 2.949376739710913007E-17, 0.7310859717059875473, 0.6822853523084839722 ) ) ;
#207 = CARTESIAN_POINT ( 'NONE',  ( -12.49999999999999112, -43.99999999999999289, 4.000000000000000000 ) ) ;
#208 = ADVANCED_FACE ( 'NONE', ( #973 ), #1276, .F. ) ;
#209 = EDGE_LOOP ( 'NONE', ( #1117, #165, #427, #199 ) ) ;
#210 = LINE ( 'NONE', #1257, #1160 ) ;
#211 = LINE ( 'NONE', #1033, #754 ) ;
#212 = CIRCLE ( 'NONE', #678, 1.375000000000977884 ) ;
#213 = CARTESIAN_POINT ( 'NONE',  ( -11.00000000000000000, -28.14999999999999503, 4.000000000000000000 ) ) ;
#214 = VECTOR ( 'NONE', #1243, 1000.000000000000114 ) ;
#215 = AXIS2_PLACEMENT_3D ( 'NONE', #480, #476, #278 ) ;
#216 = DIRECTION ( 'NONE',  ( -0.2810846377148193409, -0.6785983445458472207, 0.6785983445458471097 ) ) ;
#217 = VECTOR ( 'NONE', #317, 1000.000000000000000 ) ;
#218 = ORIENTED_EDGE ( 'NONE', *, *, #1105, .T. ) ;
#219 = PLANE ( 'NONE',  #473 ) ;
#220 = EDGE_LOOP ( 'NONE', ( #671, #1121, #234, #524 ) ) ;
#221 = DIRECTION ( 'NONE',  ( -1.541976423090495387E-16, 1.000000000000000000, 0.000000000000000000 ) ) ;
#222 = LINE ( 'NONE', #623, #793 ) ;
#223 = VECTOR ( 'NONE', #870, 1000.000000000000114 ) ;
#224 = DIRECTION ( 'NONE',  ( 0.000000000000000000, 0.000000000000000000, 1.000000000000000000 ) ) ;
#225 = ORIENTED_EDGE ( 'NONE', *, *, #722, .T. ) ;
#226 = ORIENTED_EDGE ( 'NONE', *, *, #377, .T. ) ;
#227 = VERTEX_POINT ( 'NONE', #148 ) ;
#228 = ADVANCED_FACE ( 'NONE', ( #946 ), #629, .T. ) ;
#229 = DIRECTION ( 'NONE',  ( 1.000000000000000000, -4.034240641806528514E-17, 0.000000000000000000 ) ) ;
#230 = CARTESIAN_POINT ( 'NONE',  ( 9.286773304553623376, 56.34340520441121214, 17.38597053142565940 ) ) ;
#231 = LINE ( 'NONE', #44, #1175 ) ;
#232 = DIRECTION ( 'NONE',  ( 0.000000000000000000, 1.000000000000000000, 0.000000000000000000 ) ) ;
#233 = CARTESIAN_POINT ( 'NONE',  ( -9.293014065059789885, 56.34340520441121214, 17.38597053142565585 ) ) ;
#234 = ORIENTED_EDGE ( 'NONE', *, *, #397, .F. ) ;
#235 = VERTEX_POINT ( 'NONE', #833 ) ;
#236 = ADVANCED_FACE ( 'NONE', ( #841 ), #938, .F. ) ;
#237 = VECTOR ( 'NONE', #1297, 1000.000000000000000 ) ;
#238 = DIRECTION ( 'NONE',  ( 0.000000000000000000, 0.000000000000000000, -1.000000000000000000 ) ) ;
#239 = CARTESIAN_POINT ( 'NONE',  ( -9.293014065059789885, 56.34105146392214891, 17.38361679093659617 ) ) ;
#240 = DIRECTION ( 'NONE',  ( -1.000000000000000000, 0.000000000000000000, 0.000000000000000000 ) ) ;
#241 = CARTESIAN_POINT ( 'NONE',  ( 14.35999999997884480, 56.34340520441119082, 50.29904253417369375 ) ) ;
#242 = SHAPE_DEFINITION_REPRESENTATION ( #1158, #243 ) ;
#243 = ADVANCED_BREP_SHAPE_REPRESENTATION ( 'Ankle-pulley-plate', ( #1284, #500 ), #1042 ) ;
#244 = DIRECTION ( 'NONE',  ( -1.000000000000000000, 0.000000000000000000, 0.000000000000000000 ) ) ;
#245 = DIRECTION ( 'NONE',  ( 1.000000000000000000, 0.000000000000000000, 0.000000000000000000 ) ) ;
#246 = DIRECTION ( 'NONE',  ( -1.000000000000000000, 0.000000000000000000, 0.000000000000000000 ) ) ;
#247 = EDGE_CURVE ( 'NONE', #389, #790, #609, .T. ) ;
#248 = DIRECTION ( 'NONE',  ( -0.5636002347497804932, -0.6039118733556941843, -0.5636002347497810483 ) ) ;
#249 = CARTESIAN_POINT ( 'NONE',  ( 14.35999999996459664, 56.34340520441119082, 34.09712760254515729 ) ) ;
#250 = CARTESIAN_POINT ( 'NONE',  ( 0.000000000000000000, 0.000000000000000000, 0.000000000000000000 ) ) ;
#251 = EDGE_CURVE ( 'NONE', #140, #680, #679, .T. ) ;
#252 = FACE_OUTER_BOUND ( 'NONE', #743, .T. ) ;
#253 = CYLINDRICAL_SURFACE ( 'NONE', #835, 11.00000000000000000 ) ;
#254 = LINE ( 'NONE', #654, #194 ) ;
#255 = ORIENTED_EDGE ( 'NONE', *, *, #801, .T. ) ;
#256 = VECTOR ( 'NONE', #1019, 1000.000000000000000 ) ;
#257 = ORIENTED_EDGE ( 'NONE', *, *, #481, .T. ) ;
#258 = CIRCLE ( 'NONE', #324, 1.375000000000976108 ) ;
#259 = DIRECTION ( 'NONE',  ( -1.541976423090495387E-16, 1.000000000000000000, -0.000000000000000000 ) ) ;
#260 = DIRECTION ( 'NONE',  ( 1.000000000000000000, 0.000000000000000000, 0.000000000000000000 ) ) ;
#261 = CARTESIAN_POINT ( 'NONE',  ( 22.50000000000000355, -33.99999999999997868, 5.899999999999999467 ) ) ;
#262 = AXIS2_PLACEMENT_3D ( 'NONE', #605, #520, #1044 ) ;
#263 = VECTOR ( 'NONE', #117, 1000.000000000000000 ) ;
#264 = ORIENTED_EDGE ( 'NONE', *, *, #1179, .T. ) ;
#265 = DIRECTION ( 'NONE',  ( -0.000000000000000000, 0.000000000000000000, 1.000000000000000000 ) ) ;
#266 = EDGE_CURVE ( 'NONE', #845, #389, #211, .T. ) ;
#267 = CARTESIAN_POINT ( 'NONE',  ( -14.36801406505838585, 56.34340520441111977, 34.09712760253297859 ) ) ;
#268 = VERTEX_POINT ( 'NONE', #283 ) ;
#269 = DIRECTION ( 'NONE',  ( 0.000000000000000000, 0.000000000000000000, 1.000000000000000000 ) ) ;
#270 = ORIENTED_EDGE ( 'NONE', *, *, #1240, .F. ) ;
#271 = CARTESIAN_POINT ( 'NONE',  ( -9.293014065059789885, 54.93369772343308455, 18.79097053142567120 ) ) ;
#272 = EDGE_CURVE ( 'NONE', #1251, #959, #1018, .T. ) ;
#273 = CYLINDRICAL_SURFACE ( 'NONE', #392, 11.00000000000000000 ) ;
#274 = AXIS2_PLACEMENT_3D ( 'NONE', #135, #640, #535 ) ;
#275 = VERTEX_POINT ( 'NONE', #1244 ) ;
#276 = UNCERTAINTY_MEASURE_WITH_UNIT (LENGTH_MEASURE( 1.000000000000000082E-05 ), #340, 'distance_accuracy_value', 'NONE');
#277 =( NAMED_UNIT ( * ) SI_UNIT ( $, .STERADIAN. ) SOLID_ANGLE_UNIT ( ) );
#278 = DIRECTION ( 'NONE',  ( 1.000000000000000000, 0.000000000000000000, 0.000000000000000000 ) ) ;
#279 = VECTOR ( 'NONE', #974, 999.9999999999998863 ) ;
#280 = DIRECTION ( 'NONE',  ( 0.000000000000000000, 0.000000000000000000, -1.000000000000000000 ) ) ;
#281 = CARTESIAN_POINT ( 'NONE',  ( 0.000000000000000000, -43.99999999999999289, 5.899999999999999467 ) ) ;
#282 = CARTESIAN_POINT ( 'NONE',  ( 22.50000000000000000, 61.71551627040729215, 16.79369717438737197 ) ) ;
#283 = CARTESIAN_POINT ( 'NONE',  ( 9.286773304553619823, 56.33869772343309279, 17.38597053142565585 ) ) ;
#284 = EDGE_CURVE ( 'NONE', #775, #685, #357, .T. ) ;
#285 = FACE_OUTER_BOUND ( 'NONE', #1090, .T. ) ;
#286 = ORIENTED_EDGE ( 'NONE', *, *, #1240, .T. ) ;
#287 = DIRECTION ( 'NONE',  ( 0.000000000000000000, 0.000000000000000000, 1.000000000000000000 ) ) ;
#288 = DIRECTION ( 'NONE',  ( -0.000000000000000000, -0.000000000000000000, -1.000000000000000000 ) ) ;
#289 = CARTESIAN_POINT ( 'NONE',  ( -15.74301406505935041, -44.00000000000000000, 50.29904253416150794 ) ) ;
#290 = ADVANCED_FACE ( 'NONE', ( #548 ), #446, .F. ) ;
#291 = LINE ( 'NONE', #1062, #1239 ) ;
#292 = ORIENTED_EDGE ( 'NONE', *, *, #630, .T. ) ;
#293 = FACE_OUTER_BOUND ( 'NONE', #824, .T. ) ;
#294 = ORIENTED_EDGE ( 'NONE', *, *, #121, .F. ) ;
#295 = DIRECTION ( 'NONE',  ( -1.541976423090495387E-16, 1.000000000000000000, -0.000000000000000000 ) ) ;
#296 = LINE ( 'NONE', #281, #620 ) ;
#297 = LINE ( 'NONE', #1149, #192 ) ;
#298 = CIRCLE ( 'NONE', #25, 7.100000000000002309 ) ;
#299 = ORIENTED_EDGE ( 'NONE', *, *, #195, .F. ) ;
#300 = ORIENTED_EDGE ( 'NONE', *, *, #187, .F. ) ;
#301 = VECTOR ( 'NONE', #453, 1000.000000000000000 ) ;
#302 = EDGE_CURVE ( 'NONE', #547, #112, #1118, .T. ) ;
#303 = CARTESIAN_POINT ( 'NONE',  ( 0.000000000000000000, 19.65000000000000213, 4.000000000000000000 ) ) ;
#304 = LINE ( 'NONE', #430, #1015 ) ;
#305 = CARTESIAN_POINT ( 'NONE',  ( 0.000000000000000000, -28.14999999999999503, 4.000000000000000000 ) ) ;
#306 = ORIENTED_EDGE ( 'NONE', *, *, #695, .F. ) ;
#307 = AXIS2_PLACEMENT_3D ( 'NONE', #100, #794, #16 ) ;
#308 = EDGE_CURVE ( 'NONE', #883, #313, #580, .T. ) ;
#309 = DIRECTION ( 'NONE',  ( 2.621359919253841393E-15, -1.000000000000000000, 0.000000000000000000 ) ) ;
#310 = DIRECTION ( 'NONE',  ( 1.000000000000000000, 5.046468293747122876E-15, 0.000000000000000000 ) ) ;
#311 = LINE ( 'NONE', #710, #1003 ) ;
#312 = VERTEX_POINT ( 'NONE', #123 ) ;
#313 = VERTEX_POINT ( 'NONE', #241 ) ;
#314 = CARTESIAN_POINT ( 'NONE',  ( 9.286773304553619823, 56.34340520441121214, 17.38597053142565585 ) ) ;
#315 = VERTEX_POINT ( 'NONE', #1023 ) ;
#316 = EDGE_CURVE ( 'NONE', #159, #1045, #1026, .T. ) ;
#317 = DIRECTION ( 'NONE',  ( -0.000000000000000000, -0.7310859717059875473, -0.6822853523084839722 ) ) ;
#318 = FACE_OUTER_BOUND ( 'NONE', #604, .T. ) ;
#319 = AXIS2_PLACEMENT_3D ( 'NONE', #205, #887, #1107 ) ;
#320 = AXIS2_PLACEMENT_3D ( 'NONE', #891, #10, #1201 ) ;
#321 = DIRECTION ( 'NONE',  ( -0.6785983445458481089, -0.2810846377148168984, 0.6785983445458473318 ) ) ;
#322 = CARTESIAN_POINT ( 'NONE',  ( 7.100000000000002309, -28.14999999999999503, 4.000000000000000000 ) ) ;
#323 = DIRECTION ( 'NONE',  ( 0.7071067811865490160, 0.7071067811865461294, 0.000000000000000000 ) ) ;
#324 = AXIS2_PLACEMENT_3D ( 'NONE', #28, #426, #836 ) ;
#325 = ORIENTED_EDGE ( 'NONE', *, *, #1212, .F. ) ;
#326 = EDGE_CURVE ( 'NONE', #75, #945, #534, .T. ) ;
#327 = DIRECTION ( 'NONE',  ( -0.000000000000000000, -0.000000000000000000, -1.000000000000000000 ) ) ;
#328 = CARTESIAN_POINT ( 'NONE',  ( -15.74301406505935041, -44.00000000000000000, 50.29904253416150794 ) ) ;
#329 = PLANE ( 'NONE',  #262 ) ;
#330 = CARTESIAN_POINT ( 'NONE',  ( -17.11801406506033985, 56.34340520441110556, 34.09712760253297859 ) ) ;
#331 = MECHANICAL_DESIGN_GEOMETRIC_PRESENTATION_REPRESENTATION (  '', ( #739 ), #1083 ) ;
#332 = FACE_OUTER_BOUND ( 'NONE', #209, .T. ) ;
#333 = ORIENTED_EDGE ( 'NONE', *, *, #407, .T. ) ;
#334 = EDGE_CURVE ( 'NONE', #312, #583, #1292, .T. ) ;
#335 = CARTESIAN_POINT ( 'NONE',  ( 15.73499999998043819, -44.00000000000000000, 50.29904253417369375 ) ) ;
#336 = FACE_OUTER_BOUND ( 'NONE', #497, .T. ) ;
#337 = DIRECTION ( 'NONE',  ( 0.7071067811865489050, 0.7071067811865460184, 0.000000000000000000 ) ) ;
#338 = VERTEX_POINT ( 'NONE', #560 ) ;
#339 = ORIENTED_EDGE ( 'NONE', *, *, #433, .F. ) ;
#340 =( LENGTH_UNIT ( ) NAMED_UNIT ( * ) SI_UNIT ( .MILLI., .METRE. ) );
#341 = EDGE_CURVE ( 'NONE', #1197, #878, #637, .T. ) ;
#342 = CARTESIAN_POINT ( 'NONE',  ( -11.00000000000000000, -28.14999999999999503, 5.899999999999999467 ) ) ;
#343 = AXIS2_PLACEMENT_3D ( 'NONE', #962, #861, #1268 ) ;
#344 = LINE ( 'NONE', #462, #1114 ) ;
#345 = CARTESIAN_POINT ( 'NONE',  ( 0.000000000000000000, 0.000000000000000000, 0.000000000000000000 ) ) ;
#346 = PLANE ( 'NONE',  #319 ) ;
#347 = EDGE_CURVE ( 'NONE', #11, #275, #772, .T. ) ;
#348 = CARTESIAN_POINT ( 'NONE',  ( 17.10999999999626553, -44.00000000000000000, 34.09712760254515729 ) ) ;
#349 = VECTOR ( 'NONE', #1293, 1000.000000000000000 ) ;
#350 = CARTESIAN_POINT ( 'NONE',  ( -9.293014065059786333, 56.34340520441120503, 17.38597053142565940 ) ) ;
#351 = DIRECTION ( 'NONE',  ( -0.5636002347497812703, 0.6039118733556937402, 0.5636002347497807152 ) ) ;
#352 = ORIENTED_EDGE ( 'NONE', *, *, #1230, .T. ) ;
#353 = ORIENTED_EDGE ( 'NONE', *, *, #1049, .F. ) ;
#354 = CARTESIAN_POINT ( 'NONE',  ( -15.74301406505935041, -44.00000000000000000, 34.09712760253297859 ) ) ;
#355 = ORIENTED_EDGE ( 'NONE', *, *, #1230, .F. ) ;
#356 = DIRECTION ( 'NONE',  ( -0.000000000000000000, -0.000000000000000000, -1.000000000000000000 ) ) ;
#357 = CIRCLE ( 'NONE', #659, 11.00000000000000000 ) ;
#358 = AXIS2_PLACEMENT_3D ( 'NONE', #102, #1202, #494 ) ;
#359 = EDGE_CURVE ( 'NONE', #312, #1203, #1174, .T. ) ;
#360 = VERTEX_POINT ( 'NONE', #12 ) ;
#361 = CARTESIAN_POINT ( 'NONE',  ( -49.46743889684048412, 41.99999999999999289, 4.000000000000000000 ) ) ;
#362 = VERTEX_POINT ( 'NONE', #1099 ) ;
#363 = CARTESIAN_POINT ( 'NONE',  ( 15.73499999998042043, 61.71551627040729215, 50.29904253417369375 ) ) ;
#364 = AXIS2_PLACEMENT_3D ( 'NONE', #60, #447, #72 ) ;
#365 = ORIENTED_EDGE ( 'NONE', *, *, #1162, .T. ) ;
#366 = EDGE_CURVE ( 'NONE', #1021, #634, #591, .T. ) ;
#367 = CARTESIAN_POINT ( 'NONE',  ( 15.73499999998042043, 61.71551627040729215, 34.09712760254515729 ) ) ;
#368 = DIRECTION ( 'NONE',  ( -0.000000000000000000, 0.000000000000000000, 1.000000000000000000 ) ) ;
#369 = ORIENTED_EDGE ( 'NONE', *, *, #77, .F. ) ;
#370 = DIRECTION ( 'NONE',  ( 0.000000000000000000, 0.000000000000000000, -1.000000000000000000 ) ) ;
#371 = ORIENTED_EDGE ( 'NONE', *, *, #170, .F. ) ;
#372 = DIRECTION ( 'NONE',  ( -1.000000000000000000, 0.000000000000000000, 0.000000000000000000 ) ) ;
#373 = CARTESIAN_POINT ( 'NONE',  ( -15.74301406505935041, -44.00000000000000000, 34.09712760253297859 ) ) ;
#374 = EDGE_CURVE ( 'NONE', #939, #606, #311, .T. ) ;
#375 = ORIENTED_EDGE ( 'NONE', *, *, #862, .F. ) ;
#376 = ORIENTED_EDGE ( 'NONE', *, *, #1196, .F. ) ;
#377 = EDGE_CURVE ( 'NONE', #845, #315, #702, .T. ) ;
#378 = LINE ( 'NONE', #877, #1080 ) ;
#379 = AXIS2_PLACEMENT_3D ( 'NONE', #361, #874, #1290 ) ;
#380 = AXIS2_PLACEMENT_3D ( 'NONE', #303, #201, #504 ) ;
#381 = ORIENTED_EDGE ( 'NONE', *, *, #8, .F. ) ;
#382 = AXIS2_PLACEMENT_3D ( 'NONE', #515, #131, #413 ) ;
#383 = ORIENTED_EDGE ( 'NONE', *, *, #1259, .F. ) ;
#384 = ORIENTED_EDGE ( 'NONE', *, *, #1085, .F. ) ;
#385 = LINE ( 'NONE', #95, #349 ) ;
#386 = DIRECTION ( 'NONE',  ( 0.000000000000000000, 0.000000000000000000, 1.000000000000000000 ) ) ;
#387 = ADVANCED_FACE ( 'NONE', ( #714 ), #1025, .F. ) ;
#388 = ORIENTED_EDGE ( 'NONE', *, *, #247, .T. ) ;
#389 = VERTEX_POINT ( 'NONE', #964 ) ;
#390 = DIRECTION ( 'NONE',  ( 0.7071067811865460184, -0.7071067811865489050, 0.000000000000000000 ) ) ;
#391 = APPLICATION_CONTEXT ( 'automotive_design' ) ;
#392 = AXIS2_PLACEMENT_3D ( 'NONE', #493, #189, #394 ) ;
#393 = CARTESIAN_POINT ( 'NONE',  ( -22.49999999999999645, 45.59581513718561041, 1.749999999999984235 ) ) ;
#394 = DIRECTION ( 'NONE',  ( -1.000000000000000000, 0.000000000000000000, 0.000000000000000000 ) ) ;
#395 = DIRECTION ( 'NONE',  ( -1.541976423090495387E-16, 1.000000000000000000, -0.000000000000000000 ) ) ;
#396 = EDGE_LOOP ( 'NONE', ( #5, #299 ) ) ;
#397 = EDGE_CURVE ( 'NONE', #1186, #11, #66, .T. ) ;
#398 = ORIENTED_EDGE ( 'NONE', *, *, #1146, .T. ) ;
#399 = DIRECTION ( 'NONE',  ( 1.000000000000000000, 0.000000000000000000, 0.000000000000000000 ) ) ;
#400 = DIRECTION ( 'NONE',  ( -0.000000000000000000, -0.000000000000000000, -1.000000000000000000 ) ) ;
#401 = DIRECTION ( 'NONE',  ( 2.583302474078872698E-15, 1.000000000000000000, -2.847266945158420523E-31 ) ) ;
#402 = ORIENTED_EDGE ( 'NONE', *, *, #619, .F. ) ;
#403 = EDGE_LOOP ( 'NONE', ( #1249, #618 ) ) ;
#404 = AXIS2_PLACEMENT_3D ( 'NONE', #305, #288, #876 ) ;
#405 = EDGE_LOOP ( 'NONE', ( #817, #419 ) ) ;
#406 = ORIENTED_EDGE ( 'NONE', *, *, #147, .F. ) ;
#407 = EDGE_CURVE ( 'NONE', #112, #159, #125, .T. ) ;
#408 = LINE ( 'NONE', #697, #684 ) ;
#409 = VECTOR ( 'NONE', #190, 1000.000000000000000 ) ;
#410 = DIRECTION ( 'NONE',  ( -0.000000000000000000, -0.000000000000000000, -1.000000000000000000 ) ) ;
#411 = EDGE_LOOP ( 'NONE', ( #434, #163, #871, #1288 ) ) ;
#412 = VECTOR ( 'NONE', #816, 1000.000000000000000 ) ;
#413 = DIRECTION ( 'NONE',  ( -1.000000000000000000, 0.000000000000000000, 1.102181015861748654E-16 ) ) ;
#414 = ORIENTED_EDGE ( 'NONE', *, *, #366, .T. ) ;
#415 = CARTESIAN_POINT ( 'NONE',  ( 11.77512626584703348, -42.25000000000000000, 0.000000000000000000 ) ) ;
#416 = SURFACE_STYLE_FILL_AREA ( #928 ) ;
#417 = CIRCLE ( 'NONE', #1016, 1.375000000015827117 ) ;
#418 = DIRECTION ( 'NONE',  ( 0.000000000000000000, -0.000000000000000000, 1.000000000000000000 ) ) ;
#419 = ORIENTED_EDGE ( 'NONE', *, *, #247, .F. ) ;
#420 = ORIENTED_EDGE ( 'NONE', *, *, #958, .F. ) ;
#421 = DIRECTION ( 'NONE',  ( 0.000000000000000000, 0.7310859717059875473, 0.6822853523084839722 ) ) ;
#422 = LINE ( 'NONE', #54, #127 ) ;
#423 = CARTESIAN_POINT ( 'NONE',  ( 28.24999999999995026, -28.25000000000007105, 5.899999999999999467 ) ) ;
#424 = EDGE_CURVE ( 'NONE', #75, #140, #222, .T. ) ;
#425 = CARTESIAN_POINT ( 'NONE',  ( -17.11801406506032563, -44.00000000000000000, 50.29904253416150794 ) ) ;
#426 = DIRECTION ( 'NONE',  ( -1.541976423090495387E-16, 1.000000000000000000, 0.000000000000000000 ) ) ;
#427 = ORIENTED_EDGE ( 'NONE', *, *, #359, .F. ) ;
#428 = CYLINDRICAL_SURFACE ( 'NONE', #1136, 7.100000000000002309 ) ;
#429 = CARTESIAN_POINT ( 'NONE',  ( 0.000000000000000000, -28.14999999999999503, 5.899999999999999467 ) ) ;
#430 = CARTESIAN_POINT ( 'NONE',  ( 24.40743569830549120, -34.79008573559272577, 3.657435698305480987 ) ) ;
#431 = AXIS2_PLACEMENT_3D ( 'NONE', #441, #1255, #337 ) ;
#432 = FACE_OUTER_BOUND ( 'NONE', #1178, .T. ) ;
#433 = EDGE_CURVE ( 'NONE', #553, #911, #1154, .T. ) ;
#434 = ORIENTED_EDGE ( 'NONE', *, *, #1173, .T. ) ;
#435 = EDGE_LOOP ( 'NONE', ( #203, #675 ) ) ;
#436 = CYLINDRICAL_SURFACE ( 'NONE', #343, 11.00000000000000000 ) ;
#437 = DIRECTION ( 'NONE',  ( -0.7071067811865489050, -0.7071067811865460184, 0.000000000000000000 ) ) ;
#438 = VECTOR ( 'NONE', #216, 1000.000000000000114 ) ;
#439 = ORIENTED_EDGE ( 'NONE', *, *, #1155, .F. ) ;
#440 = CARTESIAN_POINT ( 'NONE',  ( 0.000000000000000000, -28.14999999999999503, 4.000000000000000000 ) ) ;
#441 = CARTESIAN_POINT ( 'NONE',  ( 27.01256313292349276, -27.01256313292360645, 0.000000000000000000 ) ) ;
#442 = DIRECTION ( 'NONE',  ( -0.000000000000000000, 0.000000000000000000, 1.000000000000000000 ) ) ;
#443 = ADVANCED_FACE ( 'NONE', ( #632, #537, #546, #562, #1183 ), #346, .F. ) ;
#444 = PRODUCT_CONTEXT ( 'NONE', #391, 'mechanical' ) ;
#445 = CARTESIAN_POINT ( 'NONE',  ( 22.50000000000000000, -43.99999999999999289, 4.000000000000000000 ) ) ;
#446 = PLANE ( 'NONE',  #851 ) ;
#447 = DIRECTION ( 'NONE',  ( 2.621359919253841393E-15, -1.000000000000000000, 0.000000000000000000 ) ) ;
#448 = CARTESIAN_POINT ( 'NONE',  ( 17.10999999998201915, -44.00000000000000000, 50.29904253417369375 ) ) ;
#449 = DIRECTION ( 'NONE',  ( 1.000000000000000000, 0.000000000000000000, 0.000000000000000000 ) ) ;
#450 = ADVANCED_FACE ( 'NONE', ( #975 ), #1280, .T. ) ;
#451 =( LENGTH_UNIT ( ) NAMED_UNIT ( * ) SI_UNIT ( .MILLI., .METRE. ) );
#452 = AXIS2_PLACEMENT_3D ( 'NONE', #445, #1066, #528 ) ;
#453 = DIRECTION ( 'NONE',  ( 0.000000000000000000, 0.000000000000000000, -1.000000000000000000 ) ) ;
#454 = ORIENTED_EDGE ( 'NONE', *, *, #316, .T. ) ;
#455 = CARTESIAN_POINT ( 'NONE',  ( 22.50000000000000000, 45.59581513718561041, 1.749999999999984235 ) ) ;
#456 = VECTOR ( 'NONE', #1264, 1000.000000000000000 ) ;
#457 = DIRECTION ( 'NONE',  ( -1.000000000000000000, 0.000000000000000000, 0.000000000000000000 ) ) ;
#458 = VECTOR ( 'NONE', #1200, 1000.000000000000000 ) ;
#459 = ORIENTED_EDGE ( 'NONE', *, *, #153, .F. ) ;
#460 = CIRCLE ( 'NONE', #621, 1.375000000015828894 ) ;
#461 = ORIENTED_EDGE ( 'NONE', *, *, #23, .T. ) ;
#462 = CARTESIAN_POINT ( 'NONE',  ( 9.930876352216879255, 32.12768198081450066, -10.81912364778314739 ) ) ;
#463 = DIRECTION ( 'NONE',  ( 0.000000000000000000, 0.000000000000000000, 1.000000000000000000 ) ) ;
#464 = ORIENTED_EDGE ( 'NONE', *, *, #642, .T. ) ;
#465 = DIRECTION ( 'NONE',  ( 1.000000000000000000, 6.308085367188388762E-17, 0.000000000000000000 ) ) ;
#466 = ADVANCED_FACE ( 'NONE', ( #293 ), #193, .F. ) ;
#467 = CARTESIAN_POINT ( 'NONE',  ( -22.50000000000000000, -43.99999999999999289, 1.749999999999987566 ) ) ;
#468 = EDGE_LOOP ( 'NONE', ( #1108, #572, #1110, #1093 ) ) ;
#469 = ORIENTED_EDGE ( 'NONE', *, *, #366, .F. ) ;
#470 = EDGE_LOOP ( 'NONE', ( #838, #292, #1078, #894 ) ) ;
#471 = CARTESIAN_POINT ( 'NONE',  ( 22.50000000000000000, -33.99999999999997868, 1.749999999999988454 ) ) ;
#472 = EDGE_CURVE ( 'NONE', #568, #918, #1092, .T. ) ;
#473 = AXIS2_PLACEMENT_3D ( 'NONE', #741, #238, #1129 ) ;
#474 = CARTESIAN_POINT ( 'NONE',  ( -49.38605552714444258, 61.71551627040729215, 16.79369717438737197 ) ) ;
#475 = DIRECTION ( 'NONE',  ( -1.000000000000000000, 0.000000000000000000, 0.000000000000000000 ) ) ;
#476 = DIRECTION ( 'NONE',  ( 0.000000000000000000, 0.000000000000000000, 1.000000000000000000 ) ) ;
#477 = CARTESIAN_POINT ( 'NONE',  ( 9.286773304553614494, 54.93369772343308455, 18.79097053142567120 ) ) ;
#478 = CARTESIAN_POINT ( 'NONE',  ( 9.286773304553619823, 56.34340520441121214, 17.38597053142565585 ) ) ;
#479 = CARTESIAN_POINT ( 'NONE',  ( -22.50000000000001066, 56.34340520441109135, -0.001000000000001000089 ) ) ;
#480 = CARTESIAN_POINT ( 'NONE',  ( 0.000000000000000000, 19.65000000000000213, 4.000000000000000000 ) ) ;
#481 = EDGE_CURVE ( 'NONE', #911, #808, #509, .T. ) ;
#482 = CARTESIAN_POINT ( 'NONE',  ( 22.50000000000000000, -33.99999999999997868, 1.749999999999987566 ) ) ;
#483 = CARTESIAN_POINT ( 'NONE',  ( -22.49999999999999645, 61.71551627040729215, 16.79369717438737197 ) ) ;
#484 = DIRECTION ( 'NONE',  ( -0.000000000000000000, 0.000000000000000000, 1.000000000000000000 ) ) ;
#485 = EDGE_CURVE ( 'NONE', #1142, #1261, #210, .T. ) ;
#486 = ORIENTED_EDGE ( 'NONE', *, *, #1105, .F. ) ;
#487 = DIRECTION ( 'NONE',  ( 0.7071067811865460184, -0.7071067811865490160, 0.000000000000000000 ) ) ;
#488 = LINE ( 'NONE', #179, #657 ) ;
#489 = AXIS2_PLACEMENT_3D ( 'NONE', #554, #70, #864 ) ;
#490 = AXIS2_PLACEMENT_3D ( 'NONE', #53, #1225, #718 ) ;
#491 = CIRCLE ( 'NONE', #380, 11.00000000000000000 ) ;
#492 = ORIENTED_EDGE ( 'NONE', *, *, #302, .F. ) ;
#493 = CARTESIAN_POINT ( 'NONE',  ( 0.000000000000000000, -28.14999999999999503, 5.899999999999999467 ) ) ;
#494 = DIRECTION ( 'NONE',  ( 0.000000000000000000, 0.000000000000000000, 1.000000000000000000 ) ) ;
#495 = LINE ( 'NONE', #898, #832 ) ;
#496 = VECTOR ( 'NONE', #197, 1000.000000000000000 ) ;
#497 = EDGE_LOOP ( 'NONE', ( #725, #398 ) ) ;
#498 = EDGE_LOOP ( 'NONE', ( #371, #831 ) ) ;
#499 = VECTOR ( 'NONE', #321, 1000.000000000000000 ) ;
#500 = AXIS2_PLACEMENT_3D ( 'NONE', #345, #269, #983 ) ;
#501 = FACE_OUTER_BOUND ( 'NONE', #1192, .T. ) ;
#502 = ADVANCED_FACE ( 'NONE', ( #318 ), #43, .F. ) ;
#503 = ORIENTED_EDGE ( 'NONE', *, *, #563, .F. ) ;
#504 = DIRECTION ( 'NONE',  ( 1.000000000000000000, 0.000000000000000000, 0.000000000000000000 ) ) ;
#505 = LINE ( 'NONE', #136, #499 ) ;
#506 = FACE_OUTER_BOUND ( 'NONE', #145, .T. ) ;
#507 = EDGE_CURVE ( 'NONE', #680, #140, #7, .T. ) ;
#508 = VECTOR ( 'NONE', #574, 1000.000000000000000 ) ;
#509 = LINE ( 'NONE', #826, #683 ) ;
#510 = AXIS2_PLACEMENT_3D ( 'NONE', #142, #950, #1161 ) ;
#511 = AXIS2_PLACEMENT_3D ( 'NONE', #335, #638, #949 ) ;
#512 = CARTESIAN_POINT ( 'NONE',  ( 0.000000000000000000, 19.65000000000000213, 0.000000000000000000 ) ) ;
#513 = CARTESIAN_POINT ( 'NONE',  ( 22.50000000000000000, 56.34340520441121214, 61.57500000000014495 ) ) ;
#514 = CYLINDRICAL_SURFACE ( 'NONE', #404, 7.100000000000002309 ) ;
#515 = CARTESIAN_POINT ( 'NONE',  ( 15.73499999999831012, 55.03999999999975046, 61.57500000000014495 ) ) ;
#516 = EDGE_LOOP ( 'NONE', ( #1064, #255, #1218, #1232 ) ) ;
#517 = AXIS2_PLACEMENT_3D ( 'NONE', #681, #368, #787 ) ;
#518 = ADVANCED_FACE ( 'NONE', ( #970, #152, #69 ), #767, .T. ) ;
#519 = FACE_OUTER_BOUND ( 'NONE', #576, .T. ) ;
#520 = DIRECTION ( 'NONE',  ( 0.000000000000000000, 0.000000000000000000, -1.000000000000000000 ) ) ;
#521 = PRESENTATION_LAYER_ASSIGNMENT (  '', '', ( #739 ) ) ;
#522 = ORIENTED_EDGE ( 'NONE', *, *, #1179, .F. ) ;
#523 = DIRECTION ( 'NONE',  ( -1.000000000000000000, 0.000000000000000000, 0.000000000000000000 ) ) ;
#524 = ORIENTED_EDGE ( 'NONE', *, *, #1002, .F. ) ;
#525 = VERTEX_POINT ( 'NONE', #1164 ) ;
#526 = EDGE_CURVE ( 'NONE', #924, #1203, #254, .T. ) ;
#527 = CARTESIAN_POINT ( 'NONE',  ( 14.35999999997884125, 61.71551627040729215, 50.29904253417369375 ) ) ;
#528 = DIRECTION ( 'NONE',  ( -4.034240641806528514E-17, -1.000000000000000000, 0.000000000000000000 ) ) ;
#529 = ORIENTED_EDGE ( 'NONE', *, *, #272, .T. ) ;
#530 = PLANE ( 'NONE',  #1216 ) ;
#531 = DIRECTION ( 'NONE',  ( 4.034240641806528514E-17, 1.000000000000000000, 0.000000000000000000 ) ) ;
#532 = ORIENTED_EDGE ( 'NONE', *, *, #157, .F. ) ;
#533 = ORIENTED_EDGE ( 'NONE', *, *, #472, .T. ) ;
#534 = CIRCLE ( 'NONE', #1094, 11.00000000000000000 ) ;
#535 = DIRECTION ( 'NONE',  ( 1.000000000000000000, 0.000000000000000000, 0.000000000000000000 ) ) ;
#536 = CARTESIAN_POINT ( 'NONE',  ( -14.36801406505838941, 61.71551627040729215, 34.09712760253297859 ) ) ;
#537 = FACE_BOUND ( 'NONE', #558, .T. ) ;
#538 = CARTESIAN_POINT ( 'NONE',  ( 7.100000000000002309, 19.65000000000000213, 0.000000000000000000 ) ) ;
#539 = CARTESIAN_POINT ( 'NONE',  ( -11.00000000000000000, 19.65000000000000213, 5.899999999999999467 ) ) ;
#540 = CYLINDRICAL_SURFACE ( 'NONE', #52, 1.375000000001579847 ) ;
#541 = VECTOR ( 'NONE', #224, 1000.000000000000000 ) ;
#542 = ORIENTED_EDGE ( 'NONE', *, *, #649, .F. ) ;
#543 = ADVANCED_FACE ( 'NONE', ( #800 ), #184, .T. ) ;
#544 = ORIENTED_EDGE ( 'NONE', *, *, #1155, .T. ) ;
#545 = VECTOR ( 'NONE', #903, 1000.000000000000000 ) ;
#546 = FACE_BOUND ( 'NONE', #1274, .T. ) ;
#547 = VERTEX_POINT ( 'NONE', #694 ) ;
#548 = FACE_OUTER_BOUND ( 'NONE', #789, .T. ) ;
#549 = FACE_OUTER_BOUND ( 'NONE', #83, .T. ) ;
#550 = DIRECTION ( 'NONE',  ( 0.000000000000000000, -0.7071067811865441310, 0.7071067811865510144 ) ) ;
#551 = ADVANCED_FACE ( 'NONE', ( #901 ), #1211, .T. ) ;
#552 = DIRECTION ( 'NONE',  ( 1.000000000000000000, 0.000000000000000000, 0.000000000000000000 ) ) ;
#553 = VERTEX_POINT ( 'NONE', #804 ) ;
#554 = CARTESIAN_POINT ( 'NONE',  ( 15.73499999998042398, 56.34340520441119793, 34.09712760254515729 ) ) ;
#555 = VECTOR ( 'NONE', #64, 1000.000000000000000 ) ;
#556 = AXIS2_PLACEMENT_3D ( 'NONE', #693, #484, #399 ) ;
#557 = DIRECTION ( 'NONE',  ( 1.000000000000000000, 4.205390244792259585E-17, 0.000000000000000000 ) ) ;
#558 = EDGE_LOOP ( 'NONE', ( #376, #300 ) ) ;
#559 = VECTOR ( 'NONE', #84, 1000.000000000000000 ) ;
#560 = CARTESIAN_POINT ( 'NONE',  ( 20.75000000000001421, -33.27512626584706368, 0.000000000000000000 ) ) ;
#561 = CARTESIAN_POINT ( 'NONE',  ( 0.000000000000000000, -28.14999999999999503, 5.899999999999999467 ) ) ;
#562 = FACE_BOUND ( 'NONE', #1052, .T. ) ;
#563 = EDGE_CURVE ( 'NONE', #133, #235, #491, .T. ) ;
#564 = VERTEX_POINT ( 'NONE', #909 ) ;
#565 = LINE ( 'NONE', #109, #736 ) ;
#566 = VECTOR ( 'NONE', #410, 1000.000000000000000 ) ;
#567 = CARTESIAN_POINT ( 'NONE',  ( -27.01256313292356737, -27.01256313292345368, 0.000000000000000000 ) ) ;
#568 = VERTEX_POINT ( 'NONE', #415 ) ;
#569 = EDGE_CURVE ( 'NONE', #315, #845, #173, .T. ) ;
#570 = DIRECTION ( 'NONE',  ( 0.000000000000000000, -0.000000000000000000, -1.000000000000000000 ) ) ;
#571 = FACE_BOUND ( 'NONE', #498, .T. ) ;
#572 = ORIENTED_EDGE ( 'NONE', *, *, #347, .T. ) ;
#573 = CARTESIAN_POINT ( 'NONE',  ( 0.000000000000000000, -28.14999999999999503, 4.000000000000000000 ) ) ;
#574 = DIRECTION ( 'NONE',  ( 1.000000000000000000, 6.308085367188388762E-17, 0.000000000000000000 ) ) ;
#575 = ORIENTED_EDGE ( 'NONE', *, *, #705, .T. ) ;
#576 = EDGE_LOOP ( 'NONE', ( #603, #98, #1137, #724 ) ) ;
#577 = CARTESIAN_POINT ( 'NONE',  ( -17.11801406506032563, -44.00000000000000000, 34.09712760253297859 ) ) ;
#578 = LINE ( 'NONE', #478, #666 ) ;
#579 = PRODUCT_DEFINITION ( 'UNKNOWN', '', #126, #589 ) ;
#580 = CIRCLE ( 'NONE', #510, 1.375000000001579847 ) ;
#581 = ADVANCED_FACE ( 'NONE', ( #519 ), #436, .F. ) ;
#582 = ORIENTED_EDGE ( 'NONE', *, *, #71, .T. ) ;
#583 = VERTEX_POINT ( 'NONE', #350 ) ;
#584 = ORIENTED_EDGE ( 'NONE', *, *, #990, .T. ) ;
#585 = DIRECTION ( 'NONE',  ( -1.000000000000000000, 0.000000000000000000, 0.000000000000000000 ) ) ;
#586 = DIRECTION ( 'NONE',  ( -1.541976423090495387E-16, 1.000000000000000000, -0.000000000000000000 ) ) ;
#587 = VECTOR ( 'NONE', #557, 1000.000000000000000 ) ;
#588 = ORIENTED_EDGE ( 'NONE', *, *, #1162, .F. ) ;
#589 = PRODUCT_DEFINITION_CONTEXT ( 'detailed design', #628, 'design' ) ;
#590 = ADVANCED_FACE ( 'NONE', ( #252 ), #1252, .F. ) ;
#591 = LINE ( 'NONE', #483, #1075 ) ;
#592 = CYLINDRICAL_SURFACE ( 'NONE', #307, 1.375000000015827117 ) ;
#593 = DIRECTION ( 'NONE',  ( -0.7071067811865461294, 0.7071067811865490160, 0.000000000000000000 ) ) ;
#594 = LINE ( 'NONE', #14, #45 ) ;
#595 = DIRECTION ( 'NONE',  ( 1.000000000000000000, 0.000000000000000000, 0.000000000000000000 ) ) ;
#596 = VECTOR ( 'NONE', #259, 1000.000000000000000 ) ;
#597 = CIRCLE ( 'NONE', #1194, 11.00000000000000000 ) ;
#598 = EDGE_CURVE ( 'NONE', #1021, #606, #156, .T. ) ;
#599 = DIRECTION ( 'NONE',  ( 3.691666887033558834E-15, 1.000000000000000000, -0.000000000000000000 ) ) ;
#600 = FACE_OUTER_BOUND ( 'NONE', #723, .T. ) ;
#601 = LINE ( 'NONE', #1035, #712 ) ;
#602 = ADVANCED_FACE ( 'NONE', ( #42 ), #428, .F. ) ;
#603 = ORIENTED_EDGE ( 'NONE', *, *, #1189, .F. ) ;
#604 = EDGE_LOOP ( 'NONE', ( #1112, #65, #1054, #651 ) ) ;
#605 = CARTESIAN_POINT ( 'NONE',  ( 0.000000000000000000, 0.000000000000000000, 4.000000000000000000 ) ) ;
#606 = VERTEX_POINT ( 'NONE', #282 ) ;
#607 = FACE_OUTER_BOUND ( 'NONE', #107, .T. ) ;
#608 = ADVANCED_FACE ( 'NONE', ( #600 ), #687, .F. ) ;
#609 = CIRCLE ( 'NONE', #937, 1.375000000000976108 ) ;
#610 = EDGE_CURVE ( 'NONE', #55, #914, #231, .T. ) ;
#611 = VERTEX_POINT ( 'NONE', #947 ) ;
#612 = ORIENTED_EDGE ( 'NONE', *, *, #485, .T. ) ;
#613 = AXIS2_PLACEMENT_3D ( 'NONE', #573, #982, #449 ) ;
#614 = CARTESIAN_POINT ( 'NONE',  ( -7.100000000000002309, -28.14999999999999503, 0.000000000000000000 ) ) ;
#615 = LINE ( 'NONE', #35, #256 ) ;
#616 = ORIENTED_EDGE ( 'NONE', *, *, #663, .T. ) ;
#617 = DIRECTION ( 'NONE',  ( -1.541976423090495387E-16, 1.000000000000000000, -0.000000000000000000 ) ) ;
#618 = ORIENTED_EDGE ( 'NONE', *, *, #377, .F. ) ;
#619 = EDGE_CURVE ( 'NONE', #1270, #959, #853, .T. ) ;
#620 = VECTOR ( 'NONE', #595, 1000.000000000000000 ) ;
#621 = AXIS2_PLACEMENT_3D ( 'NONE', #910, #309, #828 ) ;
#622 = DIRECTION ( 'NONE',  ( -4.034240641806528514E-17, -1.000000000000000000, 0.000000000000000000 ) ) ;
#623 = CARTESIAN_POINT ( 'NONE',  ( 11.00000000000000000, -28.14999999999999503, 5.899999999999999467 ) ) ;
#624 = CARTESIAN_POINT ( 'NONE',  ( -15.74301406505936640, 61.71551627040729215, 34.09712760253297859 ) ) ;
#625 = ORIENTED_EDGE ( 'NONE', *, *, #673, .F. ) ;
#626 = CARTESIAN_POINT ( 'NONE',  ( 22.50000000000000000, 42.00000000000000000, 4.000000000000000000 ) ) ;
#627 = FACE_OUTER_BOUND ( 'NONE', #104, .T. ) ;
#628 = APPLICATION_CONTEXT ( 'automotive_design' ) ;
#629 = PLANE ( 'NONE',  #171 ) ;
#630 = EDGE_CURVE ( 'NONE', #112, #547, #892, .T. ) ;
#631 = CARTESIAN_POINT ( 'NONE',  ( -12.49999999999999645, -44.00000000000000000, 5.899999999999999467 ) ) ;
#632 = FACE_BOUND ( 'NONE', #405, .T. ) ;
#633 = CARTESIAN_POINT ( 'NONE',  ( 17.10999999998200138, 61.71551627040729215, 50.29904253417369375 ) ) ;
#634 = VERTEX_POINT ( 'NONE', #393 ) ;
#635 = PLANE ( 'NONE',  #431 ) ;
#636 = ORIENTED_EDGE ( 'NONE', *, *, #619, .T. ) ;
#637 = CIRCLE ( 'NONE', #1279, 7.100000000000002309 ) ;
#638 = DIRECTION ( 'NONE',  ( -1.541976423090495387E-16, 1.000000000000000000, -0.000000000000000000 ) ) ;
#639 = AXIS2_PLACEMENT_3D ( 'NONE', #200, #879, #421 ) ;
#640 = DIRECTION ( 'NONE',  ( 0.000000000000000000, 0.000000000000000000, 1.000000000000000000 ) ) ;
#641 = CARTESIAN_POINT ( 'NONE',  ( 0.000000000000000000, -28.14999999999999503, 4.000000000000000000 ) ) ;
#642 = EDGE_CURVE ( 'NONE', #1182, #777, #1029, .T. ) ;
#643 = DIRECTION ( 'NONE',  ( -0.000000000000000000, 0.000000000000000000, 1.000000000000000000 ) ) ;
#644 = FACE_BOUND ( 'NONE', #1041, .T. ) ;
#645 = AXIS2_PLACEMENT_3D ( 'NONE', #56, #936, #523 ) ;
#646 = VERTEX_POINT ( 'NONE', #1204 ) ;
#647 = LINE ( 'NONE', #471, #223 ) ;
#648 = DIRECTION ( 'NONE',  ( 0.000000000000000000, 0.000000000000000000, 1.000000000000000000 ) ) ;
#649 = EDGE_CURVE ( 'NONE', #568, #275, #291, .T. ) ;
#650 = ORIENTED_EDGE ( 'NONE', *, *, #682, .F. ) ;
#651 = ORIENTED_EDGE ( 'NONE', *, *, #251, .F. ) ;
#652 = EDGE_LOOP ( 'NONE', ( #492, #1227 ) ) ;
#653 = DIRECTION ( 'NONE',  ( 0.000000000000000000, -1.000000000000000000, 0.000000000000000000 ) ) ;
#654 = CARTESIAN_POINT ( 'NONE',  ( -22.50000000000001421, 56.34340520441109135, 61.57500000000015206 ) ) ;
#655 = EDGE_CURVE ( 'NONE', #583, #924, #50, .T. ) ;
#656 = VECTOR ( 'NONE', #987, 1000.000000000000000 ) ;
#657 = VECTOR ( 'NONE', #370, 1000.000000000000000 ) ;
#658 = ORIENTED_EDGE ( 'NONE', *, *, #87, .F. ) ;
#659 = AXIS2_PLACEMENT_3D ( 'NONE', #750, #643, #245 ) ;
#660 = VECTOR ( 'NONE', #648, 1000.000000000000000 ) ;
#661 = LINE ( 'NONE', #979, #559 ) ;
#662 = AXIS2_PLACEMENT_3D ( 'NONE', #207, #323, #119 ) ;
#663 = EDGE_CURVE ( 'NONE', #525, #914, #943, .T. ) ;
#664 = ORIENTED_EDGE ( 'NONE', *, *, #966, .F. ) ;
#665 = CARTESIAN_POINT ( 'NONE',  ( -49.46743889684048412, 56.34340520441120503, 17.38597053142565940 ) ) ;
#666 = VECTOR ( 'NONE', #599, 1000.000000000000000 ) ;
#667 = VECTOR ( 'NONE', #622, 1000.000000000000000 ) ;
#668 = ORIENTED_EDGE ( 'NONE', *, *, #347, .F. ) ;
#669 = CARTESIAN_POINT ( 'NONE',  ( 11.00000000000000000, -28.14999999999999503, 5.899999999999999467 ) ) ;
#670 = ADVANCED_FACE ( 'NONE', ( #627 ), #635, .T. ) ;
#671 = ORIENTED_EDGE ( 'NONE', *, *, #1138, .F. ) ;
#672 = ORIENTED_EDGE ( 'NONE', *, *, #906, .F. ) ;
#673 = EDGE_CURVE ( 'NONE', #883, #777, #61, .T. ) ;
#674 = DIRECTION ( 'NONE',  ( -1.000000000000000000, 0.000000000000000000, 0.000000000000000000 ) ) ;
#675 = ORIENTED_EDGE ( 'NONE', *, *, #8, .T. ) ;
#676 = CIRCLE ( 'NONE', #103, 1.375000000015827117 ) ;
#677 = CYLINDRICAL_SURFACE ( 'NONE', #888, 1.375000000000976108 ) ;
#678 = AXIS2_PLACEMENT_3D ( 'NONE', #707, #912, #720 ) ;
#679 = CIRCLE ( 'NONE', #490, 11.00000000000000000 ) ;
#680 = VERTEX_POINT ( 'NONE', #213 ) ;
#681 = CARTESIAN_POINT ( 'NONE',  ( 0.000000000000000000, 19.65000000000000213, 4.000000000000000000 ) ) ;
#682 = EDGE_CURVE ( 'NONE', #808, #980, #408, .T. ) ;
#683 = VECTOR ( 'NONE', #531, 1000.000000000000000 ) ;
#684 = VECTOR ( 'NONE', #15, 1000.000000000000000 ) ;
#685 = VERTEX_POINT ( 'NONE', #539 ) ;
#686 = DIRECTION ( 'NONE',  ( -1.000000000000000000, -0.000000000000000000, -0.000000000000000000 ) ) ;
#687 = CYLINDRICAL_SURFACE ( 'NONE', #320, 1.375000000015827117 ) ;
#688 = VECTOR ( 'NONE', #686, 1000.000000000000000 ) ;
#689 = ORIENTED_EDGE ( 'NONE', *, *, #266, .F. ) ;
#690 = DIRECTION ( 'NONE',  ( 1.000000000000000000, 0.000000000000000000, 0.000000000000000000 ) ) ;
#691 = DIRECTION ( 'NONE',  ( -0.000000000000000000, 0.000000000000000000, 1.000000000000000000 ) ) ;
#692 = ORIENTED_EDGE ( 'NONE', *, *, #37, .F. ) ;
#693 = CARTESIAN_POINT ( 'NONE',  ( 0.000000000000000000, 0.000000000000000000, 17.38597053142565585 ) ) ;
#694 = CARTESIAN_POINT ( 'NONE',  ( -7.100000000000002309, 19.65000000000000213, 4.000000000000000000 ) ) ;
#695 = EDGE_CURVE ( 'NONE', #945, #75, #597, .T. ) ;
#696 = CARTESIAN_POINT ( 'NONE',  ( -9.293014065059789885, 56.34340520441121214, 61.57500000000014495 ) ) ;
#697 = CARTESIAN_POINT ( 'NONE',  ( -49.46743889684048412, 44.03589794437405658, 5.899999999999999467 ) ) ;
#698 = ORIENTED_EDGE ( 'NONE', *, *, #359, .T. ) ;
#699 = CARTESIAN_POINT ( 'NONE',  ( -9.293014065059789885, 56.34340520441121214, 17.38597053142565585 ) ) ;
#700 = ORIENTED_EDGE ( 'NONE', *, *, #37, .T. ) ;
#701 = CIRCLE ( 'NONE', #850, 1.375000000000976108 ) ;
#702 = CIRCLE ( 'NONE', #986, 1.375000000000977884 ) ;
#703 = EDGE_LOOP ( 'NONE', ( #306, #174 ) ) ;
#704 = ORIENTED_EDGE ( 'NONE', *, *, #374, .F. ) ;
#705 = EDGE_CURVE ( 'NONE', #914, #959, #717, .T. ) ;
#706 = FACE_BOUND ( 'NONE', #396, .T. ) ;
#707 = CARTESIAN_POINT ( 'NONE',  ( -15.74301406505936463, 56.34340520441111266, 34.09712760253297859 ) ) ;
#708 = ORIENTED_EDGE ( 'NONE', *, *, #71, .F. ) ;
#709 = VECTOR ( 'NONE', #351, 1000.000000000000000 ) ;
#710 = CARTESIAN_POINT ( 'NONE',  ( 22.50000000000000000, 61.71551627040729215, 16.79369717438737197 ) ) ;
#711 = ORIENTED_EDGE ( 'NONE', *, *, #1189, .T. ) ;
#712 = VECTOR ( 'NONE', #1134, 1000.000000000000114 ) ;
#713 = LINE ( 'NONE', #1220, #667 ) ;
#714 = FACE_OUTER_BOUND ( 'NONE', #992, .T. ) ;
#715 = ADVANCED_FACE ( 'NONE', ( #101, #571, #332 ), #759, .T. ) ;
#716 = DIRECTION ( 'NONE',  ( 1.000000000000000000, 0.000000000000000000, 0.000000000000000000 ) ) ;
#717 = LINE ( 'NONE', #41, #409 ) ;
#718 = DIRECTION ( 'NONE',  ( 1.000000000000000000, 0.000000000000000000, 0.000000000000000000 ) ) ;
#719 = CARTESIAN_POINT ( 'NONE',  ( -22.49999999999999645, 41.99999999999999289, 3.999999999999998224 ) ) ;
#720 = DIRECTION ( 'NONE',  ( 1.000000000000000000, 5.046468293747122876E-15, 0.000000000000000000 ) ) ;
#721 = DIRECTION ( 'NONE',  ( -1.541976423090495387E-16, 1.000000000000000000, -0.000000000000000000 ) ) ;
#722 = EDGE_CURVE ( 'NONE', #313, #883, #1262, .T. ) ;
#723 = EDGE_LOOP ( 'NONE', ( #264, #969, #461, #459 ) ) ;
#724 = ORIENTED_EDGE ( 'NONE', *, *, #1146, .F. ) ;
#725 = ORIENTED_EDGE ( 'NONE', *, *, #563, .T. ) ;
#726 = ORIENTED_EDGE ( 'NONE', *, *, #610, .F. ) ;
#727 = AXIS2_PLACEMENT_3D ( 'NONE', #1150, #232, #418 ) ;
#728 = DIRECTION ( 'NONE',  ( 0.6785983445458456664, -0.2810846377148248365, 0.6785983445458464436 ) ) ;
#729 = ORIENTED_EDGE ( 'NONE', *, *, #30, .F. ) ;
#730 = CARTESIAN_POINT ( 'NONE',  ( 15.73499999998042398, 56.34340520441119793, 50.29904253417369375 ) ) ;
#731 = CARTESIAN_POINT ( 'NONE',  ( -12.49999999999999112, -43.99999999999999289, 4.000000000000000000 ) ) ;
#732 = PLANE ( 'NONE',  #382 ) ;
#733 = ORIENTED_EDGE ( 'NONE', *, *, #284, .F. ) ;
#734 = VERTEX_POINT ( 'NONE', #848 ) ;
#735 = DIRECTION ( 'NONE',  ( -1.541976423090495387E-16, 1.000000000000000000, 0.000000000000000000 ) ) ;
#736 = VECTOR ( 'NONE', #487, 1000.000000000000114 ) ;
#737 = AXIS2_PLACEMENT_3D ( 'NONE', #1229, #221, #932 ) ;
#738 = LINE ( 'NONE', #1148, #438 ) ;
#739 = STYLED_ITEM ( 'NONE', ( #881 ), #1284 ) ;
#740 = CARTESIAN_POINT ( 'NONE',  ( -22.49999999999999645, 61.71551627040728505, 58.28000000000000114 ) ) ;
#741 = CARTESIAN_POINT ( 'NONE',  ( 0.000000000000000000, 0.000000000000000000, 4.000000000000000000 ) ) ;
#742 = ORIENTED_EDGE ( 'NONE', *, *, #958, .T. ) ;
#743 = EDGE_LOOP ( 'NONE', ( #625, #1073, #984, #464 ) ) ;
#744 = ORIENTED_EDGE ( 'NONE', *, *, #147, .T. ) ;
#745 = ORIENTED_EDGE ( 'NONE', *, *, #302, .T. ) ;
#746 = ADVANCED_FACE ( 'NONE', ( #73 ), #1089, .F. ) ;
#747 = APPLICATION_PROTOCOL_DEFINITION ( 'draft international standard', 'automotive_design', 1998, #391 ) ;
#748 = DIRECTION ( 'NONE',  ( -0.000000000000000000, -0.000000000000000000, -1.000000000000000000 ) ) ;
#749 = ORIENTED_EDGE ( 'NONE', *, *, #807, .F. ) ;
#750 = CARTESIAN_POINT ( 'NONE',  ( 0.000000000000000000, 19.65000000000000213, 5.899999999999999467 ) ) ;
#751 = LINE ( 'NONE', #1245, #412 ) ;
#752 = EDGE_LOOP ( 'NONE', ( #584, #454 ) ) ;
#753 = CARTESIAN_POINT ( 'NONE',  ( 12.49999999999993427, -43.99999999999999289, 1.749999999999987566 ) ) ;
#754 = VECTOR ( 'NONE', #1048, 1000.000000000000000 ) ;
#755 = EDGE_CURVE ( 'NONE', #360, #1021, #1008, .T. ) ;
#756 = AXIS2_PLACEMENT_3D ( 'NONE', #1256, #1084, #976 ) ;
#757 = CARTESIAN_POINT ( 'NONE',  ( 9.286773304553619823, 56.34105146392214891, 17.38361679093659617 ) ) ;
#758 = ORIENTED_EDGE ( 'NONE', *, *, #507, .F. ) ;
#759 = PLANE ( 'NONE',  #756 ) ;
#760 = CARTESIAN_POINT ( 'NONE',  ( -22.50000000000001421, 56.34340520441109135, 61.57500000000015206 ) ) ;
#761 = ORIENTED_EDGE ( 'NONE', *, *, #981, .T. ) ;
#762 = VERTEX_POINT ( 'NONE', #48 ) ;
#763 = LINE ( 'NONE', #1067, #587 ) ;
#764 = AXIS2_PLACEMENT_3D ( 'NONE', #641, #1253, #475 ) ;
#765 = EDGE_CURVE ( 'NONE', #362, #808, #40, .T. ) ;
#766 = CARTESIAN_POINT ( 'NONE',  ( 9.286773304553623376, 56.34340520441117661, 61.57500000000014495 ) ) ;
#767 = PLANE ( 'NONE',  #1214 ) ;
#768 = CARTESIAN_POINT ( 'NONE',  ( -11.00000000000000000, -28.14999999999999503, 5.899999999999999467 ) ) ;
#769 = ADVANCED_FACE ( 'NONE', ( #1224 ), #732, .F. ) ;
#770 = DIRECTION ( 'NONE',  ( -1.000000000000000000, 0.000000000000000000, 0.000000000000000000 ) ) ;
#771 = VECTOR ( 'NONE', #1165, 1000.000000000000000 ) ;
#772 = LINE ( 'NONE', #753, #868 ) ;
#773 = AXIS2_PLACEMENT_3D ( 'NONE', #328, #617, #1057 ) ;
#774 = CARTESIAN_POINT ( 'NONE',  ( 9.286773304553614494, 54.93369772343308455, 61.57500000000014495 ) ) ;
#775 = VERTEX_POINT ( 'NONE', #1051 ) ;
#776 = LINE ( 'NONE', #768, #1074 ) ;
#777 = VERTEX_POINT ( 'NONE', #633 ) ;
#778 = UNCERTAINTY_MEASURE_WITH_UNIT (LENGTH_MEASURE( 1.000000000000000082E-05 ), #451, 'distance_accuracy_value', 'NONE');
#779 = AXIS2_PLACEMENT_3D ( 'NONE', #863, #653, #570 ) ;
#780 = ADVANCED_FACE ( 'NONE', ( #336, #138 ), #219, .F. ) ;
#781 = AXIS2_PLACEMENT_3D ( 'NONE', #250, #154, #158 ) ;
#782 = CARTESIAN_POINT ( 'NONE',  ( 0.000000000000000000, 19.65000000000000213, 0.000000000000000000 ) ) ;
#783 = ORIENTED_EDGE ( 'NONE', *, *, #1081, .T. ) ;
#784 = ADVANCED_FACE ( 'NONE', ( #1156 ), #1028, .F. ) ;
#785 = DIRECTION ( 'NONE',  ( -1.541976423090495387E-16, 1.000000000000000000, 0.000000000000000000 ) ) ;
#786 = EDGE_LOOP ( 'NONE', ( #22, #875, #406, #339 ) ) ;
#787 = DIRECTION ( 'NONE',  ( 1.000000000000000000, 0.000000000000000000, 0.000000000000000000 ) ) ;
#788 = ORIENTED_EDGE ( 'NONE', *, *, #374, .T. ) ;
#789 = EDGE_LOOP ( 'NONE', ( #270, #1223, #698, #89, #1132, #414, #1040, #902 ) ) ;
#790 = VERTEX_POINT ( 'NONE', #942 ) ;
#791 = FACE_OUTER_BOUND ( 'NONE', #81, .T. ) ;
#792 = ORIENTED_EDGE ( 'NONE', *, *, #1287, .T. ) ;
#793 = VECTOR ( 'NONE', #951, 1000.000000000000000 ) ;
#794 = DIRECTION ( 'NONE',  ( -1.541976423090495387E-16, 1.000000000000000000, -0.000000000000000000 ) ) ;
#795 = AXIS2_PLACEMENT_3D ( 'NONE', #885, #593, #280 ) ;
#796 = VECTOR ( 'NONE', #965, 1000.000000000000000 ) ;
#797 = DIRECTION ( 'NONE',  ( 4.034240641806528514E-17, 1.000000000000000000, 0.000000000000000000 ) ) ;
#798 = EDGE_LOOP ( 'NONE', ( #188, #129, #758, #294 ) ) ;
#799 = CARTESIAN_POINT ( 'NONE',  ( 0.000000000000000000, 19.65000000000000213, 5.899999999999999467 ) ) ;
#800 = FACE_OUTER_BOUND ( 'NONE', #176, .T. ) ;
#801 = EDGE_CURVE ( 'NONE', #1142, #811, #155, .T. ) ;
#802 = DIRECTION ( 'NONE',  ( -1.000000000000000000, 0.000000000000000000, 0.000000000000000000 ) ) ;
#803 = LINE ( 'NONE', #696, #935 ) ;
#804 = CARTESIAN_POINT ( 'NONE',  ( 12.49999999999995204, -44.00000000000000000, 5.899999999999999467 ) ) ;
#805 = FACE_OUTER_BOUND ( 'NONE', #470, .T. ) ;
#806 = ORIENTED_EDGE ( 'NONE', *, *, #649, .T. ) ;
#807 = EDGE_CURVE ( 'NONE', #547, #1045, #615, .T. ) ;
#808 = VERTEX_POINT ( 'NONE', #1231 ) ;
#809 = CARTESIAN_POINT ( 'NONE',  ( -22.49999999999999645, 61.71551627040729215, 16.79369717438737197 ) ) ;
#810 = VECTOR ( 'NONE', #386, 1000.000000000000000 ) ;
#811 = VERTEX_POINT ( 'NONE', #330 ) ;
#812 = ORIENTED_EDGE ( 'NONE', *, *, #990, .F. ) ;
#813 = PRODUCT_RELATED_PRODUCT_CATEGORY ( 'part', '', ( #1294 ) ) ;
#814 = ADVANCED_FACE ( 'NONE', ( #607 ), #540, .F. ) ;
#815 = CARTESIAN_POINT ( 'NONE',  ( -20.75000000000000355, 43.72064597789372442, 0.000000000000000000 ) ) ;
#816 = DIRECTION ( 'NONE',  ( 0.000000000000000000, -1.000000000000000000, 0.000000000000000000 ) ) ;
#817 = ORIENTED_EDGE ( 'NONE', *, *, #854, .F. ) ;
#818 = CIRCLE ( 'NONE', #1039, 7.100000000000002309 ) ;
#819 = VECTOR ( 'NONE', #1140, 1000.000000000000114 ) ;
#820 = CARTESIAN_POINT ( 'NONE',  ( -15.74301406505936463, 56.34340520441111266, 50.29904253416150794 ) ) ;
#821 = ADVANCED_FACE ( 'NONE', ( #114 ), #1254, .F. ) ;
#822 = SURFACE_STYLE_USAGE ( .BOTH. , #38 ) ;
#823 = CARTESIAN_POINT ( 'NONE',  ( -15.74301406505936463, 56.34340520441111266, 34.09712760253297859 ) ) ;
#824 = EDGE_LOOP ( 'NONE', ( #486, #700, #375, #1298 ) ) ;
#825 = DIRECTION ( 'NONE',  ( -0.000000000000000000, 0.7310859717059875473, 0.6822853523084839722 ) ) ;
#826 = CARTESIAN_POINT ( 'NONE',  ( 22.50000000000000355, -9.077041444064691220E-16, 5.899999999999999467 ) ) ;
#827 = CARTESIAN_POINT ( 'NONE',  ( 20.75000000000002487, 43.72064597789372442, 0.000000000000000000 ) ) ;
#828 = DIRECTION ( 'NONE',  ( 1.000000000000000000, 5.046468293692617320E-15, 0.000000000000000000 ) ) ;
#829 = CLOSED_SHELL ( 'NONE', ( #1043, #920, #236, #85, #608, #814, #1, #602, #780, #715, #1248, #998, #290, #784, #387, #1065, #1291, #450, #443, #997, #769, #543, #1271, #897, #466, #844, #551, #590, #1010, #208, #1014, #746, #821, #839, #670, #228, #110, #115, #581, #502, #518 ) ) ;
#830 = DIRECTION ( 'NONE',  ( 0.000000000000000000, 0.000000000000000000, 1.000000000000000000 ) ) ;
#831 = ORIENTED_EDGE ( 'NONE', *, *, #801, .F. ) ;
#832 = VECTOR ( 'NONE', #395, 1000.000000000000000 ) ;
#833 = CARTESIAN_POINT ( 'NONE',  ( 11.00000000000000000, 19.65000000000000213, 4.000000000000000000 ) ) ;
#834 = CARTESIAN_POINT ( 'NONE',  ( 11.00000000000000000, 19.65000000000000213, 5.899999999999999467 ) ) ;
#835 = AXIS2_PLACEMENT_3D ( 'NONE', #164, #356, #246 ) ;
#836 = DIRECTION ( 'NONE',  ( -1.000000000000000000, 0.000000000000000000, 0.000000000000000000 ) ) ;
#837 = ORIENTED_EDGE ( 'NONE', *, *, #862, .T. ) ;
#838 = ORIENTED_EDGE ( 'NONE', *, *, #407, .F. ) ;
#839 = ADVANCED_FACE ( 'NONE', ( #506 ), #530, .T. ) ;
#840 = CIRCLE ( 'NONE', #1222, 1.375000000001579847 ) ;
#841 = FACE_OUTER_BOUND ( 'NONE', #196, .T. ) ;
#842 = PLANE ( 'NONE',  #645 ) ;
#843 = ORIENTED_EDGE ( 'NONE', *, *, #195, .T. ) ;
#844 = ADVANCED_FACE ( 'NONE', ( #432 ), #842, .T. ) ;
#845 = VERTEX_POINT ( 'NONE', #930 ) ;
#846 = CARTESIAN_POINT ( 'NONE',  ( -22.50000000000000000, -43.99999999999999289, 4.000000000000000000 ) ) ;
#847 = CARTESIAN_POINT ( 'NONE',  ( -11.77512626584708144, -42.25000000000000000, 0.000000000000000000 ) ) ;
#848 = CARTESIAN_POINT ( 'NONE',  ( 14.35999999996459309, 61.71551627040729215, 34.09712760254515729 ) ) ;
#849 = CARTESIAN_POINT ( 'NONE',  ( 11.00000000000000000, -28.14999999999999503, 4.000000000000000000 ) ) ;
#850 = AXIS2_PLACEMENT_3D ( 'NONE', #624, #1060, #244 ) ;
#851 = AXIS2_PLACEMENT_3D ( 'NONE', #846, #229, #1133 ) ;
#852 = ORIENTED_EDGE ( 'NONE', *, *, #1212, .T. ) ;
#853 = LINE ( 'NONE', #760, #855 ) ;
#854 = EDGE_CURVE ( 'NONE', #790, #389, #258, .T. ) ;
#855 = VECTOR ( 'NONE', #1070, 1000.000000000000000 ) ;
#856 = DIRECTION ( 'NONE',  ( 1.000000000000000000, 0.000000000000000000, 0.000000000000000000 ) ) ;
#857 = CYLINDRICAL_SURFACE ( 'NONE', #764, 7.100000000000002309 ) ;
#858 = EDGE_CURVE ( 'NONE', #1215, #182, #1059, .T. ) ;
#859 = PLANE ( 'NONE',  #781 ) ;
#860 = ORIENTED_EDGE ( 'NONE', *, *, #30, .T. ) ;
#861 = DIRECTION ( 'NONE',  ( -0.000000000000000000, -0.000000000000000000, -1.000000000000000000 ) ) ;
#862 = EDGE_CURVE ( 'NONE', #583, #896, #751, .T. ) ;
#863 = CARTESIAN_POINT ( 'NONE',  ( -9.293014065059789885, 54.93369772343308455, 17.38597053142565585 ) ) ;
#864 = DIRECTION ( 'NONE',  ( 1.000000000000000000, 5.046468293692617320E-15, 0.000000000000000000 ) ) ;
#865 = FACE_BOUND ( 'NONE', #1130, .T. ) ;
#866 = EDGE_CURVE ( 'NONE', #78, #525, #1238, .T. ) ;
#867 = CARTESIAN_POINT ( 'NONE',  ( 9.286773304553614494, 54.93369772343308455, 18.79097053142567120 ) ) ;
#868 = VECTOR ( 'NONE', #960, 1000.000000000000000 ) ;
#869 = AXIS2_PLACEMENT_3D ( 'NONE', #429, #327, #956 ) ;
#870 = DIRECTION ( 'NONE',  ( 0.7071067811865489050, 0.7071067811865460184, -0.000000000000000000 ) ) ;
#871 = ORIENTED_EDGE ( 'NONE', *, *, #755, .F. ) ;
#872 = DIRECTION ( 'NONE',  ( -0.7071067811865471286, 2.852638914759764434E-17, -0.7071067811865479058 ) ) ;
#873 = EDGE_CURVE ( 'NONE', #55, #268, #1082, .T. ) ;
#874 = DIRECTION ( 'NONE',  ( 4.303914247144122542E-17, -0.6822853523084839722, 0.7310859717059875473 ) ) ;
#875 = ORIENTED_EDGE ( 'NONE', *, *, #944, .T. ) ;
#876 = DIRECTION ( 'NONE',  ( -1.000000000000000000, 0.000000000000000000, 0.000000000000000000 ) ) ;
#877 = CARTESIAN_POINT ( 'NONE',  ( 22.49999999999998934, 61.71551627040729215, 61.57500000000014495 ) ) ;
#878 = VERTEX_POINT ( 'NONE', #1177 ) ;
#879 = DIRECTION ( 'NONE',  ( -2.869276164762748362E-17, 0.6822853523084839722, -0.7310859717059875473 ) ) ;
#880 = DIRECTION ( 'NONE',  ( 1.000000000000000000, 4.205390244792259585E-17, 0.000000000000000000 ) ) ;
#881 = PRESENTATION_STYLE_ASSIGNMENT (( #822 ) ) ;
#882 = ORIENTED_EDGE ( 'NONE', *, *, #858, .T. ) ;
#883 = VERTEX_POINT ( 'NONE', #968 ) ;
#884 = CYLINDRICAL_SURFACE ( 'NONE', #32, 1.375000000000976108 ) ;
#885 = CARTESIAN_POINT ( 'NONE',  ( 22.50000000000000000, -33.99999999999997868, 4.000000000000000000 ) ) ;
#886 = CARTESIAN_POINT ( 'NONE',  ( -12.49999999999999289, -42.25000000000000000, 0.000000000000000000 ) ) ;
#887 = DIRECTION ( 'NONE',  ( 1.541976423090495880E-16, -1.000000000000000000, 0.000000000000000000 ) ) ;
#888 = AXIS2_PLACEMENT_3D ( 'NONE', #373, #1193, #770 ) ;
#889 = EDGE_CURVE ( 'NONE', #564, #611, #1265, .T. ) ;
#890 = LINE ( 'NONE', #106, #496 ) ;
#891 = CARTESIAN_POINT ( 'NONE',  ( 15.73499999998043819, -44.00000000000000000, 34.09712760254515729 ) ) ;
#892 = CIRCLE ( 'NONE', #215, 7.100000000000002309 ) ;
#893 = AXIS2_PLACEMENT_3D ( 'NONE', #823, #922, #310 ) ;
#894 = ORIENTED_EDGE ( 'NONE', *, *, #316, .F. ) ;
#895 = DIRECTION ( 'NONE',  ( 1.000000000000000000, 0.000000000000000000, 0.000000000000000000 ) ) ;
#896 = VERTEX_POINT ( 'NONE', #1277 ) ;
#897 = ADVANCED_FACE ( 'NONE', ( #146 ), #79, .T. ) ;
#898 = CARTESIAN_POINT ( 'NONE',  ( 14.35999999996461085, -44.00000000000000000, 34.09712760254515729 ) ) ;
#899 = ORIENTED_EDGE ( 'NONE', *, *, #47, .F. ) ;
#900 = ORIENTED_EDGE ( 'NONE', *, *, #1219, .T. ) ;
#901 = FACE_OUTER_BOUND ( 'NONE', #1097, .T. ) ;
#902 = ORIENTED_EDGE ( 'NONE', *, *, #1138, .T. ) ;
#903 = DIRECTION ( 'NONE',  ( -4.034240641806528514E-17, -1.000000000000000000, 0.000000000000000000 ) ) ;
#904 = ORIENTED_EDGE ( 'NONE', *, *, #433, .T. ) ;
#905 = EDGE_LOOP ( 'NONE', ( #257, #20, #286, #34, #57, #904 ) ) ;
#906 = EDGE_CURVE ( 'NONE', #1251, #362, #1163, .T. ) ;
#907 = VECTOR ( 'NONE', #33, 1000.000000000000000 ) ;
#908 = ORIENTED_EDGE ( 'NONE', *, *, #266, .T. ) ;
#909 = CARTESIAN_POINT ( 'NONE',  ( 17.10999999999625487, 56.34340520441120503, 34.09712760254515729 ) ) ;
#910 = CARTESIAN_POINT ( 'NONE',  ( 15.73499999998042398, 56.34340520441119793, 34.09712760254515729 ) ) ;
#911 = VERTEX_POINT ( 'NONE', #261 ) ;
#912 = DIRECTION ( 'NONE',  ( 2.621359919253841393E-15, -1.000000000000000000, 0.000000000000000000 ) ) ;
#913 = AXIS2_PLACEMENT_3D ( 'NONE', #354, #59, #240 ) ;
#914 = VERTEX_POINT ( 'NONE', #774 ) ;
#915 = DIRECTION ( 'NONE',  ( -4.034240641806528514E-17, -1.000000000000000000, 0.000000000000000000 ) ) ;
#916 = AXIS2_PLACEMENT_3D ( 'NONE', #512, #927, #260 ) ;
#917 = VECTOR ( 'NONE', #880, 1000.000000000000000 ) ;
#918 = VERTEX_POINT ( 'NONE', #847 ) ;
#919 = VECTOR ( 'NONE', #954, 1000.000000000000000 ) ;
#920 = ADVANCED_FACE ( 'NONE', ( #549 ), #253, .F. ) ;
#921 = PLANE ( 'NONE',  #18 ) ;
#922 = DIRECTION ( 'NONE',  ( 2.621359919253841393E-15, -1.000000000000000000, 0.000000000000000000 ) ) ;
#923 = ORIENTED_EDGE ( 'NONE', *, *, #873, .F. ) ;
#924 = VERTEX_POINT ( 'NONE', #1260 ) ;
#925 = VECTOR ( 'NONE', #400, 1000.000000000000000 ) ;
#926 = ORIENTED_EDGE ( 'NONE', *, *, #663, .F. ) ;
#927 = DIRECTION ( 'NONE',  ( 0.000000000000000000, 0.000000000000000000, 1.000000000000000000 ) ) ;
#928 = FILL_AREA_STYLE ('',( #31 ) ) ;
#929 = ORIENTED_EDGE ( 'NONE', *, *, #251, .T. ) ;
#930 = CARTESIAN_POINT ( 'NONE',  ( -14.36801406505838585, 56.34340520441111977, 50.29904253416150794 ) ) ;
#931 = DIRECTION ( 'NONE',  ( -1.000000000000000000, 0.000000000000000000, 0.000000000000000000 ) ) ;
#932 = DIRECTION ( 'NONE',  ( -1.000000000000000000, 0.000000000000000000, 0.000000000000000000 ) ) ;
#933 = EDGE_CURVE ( 'NONE', #1215, #1197, #661, .T. ) ;
#934 = LINE ( 'NONE', #425, #596 ) ;
#935 = VECTOR ( 'NONE', #6, 1000.000000000000000 ) ;
#936 = DIRECTION ( 'NONE',  ( -0.000000000000000000, -0.7071067811865510144, -0.7071067811865441310 ) ) ;
#937 = AXIS2_PLACEMENT_3D ( 'NONE', #29, #735, #141 ) ;
#938 = CYLINDRICAL_SURFACE ( 'NONE', #773, 1.375000000000976108 ) ;
#939 = VERTEX_POINT ( 'NONE', #455 ) ;
#940 = FACE_OUTER_BOUND ( 'NONE', #1125, .T. ) ;
#941 = VECTOR ( 'NONE', #465, 1000.000000000000000 ) ;
#942 = CARTESIAN_POINT ( 'NONE',  ( -17.11801406506034340, 61.71551627040729215, 50.29904253416150794 ) ) ;
#943 = LINE ( 'NONE', #151, #919 ) ;
#944 = EDGE_CURVE ( 'NONE', #275, #1068, #647, .T. ) ;
#945 = VERTEX_POINT ( 'NONE', #342 ) ;
#946 = FACE_OUTER_BOUND ( 'NONE', #1226, .T. ) ;
#947 = CARTESIAN_POINT ( 'NONE',  ( 17.10999999999625132, 61.71551627040729215, 34.09712760254515729 ) ) ;
#948 = ORIENTED_EDGE ( 'NONE', *, *, #341, .F. ) ;
#949 = DIRECTION ( 'NONE',  ( -1.000000000000000000, 0.000000000000000000, 0.000000000000000000 ) ) ;
#950 = DIRECTION ( 'NONE',  ( 2.621359919253841393E-15, -1.000000000000000000, 0.000000000000000000 ) ) ;
#951 = DIRECTION ( 'NONE',  ( -0.000000000000000000, -0.000000000000000000, -1.000000000000000000 ) ) ;
#952 = ORIENTED_EDGE ( 'NONE', *, *, #1219, .F. ) ;
#953 = PLANE ( 'NONE',  #364 ) ;
#954 = DIRECTION ( 'NONE',  ( 1.000000000000000000, 0.000000000000000000, 0.000000000000000000 ) ) ;
#955 = DIRECTION ( 'NONE',  ( 1.000000000000000000, 5.046468293744913276E-15, 0.000000000000000000 ) ) ;
#956 = DIRECTION ( 'NONE',  ( -1.000000000000000000, 0.000000000000000000, 0.000000000000000000 ) ) ;
#957 = CARTESIAN_POINT ( 'NONE',  ( 14.35999999997885901, -44.00000000000000000, 50.29904253417369375 ) ) ;
#958 = EDGE_CURVE ( 'NONE', #971, #634, #1077, .T. ) ;
#959 = VERTEX_POINT ( 'NONE', #766 ) ;
#960 = DIRECTION ( 'NONE',  ( 1.000000000000000000, 0.000000000000000000, 0.000000000000000000 ) ) ;
#961 = CARTESIAN_POINT ( 'NONE',  ( 22.50000000000000000, 56.34340520441121214, 61.57500000000014495 ) ) ;
#962 = CARTESIAN_POINT ( 'NONE',  ( 0.000000000000000000, 19.65000000000000213, 5.899999999999999467 ) ) ;
#963 = EDGE_LOOP ( 'NONE', ( #882, #999, #948, #120 ) ) ;
#964 = CARTESIAN_POINT ( 'NONE',  ( -14.36801406505838941, 61.71551627040729215, 50.29904253416150794 ) ) ;
#965 = DIRECTION ( 'NONE',  ( -1.541976423090495387E-16, 1.000000000000000000, -0.000000000000000000 ) ) ;
#966 = EDGE_CURVE ( 'NONE', #971, #26, #763, .T. ) ;
#967 = ORIENTED_EDGE ( 'NONE', *, *, #1098, .F. ) ;
#968 = CARTESIAN_POINT ( 'NONE',  ( 17.10999999998200494, 56.34340520441120503, 50.29904253417369375 ) ) ;
#969 = ORIENTED_EDGE ( 'NONE', *, *, #889, .T. ) ;
#970 = FACE_BOUND ( 'NONE', #703, .T. ) ;
#971 = VERTEX_POINT ( 'NONE', #1071 ) ;
#972 = CARTESIAN_POINT ( 'NONE',  ( 0.000000000000000000, -28.14999999999999503, 0.000000000000000000 ) ) ;
#973 = FACE_OUTER_BOUND ( 'NONE', #516, .T. ) ;
#974 = DIRECTION ( 'NONE',  ( 2.610402689703249741E-15, 0.7071067811865441310, -0.7071067811865510144 ) ) ;
#975 = FACE_OUTER_BOUND ( 'NONE', #1145, .T. ) ;
#976 = DIRECTION ( 'NONE',  ( 1.000000000000000000, 2.621359919253841393E-15, 0.000000000000000000 ) ) ;
#977 = DIRECTION ( 'NONE',  ( 0.000000000000000000, 0.000000000000000000, 1.000000000000000000 ) ) ;
#978 = ORIENTED_EDGE ( 'NONE', *, *, #1020, .F. ) ;
#979 = CARTESIAN_POINT ( 'NONE',  ( -7.100000000000002309, -28.14999999999999503, 4.000000000000000000 ) ) ;
#980 = VERTEX_POINT ( 'NONE', #150 ) ;
#981 = EDGE_CURVE ( 'NONE', #777, #1182, #840, .T. ) ;
#982 = DIRECTION ( 'NONE',  ( -0.000000000000000000, 0.000000000000000000, 1.000000000000000000 ) ) ;
#983 = DIRECTION ( 'NONE',  ( 1.000000000000000000, 0.000000000000000000, 0.000000000000000000 ) ) ;
#984 = ORIENTED_EDGE ( 'NONE', *, *, #87, .T. ) ;
#985 = VECTOR ( 'NONE', #550, 999.9999999999998863 ) ;
#986 = AXIS2_PLACEMENT_3D ( 'NONE', #186, #1221, #86 ) ;
#987 = DIRECTION ( 'NONE',  ( -1.541976423090495387E-16, 1.000000000000000000, -0.000000000000000000 ) ) ;
#988 = FACE_OUTER_BOUND ( 'NONE', #798, .T. ) ;
#989 = ORIENTED_EDGE ( 'NONE', *, *, #1250, .T. ) ;
#990 = EDGE_CURVE ( 'NONE', #1045, #159, #818, .T. ) ;
#991 = ORIENTED_EDGE ( 'NONE', *, *, #873, .T. ) ;
#992 = EDGE_LOOP ( 'NONE', ( #1205, #63, #744, #1056, #788, #76, #860, #1237 ) ) ;
#993 = CARTESIAN_POINT ( 'NONE',  ( -11.00000000000000000, 19.65000000000000213, 5.899999999999999467 ) ) ;
#994 = ORIENTED_EDGE ( 'NONE', *, *, #170, .T. ) ;
#995 = ORIENTED_EDGE ( 'NONE', *, *, #866, .F. ) ;
#996 = CARTESIAN_POINT ( 'NONE',  ( 7.100000000000002309, 19.65000000000000213, 4.000000000000000000 ) ) ;
#997 = ADVANCED_FACE ( 'NONE', ( #644, #865, #1061 ), #953, .T. ) ;
#998 = ADVANCED_FACE ( 'NONE', ( #1166, #67, #1169 ), #859, .T. ) ;
#999 = ORIENTED_EDGE ( 'NONE', *, *, #1098, .T. ) ;
#1000 = LINE ( 'NONE', #1088, #545 ) ;
#1001 = DIRECTION ( 'NONE',  ( -1.000000000000000000, 0.000000000000000000, 0.000000000000000000 ) ) ;
#1002 = EDGE_CURVE ( 'NONE', #762, #1186, #565, .T. ) ;
#1003 = VECTOR ( 'NONE', #825, 1000.000000000000000 ) ;
#1004 = LINE ( 'NONE', #699, #688 ) ;
#1005 = VECTOR ( 'NONE', #1199, 1000.000000000000000 ) ;
#1006 = ORIENTED_EDGE ( 'NONE', *, *, #19, .F. ) ;
#1007 = DIRECTION ( 'NONE',  ( 2.621359919253841393E-15, -1.000000000000000000, 0.000000000000000000 ) ) ;
#1008 = LINE ( 'NONE', #740, #456 ) ;
#1009 = ORIENTED_EDGE ( 'NONE', *, *, #105, .T. ) ;
#1010 = ADVANCED_FACE ( 'NONE', ( #501 ), #592, .F. ) ;
#1011 = ORIENTED_EDGE ( 'NONE', *, *, #966, .T. ) ;
#1012 = LINE ( 'NONE', #21, #1266 ) ;
#1013 = EDGE_LOOP ( 'NONE', ( #995, #1281, #1208, #926 ) ) ;
#1014 = ADVANCED_FACE ( 'NONE', ( #1195 ), #884, .F. ) ;
#1015 = VECTOR ( 'NONE', #728, 1000.000000000000114 ) ;
#1016 = AXIS2_PLACEMENT_3D ( 'NONE', #1017, #97, #372 ) ;
#1017 = CARTESIAN_POINT ( 'NONE',  ( 15.73499999998042043, 61.71551627040729215, 34.09712760254515729 ) ) ;
#1018 = LINE ( 'NONE', #1111, #116 ) ;
#1019 = DIRECTION ( 'NONE',  ( -0.000000000000000000, -0.000000000000000000, -1.000000000000000000 ) ) ;
#1020 = EDGE_CURVE ( 'NONE', #26, #338, #1000, .T. ) ;
#1021 = VERTEX_POINT ( 'NONE', #809 ) ;
#1022 = ORIENTED_EDGE ( 'NONE', *, *, #705, .F. ) ;
#1023 = CARTESIAN_POINT ( 'NONE',  ( -17.11801406506033985, 56.34340520441110556, 50.29904253416150794 ) ) ;
#1024 = LINE ( 'NONE', #1242, #162 ) ;
#1025 = PLANE ( 'NONE',  #452 ) ;
#1026 = CIRCLE ( 'NONE', #916, 7.100000000000002309 ) ;
#1027 = ORIENTED_EDGE ( 'NONE', *, *, #1096, .F. ) ;
#1028 = PLANE ( 'NONE',  #727 ) ;
#1029 = CIRCLE ( 'NONE', #51, 1.375000000001579847 ) ;
#1030 = ORIENTED_EDGE ( 'NONE', *, *, #906, .T. ) ;
#1031 = VECTOR ( 'NONE', #295, 1000.000000000000000 ) ;
#1032 = VERTEX_POINT ( 'NONE', #1095 ) ;
#1033 = CARTESIAN_POINT ( 'NONE',  ( -14.36801406505837164, -44.00000000000000000, 50.29904253416150794 ) ) ;
#1034 = DIRECTION ( 'NONE',  ( 2.621359919253841393E-15, -1.000000000000000000, 0.000000000000000000 ) ) ;
#1035 = CARTESIAN_POINT ( 'NONE',  ( -12.49999999999999112, -43.99999999999999289, 1.749999999999987566 ) ) ;
#1036 = FACE_OUTER_BOUND ( 'NONE', #963, .T. ) ;
#1037 = CARTESIAN_POINT ( 'NONE',  ( 0.000000000000000000, -28.14999999999999503, 5.899999999999999467 ) ) ;
#1038 = CARTESIAN_POINT ( 'NONE',  ( 22.50000000000000000, -43.99999999999999289, 1.749999999999987566 ) ) ;
#1039 = AXIS2_PLACEMENT_3D ( 'NONE', #782, #1185, #552 ) ;
#1040 = ORIENTED_EDGE ( 'NONE', *, *, #1122, .T. ) ;
#1041 = EDGE_LOOP ( 'NONE', ( #522, #178 ) ) ;
#1042 =( GEOMETRIC_REPRESENTATION_CONTEXT ( 3 ) GLOBAL_UNCERTAINTY_ASSIGNED_CONTEXT ( ( #276 ) ) GLOBAL_UNIT_ASSIGNED_CONTEXT ( ( #340, #1153, #1263 ) ) REPRESENTATION_CONTEXT ( 'NONE', 'WORKASPACE' ) );
#1043 = ADVANCED_FACE ( 'NONE', ( #988 ), #273, .F. ) ;
#1044 = DIRECTION ( 'NONE',  ( -1.000000000000000000, 0.000000000000000000, -0.000000000000000000 ) ) ;
#1045 = VERTEX_POINT ( 'NONE', #169 ) ;
#1046 = CARTESIAN_POINT ( 'NONE',  ( 15.73499999998043819, -44.00000000000000000, 50.29904253417369375 ) ) ;
#1047 = EDGE_LOOP ( 'NONE', ( #1289, #1030, #1167, #636 ) ) ;
#1048 = DIRECTION ( 'NONE',  ( -1.541976423090495387E-16, 1.000000000000000000, -0.000000000000000000 ) ) ;
#1049 = EDGE_CURVE ( 'NONE', #685, #775, #181, .T. ) ;
#1050 = LINE ( 'NONE', #719, #1181 ) ;
#1051 = CARTESIAN_POINT ( 'NONE',  ( 11.00000000000000000, 19.65000000000000213, 5.899999999999999467 ) ) ;
#1052 = EDGE_LOOP ( 'NONE', ( #96, #172 ) ) ;
#1053 = CIRCLE ( 'NONE', #489, 1.375000000015828894 ) ;
#1054 = ORIENTED_EDGE ( 'NONE', *, *, #121, .T. ) ;
#1055 = PLANE ( 'NONE',  #1172 ) ;
#1056 = ORIENTED_EDGE ( 'NONE', *, *, #58, .T. ) ;
#1057 = DIRECTION ( 'NONE',  ( -1.000000000000000000, 0.000000000000000000, 0.000000000000000000 ) ) ;
#1058 = AXIS2_PLACEMENT_3D ( 'NONE', #730, #1007, #955 ) ;
#1059 = CIRCLE ( 'NONE', #90, 7.100000000000002309 ) ;
#1060 = DIRECTION ( 'NONE',  ( -1.541976423090495387E-16, 1.000000000000000000, 0.000000000000000000 ) ) ;
#1061 = FACE_OUTER_BOUND ( 'NONE', #1047, .T. ) ;
#1062 = CARTESIAN_POINT ( 'NONE',  ( 10.07257131432047181, -38.13966874533915075, -4.110331254660849254 ) ) ;
#1063 = EDGE_LOOP ( 'NONE', ( #989, #1228, #588, #439 ) ) ;
#1064 = ORIENTED_EDGE ( 'NONE', *, *, #485, .F. ) ;
#1065 = ADVANCED_FACE ( 'NONE', ( #805 ), #91, .F. ) ;
#1066 = DIRECTION ( 'NONE',  ( -1.000000000000000000, 4.034240641806528514E-17, 0.000000000000000000 ) ) ;
#1067 = CARTESIAN_POINT ( 'NONE',  ( -49.38605552714444258, 43.72064597789372442, 0.000000000000000000 ) ) ;
#1068 = VERTEX_POINT ( 'NONE', #482 ) ;
#1069 = EDGE_CURVE ( 'NONE', #1186, #553, #296, .T. ) ;
#1070 = DIRECTION ( 'NONE',  ( -1.000000000000000000, -2.621359919253841393E-15, 1.102181015861748654E-16 ) ) ;
#1071 = CARTESIAN_POINT ( 'NONE',  ( -20.75000000000000355, 43.72064597789372442, 0.000000000000000000 ) ) ;
#1072 = ORIENTED_EDGE ( 'NONE', *, *, #153, .T. ) ;
#1073 = ORIENTED_EDGE ( 'NONE', *, *, #308, .T. ) ;
#1074 = VECTOR ( 'NONE', #1171, 1000.000000000000000 ) ;
#1075 = VECTOR ( 'NONE', #1198, 1000.000000000000000 ) ;
#1076 = CARTESIAN_POINT ( 'NONE',  ( -49.46743889684048412, 56.34340520441120503, 17.38597053142565940 ) ) ;
#1077 = LINE ( 'NONE', #1283, #709 ) ;
#1078 = ORIENTED_EDGE ( 'NONE', *, *, #807, .T. ) ;
#1079 = ORIENTED_EDGE ( 'NONE', *, *, #1049, .T. ) ;
#1080 = VECTOR ( 'NONE', #1103, 1000.000000000000000 ) ;
#1081 = EDGE_CURVE ( 'NONE', #1251, #583, #1004, .T. ) ;
#1082 = LINE ( 'NONE', #757, #279 ) ;
#1083 =( GEOMETRIC_REPRESENTATION_CONTEXT ( 3 ) GLOBAL_UNCERTAINTY_ASSIGNED_CONTEXT ( ( #778 ) ) GLOBAL_UNIT_ASSIGNED_CONTEXT ( ( #451, #1191, #277 ) ) REPRESENTATION_CONTEXT ( 'NONE', 'WORKASPACE' ) );
#1084 = DIRECTION ( 'NONE',  ( 2.621359919253841393E-15, -1.000000000000000000, 0.000000000000000000 ) ) ;
#1085 = EDGE_CURVE ( 'NONE', #360, #1032, #378, .T. ) ;
#1086 = DIRECTION ( 'NONE',  ( 1.000000000000000000, 0.000000000000000000, 0.000000000000000000 ) ) ;
#1087 = EDGE_LOOP ( 'NONE', ( #402, #729, #384, #532, #1151, #582, #616, #575 ) ) ;
#1088 = CARTESIAN_POINT ( 'NONE',  ( 20.75000000000001421, -33.99999999999997868, 0.000000000000000000 ) ) ;
#1089 = PLANE ( 'NONE',  #795 ) ;
#1090 = EDGE_LOOP ( 'NONE', ( #420, #952, #365, #1144 ) ) ;
#1091 = AXIS2_PLACEMENT_3D ( 'NONE', #567, #82, #390 ) ;
#1092 = LINE ( 'NONE', #886, #1005 ) ;
#1093 = ORIENTED_EDGE ( 'NONE', *, *, #1069, .F. ) ;
#1094 = AXIS2_PLACEMENT_3D ( 'NONE', #561, #265, #856 ) ;
#1095 = CARTESIAN_POINT ( 'NONE',  ( 22.49999999999999289, 61.71551627040729215, 61.57500000000014495 ) ) ;
#1096 = EDGE_CURVE ( 'NONE', #685, #133, #183, .T. ) ;
#1097 = EDGE_LOOP ( 'NONE', ( #664, #742, #469, #1210, #704, #1176 ) ) ;
#1098 = EDGE_CURVE ( 'NONE', #182, #878, #890, .T. ) ;
#1099 = CARTESIAN_POINT ( 'NONE',  ( 22.50000000000000000, 56.34340520441121214, 17.38597053142565940 ) ) ;
#1100 = CARTESIAN_POINT ( 'NONE',  ( 15.73499999998042043, 61.71551627040729215, 50.29904253417369375 ) ) ;
#1101 = CARTESIAN_POINT ( 'NONE',  ( 0.000000000000000000, -28.14999999999999503, 4.000000000000000000 ) ) ;
#1102 = CIRCLE ( 'NONE', #517, 11.00000000000000000 ) ;
#1103 = DIRECTION ( 'NONE',  ( 1.000000000000000000, 1.541976423090495880E-16, -1.102181015861748654E-16 ) ) ;
#1104 = DIRECTION ( 'NONE',  ( -1.000000000000000000, -2.621359919253841393E-15, 1.102181015861748654E-16 ) ) ;
#1105 = EDGE_CURVE ( 'NONE', #268, #1251, #578, .T. ) ;
#1106 = ORIENTED_EDGE ( 'NONE', *, *, #23, .F. ) ;
#1107 = DIRECTION ( 'NONE',  ( 1.000000000000000000, 1.541976423090495880E-16, 0.000000000000000000 ) ) ;
#1108 = ORIENTED_EDGE ( 'NONE', *, *, #397, .T. ) ;
#1109 = LINE ( 'NONE', #113, #819 ) ;
#1110 = ORIENTED_EDGE ( 'NONE', *, *, #1152, .T. ) ;
#1111 = CARTESIAN_POINT ( 'NONE',  ( 9.286773304553619823, 56.34340520441121214, 17.38597053142565585 ) ) ;
#1112 = ORIENTED_EDGE ( 'NONE', *, *, #424, .F. ) ;
#1113 = VECTOR ( 'NONE', #1188, 1000.000000000000000 ) ;
#1114 = VECTOR ( 'NONE', #248, 1000.000000000000000 ) ;
#1115 = ORIENTED_EDGE ( 'NONE', *, *, #308, .F. ) ;
#1116 = DIRECTION ( 'NONE',  ( 1.000000000000000000, 0.000000000000000000, 0.000000000000000000 ) ) ;
#1117 = ORIENTED_EDGE ( 'NONE', *, *, #655, .T. ) ;
#1118 = CIRCLE ( 'NONE', #274, 7.100000000000002309 ) ;
#1119 = DIRECTION ( 'NONE',  ( -0.000000000000000000, -0.000000000000000000, -1.000000000000000000 ) ) ;
#1120 = ORIENTED_EDGE ( 'NONE', *, *, #137, .F. ) ;
#1121 = ORIENTED_EDGE ( 'NONE', *, *, #1278, .T. ) ;
#1122 = EDGE_CURVE ( 'NONE', #634, #227, #1012, .T. ) ;
#1123 = DIRECTION ( 'NONE',  ( 1.000000000000000000, -3.691666887033559623E-15, 0.000000000000000000 ) ) ;
#1124 = ORIENTED_EDGE ( 'NONE', *, *, #933, .T. ) ;
#1125 = EDGE_LOOP ( 'NONE', ( #726, #991, #218, #529, #1022 ) ) ;
#1126 = ORIENTED_EDGE ( 'NONE', *, *, #334, .F. ) ;
#1127 = FACE_OUTER_BOUND ( 'NONE', #1131, .T. ) ;
#1128 = ORIENTED_EDGE ( 'NONE', *, *, #854, .T. ) ;
#1129 = DIRECTION ( 'NONE',  ( -1.000000000000000000, 0.000000000000000000, -0.000000000000000000 ) ) ;
#1130 = EDGE_LOOP ( 'NONE', ( #191, #1115 ) ) ;
#1131 = EDGE_LOOP ( 'NONE', ( #88, #929 ) ) ;
#1132 = ORIENTED_EDGE ( 'NONE', *, *, #755, .T. ) ;
#1133 = DIRECTION ( 'NONE',  ( 4.034240641806528514E-17, 1.000000000000000000, 0.000000000000000000 ) ) ;
#1134 = DIRECTION ( 'NONE',  ( 0.7071067811865460184, -0.7071067811865489050, -0.000000000000000000 ) ) ;
#1135 = DIRECTION ( 'NONE',  ( -1.000000000000000000, 0.000000000000000000, 0.000000000000000000 ) ) ;
#1136 = AXIS2_PLACEMENT_3D ( 'NONE', #132, #198, #1001 ) ;
#1137 = ORIENTED_EDGE ( 'NONE', *, *, #1096, .T. ) ;
#1138 = EDGE_CURVE ( 'NONE', #227, #762, #385, .T. ) ;
#1139 = DIRECTION ( 'NONE',  ( -0.000000000000000000, -0.7071067811865475727, -0.7071067811865475727 ) ) ;
#1140 = DIRECTION ( 'NONE',  ( -0.7071067811865460184, 0.7071067811865489050, 0.000000000000000000 ) ) ;
#1141 = CARTESIAN_POINT ( 'NONE',  ( -9.293014065059789885, 54.93369772343308455, 17.38597053142565585 ) ) ;
#1142 = VERTEX_POINT ( 'NONE', #267 ) ;
#1143 = AXIS2_PLACEMENT_3D ( 'NONE', #799, #691, #895 ) ;
#1144 = ORIENTED_EDGE ( 'NONE', *, *, #1122, .F. ) ;
#1145 = EDGE_LOOP ( 'NONE', ( #650, #80, #672, #783, #1126, #383 ) ) ;
#1146 = EDGE_CURVE ( 'NONE', #235, #133, #1102, .T. ) ;
#1147 = DIRECTION ( 'NONE',  ( 0.000000000000000000, 0.000000000000000000, 1.000000000000000000 ) ) ;
#1148 = CARTESIAN_POINT ( 'NONE',  ( -13.29008573559270268, -45.90743569830544857, 3.657435698305445460 ) ) ;
#1149 = CARTESIAN_POINT ( 'NONE',  ( -22.49999999999999645, 61.71551627040728505, 61.57500000000015206 ) ) ;
#1150 = CARTESIAN_POINT ( 'NONE',  ( -22.50000000000000000, -43.99999999999999289, 4.000000000000000000 ) ) ;
#1151 = ORIENTED_EDGE ( 'NONE', *, *, #526, .F. ) ;
#1152 = EDGE_CURVE ( 'NONE', #275, #553, #1190, .T. ) ;
#1153 =( NAMED_UNIT ( * ) PLANE_ANGLE_UNIT ( ) SI_UNIT ( $, .RADIAN. ) );
#1154 = LINE ( 'NONE', #423, #214 ) ;
#1155 = EDGE_CURVE ( 'NONE', #918, #646, #1109, .T. ) ;
#1156 = FACE_OUTER_BOUND ( 'NONE', #468, .T. ) ;
#1157 = LINE ( 'NONE', #239, #985 ) ;
#1158 = PRODUCT_DEFINITION_SHAPE ( 'NONE', 'NONE',  #579 ) ;
#1159 = VECTOR ( 'NONE', #748, 1000.000000000000000 ) ;
#1160 = VECTOR ( 'NONE', #1233, 1000.000000000000000 ) ;
#1161 = DIRECTION ( 'NONE',  ( 1.000000000000000000, 5.046468293744913276E-15, 0.000000000000000000 ) ) ;
#1162 = EDGE_CURVE ( 'NONE', #646, #227, #505, .T. ) ;
#1163 = LINE ( 'NONE', #665, #941 ) ;
#1164 = CARTESIAN_POINT ( 'NONE',  ( -9.293014065059789885, 54.93369772343308455, 61.57500000000014495 ) ) ;
#1165 = DIRECTION ( 'NONE',  ( 1.291651237039462973E-15, -1.000000000000000000, -1.423633472579239601E-31 ) ) ;
#1166 = FACE_BOUND ( 'NONE', #752, .T. ) ;
#1167 = ORIENTED_EDGE ( 'NONE', *, *, #204, .T. ) ;
#1168 = EDGE_LOOP ( 'NONE', ( #745, #333, #812, #749 ) ) ;
#1169 = FACE_BOUND ( 'NONE', #435, .T. ) ;
#1170 = CARTESIAN_POINT ( 'NONE',  ( 0.000000000000000000, 0.000000000000000000, 5.899999999999999467 ) ) ;
#1171 = DIRECTION ( 'NONE',  ( -0.000000000000000000, -0.000000000000000000, -1.000000000000000000 ) ) ;
#1172 = AXIS2_PLACEMENT_3D ( 'NONE', #467, #872, #1272 ) ;
#1173 = EDGE_CURVE ( 'NONE', #1032, #606, #422, .T. ) ;
#1174 = LINE ( 'NONE', #479, #237 ) ;
#1175 = VECTOR ( 'NONE', #1147, 1000.000000000000000 ) ;
#1176 = ORIENTED_EDGE ( 'NONE', *, *, #92, .T. ) ;
#1177 = CARTESIAN_POINT ( 'NONE',  ( 7.100000000000002309, -28.14999999999999503, 0.000000000000000000 ) ) ;
#1178 = EDGE_LOOP ( 'NONE', ( #1120, #692, #923, #369 ) ) ;
#1179 = EDGE_CURVE ( 'NONE', #1295, #564, #460, .T. ) ;
#1180 = LINE ( 'NONE', #961, #771 ) ;
#1181 = VECTOR ( 'NONE', #206, 1000.000000000000000 ) ;
#1182 = VERTEX_POINT ( 'NONE', #527 ) ;
#1183 = FACE_OUTER_BOUND ( 'NONE', #411, .T. ) ;
#1184 = COLOUR_RGB ( '',0.7921568627450980005, 0.8196078431372548767, 0.9333333333333333481 ) ;
#1185 = DIRECTION ( 'NONE',  ( 0.000000000000000000, 0.000000000000000000, 1.000000000000000000 ) ) ;
#1186 = VERTEX_POINT ( 'NONE', #631 ) ;
#1187 = ORIENTED_EDGE ( 'NONE', *, *, #92, .F. ) ;
#1188 = DIRECTION ( 'NONE',  ( 1.000000000000000000, 0.000000000000000000, 0.000000000000000000 ) ) ;
#1189 = EDGE_CURVE ( 'NONE', #775, #235, #27, .T. ) ;
#1190 = LINE ( 'NONE', #177, #458 ) ;
#1191 =( NAMED_UNIT ( * ) PLANE_ANGLE_UNIT ( ) SI_UNIT ( $, .RADIAN. ) );
#1192 = EDGE_LOOP ( 'NONE', ( #149, #1009, #1072, #792 ) ) ;
#1193 = DIRECTION ( 'NONE',  ( -1.541976423090495387E-16, 1.000000000000000000, -0.000000000000000000 ) ) ;
#1194 = AXIS2_PLACEMENT_3D ( 'NONE', #1037, #1247, #1116 ) ;
#1195 = FACE_OUTER_BOUND ( 'NONE', #36, .T. ) ;
#1196 = EDGE_CURVE ( 'NONE', #1209, #1261, #17, .T. ) ;
#1197 = VERTEX_POINT ( 'NONE', #614 ) ;
#1198 = DIRECTION ( 'NONE',  ( -2.949376739710913007E-17, -0.7310859717059875473, -0.6822853523084839722 ) ) ;
#1199 = DIRECTION ( 'NONE',  ( -1.000000000000000000, 0.000000000000000000, 0.000000000000000000 ) ) ;
#1200 = DIRECTION ( 'NONE',  ( 0.000000000000000000, 0.000000000000000000, 1.000000000000000000 ) ) ;
#1201 = DIRECTION ( 'NONE',  ( -1.000000000000000000, 0.000000000000000000, 0.000000000000000000 ) ) ;
#1202 = DIRECTION ( 'NONE',  ( -1.000000000000000000, 0.000000000000000000, 0.000000000000000000 ) ) ;
#1203 = VERTEX_POINT ( 'NONE', #124 ) ;
#1204 = CARTESIAN_POINT ( 'NONE',  ( -20.75000000000000711, -33.27512626584703526, 0.000000000000000000 ) ) ;
#1205 = ORIENTED_EDGE ( 'NONE', *, *, #765, .T. ) ;
#1206 = DIRECTION ( 'NONE',  ( -1.000000000000000000, 0.000000000000000000, 0.000000000000000000 ) ) ;
#1207 = EDGE_LOOP ( 'NONE', ( #544, #900, #1011, #49, #852, #533 ) ) ;
#1208 = ORIENTED_EDGE ( 'NONE', *, *, #610, .T. ) ;
#1209 = VERTEX_POINT ( 'NONE', #46 ) ;
#1210 = ORIENTED_EDGE ( 'NONE', *, *, #598, .T. ) ;
#1211 = PLANE ( 'NONE',  #639 ) ;
#1212 = EDGE_CURVE ( 'NONE', #338, #568, #1024, .T. ) ;
#1213 = CARTESIAN_POINT ( 'NONE',  ( -7.100000000000002309, -28.14999999999999503, 4.000000000000000000 ) ) ;
#1214 = AXIS2_PLACEMENT_3D ( 'NONE', #1170, #442, #62 ) ;
#1215 = VERTEX_POINT ( 'NONE', #1213 ) ;
#1216 = AXIS2_PLACEMENT_3D ( 'NONE', #1038, #128, #915 ) ;
#1217 = ORIENTED_EDGE ( 'NONE', *, *, #569, .T. ) ;
#1218 = ORIENTED_EDGE ( 'NONE', *, *, #19, .T. ) ;
#1219 = EDGE_CURVE ( 'NONE', #646, #971, #1236, .T. ) ;
#1220 = CARTESIAN_POINT ( 'NONE',  ( -22.49999999999999645, 9.077041444064687276E-16, 5.899999999999999467 ) ) ;
#1221 = DIRECTION ( 'NONE',  ( 2.621359919253841393E-15, -1.000000000000000000, 0.000000000000000000 ) ) ;
#1222 = AXIS2_PLACEMENT_3D ( 'NONE', #363, #1269, #457 ) ;
#1223 = ORIENTED_EDGE ( 'NONE', *, *, #1259, .T. ) ;
#1224 = FACE_OUTER_BOUND ( 'NONE', #1087, .T. ) ;
#1225 = DIRECTION ( 'NONE',  ( -0.000000000000000000, 0.000000000000000000, 1.000000000000000000 ) ) ;
#1226 = EDGE_LOOP ( 'NONE', ( #806, #668, #1258, #94 ) ) ;
#1227 = ORIENTED_EDGE ( 'NONE', *, *, #630, .F. ) ;
#1228 = ORIENTED_EDGE ( 'NONE', *, *, #1278, .F. ) ;
#1229 = CARTESIAN_POINT ( 'NONE',  ( -15.74301406505936640, 61.71551627040729215, 34.09712760253297859 ) ) ;
#1230 = EDGE_CURVE ( 'NONE', #338, #1068, #304, .T. ) ;
#1231 = CARTESIAN_POINT ( 'NONE',  ( 22.50000000000000000, 44.03589794437406368, 5.899999999999995026 ) ) ;
#1232 = ORIENTED_EDGE ( 'NONE', *, *, #1196, .T. ) ;
#1233 = DIRECTION ( 'NONE',  ( -1.541976423090495387E-16, 1.000000000000000000, -0.000000000000000000 ) ) ;
#1234 = CARTESIAN_POINT ( 'NONE',  ( -22.50000000000000000, -43.99999999999999289, 1.749999999999987566 ) ) ;
#1235 = AXIS2_PLACEMENT_3D ( 'NONE', #1282, #977, #1086 ) ;
#1236 = LINE ( 'NONE', #815, #263 ) ;
#1237 = ORIENTED_EDGE ( 'NONE', *, *, #204, .F. ) ;
#1238 = LINE ( 'NONE', #1141, #541 ) ;
#1239 = VECTOR ( 'NONE', #139, 999.9999999999998863 ) ;
#1240 = EDGE_CURVE ( 'NONE', #980, #762, #713, .T. ) ;
#1241 = ORIENTED_EDGE ( 'NONE', *, *, #673, .T. ) ;
#1242 = CARTESIAN_POINT ( 'NONE',  ( 27.01256313292349276, -27.01256313292360645, 0.000000000000000000 ) ) ;
#1243 = DIRECTION ( 'NONE',  ( 0.7071067811865490160, 0.7071067811865460184, 0.000000000000000000 ) ) ;
#1244 = CARTESIAN_POINT ( 'NONE',  ( 12.49999999999994849, -43.99999999999999289, 1.749999999999988454 ) ) ;
#1245 = CARTESIAN_POINT ( 'NONE',  ( -9.293014065059789885, 56.34340520441121214, 17.38597053142565585 ) ) ;
#1246 = EDGE_LOOP ( 'NONE', ( #967, #843, #1124, #381 ) ) ;
#1247 = DIRECTION ( 'NONE',  ( -0.000000000000000000, 0.000000000000000000, 1.000000000000000000 ) ) ;
#1248 = ADVANCED_FACE ( 'NONE', ( #1127, #706 ), #329, .F. ) ;
#1249 = ORIENTED_EDGE ( 'NONE', *, *, #569, .F. ) ;
#1250 = EDGE_CURVE ( 'NONE', #918, #11, #738, .T. ) ;
#1251 = VERTEX_POINT ( 'NONE', #230 ) ;
#1252 = CYLINDRICAL_SURFACE ( 'NONE', #511, 1.375000000001579847 ) ;
#1253 = DIRECTION ( 'NONE',  ( -0.000000000000000000, -0.000000000000000000, -1.000000000000000000 ) ) ;
#1254 = PLANE ( 'NONE',  #662 ) ;
#1255 = DIRECTION ( 'NONE',  ( 0.4999999999999981681, -0.5000000000000002220, -0.7071067811865487940 ) ) ;
#1256 = CARTESIAN_POINT ( 'NONE',  ( -22.50000000000001066, 56.34340520441109135, -0.001000000000001000089 ) ) ;
#1257 = CARTESIAN_POINT ( 'NONE',  ( -14.36801406505837164, -44.00000000000000000, 34.09712760253297859 ) ) ;
#1258 = ORIENTED_EDGE ( 'NONE', *, *, #1250, .F. ) ;
#1259 = EDGE_CURVE ( 'NONE', #980, #312, #1050, .T. ) ;
#1260 = CARTESIAN_POINT ( 'NONE',  ( -9.293014065059789885, 56.34340520441121214, 61.57500000000014495 ) ) ;
#1261 = VERTEX_POINT ( 'NONE', #536 ) ;
#1262 = CIRCLE ( 'NONE', #1058, 1.375000000001579847 ) ;
#1263 =( NAMED_UNIT ( * ) SI_UNIT ( $, .STERADIAN. ) SOLID_ANGLE_UNIT ( ) );
#1264 = DIRECTION ( 'NONE',  ( -0.000000000000000000, -0.000000000000000000, -1.000000000000000000 ) ) ;
#1265 = LINE ( 'NONE', #348, #796 ) ;
#1266 = VECTOR ( 'NONE', #9, 1000.000000000000000 ) ;
#1267 = FACE_OUTER_BOUND ( 'NONE', #1063, .T. ) ;
#1268 = DIRECTION ( 'NONE',  ( -1.000000000000000000, 0.000000000000000000, 0.000000000000000000 ) ) ;
#1269 = DIRECTION ( 'NONE',  ( -1.541976423090495387E-16, 1.000000000000000000, 0.000000000000000000 ) ) ;
#1270 = VERTEX_POINT ( 'NONE', #513 ) ;
#1271 = ADVANCED_FACE ( 'NONE', ( #940 ), #921, .T. ) ;
#1272 = DIRECTION ( 'NONE',  ( 4.034240641806528514E-17, 1.000000000000000000, 0.000000000000000000 ) ) ;
#1273 = PLANE ( 'NONE',  #1091 ) ;
#1274 = EDGE_LOOP ( 'NONE', ( #24, #1106 ) ) ;
#1275 = DIRECTION ( 'NONE',  ( 1.000000000000000000, 0.000000000000000000, 0.000000000000000000 ) ) ;
#1276 = CYLINDRICAL_SURFACE ( 'NONE', #913, 1.375000000000976108 ) ;
#1277 = CARTESIAN_POINT ( 'NONE',  ( -9.293014065059789885, 56.33869772343309279, 17.38597053142565585 ) ) ;
#1278 = EDGE_CURVE ( 'NONE', #227, #11, #601, .T. ) ;
#1279 = AXIS2_PLACEMENT_3D ( 'NONE', #972, #463, #1275 ) ;
#1280 = PLANE ( 'NONE',  #379 ) ;
#1281 = ORIENTED_EDGE ( 'NONE', *, *, #77, .T. ) ;
#1282 = CARTESIAN_POINT ( 'NONE',  ( 0.000000000000000000, -28.14999999999999503, 0.000000000000000000 ) ) ;
#1283 = CARTESIAN_POINT ( 'NONE',  ( -41.30536575326111404, 65.74623907416808777, 20.55536575326109272 ) ) ;
#1284 = MANIFOLD_SOLID_BREP ( 'Boss-Extrude8', #829 ) ;
#1285 = ORIENTED_EDGE ( 'NONE', *, *, #866, .T. ) ;
#1286 = CARTESIAN_POINT ( 'NONE',  ( -11.00000000000000000, 19.65000000000000213, 4.000000000000000000 ) ) ;
#1287 = EDGE_CURVE ( 'NONE', #734, #611, #417, .T. ) ;
#1288 = ORIENTED_EDGE ( 'NONE', *, *, #1085, .T. ) ;
#1289 = ORIENTED_EDGE ( 'NONE', *, *, #272, .F. ) ;
#1290 = DIRECTION ( 'NONE',  ( 0.000000000000000000, -0.7310859717059875473, -0.6822853523084839722 ) ) ;
#1291 = ADVANCED_FACE ( 'NONE', ( #143 ), #857, .F. ) ;
#1292 = LINE ( 'NONE', #1076, #508 ) ;
#1293 = DIRECTION ( 'NONE',  ( 0.000000000000000000, 0.000000000000000000, 1.000000000000000000 ) ) ;
#1294 = PRODUCT ( 'Ankle-pulley-plate', 'Ankle-pulley-plate', '', ( #444 ) ) ;
#1295 = VERTEX_POINT ( 'NONE', #249 ) ;
#1296 = ORIENTED_EDGE ( 'NONE', *, *, #58, .F. ) ;
#1297 = DIRECTION ( 'NONE',  ( 0.000000000000000000, 0.000000000000000000, 1.000000000000000000 ) ) ;
#1298 = ORIENTED_EDGE ( 'NONE', *, *, #1081, .F. ) ;
ENDSEC;
END-ISO-10303-21;
