ISO-10303-21;
HEADER;
FILE_DESCRIPTION (( 'STEP AP214' ),
    '1' );
FILE_NAME ('Hip-pulley-housing-wall-right.STEP',
    '2026-01-04T17:52:04',
    ( '' ),
    ( '' ),
    'SwSTEP 2.0',
    'SolidWorks 2025',
    '' );
FILE_SCHEMA (( 'AUTOMOTIVE_DESIGN' ));
ENDSEC;

DATA;
#1 = DIRECTION ( 'NONE',  ( 0.000000000000000000, 0.000000000000000000, -1.000000000000000000 ) ) ;
#2 = CARTESIAN_POINT ( 'NONE',  ( -37.29999999999999716, -5.367022744596195206E-15, 0.000000000000000000 ) ) ;
#3 = ORIENTED_EDGE ( 'NONE', *, *, #416, .T. ) ;
#4 = EDGE_CURVE ( 'NONE', #1086, #285, #650, .T. ) ;
#5 = VECTOR ( 'NONE', #1176, 1000.000000000000000 ) ;
#6 = CARTESIAN_POINT ( 'NONE',  ( -8.649999999999998579, -16.85999999999955890, -19.59999999999865850 ) ) ;
#7 = VECTOR ( 'NONE', #18, 1000.000000000000000 ) ;
#8 = LINE ( 'NONE', #1026, #935 ) ;
#9 = DIRECTION ( 'NONE',  ( 1.000000000000000000, 2.877760184770077725E-16, -0.000000000000000000 ) ) ;
#10 = ORIENTED_EDGE ( 'NONE', *, *, #151, .F. ) ;
#11 = EDGE_CURVE ( 'NONE', #1116, #1172, #438, .T. ) ;
#12 =( NAMED_UNIT ( * ) SI_UNIT ( $, .STERADIAN. ) SOLID_ANGLE_UNIT ( ) );
#13 = ORIENTED_EDGE ( 'NONE', *, *, #802, .T. ) ;
#14 = FACE_BOUND ( 'NONE', #778, .T. ) ;
#15 = VECTOR ( 'NONE', #97, 999.9999999999998863 ) ;
#16 = CARTESIAN_POINT ( 'NONE',  ( -4.550000000000005151, -23.34828442116731750, 24.55000000000000426 ) ) ;
#17 = VERTEX_POINT ( 'NONE', #1200 ) ;
#18 = DIRECTION ( 'NONE',  ( 1.000000000000000000, 2.877760184770077725E-16, -0.000000000000000000 ) ) ;
#19 = EDGE_CURVE ( 'NONE', #1028, #616, #352, .T. ) ;
#20 = EDGE_LOOP ( 'NONE', ( #705, #546, #853, #250 ) ) ;
#21 = CARTESIAN_POINT ( 'NONE',  ( -4.749999999999997335, -36.66231780524625350, -26.55000000000000071 ) ) ;
#22 = DIRECTION ( 'NONE',  ( -1.000000000000000000, -2.877760184770077725E-16, -0.000000000000000000 ) ) ;
#23 = EDGE_LOOP ( 'NONE', ( #508, #1187, #135, #1050 ) ) ;
#24 = CARTESIAN_POINT ( 'NONE',  ( -0.7500000000000006661, -26.64828442116734308, -28.05000000000000071 ) ) ;
#25 = AXIS2_PLACEMENT_3D ( 'NONE', #652, #458, #837 ) ;
#26 = ORIENTED_EDGE ( 'NONE', *, *, #215, .F. ) ;
#27 = DIRECTION ( 'NONE',  ( 1.133931675732058741E-16, -0.3940327209102226780, 0.9190964121636459039 ) ) ;
#28 = VECTOR ( 'NONE', #166, 1000.000000000000000 ) ;
#29 = EDGE_CURVE ( 'NONE', #1147, #685, #827, .T. ) ;
#30 = CARTESIAN_POINT ( 'NONE',  ( -4.749999999999997335, -44.41604593830443548, -12.49999999999999112 ) ) ;
#31 = EDGE_LOOP ( 'NONE', ( #1053, #321, #218, #26, #131, #799, #717, #670 ) ) ;
#32 = CARTESIAN_POINT ( 'NONE',  ( -4.550000000000005151, -16.85999999999955890, -5.399999999998660982 ) ) ;
#33 = EDGE_LOOP ( 'NONE', ( #403, #1135 ) ) ;
#34 = CARTESIAN_POINT ( 'NONE',  ( -0.7499999999999937828, -39.24999999999998579, -24.55000000000000071 ) ) ;
#35 = CARTESIAN_POINT ( 'NONE',  ( -38.20000000000003126, -0.9000000000000413225, 28.05000000000000071 ) ) ;
#36 = ORIENTED_EDGE ( 'NONE', *, *, #154, .T. ) ;
#37 = VECTOR ( 'NONE', #921, 1000.000000000000000 ) ;
#38 = EDGE_CURVE ( 'NONE', #108, #1068, #1067, .T. ) ;
#39 = DIRECTION ( 'NONE',  ( -0.000000000000000000, 0.000000000000000000, -1.000000000000000000 ) ) ;
#40 = ORIENTED_EDGE ( 'NONE', *, *, #151, .T. ) ;
#41 = DIRECTION ( 'NONE',  ( -1.000000000000000000, -2.877760184770077725E-16, 0.000000000000000000 ) ) ;
#42 = CARTESIAN_POINT ( 'NONE',  ( -0.7499999999999937828, -53.34828442116731395, 8.673617379884035472E-15 ) ) ;
#43 = ORIENTED_EDGE ( 'NONE', *, *, #629, .F. ) ;
#44 = VERTEX_POINT ( 'NONE', #655 ) ;
#45 = DIRECTION ( 'NONE',  ( 1.133931675732059234E-16, -0.3940327209102227890, -0.9190964121636459039 ) ) ;
#46 = CARTESIAN_POINT ( 'NONE',  ( -4.750000000000004441, -33.75000000000004263, 28.05000000000000071 ) ) ;
#47 = AXIS2_PLACEMENT_3D ( 'NONE', #1034, #204, #592 ) ;
#48 = ORIENTED_EDGE ( 'NONE', *, *, #313, .F. ) ;
#49 = ADVANCED_FACE ( 'NONE', ( #808 ), #731, .T. ) ;
#50 = ORIENTED_EDGE ( 'NONE', *, *, #968, .F. ) ;
#51 = CARTESIAN_POINT ( 'NONE',  ( -8.649999999999998579, -23.34828442116732106, -24.45000000000000639 ) ) ;
#52 = CARTESIAN_POINT ( 'NONE',  ( -4.749999999999997335, -36.66231780524625350, -28.05000000000000071 ) ) ;
#53 = VERTEX_POINT ( 'NONE', #456 ) ;
#54 = VECTOR ( 'NONE', #1204, 1000.000000000000000 ) ;
#55 = SHAPE_DEFINITION_REPRESENTATION ( #1199, #277 ) ;
#56 = ORIENTED_EDGE ( 'NONE', *, *, #876, .T. ) ;
#57 = DIRECTION ( 'NONE',  ( 2.877760184770077725E-16, -1.000000000000000000, -1.942579480377163370E-16 ) ) ;
#58 = EDGE_CURVE ( 'NONE', #1077, #1131, #177, .T. ) ;
#59 = CARTESIAN_POINT ( 'NONE',  ( -7.799999999999998046, -23.34828442116732106, -27.20000000000000284 ) ) ;
#60 = EDGE_LOOP ( 'NONE', ( #794, #1174, #793, #675, #333, #688, #1025, #667, #43, #143, #312, #984 ) ) ;
#61 = DIRECTION ( 'NONE',  ( 0.000000000000000000, 0.000000000000000000, 1.000000000000000000 ) ) ;
#62 = CARTESIAN_POINT ( 'NONE',  ( -4.749999999999997335, -53.34604593830443520, 1.040834085586084257E-14 ) ) ;
#63 = ADVANCED_FACE ( 'NONE', ( #916 ), #368, .F. ) ;
#64 = VECTOR ( 'NONE', #763, 1000.000000000000000 ) ;
#65 = CARTESIAN_POINT ( 'NONE',  ( -4.749999999999997335, -53.34828442116732106, 8.673617379884035472E-15 ) ) ;
#66 = ORIENTED_EDGE ( 'NONE', *, *, #665, .F. ) ;
#67 = CARTESIAN_POINT ( 'NONE',  ( -37.29999999999999716, -5.367022744596195206E-15, 28.05000000000000071 ) ) ;
#68 = DIRECTION ( 'NONE',  ( 1.000000000000000000, 2.877760184770077725E-16, 0.000000000000000000 ) ) ;
#69 = EDGE_LOOP ( 'NONE', ( #308, #774, #859, #958 ) ) ;
#70 = EDGE_CURVE ( 'NONE', #44, #811, #386, .T. ) ;
#71 = AXIS2_PLACEMENT_3D ( 'NONE', #1098, #1103, #187 ) ;
#72 = VERTEX_POINT ( 'NONE', #938 ) ;
#73 = DIRECTION ( 'NONE',  ( 1.133931675732058741E-16, -0.3940327209102226780, 0.9190964121636459039 ) ) ;
#74 = DIRECTION ( 'NONE',  ( -0.000000000000000000, 0.000000000000000000, -1.000000000000000000 ) ) ;
#75 = DIRECTION ( 'NONE',  ( -2.877760184770077725E-16, 1.000000000000000000, 0.000000000000000000 ) ) ;
#76 = VERTEX_POINT ( 'NONE', #769 ) ;
#77 = EDGE_CURVE ( 'NONE', #569, #1028, #391, .T. ) ;
#78 = ADVANCED_FACE ( 'NONE', ( #99 ), #1142, .T. ) ;
#79 = ORIENTED_EDGE ( 'NONE', *, *, #1100, .T. ) ;
#80 = LINE ( 'NONE', #282, #28 ) ;
#81 = CARTESIAN_POINT ( 'NONE',  ( -37.29999999999998295, -36.66231780524626060, 26.55000000000000071 ) ) ;
#82 = LINE ( 'NONE', #648, #891 ) ;
#83 = VECTOR ( 'NONE', #970, 1000.000000000000000 ) ;
#84 = CARTESIAN_POINT ( 'NONE',  ( -4.550000000000012257, 4.057641860525805633E-15, -12.49999999999865885 ) ) ;
#85 = LINE ( 'NONE', #457, #532 ) ;
#86 = EDGE_CURVE ( 'NONE', #524, #472, #1150, .T. ) ;
#87 = CARTESIAN_POINT ( 'NONE',  ( -4.550000000000012257, 4.057641860525805633E-15, -24.55000000000000426 ) ) ;
#88 = DIRECTION ( 'NONE',  ( -2.877760184770077725E-16, 1.000000000000000000, 0.000000000000000000 ) ) ;
#89 = DIRECTION ( 'NONE',  ( 0.000000000000000000, 0.000000000000000000, 1.000000000000000000 ) ) ;
#90 = LINE ( 'NONE', #469, #839 ) ;
#91 = DIRECTION ( 'NONE',  ( 1.000000000000000000, 2.877760184770077725E-16, 0.000000000000000000 ) ) ;
#92 = CARTESIAN_POINT ( 'NONE',  ( -4.550000000000005151, -23.34828442116731750, 28.05000000000000071 ) ) ;
#93 = VERTEX_POINT ( 'NONE', #332 ) ;
#94 = LINE ( 'NONE', #1039, #346 ) ;
#95 = CARTESIAN_POINT ( 'NONE',  ( -4.749999999999997335, -38.02177948580123257, -27.18392739261104651 ) ) ;
#96 = DIRECTION ( 'NONE',  ( 1.216194006994114758E-16, -0.4226182617406961661, -0.9063077870366514910 ) ) ;
#97 = DIRECTION ( 'NONE',  ( 0.7071067811865462405, -0.7071067811865489050, -0.000000000000000000 ) ) ;
#98 = EDGE_LOOP ( 'NONE', ( #856, #442, #196, #50 ) ) ;
#99 = FACE_OUTER_BOUND ( 'NONE', #20, .T. ) ;
#100 = AXIS2_PLACEMENT_3D ( 'NONE', #51, #153, #707 ) ;
#101 = DIRECTION ( 'NONE',  ( 1.000000000000000000, 2.877760184770077725E-16, 0.000000000000000000 ) ) ;
#102 = VECTOR ( 'NONE', #39, 1000.000000000000000 ) ;
#103 = ORIENTED_EDGE ( 'NONE', *, *, #4, .T. ) ;
#104 = CARTESIAN_POINT ( 'NONE',  ( -37.29999999999999005, -23.34828442116732816, 0.000000000000000000 ) ) ;
#105 = CARTESIAN_POINT ( 'NONE',  ( -8.649999999999998579, -23.34828442116732106, -24.45000000000000639 ) ) ;
#106 = ORIENTED_EDGE ( 'NONE', *, *, #380, .T. ) ;
#107 = EDGE_CURVE ( 'NONE', #228, #1008, #1048, .T. ) ;
#108 = VERTEX_POINT ( 'NONE', #484 ) ;
#109 = PLANE ( 'NONE',  #990 ) ;
#110 = AXIS2_PLACEMENT_3D ( 'NONE', #748, #492, #776 ) ;
#111 = LINE ( 'NONE', #46, #626 ) ;
#112 = VECTOR ( 'NONE', #687, 1000.000000000000000 ) ;
#113 = ORIENTED_EDGE ( 'NONE', *, *, #834, .F. ) ;
#114 = FACE_OUTER_BOUND ( 'NONE', #1111, .T. ) ;
#115 = EDGE_CURVE ( 'NONE', #385, #1179, #668, .T. ) ;
#116 = ORIENTED_EDGE ( 'NONE', *, *, #789, .T. ) ;
#117 = DIRECTION ( 'NONE',  ( 1.000000000000000000, 2.877760184770077725E-16, -0.000000000000000000 ) ) ;
#118 = CARTESIAN_POINT ( 'NONE',  ( -8.649999999999998579, -23.34828442116732106, 24.45000000000000639 ) ) ;
#119 = ORIENTED_EDGE ( 'NONE', *, *, #762, .F. ) ;
#120 = CARTESIAN_POINT ( 'NONE',  ( -8.649999999999998579, -23.34828442116732106, -24.45000000000000639 ) ) ;
#121 = DIRECTION ( 'NONE',  ( 1.000000000000000000, 2.877760184770077725E-16, -0.000000000000000000 ) ) ;
#122 = VECTOR ( 'NONE', #618, 1000.000000000000000 ) ;
#123 = ORIENTED_EDGE ( 'NONE', *, *, #548, .F. ) ;
#124 = CARTESIAN_POINT ( 'NONE',  ( -3.721953600706538356, -24.17633082046079096, -13.51959087782351254 ) ) ;
#125 = EDGE_CURVE ( 'NONE', #472, #645, #94, .T. ) ;
#126 = CARTESIAN_POINT ( 'NONE',  ( -8.649999999999998579, 2.877760184770077824E-15, 0.000000000000000000 ) ) ;
#127 = ORIENTED_EDGE ( 'NONE', *, *, #266, .T. ) ;
#128 = CARTESIAN_POINT ( 'NONE',  ( -4.550000000000005151, -23.34828442116731750, 28.05000000000000071 ) ) ;
#129 = ORIENTED_EDGE ( 'NONE', *, *, #825, .F. ) ;
#130 = FACE_OUTER_BOUND ( 'NONE', #60, .T. ) ;
#131 = ORIENTED_EDGE ( 'NONE', *, *, #58, .F. ) ;
#132 = APPLICATION_CONTEXT ( 'automotive_design' ) ;
#133 = ORIENTED_EDGE ( 'NONE', *, *, #239, .T. ) ;
#134 = LINE ( 'NONE', #1169, #83 ) ;
#135 = ORIENTED_EDGE ( 'NONE', *, *, #573, .F. ) ;
#136 = EDGE_CURVE ( 'NONE', #76, #746, #1023, .T. ) ;
#137 = UNCERTAINTY_MEASURE_WITH_UNIT (LENGTH_MEASURE( 1.000000000000000082E-05 ), #194, 'distance_accuracy_value', 'NONE');
#138 = ORIENTED_EDGE ( 'NONE', *, *, #1177, .T. ) ;
#139 = CARTESIAN_POINT ( 'NONE',  ( -5.350000000000007638, -33.75000000000002842, 0.000000000000000000 ) ) ;
#140 = VECTOR ( 'NONE', #701, 1000.000000000000000 ) ;
#141 = CARTESIAN_POINT ( 'NONE',  ( -8.649999999999995026, -30.45000000000000284, 28.05000000000000071 ) ) ;
#142 = VECTOR ( 'NONE', #382, 1000.000000000000000 ) ;
#143 = ORIENTED_EDGE ( 'NONE', *, *, #983, .F. ) ;
#144 = EDGE_CURVE ( 'NONE', #17, #515, #835, .T. ) ;
#145 = ORIENTED_EDGE ( 'NONE', *, *, #672, .T. ) ;
#146 = DIRECTION ( 'NONE',  ( -2.877760184770077725E-16, 1.000000000000000000, 0.000000000000000000 ) ) ;
#147 = DIRECTION ( 'NONE',  ( 1.000000000000000000, 2.877760184770077725E-16, -0.000000000000000000 ) ) ;
#148 = ORIENTED_EDGE ( 'NONE', *, *, #478, .F. ) ;
#149 = CARTESIAN_POINT ( 'NONE',  ( -4.749999999999997335, -53.34828442116732106, 8.673617379884035472E-15 ) ) ;
#150 = VECTOR ( 'NONE', #847, 1000.000000000000000 ) ;
#151 = EDGE_CURVE ( 'NONE', #863, #1172, #899, .T. ) ;
#152 = ORIENTED_EDGE ( 'NONE', *, *, #354, .T. ) ;
#153 = DIRECTION ( 'NONE',  ( 0.000000000000000000, 0.000000000000000000, 1.000000000000000000 ) ) ;
#154 = EDGE_CURVE ( 'NONE', #616, #385, #1089, .T. ) ;
#155 = PLANE ( 'NONE',  #320 ) ;
#156 = CARTESIAN_POINT ( 'NONE',  ( -7.800000000000005151, 3.122369800475533171E-15, -27.20000000000000284 ) ) ;
#157 = ORIENTED_EDGE ( 'NONE', *, *, #1064, .F. ) ;
#158 = DIRECTION ( 'NONE',  ( -1.000000000000000000, -2.877760184770077725E-16, 0.000000000000000000 ) ) ;
#159 = EDGE_CURVE ( 'NONE', #238, #1116, #620, .T. ) ;
#160 = CARTESIAN_POINT ( 'NONE',  ( -0.7500000000000006661, -27.14828442116734308, 26.55000000000000071 ) ) ;
#161 = AXIS2_PLACEMENT_3D ( 'NONE', #439, #243, #45 ) ;
#162 = ORIENTED_EDGE ( 'NONE', *, *, #1081, .T. ) ;
#163 = VECTOR ( 'NONE', #1123, 1000.000000000000000 ) ;
#164 = PRODUCT_DEFINITION_CONTEXT ( 'detailed design', #195, 'design' ) ;
#165 = ORIENTED_EDGE ( 'NONE', *, *, #861, .T. ) ;
#166 = DIRECTION ( 'NONE',  ( 1.000000000000000000, 2.877760184770077725E-16, -0.000000000000000000 ) ) ;
#167 = FACE_OUTER_BOUND ( 'NONE', #69, .T. ) ;
#168 = CARTESIAN_POINT ( 'NONE',  ( -37.29999999999999716, -5.367022744596195206E-15, 24.45000000000000639 ) ) ;
#169 = VERTEX_POINT ( 'NONE', #974 ) ;
#170 = VECTOR ( 'NONE', #1184, 1000.000000000000000 ) ;
#171 = DIRECTION ( 'NONE',  ( -2.443272501375784959E-16, 1.000000000000000000, 0.000000000000000000 ) ) ;
#172 = PLANE ( 'NONE',  #419 ) ;
#173 = CYLINDRICAL_SURFACE ( 'NONE', #25, 12.50000000000000178 ) ;
#174 = DIRECTION ( 'NONE',  ( -2.877760184770077725E-16, 1.000000000000000000, 0.000000000000000000 ) ) ;
#175 = ORIENTED_EDGE ( 'NONE', *, *, #634, .F. ) ;
#176 = ADVANCED_FACE ( 'NONE', ( #534 ), #1102, .T. ) ;
#177 = LINE ( 'NONE', #549, #170 ) ;
#178 = DIRECTION ( 'NONE',  ( 0.000000000000000000, 0.000000000000000000, 1.000000000000000000 ) ) ;
#179 = DIRECTION ( 'NONE',  ( -2.877760184770077725E-16, 1.000000000000000000, 0.000000000000000000 ) ) ;
#180 = DIRECTION ( 'NONE',  ( 1.000000000000000000, 1.438880092385038863E-16, -0.000000000000000000 ) ) ;
#181 = VECTOR ( 'NONE', #1202, 1000.000000000000000 ) ;
#182 = PRODUCT_RELATED_PRODUCT_CATEGORY ( 'part', '', ( #1090 ) ) ;
#183 = VERTEX_POINT ( 'NONE', #359 ) ;
#184 = LINE ( 'NONE', #1190, #142 ) ;
#185 = CYLINDRICAL_SURFACE ( 'NONE', #340, 7.100000000000000533 ) ;
#186 = DIRECTION ( 'NONE',  ( -1.000000000000000000, -2.877760184770077725E-16, 0.000000000000000000 ) ) ;
#187 = DIRECTION ( 'NONE',  ( 2.877760184770077725E-16, -1.000000000000000000, 5.827738441131490604E-16 ) ) ;
#188 = CARTESIAN_POINT ( 'NONE',  ( -68.25100000000000477, -42.04685710750737826, -18.02622368288012211 ) ) ;
#189 = AXIS2_PLACEMENT_3D ( 'NONE', #676, #1073, #1122 ) ;
#190 = CARTESIAN_POINT ( 'NONE',  ( -38.19999999999977547, -0.8999999999997640998, 28.05000000000000071 ) ) ;
#191 = EDGE_CURVE ( 'NONE', #638, #517, #753, .T. ) ;
#192 = DIRECTION ( 'NONE',  ( -1.000000000000000000, -2.877760184770077725E-16, 0.000000000000000000 ) ) ;
#193 = ORIENTED_EDGE ( 'NONE', *, *, #11, .F. ) ;
#194 =( LENGTH_UNIT ( ) NAMED_UNIT ( * ) SI_UNIT ( .MILLI., .METRE. ) );
#195 = APPLICATION_CONTEXT ( 'automotive_design' ) ;
#196 = ORIENTED_EDGE ( 'NONE', *, *, #424, .T. ) ;
#197 = LINE ( 'NONE', #370, #574 ) ;
#198 = EDGE_CURVE ( 'NONE', #887, #1066, #437, .T. ) ;
#199 = CYLINDRICAL_SURFACE ( 'NONE', #944, 7.100000000000000533 ) ;
#200 = ORIENTED_EDGE ( 'NONE', *, *, #486, .F. ) ;
#201 = VECTOR ( 'NONE', #236, 1000.000000000000000 ) ;
#202 = LINE ( 'NONE', #128, #102 ) ;
#203 = ORIENTED_EDGE ( 'NONE', *, *, #411, .T. ) ;
#204 = DIRECTION ( 'NONE',  ( -1.000000000000000000, -1.438880092385038863E-16, 0.000000000000000000 ) ) ;
#205 = VERTEX_POINT ( 'NONE', #1080 ) ;
#206 = EDGE_CURVE ( 'NONE', #517, #638, #461, .T. ) ;
#207 = CARTESIAN_POINT ( 'NONE',  ( -5.400000000000002132, -23.34828442116731750, 24.55000000000000426 ) ) ;
#208 = DIRECTION ( 'NONE',  ( 1.000000000000000000, 0.000000000000000000, 0.000000000000000000 ) ) ;
#209 = ORIENTED_EDGE ( 'NONE', *, *, #796, .T. ) ;
#210 = DIRECTION ( 'NONE',  ( 2.877760184770077725E-16, -1.000000000000000000, 0.000000000000000000 ) ) ;
#211 = VECTOR ( 'NONE', #324, 1000.000000000000000 ) ;
#212 = DIRECTION ( 'NONE',  ( 0.000000000000000000, 0.000000000000000000, 1.000000000000000000 ) ) ;
#213 =( GEOMETRIC_REPRESENTATION_CONTEXT ( 3 ) GLOBAL_UNCERTAINTY_ASSIGNED_CONTEXT ( ( #240 ) ) GLOBAL_UNIT_ASSIGNED_CONTEXT ( ( #395, #505, #1065 ) ) REPRESENTATION_CONTEXT ( 'NONE', 'WORKASPACE' ) );
#214 = EDGE_LOOP ( 'NONE', ( #1129, #894 ) ) ;
#215 = EDGE_CURVE ( 'NONE', #1131, #569, #758, .T. ) ;
#216 = CARTESIAN_POINT ( 'NONE',  ( -5.400000000000009237, 3.813032244820349498E-15, -27.20000000000000284 ) ) ;
#217 = DIRECTION ( 'NONE',  ( 0.000000000000000000, 0.000000000000000000, 1.000000000000000000 ) ) ;
#218 = ORIENTED_EDGE ( 'NONE', *, *, #328, .F. ) ;
#219 = PLANE ( 'NONE',  #47 ) ;
#220 = DIRECTION ( 'NONE',  ( 0.000000000000000000, 0.000000000000000000, -1.000000000000000000 ) ) ;
#221 = VERTEX_POINT ( 'NONE', #92 ) ;
#222 = FACE_OUTER_BOUND ( 'NONE', #848, .T. ) ;
#223 = VECTOR ( 'NONE', #1196, 1000.000000000000000 ) ;
#224 = EDGE_LOOP ( 'NONE', ( #387, #1144, #247, #969, #713, #347, #895, #1016, #557, #884, #336, #351 ) ) ;
#225 = CARTESIAN_POINT ( 'NONE',  ( -4.550000000000012257, -23.34828442116731750, 0.000000000000000000 ) ) ;
#226 = CARTESIAN_POINT ( 'NONE',  ( -1.250000000000001110, -26.64828442116734308, 28.05000000000000071 ) ) ;
#227 = ORIENTED_EDGE ( 'NONE', *, *, #466, .T. ) ;
#228 = VERTEX_POINT ( 'NONE', #658 ) ;
#229 = DIRECTION ( 'NONE',  ( 0.000000000000000000, 0.000000000000000000, 1.000000000000000000 ) ) ;
#230 = EDGE_CURVE ( 'NONE', #1056, #17, #291, .T. ) ;
#231 = CYLINDRICAL_SURFACE ( 'NONE', #585, 7.099999999999998757 ) ;
#232 = ORIENTED_EDGE ( 'NONE', *, *, #1177, .F. ) ;
#233 = AXIS2_PLACEMENT_3D ( 'NONE', #1029, #947, #864 ) ;
#234 = VECTOR ( 'NONE', #587, 1000.000000000000000 ) ;
#235 = VERTEX_POINT ( 'NONE', #1127 ) ;
#236 = DIRECTION ( 'NONE',  ( -2.877760184770077725E-16, 1.000000000000000000, 1.942579480377163370E-16 ) ) ;
#237 = DIRECTION ( 'NONE',  ( -1.000000000000000000, -2.877760184770077725E-16, -0.000000000000000000 ) ) ;
#238 = VERTEX_POINT ( 'NONE', #16 ) ;
#239 = EDGE_CURVE ( 'NONE', #556, #472, #840, .T. ) ;
#240 = UNCERTAINTY_MEASURE_WITH_UNIT (LENGTH_MEASURE( 1.000000000000000082E-05 ), #395, 'distance_accuracy_value', 'NONE');
#241 = APPLICATION_PROTOCOL_DEFINITION ( 'draft international standard', 'automotive_design', 1998, #195 ) ;
#242 = ORIENTED_EDGE ( 'NONE', *, *, #924, .T. ) ;
#243 = DIRECTION ( 'NONE',  ( 2.644939060889569268E-16, -0.9190964121636459039, 0.3940327209102227890 ) ) ;
#244 = CIRCLE ( 'NONE', #1059, 12.50000000000000178 ) ;
#245 = DIRECTION ( 'NONE',  ( 1.000000000000000000, 2.877760184770077725E-16, -0.000000000000000000 ) ) ;
#246 = AXIS2_PLACEMENT_3D ( 'NONE', #500, #404, #217 ) ;
#247 = ORIENTED_EDGE ( 'NONE', *, *, #1038, .F. ) ;
#248 = DIRECTION ( 'NONE',  ( -2.877760184770077725E-16, 1.000000000000000000, 0.000000000000000000 ) ) ;
#249 = ADVANCED_FACE ( 'NONE', ( #284 ), #1021, .T. ) ;
#250 = ORIENTED_EDGE ( 'NONE', *, *, #629, .T. ) ;
#251 = DIRECTION ( 'NONE',  ( 1.000000000000000000, 2.877760184770077725E-16, -0.000000000000000000 ) ) ;
#252 = CARTESIAN_POINT ( 'NONE',  ( -5.400000000000002132, -23.34828442116731750, -27.20000000000000284 ) ) ;
#253 = AXIS2_PLACEMENT_3D ( 'NONE', #680, #593, #498 ) ;
#254 = EDGE_CURVE ( 'NONE', #274, #1066, #1002, .T. ) ;
#255 = ORIENTED_EDGE ( 'NONE', *, *, #486, .T. ) ;
#256 = PLANE ( 'NONE',  #674 ) ;
#257 = FACE_OUTER_BOUND ( 'NONE', #693, .T. ) ;
#258 = ORIENTED_EDGE ( 'NONE', *, *, #765, .F. ) ;
#259 = LINE ( 'NONE', #878, #261 ) ;
#260 = CARTESIAN_POINT ( 'NONE',  ( -5.400000000000002132, -23.34828442116731750, -27.20000000000000284 ) ) ;
#261 = VECTOR ( 'NONE', #146, 1000.000000000000000 ) ;
#262 = ORIENTED_EDGE ( 'NONE', *, *, #319, .F. ) ;
#263 = ORIENTED_EDGE ( 'NONE', *, *, #342, .F. ) ;
#264 = PLANE ( 'NONE',  #820 ) ;
#265 = LINE ( 'NONE', #1119, #803 ) ;
#266 = EDGE_CURVE ( 'NONE', #741, #1147, #1126, .T. ) ;
#267 = DIRECTION ( 'NONE',  ( -1.216194006994116484E-16, 0.4226182617406966657, -0.9063077870366513800 ) ) ;
#268 = VECTOR ( 'NONE', #1114, 1000.000000000000000 ) ;
#269 = CARTESIAN_POINT ( 'NONE',  ( -5.400000000000002132, -23.34828442116731750, -24.55000000000000426 ) ) ;
#270 = DIRECTION ( 'NONE',  ( 1.000000000000000000, 2.877760184770077725E-16, -0.000000000000000000 ) ) ;
#271 = LINE ( 'NONE', #87, #181 ) ;
#272 = CARTESIAN_POINT ( 'NONE',  ( -8.649999999999998579, -16.85999999999956245, -12.49999999999865885 ) ) ;
#273 = ADVANCED_FACE ( 'NONE', ( #1134 ), #199, .F. ) ;
#274 = VERTEX_POINT ( 'NONE', #1007 ) ;
#275 = DIRECTION ( 'NONE',  ( -1.000000000000000000, -2.877760184770077725E-16, 0.000000000000000000 ) ) ;
#276 = FACE_BOUND ( 'NONE', #33, .T. ) ;
#277 = ADVANCED_BREP_SHAPE_REPRESENTATION ( 'Hip-pulley-housing-wall-right', ( #348, #728 ), #575 ) ;
#278 = DIRECTION ( 'NONE',  ( -1.000000000000000000, -2.877760184770077725E-16, 0.000000000000000000 ) ) ;
#279 = AXIS2_PLACEMENT_3D ( 'NONE', #225, #779, #866 ) ;
#280 = EDGE_CURVE ( 'NONE', #221, #360, #936, .T. ) ;
#281 = DIRECTION ( 'NONE',  ( 1.000000000000000000, 1.438880092385038863E-16, -0.000000000000000000 ) ) ;
#282 = CARTESIAN_POINT ( 'NONE',  ( -68.25100000000000477, -44.41604593830444969, -12.49999999999999112 ) ) ;
#283 = CARTESIAN_POINT ( 'NONE',  ( -4.749999999999997335, -36.66231780524625350, -26.55000000000000071 ) ) ;
#284 = FACE_OUTER_BOUND ( 'NONE', #297, .T. ) ;
#285 = VERTEX_POINT ( 'NONE', #476 ) ;
#286 = DIRECTION ( 'NONE',  ( 1.216194006994127577E-16, -0.4226182617407005515, 0.9063077870366493816 ) ) ;
#287 = VECTOR ( 'NONE', #75, 1000.000000000000000 ) ;
#288 = EDGE_CURVE ( 'NONE', #567, #761, #751, .T. ) ;
#289 = ORIENTED_EDGE ( 'NONE', *, *, #380, .F. ) ;
#290 = DIRECTION ( 'NONE',  ( 0.000000000000000000, 0.000000000000000000, 1.000000000000000000 ) ) ;
#291 = LINE ( 'NONE', #735, #1167 ) ;
#292 = ORIENTED_EDGE ( 'NONE', *, *, #1133, .F. ) ;
#293 = EDGE_LOOP ( 'NONE', ( #1096, #591, #165, #289 ) ) ;
#294 = EDGE_CURVE ( 'NONE', #1008, #863, #1120, .T. ) ;
#295 = CARTESIAN_POINT ( 'NONE',  ( -3.721953600706538356, -24.17633082046079096, -11.48040912217380516 ) ) ;
#296 = EDGE_CURVE ( 'NONE', #1071, #477, #745, .T. ) ;
#297 = EDGE_LOOP ( 'NONE', ( #426, #690, #528, #608, #315, #474, #152, #1192, #157, #1015, #410, #263 ) ) ;
#298 = AXIS2_PLACEMENT_3D ( 'NONE', #383, #750, #1001 ) ;
#299 = DIRECTION ( 'NONE',  ( -2.877760184770077725E-16, 1.000000000000000000, 0.000000000000000000 ) ) ;
#300 = AXIS2_PLACEMENT_3D ( 'NONE', #669, #870, #777 ) ;
#301 = CARTESIAN_POINT ( 'NONE',  ( 0.000000000000000000, 0.000000000000000000, 0.000000000000000000 ) ) ;
#302 = VERTEX_POINT ( 'NONE', #641 ) ;
#303 = DIRECTION ( 'NONE',  ( -0.000000000000000000, 0.000000000000000000, -1.000000000000000000 ) ) ;
#304 = CARTESIAN_POINT ( 'NONE',  ( -7.800000000000005151, 3.122369800475533171E-15, -27.20000000000000284 ) ) ;
#305 = ORIENTED_EDGE ( 'NONE', *, *, #1170, .T. ) ;
#306 = EDGE_CURVE ( 'NONE', #1131, #616, #82, .T. ) ;
#307 = DIRECTION ( 'NONE',  ( -2.877760184770077725E-16, 1.000000000000000000, 0.000000000000000000 ) ) ;
#308 = ORIENTED_EDGE ( 'NONE', *, *, #313, .T. ) ;
#309 = LINE ( 'NONE', #1051, #1097 ) ;
#310 = AXIS2_PLACEMENT_3D ( 'NONE', #463, #281, #171 ) ;
#311 = LINE ( 'NONE', #531, #504 ) ;
#312 = ORIENTED_EDGE ( 'NONE', *, *, #373, .F. ) ;
#313 = EDGE_CURVE ( 'NONE', #360, #413, #454, .T. ) ;
#314 = LINE ( 'NONE', #399, #596 ) ;
#315 = ORIENTED_EDGE ( 'NONE', *, *, #154, .F. ) ;
#316 = CARTESIAN_POINT ( 'NONE',  ( -4.550000000000005151, -23.34828442116731750, -15.38308259854344406 ) ) ;
#317 = SURFACE_SIDE_STYLE ('',( #961 ) ) ;
#318 = EDGE_LOOP ( 'NONE', ( #490, #203, #499, #908 ) ) ;
#319 = EDGE_CURVE ( 'NONE', #1068, #108, #702, .T. ) ;
#320 = AXIS2_PLACEMENT_3D ( 'NONE', #160, #526, #906 ) ;
#321 = ORIENTED_EDGE ( 'NONE', *, *, #1110, .F. ) ;
#322 = CARTESIAN_POINT ( 'NONE',  ( -0.7499999999999937828, -44.41604593830441416, 12.50000000000000355 ) ) ;
#323 = VECTOR ( 'NONE', #286, 1000.000000000000114 ) ;
#324 = DIRECTION ( 'NONE',  ( -1.000000000000000000, -2.877760184770077725E-16, 0.000000000000000000 ) ) ;
#325 = ORIENTED_EDGE ( 'NONE', *, *, #77, .T. ) ;
#326 = EDGE_LOOP ( 'NONE', ( #106, #875, #584, #900 ) ) ;
#327 = DIRECTION ( 'NONE',  ( -0.000000000000000000, 0.000000000000000000, -1.000000000000000000 ) ) ;
#328 = EDGE_CURVE ( 'NONE', #569, #53, #460, .T. ) ;
#329 = LINE ( 'NONE', #704, #434 ) ;
#330 = EDGE_LOOP ( 'NONE', ( #943, #480, #521, #736, #1163, #992, #987, #255 ) ) ;
#331 = VECTOR ( 'NONE', #857, 1000.000000000000000 ) ;
#332 = CARTESIAN_POINT ( 'NONE',  ( -4.749999999999997335, -39.24999999999997868, 24.55000000000000071 ) ) ;
#333 = ORIENTED_EDGE ( 'NONE', *, *, #946, .F. ) ;
#334 = CARTESIAN_POINT ( 'NONE',  ( -0.7499999999999937828, -36.66231780524624639, -28.05000000000000071 ) ) ;
#335 = LINE ( 'NONE', #59, #397 ) ;
#336 = ORIENTED_EDGE ( 'NONE', *, *, #1188, .F. ) ;
#337 = ADVANCED_FACE ( 'NONE', ( #372 ), #654, .F. ) ;
#338 = ORIENTED_EDGE ( 'NONE', *, *, #1009, .F. ) ;
#339 = FACE_OUTER_BOUND ( 'NONE', #23, .T. ) ;
#340 = AXIS2_PLACEMENT_3D ( 'NONE', #401, #117, #1145 ) ;
#341 = LINE ( 'NONE', #1186, #764 ) ;
#342 = EDGE_CURVE ( 'NONE', #1116, #746, #832, .T. ) ;
#343 = ORIENTED_EDGE ( 'NONE', *, *, #1139, .T. ) ;
#344 = DIRECTION ( 'NONE',  ( -1.000000000000000000, -2.877760184770077725E-16, -0.000000000000000000 ) ) ;
#345 = CARTESIAN_POINT ( 'NONE',  ( -8.649999999999998579, -23.34828442116732106, -24.45000000000000639 ) ) ;
#346 = VECTOR ( 'NONE', #661, 1000.000000000000000 ) ;
#347 = ORIENTED_EDGE ( 'NONE', *, *, #448, .F. ) ;
#348 = MANIFOLD_SOLID_BREP ( 'Mirror7', #1020 ) ;
#349 = LINE ( 'NONE', #1185, #1032 ) ;
#350 = PLANE ( 'NONE',  #1031 ) ;
#351 = ORIENTED_EDGE ( 'NONE', *, *, #915, .F. ) ;
#352 = LINE ( 'NONE', #910, #37 ) ;
#353 = FACE_OUTER_BOUND ( 'NONE', #1194, .T. ) ;
#354 = EDGE_CURVE ( 'NONE', #1028, #515, #874, .T. ) ;
#355 = AXIS2_PLACEMENT_3D ( 'NONE', #708, #801, #630 ) ;
#356 = DIRECTION ( 'NONE',  ( 1.000000000000000000, 2.877760184770077725E-16, -0.000000000000000000 ) ) ;
#357 = VECTOR ( 'NONE', #57, 1000.000000000000000 ) ;
#358 = AXIS2_PLACEMENT_3D ( 'NONE', #518, #800, #178 ) ;
#359 = CARTESIAN_POINT ( 'NONE',  ( -0.7499999999999937828, -53.34604593830442809, -12.49999999999999289 ) ) ;
#360 = VERTEX_POINT ( 'NONE', #226 ) ;
#361 = ORIENTED_EDGE ( 'NONE', *, *, #1093, .T. ) ;
#362 = LINE ( 'NONE', #911, #615 ) ;
#363 = EDGE_CURVE ( 'NONE', #681, #1060, #945, .T. ) ;
#364 = CARTESIAN_POINT ( 'NONE',  ( -4.749999999999997335, -38.02177948580123257, 27.18392739261105007 ) ) ;
#365 = CARTESIAN_POINT ( 'NONE',  ( -0.7500000000000006661, -27.14828442116734308, 28.05000000000000071 ) ) ;
#366 = VERTEX_POINT ( 'NONE', #855 ) ;
#367 = AXIS2_PLACEMENT_3D ( 'NONE', #1014, #186, #561 ) ;
#368 = PLANE ( 'NONE',  #233 ) ;
#369 = DIRECTION ( 'NONE',  ( 0.000000000000000000, 0.000000000000000000, 1.000000000000000000 ) ) ;
#370 = CARTESIAN_POINT ( 'NONE',  ( -8.649999999999998579, -23.34828442116732106, 28.05000000000000426 ) ) ;
#371 = ADVANCED_FACE ( 'NONE', ( #579 ), #231, .F. ) ;
#372 = FACE_OUTER_BOUND ( 'NONE', #756, .T. ) ;
#373 = EDGE_CURVE ( 'NONE', #645, #903, #111, .T. ) ;
#374 = EDGE_LOOP ( 'NONE', ( #889, #577, #415, #119 ) ) ;
#375 = CARTESIAN_POINT ( 'NONE',  ( -5.400000000000009237, 3.813032244820349498E-15, 0.000000000000000000 ) ) ;
#376 = LINE ( 'NONE', #743, #973 ) ;
#377 = CARTESIAN_POINT ( 'NONE',  ( -4.550000000000012257, -23.34828442116731750, 28.05000000000000071 ) ) ;
#378 = ORIENTED_EDGE ( 'NONE', *, *, #1182, .F. ) ;
#379 = AXIS2_PLACEMENT_3D ( 'NONE', #797, #147, #520 ) ;
#380 = EDGE_CURVE ( 'NONE', #366, #183, #1140, .T. ) ;
#381 = VECTOR ( 'NONE', #928, 1000.000000000000000 ) ;
#382 = DIRECTION ( 'NONE',  ( -2.877760184770077725E-16, 1.000000000000000000, 0.000000000000000000 ) ) ;
#383 = CARTESIAN_POINT ( 'NONE',  ( -0.7499999999999937828, -36.66231780524624639, 26.55000000000000071 ) ) ;
#384 = DIRECTION ( 'NONE',  ( -2.877760184770077725E-16, 1.000000000000000000, 0.000000000000000000 ) ) ;
#385 = VERTEX_POINT ( 'NONE', #304 ) ;
#386 = CIRCLE ( 'NONE', #110, 1.500000000000001332 ) ;
#387 = ORIENTED_EDGE ( 'NONE', *, *, #1139, .F. ) ;
#388 = FACE_OUTER_BOUND ( 'NONE', #510, .T. ) ;
#389 = DIRECTION ( 'NONE',  ( 0.000000000000000000, 0.000000000000000000, 1.000000000000000000 ) ) ;
#390 = VERTEX_POINT ( 'NONE', #673 ) ;
#391 = LINE ( 'NONE', #120, #503 ) ;
#392 = EDGE_LOOP ( 'NONE', ( #127, #804, #262, #1205 ) ) ;
#393 = DIRECTION ( 'NONE',  ( 0.000000000000000000, 0.000000000000000000, 1.000000000000000000 ) ) ;
#394 = ADVANCED_FACE ( 'NONE', ( #942 ), #1052, .F. ) ;
#395 =( LENGTH_UNIT ( ) NAMED_UNIT ( * ) SI_UNIT ( .MILLI., .METRE. ) );
#396 = ORIENTED_EDGE ( 'NONE', *, *, #930, .T. ) ;
#397 = VECTOR ( 'NONE', #440, 1000.000000000000000 ) ;
#398 = CIRCLE ( 'NONE', #1160, 1.500000000000001332 ) ;
#399 = CARTESIAN_POINT ( 'NONE',  ( -8.649999999999998579, -23.34828442116732106, 24.45000000000000639 ) ) ;
#400 = VERTEX_POINT ( 'NONE', #482 ) ;
#401 = CARTESIAN_POINT ( 'NONE',  ( -68.25100000000000477, -53.34828442116733527, 8.673617379884035472E-15 ) ) ;
#402 = DIRECTION ( 'NONE',  ( -1.133931675732061699E-16, 0.3940327209102236217, -0.9190964121636455708 ) ) ;
#403 = ORIENTED_EDGE ( 'NONE', *, *, #363, .T. ) ;
#404 = DIRECTION ( 'NONE',  ( 1.000000000000000000, 2.877760184770077725E-16, -0.000000000000000000 ) ) ;
#405 = VERTEX_POINT ( 'NONE', #1058 ) ;
#406 = DIRECTION ( 'NONE',  ( -1.000000000000000000, -2.877760184770077725E-16, 0.000000000000000000 ) ) ;
#407 = VECTOR ( 'NONE', #1136, 1000.000000000000000 ) ;
#408 = VECTOR ( 'NONE', #402, 999.9999999999998863 ) ;
#409 = FILL_AREA_STYLE ('',( #780 ) ) ;
#410 = ORIENTED_EDGE ( 'NONE', *, *, #1100, .F. ) ;
#411 = EDGE_CURVE ( 'NONE', #962, #274, #1107, .T. ) ;
#412 = PLANE ( 'NONE',  #436 ) ;
#413 = VERTEX_POINT ( 'NONE', #1154 ) ;
#414 = CARTESIAN_POINT ( 'NONE',  ( -4.550000000000005151, -23.34828442116731750, -9.616917401453875414 ) ) ;
#415 = ORIENTED_EDGE ( 'NONE', *, *, #1149, .F. ) ;
#416 = EDGE_CURVE ( 'NONE', #360, #228, #766, .T. ) ;
#417 = VERTEX_POINT ( 'NONE', #950 ) ;
#418 = FACE_OUTER_BOUND ( 'NONE', #293, .T. ) ;
#419 = AXIS2_PLACEMENT_3D ( 'NONE', #188, #445, #73 ) ;
#420 = DIRECTION ( 'NONE',  ( -1.000000000000000000, -2.877760184770077725E-16, -0.000000000000000000 ) ) ;
#421 = ORIENTED_EDGE ( 'NONE', *, *, #4, .F. ) ;
#422 = VERTEX_POINT ( 'NONE', #118 ) ;
#423 = PLANE ( 'NONE',  #1079 ) ;
#424 = EDGE_CURVE ( 'NONE', #645, #405, #489, .T. ) ;
#425 = LINE ( 'NONE', #1088, #595 ) ;
#426 = ORIENTED_EDGE ( 'NONE', *, *, #11, .T. ) ;
#427 = VECTOR ( 'NONE', #88, 1000.000000000000000 ) ;
#428 = ORIENTED_EDGE ( 'NONE', *, *, #306, .T. ) ;
#429 = CARTESIAN_POINT ( 'NONE',  ( -4.749999999999997335, -36.66231780524625350, 26.55000000000000071 ) ) ;
#430 = EDGE_CURVE ( 'NONE', #706, #887, #862, .T. ) ;
#431 = DIRECTION ( 'NONE',  ( 1.000000000000000000, 2.877760184770077725E-16, -0.000000000000000000 ) ) ;
#432 = ORIENTED_EDGE ( 'NONE', *, *, #38, .T. ) ;
#433 = CARTESIAN_POINT ( 'NONE',  ( -68.25100000000000477, -1.184575394200661497E-14, -12.49999999999998224 ) ) ;
#434 = VECTOR ( 'NONE', #1181, 1000.000000000000000 ) ;
#435 = FACE_OUTER_BOUND ( 'NONE', #330, .T. ) ;
#436 = AXIS2_PLACEMENT_3D ( 'NONE', #844, #121, #494 ) ;
#437 = LINE ( 'NONE', #981, #562 ) ;
#438 = LINE ( 'NONE', #84, #479 ) ;
#439 = CARTESIAN_POINT ( 'NONE',  ( -68.25100000000000477, -42.04685710750737826, 18.02622368288012566 ) ) ;
#440 = DIRECTION ( 'NONE',  ( -2.877760184770077725E-16, 1.000000000000000000, 0.000000000000000000 ) ) ;
#441 = VECTOR ( 'NONE', #192, 1000.000000000000000 ) ;
#442 = ORIENTED_EDGE ( 'NONE', *, *, #125, .T. ) ;
#443 = EDGE_CURVE ( 'NONE', #567, #205, #311, .T. ) ;
#444 = ORIENTED_EDGE ( 'NONE', *, *, #600, .F. ) ;
#445 = DIRECTION ( 'NONE',  ( -2.644939060889569761E-16, 0.9190964121636460149, 0.3940327209102227335 ) ) ;
#446 = LINE ( 'NONE', #1165, #122 ) ;
#447 = ORIENTED_EDGE ( 'NONE', *, *, #159, .T. ) ;
#448 = EDGE_CURVE ( 'NONE', #183, #72, #1128, .T. ) ;
#449 = DIRECTION ( 'NONE',  ( -0.000000000000000000, 0.000000000000000000, -1.000000000000000000 ) ) ;
#450 = CARTESIAN_POINT ( 'NONE',  ( -5.400000000000002132, -23.34828442116731750, 27.20000000000000284 ) ) ;
#451 = DIRECTION ( 'NONE',  ( 1.000000000000000000, 2.877760184770077725E-16, 0.000000000000000000 ) ) ;
#452 = VECTOR ( 'NONE', #210, 1000.000000000000000 ) ;
#453 = VECTOR ( 'NONE', #582, 1000.000000000000000 ) ;
#454 = LINE ( 'NONE', #365, #605 ) ;
#455 = VERTEX_POINT ( 'NONE', #141 ) ;
#456 = CARTESIAN_POINT ( 'NONE',  ( -8.649999999999998579, -23.34828442116732106, -28.05000000000000426 ) ) ;
#457 = CARTESIAN_POINT ( 'NONE',  ( -0.7499999999999937828, -36.66231780524624639, 28.05000000000000071 ) ) ;
#458 = DIRECTION ( 'NONE',  ( 1.000000000000000000, 2.877760184770077725E-16, -0.000000000000000000 ) ) ;
#459 = ADVANCED_FACE ( 'NONE', ( #986 ), #350, .F. ) ;
#460 = LINE ( 'NONE', #828, #54 ) ;
#461 = CIRCLE ( 'NONE', #963, 7.100000000000000533 ) ;
#462 = AXIS2_PLACEMENT_3D ( 'NONE', #42, #420, #773 ) ;
#463 = CARTESIAN_POINT ( 'NONE',  ( -8.649999999999998579, -16.85999999999956245, -12.49999999999865885 ) ) ;
#464 = DIRECTION ( 'NONE',  ( 0.000000000000000000, 0.000000000000000000, 1.000000000000000000 ) ) ;
#465 = CARTESIAN_POINT ( 'NONE',  ( -4.749999999999997335, -53.34828442116731395, -7.099999999999991651 ) ) ;
#466 = EDGE_CURVE ( 'NONE', #390, #44, #341, .T. ) ;
#467 = CARTESIAN_POINT ( 'NONE',  ( -4.749999999999997335, -36.66231780524625350, -28.05000000000000071 ) ) ;
#468 = EDGE_LOOP ( 'NONE', ( #977, #588, #998, #845 ) ) ;
#469 = CARTESIAN_POINT ( 'NONE',  ( -0.7499999999999937828, -39.24999999999997158, 24.54999999999999716 ) ) ;
#470 = CARTESIAN_POINT ( 'NONE',  ( -4.750000000000004441, -34.35000000000005826, 28.05000000000000071 ) ) ;
#471 = CARTESIAN_POINT ( 'NONE',  ( -4.749999999999997335, -44.41604593830443548, 12.50000000000000711 ) ) ;
#472 = VERTEX_POINT ( 'NONE', #635 ) ;
#473 = PLANE ( 'NONE',  #1035 ) ;
#474 = ORIENTED_EDGE ( 'NONE', *, *, #19, .F. ) ;
#475 = LINE ( 'NONE', #1153, #744 ) ;
#476 = CARTESIAN_POINT ( 'NONE',  ( -5.400000000000009237, 3.813032244820349498E-15, -24.55000000000000426 ) ) ;
#477 = VERTEX_POINT ( 'NONE', #719 ) ;
#478 = EDGE_CURVE ( 'NONE', #1077, #385, #335, .T. ) ;
#479 = VECTOR ( 'NONE', #449, 1000.000000000000000 ) ;
#480 = ORIENTED_EDGE ( 'NONE', *, *, #834, .T. ) ;
#481 = LINE ( 'NONE', #949, #955 ) ;
#482 = CARTESIAN_POINT ( 'NONE',  ( -4.550000000000005151, -23.34828442116731750, -15.38308259854344406 ) ) ;
#483 = ORIENTED_EDGE ( 'NONE', *, *, #107, .F. ) ;
#484 = CARTESIAN_POINT ( 'NONE',  ( -8.649999999999998579, -16.85999999999955890, -5.399999999998658318 ) ) ;
#485 = PLANE ( 'NONE',  #300 ) ;
#486 = EDGE_CURVE ( 'NONE', #169, #221, #723, .T. ) ;
#487 = ORIENTED_EDGE ( 'NONE', *, *, #983, .T. ) ;
#488 = FACE_BOUND ( 'NONE', #214, .T. ) ;
#489 = LINE ( 'NONE', #35, #1047 ) ;
#490 = ORIENTED_EDGE ( 'NONE', *, *, #1133, .T. ) ;
#491 = AXIS2_PLACEMENT_3D ( 'NONE', #1113, #91, #738 ) ;
#492 = DIRECTION ( 'NONE',  ( -1.000000000000000000, -2.877760184770077725E-16, -0.000000000000000000 ) ) ;
#493 = VECTOR ( 'NONE', #597, 1000.000000000000000 ) ;
#494 = DIRECTION ( 'NONE',  ( 0.000000000000000000, 0.000000000000000000, 1.000000000000000000 ) ) ;
#495 = ORIENTED_EDGE ( 'NONE', *, *, #319, .T. ) ;
#496 = CARTESIAN_POINT ( 'NONE',  ( -4.550000000000005151, -16.85999999999955890, -19.59999999999865494 ) ) ;
#497 = EDGE_CURVE ( 'NONE', #1086, #967, #886, .T. ) ;
#498 = DIRECTION ( 'NONE',  ( -1.000000000000000000, -2.877760184770077725E-16, 0.000000000000000000 ) ) ;
#499 = ORIENTED_EDGE ( 'NONE', *, *, #254, .T. ) ;
#500 = CARTESIAN_POINT ( 'NONE',  ( -4.550000000000005151, -16.85999999999955890, -12.49999999999865885 ) ) ;
#501 = ORIENTED_EDGE ( 'NONE', *, *, #215, .T. ) ;
#502 = CARTESIAN_POINT ( 'NONE',  ( -6.349987999999997079, -16.85999999999955890, -19.59999999999865494 ) ) ;
#503 = VECTOR ( 'NONE', #299, 1000.000000000000000 ) ;
#504 = VECTOR ( 'NONE', #902, 1000.000000000000000 ) ;
#505 =( NAMED_UNIT ( * ) PLANE_ANGLE_UNIT ( ) SI_UNIT ( $, .RADIAN. ) );
#506 = ORIENTED_EDGE ( 'NONE', *, *, #968, .T. ) ;
#507 = EDGE_CURVE ( 'NONE', #93, #567, #810, .T. ) ;
#508 = ORIENTED_EDGE ( 'NONE', *, *, #443, .T. ) ;
#509 = DIRECTION ( 'NONE',  ( 1.000000000000000000, 2.877760184770077725E-16, -0.000000000000000000 ) ) ;
#510 = EDGE_LOOP ( 'NONE', ( #700, #951, #768, #1109, #678, #542, #594, #868 ) ) ;
#511 = VECTOR ( 'NONE', #657, 1000.000000000000000 ) ;
#512 = ORIENTED_EDGE ( 'NONE', *, *, #1188, .T. ) ;
#513 = FACE_OUTER_BOUND ( 'NONE', #781, .T. ) ;
#514 = CARTESIAN_POINT ( 'NONE',  ( -4.749999999999997335, -39.24999999999997868, 24.55000000000000071 ) ) ;
#515 = VERTEX_POINT ( 'NONE', #1094 ) ;
#516 = EDGE_CURVE ( 'NONE', #1071, #872, #898, .T. ) ;
#517 = VERTEX_POINT ( 'NONE', #611 ) ;
#518 = CARTESIAN_POINT ( 'NONE',  ( -4.750000000000004441, -34.35000000000005826, -26.55000000000000071 ) ) ;
#519 = PRESENTATION_LAYER_ASSIGNMENT (  '', '', ( #522 ) ) ;
#520 = DIRECTION ( 'NONE',  ( 0.000000000000000000, 0.000000000000000000, 1.000000000000000000 ) ) ;
#521 = ORIENTED_EDGE ( 'NONE', *, *, #1009, .T. ) ;
#522 = STYLED_ITEM ( 'NONE', ( #698 ), #348 ) ;
#523 = PRODUCT_CONTEXT ( 'NONE', #132, 'mechanical' ) ;
#524 = VERTEX_POINT ( 'NONE', #994 ) ;
#525 = DIRECTION ( 'NONE',  ( 5.590277884380747453E-32, -1.942579480377163370E-16, 1.000000000000000000 ) ) ;
#526 = DIRECTION ( 'NONE',  ( 0.7071067811865472397, 0.7071067811865477948, -0.000000000000000000 ) ) ;
#527 = DIRECTION ( 'NONE',  ( -0.000000000000000000, 0.000000000000000000, -1.000000000000000000 ) ) ;
#528 = ORIENTED_EDGE ( 'NONE', *, *, #644, .F. ) ;
#529 = CARTESIAN_POINT ( 'NONE',  ( -4.749999999999997335, -39.24999999999997868, -24.55000000000000071 ) ) ;
#530 = VECTOR ( 'NONE', #640, 999.9999999999998863 ) ;
#531 = CARTESIAN_POINT ( 'NONE',  ( -68.25100000000000477, -44.41604593830444969, 12.50000000000000711 ) ) ;
#532 = VECTOR ( 'NONE', #824, 1000.000000000000000 ) ;
#533 = ADVANCED_FACE ( 'NONE', ( #167 ), #155, .T. ) ;
#534 = FACE_OUTER_BOUND ( 'NONE', #914, .T. ) ;
#535 = ORIENTED_EDGE ( 'NONE', *, *, #115, .T. ) ;
#536 = EDGE_LOOP ( 'NONE', ( #200, #13, #66, #927, #771, #175, #343, #48, #1082 ) ) ;
#537 = DIRECTION ( 'NONE',  ( -0.000000000000000000, 0.000000000000000000, -1.000000000000000000 ) ) ;
#538 = DIRECTION ( 'NONE',  ( -2.877760184770077725E-16, 1.000000000000000000, 0.000000000000000000 ) ) ;
#539 = DIRECTION ( 'NONE',  ( -1.000000000000000000, -2.877760184770077725E-16, 0.000000000000000000 ) ) ;
#540 = AXIS2_PLACEMENT_3D ( 'NONE', #65, #710, #729 ) ;
#541 = EDGE_CURVE ( 'NONE', #761, #366, #244, .T. ) ;
#542 = ORIENTED_EDGE ( 'NONE', *, *, #802, .F. ) ;
#543 = CARTESIAN_POINT ( 'NONE',  ( -7.799999999999998046, -23.34828442116732106, -24.45000000000000639 ) ) ;
#544 = FACE_OUTER_BOUND ( 'NONE', #759, .T. ) ;
#545 = CARTESIAN_POINT ( 'NONE',  ( -5.350000000000000533, -38.02177948580123257, -27.18392739261104651 ) ) ;
#546 = ORIENTED_EDGE ( 'NONE', *, *, #1038, .T. ) ;
#547 = ADVANCED_FACE ( 'NONE', ( #435 ), #806, .T. ) ;
#548 = EDGE_CURVE ( 'NONE', #1062, #228, #446, .T. ) ;
#549 = CARTESIAN_POINT ( 'NONE',  ( -7.799999999999998046, -23.34828442116732106, -27.20000000000000284 ) ) ;
#550 = DIRECTION ( 'NONE',  ( 1.000000000000000000, 2.877760184770077725E-16, 0.000000000000000000 ) ) ;
#551 = VECTOR ( 'NONE', #893, 1000.000000000000000 ) ;
#552 = CARTESIAN_POINT ( 'NONE',  ( -7.799999999999998046, -23.34828442116732106, 27.20000000000000284 ) ) ;
#553 = VECTOR ( 'NONE', #1076, 1000.000000000000000 ) ;
#554 = AXIS2_PLACEMENT_3D ( 'NONE', #450, #464, #275 ) ;
#555 = DIRECTION ( 'NONE',  ( -2.443272501375784959E-16, 1.000000000000000000, 0.000000000000000000 ) ) ;
#556 = VERTEX_POINT ( 'NONE', #52 ) ;
#557 = ORIENTED_EDGE ( 'NONE', *, *, #1081, .F. ) ;
#558 = CARTESIAN_POINT ( 'NONE',  ( -5.400000000000002132, -23.34828442116731750, -24.55000000000000426 ) ) ;
#559 = EDGE_CURVE ( 'NONE', #72, #205, #329, .T. ) ;
#560 = FACE_OUTER_BOUND ( 'NONE', #318, .T. ) ;
#561 = DIRECTION ( 'NONE',  ( 0.000000000000000000, 0.000000000000000000, -1.000000000000000000 ) ) ;
#562 = VECTOR ( 'NONE', #267, 999.9999999999998863 ) ;
#563 = ORIENTED_EDGE ( 'NONE', *, *, #892, .F. ) ;
#564 = PLANE ( 'NONE',  #554 ) ;
#565 = CARTESIAN_POINT ( 'NONE',  ( -0.7499999999999937828, -53.34828442116731395, 7.100000000000010303 ) ) ;
#566 = DIRECTION ( 'NONE',  ( -2.877760184770077725E-16, 1.000000000000000000, 0.000000000000000000 ) ) ;
#567 = VERTEX_POINT ( 'NONE', #979 ) ;
#568 =( NAMED_UNIT ( * ) PLANE_ANGLE_UNIT ( ) SI_UNIT ( $, .RADIAN. ) );
#569 = VERTEX_POINT ( 'NONE', #345 ) ;
#570 = CARTESIAN_POINT ( 'NONE',  ( -4.550000000000005151, -23.34828442116731750, -9.616917401453875414 ) ) ;
#571 = CARTESIAN_POINT ( 'NONE',  ( -68.25100000000000477, -53.34828442116733527, 8.673617379884035472E-15 ) ) ;
#572 = ORIENTED_EDGE ( 'NONE', *, *, #159, .F. ) ;
#573 = EDGE_CURVE ( 'NONE', #93, #417, #425, .T. ) ;
#574 = VECTOR ( 'NONE', #727, 1000.000000000000000 ) ;
#575 =( GEOMETRIC_REPRESENTATION_CONTEXT ( 3 ) GLOBAL_UNCERTAINTY_ASSIGNED_CONTEXT ( ( #137 ) ) GLOBAL_UNIT_ASSIGNED_CONTEXT ( ( #194, #568, #12 ) ) REPRESENTATION_CONTEXT ( 'NONE', 'WORKASPACE' ) );
#576 = FACE_OUTER_BOUND ( 'NONE', #829, .T. ) ;
#577 = ORIENTED_EDGE ( 'NONE', *, *, #144, .T. ) ;
#578 = DIRECTION ( 'NONE',  ( -1.000000000000000000, -2.877760184770077725E-16, 0.000000000000000000 ) ) ;
#579 = FACE_OUTER_BOUND ( 'NONE', #392, .T. ) ;
#580 = ORIENTED_EDGE ( 'NONE', *, *, #29, .T. ) ;
#581 = ADVANCED_FACE ( 'NONE', ( #257 ), #1070, .F. ) ;
#582 = DIRECTION ( 'NONE',  ( 2.877760184770077725E-16, -1.000000000000000000, 0.000000000000000000 ) ) ;
#583 = AXIS2_PLACEMENT_3D ( 'NONE', #272, #180, #555 ) ;
#584 = ORIENTED_EDGE ( 'NONE', *, *, #1170, .F. ) ;
#585 = AXIS2_PLACEMENT_3D ( 'NONE', #601, #1146, #220 ) ;
#586 = DIRECTION ( 'NONE',  ( -1.000000000000000000, -2.877760184770077725E-16, 0.000000000000000000 ) ) ;
#587 = DIRECTION ( 'NONE',  ( -0.000000000000000000, 0.000000000000000000, -1.000000000000000000 ) ) ;
#588 = ORIENTED_EDGE ( 'NONE', *, *, #649, .T. ) ;
#589 = CARTESIAN_POINT ( 'NONE',  ( -7.799999999999998046, -23.34828442116732106, 27.20000000000000284 ) ) ;
#590 = ADVANCED_FACE ( 'NONE', ( #560 ), #1019, .T. ) ;
#591 = ORIENTED_EDGE ( 'NONE', *, *, #1046, .T. ) ;
#592 = DIRECTION ( 'NONE',  ( -1.438880092385038863E-16, 1.000000000000000000, 0.000000000000000000 ) ) ;
#593 = DIRECTION ( 'NONE',  ( 0.000000000000000000, 0.000000000000000000, 1.000000000000000000 ) ) ;
#594 = ORIENTED_EDGE ( 'NONE', *, *, #682, .F. ) ;
#595 = VECTOR ( 'NONE', #431, 1000.000000000000000 ) ;
#596 = VECTOR ( 'NONE', #307, 1000.000000000000000 ) ;
#597 = DIRECTION ( 'NONE',  ( 1.000000000000000000, 2.877760184770077725E-16, -0.000000000000000000 ) ) ;
#598 = ORIENTED_EDGE ( 'NONE', *, *, #825, .T. ) ;
#599 = FACE_OUTER_BOUND ( 'NONE', #1161, .T. ) ;
#600 = EDGE_CURVE ( 'NONE', #872, #1056, #923, .T. ) ;
#601 = CARTESIAN_POINT ( 'NONE',  ( -6.349987999999997079, -16.85999999999955890, -12.49999999999865885 ) ) ;
#602 = ORIENTED_EDGE ( 'NONE', *, *, #206, .T. ) ;
#603 = ORIENTED_EDGE ( 'NONE', *, *, #266, .F. ) ;
#604 = CARTESIAN_POINT ( 'NONE',  ( -68.25100000000000477, -39.25000000000001421, -24.55000000000000071 ) ) ;
#605 = VECTOR ( 'NONE', #1108, 1000.000000000000000 ) ;
#606 = ADVANCED_FACE ( 'NONE', ( #929, #276 ), #1191, .T. ) ;
#607 = CARTESIAN_POINT ( 'NONE',  ( -37.29999999999999716, -5.367022744596195206E-15, 24.55000000000000426 ) ) ;
#608 = ORIENTED_EDGE ( 'NONE', *, *, #115, .F. ) ;
#609 = ORIENTED_EDGE ( 'NONE', *, *, #1072, .T. ) ;
#610 = CARTESIAN_POINT ( 'NONE',  ( -8.649999999999995026, -30.45000000000000284, -28.05000000000000071 ) ) ;
#611 = CARTESIAN_POINT ( 'NONE',  ( -4.749999999999997335, -53.34828442116731395, 7.100000000000009415 ) ) ;
#612 = ORIENTED_EDGE ( 'NONE', *, *, #363, .F. ) ;
#613 = EDGE_CURVE ( 'NONE', #1066, #556, #398, .T. ) ;
#614 = AXIS2_PLACEMENT_3D ( 'NONE', #1164, #344, #988 ) ;
#615 = VECTOR ( 'NONE', #550, 1000.000000000000000 ) ;
#616 = VERTEX_POINT ( 'NONE', #919 ) ;
#617 = FACE_OUTER_BOUND ( 'NONE', #98, .T. ) ;
#618 = DIRECTION ( 'NONE',  ( -0.7071067811865477948, 0.7071067811865473507, 0.000000000000000000 ) ) ;
#619 = ORIENTED_EDGE ( 'NONE', *, *, #136, .T. ) ;
#620 = LINE ( 'NONE', #907, #287 ) ;
#621 = ADVANCED_FACE ( 'NONE', ( #647 ), #173, .T. ) ;
#622 = ORIENTED_EDGE ( 'NONE', *, *, #254, .F. ) ;
#623 = DIRECTION ( 'NONE',  ( 0.000000000000000000, 0.000000000000000000, 1.000000000000000000 ) ) ;
#624 = MECHANICAL_DESIGN_GEOMETRIC_PRESENTATION_REPRESENTATION (  '', ( #522 ), #213 ) ;
#625 = CARTESIAN_POINT ( 'NONE',  ( -5.400000000000002132, -23.34828442116731750, 27.20000000000000284 ) ) ;
#626 = VECTOR ( 'NONE', #1159, 1000.000000000000000 ) ;
#627 = ORIENTED_EDGE ( 'NONE', *, *, #807, .T. ) ;
#628 = LINE ( 'NONE', #805, #357 ) ;
#629 = EDGE_CURVE ( 'NONE', #390, #93, #831, .T. ) ;
#630 = DIRECTION ( 'NONE',  ( 0.000000000000000000, 0.000000000000000000, 1.000000000000000000 ) ) ;
#631 = EDGE_LOOP ( 'NONE', ( #305, #812, #965, #730 ) ) ;
#632 = CARTESIAN_POINT ( 'NONE',  ( -4.749999999999997335, -53.34604593830443520, -12.49999999999999289 ) ) ;
#633 = VECTOR ( 'NONE', #229, 1000.000000000000000 ) ;
#634 = EDGE_CURVE ( 'NONE', #811, #903, #733, .T. ) ;
#635 = CARTESIAN_POINT ( 'NONE',  ( -4.750000000000004441, -34.35000000000005826, -28.05000000000000071 ) ) ;
#636 = VECTOR ( 'NONE', #270, 1000.000000000000000 ) ;
#637 = ORIENTED_EDGE ( 'NONE', *, *, #107, .T. ) ;
#638 = VERTEX_POINT ( 'NONE', #465 ) ;
#639 = LINE ( 'NONE', #813, #163 ) ;
#640 = DIRECTION ( 'NONE',  ( -0.7071067811865420216, 0.7071067811865531239, 0.000000000000000000 ) ) ;
#641 = CARTESIAN_POINT ( 'NONE',  ( -0.7499999999999937828, -39.24999999999998579, -24.55000000000000071 ) ) ;
#642 = AXIS2_PLACEMENT_3D ( 'NONE', #913, #9, #822 ) ;
#643 = EDGE_LOOP ( 'NONE', ( #535, #1121, #1044, #980 ) ) ;
#644 = EDGE_CURVE ( 'NONE', #1179, #285, #376, .T. ) ;
#645 = VERTEX_POINT ( 'NONE', #470 ) ;
#646 = CARTESIAN_POINT ( 'NONE',  ( -0.7499999999999937828, -38.02177948580122546, -27.18392739261104651 ) ) ;
#647 = FACE_OUTER_BOUND ( 'NONE', #326, .T. ) ;
#648 = CARTESIAN_POINT ( 'NONE',  ( -7.799999999999998046, -23.34828442116732106, -24.45000000000000639 ) ) ;
#649 = EDGE_CURVE ( 'NONE', #477, #235, #265, .T. ) ;
#650 = LINE ( 'NONE', #269, #905 ) ;
#651 = LINE ( 'NONE', #1118, #381 ) ;
#652 = CARTESIAN_POINT ( 'NONE',  ( -68.25100000000000477, -53.34604593830444941, 1.040834085586084257E-14 ) ) ;
#653 = VECTOR ( 'NONE', #96, 1000.000000000000114 ) ;
#654 = CYLINDRICAL_SURFACE ( 'NONE', #367, 7.099999999999998757 ) ;
#655 = CARTESIAN_POINT ( 'NONE',  ( -0.7499999999999937828, -38.02177948580122546, 27.18392739261104651 ) ) ;
#656 = CARTESIAN_POINT ( 'NONE',  ( -4.550000000000005151, -23.34828442116731750, -28.05000000000000071 ) ) ;
#657 = DIRECTION ( 'NONE',  ( -1.000000000000000000, -2.877760184770077725E-16, 0.000000000000000000 ) ) ;
#658 = CARTESIAN_POINT ( 'NONE',  ( -1.250000000000001110, -26.64828442116734308, -28.05000000000000071 ) ) ;
#659 = ORIENTED_EDGE ( 'NONE', *, *, #38, .F. ) ;
#660 = VECTOR ( 'NONE', #850, 1000.000000000000000 ) ;
#661 = DIRECTION ( 'NONE',  ( 0.000000000000000000, 0.000000000000000000, 1.000000000000000000 ) ) ;
#662 = CARTESIAN_POINT ( 'NONE',  ( -5.400000000000009237, 3.813032244820349498E-15, -27.20000000000000284 ) ) ;
#663 = ORIENTED_EDGE ( 'NONE', *, *, #909, .F. ) ;
#664 = DIRECTION ( 'NONE',  ( -1.000000000000000000, -2.877760184770077725E-16, 0.000000000000000000 ) ) ;
#665 = EDGE_CURVE ( 'NONE', #405, #455, #1101, .T. ) ;
#666 = DIRECTION ( 'NONE',  ( 0.000000000000000000, 0.000000000000000000, -1.000000000000000000 ) ) ;
#667 = ORIENTED_EDGE ( 'NONE', *, *, #507, .F. ) ;
#668 = LINE ( 'NONE', #216, #407 ) ;
#669 = CARTESIAN_POINT ( 'NONE',  ( -37.29999999999999716, -5.367022744596195206E-15, -28.05000000000000071 ) ) ;
#670 = ORIENTED_EDGE ( 'NONE', *, *, #960, .F. ) ;
#671 = LINE ( 'NONE', #322, #917 ) ;
#672 = EDGE_CURVE ( 'NONE', #524, #880, #8, .T. ) ;
#673 = CARTESIAN_POINT ( 'NONE',  ( -4.749999999999997335, -38.02177948580123257, 27.18392739261105007 ) ) ;
#674 = AXIS2_PLACEMENT_3D ( 'NONE', #433, #525, #714 ) ;
#675 = ORIENTED_EDGE ( 'NONE', *, *, #430, .F. ) ;
#676 = CARTESIAN_POINT ( 'NONE',  ( -68.24999999999998579, -39.25000000000001421, 24.54999999999995808 ) ) ;
#677 = DIRECTION ( 'NONE',  ( 0.000000000000000000, 0.000000000000000000, 1.000000000000000000 ) ) ;
#678 = ORIENTED_EDGE ( 'NONE', *, *, #1093, .F. ) ;
#679 = DIRECTION ( 'NONE',  ( 1.000000000000000000, 2.877760184770077725E-16, -0.000000000000000000 ) ) ;
#680 = CARTESIAN_POINT ( 'NONE',  ( -5.400000000000002132, -23.34828442116731750, -27.20000000000000284 ) ) ;
#681 = VERTEX_POINT ( 'NONE', #565 ) ;
#682 = EDGE_CURVE ( 'NONE', #422, #169, #197, .T. ) ;
#683 = VECTOR ( 'NONE', #1198, 1000.000000000000000 ) ;
#684 = LINE ( 'NONE', #24, #453 ) ;
#685 = VERTEX_POINT ( 'NONE', #570 ) ;
#686 = FACE_OUTER_BOUND ( 'NONE', #374, .T. ) ;
#687 = DIRECTION ( 'NONE',  ( 0.000000000000000000, 0.000000000000000000, 1.000000000000000000 ) ) ;
#688 = ORIENTED_EDGE ( 'NONE', *, *, #541, .F. ) ;
#689 = ADVANCED_FACE ( 'NONE', ( #934 ), #826, .T. ) ;
#690 = ORIENTED_EDGE ( 'NONE', *, *, #716, .F. ) ;
#691 = LINE ( 'NONE', #757, #452 ) ;
#692 = DIRECTION ( 'NONE',  ( -0.7071067811865477948, 0.7071067811865473507, 0.000000000000000000 ) ) ;
#693 = EDGE_LOOP ( 'NONE', ( #36, #148, #1155, #428 ) ) ;
#694 = VECTOR ( 'NONE', #679, 1000.000000000000000 ) ;
#695 = VECTOR ( 'NONE', #537, 1000.000000000000000 ) ;
#696 = ORIENTED_EDGE ( 'NONE', *, *, #1055, .T. ) ;
#697 = DIRECTION ( 'NONE',  ( -1.133931675732060713E-16, 0.3940327209102232886, 0.9190964121636456818 ) ) ;
#698 = PRESENTATION_STYLE_ASSIGNMENT (( #1043 ) ) ;
#699 = ORIENTED_EDGE ( 'NONE', *, *, #1064, .T. ) ;
#700 = ORIENTED_EDGE ( 'NONE', *, *, #354, .F. ) ;
#701 = DIRECTION ( 'NONE',  ( -0.000000000000000000, 0.000000000000000000, -1.000000000000000000 ) ) ;
#702 = CIRCLE ( 'NONE', #583, 7.099999999999998757 ) ;
#703 = ADVANCED_FACE ( 'NONE', ( #544 ), #912, .T. ) ;
#704 = CARTESIAN_POINT ( 'NONE',  ( -0.7499999999999937828, -53.34604593830442809, 12.50000000000001243 ) ) ;
#705 = ORIENTED_EDGE ( 'NONE', *, *, #573, .T. ) ;
#706 = VERTEX_POINT ( 'NONE', #1106 ) ;
#707 = DIRECTION ( 'NONE',  ( -1.000000000000000000, -2.877760184770077725E-16, 0.000000000000000000 ) ) ;
#708 = CARTESIAN_POINT ( 'NONE',  ( -0.7499999999999937828, -53.34604593830442809, 1.040834085586084257E-14 ) ) ;
#709 = EDGE_LOOP ( 'NONE', ( #721, #209, #627, #1074 ) ) ;
#710 = DIRECTION ( 'NONE',  ( -1.000000000000000000, -2.877760184770077725E-16, 0.000000000000000000 ) ) ;
#711 = AXIS2_PLACEMENT_3D ( 'NONE', #104, #179, #814 ) ;
#712 = VECTOR ( 'NONE', #369, 1000.000000000000000 ) ;
#713 = ORIENTED_EDGE ( 'NONE', *, *, #559, .F. ) ;
#714 = DIRECTION ( 'NONE',  ( 2.877760184770077725E-16, -1.000000000000000000, -1.942579480377163370E-16 ) ) ;
#715 = DIRECTION ( 'NONE',  ( 0.000000000000000000, 0.000000000000000000, -1.000000000000000000 ) ) ;
#716 = EDGE_CURVE ( 'NONE', #285, #1172, #271, .T. ) ;
#717 = ORIENTED_EDGE ( 'NONE', *, *, #497, .F. ) ;
#718 = CARTESIAN_POINT ( 'NONE',  ( -4.550000000000005151, -23.34828442116731750, -24.55000000000000426 ) ) ;
#719 = CARTESIAN_POINT ( 'NONE',  ( -5.400000000000009237, 3.813032244820349498E-15, 27.20000000000000284 ) ) ;
#720 = ADVANCED_FACE ( 'NONE', ( #1013 ), #185, .F. ) ;
#721 = ORIENTED_EDGE ( 'NONE', *, *, #430, .T. ) ;
#722 = LINE ( 'NONE', #1175, #140 ) ;
#723 = LINE ( 'NONE', #989, #1078 ) ;
#724 = CARTESIAN_POINT ( 'NONE',  ( -4.550000000000005151, -16.85999999999955890, -12.49999999999865885 ) ) ;
#725 = CARTESIAN_POINT ( 'NONE',  ( -7.800000000000005151, 3.122369800475533171E-15, 0.000000000000000000 ) ) ;
#726 = CIRCLE ( 'NONE', #614, 7.100000000000001421 ) ;
#727 = DIRECTION ( 'NONE',  ( 0.000000000000000000, 0.000000000000000000, 1.000000000000000000 ) ) ;
#728 = AXIS2_PLACEMENT_3D ( 'NONE', #301, #677, #208 ) ;
#729 = DIRECTION ( 'NONE',  ( 0.000000000000000000, 0.000000000000000000, -1.000000000000000000 ) ) ;
#730 = ORIENTED_EDGE ( 'NONE', *, *, #288, .T. ) ;
#731 = PLANE ( 'NONE',  #71 ) ;
#732 = LINE ( 'NONE', #1104, #636 ) ;
#733 = LINE ( 'NONE', #1125, #511 ) ;
#734 = ADVANCED_FACE ( 'NONE', ( #599 ), #1132, .F. ) ;
#735 = CARTESIAN_POINT ( 'NONE',  ( -7.799999999999998046, -23.34828442116732106, 24.45000000000000639 ) ) ;
#736 = ORIENTED_EDGE ( 'NONE', *, *, #516, .T. ) ;
#737 = CARTESIAN_POINT ( 'NONE',  ( -0.7500000000000006661, -27.14828442116734308, -28.05000000000000071 ) ) ;
#738 = DIRECTION ( 'NONE',  ( 0.000000000000000000, 0.000000000000000000, 1.000000000000000000 ) ) ;
#739 = CARTESIAN_POINT ( 'NONE',  ( -4.550000000000005151, -23.34828442116731750, -28.05000000000000071 ) ) ;
#740 = PRODUCT_DEFINITION ( 'UNKNOWN', '', #975, #164 ) ;
#741 = VERTEX_POINT ( 'NONE', #496 ) ;
#742 = LINE ( 'NONE', #725, #788 ) ;
#743 = CARTESIAN_POINT ( 'NONE',  ( -5.400000000000009237, 3.813032244820349498E-15, -27.20000000000000284 ) ) ;
#744 = VECTOR ( 'NONE', #586, 1000.000000000000000 ) ;
#745 = LINE ( 'NONE', #920, #427 ) ;
#746 = VERTEX_POINT ( 'NONE', #941 ) ;
#747 = EDGE_CURVE ( 'NONE', #967, #1077, #481, .T. ) ;
#748 = CARTESIAN_POINT ( 'NONE',  ( -0.7499999999999937828, -36.66231780524624639, 26.55000000000000071 ) ) ;
#749 = LINE ( 'NONE', #646, #323 ) ;
#750 = DIRECTION ( 'NONE',  ( 1.000000000000000000, 2.877760184770077725E-16, -0.000000000000000000 ) ) ;
#751 = LINE ( 'NONE', #471, #268 ) ;
#752 = ORIENTED_EDGE ( 'NONE', *, *, #342, .T. ) ;
#753 = CIRCLE ( 'NONE', #540, 7.100000000000000533 ) ;
#754 = CARTESIAN_POINT ( 'NONE',  ( -4.550000000000012257, -23.34828442116731750, -28.05000000000000071 ) ) ;
#755 = ADVANCED_FACE ( 'NONE', ( #686 ), #959, .T. ) ;
#756 = EDGE_LOOP ( 'NONE', ( #258, #580, #790, #242, #116, #659 ) ) ;
#757 = CARTESIAN_POINT ( 'NONE',  ( -8.649999999999998579, -20.61213394580206781, 28.05000000000000071 ) ) ;
#758 = LINE ( 'NONE', #105, #441 ) ;
#759 = EDGE_LOOP ( 'NONE', ( #227, #1037, #1166, #487 ) ) ;
#760 = DIRECTION ( 'NONE',  ( -0.7071067811865462405, 0.7071067811865489050, -0.000000000000000000 ) ) ;
#761 = VERTEX_POINT ( 'NONE', #873 ) ;
#762 = EDGE_CURVE ( 'NONE', #1056, #422, #475, .T. ) ;
#763 = DIRECTION ( 'NONE',  ( -1.000000000000000000, -2.877760184770077725E-16, 0.000000000000000000 ) ) ;
#764 = VECTOR ( 'NONE', #1084, 1000.000000000000000 ) ;
#765 = EDGE_CURVE ( 'NONE', #1147, #108, #954, .T. ) ;
#766 = LINE ( 'NONE', #867, #234 ) ;
#767 = VECTOR ( 'NONE', #623, 1000.000000000000000 ) ;
#768 = ORIENTED_EDGE ( 'NONE', *, *, #328, .T. ) ;
#769 = CARTESIAN_POINT ( 'NONE',  ( -5.400000000000002132, -23.34828442116731750, 24.55000000000000426 ) ) ;
#770 = FACE_OUTER_BOUND ( 'NONE', #784, .T. ) ;
#771 = ORIENTED_EDGE ( 'NONE', *, *, #373, .T. ) ;
#772 = CARTESIAN_POINT ( 'NONE',  ( -4.550000000000005151, -23.34828442116731750, -9.616917401453875414 ) ) ;
#773 = DIRECTION ( 'NONE',  ( 0.000000000000000000, 0.000000000000000000, 1.000000000000000000 ) ) ;
#774 = ORIENTED_EDGE ( 'NONE', *, *, #915, .T. ) ;
#775 = ADVANCED_FACE ( 'NONE', ( #130, #488 ), #109, .T. ) ;
#776 = DIRECTION ( 'NONE',  ( 0.000000000000000000, 0.000000000000000000, 1.000000000000000000 ) ) ;
#777 = DIRECTION ( 'NONE',  ( -1.000000000000000000, -2.877760184770077725E-16, 0.000000000000000000 ) ) ;
#778 = EDGE_LOOP ( 'NONE', ( #495, #432 ) ) ;
#779 = DIRECTION ( 'NONE',  ( -0.7071067811865487940, -0.7071067811865462405, 0.000000000000000000 ) ) ;
#780 = FILL_AREA_STYLE_COLOUR ( '', #1045 ) ;
#781 = EDGE_LOOP ( 'NONE', ( #877, #1022, #501, #325 ) ) ;
#782 = EDGE_CURVE ( 'NONE', #400, #685, #991, .T. ) ;
#783 = CARTESIAN_POINT ( 'NONE',  ( -68.25100000000000477, -53.34604593830444941, 12.50000000000001243 ) ) ;
#784 = EDGE_LOOP ( 'NONE', ( #396, #699, #997, #444 ) ) ;
#785 = LINE ( 'NONE', #604, #694 ) ;
#786 = ORIENTED_EDGE ( 'NONE', *, *, #29, .F. ) ;
#787 = CIRCLE ( 'NONE', #882, 1.500000000000004885 ) ;
#788 = VECTOR ( 'NONE', #1012, 1000.000000000000000 ) ;
#789 = EDGE_CURVE ( 'NONE', #741, #1068, #846, .T. ) ;
#790 = ORIENTED_EDGE ( 'NONE', *, *, #782, .F. ) ;
#791 = CARTESIAN_POINT ( 'NONE',  ( -4.550000000000005151, -16.85999999999955890, -12.49999999999865885 ) ) ;
#792 = DIRECTION ( 'NONE',  ( 1.000000000000000000, 2.877760184770077725E-16, -0.000000000000000000 ) ) ;
#793 = ORIENTED_EDGE ( 'NONE', *, *, #198, .F. ) ;
#794 = ORIENTED_EDGE ( 'NONE', *, *, #239, .F. ) ;
#795 = LINE ( 'NONE', #139, #767 ) ;
#796 = EDGE_CURVE ( 'NONE', #887, #302, #785, .T. ) ;
#797 = CARTESIAN_POINT ( 'NONE',  ( -7.799999999999998046, -23.34828442116732106, -27.20000000000000284 ) ) ;
#798 = ORIENTED_EDGE ( 'NONE', *, *, #909, .T. ) ;
#799 = ORIENTED_EDGE ( 'NONE', *, *, #747, .F. ) ;
#800 = DIRECTION ( 'NONE',  ( 0.7071067811865472397, 0.7071067811865477948, -0.000000000000000000 ) ) ;
#801 = DIRECTION ( 'NONE',  ( -1.000000000000000000, -2.877760184770077725E-16, -0.000000000000000000 ) ) ;
#802 = EDGE_CURVE ( 'NONE', #169, #455, #691, .T. ) ;
#803 = VECTOR ( 'NONE', #664, 1000.000000000000000 ) ;
#804 = ORIENTED_EDGE ( 'NONE', *, *, #765, .T. ) ;
#805 = CARTESIAN_POINT ( 'NONE',  ( -0.7499999999999937828, -44.41604593830442838, -12.49999999999999112 ) ) ;
#806 = PLANE ( 'NONE',  #1193 ) ;
#807 = EDGE_CURVE ( 'NONE', #302, #1189, #860, .T. ) ;
#808 = FACE_OUTER_BOUND ( 'NONE', #631, .T. ) ;
#809 = CARTESIAN_POINT ( 'NONE',  ( -4.749999999999997335, -36.66231780524625350, 28.05000000000000071 ) ) ;
#810 = LINE ( 'NONE', #514, #553 ) ;
#811 = VERTEX_POINT ( 'NONE', #1158 ) ;
#812 = ORIENTED_EDGE ( 'NONE', *, *, #559, .T. ) ;
#813 = CARTESIAN_POINT ( 'NONE',  ( -5.400000000000002132, -23.34828442116731750, 27.20000000000000284 ) ) ;
#814 = DIRECTION ( 'NONE',  ( 0.000000000000000000, 0.000000000000000000, 1.000000000000000000 ) ) ;
#815 = ORIENTED_EDGE ( 'NONE', *, *, #1055, .F. ) ;
#816 = DIRECTION ( 'NONE',  ( -2.877760184770077725E-16, 1.000000000000000000, 0.000000000000000000 ) ) ;
#817 = AXIS2_PLACEMENT_3D ( 'NONE', #1057, #393, #578 ) ;
#818 = CARTESIAN_POINT ( 'NONE',  ( -0.7499999999999937828, -53.34828442116731395, -7.099999999999993427 ) ) ;
#819 = EDGE_CURVE ( 'NONE', #205, #417, #671, .T. ) ;
#820 = AXIS2_PLACEMENT_3D ( 'NONE', #830, #922, #1206 ) ;
#821 = DIRECTION ( 'NONE',  ( 0.000000000000000000, 0.000000000000000000, 1.000000000000000000 ) ) ;
#822 = DIRECTION ( 'NONE',  ( 0.000000000000000000, 0.000000000000000000, 1.000000000000000000 ) ) ;
#823 = ORIENTED_EDGE ( 'NONE', *, *, #924, .F. ) ;
#824 = DIRECTION ( 'NONE',  ( -2.877760184770077725E-16, 1.000000000000000000, 0.000000000000000000 ) ) ;
#825 = EDGE_CURVE ( 'NONE', #685, #238, #1063, .T. ) ;
#826 = PLANE ( 'NONE',  #711 ) ;
#827 = CIRCLE ( 'NONE', #925, 7.099999999999996980 ) ;
#828 = CARTESIAN_POINT ( 'NONE',  ( -8.649999999999998579, -23.34828442116732106, -28.05000000000000426 ) ) ;
#829 = EDGE_LOOP ( 'NONE', ( #129, #786, #603, #823, #815, #40, #193, #572 ) ) ;
#830 = CARTESIAN_POINT ( 'NONE',  ( -4.550000000000005151, -23.34828442116731750, -24.55000000000000426 ) ) ;
#831 = LINE ( 'NONE', #364, #653 ) ;
#832 = LINE ( 'NONE', #607, #211 ) ;
#833 = ORIENTED_EDGE ( 'NONE', *, *, #672, .F. ) ;
#834 = EDGE_CURVE ( 'NONE', #238, #76, #309, .T. ) ;
#835 = LINE ( 'NONE', #168, #1183 ) ;
#836 = CARTESIAN_POINT ( 'NONE',  ( -7.799999999999998046, -23.34828442116732106, 24.45000000000000639 ) ) ;
#837 = DIRECTION ( 'NONE',  ( 0.000000000000000000, 0.000000000000000000, 1.000000000000000000 ) ) ;
#838 = CIRCLE ( 'NONE', #1137, 7.099999999999996980 ) ;
#839 = VECTOR ( 'NONE', #1201, 1000.000000000000000 ) ;
#840 = LINE ( 'NONE', #467, #683 ) ;
#841 = ORIENTED_EDGE ( 'NONE', *, *, #960, .T. ) ;
#842 = ADVANCED_FACE ( 'NONE', ( #14, #388 ), #219, .T. ) ;
#843 = CARTESIAN_POINT ( 'NONE',  ( -38.20000000000003126, -0.9000000000000413225, -28.05000000000000071 ) ) ;
#844 = CARTESIAN_POINT ( 'NONE',  ( -5.400000000000002132, -23.34828442116731750, 27.20000000000000284 ) ) ;
#845 = ORIENTED_EDGE ( 'NONE', *, *, #516, .F. ) ;
#846 = LINE ( 'NONE', #502, #1117 ) ;
#847 = DIRECTION ( 'NONE',  ( 0.000000000000000000, 0.000000000000000000, 1.000000000000000000 ) ) ;
#848 = EDGE_LOOP ( 'NONE', ( #622, #162, #865, #972 ) ) ;
#849 = VECTOR ( 'NONE', #248, 1000.000000000000000 ) ;
#850 = DIRECTION ( 'NONE',  ( 0.7071067811865477948, -0.7071067811865473507, 0.000000000000000000 ) ) ;
#851 = APPLICATION_PROTOCOL_DEFINITION ( 'draft international standard', 'automotive_design', 1998, #132 ) ;
#852 = ADVANCED_FACE ( 'NONE', ( #339 ), #890, .T. ) ;
#853 = ORIENTED_EDGE ( 'NONE', *, *, #466, .F. ) ;
#854 = CARTESIAN_POINT ( 'NONE',  ( -6.349987999999997079, -16.85999999999955890, -5.399999999998658318 ) ) ;
#855 = CARTESIAN_POINT ( 'NONE',  ( -4.749999999999997335, -53.34604593830443520, -12.49999999999999289 ) ) ;
#856 = ORIENTED_EDGE ( 'NONE', *, *, #86, .T. ) ;
#857 = DIRECTION ( 'NONE',  ( -2.877760184770077725E-16, 1.000000000000000000, 0.000000000000000000 ) ) ;
#858 = PLANE ( 'NONE',  #1061 ) ;
#859 = ORIENTED_EDGE ( 'NONE', *, *, #548, .T. ) ;
#860 = LINE ( 'NONE', #34, #1011 ) ;
#861 = EDGE_CURVE ( 'NONE', #1189, #183, #628, .T. ) ;
#862 = LINE ( 'NONE', #30, #408 ) ;
#863 = VERTEX_POINT ( 'NONE', #718 ) ;
#864 = DIRECTION ( 'NONE',  ( 0.000000000000000000, 0.000000000000000000, 1.000000000000000000 ) ) ;
#865 = ORIENTED_EDGE ( 'NONE', *, *, #796, .F. ) ;
#866 = DIRECTION ( 'NONE',  ( 0.000000000000000000, 0.000000000000000000, 1.000000000000000000 ) ) ;
#867 = CARTESIAN_POINT ( 'NONE',  ( -1.250000000000001110, -26.64828442116734308, 0.000000000000000000 ) ) ;
#868 = ORIENTED_EDGE ( 'NONE', *, *, #1149, .T. ) ;
#869 = VECTOR ( 'NONE', #760, 999.9999999999998863 ) ;
#870 = DIRECTION ( 'NONE',  ( 0.000000000000000000, 0.000000000000000000, 1.000000000000000000 ) ) ;
#871 = VECTOR ( 'NONE', #792, 1000.000000000000000 ) ;
#872 = VERTEX_POINT ( 'NONE', #1180 ) ;
#873 = CARTESIAN_POINT ( 'NONE',  ( -4.749999999999997335, -53.34604593830443520, 12.50000000000001243 ) ) ;
#874 = LINE ( 'NONE', #126, #112 ) ;
#875 = ORIENTED_EDGE ( 'NONE', *, *, #448, .T. ) ;
#876 = EDGE_CURVE ( 'NONE', #880, #53, #901, .T. ) ;
#877 = ORIENTED_EDGE ( 'NONE', *, *, #19, .T. ) ;
#878 = CARTESIAN_POINT ( 'NONE',  ( -7.799999999999998046, -23.34828442116732106, 27.20000000000000284 ) ) ;
#879 = CARTESIAN_POINT ( 'NONE',  ( -68.25100000000000477, -53.34604593830444941, -12.49999999999999289 ) ) ;
#880 = VERTEX_POINT ( 'NONE', #610 ) ;
#881 = AXIS2_PLACEMENT_3D ( 'NONE', #81, #451, #821 ) ;
#882 = AXIS2_PLACEMENT_3D ( 'NONE', #429, #251, #1075 ) ;
#883 = ADVANCED_FACE ( 'NONE', ( #418 ), #256, .F. ) ;
#884 = ORIENTED_EDGE ( 'NONE', *, *, #411, .F. ) ;
#885 = PLANE ( 'NONE',  #100 ) ;
#886 = LINE ( 'NONE', #252, #551 ) ;
#887 = VERTEX_POINT ( 'NONE', #529 ) ;
#888 = CARTESIAN_POINT ( 'NONE',  ( -4.550000000000005151, -23.34828442116731750, 24.55000000000000426 ) ) ;
#889 = ORIENTED_EDGE ( 'NONE', *, *, #230, .T. ) ;
#890 = PLANE ( 'NONE',  #161 ) ;
#891 = VECTOR ( 'NONE', #174, 1000.000000000000000 ) ;
#892 = EDGE_CURVE ( 'NONE', #1060, #681, #726, .T. ) ;
#893 = DIRECTION ( 'NONE',  ( 0.000000000000000000, 0.000000000000000000, -1.000000000000000000 ) ) ;
#894 = ORIENTED_EDGE ( 'NONE', *, *, #191, .F. ) ;
#895 = ORIENTED_EDGE ( 'NONE', *, *, #861, .F. ) ;
#896 = FACE_OUTER_BOUND ( 'NONE', #536, .T. ) ;
#897 = ADVANCED_FACE ( 'NONE', ( #896 ), #423, .F. ) ;
#898 = LINE ( 'NONE', #625, #5 ) ;
#899 = LINE ( 'NONE', #1095, #849 ) ;
#900 = ORIENTED_EDGE ( 'NONE', *, *, #541, .T. ) ;
#901 = LINE ( 'NONE', #1087, #1178 ) ;
#902 = DIRECTION ( 'NONE',  ( 1.000000000000000000, 2.877760184770077725E-16, -0.000000000000000000 ) ) ;
#903 = VERTEX_POINT ( 'NONE', #809 ) ;
#904 = CARTESIAN_POINT ( 'NONE',  ( -5.400000000000002132, -23.34828442116731750, 27.20000000000000284 ) ) ;
#905 = VECTOR ( 'NONE', #816, 1000.000000000000000 ) ;
#906 = DIRECTION ( 'NONE',  ( 0.000000000000000000, 0.000000000000000000, 1.000000000000000000 ) ) ;
#907 = CARTESIAN_POINT ( 'NONE',  ( -4.550000000000005151, -23.34828442116731750, 24.55000000000000426 ) ) ;
#908 = ORIENTED_EDGE ( 'NONE', *, *, #613, .T. ) ;
#909 = EDGE_CURVE ( 'NONE', #638, #1060, #349, .T. ) ;
#910 = CARTESIAN_POINT ( 'NONE',  ( -8.650000000000005684, 2.877760184770076246E-15, -24.45000000000000639 ) ) ;
#911 = CARTESIAN_POINT ( 'NONE',  ( -8.649999999999998579, -23.34828442116732106, -28.05000000000000426 ) ) ;
#912 = CYLINDRICAL_SURFACE ( 'NONE', #881, 1.500000000000001332 ) ;
#913 = CARTESIAN_POINT ( 'NONE',  ( -4.550000000000005151, -16.85999999999955890, -12.49999999999865885 ) ) ;
#914 = EDGE_LOOP ( 'NONE', ( #447, #752, #1033, #113 ) ) ;
#915 = EDGE_CURVE ( 'NONE', #413, #1062, #722, .T. ) ;
#916 = FACE_OUTER_BOUND ( 'NONE', #1141, .T. ) ;
#917 = VECTOR ( 'NONE', #697, 1000.000000000000114 ) ;
#918 = LINE ( 'NONE', #375, #712 ) ;
#919 = CARTESIAN_POINT ( 'NONE',  ( -7.800000000000005151, 3.122369800475533171E-15, -24.45000000000000639 ) ) ;
#920 = CARTESIAN_POINT ( 'NONE',  ( -5.400000000000002132, -23.34828442116731750, 27.20000000000000284 ) ) ;
#921 = DIRECTION ( 'NONE',  ( 1.000000000000000000, 2.877760184770077725E-16, 0.000000000000000000 ) ) ;
#922 = DIRECTION ( 'NONE',  ( 0.000000000000000000, 0.000000000000000000, 1.000000000000000000 ) ) ;
#923 = LINE ( 'NONE', #552, #223 ) ;
#924 = EDGE_CURVE ( 'NONE', #400, #741, #838, .T. ) ;
#925 = AXIS2_PLACEMENT_3D ( 'NONE', #724, #1010, #89 ) ;
#926 = DIRECTION ( 'NONE',  ( 0.000000000000000000, 0.000000000000000000, 1.000000000000000000 ) ) ;
#927 = ORIENTED_EDGE ( 'NONE', *, *, #424, .F. ) ;
#928 = DIRECTION ( 'NONE',  ( 0.000000000000000000, 0.000000000000000000, 1.000000000000000000 ) ) ;
#929 = FACE_OUTER_BOUND ( 'NONE', #224, .T. ) ;
#930 = EDGE_CURVE ( 'NONE', #872, #235, #259, .T. ) ;
#931 = DIRECTION ( 'NONE',  ( 1.000000000000000000, 2.877760184770077725E-16, -0.000000000000000000 ) ) ;
#932 = ORIENTED_EDGE ( 'NONE', *, *, #191, .T. ) ;
#933 = ORIENTED_EDGE ( 'NONE', *, *, #1110, .T. ) ;
#934 = FACE_OUTER_BOUND ( 'NONE', #31, .T. ) ;
#935 = VECTOR ( 'NONE', #1006, 999.9999999999998863 ) ;
#936 = LINE ( 'NONE', #377, #15 ) ;
#937 = ORIENTED_EDGE ( 'NONE', *, *, #716, .T. ) ;
#938 = CARTESIAN_POINT ( 'NONE',  ( -0.7499999999999937828, -53.34604593830442809, 12.50000000000001243 ) ) ;
#939 = CARTESIAN_POINT ( 'NONE',  ( -4.550000000000012257, 4.057641860525805633E-15, -24.55000000000000426 ) ) ;
#940 = ORIENTED_EDGE ( 'NONE', *, *, #86, .F. ) ;
#941 = CARTESIAN_POINT ( 'NONE',  ( -5.400000000000009237, 3.813032244820349498E-15, 24.55000000000000426 ) ) ;
#942 = FACE_OUTER_BOUND ( 'NONE', #643, .T. ) ;
#943 = ORIENTED_EDGE ( 'NONE', *, *, #1182, .T. ) ;
#944 = AXIS2_PLACEMENT_3D ( 'NONE', #571, #931, #389 ) ;
#945 = CIRCLE ( 'NONE', #462, 7.100000000000001421 ) ;
#946 = EDGE_CURVE ( 'NONE', #366, #706, #1069, .T. ) ;
#947 = DIRECTION ( 'NONE',  ( 0.7071067811865516806, 0.7071067811865434649, -0.000000000000000000 ) ) ;
#948 = EDGE_LOOP ( 'NONE', ( #602, #798, #612, #232 ) ) ;
#949 = CARTESIAN_POINT ( 'NONE',  ( -5.400000000000002132, -23.34828442116731750, -27.20000000000000284 ) ) ;
#950 = CARTESIAN_POINT ( 'NONE',  ( -0.7499999999999937828, -39.24999999999997158, 24.54999999999999716 ) ) ;
#951 = ORIENTED_EDGE ( 'NONE', *, *, #77, .F. ) ;
#952 = LINE ( 'NONE', #783, #493 ) ;
#953 = ORIENTED_EDGE ( 'NONE', *, *, #665, .T. ) ;
#954 = LINE ( 'NONE', #854, #64 ) ;
#955 = VECTOR ( 'NONE', #966, 1000.000000000000000 ) ;
#956 = ORIENTED_EDGE ( 'NONE', *, *, #280, .T. ) ;
#957 = PLANE ( 'NONE',  #246 ) ;
#958 = ORIENTED_EDGE ( 'NONE', *, *, #416, .F. ) ;
#959 = PLANE ( 'NONE',  #817 ) ;
#960 = EDGE_CURVE ( 'NONE', #863, #1086, #134, .T. ) ;
#961 = SURFACE_STYLE_FILL_AREA ( #409 ) ;
#962 = VERTEX_POINT ( 'NONE', #334 ) ;
#963 = AXIS2_PLACEMENT_3D ( 'NONE', #149, #278, #666 ) ;
#964 = AXIS2_PLACEMENT_3D ( 'NONE', #1036, #22, #212 ) ;
#965 = ORIENTED_EDGE ( 'NONE', *, *, #443, .F. ) ;
#966 = DIRECTION ( 'NONE',  ( -1.000000000000000000, -2.877760184770077725E-16, 0.000000000000000000 ) ) ;
#967 = VERTEX_POINT ( 'NONE', #1083 ) ;
#968 = EDGE_CURVE ( 'NONE', #524, #405, #795, .T. ) ;
#969 = ORIENTED_EDGE ( 'NONE', *, *, #819, .F. ) ;
#970 = DIRECTION ( 'NONE',  ( -1.000000000000000000, -2.877760184770077725E-16, 0.000000000000000000 ) ) ;
#971 = DIRECTION ( 'NONE',  ( 0.000000000000000000, 0.000000000000000000, -1.000000000000000000 ) ) ;
#972 = ORIENTED_EDGE ( 'NONE', *, *, #198, .T. ) ;
#973 = VECTOR ( 'NONE', #290, 1000.000000000000000 ) ;
#974 = CARTESIAN_POINT ( 'NONE',  ( -8.649999999999998579, -23.34828442116732106, 28.05000000000000426 ) ) ;
#975 = PRODUCT_DEFINITION_FORMATION_WITH_SPECIFIED_SOURCE ( 'ANY', '', #1090, .NOT_KNOWN. ) ;
#976 = ADVANCED_FACE ( 'NONE', ( #513 ), #885, .F. ) ;
#977 = ORIENTED_EDGE ( 'NONE', *, *, #296, .T. ) ;
#978 = PLANE ( 'NONE',  #358 ) ;
#979 = CARTESIAN_POINT ( 'NONE',  ( -4.749999999999997335, -44.41604593830443548, 12.50000000000000711 ) ) ;
#980 = ORIENTED_EDGE ( 'NONE', *, *, #478, .T. ) ;
#981 = CARTESIAN_POINT ( 'NONE',  ( -4.749999999999997335, -39.24999999999997868, -24.55000000000000071 ) ) ;
#982 = AXIS2_PLACEMENT_3D ( 'NONE', #2, #384, #926 ) ;
#983 = EDGE_CURVE ( 'NONE', #903, #390, #787, .T. ) ;
#984 = ORIENTED_EDGE ( 'NONE', *, *, #125, .F. ) ;
#985 = DIRECTION ( 'NONE',  ( -2.877760184770077725E-16, 1.000000000000000000, 0.000000000000000000 ) ) ;
#986 = FACE_OUTER_BOUND ( 'NONE', #1041, .T. ) ;
#987 = ORIENTED_EDGE ( 'NONE', *, *, #682, .T. ) ;
#988 = DIRECTION ( 'NONE',  ( 0.000000000000000000, 0.000000000000000000, 1.000000000000000000 ) ) ;
#989 = CARTESIAN_POINT ( 'NONE',  ( -4.550000000000005151, -23.34828442116731750, 28.05000000000000071 ) ) ;
#990 = AXIS2_PLACEMENT_3D ( 'NONE', #21, #1042, #303 ) ;
#992 = ORIENTED_EDGE ( 'NONE', *, *, #762, .T. ) ;
#991 =( BOUNDED_CURVE ( )  B_SPLINE_CURVE ( 3, ( #316, #124, #295, #414 ),
 .UNSPECIFIED., .F., .T. ) 
 B_SPLINE_CURVE_WITH_KNOTS ( ( 4, 4 ),
 ( 2.723445465976165991, 3.559739841203420241 ),
 .UNSPECIFIED. ) 
 CURVE ( )  GEOMETRIC_REPRESENTATION_ITEM ( )  RATIONAL_B_SPLINE_CURVE ( ( 1.000000000000000000, 0.9425619174805408562, 0.9425619174805408562, 1.000000000000000000 ) ) 
 REPRESENTATION_ITEM ( '' )  );
#993 = FACE_OUTER_BOUND ( 'NONE', #709, .T. ) ;
#994 = CARTESIAN_POINT ( 'NONE',  ( -5.350000000000007638, -33.75000000000004263, -28.05000000000000071 ) ) ;
#995 = ADVANCED_FACE ( 'NONE', ( #617 ), #978, .F. ) ;
#996 = DIRECTION ( 'NONE',  ( 0.000000000000000000, 0.000000000000000000, 1.000000000000000000 ) ) ;
#997 = ORIENTED_EDGE ( 'NONE', *, *, #230, .F. ) ;
#998 = ORIENTED_EDGE ( 'NONE', *, *, #930, .F. ) ;
#999 = CARTESIAN_POINT ( 'NONE',  ( -4.550000000000012257, 4.057641860525805633E-15, 24.55000000000000426 ) ) ;
#1000 = VECTOR ( 'NONE', #527, 1000.000000000000000 ) ;
#1001 = DIRECTION ( 'NONE',  ( 0.000000000000000000, 0.000000000000000000, 1.000000000000000000 ) ) ;
#1002 = LINE ( 'NONE', #545, #1105 ) ;
#1003 = ADVANCED_FACE ( 'NONE', ( #993 ), #172, .F. ) ;
#1004 = ORIENTED_EDGE ( 'NONE', *, *, #782, .T. ) ;
#1005 = CARTESIAN_POINT ( 'NONE',  ( -8.649999999999991473, -30.45000000000000284, 0.000000000000000000 ) ) ;
#1006 = DIRECTION ( 'NONE',  ( -0.7071067811865420216, 0.7071067811865531239, 0.000000000000000000 ) ) ;
#1007 = CARTESIAN_POINT ( 'NONE',  ( -0.7499999999999937828, -38.02177948580122546, -27.18392739261104651 ) ) ;
#1008 = VERTEX_POINT ( 'NONE', #656 ) ;
#1009 = EDGE_CURVE ( 'NONE', #76, #1071, #639, .T. ) ;
#1010 = DIRECTION ( 'NONE',  ( 1.000000000000000000, 2.877760184770077725E-16, -0.000000000000000000 ) ) ;
#1011 = VECTOR ( 'NONE', #27, 1000.000000000000114 ) ;
#1012 = DIRECTION ( 'NONE',  ( -0.000000000000000000, 0.000000000000000000, -1.000000000000000000 ) ) ;
#1013 = FACE_OUTER_BOUND ( 'NONE', #1124, .T. ) ;
#1014 = CARTESIAN_POINT ( 'NONE',  ( -6.349987999999997079, -16.85999999999955890, -12.49999999999865885 ) ) ;
#1015 = ORIENTED_EDGE ( 'NONE', *, *, #649, .F. ) ;
#1016 = ORIENTED_EDGE ( 'NONE', *, *, #807, .F. ) ;
#1017 = CARTESIAN_POINT ( 'NONE',  ( -8.650000000000005684, 2.877760184770076246E-15, -24.45000000000000639 ) ) ;
#1018 = ADVANCED_FACE ( 'NONE', ( #1112 ), #564, .T. ) ;
#1019 = CYLINDRICAL_SURFACE ( 'NONE', #491, 1.500000000000001332 ) ;
#1020 = CLOSED_SHELL ( 'NONE', ( #371, #273, #897, #842, #1148, #249, #976, #581, #394, #459, #1115, #1156, #78, #1162, #720, #621, #49, #852, #1003, #883, #590, #703, #337, #63, #775, #995, #734, #606, #533, #689, #176, #1203, #1018, #1197, #755, #547 ) ) ;
#1021 = PLANE ( 'NONE',  #982 ) ;
#1022 = ORIENTED_EDGE ( 'NONE', *, *, #306, .F. ) ;
#1023 = LINE ( 'NONE', #207, #331 ) ;
#1024 = DIRECTION ( 'NONE',  ( -1.000000000000000000, -2.877760184770077725E-16, 0.000000000000000000 ) ) ;
#1025 = ORIENTED_EDGE ( 'NONE', *, *, #288, .F. ) ;
#1026 = CARTESIAN_POINT ( 'NONE',  ( -38.19999999999977547, -0.8999999999997640998, -28.05000000000000071 ) ) ;
#1027 = DIRECTION ( 'NONE',  ( -1.000000000000000000, -2.877760184770077725E-16, -0.000000000000000000 ) ) ;
#1028 = VERTEX_POINT ( 'NONE', #1017 ) ;
#1029 = CARTESIAN_POINT ( 'NONE',  ( -5.350000000000007638, -33.75000000000002842, 0.000000000000000000 ) ) ;
#1030 = CARTESIAN_POINT ( 'NONE',  ( -37.29999999999998295, -37.61792319645751093, -28.05000000000000071 ) ) ;
#1031 = AXIS2_PLACEMENT_3D ( 'NONE', #260, #237, #971 ) ;
#1032 = VECTOR ( 'NONE', #509, 1000.000000000000000 ) ;
#1033 = ORIENTED_EDGE ( 'NONE', *, *, #136, .F. ) ;
#1034 = CARTESIAN_POINT ( 'NONE',  ( -8.649999999999998579, -1.188913318892706535E-15, 0.000000000000000000 ) ) ;
#1035 = AXIS2_PLACEMENT_3D ( 'NONE', #589, #1024, #1143 ) ;
#1036 = CARTESIAN_POINT ( 'NONE',  ( -0.7499999999999937828, -36.66231780524624639, -26.55000000000000071 ) ) ;
#1037 = ORIENTED_EDGE ( 'NONE', *, *, #70, .T. ) ;
#1038 = EDGE_CURVE ( 'NONE', #417, #44, #90, .T. ) ;
#1039 = CARTESIAN_POINT ( 'NONE',  ( -4.750000000000004441, -34.35000000000005826, -26.55000000000000071 ) ) ;
#1040 = FACE_OUTER_BOUND ( 'NONE', #1157, .T. ) ;
#1041 = EDGE_LOOP ( 'NONE', ( #1091, #421, #1138, #609 ) ) ;
#1042 = DIRECTION ( 'NONE',  ( -1.000000000000000000, -2.877760184770077725E-16, 0.000000000000000000 ) ) ;
#1043 = SURFACE_STYLE_USAGE ( .BOTH. , #317 ) ;
#1044 = ORIENTED_EDGE ( 'NONE', *, *, #747, .T. ) ;
#1045 = COLOUR_RGB ( '',0.7921568627450980005, 0.8196078431372548767, 0.9333333333333333481 ) ;
#1046 = EDGE_CURVE ( 'NONE', #706, #1189, #80, .T. ) ;
#1047 = VECTOR ( 'NONE', #692, 1000.000000000000000 ) ;
#1048 = LINE ( 'NONE', #754, #869 ) ;
#1049 = CARTESIAN_POINT ( 'NONE',  ( -0.7499999999999937828, -44.41604593830442838, -12.49999999999999112 ) ) ;
#1050 = ORIENTED_EDGE ( 'NONE', *, *, #507, .T. ) ;
#1051 = CARTESIAN_POINT ( 'NONE',  ( -4.550000000000005151, -23.34828442116731750, 24.55000000000000426 ) ) ;
#1052 = PLANE ( 'NONE',  #253 ) ;
#1053 = ORIENTED_EDGE ( 'NONE', *, *, #294, .F. ) ;
#1054 = DIRECTION ( 'NONE',  ( -2.608136464681154808E-16, 0.9063077870366516020, 0.4226182617406959441 ) ) ;
#1055 = EDGE_CURVE ( 'NONE', #863, #400, #651, .T. ) ;
#1056 = VERTEX_POINT ( 'NONE', #836 ) ;
#1057 = CARTESIAN_POINT ( 'NONE',  ( -8.649999999999998579, -23.34828442116732106, 24.45000000000000639 ) ) ;
#1058 = CARTESIAN_POINT ( 'NONE',  ( -5.350000000000007638, -33.75000000000004263, 28.05000000000000071 ) ) ;
#1059 = AXIS2_PLACEMENT_3D ( 'NONE', #62, #245, #715 ) ;
#1060 = VERTEX_POINT ( 'NONE', #818 ) ;
#1061 = AXIS2_PLACEMENT_3D ( 'NONE', #1030, #1054, #101 ) ;
#1062 = VERTEX_POINT ( 'NONE', #737 ) ;
#1063 = LINE ( 'NONE', #772, #633 ) ;
#1064 = EDGE_CURVE ( 'NONE', #235, #17, #742, .T. ) ;
#1065 =( NAMED_UNIT ( * ) SI_UNIT ( $, .STERADIAN. ) SOLID_ANGLE_UNIT ( ) );
#1066 = VERTEX_POINT ( 'NONE', #95 ) ;
#1067 = CIRCLE ( 'NONE', #310, 7.099999999999998757 ) ;
#1068 = VERTEX_POINT ( 'NONE', #6 ) ;
#1069 = LINE ( 'NONE', #632, #201 ) ;
#1070 = PLANE ( 'NONE',  #379 ) ;
#1071 = VERTEX_POINT ( 'NONE', #904 ) ;
#1072 = EDGE_CURVE ( 'NONE', #967, #1179, #184, .T. ) ;
#1073 = DIRECTION ( 'NONE',  ( 2.608136464681154808E-16, -0.9063077870366516020, 0.4226182617406959441 ) ) ;
#1074 = ORIENTED_EDGE ( 'NONE', *, *, #1046, .F. ) ;
#1075 = DIRECTION ( 'NONE',  ( 0.000000000000000000, 0.000000000000000000, -1.000000000000000000 ) ) ;
#1076 = DIRECTION ( 'NONE',  ( 1.133931675732062932E-16, -0.3940327209102241213, -0.9190964121636453488 ) ) ;
#1077 = VERTEX_POINT ( 'NONE', #1195 ) ;
#1078 = VECTOR ( 'NONE', #68, 1000.000000000000000 ) ;
#1079 = AXIS2_PLACEMENT_3D ( 'NONE', #67, #327, #158 ) ;
#1080 = CARTESIAN_POINT ( 'NONE',  ( -0.7499999999999937828, -44.41604593830441416, 12.50000000000000355 ) ) ;
#1081 = EDGE_CURVE ( 'NONE', #274, #302, #749, .T. ) ;
#1082 = ORIENTED_EDGE ( 'NONE', *, *, #280, .F. ) ;
#1083 = CARTESIAN_POINT ( 'NONE',  ( -5.400000000000002132, -23.34828442116731750, -27.20000000000000284 ) ) ;
#1084 = DIRECTION ( 'NONE',  ( 1.000000000000000000, 2.877760184770077725E-16, -0.000000000000000000 ) ) ;
#1085 = AXIS2_PLACEMENT_3D ( 'NONE', #888, #996, #1173 ) ;
#1086 = VERTEX_POINT ( 'NONE', #558 ) ;
#1087 = CARTESIAN_POINT ( 'NONE',  ( -8.649999999999995026, -38.41145406905854287, -28.05000000000000071 ) ) ;
#1088 = CARTESIAN_POINT ( 'NONE',  ( -68.25100000000000477, -39.25000000000001421, 24.55000000000000071 ) ) ;
#1089 = LINE ( 'NONE', #156, #1000 ) ;
#1090 = PRODUCT ( 'Hip-pulley-housing-wall-right', 'Hip-pulley-housing-wall-right', '', ( #523 ) ) ;
#1091 = ORIENTED_EDGE ( 'NONE', *, *, #644, .T. ) ;
#1092 = DIRECTION ( 'NONE',  ( 1.000000000000000000, 2.877760184770077725E-16, -0.000000000000000000 ) ) ;
#1093 = EDGE_CURVE ( 'NONE', #455, #880, #1099, .T. ) ;
#1094 = CARTESIAN_POINT ( 'NONE',  ( -8.649999999999998579, 2.877760184770077824E-15, 24.45000000000000639 ) ) ;
#1095 = CARTESIAN_POINT ( 'NONE',  ( -4.550000000000005151, -23.34828442116731750, -24.55000000000000426 ) ) ;
#1096 = ORIENTED_EDGE ( 'NONE', *, *, #946, .T. ) ;
#1097 = VECTOR ( 'NONE', #406, 1000.000000000000000 ) ;
#1098 = CARTESIAN_POINT ( 'NONE',  ( -68.25100000000000477, -6.989305241063714282E-15, 12.49999999999998224 ) ) ;
#1099 = LINE ( 'NONE', #1005, #695 ) ;
#1100 = EDGE_CURVE ( 'NONE', #746, #477, #918, .T. ) ;
#1101 = LINE ( 'NONE', #190, #530 ) ;
#1102 = PLANE ( 'NONE',  #1085 ) ;
#1103 = DIRECTION ( 'NONE',  ( -1.677083365314224346E-31, 5.827738441131490604E-16, 1.000000000000000000 ) ) ;
#1104 = CARTESIAN_POINT ( 'NONE',  ( -1.849999999999997424, -36.66231780524625350, -28.05000000000000071 ) ) ;
#1105 = VECTOR ( 'NONE', #1027, 1000.000000000000000 ) ;
#1106 = CARTESIAN_POINT ( 'NONE',  ( -4.749999999999997335, -44.41604593830443548, -12.49999999999999112 ) ) ;
#1107 = CIRCLE ( 'NONE', #964, 1.500000000000001332 ) ;
#1108 = DIRECTION ( 'NONE',  ( 0.7071067811865477948, -0.7071067811865473507, 0.000000000000000000 ) ) ;
#1109 = ORIENTED_EDGE ( 'NONE', *, *, #876, .F. ) ;
#1110 = EDGE_CURVE ( 'NONE', #53, #1008, #362, .T. ) ;
#1111 = EDGE_LOOP ( 'NONE', ( #619, #79, #1152, #338 ) ) ;
#1112 = FACE_OUTER_BOUND ( 'NONE', #468, .T. ) ;
#1113 = CARTESIAN_POINT ( 'NONE',  ( -37.29999999999998295, -36.66231780524626060, -26.55000000000000071 ) ) ;
#1114 = DIRECTION ( 'NONE',  ( 2.877760184770077725E-16, -1.000000000000000000, 5.827738441131490604E-16 ) ) ;
#1115 = ADVANCED_FACE ( 'NONE', ( #353 ), #264, .F. ) ;
#1116 = VERTEX_POINT ( 'NONE', #999 ) ;
#1117 = VECTOR ( 'NONE', #41, 1000.000000000000000 ) ;
#1118 = CARTESIAN_POINT ( 'NONE',  ( -4.550000000000005151, -23.34828442116731750, -28.05000000000000071 ) ) ;
#1119 = CARTESIAN_POINT ( 'NONE',  ( -37.29999999999999716, -5.367022744596195206E-15, 27.20000000000000284 ) ) ;
#1120 = LINE ( 'NONE', #739, #150 ) ;
#1121 = ORIENTED_EDGE ( 'NONE', *, *, #1072, .F. ) ;
#1122 = DIRECTION ( 'NONE',  ( -1.000000000000000000, -2.877760184770077725E-16, 0.000000000000000000 ) ) ;
#1123 = DIRECTION ( 'NONE',  ( 0.000000000000000000, 0.000000000000000000, 1.000000000000000000 ) ) ;
#1124 = EDGE_LOOP ( 'NONE', ( #663, #932, #138, #563 ) ) ;
#1125 = CARTESIAN_POINT ( 'NONE',  ( -5.350000000000000533, -36.66231780524625350, 28.05000000000000071 ) ) ;
#1126 = CIRCLE ( 'NONE', #642, 7.099999999999996980 ) ;
#1127 = CARTESIAN_POINT ( 'NONE',  ( -7.800000000000005151, 3.122369800475533171E-15, 27.20000000000000284 ) ) ;
#1128 = CIRCLE ( 'NONE', #355, 12.50000000000000178 ) ;
#1129 = ORIENTED_EDGE ( 'NONE', *, *, #206, .F. ) ;
#1130 = LINE ( 'NONE', #1151, #7 ) ;
#1131 = VERTEX_POINT ( 'NONE', #543 ) ;
#1132 = PLANE ( 'NONE',  #279 ) ;
#1133 = EDGE_CURVE ( 'NONE', #556, #962, #732, .T. ) ;
#1134 = FACE_OUTER_BOUND ( 'NONE', #948, .T. ) ;
#1135 = ORIENTED_EDGE ( 'NONE', *, *, #892, .T. ) ;
#1136 = DIRECTION ( 'NONE',  ( 1.000000000000000000, 2.877760184770077725E-16, 0.000000000000000000 ) ) ;
#1137 = AXIS2_PLACEMENT_3D ( 'NONE', #791, #1092, #61 ) ;
#1138 = ORIENTED_EDGE ( 'NONE', *, *, #497, .T. ) ;
#1139 = EDGE_CURVE ( 'NONE', #811, #413, #85, .T. ) ;
#1140 = LINE ( 'NONE', #879, #871 ) ;
#1141 = EDGE_LOOP ( 'NONE', ( #361, #833, #506, #953 ) ) ;
#1142 = PLANE ( 'NONE',  #189 ) ;
#1143 = DIRECTION ( 'NONE',  ( -0.000000000000000000, 0.000000000000000000, -1.000000000000000000 ) ) ;
#1144 = ORIENTED_EDGE ( 'NONE', *, *, #70, .F. ) ;
#1145 = DIRECTION ( 'NONE',  ( 0.000000000000000000, 0.000000000000000000, 1.000000000000000000 ) ) ;
#1146 = DIRECTION ( 'NONE',  ( -1.000000000000000000, -2.877760184770077725E-16, 0.000000000000000000 ) ) ;
#1147 = VERTEX_POINT ( 'NONE', #32 ) ;
#1148 = ADVANCED_FACE ( 'NONE', ( #576 ), #957, .T. ) ;
#1149 = EDGE_CURVE ( 'NONE', #422, #515, #314, .T. ) ;
#1150 = LINE ( 'NONE', #843, #660 ) ;
#1151 = CARTESIAN_POINT ( 'NONE',  ( -68.25100000000000477, -53.34828442116733527, 7.100000000000009415 ) ) ;
#1152 = ORIENTED_EDGE ( 'NONE', *, *, #296, .F. ) ;
#1153 = CARTESIAN_POINT ( 'NONE',  ( -8.649999999999998579, -23.34828442116732106, 24.45000000000000639 ) ) ;
#1154 = CARTESIAN_POINT ( 'NONE',  ( -0.7500000000000006661, -27.14828442116734308, 28.05000000000000071 ) ) ;
#1155 = ORIENTED_EDGE ( 'NONE', *, *, #58, .T. ) ;
#1156 = ADVANCED_FACE ( 'NONE', ( #1040 ), #485, .F. ) ;
#1157 = EDGE_LOOP ( 'NONE', ( #933, #483, #123, #512, #292, #133, #940, #145, #56 ) ) ;
#1158 = CARTESIAN_POINT ( 'NONE',  ( -0.7499999999999937828, -36.66231780524624639, 28.05000000000000071 ) ) ;
#1159 = DIRECTION ( 'NONE',  ( 2.877760184770077725E-16, -1.000000000000000000, 0.000000000000000000 ) ) ;
#1160 = AXIS2_PLACEMENT_3D ( 'NONE', #283, #356, #1 ) ;
#1161 = EDGE_LOOP ( 'NONE', ( #637, #1168, #696, #1004, #598, #378, #956, #3 ) ) ;
#1162 = ADVANCED_FACE ( 'NONE', ( #222 ), #858, .F. ) ;
#1163 = ORIENTED_EDGE ( 'NONE', *, *, #600, .T. ) ;
#1164 = CARTESIAN_POINT ( 'NONE',  ( -0.7499999999999937828, -53.34828442116731395, 8.673617379884035472E-15 ) ) ;
#1165 = CARTESIAN_POINT ( 'NONE',  ( -0.7500000000000006661, -27.14828442116734308, -28.05000000000000071 ) ) ;
#1166 = ORIENTED_EDGE ( 'NONE', *, *, #634, .T. ) ;
#1167 = VECTOR ( 'NONE', #566, 1000.000000000000000 ) ;
#1168 = ORIENTED_EDGE ( 'NONE', *, *, #294, .T. ) ;
#1169 = CARTESIAN_POINT ( 'NONE',  ( -4.550000000000005151, -23.34828442116731750, -24.55000000000000426 ) ) ;
#1170 = EDGE_CURVE ( 'NONE', #761, #72, #952, .T. ) ;
#1171 = CARTESIAN_POINT ( 'NONE',  ( -37.29999999999999005, -23.34828442116732816, 0.000000000000000000 ) ) ;
#1172 = VERTEX_POINT ( 'NONE', #939 ) ;
#1173 = DIRECTION ( 'NONE',  ( -1.000000000000000000, -2.877760184770077725E-16, 0.000000000000000000 ) ) ;
#1174 = ORIENTED_EDGE ( 'NONE', *, *, #613, .F. ) ;
#1175 = CARTESIAN_POINT ( 'NONE',  ( -0.7500000000000006661, -27.14828442116734308, -28.05000000000000071 ) ) ;
#1176 = DIRECTION ( 'NONE',  ( -1.000000000000000000, -2.877760184770077725E-16, 0.000000000000000000 ) ) ;
#1177 = EDGE_CURVE ( 'NONE', #517, #681, #1130, .T. ) ;
#1178 = VECTOR ( 'NONE', #985, 1000.000000000000000 ) ;
#1179 = VERTEX_POINT ( 'NONE', #662 ) ;
#1180 = CARTESIAN_POINT ( 'NONE',  ( -7.799999999999998046, -23.34828442116732106, 27.20000000000000284 ) ) ;
#1181 = DIRECTION ( 'NONE',  ( -2.877760184770077725E-16, 1.000000000000000000, -9.712897401885802554E-16 ) ) ;
#1182 = EDGE_CURVE ( 'NONE', #221, #238, #202, .T. ) ;
#1183 = VECTOR ( 'NONE', #539, 1000.000000000000000 ) ;
#1184 = DIRECTION ( 'NONE',  ( 0.000000000000000000, 0.000000000000000000, 1.000000000000000000 ) ) ;
#1185 = CARTESIAN_POINT ( 'NONE',  ( -68.25100000000000477, -53.34828442116733527, -7.099999999999991651 ) ) ;
#1186 = CARTESIAN_POINT ( 'NONE',  ( -1.849999999999997424, -38.02177948580123257, 27.18392739261104651 ) ) ;
#1187 = ORIENTED_EDGE ( 'NONE', *, *, #819, .T. ) ;
#1188 = EDGE_CURVE ( 'NONE', #1062, #962, #684, .T. ) ;
#1189 = VERTEX_POINT ( 'NONE', #1049 ) ;
#1190 = CARTESIAN_POINT ( 'NONE',  ( -5.400000000000002132, -23.34828442116731750, -27.20000000000000284 ) ) ;
#1191 = PLANE ( 'NONE',  #298 ) ;
#1192 = ORIENTED_EDGE ( 'NONE', *, *, #144, .F. ) ;
#1193 = AXIS2_PLACEMENT_3D ( 'NONE', #1171, #538, #74 ) ;
#1194 = EDGE_LOOP ( 'NONE', ( #937, #10, #841, #103 ) ) ;
#1195 = CARTESIAN_POINT ( 'NONE',  ( -7.799999999999998046, -23.34828442116732106, -27.20000000000000284 ) ) ;
#1196 = DIRECTION ( 'NONE',  ( -0.000000000000000000, 0.000000000000000000, -1.000000000000000000 ) ) ;
#1197 = ADVANCED_FACE ( 'NONE', ( #770 ), #473, .T. ) ;
#1198 = DIRECTION ( 'NONE',  ( -2.877760184770077725E-16, 1.000000000000000000, 0.000000000000000000 ) ) ;
#1199 = PRODUCT_DEFINITION_SHAPE ( 'NONE', 'NONE',  #740 ) ;
#1200 = CARTESIAN_POINT ( 'NONE',  ( -7.800000000000005151, 3.122369800475533171E-15, 24.45000000000000639 ) ) ;
#1201 = DIRECTION ( 'NONE',  ( -1.216194006994113526E-16, 0.4226182617406957220, 0.9063077870366517130 ) ) ;
#1202 = DIRECTION ( 'NONE',  ( 1.000000000000000000, 2.877760184770077725E-16, 0.000000000000000000 ) ) ;
#1203 = ADVANCED_FACE ( 'NONE', ( #114 ), #412, .T. ) ;
#1204 = DIRECTION ( 'NONE',  ( 0.000000000000000000, 0.000000000000000000, -1.000000000000000000 ) ) ;
#1205 = ORIENTED_EDGE ( 'NONE', *, *, #789, .F. ) ;
#1206 = DIRECTION ( 'NONE',  ( -1.000000000000000000, -2.877760184770077725E-16, 0.000000000000000000 ) ) ;
ENDSEC;
END-ISO-10303-21;
