ISO-10303-21;
HEADER;
FILE_DESCRIPTION (( 'STEP AP214' ),
    '1' );
FILE_NAME ('Hip-pulley-housing-wall-left.STEP',
    '2025-12-31T21:56:28',
    ( '' ),
    ( '' ),
    'SwSTEP 2.0',
    'SolidWorks 2025',
    '' );
FILE_SCHEMA (( 'AUTOMOTIVE_DESIGN' ));
ENDSEC;

DATA;
#1 = FACE_OUTER_BOUND ( 'NONE', #28, .T. ) ;
#2 = EDGE_CURVE ( 'NONE', #787, #1143, #626, .T. ) ;
#3 = CARTESIAN_POINT ( 'NONE',  ( -32.74999999999998579, -23.34828442116732106, 24.55000000000000426 ) ) ;
#4 = DIRECTION ( 'NONE',  ( 0.000000000000000000, -0.3940327209102226780, 0.9190964121636459039 ) ) ;
#5 = VERTEX_POINT ( 'NONE', #735 ) ;
#6 = ORIENTED_EDGE ( 'NONE', *, *, #658, .T. ) ;
#7 = VECTOR ( 'NONE', #966, 1000.000000000000000 ) ;
#8 = LINE ( 'NONE', #637, #1085 ) ;
#9 = CARTESIAN_POINT ( 'NONE',  ( 30.95100000000001472, -42.04685710750736405, -18.02622368288012211 ) ) ;
#10 = ORIENTED_EDGE ( 'NONE', *, *, #816, .T. ) ;
#11 = ORIENTED_EDGE ( 'NONE', *, *, #115, .T. ) ;
#12 = DIRECTION ( 'NONE',  ( 1.000000000000000000, -0.000000000000000000, -0.000000000000000000 ) ) ;
#13 = DIRECTION ( 'NONE',  ( 1.000000000000000000, 0.000000000000000000, 0.000000000000000000 ) ) ;
#14 = CARTESIAN_POINT ( 'NONE',  ( -31.89999999999999147, 0.000000000000000000, -27.20000000000000284 ) ) ;
#15 = ORIENTED_EDGE ( 'NONE', *, *, #177, .T. ) ;
#16 = VERTEX_POINT ( 'NONE', #1191 ) ;
#17 = EDGE_CURVE ( 'NONE', #105, #774, #459, .T. ) ;
#18 = CARTESIAN_POINT ( 'NONE',  ( -29.49999999999999645, -23.34828442116732106, -24.45000000000000639 ) ) ;
#19 = PLANE ( 'NONE',  #340 ) ;
#20 = LINE ( 'NONE', #758, #859 ) ;
#21 = ORIENTED_EDGE ( 'NONE', *, *, #2, .F. ) ;
#22 = ORIENTED_EDGE ( 'NONE', *, *, #206, .F. ) ;
#23 = DIRECTION ( 'NONE',  ( -0.000000000000000000, 1.000000000000000000, -0.000000000000000000 ) ) ;
#24 = EDGE_CURVE ( 'NONE', #601, #231, #360, .T. ) ;
#25 = CLOSED_SHELL ( 'NONE', ( #37, #334, #617, #1001, #50, #798, #720, #385, #994, #1012, #337, #738, #542, #471, #629, #130, #372, #866, #82, #668, #926, #184, #547, #168, #131, #1201, #791, #299, #1054, #849, #1103, #196, #633, #265, #1050, #75 ) ) ;
#26 = EDGE_CURVE ( 'NONE', #877, #595, #434, .T. ) ;
#27 = DIRECTION ( 'NONE',  ( -1.000000000000000000, 0.000000000000000000, 0.000000000000000000 ) ) ;
#28 = EDGE_LOOP ( 'NONE', ( #616, #1075, #311, #77 ) ) ;
#29 = ORIENTED_EDGE ( 'NONE', *, *, #17, .F. ) ;
#30 = CARTESIAN_POINT ( 'NONE',  ( 0.000000000000000000, 0.000000000000000000, 0.000000000000000000 ) ) ;
#31 = CARTESIAN_POINT ( 'NONE',  ( -36.54999999999999005, -53.34828442116732106, 8.673617379884035472E-15 ) ) ;
#32 = EDGE_CURVE ( 'NONE', #985, #1122, #919, .T. ) ;
#33 = CARTESIAN_POINT ( 'NONE',  ( -32.74999999999998579, 0.000000000000000000, -12.49999999999865885 ) ) ;
#34 = ORIENTED_EDGE ( 'NONE', *, *, #907, .F. ) ;
#35 = ORIENTED_EDGE ( 'NONE', *, *, #816, .F. ) ;
#36 = DIRECTION ( 'NONE',  ( 0.000000000000000000, 1.000000000000000000, 0.000000000000000000 ) ) ;
#37 = ADVANCED_FACE ( 'NONE', ( #537 ), #1186, .F. ) ;
#38 = DIRECTION ( 'NONE',  ( 0.000000000000000000, 0.000000000000000000, -1.000000000000000000 ) ) ;
#39 = EDGE_LOOP ( 'NONE', ( #780, #1055, #1149, #1180 ) ) ;
#40 = ORIENTED_EDGE ( 'NONE', *, *, #946, .T. ) ;
#41 = CARTESIAN_POINT ( 'NONE',  ( -35.44999999999998863, -38.02177948580123257, 27.18392739261104651 ) ) ;
#42 = AXIS2_PLACEMENT_3D ( 'NONE', #31, #408, #321 ) ;
#43 = CARTESIAN_POINT ( 'NONE',  ( -28.64999999999999503, -23.34828442116732106, 24.45000000000000639 ) ) ;
#44 = VERTEX_POINT ( 'NONE', #347 ) ;
#45 = AXIS2_PLACEMENT_3D ( 'NONE', #150, #550, #529 ) ;
#46 = ORIENTED_EDGE ( 'NONE', *, *, #1129, .F. ) ;
#47 = LINE ( 'NONE', #980, #801 ) ;
#48 = DIRECTION ( 'NONE',  ( 0.000000000000000000, -1.000000000000000000, -1.942579480377163370E-16 ) ) ;
#49 = CARTESIAN_POINT ( 'NONE',  ( -36.54999999999999005, -44.41604593830443548, -12.49999999999999112 ) ) ;
#50 = ADVANCED_FACE ( 'NONE', ( #76 ), #453, .T. ) ;
#51 = DIRECTION ( 'NONE',  ( 0.000000000000000000, 0.000000000000000000, 1.000000000000000000 ) ) ;
#52 = CARTESIAN_POINT ( 'NONE',  ( -28.65000000000000213, 0.000000000000000000, 0.000000000000000000 ) ) ;
#53 = ORIENTED_EDGE ( 'NONE', *, *, #772, .F. ) ;
#54 = ORIENTED_EDGE ( 'NONE', *, *, #392, .F. ) ;
#55 = EDGE_CURVE ( 'NONE', #412, #836, #1039, .T. ) ;
#56 = CARTESIAN_POINT ( 'NONE',  ( -31.89999999999999147, -23.34828442116732106, 27.20000000000000284 ) ) ;
#57 = ORIENTED_EDGE ( 'NONE', *, *, #122, .T. ) ;
#58 = VERTEX_POINT ( 'NONE', #713 ) ;
#59 = CARTESIAN_POINT ( 'NONE',  ( 30.95100000000001472, -42.04685710750736405, 18.02622368288012566 ) ) ;
#60 = EDGE_CURVE ( 'NONE', #478, #555, #622, .T. ) ;
#61 = PLANE ( 'NONE',  #1006 ) ;
#62 = VERTEX_POINT ( 'NONE', #159 ) ;
#63 = ORIENTED_EDGE ( 'NONE', *, *, #587, .F. ) ;
#64 = VERTEX_POINT ( 'NONE', #717 ) ;
#65 = CARTESIAN_POINT ( 'NONE',  ( -33.57804639929346280, -24.17633082046079096, -13.51959087782350899 ) ) ;
#66 = AXIS2_PLACEMENT_3D ( 'NONE', #279, #554, #930 ) ;
#67 = PLANE ( 'NONE',  #894 ) ;
#68 = CARTESIAN_POINT ( 'NONE',  ( -32.54999999999999005, -44.41604593830443548, 12.50000000000000711 ) ) ;
#69 = PRODUCT_RELATED_PRODUCT_CATEGORY ( 'part', '', ( #244 ) ) ;
#70 = ORIENTED_EDGE ( 'NONE', *, *, #102, .F. ) ;
#71 = ORIENTED_EDGE ( 'NONE', *, *, #982, .T. ) ;
#72 = LINE ( 'NONE', #532, #456 ) ;
#73 = CARTESIAN_POINT ( 'NONE',  ( -35.44999999999998863, -36.66231780524625350, -28.05000000000000071 ) ) ;
#74 = CARTESIAN_POINT ( 'NONE',  ( -32.74999999999998579, -23.34828442116732106, -24.55000000000000426 ) ) ;
#75 = ADVANCED_FACE ( 'NONE', ( #902 ), #931, .T. ) ;
#76 = FACE_OUTER_BOUND ( 'NONE', #195, .T. ) ;
#77 = ORIENTED_EDGE ( 'NONE', *, *, #55, .T. ) ;
#78 = CARTESIAN_POINT ( 'NONE',  ( 30.95100000000001472, 7.284673051414351423E-15, 12.49999999999998224 ) ) ;
#79 = VECTOR ( 'NONE', #635, 999.9999999999998863 ) ;
#80 = CARTESIAN_POINT ( 'NONE',  ( -28.64999999999999858, -16.85999999999956245, -12.49999999999865885 ) ) ;
#81 = VECTOR ( 'NONE', #1015, 1000.000000000000000 ) ;
#82 = ADVANCED_FACE ( 'NONE', ( #389 ), #1051, .F. ) ;
#83 = VECTOR ( 'NONE', #490, 1000.000000000000000 ) ;
#84 = FACE_OUTER_BOUND ( 'NONE', #901, .T. ) ;
#85 = CARTESIAN_POINT ( 'NONE',  ( 30.95100000000001472, -53.34828442116732106, -7.099999999999991651 ) ) ;
#86 = CARTESIAN_POINT ( 'NONE',  ( -32.54999999999999005, -53.34828442116732106, 8.673617379884035472E-15 ) ) ;
#87 = ORIENTED_EDGE ( 'NONE', *, *, #971, .F. ) ;
#88 = EDGE_CURVE ( 'NONE', #1128, #1187, #291, .T. ) ;
#89 = CARTESIAN_POINT ( 'NONE',  ( -32.54999999999999005, -53.34604593830443520, -12.49999999999999289 ) ) ;
#90 = EDGE_CURVE ( 'NONE', #1143, #799, #213, .T. ) ;
#91 = CARTESIAN_POINT ( 'NONE',  ( 0.9000000000000356604, -0.9000000000000356604, 28.05000000000000071 ) ) ;
#92 = ORIENTED_EDGE ( 'NONE', *, *, #180, .F. ) ;
#93 = VERTEX_POINT ( 'NONE', #303 ) ;
#94 = DIRECTION ( 'NONE',  ( 0.000000000000000000, 0.000000000000000000, 1.000000000000000000 ) ) ;
#95 = DIRECTION ( 'NONE',  ( -0.000000000000000000, 0.000000000000000000, -1.000000000000000000 ) ) ;
#96 = CARTESIAN_POINT ( 'NONE',  ( 30.95100000000001472, -53.34604593830443520, 1.040834085586084257E-14 ) ) ;
#97 = ORIENTED_EDGE ( 'NONE', *, *, #1181, .T. ) ;
#98 = ORIENTED_EDGE ( 'NONE', *, *, #907, .T. ) ;
#99 = AXIS2_PLACEMENT_3D ( 'NONE', #100, #369, #737 ) ;
#100 = CARTESIAN_POINT ( 'NONE',  ( -32.54999999999999005, -53.34604593830443520, 1.040834085586084257E-14 ) ) ;
#101 = DIRECTION ( 'NONE',  ( -1.000000000000000000, -0.000000000000000000, -0.000000000000000000 ) ) ;
#102 = EDGE_CURVE ( 'NONE', #954, #371, #802, .T. ) ;
#103 = DIRECTION ( 'NONE',  ( -1.000000000000000000, -0.000000000000000000, -0.000000000000000000 ) ) ;
#104 = ORIENTED_EDGE ( 'NONE', *, *, #32, .T. ) ;
#105 = VERTEX_POINT ( 'NONE', #571 ) ;
#106 = FACE_OUTER_BOUND ( 'NONE', #580, .T. ) ;
#107 = PLANE ( 'NONE',  #66 ) ;
#108 = LINE ( 'NONE', #484, #858 ) ;
#109 = CARTESIAN_POINT ( 'NONE',  ( -32.54999999999999005, -44.41604593830443548, -12.49999999999999112 ) ) ;
#110 = ORIENTED_EDGE ( 'NONE', *, *, #1089, .T. ) ;
#111 = EDGE_CURVE ( 'NONE', #281, #481, #578, .T. ) ;
#112 = ORIENTED_EDGE ( 'NONE', *, *, #148, .T. ) ;
#113 = LINE ( 'NONE', #1072, #397 ) ;
#114 = DIRECTION ( 'NONE',  ( -0.000000000000000000, 0.000000000000000000, 1.000000000000000000 ) ) ;
#115 = EDGE_CURVE ( 'NONE', #173, #105, #948, .T. ) ;
#116 = DIRECTION ( 'NONE',  ( 1.000000000000000000, 0.000000000000000000, 0.000000000000000000 ) ) ;
#117 = DIRECTION ( 'NONE',  ( 0.000000000000000000, 0.000000000000000000, 1.000000000000000000 ) ) ;
#118 = VERTEX_POINT ( 'NONE', #394 ) ;
#119 = ORIENTED_EDGE ( 'NONE', *, *, #651, .F. ) ;
#120 = CARTESIAN_POINT ( 'NONE',  ( -30.95001199999999741, -16.85999999999956245, -5.399999999998658318 ) ) ;
#121 = AXIS2_PLACEMENT_3D ( 'NONE', #496, #783, #871 ) ;
#122 = EDGE_CURVE ( 'NONE', #151, #1059, #842, .T. ) ;
#123 = VECTOR ( 'NONE', #1204, 1000.000000000000000 ) ;
#124 = DIRECTION ( 'NONE',  ( -1.438880092385038863E-16, 1.000000000000000000, 0.000000000000000000 ) ) ;
#125 = DIRECTION ( 'NONE',  ( 0.000000000000000000, 0.4226182617406957220, 0.9063077870366517130 ) ) ;
#126 = ORIENTED_EDGE ( 'NONE', *, *, #417, .F. ) ;
#127 = ORIENTED_EDGE ( 'NONE', *, *, #1177, .T. ) ;
#128 = CARTESIAN_POINT ( 'NONE',  ( -28.64999999999999503, -23.34828442116732106, -24.45000000000000639 ) ) ;
#129 = CARTESIAN_POINT ( 'NONE',  ( -32.54999999999999005, -34.35000000000005826, -26.55000000000000071 ) ) ;
#130 = ADVANCED_FACE ( 'NONE', ( #953 ), #1142, .T. ) ;
#131 = ADVANCED_FACE ( 'NONE', ( #1206, #383 ), #751, .T. ) ;
#132 = CARTESIAN_POINT ( 'NONE',  ( -28.64999999999999503, -23.34828442116732106, -28.05000000000000426 ) ) ;
#133 = EDGE_LOOP ( 'NONE', ( #53, #636, #941, #464 ) ) ;
#134 = CARTESIAN_POINT ( 'NONE',  ( -32.74999999999998579, -23.34828442116732106, 24.55000000000000426 ) ) ;
#135 = ORIENTED_EDGE ( 'NONE', *, *, #702, .T. ) ;
#136 = DIRECTION ( 'NONE',  ( 1.000000000000000000, 0.000000000000000000, 0.000000000000000000 ) ) ;
#137 =( LENGTH_UNIT ( ) NAMED_UNIT ( * ) SI_UNIT ( .MILLI., .METRE. ) );
#138 = DIRECTION ( 'NONE',  ( 1.000000000000000000, 0.000000000000000000, 0.000000000000000000 ) ) ;
#139 = EDGE_LOOP ( 'NONE', ( #431, #288, #449, #814 ) ) ;
#140 = ORIENTED_EDGE ( 'NONE', *, *, #1166, .T. ) ;
#141 = CARTESIAN_POINT ( 'NONE',  ( -36.54999999999999005, -36.66231780524625350, 28.05000000000000071 ) ) ;
#142 = AXIS2_PLACEMENT_3D ( 'NONE', #701, #1077, #609 ) ;
#143 = AXIS2_PLACEMENT_3D ( 'NONE', #739, #835, #1112 ) ;
#144 = FACE_BOUND ( 'NONE', #324, .T. ) ;
#145 = ORIENTED_EDGE ( 'NONE', *, *, #402, .F. ) ;
#146 = EDGE_CURVE ( 'NONE', #58, #848, #376, .T. ) ;
#147 = EDGE_LOOP ( 'NONE', ( #1024, #448, #1008, #969, #127, #763, #509, #194 ) ) ;
#148 = EDGE_CURVE ( 'NONE', #1187, #523, #480, .T. ) ;
#149 = LINE ( 'NONE', #528, #821 ) ;
#150 = CARTESIAN_POINT ( 'NONE',  ( 0.000000000000000000, -37.61792319645750382, -28.05000000000000071 ) ) ;
#151 = VERTEX_POINT ( 'NONE', #109 ) ;
#152 = ORIENTED_EDGE ( 'NONE', *, *, #605, .F. ) ;
#153 = VECTOR ( 'NONE', #221, 1000.000000000000000 ) ;
#154 = LINE ( 'NONE', #710, #1106 ) ;
#155 = LINE ( 'NONE', #810, #1114 ) ;
#156 = EDGE_CURVE ( 'NONE', #58, #254, #485, .T. ) ;
#157 = FACE_OUTER_BOUND ( 'NONE', #808, .T. ) ;
#158 = ORIENTED_EDGE ( 'NONE', *, *, #924, .T. ) ;
#159 = CARTESIAN_POINT ( 'NONE',  ( -36.54999999999999005, -27.14828442116734664, -28.05000000000000071 ) ) ;
#160 = EDGE_CURVE ( 'NONE', #1122, #210, #20, .T. ) ;
#161 = DIRECTION ( 'NONE',  ( -0.7071067811865475727, 0.7071067811865475727, -0.000000000000000000 ) ) ;
#162 = CARTESIAN_POINT ( 'NONE',  ( -36.54999999999999005, -36.66231780524625350, 28.05000000000000071 ) ) ;
#163 = VECTOR ( 'NONE', #374, 1000.000000000000000 ) ;
#164 = CARTESIAN_POINT ( 'NONE',  ( -31.94999999999998508, -33.75000000000004263, -28.05000000000000071 ) ) ;
#165 = CARTESIAN_POINT ( 'NONE',  ( -30.95001199999999741, -16.85999999999956245, -12.49999999999865885 ) ) ;
#166 = VECTOR ( 'NONE', #1087, 1000.000000000000000 ) ;
#167 = CARTESIAN_POINT ( 'NONE',  ( -28.64999999999999503, -23.34828442116732106, -24.45000000000000639 ) ) ;
#168 = ADVANCED_FACE ( 'NONE', ( #940 ), #743, .F. ) ;
#169 = DIRECTION ( 'NONE',  ( -1.000000000000000000, -0.000000000000000000, -0.000000000000000000 ) ) ;
#170 = DIRECTION ( 'NONE',  ( 1.000000000000000000, 0.000000000000000000, 0.000000000000000000 ) ) ;
#171 = UNCERTAINTY_MEASURE_WITH_UNIT (LENGTH_MEASURE( 1.000000000000000082E-05 ), #137, 'distance_accuracy_value', 'NONE');
#172 = LINE ( 'NONE', #85, #570 ) ;
#173 = VERTEX_POINT ( 'NONE', #559 ) ;
#174 = CARTESIAN_POINT ( 'NONE',  ( -36.54999999999999005, -44.41604593830442127, 12.50000000000000355 ) ) ;
#175 = PLANE ( 'NONE',  #45 ) ;
#176 = CARTESIAN_POINT ( 'NONE',  ( -32.54999999999999005, -36.66231780524625350, -28.05000000000000071 ) ) ;
#177 = EDGE_CURVE ( 'NONE', #595, #585, #285, .T. ) ;
#178 = ORIENTED_EDGE ( 'NONE', *, *, #225, .F. ) ;
#179 = ORIENTED_EDGE ( 'NONE', *, *, #316, .T. ) ;
#180 = EDGE_CURVE ( 'NONE', #333, #1127, #188, .T. ) ;
#181 = CARTESIAN_POINT ( 'NONE',  ( -30.95001199999999741, -16.85999999999956245, -12.49999999999865885 ) ) ;
#182 = VECTOR ( 'NONE', #921, 1000.000000000000000 ) ;
#183 = CARTESIAN_POINT ( 'NONE',  ( -32.54999999999999005, -36.66231780524625350, -26.55000000000000071 ) ) ;
#184 = ADVANCED_FACE ( 'NONE', ( #1064 ), #594, .T. ) ;
#185 = CIRCLE ( 'NONE', #308, 1.500000000000004885 ) ;
#186 = CARTESIAN_POINT ( 'NONE',  ( -36.54999999999999005, -39.24999999999997868, 24.54999999999999716 ) ) ;
#187 = CARTESIAN_POINT ( 'NONE',  ( -32.74999999999998579, -16.85999999999956245, -12.49999999999865885 ) ) ;
#188 = LINE ( 'NONE', #860, #823 ) ;
#189 = ORIENTED_EDGE ( 'NONE', *, *, #454, .T. ) ;
#190 = ORIENTED_EDGE ( 'NONE', *, *, #645, .F. ) ;
#191 = EDGE_CURVE ( 'NONE', #646, #848, #415, .T. ) ;
#192 = DIRECTION ( 'NONE',  ( 1.000000000000000000, -0.000000000000000000, -0.000000000000000000 ) ) ;
#193 = DIRECTION ( 'NONE',  ( -1.000000000000000000, -0.000000000000000000, -0.000000000000000000 ) ) ;
#194 = ORIENTED_EDGE ( 'NONE', *, *, #892, .T. ) ;
#195 = EDGE_LOOP ( 'NONE', ( #104, #158, #950, #679, #744, #216, #691, #1035 ) ) ;
#196 = ADVANCED_FACE ( 'NONE', ( #873 ), #792, .T. ) ;
#197 = CARTESIAN_POINT ( 'NONE',  ( -32.54999999999999005, -39.24999999999997868, 24.55000000000000071 ) ) ;
#198 = LINE ( 'NONE', #207, #880 ) ;
#199 = DIRECTION ( 'NONE',  ( 0.000000000000000000, -0.000000000000000000, 1.000000000000000000 ) ) ;
#200 = ORIENTED_EDGE ( 'NONE', *, *, #813, .T. ) ;
#201 = VECTOR ( 'NONE', #101, 1000.000000000000000 ) ;
#202 = VERTEX_POINT ( 'NONE', #327 ) ;
#203 = VECTOR ( 'NONE', #632, 1000.000000000000000 ) ;
#204 = VECTOR ( 'NONE', #909, 1000.000000000000000 ) ;
#205 = CARTESIAN_POINT ( 'NONE',  ( 0.9000000000000356604, -0.9000000000000356604, -28.05000000000000071 ) ) ;
#206 = EDGE_CURVE ( 'NONE', #875, #390, #500, .T. ) ;
#207 = CARTESIAN_POINT ( 'NONE',  ( -31.94999999999998508, -33.75000000000002842, 0.000000000000000000 ) ) ;
#208 = DIRECTION ( 'NONE',  ( 0.000000000000000000, 0.000000000000000000, -1.000000000000000000 ) ) ;
#209 = ORIENTED_EDGE ( 'NONE', *, *, #832, .T. ) ;
#210 = VERTEX_POINT ( 'NONE', #514 ) ;
#211 = CARTESIAN_POINT ( 'NONE',  ( -31.89999999999999147, 0.000000000000000000, -24.55000000000000426 ) ) ;
#212 = CARTESIAN_POINT ( 'NONE',  ( -28.64999999999999503, -23.34828442116732106, 24.45000000000000639 ) ) ;
#213 = LINE ( 'NONE', #14, #1138 ) ;
#214 = ORIENTED_EDGE ( 'NONE', *, *, #300, .F. ) ;
#215 = EDGE_CURVE ( 'NONE', #1090, #202, #868, .T. ) ;
#216 = ORIENTED_EDGE ( 'NONE', *, *, #986, .T. ) ;
#217 = CARTESIAN_POINT ( 'NONE',  ( -28.64999999999999858, -16.85999999999956245, -5.399999999998658318 ) ) ;
#218 = PLANE ( 'NONE',  #518 ) ;
#219 = CARTESIAN_POINT ( 'NONE',  ( -32.54999999999999005, -53.34604593830443520, 12.50000000000001243 ) ) ;
#220 = EDGE_LOOP ( 'NONE', ( #70, #553, #889, #956 ) ) ;
#221 = DIRECTION ( 'NONE',  ( 1.000000000000000000, 0.000000000000000000, 0.000000000000000000 ) ) ;
#222 = CARTESIAN_POINT ( 'NONE',  ( -36.54999999999999005, -53.34604593830443520, 12.50000000000001243 ) ) ;
#223 = ORIENTED_EDGE ( 'NONE', *, *, #986, .F. ) ;
#224 = LINE ( 'NONE', #1150, #628 ) ;
#225 = EDGE_CURVE ( 'NONE', #468, #411, #906, .T. ) ;
#226 = DIRECTION ( 'NONE',  ( 1.000000000000000000, 0.000000000000000000, 0.000000000000000000 ) ) ;
#227 = VECTOR ( 'NONE', #269, 1000.000000000000000 ) ;
#228 = EDGE_CURVE ( 'NONE', #585, #538, #1074, .T. ) ;
#229 = DIRECTION ( 'NONE',  ( 0.000000000000000000, 0.000000000000000000, 1.000000000000000000 ) ) ;
#230 = ORIENTED_EDGE ( 'NONE', *, *, #439, .F. ) ;
#231 = VERTEX_POINT ( 'NONE', #234 ) ;
#232 = CARTESIAN_POINT ( 'NONE',  ( -32.54999999999999005, -36.66231780524625350, 28.05000000000000071 ) ) ;
#233 = FACE_OUTER_BOUND ( 'NONE', #39, .T. ) ;
#234 = CARTESIAN_POINT ( 'NONE',  ( -32.54999999999999005, -36.66231780524625350, -28.05000000000000071 ) ) ;
#235 = ORIENTED_EDGE ( 'NONE', *, *, #678, .T. ) ;
#236 = VERTEX_POINT ( 'NONE', #1171 ) ;
#237 = CARTESIAN_POINT ( 'NONE',  ( 0.000000000000000000, 0.000000000000000000, 24.55000000000000426 ) ) ;
#238 = DIRECTION ( 'NONE',  ( 0.000000000000000000, 0.000000000000000000, 1.000000000000000000 ) ) ;
#239 = CARTESIAN_POINT ( 'NONE',  ( -36.54999999999999005, -38.02177948580123257, -27.18392739261104651 ) ) ;
#240 = EDGE_LOOP ( 'NONE', ( #978, #844, #911, #276 ) ) ;
#241 = EDGE_LOOP ( 'NONE', ( #923, #706, #292, #890 ) ) ;
#242 = CIRCLE ( 'NONE', #42, 7.100000000000001421 ) ;
#243 = AXIS2_PLACEMENT_3D ( 'NONE', #296, #1119, #1043 ) ;
#244 = PRODUCT ( 'Hip-pulley-housing-wall-left', 'Hip-pulley-housing-wall-left', '', ( #908 ) ) ;
#245 = DIRECTION ( 'NONE',  ( 0.000000000000000000, 0.000000000000000000, 1.000000000000000000 ) ) ;
#246 = EDGE_CURVE ( 'NONE', #1059, #1133, #682, .T. ) ;
#247 = DIRECTION ( 'NONE',  ( -0.000000000000000000, -0.000000000000000000, 1.000000000000000000 ) ) ;
#248 = EDGE_LOOP ( 'NONE', ( #21, #561, #1014, #286 ) ) ;
#249 = VECTOR ( 'NONE', #777, 1000.000000000000227 ) ;
#250 = ORIENTED_EDGE ( 'NONE', *, *, #705, .F. ) ;
#251 = APPLICATION_CONTEXT ( 'automotive_design' ) ;
#252 = APPLICATION_PROTOCOL_DEFINITION ( 'draft international standard', 'automotive_design', 1998, #638 ) ;
#253 = PLANE ( 'NONE',  #326 ) ;
#254 = VERTEX_POINT ( 'NONE', #703 ) ;
#255 = CARTESIAN_POINT ( 'NONE',  ( -32.74999999999998579, -23.34828442116732106, -28.05000000000000071 ) ) ;
#256 = ORIENTED_EDGE ( 'NONE', *, *, #1139, .F. ) ;
#257 = VECTOR ( 'NONE', #760, 1000.000000000000000 ) ;
#258 = CARTESIAN_POINT ( 'NONE',  ( -31.89999999999999147, 0.000000000000000000, 27.20000000000000284 ) ) ;
#259 = CARTESIAN_POINT ( 'NONE',  ( -28.64999999999999503, -38.41145406905854287, -28.05000000000000071 ) ) ;
#260 = CARTESIAN_POINT ( 'NONE',  ( -28.64999999999999503, -30.45000000000000284, -28.05000000000000071 ) ) ;
#261 = ORIENTED_EDGE ( 'NONE', *, *, #1030, .F. ) ;
#262 = CARTESIAN_POINT ( 'NONE',  ( -32.74999999999998579, -23.34828442116732106, -15.38308259854344406 ) ) ;
#263 = EDGE_CURVE ( 'NONE', #5, #93, #1079, .T. ) ;
#264 = DIRECTION ( 'NONE',  ( -1.000000000000000000, -0.000000000000000000, -0.000000000000000000 ) ) ;
#265 = ADVANCED_FACE ( 'NONE', ( #786 ), #508, .T. ) ;
#266 = DIRECTION ( 'NONE',  ( -1.000000000000000000, 0.000000000000000000, 0.000000000000000000 ) ) ;
#267 = COLOUR_RGB ( '',0.7921568627450980005, 0.8196078431372548767, 0.9333333333333333481 ) ;
#268 = DIRECTION ( 'NONE',  ( 0.000000000000000000, 0.000000000000000000, 1.000000000000000000 ) ) ;
#269 = DIRECTION ( 'NONE',  ( 0.000000000000000000, 0.000000000000000000, -1.000000000000000000 ) ) ;
#270 = SURFACE_STYLE_FILL_AREA ( #1100 ) ;
#271 = AXIS2_PLACEMENT_3D ( 'NONE', #441, #266, #447 ) ;
#272 = CARTESIAN_POINT ( 'NONE',  ( -32.74999999999998579, -23.34828442116732106, -28.05000000000000071 ) ) ;
#273 = LINE ( 'NONE', #73, #409 ) ;
#274 = FACE_OUTER_BOUND ( 'NONE', #524, .T. ) ;
#275 = CARTESIAN_POINT ( 'NONE',  ( 0.000000000000000000, -36.66231780524625350, -26.55000000000000071 ) ) ;
#276 = ORIENTED_EDGE ( 'NONE', *, *, #228, .F. ) ;
#277 = AXIS2_PLACEMENT_3D ( 'NONE', #134, #510, #753 ) ;
#278 = PRODUCT_DEFINITION_SHAPE ( 'NONE', 'NONE',  #526 ) ;
#279 = CARTESIAN_POINT ( 'NONE',  ( 0.000000000000000000, 0.000000000000000000, 28.05000000000000071 ) ) ;
#280 = EDGE_CURVE ( 'NONE', #487, #875, #960, .T. ) ;
#281 = VERTEX_POINT ( 'NONE', #317 ) ;
#282 = EDGE_CURVE ( 'NONE', #602, #1071, #697, .T. ) ;
#283 = CARTESIAN_POINT ( 'NONE',  ( -29.49999999999999645, 0.000000000000000000, 27.20000000000000284 ) ) ;
#284 = VECTOR ( 'NONE', #891, 1000.000000000000000 ) ;
#285 = LINE ( 'NONE', #643, #1020 ) ;
#286 = ORIENTED_EDGE ( 'NONE', *, *, #461, .T. ) ;
#288 = ORIENTED_EDGE ( 'NONE', *, *, #599, .T. ) ;
#287 = VECTOR ( 'NONE', #247, 1000.000000000000000 ) ;
#289 = CARTESIAN_POINT ( 'NONE',  ( -29.49999999999999645, -23.34828442116732106, -27.20000000000000284 ) ) ;
#290 = DIRECTION ( 'NONE',  ( 1.000000000000000000, -0.000000000000000000, -0.000000000000000000 ) ) ;
#291 = LINE ( 'NONE', #1033, #905 ) ;
#292 = ORIENTED_EDGE ( 'NONE', *, *, #246, .F. ) ;
#293 = ORIENTED_EDGE ( 'NONE', *, *, #556, .T. ) ;
#294 = CARTESIAN_POINT ( 'NONE',  ( -28.64999999999999503, -23.34828442116732106, 24.45000000000000639 ) ) ;
#295 = DIRECTION ( 'NONE',  ( -0.000000000000000000, 0.000000000000000000, 1.000000000000000000 ) ) ;
#296 = CARTESIAN_POINT ( 'NONE',  ( 0.000000000000000000, -23.34828442116732106, 0.000000000000000000 ) ) ;
#297 = ORIENTED_EDGE ( 'NONE', *, *, #813, .F. ) ;
#298 = EDGE_LOOP ( 'NONE', ( #92, #671, #552, #46 ) ) ;
#299 = ADVANCED_FACE ( 'NONE', ( #983, #144 ), #773, .T. ) ;
#300 = EDGE_CURVE ( 'NONE', #118, #987, #888, .T. ) ;
#301 = CARTESIAN_POINT ( 'NONE',  ( -29.49999999999999645, -23.34828442116732106, 27.20000000000000284 ) ) ;
#302 = CARTESIAN_POINT ( 'NONE',  ( -32.54999999999999005, -39.24999999999997868, -24.55000000000000071 ) ) ;
#303 = CARTESIAN_POINT ( 'NONE',  ( -36.54999999999999005, -39.24999999999999289, -24.55000000000000071 ) ) ;
#304 = ORIENTED_EDGE ( 'NONE', *, *, #1081, .T. ) ;
#305 = AXIS2_PLACEMENT_3D ( 'NONE', #845, #12, #1048 ) ;
#306 = ORIENTED_EDGE ( 'NONE', *, *, #822, .F. ) ;
#307 = PLANE ( 'NONE',  #1005 ) ;
#308 = AXIS2_PLACEMENT_3D ( 'NONE', #630, #170, #359 ) ;
#309 = VECTOR ( 'NONE', #1073, 1000.000000000000114 ) ;
#310 = CARTESIAN_POINT ( 'NONE',  ( -32.54999999999999005, -33.75000000000004263, 28.05000000000000071 ) ) ;
#311 = ORIENTED_EDGE ( 'NONE', *, *, #475, .T. ) ;
#312 = ORIENTED_EDGE ( 'NONE', *, *, #1164, .F. ) ;
#313 = DIRECTION ( 'NONE',  ( -1.000000000000000000, -0.000000000000000000, 0.000000000000000000 ) ) ;
#314 = CARTESIAN_POINT ( 'NONE',  ( -36.54999999999999005, -36.66231780524625350, 26.55000000000000071 ) ) ;
#315 = CARTESIAN_POINT ( 'NONE',  ( -31.89999999999999147, -23.34828442116732106, -27.20000000000000284 ) ) ;
#316 = EDGE_CURVE ( 'NONE', #118, #555, #767, .T. ) ;
#317 = CARTESIAN_POINT ( 'NONE',  ( -31.89999999999999147, -23.34828442116732106, -27.20000000000000284 ) ) ;
#318 = ORIENTED_EDGE ( 'NONE', *, *, #1107, .T. ) ;
#319 = ORIENTED_EDGE ( 'NONE', *, *, #883, .F. ) ;
#320 = CARTESIAN_POINT ( 'NONE',  ( 0.000000000000000000, 0.000000000000000000, -28.05000000000000071 ) ) ;
#321 = DIRECTION ( 'NONE',  ( 0.000000000000000000, 0.000000000000000000, 1.000000000000000000 ) ) ;
#322 = CARTESIAN_POINT ( 'NONE',  ( -31.94999999999998508, -36.66231780524625350, 28.05000000000000071 ) ) ;
#323 = ORIENTED_EDGE ( 'NONE', *, *, #90, .T. ) ;
#324 = EDGE_LOOP ( 'NONE', ( #572, #178 ) ) ;
#325 = VECTOR ( 'NONE', #525, 1000.000000000000000 ) ;
#326 = AXIS2_PLACEMENT_3D ( 'NONE', #74, #1179, #1003 ) ;
#327 = CARTESIAN_POINT ( 'NONE',  ( -28.64999999999999503, -23.34828442116732106, -28.05000000000000426 ) ) ;
#328 = ORIENTED_EDGE ( 'NONE', *, *, #426, .F. ) ;
#329 = ORIENTED_EDGE ( 'NONE', *, *, #263, .F. ) ;
#330 = DIRECTION ( 'NONE',  ( 0.000000000000000000, -0.000000000000000000, 1.000000000000000000 ) ) ;
#331 = DIRECTION ( 'NONE',  ( 0.000000000000000000, 0.000000000000000000, -1.000000000000000000 ) ) ;
#332 = ORIENTED_EDGE ( 'NONE', *, *, #24, .T. ) ;
#333 = VERTEX_POINT ( 'NONE', #219 ) ;
#334 = ADVANCED_FACE ( 'NONE', ( #588 ), #818, .F. ) ;
#335 = CARTESIAN_POINT ( 'NONE',  ( 0.000000000000000000, -36.66231780524625350, 26.55000000000000071 ) ) ;
#336 = VERTEX_POINT ( 'NONE', #68 ) ;
#337 = ADVANCED_FACE ( 'NONE', ( #1007 ), #253, .F. ) ;
#338 = VERTEX_POINT ( 'NONE', #535 ) ;
#339 = LINE ( 'NONE', #444, #284 ) ;
#340 = AXIS2_PLACEMENT_3D ( 'NONE', #212, #959, #116 ) ;
#341 = AXIS2_PLACEMENT_3D ( 'NONE', #335, #779, #229 ) ;
#342 = CARTESIAN_POINT ( 'NONE',  ( 0.000000000000000000, 0.000000000000000000, 0.000000000000000000 ) ) ;
#343 = VECTOR ( 'NONE', #13, 1000.000000000000000 ) ;
#344 = CARTESIAN_POINT ( 'NONE',  ( -30.95001199999999741, -16.85999999999956245, -19.59999999999865494 ) ) ;
#345 = EDGE_CURVE ( 'NONE', #646, #338, #546, .T. ) ;
#346 = ORIENTED_EDGE ( 'NONE', *, *, #88, .F. ) ;
#347 = CARTESIAN_POINT ( 'NONE',  ( -32.74999999999998579, -23.34828442116732106, -28.05000000000000071 ) ) ;
#348 = APPLICATION_PROTOCOL_DEFINITION ( 'draft international standard', 'automotive_design', 1998, #251 ) ;
#349 = CARTESIAN_POINT ( 'NONE',  ( -29.49999999999999645, -23.34828442116732106, -27.20000000000000284 ) ) ;
#350 = EDGE_CURVE ( 'NONE', #210, #418, #620, .T. ) ;
#351 = CARTESIAN_POINT ( 'NONE',  ( -29.49999999999999645, -23.34828442116732106, -24.45000000000000639 ) ) ;
#352 = LINE ( 'NONE', #700, #325 ) ;
#353 = EDGE_CURVE ( 'NONE', #418, #1187, #917, .T. ) ;
#354 = CARTESIAN_POINT ( 'NONE',  ( -29.49999999999999645, -23.34828442116732106, 27.20000000000000284 ) ) ;
#355 = DIRECTION ( 'NONE',  ( 0.7071067811865417996, 0.7071067811865532349, -0.000000000000000000 ) ) ;
#356 = ORIENTED_EDGE ( 'NONE', *, *, #1123, .F. ) ;
#357 = MECHANICAL_DESIGN_GEOMETRIC_PRESENTATION_REPRESENTATION (  '', ( #437 ), #708 ) ;
#358 = LINE ( 'NONE', #354, #831 ) ;
#359 = DIRECTION ( 'NONE',  ( 0.000000000000000000, 0.000000000000000000, -1.000000000000000000 ) ) ;
#360 = CIRCLE ( 'NONE', #1037, 1.500000000000001332 ) ;
#361 = LINE ( 'NONE', #176, #182 ) ;
#362 = DIRECTION ( 'NONE',  ( 1.000000000000000000, 0.000000000000000000, 0.000000000000000000 ) ) ;
#363 = VECTOR ( 'NONE', #1124, 1000.000000000000000 ) ;
#364 = LINE ( 'NONE', #900, #204 ) ;
#365 = ADVANCED_BREP_SHAPE_REPRESENTATION ( 'Hip-pulley-housing-wall-left', ( #915, #734 ), #428 ) ;
#366 = LINE ( 'NONE', #1203, #726 ) ;
#367 = DIRECTION ( 'NONE',  ( 0.000000000000000000, 0.000000000000000000, -1.000000000000000000 ) ) ;
#368 = CIRCLE ( 'NONE', #582, 7.099999999999996980 ) ;
#369 = DIRECTION ( 'NONE',  ( 1.000000000000000000, 0.000000000000000000, 0.000000000000000000 ) ) ;
#370 = DIRECTION ( 'NONE',  ( 1.000000000000000000, 0.000000000000000000, 0.000000000000000000 ) ) ;
#371 = VERTEX_POINT ( 'NONE', #1202 ) ;
#372 = ADVANCED_FACE ( 'NONE', ( #716 ), #61, .T. ) ;
#373 = DIRECTION ( 'NONE',  ( 0.000000000000000000, -0.9063077870366516020, 0.4226182617406959441 ) ) ;
#374 = DIRECTION ( 'NONE',  ( -0.000000000000000000, 1.000000000000000000, -0.000000000000000000 ) ) ;
#375 = AXIS2_PLACEMENT_3D ( 'NONE', #674, #1057, #124 ) ;
#376 = LINE ( 'NONE', #310, #1115 ) ;
#377 = EDGE_LOOP ( 'NONE', ( #855, #503, #250, #1067 ) ) ;
#378 = AXIS2_PLACEMENT_3D ( 'NONE', #86, #847, #208 ) ;
#380 = ORIENTED_EDGE ( 'NONE', *, *, #2, .T. ) ;
#379 = VECTOR ( 'NONE', #977, 1000.000000000000000 ) ;
#381 = CARTESIAN_POINT ( 'NONE',  ( -31.94999999999998508, -38.02177948580123257, -27.18392739261104651 ) ) ;
#382 = CARTESIAN_POINT ( 'NONE',  ( 30.95100000000001472, -44.41604593830443548, 12.50000000000000711 ) ) ;
#383 = FACE_BOUND ( 'NONE', #754, .T. ) ;
#384 = ORIENTED_EDGE ( 'NONE', *, *, #513, .T. ) ;
#385 = ADVANCED_FACE ( 'NONE', ( #274 ), #1189, .F. ) ;
#386 = EDGE_LOOP ( 'NONE', ( #356, #745, #794, #423, #223, #1174 ) ) ;
#387 = CARTESIAN_POINT ( 'NONE',  ( -36.54999999999999005, -36.66231780524625350, -26.55000000000000071 ) ) ;
#388 = CARTESIAN_POINT ( 'NONE',  ( -32.74999999999998579, -16.85999999999956245, -12.49999999999865885 ) ) ;
#389 = FACE_OUTER_BOUND ( 'NONE', #433, .T. ) ;
#390 = VERTEX_POINT ( 'NONE', #541 ) ;
#391 = ORIENTED_EDGE ( 'NONE', *, *, #353, .T. ) ;
#392 = EDGE_CURVE ( 'NONE', #390, #236, #364, .T. ) ;
#393 = PLANE ( 'NONE',  #988 ) ;
#394 = CARTESIAN_POINT ( 'NONE',  ( -28.64999999999999503, 0.000000000000000000, -24.45000000000000639 ) ) ;
#395 = ORIENTED_EDGE ( 'NONE', *, *, #557, .F. ) ;
#396 = LINE ( 'NONE', #862, #1053 ) ;
#397 = VECTOR ( 'NONE', #1061, 1000.000000000000000 ) ;
#398 = ORIENTED_EDGE ( 'NONE', *, *, #88, .T. ) ;
#399 = FACE_OUTER_BOUND ( 'NONE', #147, .T. ) ;
#400 = AXIS2_PLACEMENT_3D ( 'NONE', #1132, #467, #662 ) ;
#401 = LINE ( 'NONE', #765, #249 ) ;
#402 = EDGE_CURVE ( 'NONE', #935, #202, #806, .T. ) ;
#403 = DIRECTION ( 'NONE',  ( 1.000000000000000000, 0.000000000000000000, 0.000000000000000000 ) ) ;
#404 = EDGE_LOOP ( 'NONE', ( #35, #606, #614, #1044 ) ) ;
#405 = DIRECTION ( 'NONE',  ( 0.000000000000000000, 0.000000000000000000, 1.000000000000000000 ) ) ;
#406 = ORIENTED_EDGE ( 'NONE', *, *, #599, .F. ) ;
#407 = DIRECTION ( 'NONE',  ( -0.000000000000000000, 1.000000000000000000, -0.000000000000000000 ) ) ;
#408 = DIRECTION ( 'NONE',  ( -1.000000000000000000, 0.000000000000000000, 0.000000000000000000 ) ) ;
#409 = VECTOR ( 'NONE', #805, 1000.000000000000000 ) ;
#410 = CARTESIAN_POINT ( 'NONE',  ( -29.49999999999999645, -23.34828442116732106, 27.20000000000000284 ) ) ;
#411 = VERTEX_POINT ( 'NONE', #998 ) ;
#412 = VERTEX_POINT ( 'NONE', #624 ) ;
#413 = LINE ( 'NONE', #686, #640 ) ;
#414 = CARTESIAN_POINT ( 'NONE',  ( -32.74999999999998579, -23.34828442116732106, -24.55000000000000426 ) ) ;
#415 = LINE ( 'NONE', #322, #1182 ) ;
#416 = ORIENTED_EDGE ( 'NONE', *, *, #115, .F. ) ;
#417 = EDGE_CURVE ( 'NONE', #1133, #1127, #521, .T. ) ;
#418 = VERTEX_POINT ( 'NONE', #457 ) ;
#419 = PLANE ( 'NONE',  #121 ) ;
#420 = PRESENTATION_LAYER_ASSIGNMENT (  '', '', ( #437 ) ) ;
#421 = AXIS2_PLACEMENT_3D ( 'NONE', #1058, #27, #690 ) ;
#422 = CARTESIAN_POINT ( 'NONE',  ( -36.54999999999999005, -44.41604593830443548, -12.49999999999999112 ) ) ;
#423 = ORIENTED_EDGE ( 'NONE', *, *, #475, .F. ) ;
#424 = ORIENTED_EDGE ( 'NONE', *, *, #24, .F. ) ;
#425 = DIRECTION ( 'NONE',  ( 0.000000000000000000, 0.3940327209102232886, 0.9190964121636456818 ) ) ;
#426 = EDGE_CURVE ( 'NONE', #949, #935, #432, .T. ) ;
#427 = FACE_OUTER_BOUND ( 'NONE', #241, .T. ) ;
#428 =( GEOMETRIC_REPRESENTATION_CONTEXT ( 3 ) GLOBAL_UNCERTAINTY_ASSIGNED_CONTEXT ( ( #938 ) ) GLOBAL_UNIT_ASSIGNED_CONTEXT ( ( #623, #1178, #540 ) ) REPRESENTATION_CONTEXT ( 'NONE', 'WORKASPACE' ) );
#429 = DIRECTION ( 'NONE',  ( -1.000000000000000000, 0.000000000000000000, 0.000000000000000000 ) ) ;
#430 = ORIENTED_EDGE ( 'NONE', *, *, #246, .T. ) ;
#431 = ORIENTED_EDGE ( 'NONE', *, *, #353, .F. ) ;
#432 = LINE ( 'NONE', #730, #709 ) ;
#433 = EDGE_LOOP ( 'NONE', ( #1023, #57, #119, #621 ) ) ;
#434 = LINE ( 'NONE', #1109, #438 ) ;
#435 = CARTESIAN_POINT ( 'NONE',  ( -29.49999999999999645, -23.34828442116732106, 24.45000000000000639 ) ) ;
#436 = DIRECTION ( 'NONE',  ( 0.7071067811865417996, 0.7071067811865532349, 0.000000000000000000 ) ) ;
#437 = STYLED_ITEM ( 'NONE', ( #1009 ), #915 ) ;
#438 = VECTOR ( 'NONE', #631, 1000.000000000000114 ) ;
#439 = EDGE_CURVE ( 'NONE', #836, #412, #729, .T. ) ;
#440 = CIRCLE ( 'NONE', #99, 12.50000000000000178 ) ;
#441 = CARTESIAN_POINT ( 'NONE',  ( -36.54999999999999005, -53.34604593830443520, 1.040834085586084257E-14 ) ) ;
#442 = CARTESIAN_POINT ( 'NONE',  ( -32.74999999999998579, -23.34828442116732106, -9.616917401453875414 ) ) ;
#443 = ORIENTED_EDGE ( 'NONE', *, *, #688, .F. ) ;
#444 = CARTESIAN_POINT ( 'NONE',  ( -28.64999999999999503, -23.34828442116732106, -28.05000000000000426 ) ) ;
#445 = LINE ( 'NONE', #167, #925 ) ;
#446 = DIRECTION ( 'NONE',  ( 0.000000000000000000, 0.000000000000000000, 1.000000000000000000 ) ) ;
#447 = DIRECTION ( 'NONE',  ( 0.000000000000000000, 0.000000000000000000, 1.000000000000000000 ) ) ;
#448 = ORIENTED_EDGE ( 'NONE', *, *, #1121, .T. ) ;
#449 = ORIENTED_EDGE ( 'NONE', *, *, #1164, .T. ) ;
#450 = CARTESIAN_POINT ( 'NONE',  ( -28.64999999999999503, -30.45000000000000284, 28.05000000000000071 ) ) ;
#451 = FACE_OUTER_BOUND ( 'NONE', #1148, .T. ) ;
#452 = DIRECTION ( 'NONE',  ( 0.000000000000000000, 1.000000000000000000, 0.000000000000000000 ) ) ;
#453 = PLANE ( 'NONE',  #1102 ) ;
#454 = EDGE_CURVE ( 'NONE', #848, #877, #185, .T. ) ;
#455 = DIRECTION ( 'NONE',  ( 0.000000000000000000, 0.000000000000000000, 1.000000000000000000 ) ) ;
#456 = VECTOR ( 'NONE', #719, 1000.000000000000000 ) ;
#457 = CARTESIAN_POINT ( 'NONE',  ( -31.89999999999999147, -23.34828442116732106, 27.20000000000000284 ) ) ;
#458 = CIRCLE ( 'NONE', #610, 1.500000000000001332 ) ;
#459 = LINE ( 'NONE', #723, #227 ) ;
#460 = AXIS2_PLACEMENT_3D ( 'NONE', #597, #114, #226 ) ;
#461 = EDGE_CURVE ( 'NONE', #281, #1143, #990, .T. ) ;
#462 = CYLINDRICAL_SURFACE ( 'NONE', #611, 7.100000000000000533 ) ;
#463 = DIRECTION ( 'NONE',  ( -0.7071067811865460184, -0.7071067811865490160, -0.000000000000000000 ) ) ;
#464 = ORIENTED_EDGE ( 'NONE', *, *, #695, .F. ) ;
#465 = VECTOR ( 'NONE', #245, 1000.000000000000000 ) ;
#466 = CARTESIAN_POINT ( 'NONE',  ( -32.74999999999998579, 0.000000000000000000, 24.55000000000000426 ) ) ;
#467 = DIRECTION ( 'NONE',  ( 1.000000000000000000, 0.000000000000000000, 0.000000000000000000 ) ) ;
#468 = VERTEX_POINT ( 'NONE', #1011 ) ;
#469 = ORIENTED_EDGE ( 'NONE', *, *, #489, .T. ) ;
#470 = DIRECTION ( 'NONE',  ( 0.000000000000000000, 0.4226182617406966657, -0.9063077870366513800 ) ) ;
#471 = ADVANCED_FACE ( 'NONE', ( #157 ), #175, .F. ) ;
#472 = CARTESIAN_POINT ( 'NONE',  ( -32.74999999999998579, -16.85999999999956245, -5.399999999998660982 ) ) ;
#473 = AXIS2_PLACEMENT_3D ( 'NONE', #320, #776, #975 ) ;
#474 = DIRECTION ( 'NONE',  ( 1.000000000000000000, 0.000000000000000000, 0.000000000000000000 ) ) ;
#475 = EDGE_CURVE ( 'NONE', #501, #412, #896, .T. ) ;
#476 = ORIENTED_EDGE ( 'NONE', *, *, #1121, .F. ) ;
#478 = VERTEX_POINT ( 'NONE', #18 ) ;
#477 = VECTOR ( 'NONE', #634, 1000.000000000000000 ) ;
#479 = DIRECTION ( 'NONE',  ( 1.000000000000000000, 0.000000000000000000, 0.000000000000000000 ) ) ;
#480 = LINE ( 'NONE', #934, #1197 ) ;
#481 = VERTEX_POINT ( 'NONE', #839 ) ;
#482 = ORIENTED_EDGE ( 'NONE', *, *, #1045, .T. ) ;
#483 = CARTESIAN_POINT ( 'NONE',  ( -32.74999999999998579, -16.85999999999956245, -19.59999999999865494 ) ) ;
#484 = CARTESIAN_POINT ( 'NONE',  ( -28.64999999999999503, -20.61213394580206781, 28.05000000000000071 ) ) ;
#485 = LINE ( 'NONE', #91, #661 ) ;
#486 = EDGE_LOOP ( 'NONE', ( #575, #395, #544, #482, #293, #782, #1183, #1083 ) ) ;
#487 = VERTEX_POINT ( 'NONE', #301 ) ;
#488 = DIRECTION ( 'NONE',  ( 0.000000000000000000, 1.000000000000000000, 0.000000000000000000 ) ) ;
#489 = EDGE_CURVE ( 'NONE', #992, #601, #8, .T. ) ;
#490 = DIRECTION ( 'NONE',  ( -0.000000000000000000, 1.000000000000000000, -0.000000000000000000 ) ) ;
#491 = DIRECTION ( 'NONE',  ( 0.000000000000000000, 0.000000000000000000, 1.000000000000000000 ) ) ;
#492 = DIRECTION ( 'NONE',  ( 0.000000000000000000, -1.000000000000000000, -1.942579480377163370E-16 ) ) ;
#493 = ORIENTED_EDGE ( 'NONE', *, *, #829, .T. ) ;
#494 = VECTOR ( 'NONE', #313, 1000.000000000000000 ) ;
#495 = ORIENTED_EDGE ( 'NONE', *, *, #160, .T. ) ;
#496 = CARTESIAN_POINT ( 'NONE',  ( -32.74999999999997868, -23.34828442116732106, 0.000000000000000000 ) ) ;
#497 = VECTOR ( 'NONE', #125, 1000.000000000000000 ) ;
#498 = DIRECTION ( 'NONE',  ( -1.000000000000000000, 0.000000000000000000, 0.000000000000000000 ) ) ;
#499 = CARTESIAN_POINT ( 'NONE',  ( -36.54999999999999005, -27.14828442116734664, 26.55000000000000071 ) ) ;
#500 = LINE ( 'NONE', #43, #7 ) ;
#501 = VERTEX_POINT ( 'NONE', #483 ) ;
#502 = CARTESIAN_POINT ( 'NONE',  ( -32.74999999999998579, -23.34828442116732106, 24.55000000000000426 ) ) ;
#503 = ORIENTED_EDGE ( 'NONE', *, *, #757, .F. ) ;
#504 = DIRECTION ( 'NONE',  ( 0.000000000000000000, 0.000000000000000000, -1.000000000000000000 ) ) ;
#505 = PLANE ( 'NONE',  #460 ) ;
#506 =( NAMED_UNIT ( * ) SI_UNIT ( $, .STERADIAN. ) SOLID_ANGLE_UNIT ( ) );
#507 = CARTESIAN_POINT ( 'NONE',  ( -32.74999999999998579, -23.34828442116732106, -15.38308259854344406 ) ) ;
#508 = PLANE ( 'NONE',  #1066 ) ;
#509 = ORIENTED_EDGE ( 'NONE', *, *, #215, .T. ) ;
#510 = DIRECTION ( 'NONE',  ( -0.000000000000000000, 0.000000000000000000, 1.000000000000000000 ) ) ;
#511 = ORIENTED_EDGE ( 'NONE', *, *, #102, .T. ) ;
#512 = DIRECTION ( 'NONE',  ( -0.000000000000000000, 1.000000000000000000, -0.000000000000000000 ) ) ;
#513 = EDGE_CURVE ( 'NONE', #5, #601, #741, .T. ) ;
#514 = CARTESIAN_POINT ( 'NONE',  ( -31.89999999999999147, -23.34828442116732106, 24.55000000000000426 ) ) ;
#515 = ORIENTED_EDGE ( 'NONE', *, *, #874, .T. ) ;
#516 = ORIENTED_EDGE ( 'NONE', *, *, #556, .F. ) ;
#517 = FACE_OUTER_BOUND ( 'NONE', #1135, .T. ) ;
#518 = AXIS2_PLACEMENT_3D ( 'NONE', #1026, #660, #95 ) ;
#519 = AXIS2_PLACEMENT_3D ( 'NONE', #96, #103, #1126 ) ;
#520 = CARTESIAN_POINT ( 'NONE',  ( -31.89999999999999147, -23.34828442116732106, -24.55000000000000426 ) ) ;
#521 = CIRCLE ( 'NONE', #271, 12.50000000000000178 ) ;
#522 = DIRECTION ( 'NONE',  ( 0.000000000000000000, 0.000000000000000000, 1.000000000000000000 ) ) ;
#523 = VERTEX_POINT ( 'NONE', #283 ) ;
#524 = EDGE_LOOP ( 'NONE', ( #34, #718, #1156, #752 ) ) ;
#525 = DIRECTION ( 'NONE',  ( 0.000000000000000000, 1.000000000000000000, 1.942579480377163370E-16 ) ) ;
#526 = PRODUCT_DEFINITION ( 'UNKNOWN', '', #619, #659 ) ;
#527 = DIRECTION ( 'NONE',  ( 1.000000000000000000, -0.000000000000000000, 0.000000000000000000 ) ) ;
#528 = CARTESIAN_POINT ( 'NONE',  ( -31.89999999999999147, -23.34828442116732106, 24.55000000000000426 ) ) ;
#529 = DIRECTION ( 'NONE',  ( -1.000000000000000000, 0.000000000000000000, 0.000000000000000000 ) ) ;
#530 = ORIENTED_EDGE ( 'NONE', *, *, #924, .F. ) ;
#531 = ORIENTED_EDGE ( 'NONE', *, *, #1129, .T. ) ;
#532 = CARTESIAN_POINT ( 'NONE',  ( -32.74999999999998579, -23.34828442116732106, 28.05000000000000071 ) ) ;
#533 = EDGE_CURVE ( 'NONE', #949, #775, #641, .T. ) ;
#534 = PLANE ( 'NONE',  #473 ) ;
#535 = CARTESIAN_POINT ( 'NONE',  ( -36.54999999999999005, -27.14828442116734664, 28.05000000000000071 ) ) ;
#536 = ORIENTED_EDGE ( 'NONE', *, *, #417, .T. ) ;
#537 = FACE_OUTER_BOUND ( 'NONE', #386, .T. ) ;
#538 = VERTEX_POINT ( 'NONE', #569 ) ;
#539 = VECTOR ( 'NONE', #603, 1000.000000000000000 ) ;
#540 =( NAMED_UNIT ( * ) SI_UNIT ( $, .STERADIAN. ) SOLID_ANGLE_UNIT ( ) );
#541 = CARTESIAN_POINT ( 'NONE',  ( -28.64999999999999503, -23.34828442116732106, 24.45000000000000639 ) ) ;
#542 = ADVANCED_FACE ( 'NONE', ( #1110 ), #393, .T. ) ;
#543 = DIRECTION ( 'NONE',  ( 1.000000000000000000, 0.000000000000000000, 0.000000000000000000 ) ) ;
#544 = ORIENTED_EDGE ( 'NONE', *, *, #392, .T. ) ;
#545 = LINE ( 'NONE', #1078, #933 ) ;
#546 = LINE ( 'NONE', #162, #742 ) ;
#547 = ADVANCED_FACE ( 'NONE', ( #1 ), #944, .F. ) ;
#548 = EDGE_LOOP ( 'NONE', ( #516, #749, #586, #1034 ) ) ;
#549 = DIRECTION ( 'NONE',  ( 0.7071067811865474617, 0.7071067811865474617, -0.000000000000000000 ) ) ;
#550 = DIRECTION ( 'NONE',  ( 0.000000000000000000, 0.9063077870366516020, 0.4226182617406959441 ) ) ;
#551 = EDGE_CURVE ( 'NONE', #333, #567, #440, .T. ) ;
#552 = ORIENTED_EDGE ( 'NONE', *, *, #1030, .T. ) ;
#553 = ORIENTED_EDGE ( 'NONE', *, *, #964, .T. ) ;
#554 = DIRECTION ( 'NONE',  ( 0.000000000000000000, 0.000000000000000000, -1.000000000000000000 ) ) ;
#555 = VERTEX_POINT ( 'NONE', #564 ) ;
#556 = EDGE_CURVE ( 'NONE', #912, #935, #746, .T. ) ;
#557 = EDGE_CURVE ( 'NONE', #390, #987, #937, .T. ) ;
#558 = DIRECTION ( 'NONE',  ( -1.000000000000000000, 0.000000000000000000, 0.000000000000000000 ) ) ;
#559 = CARTESIAN_POINT ( 'NONE',  ( -32.74999999999998579, -23.34828442116732106, 28.05000000000000071 ) ) ;
#560 = EDGE_LOOP ( 'NONE', ( #607, #306, #476, #235 ) ) ;
#561 = ORIENTED_EDGE ( 'NONE', *, *, #615, .F. ) ;
#562 = EDGE_CURVE ( 'NONE', #173, #1122, #1031, .T. ) ;
#563 = PLANE ( 'NONE',  #277 ) ;
#564 = CARTESIAN_POINT ( 'NONE',  ( -29.49999999999999645, 0.000000000000000000, -24.45000000000000639 ) ) ;
#565 = DIRECTION ( 'NONE',  ( -1.000000000000000000, 0.000000000000000000, -0.000000000000000000 ) ) ;
#566 = DIRECTION ( 'NONE',  ( 0.000000000000000000, -1.000000000000000000, 0.000000000000000000 ) ) ;
#567 = VERTEX_POINT ( 'NONE', #89 ) ;
#568 = ORIENTED_EDGE ( 'NONE', *, *, #964, .F. ) ;
#569 = CARTESIAN_POINT ( 'NONE',  ( -36.54999999999999005, -38.02177948580123257, 27.18392739261104651 ) ) ;
#570 = VECTOR ( 'NONE', #918, 1000.000000000000000 ) ;
#571 = CARTESIAN_POINT ( 'NONE',  ( -36.04999999999999005, -26.64828442116734664, 28.05000000000000071 ) ) ;
#572 = ORIENTED_EDGE ( 'NONE', *, *, #696, .F. ) ;
#573 = VECTOR ( 'NONE', #1000, 1000.000000000000000 ) ;
#575 = ORIENTED_EDGE ( 'NONE', *, *, #300, .T. ) ;
#574 = VECTOR ( 'NONE', #600, 1000.000000000000114 ) ;
#576 = DIRECTION ( 'NONE',  ( -0.7071067811865474617, -0.7071067811865474617, 0.000000000000000000 ) ) ;
#577 = PLANE ( 'NONE',  #375 ) ;
#578 = LINE ( 'NONE', #648, #687 ) ;
#579 = ORIENTED_EDGE ( 'NONE', *, *, #725, .F. ) ;
#580 = EDGE_LOOP ( 'NONE', ( #530, #495, #110, #297 ) ) ;
#581 = CARTESIAN_POINT ( 'NONE',  ( 0.000000000000000000, -23.34828442116732106, 0.000000000000000000 ) ) ;
#582 = AXIS2_PLACEMENT_3D ( 'NONE', #187, #1018, #405 ) ;
#583 = PLANE ( 'NONE',  #882 ) ;
#584 = DIRECTION ( 'NONE',  ( -1.000000000000000000, -0.000000000000000000, -0.000000000000000000 ) ) ;
#585 = VERTEX_POINT ( 'NONE', #186 ) ;
#586 = ORIENTED_EDGE ( 'NONE', *, *, #1040, .F. ) ;
#587 = EDGE_CURVE ( 'NONE', #16, #5, #458, .T. ) ;
#588 = FACE_OUTER_BOUND ( 'NONE', #220, .T. ) ;
#589 = ORIENTED_EDGE ( 'NONE', *, *, #1081, .F. ) ;
#590 = EDGE_LOOP ( 'NONE', ( #261, #152, #15, #1076 ) ) ;
#591 = AXIS2_PLACEMENT_3D ( 'NONE', #972, #1069, #1159 ) ;
#592 = VECTOR ( 'NONE', #192, 1000.000000000000000 ) ;
#593 = CARTESIAN_POINT ( 'NONE',  ( -31.89999999999999147, 0.000000000000000000, -27.20000000000000284 ) ) ;
#594 = CYLINDRICAL_SURFACE ( 'NONE', #341, 1.500000000000001332 ) ;
#595 = VERTEX_POINT ( 'NONE', #197 ) ;
#596 = ORIENTED_EDGE ( 'NONE', *, *, #651, .T. ) ;
#597 = CARTESIAN_POINT ( 'NONE',  ( -31.89999999999999147, -23.34828442116732106, 27.20000000000000284 ) ) ;
#598 = PLANE ( 'NONE',  #1036 ) ;
#599 = EDGE_CURVE ( 'NONE', #418, #487, #932, .T. ) ;
#600 = DIRECTION ( 'NONE',  ( 0.000000000000000000, -0.4226182617407005515, 0.9063077870366493816 ) ) ;
#601 = VERTEX_POINT ( 'NONE', #846 ) ;
#602 = VERTEX_POINT ( 'NONE', #466 ) ;
#603 = DIRECTION ( 'NONE',  ( 1.000000000000000000, -0.000000000000000000, 0.000000000000000000 ) ) ;
#604 = DIRECTION ( 'NONE',  ( 0.000000000000000000, 0.000000000000000000, -1.000000000000000000 ) ) ;
#605 = EDGE_CURVE ( 'NONE', #595, #336, #1118, .T. ) ;
#606 = ORIENTED_EDGE ( 'NONE', *, *, #206, .T. ) ;
#607 = ORIENTED_EDGE ( 'NONE', *, *, #982, .F. ) ;
#608 = DIRECTION ( 'NONE',  ( 0.000000000000000000, -0.3940327209102227890, -0.9190964121636459039 ) ) ;
#609 = DIRECTION ( 'NONE',  ( 0.000000000000000000, 0.000000000000000000, -1.000000000000000000 ) ) ;
#610 = AXIS2_PLACEMENT_3D ( 'NONE', #387, #558, #94 ) ;
#611 = AXIS2_PLACEMENT_3D ( 'NONE', #830, #1146, #694 ) ;
#612 = CARTESIAN_POINT ( 'NONE',  ( -32.54999999999999005, -34.35000000000005826, -26.55000000000000071 ) ) ;
#613 = DIRECTION ( 'NONE',  ( 1.000000000000000000, 1.438880092385038863E-16, 0.000000000000000000 ) ) ;
#614 = ORIENTED_EDGE ( 'NONE', *, *, #557, .T. ) ;
#615 = EDGE_CURVE ( 'NONE', #481, #787, #656, .T. ) ;
#616 = ORIENTED_EDGE ( 'NONE', *, *, #755, .F. ) ;
#617 = ADVANCED_FACE ( 'NONE', ( #1038 ), #107, .F. ) ;
#618 = LINE ( 'NONE', #1002, #465 ) ;
#619 = PRODUCT_DEFINITION_FORMATION_WITH_SPECIFIED_SOURCE ( 'ANY', '', #244, .NOT_KNOWN. ) ;
#620 = LINE ( 'NONE', #56, #287 ) ;
#621 = ORIENTED_EDGE ( 'NONE', *, *, #832, .F. ) ;
#622 = LINE ( 'NONE', #351, #573 ) ;
#623 =( LENGTH_UNIT ( ) NAMED_UNIT ( * ) SI_UNIT ( .MILLI., .METRE. ) );
#624 = CARTESIAN_POINT ( 'NONE',  ( -28.64999999999999858, -16.85999999999956245, -19.59999999999865850 ) ) ;
#625 = LINE ( 'NONE', #1190, #79 ) ;
#626 = LINE ( 'NONE', #807, #123 ) ;
#627 = DIRECTION ( 'NONE',  ( 0.000000000000000000, -0.9190964121636459039, 0.3940327209102227890 ) ) ;
#628 = VECTOR ( 'NONE', #1068, 1000.000000000000000 ) ;
#629 = ADVANCED_FACE ( 'NONE', ( #84 ), #462, .F. ) ;
#630 = CARTESIAN_POINT ( 'NONE',  ( -32.54999999999999005, -36.66231780524625350, 26.55000000000000071 ) ) ;
#631 = DIRECTION ( 'NONE',  ( 0.000000000000000000, -0.4226182617406961661, -0.9063077870366514910 ) ) ;
#632 = DIRECTION ( 'NONE',  ( 0.000000000000000000, 0.000000000000000000, 1.000000000000000000 ) ) ;
#633 = ADVANCED_FACE ( 'NONE', ( #958 ), #505, .T. ) ;
#634 = DIRECTION ( 'NONE',  ( -0.000000000000000000, 1.000000000000000000, -0.000000000000000000 ) ) ;
#635 = DIRECTION ( 'NONE',  ( 0.000000000000000000, 0.3940327209102236217, -0.9190964121636455708 ) ) ;
#636 = ORIENTED_EDGE ( 'NONE', *, *, #454, .F. ) ;
#637 = CARTESIAN_POINT ( 'NONE',  ( -32.54999999999999005, -39.24999999999997868, -24.55000000000000071 ) ) ;
#638 = APPLICATION_CONTEXT ( 'automotive_design' ) ;
#639 = DIRECTION ( 'NONE',  ( 0.000000000000000000, 0.000000000000000000, -1.000000000000000000 ) ) ;
#640 = VECTOR ( 'NONE', #23, 1000.000000000000000 ) ;
#641 = LINE ( 'NONE', #205, #1161 ) ;
#642 = AXIS2_PLACEMENT_3D ( 'NONE', #80, #1196, #827 ) ;
#643 = CARTESIAN_POINT ( 'NONE',  ( 30.95100000000001472, -39.25000000000000000, 24.55000000000000071 ) ) ;
#644 = ORIENTED_EDGE ( 'NONE', *, *, #1045, .F. ) ;
#645 = EDGE_CURVE ( 'NONE', #666, #281, #981, .T. ) ;
#646 = VERTEX_POINT ( 'NONE', #141 ) ;
#647 = CARTESIAN_POINT ( 'NONE',  ( -31.89999999999999147, -23.34828442116732106, 27.20000000000000284 ) ) ;
#648 = CARTESIAN_POINT ( 'NONE',  ( -31.89999999999999147, -23.34828442116732106, -27.20000000000000284 ) ) ;
#649 = ORIENTED_EDGE ( 'NONE', *, *, #180, .T. ) ;
#650 = EDGE_LOOP ( 'NONE', ( #974, #145, #328, #936, #87, #1172, #1046, #140, #1065 ) ) ;
#651 = EDGE_CURVE ( 'NONE', #93, #1059, #1157, .T. ) ;
#652 = CARTESIAN_POINT ( 'NONE',  ( -32.74999999999998579, -23.34828442116732106, 28.05000000000000071 ) ) ;
#653 = DIRECTION ( 'NONE',  ( -0.000000000000000000, 0.9190964121636460149, 0.3940327209102227335 ) ) ;
#654 = ORIENTED_EDGE ( 'NONE', *, *, #345, .T. ) ;
#655 = ORIENTED_EDGE ( 'NONE', *, *, #562, .T. ) ;
#656 = LINE ( 'NONE', #289, #761 ) ;
#657 = AXIS2_PLACEMENT_3D ( 'NONE', #388, #290, #491 ) ;
#658 = EDGE_CURVE ( 'NONE', #775, #58, #681, .T. ) ;
#659 = PRODUCT_DEFINITION_CONTEXT ( 'detailed design', #251, 'design' ) ;
#660 = DIRECTION ( 'NONE',  ( 1.000000000000000000, 0.000000000000000000, -0.000000000000000000 ) ) ;
#661 = VECTOR ( 'NONE', #854, 1000.000000000000114 ) ;
#662 = DIRECTION ( 'NONE',  ( 0.000000000000000000, 0.000000000000000000, -1.000000000000000000 ) ) ;
#663 = EDGE_LOOP ( 'NONE', ( #683, #424, #837, #63 ) ) ;
#664 = VECTOR ( 'NONE', #675, 1000.000000000000000 ) ;
#666 = VERTEX_POINT ( 'NONE', #520 ) ;
#665 = AXIS2_PLACEMENT_3D ( 'NONE', #314, #498, #865 ) ;
#667 = CARTESIAN_POINT ( 'NONE',  ( -36.54999999999999005, -44.41604593830442127, 12.50000000000000355 ) ) ;
#668 = ADVANCED_FACE ( 'NONE', ( #427 ), #872, .F. ) ;
#669 = CARTESIAN_POINT ( 'NONE',  ( -32.74999999999997868, -23.34828442116732106, 28.05000000000000071 ) ) ;
#670 = ORIENTED_EDGE ( 'NONE', *, *, #1040, .T. ) ;
#671 = ORIENTED_EDGE ( 'NONE', *, *, #829, .F. ) ;
#672 = LINE ( 'NONE', #237, #539 ) ;
#673 = VECTOR ( 'NONE', #916, 1000.000000000000000 ) ;
#674 = CARTESIAN_POINT ( 'NONE',  ( -28.65000000000000213, -4.066673503662784162E-15, 0.000000000000000000 ) ) ;
#675 = DIRECTION ( 'NONE',  ( -1.000000000000000000, 0.000000000000000000, 0.000000000000000000 ) ) ;
#676 = EDGE_LOOP ( 'NONE', ( #1052, #973, #391, #346 ) ) ;
#677 = CARTESIAN_POINT ( 'NONE',  ( -32.74999999999998579, -23.34828442116732106, -24.55000000000000426 ) ) ;
#678 = EDGE_CURVE ( 'NONE', #881, #1071, #789, .T. ) ;
#679 = ORIENTED_EDGE ( 'NONE', *, *, #678, .F. ) ;
#680 = CARTESIAN_POINT ( 'NONE',  ( -32.54999999999999005, -34.35000000000005826, -28.05000000000000071 ) ) ;
#681 = LINE ( 'NONE', #129, #1140 ) ;
#682 = LINE ( 'NONE', #422, #689 ) ;
#683 = ORIENTED_EDGE ( 'NONE', *, *, #1193, .F. ) ;
#684 = CARTESIAN_POINT ( 'NONE',  ( -31.89999999999999147, 0.000000000000000000, 24.55000000000000426 ) ) ;
#685 = ORIENTED_EDGE ( 'NONE', *, *, #551, .F. ) ;
#686 = CARTESIAN_POINT ( 'NONE',  ( -31.89999999999999147, -23.34828442116732106, -24.55000000000000426 ) ) ;
#687 = VECTOR ( 'NONE', #474, 1000.000000000000000 ) ;
#688 = EDGE_CURVE ( 'NONE', #774, #44, #401, .T. ) ;
#689 = VECTOR ( 'NONE', #492, 1000.000000000000000 ) ;
#690 = DIRECTION ( 'NONE',  ( 0.000000000000000000, 0.000000000000000000, 1.000000000000000000 ) ) ;
#691 = ORIENTED_EDGE ( 'NONE', *, *, #1091, .T. ) ;
#692 = ORIENTED_EDGE ( 'NONE', *, *, #605, .T. ) ;
#693 = LINE ( 'NONE', #667, #1137 ) ;
#694 = DIRECTION ( 'NONE',  ( 0.000000000000000000, 0.000000000000000000, 1.000000000000000000 ) ) ;
#695 = EDGE_CURVE ( 'NONE', #538, #646, #929, .T. ) ;
#696 = EDGE_CURVE ( 'NONE', #411, #468, #242, .T. ) ;
#697 = LINE ( 'NONE', #33, #804 ) ;
#698 = ORIENTED_EDGE ( 'NONE', *, *, #263, .T. ) ;
#699 = ORIENTED_EDGE ( 'NONE', *, *, #280, .T. ) ;
#700 = CARTESIAN_POINT ( 'NONE',  ( -32.54999999999999005, -53.34604593830443520, -12.49999999999999289 ) ) ;
#701 = CARTESIAN_POINT ( 'NONE',  ( -32.54999999999999005, -53.34828442116732106, 8.673617379884035472E-15 ) ) ;
#702 = EDGE_CURVE ( 'NONE', #64, #987, #1062, .T. ) ;
#703 = CARTESIAN_POINT ( 'NONE',  ( -31.94999999999998508, -33.75000000000004263, 28.05000000000000071 ) ) ;
#704 = ORIENTED_EDGE ( 'NONE', *, *, #345, .F. ) ;
#705 = EDGE_CURVE ( 'NONE', #478, #1090, #445, .T. ) ;
#706 = ORIENTED_EDGE ( 'NONE', *, *, #1155, .T. ) ;
#707 = CARTESIAN_POINT ( 'NONE',  ( -29.49999999999999645, 0.000000000000000000, -27.20000000000000284 ) ) ;
#708 =( GEOMETRIC_REPRESENTATION_CONTEXT ( 3 ) GLOBAL_UNCERTAINTY_ASSIGNED_CONTEXT ( ( #171 ) ) GLOBAL_UNIT_ASSIGNED_CONTEXT ( ( #137, #817, #506 ) ) REPRESENTATION_CONTEXT ( 'NONE', 'WORKASPACE' ) );
#709 = VECTOR ( 'NONE', #355, 1000.000000000000000 ) ;
#710 = CARTESIAN_POINT ( 'NONE',  ( 30.95100000000001472, -53.34604593830443520, -12.49999999999999289 ) ) ;
#711 = DIRECTION ( 'NONE',  ( -1.000000000000000000, 0.000000000000000000, 0.000000000000000000 ) ) ;
#712 = EDGE_LOOP ( 'NONE', ( #443, #29, #416, #655, #1144, #788, #256, #579 ) ) ;
#713 = CARTESIAN_POINT ( 'NONE',  ( -32.54999999999999005, -34.35000000000005826, 28.05000000000000071 ) ) ;
#714 = FACE_OUTER_BOUND ( 'NONE', #590, .T. ) ;
#715 = DIRECTION ( 'NONE',  ( -0.000000000000000000, 1.000000000000000000, -0.000000000000000000 ) ) ;
#716 = FACE_OUTER_BOUND ( 'NONE', #298, .T. ) ;
#717 = CARTESIAN_POINT ( 'NONE',  ( -29.49999999999999645, 0.000000000000000000, 24.45000000000000639 ) ) ;
#718 = ORIENTED_EDGE ( 'NONE', *, *, #60, .F. ) ;
#719 = DIRECTION ( 'NONE',  ( -1.000000000000000000, -0.000000000000000000, 0.000000000000000000 ) ) ;
#720 = ADVANCED_FACE ( 'NONE', ( #1192 ), #995, .F. ) ;
#721 = DIRECTION ( 'NONE',  ( -1.000000000000000000, -0.000000000000000000, -0.000000000000000000 ) ) ;
#722 = CARTESIAN_POINT ( 'NONE',  ( -32.54999999999999005, -53.34828442116732106, -7.099999999999991651 ) ) ;
#723 = CARTESIAN_POINT ( 'NONE',  ( -36.04999999999999005, -26.64828442116734664, 0.000000000000000000 ) ) ;
#724 = ORIENTED_EDGE ( 'NONE', *, *, #658, .F. ) ;
#725 = EDGE_CURVE ( 'NONE', #44, #881, #1092, .T. ) ;
#726 = VECTOR ( 'NONE', #565, 1000.000000000000000 ) ;
#727 = AXIS2_PLACEMENT_3D ( 'NONE', #9, #653, #4 ) ;
#728 = LINE ( 'NONE', #795, #955 ) ;
#729 = CIRCLE ( 'NONE', #841, 7.099999999999998757 ) ;
#730 = CARTESIAN_POINT ( 'NONE',  ( 0.8999999999997729816, -0.8999999999997584377, -28.05000000000000071 ) ) ;
#731 = ORIENTED_EDGE ( 'NONE', *, *, #191, .T. ) ;
#732 = EDGE_CURVE ( 'NONE', #254, #912, #155, .T. ) ;
#733 = DIRECTION ( 'NONE',  ( 0.000000000000000000, 0.000000000000000000, 1.000000000000000000 ) ) ;
#734 = AXIS2_PLACEMENT_3D ( 'NONE', #342, #446, #1086 ) ;
#735 = CARTESIAN_POINT ( 'NONE',  ( -36.54999999999999005, -38.02177948580123257, -27.18392739261104651 ) ) ;
#736 =( BOUNDED_CURVE ( )  B_SPLINE_CURVE ( 3, ( #262, #65, #1188, #993 ),
 .UNSPECIFIED., .F., .F. ) 
 B_SPLINE_CURVE_WITH_KNOTS ( ( 4, 4 ),
 ( 2.723445465976166435, 3.559739841203419797 ),
 .UNSPECIFIED. ) 
 CURVE ( )  GEOMETRIC_REPRESENTATION_ITEM ( )  RATIONAL_B_SPLINE_CURVE ( ( 1.000000000000000000, 0.9425619174805408562, 0.9425619174805408562, 1.000000000000000000 ) ) 
 REPRESENTATION_ITEM ( '' )  );
#737 = DIRECTION ( 'NONE',  ( 0.000000000000000000, 0.000000000000000000, -1.000000000000000000 ) ) ;
#738 = ADVANCED_FACE ( 'NONE', ( #803 ), #534, .F. ) ;
#739 = CARTESIAN_POINT ( 'NONE',  ( -31.94999999999998508, -33.75000000000002842, 0.000000000000000000 ) ) ;
#740 = ORIENTED_EDGE ( 'NONE', *, *, #26, .T. ) ;
#741 = LINE ( 'NONE', #381, #592 ) ;
#742 = VECTOR ( 'NONE', #1185, 1000.000000000000000 ) ;
#743 = PLANE ( 'NONE',  #143 ) ;
#744 = ORIENTED_EDGE ( 'NONE', *, *, #1139, .T. ) ;
#745 = ORIENTED_EDGE ( 'NONE', *, *, #755, .T. ) ;
#746 = LINE ( 'NONE', #834, #363 ) ;
#747 = CARTESIAN_POINT ( 'NONE',  ( 30.95100000000001472, -44.41604593830443548, -12.49999999999999112 ) ) ;
#748 = ORIENTED_EDGE ( 'NONE', *, *, #90, .F. ) ;
#749 = ORIENTED_EDGE ( 'NONE', *, *, #732, .F. ) ;
#750 = CARTESIAN_POINT ( 'NONE',  ( -32.54999999999999005, -39.24999999999997868, 24.55000000000000071 ) ) ;
#751 = PLANE ( 'NONE',  #400 ) ;
#752 = ORIENTED_EDGE ( 'NONE', *, *, #615, .T. ) ;
#753 = DIRECTION ( 'NONE',  ( 1.000000000000000000, 0.000000000000000000, 0.000000000000000000 ) ) ;
#754 = EDGE_LOOP ( 'NONE', ( #304, #511 ) ) ;
#755 = EDGE_CURVE ( 'NONE', #1028, #836, #878, .T. ) ;
#756 = CIRCLE ( 'NONE', #657, 7.099999999999996980 ) ;
#757 = EDGE_CURVE ( 'NONE', #1090, #118, #1163, .T. ) ;
#758 = CARTESIAN_POINT ( 'NONE',  ( -32.74999999999998579, -23.34828442116732106, 24.55000000000000426 ) ) ;
#759 = ORIENTED_EDGE ( 'NONE', *, *, #696, .T. ) ;
#760 = DIRECTION ( 'NONE',  ( 0.000000000000000000, 1.000000000000000000, -9.712897401885802554E-16 ) ) ;
#761 = VECTOR ( 'NONE', #1025, 1000.000000000000000 ) ;
#763 = ORIENTED_EDGE ( 'NONE', *, *, #705, .T. ) ;
#762 = VECTOR ( 'NONE', #1151, 1000.000000000000000 ) ;
#764 = CARTESIAN_POINT ( 'NONE',  ( -36.04999999999999005, -26.64828442116734664, -28.05000000000000071 ) ) ;
#765 = CARTESIAN_POINT ( 'NONE',  ( -32.74999999999997868, -23.34828442116732106, -28.05000000000000071 ) ) ;
#766 = EDGE_CURVE ( 'NONE', #523, #64, #47, .T. ) ;
#767 = LINE ( 'NONE', #1147, #664 ) ;
#768 = ORIENTED_EDGE ( 'NONE', *, *, #883, .T. ) ;
#769 = LINE ( 'NONE', #677, #153 ) ;
#770 = EDGE_LOOP ( 'NONE', ( #828, #230 ) ) ;
#771 = DIRECTION ( 'NONE',  ( 0.000000000000000000, 0.000000000000000000, 1.000000000000000000 ) ) ;
#772 = EDGE_CURVE ( 'NONE', #877, #538, #1056, .T. ) ;
#773 = PLANE ( 'NONE',  #928 ) ;
#774 = VERTEX_POINT ( 'NONE', #764 ) ;
#775 = VERTEX_POINT ( 'NONE', #680 ) ;
#776 = DIRECTION ( 'NONE',  ( 0.000000000000000000, 0.000000000000000000, 1.000000000000000000 ) ) ;
#777 = DIRECTION ( 'NONE',  ( 0.7071067811865460184, 0.7071067811865490160, -0.000000000000000000 ) ) ;
#778 = DIRECTION ( 'NONE',  ( -0.000000000000000000, 1.000000000000000000, -0.000000000000000000 ) ) ;
#779 = DIRECTION ( 'NONE',  ( -1.000000000000000000, 0.000000000000000000, 0.000000000000000000 ) ) ;
#780 = ORIENTED_EDGE ( 'NONE', *, *, #1107, .F. ) ;
#781 = VECTOR ( 'NONE', #1084, 1000.000000000000000 ) ;
#782 = ORIENTED_EDGE ( 'NONE', *, *, #402, .T. ) ;
#783 = DIRECTION ( 'NONE',  ( 0.7071067811865490160, -0.7071067811865460184, 0.000000000000000000 ) ) ;
#784 = AXIS2_PLACEMENT_3D ( 'NONE', #349, #711, #733 ) ;
#785 = LINE ( 'NONE', #3, #163 ) ;
#786 = FACE_OUTER_BOUND ( 'NONE', #850, .T. ) ;
#787 = VERTEX_POINT ( 'NONE', #857 ) ;
#788 = ORIENTED_EDGE ( 'NONE', *, *, #910, .F. ) ;
#789 = LINE ( 'NONE', #414, #83 ) ;
#790 = VECTOR ( 'NONE', #51, 1000.000000000000000 ) ;
#791 = ADVANCED_FACE ( 'NONE', ( #957 ), #419, .F. ) ;
#792 = PLANE ( 'NONE',  #591 ) ;
#793 = ORIENTED_EDGE ( 'NONE', *, *, #766, .T. ) ;
#794 = ORIENTED_EDGE ( 'NONE', *, *, #439, .T. ) ;
#795 = CARTESIAN_POINT ( 'NONE',  ( -36.54999999999999005, -27.14828442116734664, -28.05000000000000071 ) ) ;
#796 = DIRECTION ( 'NONE',  ( 0.000000000000000000, 1.000000000000000000, 0.000000000000000000 ) ) ;
#797 = ORIENTED_EDGE ( 'NONE', *, *, #160, .F. ) ;
#798 = ADVANCED_FACE ( 'NONE', ( #517 ), #1047, .T. ) ;
#799 = VERTEX_POINT ( 'NONE', #211 ) ;
#800 = SURFACE_STYLE_USAGE ( .BOTH. , #899 ) ;
#801 = VECTOR ( 'NONE', #504, 1000.000000000000000 ) ;
#802 = CIRCLE ( 'NONE', #378, 7.100000000000000533 ) ;
#803 = FACE_OUTER_BOUND ( 'NONE', #650, .T. ) ;
#804 = VECTOR ( 'NONE', #604, 1000.000000000000000 ) ;
#805 = DIRECTION ( 'NONE',  ( -1.000000000000000000, 0.000000000000000000, -0.000000000000000000 ) ) ;
#806 = LINE ( 'NONE', #259, #825 ) ;
#807 = CARTESIAN_POINT ( 'NONE',  ( -31.89999999999999147, 0.000000000000000000, -27.20000000000000284 ) ) ;
#808 = EDGE_LOOP ( 'NONE', ( #384, #1070, #209, #329 ) ) ;
#809 = CARTESIAN_POINT ( 'NONE',  ( -32.54999999999999005, -38.02177948580123257, 27.18392739261105007 ) ) ;
#810 = CARTESIAN_POINT ( 'NONE',  ( 0.8999999999997729816, -0.8999999999997584377, 28.05000000000000071 ) ) ;
#811 = CARTESIAN_POINT ( 'NONE',  ( 30.95100000000001472, -53.34828442116732106, 7.100000000000009415 ) ) ;
#812 = CARTESIAN_POINT ( 'NONE',  ( 30.95100000000001472, -53.34828442116732106, 8.673617379884035472E-15 ) ) ;
#813 = EDGE_CURVE ( 'NONE', #602, #1128, #672, .T. ) ;
#814 = ORIENTED_EDGE ( 'NONE', *, *, #148, .F. ) ;
#815 = FILL_AREA_STYLE_COLOUR ( '', #267 ) ;
#816 = EDGE_CURVE ( 'NONE', #875, #64, #1136, .T. ) ;
#817 =( NAMED_UNIT ( * ) PLANE_ANGLE_UNIT ( ) SI_UNIT ( $, .RADIAN. ) );
#818 = CYLINDRICAL_SURFACE ( 'NONE', #863, 7.100000000000000533 ) ;
#819 = CARTESIAN_POINT ( 'NONE',  ( -32.74999999999998579, -16.85999999999956245, -12.49999999999865885 ) ) ;
#820 = DIRECTION ( 'NONE',  ( 1.000000000000000000, -0.000000000000000000, -0.000000000000000000 ) ) ;
#821 = VECTOR ( 'NONE', #778, 1000.000000000000000 ) ;
#822 = EDGE_CURVE ( 'NONE', #666, #799, #413, .T. ) ;
#823 = VECTOR ( 'NONE', #584, 1000.000000000000000 ) ;
#824 = EDGE_CURVE ( 'NONE', #864, #585, #693, .T. ) ;
#825 = VECTOR ( 'NONE', #796, 1000.000000000000000 ) ;
#826 = DIRECTION ( 'NONE',  ( 0.000000000000000000, -1.000000000000000000, 5.827738441131490604E-16 ) ) ;
#827 = DIRECTION ( 'NONE',  ( 0.000000000000000000, 1.000000000000000000, 0.000000000000000000 ) ) ;
#828 = ORIENTED_EDGE ( 'NONE', *, *, #55, .F. ) ;
#829 = EDGE_CURVE ( 'NONE', #336, #333, #113, .T. ) ;
#830 = CARTESIAN_POINT ( 'NONE',  ( 30.95100000000001472, -53.34828442116732106, 8.673617379884035472E-15 ) ) ;
#831 = VECTOR ( 'NONE', #715, 1000.000000000000000 ) ;
#832 = EDGE_CURVE ( 'NONE', #992, #93, #224, .T. ) ;
#833 = DIRECTION ( 'NONE',  ( 0.000000000000000000, 0.000000000000000000, 1.000000000000000000 ) ) ;
#834 = CARTESIAN_POINT ( 'NONE',  ( -28.64999999999999858, -30.45000000000000284, 0.000000000000000000 ) ) ;
#835 = DIRECTION ( 'NONE',  ( -0.7071067811865519026, 0.7071067811865431318, 0.000000000000000000 ) ) ;
#836 = VERTEX_POINT ( 'NONE', #217 ) ;
#837 = ORIENTED_EDGE ( 'NONE', *, *, #513, .F. ) ;
#838 = AXIS2_PLACEMENT_3D ( 'NONE', #30, #36, #330 ) ;
#839 = CARTESIAN_POINT ( 'NONE',  ( -29.49999999999999645, -23.34828442116732106, -27.20000000000000284 ) ) ;
#840 = VECTOR ( 'NONE', #1004, 1000.000000000000000 ) ;
#841 = AXIS2_PLACEMENT_3D ( 'NONE', #1098, #613, #452 ) ;
#842 = LINE ( 'NONE', #747, #927 ) ;
#843 = ORIENTED_EDGE ( 'NONE', *, *, #822, .T. ) ;
#844 = ORIENTED_EDGE ( 'NONE', *, *, #26, .F. ) ;
#845 = CARTESIAN_POINT ( 'NONE',  ( -32.74999999999998579, -16.85999999999956245, -12.49999999999865885 ) ) ;
#846 = CARTESIAN_POINT ( 'NONE',  ( -32.54999999999999005, -38.02177948580123257, -27.18392739261104651 ) ) ;
#847 = DIRECTION ( 'NONE',  ( -1.000000000000000000, -0.000000000000000000, -0.000000000000000000 ) ) ;
#848 = VERTEX_POINT ( 'NONE', #232 ) ;
#849 = ADVANCED_FACE ( 'NONE', ( #399 ), #307, .T. ) ;
#850 = EDGE_LOOP ( 'NONE', ( #312, #699, #10, #979 ) ) ;
#851 = CARTESIAN_POINT ( 'NONE',  ( -36.54999999999999005, -53.34604593830443520, -12.49999999999999289 ) ) ;
#852 = DIRECTION ( 'NONE',  ( -0.000000000000000000, 1.000000000000000000, -0.000000000000000000 ) ) ;
#853 = FACE_OUTER_BOUND ( 'NONE', #404, .T. ) ;
#854 = DIRECTION ( 'NONE',  ( 0.7071067811865474617, 0.7071067811865474617, 0.000000000000000000 ) ) ;
#855 = ORIENTED_EDGE ( 'NONE', *, *, #316, .F. ) ;
#856 = ORIENTED_EDGE ( 'NONE', *, *, #146, .F. ) ;
#857 = CARTESIAN_POINT ( 'NONE',  ( -29.49999999999999645, 0.000000000000000000, -27.20000000000000284 ) ) ;
#858 = VECTOR ( 'NONE', #1049, 1000.000000000000000 ) ;
#859 = VECTOR ( 'NONE', #370, 1000.000000000000000 ) ;
#860 = CARTESIAN_POINT ( 'NONE',  ( 30.95100000000001472, -53.34604593830443520, 12.50000000000001243 ) ) ;
#861 = ORIENTED_EDGE ( 'NONE', *, *, #551, .T. ) ;
#862 = CARTESIAN_POINT ( 'NONE',  ( -36.54999999999999005, -27.14828442116734664, 28.05000000000000071 ) ) ;
#863 = AXIS2_PLACEMENT_3D ( 'NONE', #812, #721, #1194 ) ;
#864 = VERTEX_POINT ( 'NONE', #174 ) ;
#865 = DIRECTION ( 'NONE',  ( 0.000000000000000000, 0.000000000000000000, 1.000000000000000000 ) ) ;
#866 = ADVANCED_FACE ( 'NONE', ( #714 ), #903, .T. ) ;
#867 = FACE_OUTER_BOUND ( 'NONE', #1099, .T. ) ;
#868 = LINE ( 'NONE', #132, #379 ) ;
#869 = ORIENTED_EDGE ( 'NONE', *, *, #282, .F. ) ;
#870 = ORIENTED_EDGE ( 'NONE', *, *, #461, .F. ) ;
#871 = DIRECTION ( 'NONE',  ( 0.000000000000000000, 0.000000000000000000, 1.000000000000000000 ) ) ;
#872 = PLANE ( 'NONE',  #989 ) ;
#873 = FACE_OUTER_BOUND ( 'NONE', #676, .T. ) ;
#874 = EDGE_CURVE ( 'NONE', #567, #151, #352, .T. ) ;
#875 = VERTEX_POINT ( 'NONE', #435 ) ;
#876 = LINE ( 'NONE', #1134, #257 ) ;
#877 = VERTEX_POINT ( 'NONE', #809 ) ;
#878 = LINE ( 'NONE', #120, #1080 ) ;
#879 = CARTESIAN_POINT ( 'NONE',  ( -36.54999999999999005, -39.24999999999997868, 24.54999999999999716 ) ) ;
#880 = VECTOR ( 'NONE', #947, 1000.000000000000000 ) ;
#881 = VERTEX_POINT ( 'NONE', #1175 ) ;
#882 = AXIS2_PLACEMENT_3D ( 'NONE', #315, #295, #952 ) ;
#883 = EDGE_CURVE ( 'NONE', #236, #173, #72, .T. ) ;
#884 = ORIENTED_EDGE ( 'NONE', *, *, #533, .F. ) ;
#885 = VECTOR ( 'NONE', #463, 1000.000000000000227 ) ;
#886 = AXIS2_PLACEMENT_3D ( 'NONE', #181, #1021, #1205 ) ;
#887 = DIRECTION ( 'NONE',  ( 0.000000000000000000, -1.942579480377163370E-16, 1.000000000000000000 ) ) ;
#888 = LINE ( 'NONE', #52, #1041 ) ;
#889 = ORIENTED_EDGE ( 'NONE', *, *, #225, .T. ) ;
#890 = ORIENTED_EDGE ( 'NONE', *, *, #122, .F. ) ;
#891 = DIRECTION ( 'NONE',  ( -1.000000000000000000, 0.000000000000000000, 0.000000000000000000 ) ) ;
#892 = EDGE_CURVE ( 'NONE', #202, #44, #339, .T. ) ;
#893 = CARTESIAN_POINT ( 'NONE',  ( -28.64999999999999503, -23.34828442116732106, -24.45000000000000639 ) ) ;
#894 = AXIS2_PLACEMENT_3D ( 'NONE', #612, #161, #1097 ) ;
#895 = CARTESIAN_POINT ( 'NONE',  ( -36.54999999999999005, -26.64828442116734664, -28.05000000000000071 ) ) ;
#896 = LINE ( 'NONE', #344, #343 ) ;
#897 = ORIENTED_EDGE ( 'NONE', *, *, #156, .F. ) ;
#898 = EDGE_LOOP ( 'NONE', ( #961, #319, #54, #22, #1082, #406, #967, #797 ) ) ;
#899 = SURFACE_SIDE_STYLE ('',( #270 ) ) ;
#900 = CARTESIAN_POINT ( 'NONE',  ( -28.64999999999999503, -23.34828442116732106, 28.05000000000000426 ) ) ;
#901 = EDGE_LOOP ( 'NONE', ( #568, #589, #991, #759 ) ) ;
#902 = FACE_OUTER_BOUND ( 'NONE', #898, .T. ) ;
#903 = PLANE ( 'NONE',  #984 ) ;
#904 = VECTOR ( 'NONE', #512, 1000.000000000000000 ) ;
#905 = VECTOR ( 'NONE', #833, 1000.000000000000000 ) ;
#906 = CIRCLE ( 'NONE', #421, 7.100000000000001421 ) ;
#907 = EDGE_CURVE ( 'NONE', #555, #787, #1096, .T. ) ;
#908 = PRODUCT_CONTEXT ( 'NONE', #638, 'mechanical' ) ;
#909 = DIRECTION ( 'NONE',  ( -0.000000000000000000, -0.000000000000000000, 1.000000000000000000 ) ) ;
#910 = EDGE_CURVE ( 'NONE', #1154, #985, #736, .T. ) ;
#911 = ORIENTED_EDGE ( 'NONE', *, *, #772, .T. ) ;
#912 = VERTEX_POINT ( 'NONE', #450 ) ;
#913 = DIRECTION ( 'NONE',  ( 0.000000000000000000, -0.000000000000000000, 1.000000000000000000 ) ) ;
#914 = DIRECTION ( 'NONE',  ( 1.000000000000000000, 0.000000000000000000, -0.000000000000000000 ) ) ;
#915 = MANIFOLD_SOLID_BREP ( 'Mirror5', #25 ) ;
#916 = DIRECTION ( 'NONE',  ( 0.000000000000000000, -1.000000000000000000, 0.000000000000000000 ) ) ;
#917 = LINE ( 'NONE', #920, #166 ) ;
#918 = DIRECTION ( 'NONE',  ( -1.000000000000000000, -0.000000000000000000, -0.000000000000000000 ) ) ;
#919 = LINE ( 'NONE', #442, #840 ) ;
#920 = CARTESIAN_POINT ( 'NONE',  ( -31.89999999999999147, -23.34828442116732106, 27.20000000000000284 ) ) ;
#921 = DIRECTION ( 'NONE',  ( 0.000000000000000000, 1.000000000000000000, 0.000000000000000000 ) ) ;
#922 = DIRECTION ( 'NONE',  ( -1.000000000000000000, 0.000000000000000000, 0.000000000000000000 ) ) ;
#923 = ORIENTED_EDGE ( 'NONE', *, *, #874, .F. ) ;
#924 = EDGE_CURVE ( 'NONE', #1122, #602, #785, .T. ) ;
#925 = VECTOR ( 'NONE', #820, 1000.000000000000000 ) ;
#926 = ADVANCED_FACE ( 'NONE', ( #1013 ), #1016, .T. ) ;
#927 = VECTOR ( 'NONE', #193, 1000.000000000000000 ) ;
#928 = AXIS2_PLACEMENT_3D ( 'NONE', #1153, #429, #522 ) ;
#929 = CIRCLE ( 'NONE', #665, 1.500000000000001332 ) ;
#930 = DIRECTION ( 'NONE',  ( 1.000000000000000000, 0.000000000000000000, 0.000000000000000000 ) ) ;
#931 = PLANE ( 'NONE',  #243 ) ;
#932 = LINE ( 'NONE', #647, #1117 ) ;
#933 = VECTOR ( 'NONE', #549, 1000.000000000000114 ) ;
#934 = CARTESIAN_POINT ( 'NONE',  ( 0.000000000000000000, 0.000000000000000000, 27.20000000000000284 ) ) ;
#935 = VERTEX_POINT ( 'NONE', #260 ) ;
#936 = ORIENTED_EDGE ( 'NONE', *, *, #533, .T. ) ;
#937 = LINE ( 'NONE', #294, #968 ) ;
#938 = UNCERTAINTY_MEASURE_WITH_UNIT (LENGTH_MEASURE( 1.000000000000000082E-05 ), #623, 'distance_accuracy_value', 'NONE');
#939 = FACE_OUTER_BOUND ( 'NONE', #248, .T. ) ;
#940 = FACE_OUTER_BOUND ( 'NONE', #548, .T. ) ;
#941 = ORIENTED_EDGE ( 'NONE', *, *, #191, .F. ) ;
#942 = ORIENTED_EDGE ( 'NONE', *, *, #1155, .F. ) ;
#943 = AXIS2_PLACEMENT_3D ( 'NONE', #893, #455, #914 ) ;
#944 = CYLINDRICAL_SURFACE ( 'NONE', #886, 7.099999999999998757 ) ;
#945 = AXIS2_PLACEMENT_3D ( 'NONE', #165, #362, #639 ) ;
#946 = EDGE_CURVE ( 'NONE', #151, #992, #625, .T. ) ;
#947 = DIRECTION ( 'NONE',  ( 0.000000000000000000, 0.000000000000000000, 1.000000000000000000 ) ) ;
#948 = LINE ( 'NONE', #669, #885 ) ;
#949 = VERTEX_POINT ( 'NONE', #164 ) ;
#950 = ORIENTED_EDGE ( 'NONE', *, *, #282, .T. ) ;
#951 = DIRECTION ( 'NONE',  ( 1.000000000000000000, 0.000000000000000000, 0.000000000000000000 ) ) ;
#952 = DIRECTION ( 'NONE',  ( 1.000000000000000000, 0.000000000000000000, 0.000000000000000000 ) ) ;
#953 = FACE_OUTER_BOUND ( 'NONE', #1120, .T. ) ;
#954 = VERTEX_POINT ( 'NONE', #722 ) ;
#955 = VECTOR ( 'NONE', #1010, 1000.000000000000000 ) ;
#956 = ORIENTED_EDGE ( 'NONE', *, *, #1170, .F. ) ;
#957 = FACE_OUTER_BOUND ( 'NONE', #712, .T. ) ;
#958 = FACE_OUTER_BOUND ( 'NONE', #139, .T. ) ;
#959 = DIRECTION ( 'NONE',  ( -0.000000000000000000, 0.000000000000000000, 1.000000000000000000 ) ) ;
#960 = LINE ( 'NONE', #1167, #1198 ) ;
#961 = ORIENTED_EDGE ( 'NONE', *, *, #562, .F. ) ;
#962 = DIRECTION ( 'NONE',  ( -0.7071067811865474617, -0.7071067811865474617, 0.000000000000000000 ) ) ;
#963 = ORIENTED_EDGE ( 'NONE', *, *, #1199, .T. ) ;
#964 = EDGE_CURVE ( 'NONE', #954, #468, #172, .T. ) ;
#965 = CARTESIAN_POINT ( 'NONE',  ( -36.54999999999999005, -39.24999999999999289, -24.55000000000000071 ) ) ;
#966 = DIRECTION ( 'NONE',  ( 1.000000000000000000, 0.000000000000000000, 0.000000000000000000 ) ) ;
#967 = ORIENTED_EDGE ( 'NONE', *, *, #350, .F. ) ;
#968 = VECTOR ( 'NONE', #852, 1000.000000000000000 ) ;
#969 = ORIENTED_EDGE ( 'NONE', *, *, #111, .T. ) ;
#970 = CARTESIAN_POINT ( 'NONE',  ( -31.89999999999999147, -23.34828442116732106, -27.20000000000000284 ) ) ;
#971 = EDGE_CURVE ( 'NONE', #231, #775, #361, .T. ) ;
#972 = CARTESIAN_POINT ( 'NONE',  ( -31.89999999999999147, -23.34828442116732106, 27.20000000000000284 ) ) ;
#973 = ORIENTED_EDGE ( 'NONE', *, *, #350, .T. ) ;
#974 = ORIENTED_EDGE ( 'NONE', *, *, #892, .F. ) ;
#975 = DIRECTION ( 'NONE',  ( 1.000000000000000000, 0.000000000000000000, -0.000000000000000000 ) ) ;
#976 = CARTESIAN_POINT ( 'NONE',  ( 30.95100000000001472, 2.428224350471451132E-15, -12.49999999999998224 ) ) ;
#977 = DIRECTION ( 'NONE',  ( -0.000000000000000000, -0.000000000000000000, -1.000000000000000000 ) ) ;
#978 = ORIENTED_EDGE ( 'NONE', *, *, #177, .F. ) ;
#979 = ORIENTED_EDGE ( 'NONE', *, *, #766, .F. ) ;
#980 = CARTESIAN_POINT ( 'NONE',  ( -29.49999999999999645, 0.000000000000000000, 0.000000000000000000 ) ) ;
#981 = LINE ( 'NONE', #970, #762 ) ;
#982 = EDGE_CURVE ( 'NONE', #799, #1071, #366, .T. ) ;
#983 = FACE_OUTER_BOUND ( 'NONE', #1160, .T. ) ;
#984 = AXIS2_PLACEMENT_3D ( 'NONE', #59, #627, #608 ) ;
#985 = VERTEX_POINT ( 'NONE', #1131 ) ;
#986 = EDGE_CURVE ( 'NONE', #1154, #501, #756, .T. ) ;
#987 = VERTEX_POINT ( 'NONE', #1125 ) ;
#988 = AXIS2_PLACEMENT_3D ( 'NONE', #1108, #373, #951 ) ;
#989 = AXIS2_PLACEMENT_3D ( 'NONE', #976, #887, #48 ) ;
#990 = LINE ( 'NONE', #1104, #477 ) ;
#991 = ORIENTED_EDGE ( 'NONE', *, *, #1170, .T. ) ;
#992 = VERTEX_POINT ( 'NONE', #302 ) ;
#993 = CARTESIAN_POINT ( 'NONE',  ( -32.74999999999998579, -23.34828442116732106, -9.616917401453875414 ) ) ;
#994 = ADVANCED_FACE ( 'NONE', ( #939 ), #583, .F. ) ;
#995 = PLANE ( 'NONE',  #943 ) ;
#996 = VECTOR ( 'NONE', #264, 1000.000000000000000 ) ;
#997 = SHAPE_DEFINITION_REPRESENTATION ( #278, #365 ) ;
#998 = CARTESIAN_POINT ( 'NONE',  ( -36.54999999999999005, -53.34828442116732106, 7.100000000000010303 ) ) ;
#999 = ORIENTED_EDGE ( 'NONE', *, *, #587, .T. ) ;
#1000 = DIRECTION ( 'NONE',  ( -0.000000000000000000, 1.000000000000000000, -0.000000000000000000 ) ) ;
#1001 = ADVANCED_FACE ( 'NONE', ( #1141, #1032 ), #577, .T. ) ;
#1002 = CARTESIAN_POINT ( 'NONE',  ( -29.49999999999999645, -23.34828442116732106, -27.20000000000000284 ) ) ;
#1003 = DIRECTION ( 'NONE',  ( 1.000000000000000000, 0.000000000000000000, 0.000000000000000000 ) ) ;
#1004 = DIRECTION ( 'NONE',  ( 0.000000000000000000, 0.000000000000000000, 1.000000000000000000 ) ) ;
#1005 = AXIS2_PLACEMENT_3D ( 'NONE', #581, #488, #913 ) ;
#1006 = AXIS2_PLACEMENT_3D ( 'NONE', #78, #1094, #826 ) ;
#1007 = FACE_OUTER_BOUND ( 'NONE', #560, .T. ) ;
#1008 = ORIENTED_EDGE ( 'NONE', *, *, #645, .T. ) ;
#1009 = PRESENTATION_STYLE_ASSIGNMENT (( #800 ) ) ;
#1010 = DIRECTION ( 'NONE',  ( 0.000000000000000000, 0.000000000000000000, -1.000000000000000000 ) ) ;
#1011 = CARTESIAN_POINT ( 'NONE',  ( -36.54999999999999005, -53.34828442116732106, -7.099999999999993427 ) ) ;
#1012 = ADVANCED_FACE ( 'NONE', ( #867 ), #218, .F. ) ;
#1013 = FACE_OUTER_BOUND ( 'NONE', #663, .T. ) ;
#1014 = ORIENTED_EDGE ( 'NONE', *, *, #111, .F. ) ;
#1015 = DIRECTION ( 'NONE',  ( 0.000000000000000000, -0.3940327209102241213, -0.9190964121636453488 ) ) ;
#1016 = CYLINDRICAL_SURFACE ( 'NONE', #1101, 1.500000000000001332 ) ;
#1017 = DIRECTION ( 'NONE',  ( 0.000000000000000000, 0.000000000000000000, 1.000000000000000000 ) ) ;
#1018 = DIRECTION ( 'NONE',  ( 1.000000000000000000, -0.000000000000000000, -0.000000000000000000 ) ) ;
#1019 = VECTOR ( 'NONE', #527, 1000.000000000000000 ) ;
#1020 = VECTOR ( 'NONE', #1022, 1000.000000000000000 ) ;
#1021 = DIRECTION ( 'NONE',  ( 1.000000000000000000, 0.000000000000000000, 0.000000000000000000 ) ) ;
#1022 = DIRECTION ( 'NONE',  ( -1.000000000000000000, -0.000000000000000000, -0.000000000000000000 ) ) ;
#1023 = ORIENTED_EDGE ( 'NONE', *, *, #946, .F. ) ;
#1024 = ORIENTED_EDGE ( 'NONE', *, *, #725, .T. ) ;
#1025 = DIRECTION ( 'NONE',  ( -0.000000000000000000, 1.000000000000000000, -0.000000000000000000 ) ) ;
#1026 = CARTESIAN_POINT ( 'NONE',  ( -31.89999999999999147, -23.34828442116732106, -27.20000000000000284 ) ) ;
#1027 = DIRECTION ( 'NONE',  ( 1.000000000000000000, -0.000000000000000000, 0.000000000000000000 ) ) ;
#1028 = VERTEX_POINT ( 'NONE', #472 ) ;
#1029 = EDGE_LOOP ( 'NONE', ( #768, #11, #318, #704, #731, #856, #1113, #1169, #644 ) ) ;
#1030 = EDGE_CURVE ( 'NONE', #336, #864, #1042, .T. ) ;
#1031 = LINE ( 'NONE', #652, #1200 ) ;
#1032 = FACE_OUTER_BOUND ( 'NONE', #486, .T. ) ;
#1033 = CARTESIAN_POINT ( 'NONE',  ( -31.89999999999999147, 0.000000000000000000, 0.000000000000000000 ) ) ;
#1034 = ORIENTED_EDGE ( 'NONE', *, *, #426, .T. ) ;
#1035 = ORIENTED_EDGE ( 'NONE', *, *, #1123, .T. ) ;
#1036 = AXIS2_PLACEMENT_3D ( 'NONE', #499, #1165, #771 ) ;
#1037 = AXIS2_PLACEMENT_3D ( 'NONE', #183, #543, #367 ) ;
#1038 = FACE_OUTER_BOUND ( 'NONE', #1029, .T. ) ;
#1039 = CIRCLE ( 'NONE', #642, 7.099999999999998757 ) ;
#1040 = EDGE_CURVE ( 'NONE', #949, #254, #198, .T. ) ;
#1041 = VECTOR ( 'NONE', #117, 1000.000000000000000 ) ;
#1042 = LINE ( 'NONE', #382, #201 ) ;
#1043 = DIRECTION ( 'NONE',  ( 0.000000000000000000, 0.000000000000000000, -1.000000000000000000 ) ) ;
#1044 = ORIENTED_EDGE ( 'NONE', *, *, #702, .F. ) ;
#1045 = EDGE_CURVE ( 'NONE', #236, #912, #108, .T. ) ;
#1046 = ORIENTED_EDGE ( 'NONE', *, *, #1199, .F. ) ;
#1047 = PLANE ( 'NONE',  #838 ) ;
#1048 = DIRECTION ( 'NONE',  ( 0.000000000000000000, 0.000000000000000000, 1.000000000000000000 ) ) ;
#1049 = DIRECTION ( 'NONE',  ( 0.000000000000000000, -1.000000000000000000, 0.000000000000000000 ) ) ;
#1050 = ADVANCED_FACE ( 'NONE', ( #853 ), #19, .T. ) ;
#1051 = PLANE ( 'NONE',  #727 ) ;
#1052 = ORIENTED_EDGE ( 'NONE', *, *, #1089, .F. ) ;
#1053 = VECTOR ( 'NONE', #962, 1000.000000000000114 ) ;
#1054 = ADVANCED_FACE ( 'NONE', ( #233 ), #598, .T. ) ;
#1055 = ORIENTED_EDGE ( 'NONE', *, *, #17, .T. ) ;
#1056 = LINE ( 'NONE', #41, #494 ) ;
#1057 = DIRECTION ( 'NONE',  ( 1.000000000000000000, 1.438880092385038863E-16, 0.000000000000000000 ) ) ;
#1058 = CARTESIAN_POINT ( 'NONE',  ( -36.54999999999999005, -53.34828442116732106, 8.673617379884035472E-15 ) ) ;
#1059 = VERTEX_POINT ( 'NONE', #49 ) ;
#1060 = ORIENTED_EDGE ( 'NONE', *, *, #695, .T. ) ;
#1061 = DIRECTION ( 'NONE',  ( 0.000000000000000000, -1.000000000000000000, 5.827738441131490604E-16 ) ) ;
#1062 = LINE ( 'NONE', #1176, #1019 ) ;
#1063 = CIRCLE ( 'NONE', #305, 7.099999999999996980 ) ;
#1064 = FACE_OUTER_BOUND ( 'NONE', #133, .T. ) ;
#1065 = ORIENTED_EDGE ( 'NONE', *, *, #688, .T. ) ;
#1066 = AXIS2_PLACEMENT_3D ( 'NONE', #410, #403, #38 ) ;
#1067 = ORIENTED_EDGE ( 'NONE', *, *, #60, .T. ) ;
#1068 = DIRECTION ( 'NONE',  ( -1.000000000000000000, -0.000000000000000000, -0.000000000000000000 ) ) ;
#1069 = DIRECTION ( 'NONE',  ( -1.000000000000000000, 0.000000000000000000, -0.000000000000000000 ) ) ;
#1070 = ORIENTED_EDGE ( 'NONE', *, *, #489, .F. ) ;
#1071 = VERTEX_POINT ( 'NONE', #1152 ) ;
#1072 = CARTESIAN_POINT ( 'NONE',  ( -32.54999999999999005, -44.41604593830443548, 12.50000000000000711 ) ) ;
#1073 = DIRECTION ( 'NONE',  ( 0.000000000000000000, -0.3940327209102226780, 0.9190964121636459039 ) ) ;
#1074 = LINE ( 'NONE', #879, #497 ) ;
#1075 = ORIENTED_EDGE ( 'NONE', *, *, #1091, .F. ) ;
#1076 = ORIENTED_EDGE ( 'NONE', *, *, #824, .F. ) ;
#1077 = DIRECTION ( 'NONE',  ( -1.000000000000000000, -0.000000000000000000, -0.000000000000000000 ) ) ;
#1078 = CARTESIAN_POINT ( 'NONE',  ( -36.54999999999999005, -27.14828442116734664, -28.05000000000000071 ) ) ;
#1079 = LINE ( 'NONE', #239, #574 ) ;
#1080 = VECTOR ( 'NONE', #136, 1000.000000000000000 ) ;
#1081 = EDGE_CURVE ( 'NONE', #371, #954, #1195, .T. ) ;
#1082 = ORIENTED_EDGE ( 'NONE', *, *, #280, .F. ) ;
#1083 = ORIENTED_EDGE ( 'NONE', *, *, #757, .T. ) ;
#1084 = DIRECTION ( 'NONE',  ( 0.000000000000000000, 0.000000000000000000, -1.000000000000000000 ) ) ;
#1085 = VECTOR ( 'NONE', #470, 999.9999999999998863 ) ;
#1086 = DIRECTION ( 'NONE',  ( 1.000000000000000000, 0.000000000000000000, 0.000000000000000000 ) ) ;
#1087 = DIRECTION ( 'NONE',  ( -0.000000000000000000, 1.000000000000000000, -0.000000000000000000 ) ) ;
#1088 = ORIENTED_EDGE ( 'NONE', *, *, #971, .T. ) ;
#1089 = EDGE_CURVE ( 'NONE', #210, #1128, #149, .T. ) ;
#1090 = VERTEX_POINT ( 'NONE', #1116 ) ;
#1091 = EDGE_CURVE ( 'NONE', #501, #1028, #1063, .T. ) ;
#1092 = LINE ( 'NONE', #272, #203 ) ;
#1093 = LINE ( 'NONE', #811, #996 ) ;
#1094 = DIRECTION ( 'NONE',  ( -0.000000000000000000, 5.827738441131490604E-16, 1.000000000000000000 ) ) ;
#1095 = ORIENTED_EDGE ( 'NONE', *, *, #824, .T. ) ;
#1096 = LINE ( 'NONE', #707, #781 ) ;
#1097 = DIRECTION ( 'NONE',  ( -0.000000000000000000, 0.000000000000000000, 1.000000000000000000 ) ) ;
#1098 = CARTESIAN_POINT ( 'NONE',  ( -28.64999999999999858, -16.85999999999956245, -12.49999999999865885 ) ) ;
#1099 = EDGE_LOOP ( 'NONE', ( #748, #870, #190, #843 ) ) ;
#1100 = FILL_AREA_STYLE ('',( #815 ) ) ;
#1101 = AXIS2_PLACEMENT_3D ( 'NONE', #275, #1111, #268 ) ;
#1102 = AXIS2_PLACEMENT_3D ( 'NONE', #819, #922, #1017 ) ;
#1103 = ADVANCED_FACE ( 'NONE', ( #106 ), #563, .T. ) ;
#1104 = CARTESIAN_POINT ( 'NONE',  ( -31.89999999999999147, -23.34828442116732106, -27.20000000000000284 ) ) ;
#1105 = EDGE_LOOP ( 'NONE', ( #1088, #6, #1168, #189, #740, #692, #493, #861, #515, #40, #469, #332 ) ) ;
#1106 = VECTOR ( 'NONE', #169, 1000.000000000000000 ) ;
#1107 = EDGE_CURVE ( 'NONE', #105, #338, #396, .T. ) ;
#1108 = CARTESIAN_POINT ( 'NONE',  ( 30.94999999999999929, -39.25000000000000000, 24.54999999999995808 ) ) ;
#1109 = CARTESIAN_POINT ( 'NONE',  ( -32.54999999999999005, -38.02177948580123257, 27.18392739261105007 ) ) ;
#1110 = FACE_OUTER_BOUND ( 'NONE', #240, .T. ) ;
#1111 = DIRECTION ( 'NONE',  ( -1.000000000000000000, 0.000000000000000000, 0.000000000000000000 ) ) ;
#1112 = DIRECTION ( 'NONE',  ( 0.000000000000000000, 0.000000000000000000, 1.000000000000000000 ) ) ;
#1113 = ORIENTED_EDGE ( 'NONE', *, *, #156, .T. ) ;
#1114 = VECTOR ( 'NONE', #436, 1000.000000000000000 ) ;
#1115 = VECTOR ( 'NONE', #566, 1000.000000000000000 ) ;
#1116 = CARTESIAN_POINT ( 'NONE',  ( -28.64999999999999503, -23.34828442116732106, -24.45000000000000639 ) ) ;
#1117 = VECTOR ( 'NONE', #479, 1000.000000000000000 ) ;
#1118 = LINE ( 'NONE', #750, #81 ) ;
#1119 = DIRECTION ( 'NONE',  ( 0.000000000000000000, 1.000000000000000000, 0.000000000000000000 ) ) ;
#1120 = EDGE_LOOP ( 'NONE', ( #942, #685, #649, #126 ) ) ;
#1121 = EDGE_CURVE ( 'NONE', #881, #666, #769, .T. ) ;
#1122 = VERTEX_POINT ( 'NONE', #502 ) ;
#1123 = EDGE_CURVE ( 'NONE', #1028, #985, #368, .T. ) ;
#1124 = DIRECTION ( 'NONE',  ( 0.000000000000000000, 0.000000000000000000, -1.000000000000000000 ) ) ;
#1125 = CARTESIAN_POINT ( 'NONE',  ( -28.65000000000000213, 0.000000000000000000, 24.45000000000000639 ) ) ;
#1126 = DIRECTION ( 'NONE',  ( 0.000000000000000000, 0.000000000000000000, 1.000000000000000000 ) ) ;
#1127 = VERTEX_POINT ( 'NONE', #222 ) ;
#1128 = VERTEX_POINT ( 'NONE', #684 ) ;
#1129 = EDGE_CURVE ( 'NONE', #1127, #864, #876, .T. ) ;
#1130 = DIRECTION ( 'NONE',  ( 0.000000000000000000, 0.000000000000000000, -1.000000000000000000 ) ) ;
#1131 = CARTESIAN_POINT ( 'NONE',  ( -32.74999999999998579, -23.34828442116732106, -9.616917401453875414 ) ) ;
#1132 = CARTESIAN_POINT ( 'NONE',  ( -32.54999999999999005, -36.66231780524625350, -26.55000000000000071 ) ) ;
#1133 = VERTEX_POINT ( 'NONE', #851 ) ;
#1134 = CARTESIAN_POINT ( 'NONE',  ( -36.54999999999999005, -53.34604593830443520, 12.50000000000001243 ) ) ;
#1135 = EDGE_LOOP ( 'NONE', ( #869, #200, #398, #112, #793, #135, #214, #179, #98, #380, #323, #71 ) ) ;
#1136 = LINE ( 'NONE', #1145, #1158 ) ;
#1137 = VECTOR ( 'NONE', #425, 1000.000000000000114 ) ;
#1138 = VECTOR ( 'NONE', #199, 1000.000000000000000 ) ;
#1139 = EDGE_CURVE ( 'NONE', #881, #1154, #1173, .T. ) ;
#1140 = VECTOR ( 'NONE', #238, 1000.000000000000000 ) ;
#1141 = FACE_BOUND ( 'NONE', #770, .T. ) ;
#1142 = CYLINDRICAL_SURFACE ( 'NONE', #519, 12.50000000000000178 ) ;
#1143 = VERTEX_POINT ( 'NONE', #593 ) ;
#1144 = ORIENTED_EDGE ( 'NONE', *, *, #32, .F. ) ;
#1145 = CARTESIAN_POINT ( 'NONE',  ( -29.49999999999999645, -23.34828442116732106, 24.45000000000000639 ) ) ;
#1146 = DIRECTION ( 'NONE',  ( -1.000000000000000000, -0.000000000000000000, -0.000000000000000000 ) ) ;
#1147 = CARTESIAN_POINT ( 'NONE',  ( -28.64999999999999503, 0.000000000000000000, -24.45000000000000639 ) ) ;
#1148 = EDGE_LOOP ( 'NONE', ( #884, #670, #897, #724 ) ) ;
#1149 = ORIENTED_EDGE ( 'NONE', *, *, #1166, .F. ) ;
#1150 = CARTESIAN_POINT ( 'NONE',  ( 30.95100000000001472, -39.25000000000000000, -24.55000000000000071 ) ) ;
#1151 = DIRECTION ( 'NONE',  ( -0.000000000000000000, -0.000000000000000000, -1.000000000000000000 ) ) ;
#1152 = CARTESIAN_POINT ( 'NONE',  ( -32.74999999999998579, 0.000000000000000000, -24.55000000000000426 ) ) ;
#1153 = CARTESIAN_POINT ( 'NONE',  ( -36.54999999999999005, -36.66231780524625350, 26.55000000000000071 ) ) ;
#1154 = VERTEX_POINT ( 'NONE', #507 ) ;
#1155 = EDGE_CURVE ( 'NONE', #567, #1133, #154, .T. ) ;
#1156 = ORIENTED_EDGE ( 'NONE', *, *, #1177, .F. ) ;
#1157 = LINE ( 'NONE', #965, #309 ) ;
#1158 = VECTOR ( 'NONE', #407, 1000.000000000000000 ) ;
#1159 = DIRECTION ( 'NONE',  ( -0.000000000000000000, 0.000000000000000000, 1.000000000000000000 ) ) ;
#1160 = EDGE_LOOP ( 'NONE', ( #654, #97, #963, #999, #698, #596, #430, #536, #531, #1095, #1162, #1060 ) ) ;
#1161 = VECTOR ( 'NONE', #576, 1000.000000000000114 ) ;
#1162 = ORIENTED_EDGE ( 'NONE', *, *, #228, .T. ) ;
#1163 = LINE ( 'NONE', #128, #904 ) ;
#1164 = EDGE_CURVE ( 'NONE', #487, #523, #358, .T. ) ;
#1165 = DIRECTION ( 'NONE',  ( -0.7071067811865475727, 0.7071067811865475727, 0.000000000000000000 ) ) ;
#1166 = EDGE_CURVE ( 'NONE', #62, #774, #545, .T. ) ;
#1167 = CARTESIAN_POINT ( 'NONE',  ( -29.49999999999999645, -23.34828442116732106, 27.20000000000000284 ) ) ;
#1168 = ORIENTED_EDGE ( 'NONE', *, *, #146, .T. ) ;
#1169 = ORIENTED_EDGE ( 'NONE', *, *, #732, .T. ) ;
#1170 = EDGE_CURVE ( 'NONE', #371, #411, #1093, .T. ) ;
#1171 = CARTESIAN_POINT ( 'NONE',  ( -28.64999999999999503, -23.34828442116732106, 28.05000000000000426 ) ) ;
#1172 = ORIENTED_EDGE ( 'NONE', *, *, #1193, .T. ) ;
#1173 = LINE ( 'NONE', #255, #790 ) ;
#1174 = ORIENTED_EDGE ( 'NONE', *, *, #910, .T. ) ;
#1175 = CARTESIAN_POINT ( 'NONE',  ( -32.74999999999998579, -23.34828442116732106, -24.55000000000000426 ) ) ;
#1176 = CARTESIAN_POINT ( 'NONE',  ( 0.000000000000000000, 0.000000000000000000, 24.45000000000000639 ) ) ;
#1177 = EDGE_CURVE ( 'NONE', #481, #478, #618, .T. ) ;
#1178 =( NAMED_UNIT ( * ) PLANE_ANGLE_UNIT ( ) SI_UNIT ( $, .RADIAN. ) );
#1179 = DIRECTION ( 'NONE',  ( -0.000000000000000000, 0.000000000000000000, 1.000000000000000000 ) ) ;
#1180 = ORIENTED_EDGE ( 'NONE', *, *, #1181, .F. ) ;
#1181 = EDGE_CURVE ( 'NONE', #338, #62, #728, .T. ) ;
#1182 = VECTOR ( 'NONE', #138, 1000.000000000000000 ) ;
#1183 = ORIENTED_EDGE ( 'NONE', *, *, #215, .F. ) ;
#1184 = LINE ( 'NONE', #895, #673 ) ;
#1185 = DIRECTION ( 'NONE',  ( 0.000000000000000000, 1.000000000000000000, 0.000000000000000000 ) ) ;
#1186 = CYLINDRICAL_SURFACE ( 'NONE', #945, 7.099999999999998757 ) ;
#1187 = VERTEX_POINT ( 'NONE', #258 ) ;
#1188 = CARTESIAN_POINT ( 'NONE',  ( -33.57804639929346280, -24.17633082046079807, -11.48040912217380694 ) ) ;
#1189 = PLANE ( 'NONE',  #784 ) ;
#1190 = CARTESIAN_POINT ( 'NONE',  ( -32.54999999999999005, -44.41604593830443548, -12.49999999999999112 ) ) ;
#1191 = CARTESIAN_POINT ( 'NONE',  ( -36.54999999999999005, -36.66231780524625350, -28.05000000000000071 ) ) ;
#1192 = FACE_OUTER_BOUND ( 'NONE', #377, .T. ) ;
#1193 = EDGE_CURVE ( 'NONE', #231, #16, #273, .T. ) ;
#1194 = DIRECTION ( 'NONE',  ( 0.000000000000000000, 0.000000000000000000, 1.000000000000000000 ) ) ;
#1195 = CIRCLE ( 'NONE', #142, 7.100000000000000533 ) ;
#1196 = DIRECTION ( 'NONE',  ( 1.000000000000000000, 1.438880092385038863E-16, 0.000000000000000000 ) ) ;
#1197 = VECTOR ( 'NONE', #1027, 1000.000000000000000 ) ;
#1198 = VECTOR ( 'NONE', #331, 1000.000000000000000 ) ;
#1199 = EDGE_CURVE ( 'NONE', #62, #16, #1184, .T. ) ;
#1200 = VECTOR ( 'NONE', #1130, 1000.000000000000000 ) ;
#1201 = ADVANCED_FACE ( 'NONE', ( #451 ), #67, .F. ) ;
#1202 = CARTESIAN_POINT ( 'NONE',  ( -32.54999999999999005, -53.34828442116732106, 7.100000000000009415 ) ) ;
#1203 = CARTESIAN_POINT ( 'NONE',  ( -32.74999999999998579, 0.000000000000000000, -24.55000000000000426 ) ) ;
#1204 = DIRECTION ( 'NONE',  ( -1.000000000000000000, 0.000000000000000000, -0.000000000000000000 ) ) ;
#1205 = DIRECTION ( 'NONE',  ( 0.000000000000000000, 0.000000000000000000, -1.000000000000000000 ) ) ;
#1206 = FACE_OUTER_BOUND ( 'NONE', #1105, .T. ) ;
ENDSEC;
END-ISO-10303-21;
