ISO-10303-21;
HEADER;
FILE_DESCRIPTION (( 'STEP AP214' ),
    '1' );
FILE_NAME ('Thigh-housing-wall.STEP',
    '2026-01-04T18:09:12',
    ( '' ),
    ( '' ),
    'SwSTEP 2.0',
    'SolidWorks 2025',
    '' );
FILE_SCHEMA (( 'AUTOMOTIVE_DESIGN' ));
ENDSEC;

DATA;
#1 = LINE ( 'NONE', #557, #230 ) ;
#2 = ORIENTED_EDGE ( 'NONE', *, *, #65, .T. ) ;
#3 = DIRECTION ( 'NONE',  ( 1.000000000000000000, -0.000000000000000000, -0.000000000000000000 ) ) ;
#4 = ADVANCED_FACE ( 'NONE', ( #55 ), #259, .T. ) ;
#5 = ORIENTED_EDGE ( 'NONE', *, *, #502, .T. ) ;
#6 = ADVANCED_FACE ( 'NONE', ( #86, #309 ), #345, .T. ) ;
#7 = VECTOR ( 'NONE', #14, 1000.000000000000000 ) ;
#8 = VERTEX_POINT ( 'NONE', #297 ) ;
#9 = CARTESIAN_POINT ( 'NONE',  ( 59.39999999999999858, -49.64000000000001478, -7.099999999999778488 ) ) ;
#10 = CIRCLE ( 'NONE', #454, 7.100000000000002309 ) ;
#11 = CARTESIAN_POINT ( 'NONE',  ( 60.90000000000000568, -49.64000000000001478, 2.220446049250313081E-13 ) ) ;
#12 = FILL_AREA_STYLE ('',( #98 ) ) ;
#13 = ADVANCED_FACE ( 'NONE', ( #224 ), #468, .T. ) ;
#14 = DIRECTION ( 'NONE',  ( 1.000000000000000000, -0.000000000000000000, -0.000000000000000000 ) ) ;
#15 = DIRECTION ( 'NONE',  ( -1.000000000000000000, -0.000000000000000000, -0.000000000000000000 ) ) ;
#16 = DIRECTION ( 'NONE',  ( 0.000000000000000000, 0.000000000000000000, -1.000000000000000000 ) ) ;
#17 = ORIENTED_EDGE ( 'NONE', *, *, #441, .F. ) ;
#18 = CARTESIAN_POINT ( 'NONE',  ( 55.89999999999999858, -31.34999999999998721, 17.14999999999999503 ) ) ;
#19 = VECTOR ( 'NONE', #344, 1000.000000000000000 ) ;
#20 = UNCERTAINTY_MEASURE_WITH_UNIT (LENGTH_MEASURE( 1.000000000000000082E-05 ), #501, 'distance_accuracy_value', 'NONE');
#21 = CARTESIAN_POINT ( 'NONE',  ( 60.90000000000000568, -49.64000000000001478, 2.220446049250313081E-13 ) ) ;
#22 = VERTEX_POINT ( 'NONE', #258 ) ;
#23 = DIRECTION ( 'NONE',  ( -1.000000000000000000, -0.000000000000000000, -0.000000000000000000 ) ) ;
#24 = ADVANCED_FACE ( 'NONE', ( #215 ), #179, .F. ) ;
#25 = ADVANCED_FACE ( 'NONE', ( #380 ), #473, .T. ) ;
#26 = VECTOR ( 'NONE', #63, 1000.000000000000000 ) ;
#27 = DIRECTION ( 'NONE',  ( 1.000000000000000000, -0.000000000000000000, -0.000000000000000000 ) ) ;
#28 = CIRCLE ( 'NONE', #100, 8.000000000000000000 ) ;
#29 = PLANE ( 'NONE',  #316 ) ;
#30 = EDGE_CURVE ( 'NONE', #331, #36, #480, .T. ) ;
#31 = CARTESIAN_POINT ( 'NONE',  ( 61.90000000000000568, -49.64000000000001478, 2.220446049250313081E-13 ) ) ;
#32 = DIRECTION ( 'NONE',  ( 1.000000000000000000, 0.000000000000000000, 0.000000000000000000 ) ) ;
#33 = VECTOR ( 'NONE', #110, 1000.000000000000000 ) ;
#34 = ORIENTED_EDGE ( 'NONE', *, *, #202, .T. ) ;
#35 = AXIS2_PLACEMENT_3D ( 'NONE', #239, #118, #409 ) ;
#36 = VERTEX_POINT ( 'NONE', #421 ) ;
#37 = CARTESIAN_POINT ( 'NONE',  ( 55.89999999999999858, -49.64000000000001478, 2.220446049250313081E-13 ) ) ;
#38 = ORIENTED_EDGE ( 'NONE', *, *, #524, .F. ) ;
#39 = EDGE_CURVE ( 'NONE', #348, #286, #1, .T. ) ;
#40 = VERTEX_POINT ( 'NONE', #220 ) ;
#41 = DIRECTION ( 'NONE',  ( -1.000000000000000000, 0.000000000000000000, 0.000000000000000000 ) ) ;
#42 = CIRCLE ( 'NONE', #245, 7.100000000000000533 ) ;
#43 = ORIENTED_EDGE ( 'NONE', *, *, #152, .T. ) ;
#44 = VERTEX_POINT ( 'NONE', #342 ) ;
#45 = CARTESIAN_POINT ( 'NONE',  ( 55.39999999999999858, -49.64000000000001478, -8.999999999999777955 ) ) ;
#46 = DIRECTION ( 'NONE',  ( 0.000000000000000000, 0.000000000000000000, -1.000000000000000000 ) ) ;
#47 = PRODUCT ( 'Thigh-housing-wall', 'Thigh-housing-wall', '', ( #310 ) ) ;
#48 = AXIS2_PLACEMENT_3D ( 'NONE', #499, #327, #168 ) ;
#49 = EDGE_CURVE ( 'NONE', #331, #516, #387, .T. ) ;
#50 = FACE_OUTER_BOUND ( 'NONE', #246, .T. ) ;
#51 = CARTESIAN_POINT ( 'NONE',  ( -4.250000000000079936, -31.34999999999998721, 17.14999999999999503 ) ) ;
#52 = PRODUCT_DEFINITION_FORMATION_WITH_SPECIFIED_SOURCE ( 'ANY', '', #47, .NOT_KNOWN. ) ;
#53 = ORIENTED_EDGE ( 'NONE', *, *, #39, .T. ) ;
#54 = DIRECTION ( 'NONE',  ( 0.000000000000000000, 0.000000000000000000, 1.000000000000000000 ) ) ;
#55 = FACE_OUTER_BOUND ( 'NONE', #83, .T. ) ;
#56 = APPLICATION_CONTEXT ( 'automotive_design' ) ;
#57 = AXIS2_PLACEMENT_3D ( 'NONE', #385, #88, #470 ) ;
#58 = DIRECTION ( 'NONE',  ( -1.000000000000000000, 0.000000000000000000, 0.000000000000000000 ) ) ;
#59 = PRODUCT_DEFINITION_SHAPE ( 'NONE', 'NONE',  #496 ) ;
#60 = LINE ( 'NONE', #537, #444 ) ;
#61 = LINE ( 'NONE', #270, #126 ) ;
#62 = ORIENTED_EDGE ( 'NONE', *, *, #441, .T. ) ;
#63 = DIRECTION ( 'NONE',  ( 1.000000000000000000, -0.000000000000000000, -0.000000000000000000 ) ) ;
#64 = CARTESIAN_POINT ( 'NONE',  ( 60.90000000000000568, -49.64000000000001478, 9.000000000000223821 ) ) ;
#65 = EDGE_CURVE ( 'NONE', #465, #8, #137, .T. ) ;
#66 = CARTESIAN_POINT ( 'NONE',  ( 59.39999999999999858, -49.64000000000001478, 2.220446049250313081E-13 ) ) ;
#67 = AXIS2_PLACEMENT_3D ( 'NONE', #284, #247, #330 ) ;
#68 = UNCERTAINTY_MEASURE_WITH_UNIT (LENGTH_MEASURE( 1.000000000000000082E-05 ), #536, 'distance_accuracy_value', 'NONE');
#69 = PLANE ( 'NONE',  #190 ) ;
#70 = DIRECTION ( 'NONE',  ( 1.000000000000000000, 0.000000000000000000, 0.000000000000000000 ) ) ;
#71 = ORIENTED_EDGE ( 'NONE', *, *, #265, .T. ) ;
#72 = VECTOR ( 'NONE', #191, 1000.000000000000000 ) ;
#73 = DIRECTION ( 'NONE',  ( 1.000000000000000000, 0.000000000000000000, 0.000000000000000000 ) ) ;
#74 = EDGE_CURVE ( 'NONE', #535, #44, #194, .T. ) ;
#75 = PLANE ( 'NONE',  #112 ) ;
#76 = VECTOR ( 'NONE', #174, 1000.000000000000000 ) ;
#77 = ORIENTED_EDGE ( 'NONE', *, *, #484, .F. ) ;
#78 = CARTESIAN_POINT ( 'NONE',  ( 59.39999999999999858, -49.64000000000001478, 2.220446049250313081E-13 ) ) ;
#79 = ORIENTED_EDGE ( 'NONE', *, *, #39, .F. ) ;
#80 = EDGE_CURVE ( 'NONE', #348, #40, #60, .T. ) ;
#81 = CARTESIAN_POINT ( 'NONE',  ( 59.39999999999999858, -49.64000000000001478, 7.100000000000222578 ) ) ;
#82 = EDGE_CURVE ( 'NONE', #169, #164, #205, .T. ) ;
#83 = EDGE_LOOP ( 'NONE', ( #495, #129, #193, #425 ) ) ;
#84 = ORIENTED_EDGE ( 'NONE', *, *, #82, .F. ) ;
#85 = DIRECTION ( 'NONE',  ( 1.000000000000000000, -0.000000000000000000, -0.000000000000000000 ) ) ;
#86 = FACE_BOUND ( 'NONE', #351, .T. ) ;
#87 = CARTESIAN_POINT ( 'NONE',  ( 61.90000000000000568, -49.64000000000001478, 2.220446049250313081E-13 ) ) ;
#88 = DIRECTION ( 'NONE',  ( -1.000000000000000000, 0.000000000000000000, 0.000000000000000000 ) ) ;
#89 = EDGE_CURVE ( 'NONE', #465, #240, #272, .T. ) ;
#90 = ORIENTED_EDGE ( 'NONE', *, *, #167, .T. ) ;
#91 = DIRECTION ( 'NONE',  ( 0.000000000000000000, 0.000000000000000000, -1.000000000000000000 ) ) ;
#92 = DIRECTION ( 'NONE',  ( 1.000000000000000000, -0.000000000000000000, -0.000000000000000000 ) ) ;
#93 = AXIS2_PLACEMENT_3D ( 'NONE', #553, #127, #171 ) ;
#94 = APPLICATION_CONTEXT ( 'automotive_design' ) ;
#95 = CARTESIAN_POINT ( 'NONE',  ( -2.001000000000002998, -49.64000000000001478, 2.220446049250313081E-13 ) ) ;
#96 = ORIENTED_EDGE ( 'NONE', *, *, #108, .T. ) ;
#97 = APPLICATION_PROTOCOL_DEFINITION ( 'draft international standard', 'automotive_design', 1998, #94 ) ;
#98 = FILL_AREA_STYLE_COLOUR ( '', #233 ) ;
#99 =( NAMED_UNIT ( * ) PLANE_ANGLE_UNIT ( ) SI_UNIT ( $, .RADIAN. ) );
#100 = AXIS2_PLACEMENT_3D ( 'NONE', #153, #395, #16 ) ;
#101 = DIRECTION ( 'NONE',  ( 0.000000000000000000, 0.000000000000000000, -1.000000000000000000 ) ) ;
#102 = EDGE_CURVE ( 'NONE', #449, #213, #391, .T. ) ;
#103 = LINE ( 'NONE', #143, #72 ) ;
#104 = PLANE ( 'NONE',  #249 ) ;
#105 = DIRECTION ( 'NONE',  ( 0.000000000000000000, 0.000000000000000000, -1.000000000000000000 ) ) ;
#106 = CARTESIAN_POINT ( 'NONE',  ( 60.90000000000000568, -49.64000000000001478, -8.999999999999779732 ) ) ;
#107 = ORIENTED_EDGE ( 'NONE', *, *, #65, .F. ) ;
#108 = EDGE_CURVE ( 'NONE', #199, #550, #367, .T. ) ;
#109 = CARTESIAN_POINT ( 'NONE',  ( 0.000000000000000000, 0.000000000000000000, 0.000000000000000000 ) ) ;
#110 = DIRECTION ( 'NONE',  ( 0.7071067811865463515, 0.000000000000000000, -0.7071067811865487940 ) ) ;
#111 = ORIENTED_EDGE ( 'NONE', *, *, #502, .F. ) ;
#112 = AXIS2_PLACEMENT_3D ( 'NONE', #78, #73, #165 ) ;
#113 = CARTESIAN_POINT ( 'NONE',  ( 60.90000000000000568, -49.64000000000001478, 2.220446049250313081E-13 ) ) ;
#114 = ORIENTED_EDGE ( 'NONE', *, *, #30, .F. ) ;
#115 = EDGE_CURVE ( 'NONE', #169, #22, #483, .T. ) ;
#116 = DIRECTION ( 'NONE',  ( 1.000000000000000000, -0.000000000000000000, -0.000000000000000000 ) ) ;
#117 = ORIENTED_EDGE ( 'NONE', *, *, #74, .F. ) ;
#118 = DIRECTION ( 'NONE',  ( -1.000000000000000000, -0.000000000000000000, -0.000000000000000000 ) ) ;
#119 = ORIENTED_EDGE ( 'NONE', *, *, #80, .T. ) ;
#120 = CARTESIAN_POINT ( 'NONE',  ( 60.90000000000000568, -49.64000000000001478, -7.999999999999777955 ) ) ;
#121 = VECTOR ( 'NONE', #85, 1000.000000000000000 ) ;
#122 = ORIENTED_EDGE ( 'NONE', *, *, #505, .F. ) ;
#123 = ORIENTED_EDGE ( 'NONE', *, *, #524, .T. ) ;
#124 = CARTESIAN_POINT ( 'NONE',  ( 60.90000000000000568, -49.64000000000001478, 5.500000000000221156 ) ) ;
#125 = ORIENTED_EDGE ( 'NONE', *, *, #530, .F. ) ;
#126 = VECTOR ( 'NONE', #278, 1000.000000000000000 ) ;
#127 = DIRECTION ( 'NONE',  ( -1.000000000000000000, 0.000000000000000000, 0.000000000000000000 ) ) ;
#128 = AXIS2_PLACEMENT_3D ( 'NONE', #160, #201, #545 ) ;
#129 = ORIENTED_EDGE ( 'NONE', *, *, #273, .T. ) ;
#130 = DIRECTION ( 'NONE',  ( 0.000000000000000000, 0.000000000000000000, -1.000000000000000000 ) ) ;
#131 = ADVANCED_FACE ( 'NONE', ( #393 ), #104, .T. ) ;
#132 = DIRECTION ( 'NONE',  ( 0.000000000000000000, 1.000000000000000000, -0.000000000000000000 ) ) ;
#133 = ORIENTED_EDGE ( 'NONE', *, *, #80, .F. ) ;
#134 = DIRECTION ( 'NONE',  ( -1.000000000000000000, 0.000000000000000000, 0.000000000000000000 ) ) ;
#135 = DIRECTION ( 'NONE',  ( 1.000000000000000000, 0.000000000000000000, -0.000000000000000000 ) ) ;
#136 = ORIENTED_EDGE ( 'NONE', *, *, #484, .T. ) ;
#137 = CIRCLE ( 'NONE', #248, 9.000000000000000000 ) ;
#138 = CARTESIAN_POINT ( 'NONE',  ( 59.39999999999999858, -67.25000000000000000, 17.25000000000000711 ) ) ;
#139 = ORIENTED_EDGE ( 'NONE', *, *, #202, .F. ) ;
#140 = APPLICATION_PROTOCOL_DEFINITION ( 'draft international standard', 'automotive_design', 1998, #56 ) ;
#141 = DIRECTION ( 'NONE',  ( 0.000000000000000000, 0.000000000000000000, 1.000000000000000000 ) ) ;
#142 = EDGE_CURVE ( 'NONE', #374, #36, #228, .T. ) ;
#143 = CARTESIAN_POINT ( 'NONE',  ( 59.39999999999999858, -67.25000000000000000, -17.14999999999999147 ) ) ;
#144 = CARTESIAN_POINT ( 'NONE',  ( 60.90000000000002700, -49.64000000000001478, 2.220446049250313081E-13 ) ) ;
#145 = AXIS2_PLACEMENT_3D ( 'NONE', #21, #539, #432 ) ;
#146 = CARTESIAN_POINT ( 'NONE',  ( 60.90000000000000568, -49.64000000000001478, 5.500000000000221156 ) ) ;
#147 = CIRCLE ( 'NONE', #340, 5.499999999999999112 ) ;
#148 = CARTESIAN_POINT ( 'NONE',  ( 55.89999999999999858, -31.34999999999998721, 0.000000000000000000 ) ) ;
#149 = CARTESIAN_POINT ( 'NONE',  ( 55.39999999999999858, -49.64000000000001478, -7.099999999999780265 ) ) ;
#150 = VECTOR ( 'NONE', #490, 1000.000000000000000 ) ;
#151 = ORIENTED_EDGE ( 'NONE', *, *, #296, .F. ) ;
#152 = EDGE_CURVE ( 'NONE', #36, #294, #61, .T. ) ;
#153 = CARTESIAN_POINT ( 'NONE',  ( 61.90000000000000568, -49.64000000000001478, 2.220446049250313081E-13 ) ) ;
#154 = ORIENTED_EDGE ( 'NONE', *, *, #296, .T. ) ;
#155 = CIRCLE ( 'NONE', #460, 5.499999999999999112 ) ;
#156 = DIRECTION ( 'NONE',  ( 0.000000000000000000, 0.000000000000000000, -1.000000000000000000 ) ) ;
#157 = ORIENTED_EDGE ( 'NONE', *, *, #102, .T. ) ;
#158 = PRODUCT_DEFINITION_CONTEXT ( 'detailed design', #94, 'design' ) ;
#159 = DIRECTION ( 'NONE',  ( 1.000000000000000000, -0.000000000000000000, -0.000000000000000000 ) ) ;
#160 = CARTESIAN_POINT ( 'NONE',  ( 55.39999999999999858, -49.64000000000001478, 2.220446049250313081E-13 ) ) ;
#161 = ORIENTED_EDGE ( 'NONE', *, *, #115, .F. ) ;
#162 = DIRECTION ( 'NONE',  ( 0.000000000000000000, -1.000000000000000000, 0.000000000000000000 ) ) ;
#163 = CLOSED_SHELL ( 'NONE', ( #204, #4, #25, #353, #24, #6, #399, #186, #442, #264, #243, #478, #13, #305, #223, #131, #453, #365, #467, #363 ) ) ;
#164 = VERTEX_POINT ( 'NONE', #64 ) ;
#165 = DIRECTION ( 'NONE',  ( 0.000000000000000000, 0.000000000000000000, -1.000000000000000000 ) ) ;
#166 = MECHANICAL_DESIGN_GEOMETRIC_PRESENTATION_REPRESENTATION (  '', ( #274 ), #525 ) ;
#167 = EDGE_CURVE ( 'NONE', #449, #535, #196, .T. ) ;
#168 = DIRECTION ( 'NONE',  ( 0.000000000000000000, 0.000000000000000000, 1.000000000000000000 ) ) ;
#169 = VERTEX_POINT ( 'NONE', #106 ) ;
#170 = ORIENTED_EDGE ( 'NONE', *, *, #541, .F. ) ;
#171 = DIRECTION ( 'NONE',  ( 0.000000000000000000, 0.000000000000000000, 1.000000000000000000 ) ) ;
#172 = CARTESIAN_POINT ( 'NONE',  ( 55.40000000000000568, -49.64000000000001478, 2.220446049250313081E-13 ) ) ;
#173 = EDGE_CURVE ( 'NONE', #378, #368, #28, .T. ) ;
#174 = DIRECTION ( 'NONE',  ( 0.7071067811865463515, 8.659560562354950115E-17, 0.7071067811865487940 ) ) ;
#175 = AXIS2_PLACEMENT_3D ( 'NONE', #120, #162, #455 ) ;
#176 = ORIENTED_EDGE ( 'NONE', *, *, #167, .F. ) ;
#177 = ORIENTED_EDGE ( 'NONE', *, *, #304, .T. ) ;
#178 = FACE_OUTER_BOUND ( 'NONE', #558, .T. ) ;
#179 = CYLINDRICAL_SURFACE ( 'NONE', #433, 5.499999999999999112 ) ;
#180 = DIRECTION ( 'NONE',  ( 0.000000000000000000, 0.000000000000000000, 1.000000000000000000 ) ) ;
#181 = CARTESIAN_POINT ( 'NONE',  ( 55.39999999999999858, -49.64000000000001478, 2.220446049250313081E-13 ) ) ;
#182 = ORIENTED_EDGE ( 'NONE', *, *, #392, .T. ) ;
#183 = DIRECTION ( 'NONE',  ( -1.000000000000000000, -0.000000000000000000, -0.000000000000000000 ) ) ;
#184 = CARTESIAN_POINT ( 'NONE',  ( 60.90000000000002700, -49.64000000000001478, -8.999999999999777955 ) ) ;
#185 = CARTESIAN_POINT ( 'NONE',  ( 55.39999999999999858, -49.64000000000001478, 2.220446049250313081E-13 ) ) ;
#186 = ADVANCED_FACE ( 'NONE', ( #188 ), #534, .F. ) ;
#187 = DIRECTION ( 'NONE',  ( 0.000000000000000000, 0.000000000000000000, 1.000000000000000000 ) ) ;
#188 = FACE_OUTER_BOUND ( 'NONE', #543, .T. ) ;
#189 = ORIENTED_EDGE ( 'NONE', *, *, #108, .F. ) ;
#190 = AXIS2_PLACEMENT_3D ( 'NONE', #362, #403, #156 ) ;
#191 = DIRECTION ( 'NONE',  ( 0.000000000000000000, -1.000000000000000000, 0.000000000000000000 ) ) ;
#192 = CARTESIAN_POINT ( 'NONE',  ( 59.39999999999999858, -49.64000000000001478, 5.500000000000221156 ) ) ;
#193 = ORIENTED_EDGE ( 'NONE', *, *, #173, .F. ) ;
#194 = LINE ( 'NONE', #276, #492 ) ;
#195 = CARTESIAN_POINT ( 'NONE',  ( -4.250000000000079936, -31.34999999999998721, -17.14999999999998792 ) ) ;
#196 = CIRCLE ( 'NONE', #145, 5.499999999999999112 ) ;
#197 = EDGE_LOOP ( 'NONE', ( #177, #300, #122, #212 ) ) ;
#198 = DIRECTION ( 'NONE',  ( -1.000000000000000000, 0.000000000000000000, 0.000000000000000000 ) ) ;
#199 = VERTEX_POINT ( 'NONE', #149 ) ;
#200 =( GEOMETRIC_REPRESENTATION_CONTEXT ( 3 ) GLOBAL_UNCERTAINTY_ASSIGNED_CONTEXT ( ( #68 ) ) GLOBAL_UNIT_ASSIGNED_CONTEXT ( ( #536, #99, #435 ) ) REPRESENTATION_CONTEXT ( 'NONE', 'WORKASPACE' ) );
#201 = DIRECTION ( 'NONE',  ( -1.000000000000000000, 0.000000000000000000, 0.000000000000000000 ) ) ;
#202 = EDGE_CURVE ( 'NONE', #550, #199, #10, .T. ) ;
#203 = CARTESIAN_POINT ( 'NONE',  ( -2.001000000000002998, -49.64000000000001478, 7.100000000000222578 ) ) ;
#204 = ADVANCED_FACE ( 'NONE', ( #236 ), #462, .T. ) ;
#205 = CIRCLE ( 'NONE', #521, 9.000000000000000000 ) ;
#206 = EDGE_LOOP ( 'NONE', ( #396, #209, #383, #119 ) ) ;
#207 = FACE_OUTER_BOUND ( 'NONE', #221, .T. ) ;
#208 = AXIS2_PLACEMENT_3D ( 'NONE', #31, #70, #507 ) ;
#209 = ORIENTED_EDGE ( 'NONE', *, *, #49, .T. ) ;
#210 = EDGE_LOOP ( 'NONE', ( #423, #154 ) ) ;
#211 = DIRECTION ( 'NONE',  ( 1.000000000000000000, 0.000000000000000000, 0.000000000000000000 ) ) ;
#212 = ORIENTED_EDGE ( 'NONE', *, *, #422, .F. ) ;
#213 = VERTEX_POINT ( 'NONE', #192 ) ;
#214 = CARTESIAN_POINT ( 'NONE',  ( 59.39999999999999858, -31.34999999999998721, 17.25000000000000711 ) ) ;
#215 = FACE_OUTER_BOUND ( 'NONE', #498, .T. ) ;
#216 = EDGE_LOOP ( 'NONE', ( #522, #114, #485, #123 ) ) ;
#217 = PRESENTATION_LAYER_ASSIGNMENT (  '', '', ( #274 ) ) ;
#218 = EDGE_LOOP ( 'NONE', ( #5, #38, #133, #53 ) ) ;
#219 = CARTESIAN_POINT ( 'NONE',  ( 55.89999999999999858, -61.14999999999998437, 0.000000000000000000 ) ) ;
#220 = CARTESIAN_POINT ( 'NONE',  ( 55.89999999999999858, -61.14999999999998437, -17.14999999999998792 ) ) ;
#221 = EDGE_LOOP ( 'NONE', ( #318, #34, #136, #503 ) ) ;
#222 = CARTESIAN_POINT ( 'NONE',  ( -4.250000000000079936, -31.34999999999998721, 17.14999999999999503 ) ) ;
#223 = ADVANCED_FACE ( 'NONE', ( #446 ), #69, .T. ) ;
#224 = FACE_OUTER_BOUND ( 'NONE', #299, .T. ) ;
#225 = CARTESIAN_POINT ( 'NONE',  ( 55.40000000000000568, -49.64000000000001478, -8.999999999999777955 ) ) ;
#226 = LINE ( 'NONE', #148, #150 ) ;
#227 = DIRECTION ( 'NONE',  ( -1.000000000000000000, -0.000000000000000000, -0.000000000000000000 ) ) ;
#228 = LINE ( 'NONE', #315, #323 ) ;
#229 = ORIENTED_EDGE ( 'NONE', *, *, #30, .T. ) ;
#230 = VECTOR ( 'NONE', #92, 1000.000000000000000 ) ;
#231 = CARTESIAN_POINT ( 'NONE',  ( 59.39999999999999858, -49.64000000000001478, 2.220446049250313081E-13 ) ) ;
#232 = CARTESIAN_POINT ( 'NONE',  ( -4.250000000000079936, -31.34999999999998721, 17.14999999999999503 ) ) ;
#233 = COLOUR_RGB ( '',0.7921568627450980005, 0.8196078431372548767, 0.9333333333333333481 ) ;
#234 = MANIFOLD_SOLID_BREP ( 'Cut-Extrude14', #163 ) ;
#235 = CARTESIAN_POINT ( 'NONE',  ( 59.39999999999999858, -49.64000000000001478, 2.220446049250313081E-13 ) ) ;
#236 = FACE_OUTER_BOUND ( 'NONE', #197, .T. ) ;
#237 = FACE_OUTER_BOUND ( 'NONE', #263, .T. ) ;
#238 = VECTOR ( 'NONE', #262, 1000.000000000000000 ) ;
#239 = CARTESIAN_POINT ( 'NONE',  ( 60.90000000000000568, -49.64000000000001478, 2.220446049250313081E-13 ) ) ;
#240 = VERTEX_POINT ( 'NONE', #288 ) ;
#241 =( NAMED_UNIT ( * ) PLANE_ANGLE_UNIT ( ) SI_UNIT ( $, .RADIAN. ) );
#242 = ORIENTED_EDGE ( 'NONE', *, *, #244, .T. ) ;
#243 = ADVANCED_FACE ( 'NONE', ( #207 ), #324, .F. ) ;
#244 = EDGE_CURVE ( 'NONE', #535, #449, #147, .T. ) ;
#245 = AXIS2_PLACEMENT_3D ( 'NONE', #235, #320, #394 ) ;
#246 = EDGE_LOOP ( 'NONE', ( #2, #554 ) ) ;
#247 = DIRECTION ( 'NONE',  ( -1.000000000000000000, -0.000000000000000000, -0.000000000000000000 ) ) ;
#248 = AXIS2_PLACEMENT_3D ( 'NONE', #181, #313, #437 ) ;
#249 = AXIS2_PLACEMENT_3D ( 'NONE', #232, #532, #280 ) ;
#250 = EDGE_LOOP ( 'NONE', ( #182, #79, #452, #406 ) ) ;
#251 = DIRECTION ( 'NONE',  ( 0.000000000000000000, 0.000000000000000000, -1.000000000000000000 ) ) ;
#252 = ORIENTED_EDGE ( 'NONE', *, *, #523, .T. ) ;
#253 = EDGE_LOOP ( 'NONE', ( #547, #552 ) ) ;
#254 = LINE ( 'NONE', #266, #76 ) ;
#255 = ORIENTED_EDGE ( 'NONE', *, *, #49, .F. ) ;
#256 = EDGE_CURVE ( 'NONE', #550, #382, #414, .T. ) ;
#257 = PLANE ( 'NONE',  #261 ) ;
#258 = CARTESIAN_POINT ( 'NONE',  ( 59.39999999999999858, -49.64000000000001478, -10.49999999999977263 ) ) ;
#259 = TOROIDAL_SURFACE ( 'NONE', #540, 8.000000000000000000, 1.000000000000000000 ) ;
#260 = LINE ( 'NONE', #214, #426 ) ;
#261 = AXIS2_PLACEMENT_3D ( 'NONE', #138, #347, #180 ) ;
#262 = DIRECTION ( 'NONE',  ( 1.000000000000000000, -0.000000000000000000, -0.000000000000000000 ) ) ;
#263 = EDGE_LOOP ( 'NONE', ( #252, #410 ) ) ;
#264 = ADVANCED_FACE ( 'NONE', ( #549, #237 ), #75, .F. ) ;
#265 = EDGE_CURVE ( 'NONE', #169, #378, #308, .T. ) ;
#266 = CARTESIAN_POINT ( 'NONE',  ( 55.40000000000000568, -49.64000000000001478, 9.000000000000222045 ) ) ;
#267 = ORIENTED_EDGE ( 'NONE', *, *, #290, .T. ) ;
#268 = AXIS2_PLACEMENT_3D ( 'NONE', #87, #381, #424 ) ;
#269 = SHAPE_DEFINITION_REPRESENTATION ( #59, #319 ) ;
#270 = CARTESIAN_POINT ( 'NONE',  ( 59.39999999999999858, -67.25000000000000000, 17.14999999999999503 ) ) ;
#271 = CARTESIAN_POINT ( 'NONE',  ( 55.40000000000000568, -49.64000000000001478, 2.220446049250313081E-13 ) ) ;
#272 = LINE ( 'NONE', #225, #33 ) ;
#273 = EDGE_CURVE ( 'NONE', #164, #368, #291, .T. ) ;
#274 = STYLED_ITEM ( 'NONE', ( #372 ), #234 ) ;
#275 = CARTESIAN_POINT ( 'NONE',  ( 60.90000000000000568, -49.64000000000001478, -5.499999999999777067 ) ) ;
#276 = CARTESIAN_POINT ( 'NONE',  ( 60.90000000000000568, -49.64000000000001478, -5.499999999999777067 ) ) ;
#277 = DIRECTION ( 'NONE',  ( 1.000000000000000000, 0.000000000000000000, 0.000000000000000000 ) ) ;
#278 = DIRECTION ( 'NONE',  ( 0.000000000000000000, 1.000000000000000000, -0.000000000000000000 ) ) ;
#279 = DIRECTION ( 'NONE',  ( 1.000000000000000000, 0.000000000000000000, 0.000000000000000000 ) ) ;
#280 = DIRECTION ( 'NONE',  ( 0.000000000000000000, -0.000000000000000000, 1.000000000000000000 ) ) ;
#281 = ORIENTED_EDGE ( 'NONE', *, *, #422, .T. ) ;
#282 = CIRCLE ( 'NONE', #35, 9.000000000000000000 ) ;
#283 = EDGE_CURVE ( 'NONE', #382, #419, #504, .T. ) ;
#284 = CARTESIAN_POINT ( 'NONE',  ( 59.39999999999999858, -49.64000000000001478, 2.220446049250313081E-13 ) ) ;
#285 = SURFACE_STYLE_FILL_AREA ( #12 ) ;
#286 = VERTEX_POINT ( 'NONE', #333 ) ;
#287 = AXIS2_PLACEMENT_3D ( 'NONE', #533, #479, #398 ) ;
#288 = CARTESIAN_POINT ( 'NONE',  ( 55.89999999999999858, -49.64000000000001478, -9.499999999999772626 ) ) ;
#289 = AXIS2_PLACEMENT_3D ( 'NONE', #185, #528, #356 ) ;
#290 = EDGE_CURVE ( 'NONE', #240, #377, #475, .T. ) ;
#291 = CIRCLE ( 'NONE', #48, 1.000000000000000888 ) ;
#292 = CARTESIAN_POINT ( 'NONE',  ( 55.89999999999999858, -61.14999999999998437, 17.14999999999999503 ) ) ;
#293 = FACE_OUTER_BOUND ( 'NONE', #440, .T. ) ;
#294 = VERTEX_POINT ( 'NONE', #542 ) ;
#295 = DIRECTION ( 'NONE',  ( 0.000000000000000000, 0.000000000000000000, 1.000000000000000000 ) ) ;
#296 = EDGE_CURVE ( 'NONE', #368, #378, #494, .T. ) ;
#297 = CARTESIAN_POINT ( 'NONE',  ( 55.39999999999999858, -49.64000000000001478, 9.000000000000222045 ) ) ;
#298 = PLANE ( 'NONE',  #268 ) ;
#299 = EDGE_LOOP ( 'NONE', ( #43, #416, #255, #229 ) ) ;
#300 = ORIENTED_EDGE ( 'NONE', *, *, #115, .T. ) ;
#301 = FACE_BOUND ( 'NONE', #509, .T. ) ;
#302 = DIRECTION ( 'NONE',  ( 1.000000000000000000, 0.000000000000000000, 0.000000000000000000 ) ) ;
#303 = VECTOR ( 'NONE', #132, 1000.000000000000000 ) ;
#304 = EDGE_CURVE ( 'NONE', #164, #169, #282, .T. ) ;
#305 = ADVANCED_FACE ( 'NONE', ( #405 ), #29, .T. ) ;
#306 = VERTEX_POINT ( 'NONE', #370 ) ;
#307 = CARTESIAN_POINT ( 'NONE',  ( 60.90000000000000568, -49.64000000000001478, 2.220446049250313081E-13 ) ) ;
#308 = CIRCLE ( 'NONE', #175, 1.000000000000000888 ) ;
#309 = FACE_OUTER_BOUND ( 'NONE', #206, .T. ) ;
#310 = PRODUCT_CONTEXT ( 'NONE', #56, 'mechanical' ) ;
#311 = EDGE_LOOP ( 'NONE', ( #459, #107, #364, #17 ) ) ;
#312 = CARTESIAN_POINT ( 'NONE',  ( -4.250000000000079936, -61.14999999999998437, -17.14999999999998792 ) ) ;
#313 = DIRECTION ( 'NONE',  ( -1.000000000000000000, 0.000000000000000000, 0.000000000000000000 ) ) ;
#314 = LINE ( 'NONE', #527, #26 ) ;
#315 = CARTESIAN_POINT ( 'NONE',  ( 59.39999999999999858, -61.14999999999998437, 17.25000000000000711 ) ) ;
#316 = AXIS2_PLACEMENT_3D ( 'NONE', #195, #544, #198 ) ;
#317 = CARTESIAN_POINT ( 'NONE',  ( 55.39999999999999858, -49.64000000000001478, 2.220446049250313081E-13 ) ) ;
#318 = ORIENTED_EDGE ( 'NONE', *, *, #256, .F. ) ;
#319 = ADVANCED_BREP_SHAPE_REPRESENTATION ( 'Thigh-housing-wall', ( #234, #343 ), #200 ) ;
#320 = DIRECTION ( 'NONE',  ( -1.000000000000000000, -0.000000000000000000, -0.000000000000000000 ) ) ;
#321 = CARTESIAN_POINT ( 'NONE',  ( 60.90000000000000568, -49.64000000000001478, 2.220446049250313081E-13 ) ) ;
#322 = EDGE_CURVE ( 'NONE', #8, #465, #436, .T. ) ;
#323 = VECTOR ( 'NONE', #366, 1000.000000000000000 ) ;
#324 = CYLINDRICAL_SURFACE ( 'NONE', #447, 7.100000000000000533 ) ;
#325 = ORIENTED_EDGE ( 'NONE', *, *, #322, .F. ) ;
#326 = SURFACE_SIDE_STYLE ('',( #285 ) ) ;
#327 = DIRECTION ( 'NONE',  ( 0.000000000000000000, 1.000000000000000000, -1.224646799147353207E-16 ) ) ;
#328 = ORIENTED_EDGE ( 'NONE', *, *, #523, .F. ) ;
#329 = AXIS2_PLACEMENT_3D ( 'NONE', #37, #3, #386 ) ;
#330 = DIRECTION ( 'NONE',  ( 0.000000000000000000, 0.000000000000000000, -1.000000000000000000 ) ) ;
#331 = VERTEX_POINT ( 'NONE', #292 ) ;
#332 = CIRCLE ( 'NONE', #401, 10.49999999999999467 ) ;
#333 = CARTESIAN_POINT ( 'NONE',  ( 59.39999999999999858, -31.34999999999998721, -17.14999999999998792 ) ) ;
#334 = LINE ( 'NONE', #472, #511 ) ;
#335 = ORIENTED_EDGE ( 'NONE', *, *, #82, .T. ) ;
#336 = AXIS2_PLACEMENT_3D ( 'NONE', #517, #134, #187 ) ;
#337 = EDGE_LOOP ( 'NONE', ( #189, #139 ) ) ;
#338 = CARTESIAN_POINT ( 'NONE',  ( 59.39999999999999858, -61.14999999999998437, -17.14999999999999147 ) ) ;
#339 = DIRECTION ( 'NONE',  ( 1.000000000000000000, 0.000000000000000000, 0.000000000000000000 ) ) ;
#340 = AXIS2_PLACEMENT_3D ( 'NONE', #113, #32, #551 ) ;
#341 = LINE ( 'NONE', #219, #19 ) ;
#342 = CARTESIAN_POINT ( 'NONE',  ( 59.39999999999999858, -49.64000000000001478, -5.499999999999777067 ) ) ;
#343 = AXIS2_PLACEMENT_3D ( 'NONE', #109, #526, #277 ) ;
#344 = DIRECTION ( 'NONE',  ( 0.000000000000000000, 0.000000000000000000, 1.000000000000000000 ) ) ;
#345 = PLANE ( 'NONE',  #57 ) ;
#346 = ORIENTED_EDGE ( 'NONE', *, *, #102, .F. ) ;
#347 = DIRECTION ( 'NONE',  ( -1.000000000000000000, 0.000000000000000000, 0.000000000000000000 ) ) ;
#348 = VERTEX_POINT ( 'NONE', #457 ) ;
#349 = VECTOR ( 'NONE', #23, 1000.000000000000000 ) ;
#350 = TOROIDAL_SURFACE ( 'NONE', #373, 8.000000000000000000, 1.000000000000000000 ) ;
#351 = EDGE_LOOP ( 'NONE', ( #267, #62 ) ) ;
#352 = DIRECTION ( 'NONE',  ( 1.000000000000000000, 0.000000000000000000, 0.000000000000000000 ) ) ;
#353 = ADVANCED_FACE ( 'NONE', ( #418 ), #430, .F. ) ;
#354 = CIRCLE ( 'NONE', #287, 10.49999999999999467 ) ;
#355 = DIRECTION ( 'NONE',  ( 1.000000000000000000, 0.000000000000000000, 0.000000000000000000 ) ) ;
#356 = DIRECTION ( 'NONE',  ( 0.000000000000000000, 0.000000000000000000, 1.000000000000000000 ) ) ;
#357 = DIRECTION ( 'NONE',  ( 0.000000000000000000, 0.000000000000000000, -1.000000000000000000 ) ) ;
#358 = DIRECTION ( 'NONE',  ( 0.000000000000000000, 0.000000000000000000, -1.000000000000000000 ) ) ;
#359 = AXIS2_PLACEMENT_3D ( 'NONE', #95, #427, #91 ) ;
#360 = LINE ( 'NONE', #312, #7 ) ;
#361 = AXIS2_PLACEMENT_3D ( 'NONE', #66, #438, #105 ) ;
#362 = CARTESIAN_POINT ( 'NONE',  ( -4.250000000000079936, -61.14999999999998437, 17.14999999999999503 ) ) ;
#363 = ADVANCED_FACE ( 'NONE', ( #301, #293 ), #257, .F. ) ;
#364 = ORIENTED_EDGE ( 'NONE', *, *, #89, .T. ) ;
#365 = ADVANCED_FACE ( 'NONE', ( #389 ), #350, .T. ) ;
#366 = DIRECTION ( 'NONE',  ( 0.000000000000000000, 0.000000000000000000, 1.000000000000000000 ) ) ;
#367 = CIRCLE ( 'NONE', #289, 7.100000000000002309 ) ;
#368 = VERTEX_POINT ( 'NONE', #520 ) ;
#369 = EDGE_CURVE ( 'NONE', #516, #294, #476, .T. ) ;
#370 = CARTESIAN_POINT ( 'NONE',  ( 59.39999999999999858, -49.64000000000001478, 10.50000000000021672 ) ) ;
#371 = DIRECTION ( 'NONE',  ( 0.000000000000000000, 0.000000000000000000, 1.000000000000000000 ) ) ;
#372 = PRESENTATION_STYLE_ASSIGNMENT (( #451 ) ) ;
#373 = AXIS2_PLACEMENT_3D ( 'NONE', #307, #211, #130 ) ;
#374 = VERTEX_POINT ( 'NONE', #338 ) ;
#375 = CARTESIAN_POINT ( 'NONE',  ( -2.001000000000002998, -49.64000000000001478, 2.220446049250313081E-13 ) ) ;
#376 = EDGE_CURVE ( 'NONE', #8, #377, #254, .T. ) ;
#377 = VERTEX_POINT ( 'NONE', #556 ) ;
#378 = VERTEX_POINT ( 'NONE', #420 ) ;
#379 = CYLINDRICAL_SURFACE ( 'NONE', #538, 5.499999999999999112 ) ;
#380 = FACE_OUTER_BOUND ( 'NONE', #519, .T. ) ;
#381 = DIRECTION ( 'NONE',  ( 1.000000000000000000, 0.000000000000000000, 0.000000000000000000 ) ) ;
#382 = VERTEX_POINT ( 'NONE', #81 ) ;
#383 = ORIENTED_EDGE ( 'NONE', *, *, #546, .T. ) ;
#384 = PLANE ( 'NONE',  #93 ) ;
#385 = CARTESIAN_POINT ( 'NONE',  ( 55.89999999999999858, 0.000000000000000000, 0.000000000000000000 ) ) ;
#386 = DIRECTION ( 'NONE',  ( 0.000000000000000000, 0.000000000000000000, 1.000000000000000000 ) ) ;
#387 = LINE ( 'NONE', #515, #303 ) ;
#388 = ORIENTED_EDGE ( 'NONE', *, *, #505, .T. ) ;
#389 = FACE_OUTER_BOUND ( 'NONE', #488, .T. ) ;
#390 = DIRECTION ( 'NONE',  ( 0.000000000000000000, 0.000000000000000000, 1.000000000000000000 ) ) ;
#391 = LINE ( 'NONE', #146, #349 ) ;
#392 = EDGE_CURVE ( 'NONE', #294, #286, #260, .T. ) ;
#393 = FACE_OUTER_BOUND ( 'NONE', #250, .T. ) ;
#394 = DIRECTION ( 'NONE',  ( 0.000000000000000000, 0.000000000000000000, -1.000000000000000000 ) ) ;
#395 = DIRECTION ( 'NONE',  ( 1.000000000000000000, 0.000000000000000000, 0.000000000000000000 ) ) ;
#396 = ORIENTED_EDGE ( 'NONE', *, *, #397, .T. ) ;
#397 = EDGE_CURVE ( 'NONE', #40, #331, #341, .T. ) ;
#398 = DIRECTION ( 'NONE',  ( 0.000000000000000000, 0.000000000000000000, 1.000000000000000000 ) ) ;
#399 = ADVANCED_FACE ( 'NONE', ( #50, #514 ), #384, .T. ) ;
#400 = DIRECTION ( 'NONE',  ( -0.7071067811865536790, 8.659560562354857670E-17, -0.7071067811865414665 ) ) ;
#401 = AXIS2_PLACEMENT_3D ( 'NONE', #512, #41, #54 ) ;
#402 = ORIENTED_EDGE ( 'NONE', *, *, #74, .T. ) ;
#403 = DIRECTION ( 'NONE',  ( 0.000000000000000000, -1.000000000000000000, -0.000000000000000000 ) ) ;
#404 = AXIS2_PLACEMENT_3D ( 'NONE', #271, #279, #357 ) ;
#405 = FACE_OUTER_BOUND ( 'NONE', #218, .T. ) ;
#406 = ORIENTED_EDGE ( 'NONE', *, *, #369, .T. ) ;
#407 = AXIS2_PLACEMENT_3D ( 'NONE', #51, #390, #135 ) ;
#408 = AXIS2_PLACEMENT_3D ( 'NONE', #321, #352, #358 ) ;
#409 = DIRECTION ( 'NONE',  ( 0.000000000000000000, 0.000000000000000000, -1.000000000000000000 ) ) ;
#410 = ORIENTED_EDGE ( 'NONE', *, *, #283, .T. ) ;
#411 = VECTOR ( 'NONE', #116, 1000.000000000000000 ) ;
#412 = EDGE_LOOP ( 'NONE', ( #96, #477, #328, #77 ) ) ;
#413 =( NAMED_UNIT ( * ) SI_UNIT ( $, .STERADIAN. ) SOLID_ANGLE_UNIT ( ) );
#414 = LINE ( 'NONE', #203, #411 ) ;
#415 = EDGE_CURVE ( 'NONE', #22, #306, #332, .T. ) ;
#416 = ORIENTED_EDGE ( 'NONE', *, *, #369, .F. ) ;
#417 = AXIS2_PLACEMENT_3D ( 'NONE', #144, #487, #443 ) ;
#418 = FACE_OUTER_BOUND ( 'NONE', #412, .T. ) ;
#419 = VERTEX_POINT ( 'NONE', #9 ) ;
#420 = CARTESIAN_POINT ( 'NONE',  ( 61.90000000000000568, -49.64000000000001478, -7.999999999999777955 ) ) ;
#421 = CARTESIAN_POINT ( 'NONE',  ( 59.39999999999999858, -61.14999999999998437, 17.14999999999999503 ) ) ;
#422 = EDGE_CURVE ( 'NONE', #164, #306, #334, .T. ) ;
#423 = ORIENTED_EDGE ( 'NONE', *, *, #173, .T. ) ;
#424 = DIRECTION ( 'NONE',  ( 0.000000000000000000, 0.000000000000000000, -1.000000000000000000 ) ) ;
#425 = ORIENTED_EDGE ( 'NONE', *, *, #265, .F. ) ;
#426 = VECTOR ( 'NONE', #251, 1000.000000000000000 ) ;
#427 = DIRECTION ( 'NONE',  ( 1.000000000000000000, -0.000000000000000000, -0.000000000000000000 ) ) ;
#428 = DIRECTION ( 'NONE',  ( 0.000000000000000000, 0.000000000000000000, -1.000000000000000000 ) ) ;
#429 = ORIENTED_EDGE ( 'NONE', *, *, #152, .F. ) ;
#430 = CYLINDRICAL_SURFACE ( 'NONE', #359, 7.100000000000000533 ) ;
#431 = ORIENTED_EDGE ( 'NONE', *, *, #415, .F. ) ;
#432 = DIRECTION ( 'NONE',  ( 0.000000000000000000, 0.000000000000000000, -1.000000000000000000 ) ) ;
#433 = AXIS2_PLACEMENT_3D ( 'NONE', #11, #183, #141 ) ;
#434 = PRODUCT_RELATED_PRODUCT_CATEGORY ( 'part', '', ( #47 ) ) ;
#435 =( NAMED_UNIT ( * ) SI_UNIT ( $, .STERADIAN. ) SOLID_ANGLE_UNIT ( ) );
#436 = CIRCLE ( 'NONE', #128, 9.000000000000000000 ) ;
#437 = DIRECTION ( 'NONE',  ( 0.000000000000000000, 0.000000000000000000, 1.000000000000000000 ) ) ;
#438 = DIRECTION ( 'NONE',  ( 1.000000000000000000, 0.000000000000000000, 0.000000000000000000 ) ) ;
#439 = DIRECTION ( 'NONE',  ( 0.000000000000000000, -1.000000000000000000, 0.000000000000000000 ) ) ;
#440 = EDGE_LOOP ( 'NONE', ( #429, #500, #111, #555 ) ) ;
#441 = EDGE_CURVE ( 'NONE', #377, #240, #450, .T. ) ;
#442 = ADVANCED_FACE ( 'NONE', ( #463 ), #379, .F. ) ;
#443 = DIRECTION ( 'NONE',  ( 0.000000000000000000, 0.000000000000000000, 1.000000000000000000 ) ) ;
#444 = VECTOR ( 'NONE', #439, 1000.000000000000000 ) ;
#445 = FACE_OUTER_BOUND ( 'NONE', #311, .T. ) ;
#446 = FACE_OUTER_BOUND ( 'NONE', #216, .T. ) ;
#447 = AXIS2_PLACEMENT_3D ( 'NONE', #375, #159, #497 ) ;
#448 = CARTESIAN_POINT ( 'NONE',  ( 55.89999999999999858, -49.64000000000001478, 2.220446049250313081E-13 ) ) ;
#449 = VERTEX_POINT ( 'NONE', #124 ) ;
#450 = CIRCLE ( 'NONE', #329, 9.499999999999994671 ) ;
#451 = SURFACE_STYLE_USAGE ( .BOTH. , #326 ) ;
#452 = ORIENTED_EDGE ( 'NONE', *, *, #546, .F. ) ;
#453 = ADVANCED_FACE ( 'NONE', ( #466 ), #298, .T. ) ;
#454 = AXIS2_PLACEMENT_3D ( 'NONE', #317, #58, #491 ) ;
#455 = DIRECTION ( 'NONE',  ( 0.000000000000000000, 0.000000000000000000, -1.000000000000000000 ) ) ;
#456 = ORIENTED_EDGE ( 'NONE', *, *, #244, .F. ) ;
#457 = CARTESIAN_POINT ( 'NONE',  ( 55.89999999999999858, -31.34999999999998721, -17.14999999999998792 ) ) ;
#458 = CIRCLE ( 'NONE', #361, 5.499999999999999112 ) ;
#459 = ORIENTED_EDGE ( 'NONE', *, *, #376, .F. ) ;
#460 = AXIS2_PLACEMENT_3D ( 'NONE', #231, #355, #531 ) ;
#461 = ORIENTED_EDGE ( 'NONE', *, *, #273, .F. ) ;
#462 = CONICAL_SURFACE ( 'NONE', #417, 9.000000000000000000, 0.7853981633974396193 ) ;
#463 = FACE_OUTER_BOUND ( 'NONE', #506, .T. ) ;
#464 = ORIENTED_EDGE ( 'NONE', *, *, #290, .F. ) ;
#465 = VERTEX_POINT ( 'NONE', #45 ) ;
#466 = FACE_OUTER_BOUND ( 'NONE', #210, .T. ) ;
#467 = ADVANCED_FACE ( 'NONE', ( #178 ), #529, .T. ) ;
#468 = PLANE ( 'NONE',  #407 ) ;
#469 = DIRECTION ( 'NONE',  ( -1.000000000000000000, -0.000000000000000000, -0.000000000000000000 ) ) ;
#470 = DIRECTION ( 'NONE',  ( 0.000000000000000000, 0.000000000000000000, -1.000000000000000000 ) ) ;
#471 = ORIENTED_EDGE ( 'NONE', *, *, #89, .F. ) ;
#472 = CARTESIAN_POINT ( 'NONE',  ( 60.90000000000002700, -49.64000000000001478, 9.000000000000222045 ) ) ;
#473 = CONICAL_SURFACE ( 'NONE', #548, 9.000000000000000000, 0.7853981633974500554 ) ;
#474 = CARTESIAN_POINT ( 'NONE',  ( -4.250000000000079936, -61.14999999999998437, 17.14999999999999503 ) ) ;
#475 = CIRCLE ( 'NONE', #482, 9.499999999999994671 ) ;
#476 = LINE ( 'NONE', #222, #121 ) ;
#477 = ORIENTED_EDGE ( 'NONE', *, *, #256, .T. ) ;
#478 = ADVANCED_FACE ( 'NONE', ( #445 ), #489, .T. ) ;
#479 = DIRECTION ( 'NONE',  ( -1.000000000000000000, 0.000000000000000000, 0.000000000000000000 ) ) ;
#480 = LINE ( 'NONE', #474, #238 ) ;
#481 = CARTESIAN_POINT ( 'NONE',  ( 60.90000000000000568, -49.64000000000001478, 2.220446049250313081E-13 ) ) ;
#482 = AXIS2_PLACEMENT_3D ( 'NONE', #448, #27, #371 ) ;
#483 = LINE ( 'NONE', #184, #493 ) ;
#484 = EDGE_CURVE ( 'NONE', #199, #419, #314, .T. ) ;
#485 = ORIENTED_EDGE ( 'NONE', *, *, #397, .F. ) ;
#486 = CARTESIAN_POINT ( 'NONE',  ( 55.39999999999999858, -49.64000000000001478, 7.100000000000224354 ) ) ;
#487 = DIRECTION ( 'NONE',  ( -1.000000000000000000, 0.000000000000000000, 0.000000000000000000 ) ) ;
#488 = EDGE_LOOP ( 'NONE', ( #461, #84, #71, #151 ) ) ;
#489 = CONICAL_SURFACE ( 'NONE', #404, 9.000000000000000000, 0.7853981633974500554 ) ;
#490 = DIRECTION ( 'NONE',  ( 0.000000000000000000, 0.000000000000000000, -1.000000000000000000 ) ) ;
#491 = DIRECTION ( 'NONE',  ( 0.000000000000000000, 0.000000000000000000, 1.000000000000000000 ) ) ;
#492 = VECTOR ( 'NONE', #15, 1000.000000000000000 ) ;
#493 = VECTOR ( 'NONE', #400, 1000.000000000000000 ) ;
#494 = CIRCLE ( 'NONE', #208, 8.000000000000000000 ) ;
#495 = ORIENTED_EDGE ( 'NONE', *, *, #304, .F. ) ;
#496 = PRODUCT_DEFINITION ( 'UNKNOWN', '', #52, #158 ) ;
#497 = DIRECTION ( 'NONE',  ( 0.000000000000000000, 0.000000000000000000, -1.000000000000000000 ) ) ;
#498 = EDGE_LOOP ( 'NONE', ( #90, #402, #125, #346 ) ) ;
#499 = CARTESIAN_POINT ( 'NONE',  ( 60.90000000000000568, -49.64000000000001478, 8.000000000000222045 ) ) ;
#500 = ORIENTED_EDGE ( 'NONE', *, *, #142, .F. ) ;
#501 =( LENGTH_UNIT ( ) NAMED_UNIT ( * ) SI_UNIT ( .MILLI., .METRE. ) );
#502 = EDGE_CURVE ( 'NONE', #286, #374, #103, .T. ) ;
#503 = ORIENTED_EDGE ( 'NONE', *, *, #283, .F. ) ;
#504 = CIRCLE ( 'NONE', #67, 7.100000000000000533 ) ;
#505 = EDGE_CURVE ( 'NONE', #306, #22, #354, .T. ) ;
#506 = EDGE_LOOP ( 'NONE', ( #117, #242, #157, #170 ) ) ;
#507 = DIRECTION ( 'NONE',  ( 0.000000000000000000, 0.000000000000000000, -1.000000000000000000 ) ) ;
#508 = ORIENTED_EDGE ( 'NONE', *, *, #415, .T. ) ;
#509 = EDGE_LOOP ( 'NONE', ( #388, #508 ) ) ;
#510 = CARTESIAN_POINT ( 'NONE',  ( 60.90000000000000568, -49.64000000000001478, 2.220446049250313081E-13 ) ) ;
#511 = VECTOR ( 'NONE', #559, 1000.000000000000000 ) ;
#512 = CARTESIAN_POINT ( 'NONE',  ( 59.39999999999999858, -49.64000000000001478, 2.220446049250313081E-13 ) ) ;
#513 = ORIENTED_EDGE ( 'NONE', *, *, #376, .T. ) ;
#514 = FACE_BOUND ( 'NONE', #337, .T. ) ;
#515 = CARTESIAN_POINT ( 'NONE',  ( 55.89999999999999858, 0.000000000000000000, 17.14999999999999503 ) ) ;
#516 = VERTEX_POINT ( 'NONE', #18 ) ;
#517 = CARTESIAN_POINT ( 'NONE',  ( 60.90000000000002700, -49.64000000000001478, 2.220446049250313081E-13 ) ) ;
#518 = CARTESIAN_POINT ( 'NONE',  ( 60.90000000000000568, -49.64000000000001478, 2.220446049250313081E-13 ) ) ;
#519 = EDGE_LOOP ( 'NONE', ( #325, #513, #464, #471 ) ) ;
#520 = CARTESIAN_POINT ( 'NONE',  ( 61.90000000000000568, -49.64000000000001478, 8.000000000000222045 ) ) ;
#521 = AXIS2_PLACEMENT_3D ( 'NONE', #481, #227, #101 ) ;
#522 = ORIENTED_EDGE ( 'NONE', *, *, #142, .T. ) ;
#523 = EDGE_CURVE ( 'NONE', #419, #382, #42, .T. ) ;
#524 = EDGE_CURVE ( 'NONE', #40, #374, #360, .T. ) ;
#525 =( GEOMETRIC_REPRESENTATION_CONTEXT ( 3 ) GLOBAL_UNCERTAINTY_ASSIGNED_CONTEXT ( ( #20 ) ) GLOBAL_UNIT_ASSIGNED_CONTEXT ( ( #501, #241, #413 ) ) REPRESENTATION_CONTEXT ( 'NONE', 'WORKASPACE' ) );
#526 = DIRECTION ( 'NONE',  ( 0.000000000000000000, 0.000000000000000000, 1.000000000000000000 ) ) ;
#527 = CARTESIAN_POINT ( 'NONE',  ( -2.001000000000002998, -49.64000000000001478, -7.099999999999778488 ) ) ;
#528 = DIRECTION ( 'NONE',  ( -1.000000000000000000, 0.000000000000000000, 0.000000000000000000 ) ) ;
#529 = CONICAL_SURFACE ( 'NONE', #336, 9.000000000000000000, 0.7853981633974396193 ) ;
#530 = EDGE_CURVE ( 'NONE', #213, #44, #155, .T. ) ;
#531 = DIRECTION ( 'NONE',  ( 0.000000000000000000, 0.000000000000000000, -1.000000000000000000 ) ) ;
#532 = DIRECTION ( 'NONE',  ( 0.000000000000000000, 1.000000000000000000, 0.000000000000000000 ) ) ;
#533 = CARTESIAN_POINT ( 'NONE',  ( 59.39999999999999858, -49.64000000000001478, 2.220446049250313081E-13 ) ) ;
#534 = PLANE ( 'NONE',  #408 ) ;
#535 = VERTEX_POINT ( 'NONE', #275 ) ;
#536 =( LENGTH_UNIT ( ) NAMED_UNIT ( * ) SI_UNIT ( .MILLI., .METRE. ) );
#537 = CARTESIAN_POINT ( 'NONE',  ( 55.89999999999999858, 0.000000000000000000, -17.14999999999998792 ) ) ;
#538 = AXIS2_PLACEMENT_3D ( 'NONE', #510, #469, #295 ) ;
#539 = DIRECTION ( 'NONE',  ( 1.000000000000000000, 0.000000000000000000, 0.000000000000000000 ) ) ;
#540 = AXIS2_PLACEMENT_3D ( 'NONE', #518, #339, #428 ) ;
#541 = EDGE_CURVE ( 'NONE', #44, #213, #458, .T. ) ;
#542 = CARTESIAN_POINT ( 'NONE',  ( 59.39999999999999858, -31.34999999999998721, 17.14999999999999503 ) ) ;
#543 = EDGE_LOOP ( 'NONE', ( #176, #456 ) ) ;
#544 = DIRECTION ( 'NONE',  ( -0.000000000000000000, 0.000000000000000000, -1.000000000000000000 ) ) ;
#545 = DIRECTION ( 'NONE',  ( 0.000000000000000000, 0.000000000000000000, 1.000000000000000000 ) ) ;
#546 = EDGE_CURVE ( 'NONE', #516, #348, #226, .T. ) ;
#547 = ORIENTED_EDGE ( 'NONE', *, *, #530, .T. ) ;
#548 = AXIS2_PLACEMENT_3D ( 'NONE', #172, #302, #46 ) ;
#549 = FACE_BOUND ( 'NONE', #253, .T. ) ;
#550 = VERTEX_POINT ( 'NONE', #486 ) ;
#551 = DIRECTION ( 'NONE',  ( 0.000000000000000000, 0.000000000000000000, -1.000000000000000000 ) ) ;
#552 = ORIENTED_EDGE ( 'NONE', *, *, #541, .T. ) ;
#553 = CARTESIAN_POINT ( 'NONE',  ( 55.39999999999999858, -49.64000000000001478, 2.220446049250313081E-13 ) ) ;
#554 = ORIENTED_EDGE ( 'NONE', *, *, #322, .T. ) ;
#555 = ORIENTED_EDGE ( 'NONE', *, *, #392, .F. ) ;
#556 = CARTESIAN_POINT ( 'NONE',  ( 55.89999999999999858, -49.64000000000001478, 9.500000000000216716 ) ) ;
#557 = CARTESIAN_POINT ( 'NONE',  ( -4.250000000000079936, -31.34999999999998721, -17.14999999999998792 ) ) ;
#558 = EDGE_LOOP ( 'NONE', ( #161, #335, #281, #431 ) ) ;
#559 = DIRECTION ( 'NONE',  ( -0.7071067811865536790, 0.000000000000000000, 0.7071067811865414665 ) ) ;
ENDSEC;
END-ISO-10303-21;
