G04*
G04 #@! TF.GenerationSoftware,Altium Limited,Altium Designer,25.8.1 (18)*
G04*
G04 Layer_Color=16711935*
%FSLAX25Y25*%
%MOIN*%
G70*
G04*
G04 #@! TF.SameCoordinates,6F1B13C0-D005-4D31-958D-C1E1CFDD76E8*
G04*
G04*
G04 #@! TF.FilePolarity,Negative*
G04*
G01*
G75*
%ADD87O,0.08674X0.16548*%
%ADD88O,0.16548X0.08674*%
%ADD89R,0.06737X0.06737*%
%ADD90C,0.09068*%
%ADD91R,0.06737X0.06737*%
%ADD92C,0.27178*%
%ADD93C,0.06698*%
%ADD94R,0.06698X0.06698*%
%ADD95C,0.06509*%
%ADD96C,0.09646*%
%ADD97R,0.09646X0.09646*%
%ADD98R,0.27178X0.27178*%
%ADD99C,0.07119*%
%ADD100R,0.07119X0.07119*%
%ADD101C,0.06737*%
%ADD102O,0.18517X0.08674*%
%ADD103C,0.03800*%
%ADD104C,0.02572*%
%ADD105C,0.16548*%
D87*
X358205Y186382D02*
D03*
D88*
X377890Y198193D02*
D03*
D89*
X339662Y201571D02*
D03*
D90*
X391953Y69382D02*
D03*
X426205D02*
D03*
Y29382D02*
D03*
X391953D02*
D03*
X53953Y9382D02*
D03*
Y49382D02*
D03*
X88205D02*
D03*
Y9382D02*
D03*
X53953Y69382D02*
D03*
X88205D02*
D03*
X53953Y29382D02*
D03*
X88205D02*
D03*
X391953Y9382D02*
D03*
X426205D02*
D03*
X391953Y49382D02*
D03*
X426205D02*
D03*
D91*
X318048Y217815D02*
D03*
X277205Y217882D02*
D03*
X236205D02*
D03*
D92*
X240000Y89500D02*
D03*
D93*
X174500Y227741D02*
D03*
X55000D02*
D03*
X29410D02*
D03*
Y210024D02*
D03*
X148910D02*
D03*
X174500D02*
D03*
D94*
X148910Y227741D02*
D03*
X55000Y210024D02*
D03*
D95*
X17020Y155225D02*
D03*
Y135540D02*
D03*
D96*
X128677Y21190D02*
D03*
Y34575D02*
D03*
X167733D02*
D03*
X128650Y63268D02*
D03*
Y49882D02*
D03*
X167705Y63268D02*
D03*
X351733Y34575D02*
D03*
Y21190D02*
D03*
X312678D02*
D03*
X351733Y50190D02*
D03*
Y63575D02*
D03*
X312678Y50190D02*
D03*
D97*
X167733Y21190D02*
D03*
X167705Y49882D02*
D03*
X312678Y34575D02*
D03*
Y63575D02*
D03*
D98*
X240000Y46000D02*
D03*
D99*
X185705Y225882D02*
D03*
X199205D02*
D03*
D100*
X185705Y215882D02*
D03*
X199205D02*
D03*
D101*
X226363Y217882D02*
D03*
X216520D02*
D03*
X267363D02*
D03*
X257520D02*
D03*
X298363Y217815D02*
D03*
X308205D02*
D03*
X339662Y211414D02*
D03*
Y221256D02*
D03*
D102*
X377890Y173784D02*
D03*
D103*
X163035Y57752D02*
D03*
Y26256D02*
D03*
X155161Y34130D02*
D03*
Y65626D02*
D03*
Y49878D02*
D03*
Y18382D02*
D03*
Y26256D02*
D03*
X170909Y42004D02*
D03*
Y2634D02*
D03*
X163035Y49878D02*
D03*
X155161Y10508D02*
D03*
Y57752D02*
D03*
X170909D02*
D03*
Y10508D02*
D03*
X155161Y42004D02*
D03*
X163035Y2634D02*
D03*
Y42004D02*
D03*
X170909Y26256D02*
D03*
X163035Y34130D02*
D03*
X155161Y2634D02*
D03*
X163035Y18382D02*
D03*
Y10508D02*
D03*
Y65626D02*
D03*
X257401Y42004D02*
D03*
X312520Y10508D02*
D03*
X233779Y2634D02*
D03*
X186535Y65626D02*
D03*
X194409D02*
D03*
X288897D02*
D03*
X186535Y10508D02*
D03*
X328268Y34130D02*
D03*
X281024Y49878D02*
D03*
X304646Y42004D02*
D03*
X328268Y10508D02*
D03*
X233779D02*
D03*
X186535Y18382D02*
D03*
X304646Y65626D02*
D03*
X288897Y42004D02*
D03*
X273149Y34130D02*
D03*
X257401Y18382D02*
D03*
X210157Y57752D02*
D03*
X304646Y49878D02*
D03*
X202283Y26256D02*
D03*
X288897D02*
D03*
X273149Y57752D02*
D03*
X210157Y49878D02*
D03*
X265276Y65626D02*
D03*
X210157Y18382D02*
D03*
X178661Y2634D02*
D03*
X296772Y49878D02*
D03*
X241653Y10508D02*
D03*
X257401Y57752D02*
D03*
X296772Y34130D02*
D03*
X304646Y2634D02*
D03*
X186535Y34130D02*
D03*
X218031D02*
D03*
X304646D02*
D03*
X194409Y26256D02*
D03*
X273149D02*
D03*
X312520Y42004D02*
D03*
X320394Y34130D02*
D03*
X218031Y49878D02*
D03*
Y26256D02*
D03*
X210157Y42004D02*
D03*
X202283D02*
D03*
X288897Y57752D02*
D03*
X241653Y26256D02*
D03*
Y65626D02*
D03*
X218031Y18382D02*
D03*
X288897Y2634D02*
D03*
X202283Y57752D02*
D03*
Y10508D02*
D03*
X186535Y42004D02*
D03*
X225905Y2634D02*
D03*
X281024Y10508D02*
D03*
X304646D02*
D03*
X265276Y2634D02*
D03*
X320394Y18382D02*
D03*
X288897D02*
D03*
Y10508D02*
D03*
X281024Y34130D02*
D03*
X202283Y65626D02*
D03*
X296772Y2634D02*
D03*
X186535D02*
D03*
X178661Y42004D02*
D03*
X202283Y34130D02*
D03*
X225905Y10508D02*
D03*
X194409Y34130D02*
D03*
Y10508D02*
D03*
X296772D02*
D03*
X273149Y18382D02*
D03*
X241653D02*
D03*
X218031Y10508D02*
D03*
X210157Y2634D02*
D03*
X320394D02*
D03*
X202283Y49878D02*
D03*
X257401D02*
D03*
X328268Y26256D02*
D03*
X304646Y18382D02*
D03*
X249527Y10508D02*
D03*
X328268Y2634D02*
D03*
X210157Y10508D02*
D03*
X225905Y65626D02*
D03*
X218031D02*
D03*
X273149Y10508D02*
D03*
X194409Y57752D02*
D03*
X249527Y18382D02*
D03*
X304646Y57752D02*
D03*
X257401Y10508D02*
D03*
X210157Y26256D02*
D03*
X233779Y65626D02*
D03*
X178661Y57752D02*
D03*
X328268Y42004D02*
D03*
X273149Y65626D02*
D03*
X218031Y42004D02*
D03*
X265276Y57752D02*
D03*
X328268Y65626D02*
D03*
Y57752D02*
D03*
X320394Y49878D02*
D03*
X273149Y2634D02*
D03*
X296772Y65626D02*
D03*
X233779Y26256D02*
D03*
X281024Y18382D02*
D03*
X178661Y10508D02*
D03*
X320394Y57752D02*
D03*
X186535Y49878D02*
D03*
X194409Y2634D02*
D03*
X249527D02*
D03*
X288897Y34130D02*
D03*
X281024Y65626D02*
D03*
X328268Y18382D02*
D03*
X218031Y57752D02*
D03*
X320394Y10508D02*
D03*
X328268Y49878D02*
D03*
X281024Y26256D02*
D03*
Y57752D02*
D03*
X265276Y10508D02*
D03*
X218031Y2634D02*
D03*
X194409Y42004D02*
D03*
X178661Y26256D02*
D03*
Y18382D02*
D03*
X273149Y42004D02*
D03*
X202283Y18382D02*
D03*
X249527Y26256D02*
D03*
X194409Y18382D02*
D03*
X249527Y65626D02*
D03*
X178661Y49878D02*
D03*
X265276Y18382D02*
D03*
X257401Y26256D02*
D03*
X281024Y2634D02*
D03*
X178661Y65626D02*
D03*
X225905Y26256D02*
D03*
X312520Y2634D02*
D03*
X296772Y42004D02*
D03*
X304646Y26256D02*
D03*
X281024Y42004D02*
D03*
X265276Y34130D02*
D03*
X257401Y65626D02*
D03*
X178661Y34130D02*
D03*
X296772Y57752D02*
D03*
X273149Y49878D02*
D03*
X265276Y42004D02*
D03*
X225905Y18382D02*
D03*
X194409Y49878D02*
D03*
X186535Y26256D02*
D03*
X265276Y49878D02*
D03*
X210157Y65626D02*
D03*
X296772Y26256D02*
D03*
Y18382D02*
D03*
X265276Y26256D02*
D03*
X257401Y2634D02*
D03*
X320394Y26256D02*
D03*
X257401Y34130D02*
D03*
X320394Y65626D02*
D03*
Y42004D02*
D03*
X241653Y2634D02*
D03*
X233779Y18382D02*
D03*
X202283Y2634D02*
D03*
X210157Y34130D02*
D03*
X288897Y49878D02*
D03*
X186535Y57752D02*
D03*
X426000Y156000D02*
D03*
X412000Y150000D02*
D03*
X432000Y115000D02*
D03*
Y119500D02*
D03*
Y122500D02*
D03*
Y125500D02*
D03*
Y105000D02*
D03*
Y112000D02*
D03*
Y108500D02*
D03*
Y128500D02*
D03*
X450418Y79808D02*
D03*
Y73902D02*
D03*
Y67997D02*
D03*
Y38469D02*
D03*
Y32563D02*
D03*
Y26658D02*
D03*
X444512Y79808D02*
D03*
Y73902D02*
D03*
Y67997D02*
D03*
Y38469D02*
D03*
Y32563D02*
D03*
Y26658D02*
D03*
X438607Y79808D02*
D03*
Y73902D02*
D03*
Y67997D02*
D03*
Y38469D02*
D03*
Y32563D02*
D03*
Y26658D02*
D03*
X432701Y79808D02*
D03*
Y73902D02*
D03*
Y67997D02*
D03*
Y38469D02*
D03*
Y32563D02*
D03*
Y26658D02*
D03*
X426795Y79808D02*
D03*
Y38469D02*
D03*
X420890Y79808D02*
D03*
Y73902D02*
D03*
Y38469D02*
D03*
Y32563D02*
D03*
X414985Y79808D02*
D03*
Y73902D02*
D03*
Y67997D02*
D03*
Y38469D02*
D03*
Y32563D02*
D03*
Y26658D02*
D03*
X409079Y79808D02*
D03*
Y73902D02*
D03*
Y67997D02*
D03*
Y38469D02*
D03*
Y32563D02*
D03*
Y26658D02*
D03*
X403173Y79808D02*
D03*
Y73902D02*
D03*
Y67997D02*
D03*
Y38469D02*
D03*
Y32563D02*
D03*
Y26658D02*
D03*
X397268Y79808D02*
D03*
Y73902D02*
D03*
Y38469D02*
D03*
Y32563D02*
D03*
X391362Y79808D02*
D03*
Y38469D02*
D03*
X385457Y79808D02*
D03*
Y73902D02*
D03*
Y67997D02*
D03*
Y38469D02*
D03*
Y32563D02*
D03*
Y26658D02*
D03*
X379551Y79808D02*
D03*
Y73902D02*
D03*
Y38469D02*
D03*
X373646D02*
D03*
X367740D02*
D03*
X361835Y79808D02*
D03*
Y73902D02*
D03*
X355929Y79808D02*
D03*
Y73902D02*
D03*
X350024Y79808D02*
D03*
Y73902D02*
D03*
X344118Y79808D02*
D03*
Y73902D02*
D03*
X338213Y79808D02*
D03*
Y73902D02*
D03*
X108405Y39500D02*
D03*
X102500D02*
D03*
X107970Y15218D02*
D03*
X102065D02*
D03*
X143403Y9313D02*
D03*
Y3407D02*
D03*
X137498Y9313D02*
D03*
Y3407D02*
D03*
X131592Y9313D02*
D03*
Y3407D02*
D03*
X125687Y9313D02*
D03*
Y3407D02*
D03*
X119781Y9313D02*
D03*
Y3407D02*
D03*
X113876Y44745D02*
D03*
Y9313D02*
D03*
Y3407D02*
D03*
X96159Y50651D02*
D03*
Y44745D02*
D03*
Y15218D02*
D03*
Y9313D02*
D03*
Y3407D02*
D03*
X90254D02*
D03*
X84348Y44745D02*
D03*
Y15218D02*
D03*
Y3407D02*
D03*
X78443Y50651D02*
D03*
Y44745D02*
D03*
Y15218D02*
D03*
Y9313D02*
D03*
Y3407D02*
D03*
X72537Y50651D02*
D03*
Y44745D02*
D03*
Y15218D02*
D03*
Y9313D02*
D03*
Y3407D02*
D03*
X66632Y50651D02*
D03*
Y44745D02*
D03*
Y15218D02*
D03*
Y9313D02*
D03*
Y3407D02*
D03*
X60726Y50651D02*
D03*
Y44745D02*
D03*
Y15218D02*
D03*
Y9313D02*
D03*
Y3407D02*
D03*
X54821D02*
D03*
X48915Y44745D02*
D03*
Y15218D02*
D03*
Y3407D02*
D03*
X43009Y50651D02*
D03*
Y44745D02*
D03*
Y15218D02*
D03*
Y9313D02*
D03*
Y3407D02*
D03*
X37104Y50651D02*
D03*
Y44745D02*
D03*
Y15218D02*
D03*
Y9313D02*
D03*
Y3407D02*
D03*
X31198Y50651D02*
D03*
Y44745D02*
D03*
Y15218D02*
D03*
Y9313D02*
D03*
Y3407D02*
D03*
X153174Y77839D02*
D03*
X161048D02*
D03*
Y85713D02*
D03*
X168922Y77839D02*
D03*
Y85713D02*
D03*
Y93587D02*
D03*
X176796Y77839D02*
D03*
Y85713D02*
D03*
Y93587D02*
D03*
Y101461D02*
D03*
X184670Y77839D02*
D03*
Y85713D02*
D03*
Y93587D02*
D03*
Y101461D02*
D03*
X192544Y77839D02*
D03*
Y85713D02*
D03*
Y93587D02*
D03*
Y101461D02*
D03*
X200418Y77839D02*
D03*
Y85713D02*
D03*
Y93587D02*
D03*
Y101461D02*
D03*
X208292Y77839D02*
D03*
Y85713D02*
D03*
Y93587D02*
D03*
Y101461D02*
D03*
X216166Y77839D02*
D03*
Y85713D02*
D03*
Y93587D02*
D03*
Y101461D02*
D03*
X224040Y77839D02*
D03*
Y85713D02*
D03*
Y93587D02*
D03*
Y101461D02*
D03*
X255536Y77839D02*
D03*
Y85713D02*
D03*
Y93587D02*
D03*
Y101461D02*
D03*
X263410Y77839D02*
D03*
Y85713D02*
D03*
Y93587D02*
D03*
Y101461D02*
D03*
X271284Y77839D02*
D03*
Y85713D02*
D03*
Y93587D02*
D03*
Y101461D02*
D03*
X279158Y77839D02*
D03*
Y85713D02*
D03*
Y93587D02*
D03*
Y101461D02*
D03*
X287032Y77839D02*
D03*
Y85713D02*
D03*
Y93587D02*
D03*
Y101461D02*
D03*
X294906Y77839D02*
D03*
Y85713D02*
D03*
Y93587D02*
D03*
Y101461D02*
D03*
X302780Y77839D02*
D03*
Y85713D02*
D03*
Y93587D02*
D03*
Y101461D02*
D03*
X310654Y77839D02*
D03*
Y85713D02*
D03*
Y93587D02*
D03*
Y101461D02*
D03*
X318528Y77839D02*
D03*
Y85713D02*
D03*
Y93587D02*
D03*
Y101461D02*
D03*
X326402Y77839D02*
D03*
Y85713D02*
D03*
Y93587D02*
D03*
Y101461D02*
D03*
X470422Y129855D02*
D03*
Y126355D02*
D03*
Y122855D02*
D03*
Y119355D02*
D03*
Y114855D02*
D03*
X422000Y226500D02*
D03*
Y223500D02*
D03*
Y220500D02*
D03*
Y217500D02*
D03*
Y214500D02*
D03*
Y211500D02*
D03*
Y208500D02*
D03*
Y202500D02*
D03*
Y199500D02*
D03*
Y196500D02*
D03*
Y193500D02*
D03*
Y190500D02*
D03*
X470500Y104500D02*
D03*
X470422Y107855D02*
D03*
Y111355D02*
D03*
X459705Y89382D02*
D03*
X422000Y205500D02*
D03*
X421922Y186855D02*
D03*
X415000Y184000D02*
D03*
X412135Y156641D02*
D03*
X405806Y142669D02*
D03*
X185584Y153409D02*
D03*
X154584Y189909D02*
D03*
X120584Y170909D02*
D03*
X58084Y164909D02*
D03*
X26084Y98909D02*
D03*
X421000Y116850D02*
D03*
X448422Y114855D02*
D03*
Y119355D02*
D03*
Y122355D02*
D03*
Y125355D02*
D03*
Y128355D02*
D03*
X435500Y161500D02*
D03*
X426922Y161355D02*
D03*
X429422Y184355D02*
D03*
X448422Y104855D02*
D03*
Y108355D02*
D03*
Y111855D02*
D03*
X53705Y102382D02*
D03*
X50705Y111382D02*
D03*
X7705Y121882D02*
D03*
X28205Y163882D02*
D03*
X26205Y197882D02*
D03*
X80205Y92063D02*
D03*
X63205Y94822D02*
D03*
X55205Y111382D02*
D03*
X60205Y176382D02*
D03*
Y181382D02*
D03*
Y186382D02*
D03*
Y193382D02*
D03*
X110705Y91882D02*
D03*
X94705Y94882D02*
D03*
X128705D02*
D03*
X89174Y120964D02*
D03*
X118674D02*
D03*
X129674D02*
D03*
X165955Y122632D02*
D03*
X145705Y171882D02*
D03*
X154205Y175882D02*
D03*
X145705Y176382D02*
D03*
X162705Y200382D02*
D03*
X180205Y206882D02*
D03*
X185455Y143132D02*
D03*
X186955Y119132D02*
D03*
X193705Y205382D02*
D03*
X204205Y182382D02*
D03*
X209796Y189018D02*
D03*
X210205Y200382D02*
D03*
X212455Y122632D02*
D03*
X255705Y188882D02*
D03*
X266705Y193882D02*
D03*
X269705Y122882D02*
D03*
X283705Y200882D02*
D03*
X287705Y119382D02*
D03*
X295705Y159382D02*
D03*
Y148882D02*
D03*
X311205Y190882D02*
D03*
X323705Y122882D02*
D03*
X324705Y200382D02*
D03*
X368205Y146882D02*
D03*
X386922Y163355D02*
D03*
X394422Y147355D02*
D03*
X398422Y170855D02*
D03*
X450418Y56185D02*
D03*
Y50280D02*
D03*
Y44374D02*
D03*
X444512Y56185D02*
D03*
Y50280D02*
D03*
Y44374D02*
D03*
X438607Y56185D02*
D03*
Y50280D02*
D03*
Y44374D02*
D03*
X432701Y56185D02*
D03*
Y50280D02*
D03*
Y44374D02*
D03*
X426795Y56185D02*
D03*
X420890D02*
D03*
Y44374D02*
D03*
X414985Y56185D02*
D03*
Y50280D02*
D03*
Y44374D02*
D03*
X409079Y56185D02*
D03*
Y50280D02*
D03*
Y44374D02*
D03*
X403173Y56185D02*
D03*
Y50280D02*
D03*
Y44374D02*
D03*
X397268Y56185D02*
D03*
Y44374D02*
D03*
X391362Y56185D02*
D03*
X385457D02*
D03*
Y50280D02*
D03*
Y44374D02*
D03*
X379551Y62091D02*
D03*
Y56185D02*
D03*
Y50280D02*
D03*
Y44374D02*
D03*
X373646Y50280D02*
D03*
Y44374D02*
D03*
X367740Y50280D02*
D03*
Y44374D02*
D03*
X361835Y62091D02*
D03*
Y56185D02*
D03*
Y50280D02*
D03*
Y44374D02*
D03*
X355929Y56185D02*
D03*
Y44374D02*
D03*
X344118Y62091D02*
D03*
Y56185D02*
D03*
Y50280D02*
D03*
Y44374D02*
D03*
X338213Y62091D02*
D03*
Y56185D02*
D03*
Y50280D02*
D03*
Y44374D02*
D03*
X450418Y14847D02*
D03*
Y8941D02*
D03*
Y3036D02*
D03*
X444512Y14847D02*
D03*
Y8941D02*
D03*
Y3036D02*
D03*
X438607Y14847D02*
D03*
Y8941D02*
D03*
Y3036D02*
D03*
X432701Y14847D02*
D03*
Y8941D02*
D03*
Y3036D02*
D03*
X426795D02*
D03*
X420890Y14847D02*
D03*
Y3036D02*
D03*
X414985Y14847D02*
D03*
Y8941D02*
D03*
Y3036D02*
D03*
X409079Y14847D02*
D03*
Y8941D02*
D03*
Y3036D02*
D03*
X403173Y14847D02*
D03*
Y8941D02*
D03*
Y3036D02*
D03*
X397268Y14847D02*
D03*
Y3036D02*
D03*
X391362D02*
D03*
X385457Y14847D02*
D03*
Y8941D02*
D03*
Y3036D02*
D03*
X379551D02*
D03*
X373646D02*
D03*
X367740D02*
D03*
X361835Y38469D02*
D03*
Y32563D02*
D03*
Y26658D02*
D03*
Y20752D02*
D03*
Y14847D02*
D03*
Y8941D02*
D03*
Y3036D02*
D03*
X355929Y26658D02*
D03*
Y14847D02*
D03*
Y8941D02*
D03*
Y3036D02*
D03*
X350024Y8941D02*
D03*
Y3036D02*
D03*
X344118Y38469D02*
D03*
Y32563D02*
D03*
Y26658D02*
D03*
Y20752D02*
D03*
Y14847D02*
D03*
Y8941D02*
D03*
Y3036D02*
D03*
X338213Y38469D02*
D03*
Y32563D02*
D03*
Y26658D02*
D03*
Y20752D02*
D03*
Y14847D02*
D03*
Y8941D02*
D03*
Y3036D02*
D03*
X143331Y67997D02*
D03*
Y62091D02*
D03*
Y56185D02*
D03*
Y50280D02*
D03*
X137425Y67997D02*
D03*
Y62091D02*
D03*
Y56185D02*
D03*
Y50280D02*
D03*
X131520Y56185D02*
D03*
X125615D02*
D03*
X119709Y67997D02*
D03*
Y62091D02*
D03*
Y56185D02*
D03*
Y50280D02*
D03*
X113804Y67997D02*
D03*
Y62091D02*
D03*
Y56185D02*
D03*
X107898D02*
D03*
X101992Y73902D02*
D03*
Y56185D02*
D03*
X96087Y79808D02*
D03*
Y73902D02*
D03*
Y67997D02*
D03*
Y62091D02*
D03*
X90181Y79808D02*
D03*
Y62091D02*
D03*
X84276Y79808D02*
D03*
Y62091D02*
D03*
X78370Y79808D02*
D03*
Y73902D02*
D03*
Y67997D02*
D03*
Y62091D02*
D03*
X72465Y79808D02*
D03*
Y73902D02*
D03*
Y67997D02*
D03*
Y62091D02*
D03*
X66559Y79808D02*
D03*
Y73902D02*
D03*
Y67997D02*
D03*
Y62091D02*
D03*
X60654Y79808D02*
D03*
Y73902D02*
D03*
Y67997D02*
D03*
Y62091D02*
D03*
X54748Y79808D02*
D03*
Y62091D02*
D03*
X48843Y79808D02*
D03*
Y73902D02*
D03*
Y62091D02*
D03*
X42937Y79808D02*
D03*
Y73902D02*
D03*
Y67997D02*
D03*
Y62091D02*
D03*
X37032Y79808D02*
D03*
Y73902D02*
D03*
Y67997D02*
D03*
Y62091D02*
D03*
X31126Y79808D02*
D03*
Y73902D02*
D03*
Y67997D02*
D03*
Y62091D02*
D03*
X137425Y38469D02*
D03*
Y32563D02*
D03*
Y26658D02*
D03*
Y20752D02*
D03*
X119709Y38469D02*
D03*
Y32563D02*
D03*
Y26658D02*
D03*
Y20752D02*
D03*
X113804Y32563D02*
D03*
Y26658D02*
D03*
Y20752D02*
D03*
X107898Y32563D02*
D03*
X101992D02*
D03*
X96087D02*
D03*
Y26658D02*
D03*
Y20752D02*
D03*
X90181D02*
D03*
X84276D02*
D03*
X78370Y32563D02*
D03*
Y26658D02*
D03*
Y20752D02*
D03*
X72465Y32563D02*
D03*
Y26658D02*
D03*
Y20752D02*
D03*
X66559Y32563D02*
D03*
Y26658D02*
D03*
Y20752D02*
D03*
X60654Y32563D02*
D03*
Y26658D02*
D03*
Y20752D02*
D03*
X54748D02*
D03*
X48843D02*
D03*
X42937Y32563D02*
D03*
Y26658D02*
D03*
Y20752D02*
D03*
X37032Y32563D02*
D03*
Y26658D02*
D03*
Y20752D02*
D03*
X31126Y32563D02*
D03*
Y26658D02*
D03*
Y20752D02*
D03*
D104*
X424500Y134500D02*
D03*
X424000Y146000D02*
D03*
Y151000D02*
D03*
X424500Y129000D02*
D03*
D105*
X12705Y219882D02*
D03*
X469205Y220382D02*
D03*
X12705Y12882D02*
D03*
X468205D02*
D03*
M02*
