G04*
G04 #@! TF.GenerationSoftware,Altium Limited,Altium Designer,25.8.1 (18)*
G04*
G04 Layer_Color=8388736*
%FSLAX25Y25*%
%MOIN*%
G70*
G04*
G04 #@! TF.SameCoordinates,E010760D-FB29-432B-967E-C6BB433EED36*
G04*
G04*
G04 #@! TF.FilePolarity,Negative*
G04*
G01*
G75*
%ADD18R,0.02816X0.02648*%
%ADD19R,0.02423X0.02254*%
%ADD20R,0.02254X0.02423*%
%ADD21C,0.02362*%
%ADD22R,0.03197X0.02593*%
G04:AMPARAMS|DCode=23|XSize=73.01mil|YSize=24.1mil|CornerRadius=12.05mil|HoleSize=0mil|Usage=FLASHONLY|Rotation=0.000|XOffset=0mil|YOffset=0mil|HoleType=Round|Shape=RoundedRectangle|*
%AMROUNDEDRECTD23*
21,1,0.07301,0.00000,0,0,0.0*
21,1,0.04891,0.02410,0,0,0.0*
1,1,0.02410,0.02445,0.00000*
1,1,0.02410,-0.02445,0.00000*
1,1,0.02410,-0.02445,0.00000*
1,1,0.02410,0.02445,0.00000*
%
%ADD23ROUNDEDRECTD23*%
%ADD24O,0.07301X0.02410*%
%ADD32R,0.05544X0.03963*%
%ADD33R,0.02593X0.03197*%
G04:AMPARAMS|DCode=34|XSize=67.21mil|YSize=24.25mil|CornerRadius=12.12mil|HoleSize=0mil|Usage=FLASHONLY|Rotation=270.000|XOffset=0mil|YOffset=0mil|HoleType=Round|Shape=RoundedRectangle|*
%AMROUNDEDRECTD34*
21,1,0.06721,0.00000,0,0,270.0*
21,1,0.04296,0.02425,0,0,270.0*
1,1,0.02425,0.00000,-0.02148*
1,1,0.02425,0.00000,0.02148*
1,1,0.02425,0.00000,0.02148*
1,1,0.02425,0.00000,-0.02148*
%
%ADD34ROUNDEDRECTD34*%
%ADD35R,0.02425X0.06721*%
%ADD36R,0.05512X0.03740*%
%ADD38R,0.02559X0.04134*%
G04:AMPARAMS|DCode=39|XSize=49.38mil|YSize=13.22mil|CornerRadius=6.61mil|HoleSize=0mil|Usage=FLASHONLY|Rotation=180.000|XOffset=0mil|YOffset=0mil|HoleType=Round|Shape=RoundedRectangle|*
%AMROUNDEDRECTD39*
21,1,0.04938,0.00000,0,0,180.0*
21,1,0.03615,0.01322,0,0,180.0*
1,1,0.01322,-0.01808,0.00000*
1,1,0.01322,0.01808,0.00000*
1,1,0.01322,0.01808,0.00000*
1,1,0.01322,-0.01808,0.00000*
%
%ADD39ROUNDEDRECTD39*%
G04:AMPARAMS|DCode=40|XSize=43.31mil|YSize=23.62mil|CornerRadius=2.01mil|HoleSize=0mil|Usage=FLASHONLY|Rotation=180.000|XOffset=0mil|YOffset=0mil|HoleType=Round|Shape=RoundedRectangle|*
%AMROUNDEDRECTD40*
21,1,0.04331,0.01961,0,0,180.0*
21,1,0.03929,0.02362,0,0,180.0*
1,1,0.00402,-0.01965,0.00980*
1,1,0.00402,0.01965,0.00980*
1,1,0.00402,0.01965,-0.00980*
1,1,0.00402,-0.01965,-0.00980*
%
%ADD40ROUNDEDRECTD40*%
%ADD41R,0.01000X0.01900*%
%ADD42R,0.01900X0.01000*%
%ADD45R,0.02648X0.02631*%
%ADD46R,0.05138X0.04355*%
%ADD47R,0.03765X0.06127*%
%ADD49R,0.04724X0.07087*%
%ADD50R,0.11040X0.06506*%
%ADD52R,0.03740X0.05512*%
%ADD54R,0.02362X0.06102*%
%ADD57R,0.06506X0.11040*%
G04:AMPARAMS|DCode=58|XSize=17.72mil|YSize=11.81mil|CornerRadius=1.95mil|HoleSize=0mil|Usage=FLASHONLY|Rotation=180.000|XOffset=0mil|YOffset=0mil|HoleType=Round|Shape=RoundedRectangle|*
%AMROUNDEDRECTD58*
21,1,0.01772,0.00791,0,0,180.0*
21,1,0.01382,0.01181,0,0,180.0*
1,1,0.00390,-0.00691,0.00396*
1,1,0.00390,0.00691,0.00396*
1,1,0.00390,0.00691,-0.00396*
1,1,0.00390,-0.00691,-0.00396*
%
%ADD58ROUNDEDRECTD58*%
%ADD59R,0.05241X0.03985*%
G04:AMPARAMS|DCode=62|XSize=37.68mil|YSize=9.42mil|CornerRadius=4.71mil|HoleSize=0mil|Usage=FLASHONLY|Rotation=90.000|XOffset=0mil|YOffset=0mil|HoleType=Round|Shape=RoundedRectangle|*
%AMROUNDEDRECTD62*
21,1,0.03768,0.00000,0,0,90.0*
21,1,0.02826,0.00942,0,0,90.0*
1,1,0.00942,0.00000,0.01413*
1,1,0.00942,0.00000,-0.01413*
1,1,0.00942,0.00000,-0.01413*
1,1,0.00942,0.00000,0.01413*
%
%ADD62ROUNDEDRECTD62*%
G04:AMPARAMS|DCode=63|XSize=9.42mil|YSize=37.68mil|CornerRadius=4.71mil|HoleSize=0mil|Usage=FLASHONLY|Rotation=90.000|XOffset=0mil|YOffset=0mil|HoleType=Round|Shape=RoundedRectangle|*
%AMROUNDEDRECTD63*
21,1,0.00942,0.02826,0,0,90.0*
21,1,0.00000,0.03768,0,0,90.0*
1,1,0.00942,0.01413,0.00000*
1,1,0.00942,0.01413,0.00000*
1,1,0.00942,-0.01413,0.00000*
1,1,0.00942,-0.01413,0.00000*
%
%ADD63ROUNDEDRECTD63*%
%ADD65R,0.01968X0.02362*%
%ADD67R,0.02362X0.02362*%
%ADD68R,0.08898X0.08504*%
%ADD69R,0.02365X0.04375*%
%ADD70R,0.06127X0.03765*%
%ADD71R,0.13228X0.19134*%
%ADD72R,0.05472X0.05512*%
%ADD73R,0.04938X0.01322*%
%ADD74R,0.03963X0.05544*%
%ADD75R,0.02756X0.00787*%
%ADD76R,0.12992X0.04134*%
%ADD78R,0.01575X0.02362*%
%ADD80R,0.01843X0.01860*%
%ADD81R,0.02203X0.01860*%
%ADD82C,0.00848*%
%ADD87R,0.02237X0.02254*%
%ADD88R,0.04166X0.04748*%
%ADD90C,0.02769*%
%ADD91R,0.02572X0.02572*%
%ADD92R,0.03556X0.03359*%
%ADD93R,0.02965X0.02965*%
%ADD94R,0.03950X0.03950*%
%ADD95R,0.03950X0.02375*%
%ADD96R,0.02375X0.03950*%
%ADD97R,0.05524X0.05524*%
%ADD98R,0.06706X0.05524*%
%ADD99R,0.02375X0.06115*%
%ADD100R,0.03162X0.02926*%
G04:AMPARAMS|DCode=101|XSize=55.64mil|YSize=31.23mil|CornerRadius=9.81mil|HoleSize=0mil|Usage=FLASHONLY|Rotation=180.000|XOffset=0mil|YOffset=0mil|HoleType=Round|Shape=RoundedRectangle|*
%AMROUNDEDRECTD101*
21,1,0.05564,0.01161,0,0,180.0*
21,1,0.03602,0.03123,0,0,180.0*
1,1,0.01961,-0.01801,0.00581*
1,1,0.01961,0.01801,0.00581*
1,1,0.01961,0.01801,-0.00581*
1,1,0.01961,-0.01801,-0.00581*
%
%ADD101ROUNDEDRECTD101*%
%ADD102R,0.06902X0.06706*%
G04:AMPARAMS|DCode=103|XSize=55.64mil|YSize=31.23mil|CornerRadius=9.81mil|HoleSize=0mil|Usage=FLASHONLY|Rotation=90.000|XOffset=0mil|YOffset=0mil|HoleType=Round|Shape=RoundedRectangle|*
%AMROUNDEDRECTD103*
21,1,0.05564,0.01161,0,0,90.0*
21,1,0.03602,0.03123,0,0,90.0*
1,1,0.01961,0.00581,0.01801*
1,1,0.01961,0.00581,-0.01801*
1,1,0.01961,-0.00581,-0.01801*
1,1,0.01961,-0.00581,0.01801*
%
%ADD103ROUNDEDRECTD103*%
%ADD104R,0.06706X0.06902*%
%ADD105R,0.02296X0.02375*%
G04:AMPARAMS|DCode=106|XSize=29.53mil|YSize=11.81mil|CornerRadius=1.95mil|HoleSize=0mil|Usage=FLASHONLY|Rotation=180.000|XOffset=0mil|YOffset=0mil|HoleType=Round|Shape=RoundedRectangle|*
%AMROUNDEDRECTD106*
21,1,0.02953,0.00791,0,0,180.0*
21,1,0.02563,0.01181,0,0,180.0*
1,1,0.00390,-0.01282,0.00396*
1,1,0.00390,0.01282,0.00396*
1,1,0.00390,0.01282,-0.00396*
1,1,0.00390,-0.01282,-0.00396*
%
%ADD106ROUNDEDRECTD106*%
%ADD107R,0.04461X0.04304*%
%ADD108R,0.04343X0.03359*%
%ADD109R,0.03543X0.05118*%
%ADD110C,0.01462*%
%ADD111R,0.04304X0.04461*%
%ADD112R,0.02965X0.02965*%
%ADD113R,0.00984X0.10433*%
%ADD114C,0.01550*%
%ADD115R,0.03359X0.03359*%
%ADD116R,0.22453X0.06430*%
%ADD117R,0.06706X0.08280*%
%ADD118R,0.03950X0.03162*%
G04:AMPARAMS|DCode=119|XSize=39.37mil|YSize=37.4mil|CornerRadius=2.06mil|HoleSize=0mil|Usage=FLASHONLY|Rotation=0.000|XOffset=0mil|YOffset=0mil|HoleType=Round|Shape=RoundedRectangle|*
%AMROUNDEDRECTD119*
21,1,0.03937,0.03329,0,0,0.0*
21,1,0.03526,0.03740,0,0,0.0*
1,1,0.00411,0.01763,-0.01664*
1,1,0.00411,-0.01763,-0.01664*
1,1,0.00411,-0.01763,0.01664*
1,1,0.00411,0.01763,0.01664*
%
%ADD119ROUNDEDRECTD119*%
%ADD120C,0.04737*%
%ADD121C,0.09068*%
%ADD122C,0.07296*%
%ADD123O,0.16548X0.08674*%
%ADD124O,0.08674X0.16548*%
%ADD125C,0.27178*%
%ADD126R,0.09646X0.09646*%
%ADD127C,0.09646*%
%ADD128O,0.18517X0.08674*%
%ADD129C,0.06509*%
%ADD130C,0.03162*%
%ADD131C,0.03800*%
%ADD132C,0.02769*%
%ADD133C,0.16548*%
G36*
X216170Y231886D02*
X216222Y231875D01*
X216271Y231858D01*
X216318Y231835D01*
X216362Y231806D01*
X216402Y231772D01*
X216436Y231732D01*
X216465Y231689D01*
X216489Y231642D01*
X216505Y231592D01*
X216515Y231540D01*
X216519Y231488D01*
Y224008D01*
X216515Y223955D01*
X216505Y223904D01*
X216489Y223854D01*
X216465Y223807D01*
X216436Y223764D01*
X216402Y223724D01*
X216362Y223690D01*
X216318Y223661D01*
X216271Y223638D01*
X216222Y223621D01*
X216170Y223610D01*
X216118Y223607D01*
X211000D01*
X210948Y223610D01*
X210896Y223621D01*
X210847Y223638D01*
X210800Y223661D01*
X210756Y223690D01*
X210717Y223724D01*
X210682Y223764D01*
X210653Y223807D01*
X210630Y223854D01*
X210613Y223904D01*
X210603Y223955D01*
X210599Y224008D01*
Y225575D01*
X209032D01*
X208979Y225579D01*
X208928Y225589D01*
X208878Y225606D01*
X208855Y225617D01*
X208831Y225629D01*
X208788Y225658D01*
X208748Y225693D01*
Y225693D01*
X208748D01*
X208714Y225732D01*
X208684Y225776D01*
X208673Y225800D01*
X208661Y225823D01*
X208644Y225872D01*
X208634Y225924D01*
X208631Y225976D01*
X208631Y229520D01*
Y229520D01*
D01*
X208634Y229572D01*
X208644Y229623D01*
X208661Y229673D01*
X208673Y229696D01*
X208684Y229720D01*
X208714Y229764D01*
X208748Y229803D01*
X208748D01*
Y229803D01*
X208787Y229838D01*
X208831Y229867D01*
X208855Y229879D01*
X208878Y229890D01*
X208928Y229907D01*
X208979Y229917D01*
X209032Y229921D01*
X209032D01*
D01*
X210599D01*
Y231488D01*
X210603Y231540D01*
X210613Y231592D01*
X210630Y231642D01*
X210653Y231689D01*
X210682Y231732D01*
X210717Y231772D01*
X210756Y231806D01*
X210800Y231835D01*
X210847Y231858D01*
X210896Y231875D01*
X210948Y231886D01*
X211000Y231889D01*
X216118D01*
X216170Y231886D01*
D02*
G37*
G36*
X239399D02*
X239450Y231875D01*
X239500Y231858D01*
X239547Y231835D01*
X239591Y231806D01*
X239630Y231772D01*
X239665Y231732D01*
X239694Y231689D01*
X239717Y231642D01*
X239734Y231592D01*
X239744Y231540D01*
X239747Y231488D01*
Y229921D01*
X241315D01*
X241367Y229917D01*
X241419Y229907D01*
X241468Y229890D01*
X241492Y229879D01*
X241515Y229867D01*
X241559Y229838D01*
X241598Y229803D01*
Y229803D01*
X241598D01*
X241633Y229764D01*
X241662Y229720D01*
X241674Y229696D01*
X241685Y229673D01*
X241702Y229624D01*
X241712Y229572D01*
X241716Y229520D01*
X241716Y225976D01*
Y225976D01*
D01*
X241712Y225924D01*
X241702Y225873D01*
X241685Y225823D01*
X241674Y225800D01*
X241662Y225776D01*
X241633Y225732D01*
X241598Y225693D01*
X241598D01*
Y225693D01*
X241559Y225658D01*
X241515Y225629D01*
X241492Y225618D01*
X241468Y225606D01*
X241419Y225589D01*
X241367Y225579D01*
X241315Y225575D01*
X241315D01*
D01*
X239747D01*
Y224008D01*
X239744Y223955D01*
X239734Y223904D01*
X239717Y223854D01*
X239694Y223807D01*
X239665Y223764D01*
X239630Y223724D01*
X239591Y223690D01*
X239547Y223661D01*
X239500Y223638D01*
X239450Y223621D01*
X239399Y223610D01*
X239347Y223607D01*
X234228D01*
X234176Y223610D01*
X234125Y223621D01*
X234075Y223638D01*
X234028Y223661D01*
X233984Y223690D01*
X233945Y223724D01*
X233910Y223764D01*
X233881Y223807D01*
X233858Y223854D01*
X233841Y223904D01*
X233831Y223955D01*
X233827Y224008D01*
Y231488D01*
X233831Y231540D01*
X233841Y231592D01*
X233858Y231642D01*
X233881Y231689D01*
X233910Y231732D01*
X233945Y231772D01*
X233984Y231806D01*
X234028Y231835D01*
X234075Y231858D01*
X234125Y231875D01*
X234176Y231886D01*
X234228Y231889D01*
X239347D01*
X239399Y231886D01*
D02*
G37*
G36*
X291290Y187032D02*
X285778D01*
Y189985D01*
X288337Y192544D01*
X291290D01*
Y187032D01*
D02*
G37*
G36*
X410120Y146487D02*
X410252Y146355D01*
X410324Y146182D01*
Y146088D01*
Y142791D01*
X409382D01*
Y146088D01*
Y146182D01*
X409453Y146355D01*
X409586Y146487D01*
X409759Y146559D01*
X409946D01*
X410120Y146487D01*
D02*
G37*
G36*
X249727Y76919D02*
Y74951D01*
X250908D01*
X251105Y74754D01*
Y73573D01*
X250908Y73376D01*
X248546D01*
X248349Y73573D01*
Y76919D01*
X248546Y77116D01*
X249530D01*
X249727Y76919D01*
D02*
G37*
G36*
X232601Y76919D02*
Y73573D01*
X232404Y73376D01*
X230042D01*
X229845Y73573D01*
Y74754D01*
X230042Y74951D01*
X231223D01*
Y76919D01*
X231420Y77116D01*
X232404D01*
X232601Y76919D01*
D02*
G37*
G36*
X251105Y61368D02*
Y60187D01*
X250908Y59990D01*
X249727D01*
Y58022D01*
X249530Y57825D01*
X248546D01*
X248349Y58022D01*
Y61368D01*
X248546Y61565D01*
X250908D01*
X251105Y61368D01*
D02*
G37*
G36*
X232601Y61368D02*
Y58022D01*
X232404Y57825D01*
X231420D01*
X231223Y58022D01*
Y59990D01*
X230042D01*
X229845Y60187D01*
Y61368D01*
X230042Y61565D01*
X232404D01*
X232601Y61368D01*
D02*
G37*
D18*
X259581Y74270D02*
D03*
X255812D02*
D03*
X400653Y121375D02*
D03*
X404421D02*
D03*
D19*
X264187Y67500D02*
D03*
X260813D02*
D03*
X401813Y130000D02*
D03*
X405187D02*
D03*
X262113Y58500D02*
D03*
X258739D02*
D03*
D20*
X355000Y118313D02*
D03*
Y121687D02*
D03*
X165354Y175478D02*
D03*
Y178853D02*
D03*
X175197Y175478D02*
D03*
Y178853D02*
D03*
X185039Y175478D02*
D03*
Y178853D02*
D03*
X194882Y175478D02*
D03*
Y178853D02*
D03*
X215426Y68187D02*
D03*
Y64813D02*
D03*
D21*
X391500Y148500D02*
D03*
X433000Y110500D02*
D03*
X399000Y148000D02*
D03*
X418058Y139641D02*
D03*
X411500Y132500D02*
D03*
Y127000D02*
D03*
X427500Y172000D02*
D03*
X383500Y170500D02*
D03*
D22*
X209500Y56164D02*
D03*
Y50836D02*
D03*
D23*
X372029Y129740D02*
D03*
Y126000D02*
D03*
Y122260D02*
D03*
X362971D02*
D03*
Y126000D02*
D03*
D24*
Y129740D02*
D03*
D32*
X179134Y198232D02*
D03*
Y190745D02*
D03*
X333539Y179286D02*
D03*
X169291Y198232D02*
D03*
Y190745D02*
D03*
X211500Y190257D02*
D03*
X256500Y169744D02*
D03*
X333500Y192756D02*
D03*
X248500Y169744D02*
D03*
Y162257D02*
D03*
X159449Y198232D02*
D03*
Y190745D02*
D03*
X188976Y198232D02*
D03*
Y190745D02*
D03*
X256500Y162257D02*
D03*
X333500Y200243D02*
D03*
X211500Y197743D02*
D03*
X333539Y171799D02*
D03*
D33*
X192133Y208000D02*
D03*
X186804D02*
D03*
X115836D02*
D03*
X138804D02*
D03*
X162804D02*
D03*
X144133D02*
D03*
X121164D02*
D03*
X168133D02*
D03*
X92804D02*
D03*
X70672D02*
D03*
X48172Y207500D02*
D03*
X25672D02*
D03*
X31000D02*
D03*
X53500D02*
D03*
X76000Y208000D02*
D03*
X98133D02*
D03*
D34*
X221000Y187000D02*
D03*
Y196453D02*
D03*
X228480Y187000D02*
D03*
X224740Y196453D02*
D03*
D35*
X228480D02*
D03*
D36*
X226000Y168358D02*
D03*
X400500Y12858D02*
D03*
X400468Y60858D02*
D03*
X79633Y61420D02*
D03*
X80000Y12827D02*
D03*
X38500Y184216D02*
D03*
X61000Y184000D02*
D03*
X83000D02*
D03*
X241000Y196358D02*
D03*
X250500D02*
D03*
X105000Y184000D02*
D03*
X260926Y54142D02*
D03*
X219426Y84000D02*
D03*
X226000Y175642D02*
D03*
X241000Y203642D02*
D03*
X250500D02*
D03*
X219426Y91284D02*
D03*
X260926Y46858D02*
D03*
X80000Y20110D02*
D03*
X79633Y68704D02*
D03*
X400500Y20142D02*
D03*
X400468Y68142D02*
D03*
X105000Y191284D02*
D03*
X396000Y155858D02*
D03*
X388000D02*
D03*
X396000Y163142D02*
D03*
X83000Y191284D02*
D03*
X61000D02*
D03*
X38500Y191500D02*
D03*
X388000Y163142D02*
D03*
D38*
X332772Y227748D02*
D03*
Y211409D02*
D03*
X259469Y227417D02*
D03*
Y211079D02*
D03*
X251004D02*
D03*
Y227417D02*
D03*
X341236Y227748D02*
D03*
Y211409D02*
D03*
D39*
X137995Y176118D02*
D03*
X138000Y199177D02*
D03*
Y194059D02*
D03*
Y196618D02*
D03*
X137995Y171000D02*
D03*
X125005Y199177D02*
D03*
X125000Y176118D02*
D03*
X137995Y173559D02*
D03*
X125000D02*
D03*
Y171000D02*
D03*
Y168441D02*
D03*
X125005Y191500D02*
D03*
Y196618D02*
D03*
Y194059D02*
D03*
D40*
X160736Y163740D02*
D03*
X150500D02*
D03*
X160736Y160000D02*
D03*
Y167480D02*
D03*
X150500D02*
D03*
Y160000D02*
D03*
D41*
X237500Y172100D02*
D03*
X235531D02*
D03*
X239469D02*
D03*
X235531Y164900D02*
D03*
X239469D02*
D03*
X237500D02*
D03*
D42*
X242050Y165547D02*
D03*
X232950Y171453D02*
D03*
Y165547D02*
D03*
Y167516D02*
D03*
Y169484D02*
D03*
X242050Y171453D02*
D03*
Y169484D02*
D03*
Y167516D02*
D03*
D45*
X417999Y131566D02*
D03*
Y135520D02*
D03*
D46*
X417651Y169020D02*
D03*
X411347D02*
D03*
D47*
X402748Y112500D02*
D03*
X412000D02*
D03*
D49*
X130468Y226000D02*
D03*
X116295D02*
D03*
X24913Y225953D02*
D03*
X39087D02*
D03*
X70445Y225941D02*
D03*
X47413Y225953D02*
D03*
X61587D02*
D03*
X84618Y225941D02*
D03*
X93445D02*
D03*
X107618D02*
D03*
X163882Y225953D02*
D03*
X139795Y226000D02*
D03*
X153969D02*
D03*
X202055Y225953D02*
D03*
X178055D02*
D03*
X187882D02*
D03*
D50*
X381000Y11282D02*
D03*
X380968Y59782D02*
D03*
X99133Y59345D02*
D03*
X99500Y10751D02*
D03*
Y21186D02*
D03*
X99133Y69780D02*
D03*
X381000Y21718D02*
D03*
X380968Y70218D02*
D03*
D52*
X30142Y161000D02*
D03*
X53142Y161031D02*
D03*
X75772Y161319D02*
D03*
X97870Y160988D02*
D03*
X127642Y161000D02*
D03*
X134500D02*
D03*
X127642Y184000D02*
D03*
X134500D02*
D03*
X158142Y176000D02*
D03*
X244142Y179000D02*
D03*
X215284Y53500D02*
D03*
X141783Y161000D02*
D03*
Y184000D02*
D03*
X150858Y176000D02*
D03*
X236858Y179000D02*
D03*
X222568Y53500D02*
D03*
X120358Y184000D02*
D03*
Y161000D02*
D03*
X90586Y160988D02*
D03*
X68489Y161319D02*
D03*
X45858Y161031D02*
D03*
X22858Y161000D02*
D03*
D54*
X75563Y216000D02*
D03*
X30031Y216012D02*
D03*
X52531D02*
D03*
X98563Y216000D02*
D03*
X144913Y216059D02*
D03*
X148850D02*
D03*
X172937Y216012D02*
D03*
X196937D02*
D03*
X125350Y216059D02*
D03*
X121413D02*
D03*
X193000Y216012D02*
D03*
X169000D02*
D03*
X79500Y216000D02*
D03*
X102500D02*
D03*
X33968Y216012D02*
D03*
X56468D02*
D03*
D57*
X471718Y119000D02*
D03*
Y133000D02*
D03*
X435717Y224000D02*
D03*
Y211500D02*
D03*
Y199000D02*
D03*
X461282Y119000D02*
D03*
Y133000D02*
D03*
X425282Y199000D02*
D03*
Y211500D02*
D03*
Y224000D02*
D03*
D58*
X430323Y184559D02*
D03*
X438000D02*
D03*
X419661Y179441D02*
D03*
Y184559D02*
D03*
Y182000D02*
D03*
X427339D02*
D03*
Y184559D02*
D03*
Y179441D02*
D03*
X438000Y182000D02*
D03*
Y179441D02*
D03*
X430323D02*
D03*
Y182000D02*
D03*
D59*
X265841Y80500D02*
D03*
X260011D02*
D03*
D62*
X415758Y155703D02*
D03*
X409853D02*
D03*
X411821Y144675D02*
D03*
X415758D02*
D03*
X411821Y155703D02*
D03*
X413790D02*
D03*
Y144675D02*
D03*
D63*
X407292Y147236D02*
D03*
X418320Y151173D02*
D03*
X407292Y153142D02*
D03*
X418320Y147236D02*
D03*
Y149205D02*
D03*
X407292D02*
D03*
Y151173D02*
D03*
X418320Y153142D02*
D03*
D65*
X264895Y85000D02*
D03*
X260958D02*
D03*
D67*
X218859Y69000D02*
D03*
X222993D02*
D03*
D68*
X196500Y79146D02*
D03*
Y59854D02*
D03*
D69*
X209926Y74291D02*
D03*
Y60709D02*
D03*
D70*
X333500Y159626D02*
D03*
Y150374D02*
D03*
D71*
X282926Y64500D02*
D03*
D72*
X279314Y80177D02*
D03*
X286558D02*
D03*
D73*
X138000Y191500D02*
D03*
X137995Y168441D02*
D03*
D74*
X346513Y152000D02*
D03*
X354000D02*
D03*
D75*
X249727Y67471D02*
D03*
X231223Y62746D02*
D03*
Y64321D02*
D03*
Y65896D02*
D03*
Y67471D02*
D03*
Y69045D02*
D03*
Y70620D02*
D03*
Y72195D02*
D03*
X249727D02*
D03*
Y70620D02*
D03*
Y69045D02*
D03*
Y65896D02*
D03*
Y64321D02*
D03*
Y62746D02*
D03*
D76*
X459499Y145272D02*
D03*
X443499D02*
D03*
X459499Y151768D02*
D03*
X443499D02*
D03*
D78*
X219654Y72500D02*
D03*
X223198D02*
D03*
D80*
X220843Y59500D02*
D03*
X224009D02*
D03*
X382583Y148500D02*
D03*
X379417D02*
D03*
D81*
X223907Y62500D02*
D03*
X220945D02*
D03*
X223907Y65500D02*
D03*
X220945D02*
D03*
D82*
X409853Y144626D02*
D03*
D87*
X409921Y121375D02*
D03*
X413481D02*
D03*
D88*
X38500Y199500D02*
D03*
Y205808D02*
D03*
X105133Y199346D02*
D03*
Y205654D02*
D03*
X61000D02*
D03*
Y199346D02*
D03*
X83000Y205654D02*
D03*
Y199346D02*
D03*
D90*
X211984Y225976D02*
G03*
X211984Y225976I-984J0D01*
G01*
Y229520D02*
G03*
X211984Y229520I-984J0D01*
G01*
X240331Y225976D02*
G03*
X240331Y225976I-984J0D01*
G01*
Y229520D02*
G03*
X240331Y229520I-984J0D01*
G01*
D91*
X363925Y116000D02*
D03*
X367075D02*
D03*
D92*
X372630D02*
D03*
X376370D02*
D03*
D93*
X424499Y134642D02*
D03*
Y131099D02*
D03*
X226926Y52228D02*
D03*
Y55772D02*
D03*
D94*
X267471Y210851D02*
D03*
Y155733D02*
D03*
X322589Y210851D02*
D03*
Y155733D02*
D03*
D95*
X267471Y206718D02*
D03*
Y203371D02*
D03*
Y200025D02*
D03*
Y196678D02*
D03*
Y193332D02*
D03*
Y189985D02*
D03*
Y186639D02*
D03*
Y183292D02*
D03*
Y179946D02*
D03*
Y176600D02*
D03*
Y173253D02*
D03*
Y169906D02*
D03*
Y166560D02*
D03*
Y163214D02*
D03*
Y159867D02*
D03*
X322589D02*
D03*
Y163214D02*
D03*
Y166560D02*
D03*
Y169906D02*
D03*
Y173253D02*
D03*
Y176600D02*
D03*
Y179946D02*
D03*
Y183292D02*
D03*
Y186639D02*
D03*
Y189985D02*
D03*
Y193332D02*
D03*
Y196678D02*
D03*
Y200025D02*
D03*
Y203371D02*
D03*
Y206718D02*
D03*
D96*
X271605Y155733D02*
D03*
X274951D02*
D03*
X278297D02*
D03*
X281644D02*
D03*
X284990D02*
D03*
X288337D02*
D03*
X291683D02*
D03*
X295030D02*
D03*
X298376D02*
D03*
X301723D02*
D03*
X305069D02*
D03*
X308416D02*
D03*
X311762D02*
D03*
X315109D02*
D03*
X318455D02*
D03*
Y210851D02*
D03*
X315109D02*
D03*
X311762D02*
D03*
X308416D02*
D03*
X305069D02*
D03*
X301723D02*
D03*
X298376D02*
D03*
X295030D02*
D03*
X291683D02*
D03*
X288337D02*
D03*
X284990D02*
D03*
X281644D02*
D03*
X278297D02*
D03*
X274951D02*
D03*
X271605D02*
D03*
D97*
X295030Y183292D02*
D03*
Y189788D02*
D03*
X301526D02*
D03*
Y183292D02*
D03*
Y176796D02*
D03*
X295030D02*
D03*
X288534D02*
D03*
Y183292D02*
D03*
D98*
X203150Y188964D02*
D03*
X343500Y180315D02*
D03*
X203150Y199594D02*
D03*
X343500Y169685D02*
D03*
D99*
X220055Y217118D02*
D03*
X225173D02*
D03*
X227732D02*
D03*
X222614D02*
D03*
X230291D02*
D03*
D100*
X425999Y158221D02*
D03*
Y154819D02*
D03*
D101*
X31213Y175559D02*
D03*
X54382Y175531D02*
D03*
X76941Y175740D02*
D03*
X98941D02*
D03*
Y168260D02*
D03*
X76941D02*
D03*
X54382Y168051D02*
D03*
X31213Y168079D02*
D03*
Y171819D02*
D03*
X21331Y175559D02*
D03*
Y168079D02*
D03*
X89059Y168260D02*
D03*
X67059D02*
D03*
X44500Y168051D02*
D03*
Y175531D02*
D03*
X89059Y175740D02*
D03*
X67059D02*
D03*
X54382Y171791D02*
D03*
X76941Y172000D02*
D03*
X98941D02*
D03*
D102*
X392000Y12457D02*
D03*
Y60957D02*
D03*
X88133Y61019D02*
D03*
X88500Y12425D02*
D03*
Y19512D02*
D03*
X88133Y68105D02*
D03*
X392000Y19543D02*
D03*
Y68043D02*
D03*
D103*
X31500Y189500D02*
D03*
X53740D02*
D03*
X76000Y190000D02*
D03*
X98000Y190118D02*
D03*
X90520Y200000D02*
D03*
X68520Y199882D02*
D03*
X46260Y199382D02*
D03*
X24020D02*
D03*
X98000Y200000D02*
D03*
X90520Y190118D02*
D03*
X94260D02*
D03*
X72260Y190000D02*
D03*
X50000Y189500D02*
D03*
X27760D02*
D03*
X68520Y190000D02*
D03*
X46260Y189500D02*
D03*
X24020D02*
D03*
X31500Y199382D02*
D03*
X53740D02*
D03*
X76000Y199882D02*
D03*
D104*
X227780Y206248D02*
D03*
X238457Y189500D02*
D03*
X220693Y206248D02*
D03*
X245543Y189500D02*
D03*
D105*
X407921Y137375D02*
D03*
X405708D02*
D03*
D106*
X433787Y184559D02*
D03*
X423874Y179441D02*
D03*
D107*
X269426Y75032D02*
D03*
Y68968D02*
D03*
X424499Y150051D02*
D03*
Y143989D02*
D03*
D108*
X270926Y57646D02*
D03*
Y63354D02*
D03*
D109*
X412806Y150189D02*
D03*
D110*
X231740Y74188D02*
D03*
X249210D02*
D03*
D111*
X264957Y63000D02*
D03*
X258894D02*
D03*
D112*
X433216Y145256D02*
D03*
X429672D02*
D03*
X433225Y148929D02*
D03*
X429682D02*
D03*
D113*
X246706Y71900D02*
D03*
X243143D02*
D03*
X239580D02*
D03*
X236017D02*
D03*
X244934Y63041D02*
D03*
X237808D02*
D03*
X241371D02*
D03*
X234245D02*
D03*
D114*
X231740Y60704D02*
D03*
X249210D02*
D03*
D115*
X411968Y162020D02*
D03*
X408031D02*
D03*
D116*
X452999Y161567D02*
D03*
Y177473D02*
D03*
D117*
X221236Y227748D02*
D03*
X229110D02*
D03*
D118*
X402500Y161000D02*
D03*
Y167693D02*
D03*
D119*
X423500Y183280D02*
D03*
X434161Y180720D02*
D03*
D120*
X117000Y170000D02*
D03*
Y175000D02*
D03*
Y193500D02*
D03*
Y198500D02*
D03*
D121*
X450744Y64575D02*
D03*
X416492D02*
D03*
X64500Y64500D02*
D03*
X30248D02*
D03*
X416492Y84575D02*
D03*
X450744D02*
D03*
X64500Y84500D02*
D03*
X30248D02*
D03*
D122*
X446815Y13000D02*
D03*
X466500D02*
D03*
X34000Y12500D02*
D03*
X14315D02*
D03*
X446815Y26779D02*
D03*
X466500D02*
D03*
X34000Y26280D02*
D03*
X14315D02*
D03*
D123*
X395500Y201500D02*
D03*
D124*
X375815Y189689D02*
D03*
D125*
X217926Y22500D02*
D03*
X261426D02*
D03*
D126*
X318972Y39693D02*
D03*
X319000Y86386D02*
D03*
X160169Y26345D02*
D03*
X160197Y72652D02*
D03*
D127*
X318972Y26307D02*
D03*
X319000Y73000D02*
D03*
X160169Y39731D02*
D03*
X160197Y86038D02*
D03*
X121114Y26345D02*
D03*
Y39731D02*
D03*
X121142Y72652D02*
D03*
Y86038D02*
D03*
X358028Y39693D02*
D03*
Y26307D02*
D03*
X358055Y73000D02*
D03*
Y86386D02*
D03*
D128*
X395500Y177091D02*
D03*
D129*
X235016Y217118D02*
D03*
X215331D02*
D03*
D130*
X354835Y126588D02*
D03*
X264835Y141088D02*
D03*
X242000Y146177D02*
D03*
X263500Y150457D02*
D03*
X247728Y146176D02*
D03*
X359000Y116000D02*
D03*
X218000Y62500D02*
D03*
X431500Y153500D02*
D03*
Y158000D02*
D03*
Y162000D02*
D03*
X426000Y164500D02*
D03*
X417000Y192500D02*
D03*
X451000Y185000D02*
D03*
X431500Y140000D02*
D03*
Y135000D02*
D03*
X374264Y148500D02*
D03*
X402435Y164437D02*
D03*
X416500Y177000D02*
D03*
X419499Y121870D02*
D03*
Y113870D02*
D03*
X418500Y163500D02*
D03*
Y158000D02*
D03*
X131000Y156000D02*
D03*
X113000Y161000D02*
D03*
X101000Y179500D02*
D03*
X95000Y184500D02*
D03*
X82500Y161000D02*
D03*
X76500Y184500D02*
D03*
X61000Y178000D02*
D03*
X60500Y161500D02*
D03*
X37500D02*
D03*
X43500Y214500D02*
D03*
X65764Y214350D02*
D03*
X88764D02*
D03*
X111614Y214409D02*
D03*
X134114D02*
D03*
X158463Y214899D02*
D03*
X182463D02*
D03*
X249131Y176620D02*
D03*
X243400Y163800D02*
D03*
X232092Y176574D02*
D03*
X210000Y175500D02*
D03*
X255500Y223500D02*
D03*
X240000Y208500D02*
D03*
X336598Y216079D02*
D03*
Y222580D02*
D03*
X215500Y58500D02*
D03*
X271426Y83000D02*
D03*
X267926Y53500D02*
D03*
X210761Y67625D02*
D03*
X215426Y79500D02*
D03*
X209926D02*
D03*
X7504Y3036D02*
D03*
Y8941D02*
D03*
X13410Y3036D02*
D03*
X19315D02*
D03*
Y8941D02*
D03*
X25221Y3036D02*
D03*
Y8941D02*
D03*
X31126Y3036D02*
D03*
X37032D02*
D03*
X42937D02*
D03*
Y8941D02*
D03*
X48843Y3036D02*
D03*
Y8941D02*
D03*
X54748Y3036D02*
D03*
Y8941D02*
D03*
X60654Y3036D02*
D03*
Y8941D02*
D03*
X66559Y3036D02*
D03*
Y8941D02*
D03*
X72465Y3036D02*
D03*
Y8941D02*
D03*
X78370Y3036D02*
D03*
Y8941D02*
D03*
X84276Y3036D02*
D03*
X90181D02*
D03*
X96087D02*
D03*
X101992D02*
D03*
X107898D02*
D03*
Y8941D02*
D03*
X113804Y3036D02*
D03*
Y8941D02*
D03*
X119709Y3036D02*
D03*
Y8941D02*
D03*
X125615Y3036D02*
D03*
Y8941D02*
D03*
X7504Y56185D02*
D03*
Y62091D02*
D03*
X13410Y56185D02*
D03*
Y62091D02*
D03*
X19315Y56185D02*
D03*
Y62091D02*
D03*
X25221Y56185D02*
D03*
X31126D02*
D03*
X37032D02*
D03*
Y62091D02*
D03*
X42937Y56185D02*
D03*
Y62091D02*
D03*
X48843Y56185D02*
D03*
Y62091D02*
D03*
X54748Y56185D02*
D03*
Y62091D02*
D03*
X60654Y56185D02*
D03*
X66559D02*
D03*
X72465D02*
D03*
Y62091D02*
D03*
X78370Y56185D02*
D03*
X84276D02*
D03*
X90181D02*
D03*
X107898D02*
D03*
Y62091D02*
D03*
X113804Y56185D02*
D03*
Y62091D02*
D03*
X119709Y56185D02*
D03*
Y62091D02*
D03*
X125615Y56185D02*
D03*
Y62091D02*
D03*
X355929Y56185D02*
D03*
Y62091D02*
D03*
X361835Y56185D02*
D03*
Y62091D02*
D03*
X367740Y56185D02*
D03*
Y62091D02*
D03*
X373646Y56185D02*
D03*
Y62091D02*
D03*
X391362Y56185D02*
D03*
X397268D02*
D03*
X403173D02*
D03*
X409079D02*
D03*
Y62091D02*
D03*
X414985Y56185D02*
D03*
X420890D02*
D03*
X426795D02*
D03*
Y62091D02*
D03*
X432701Y56185D02*
D03*
Y62091D02*
D03*
X438607Y56185D02*
D03*
Y62091D02*
D03*
X444512Y56185D02*
D03*
Y62091D02*
D03*
X450418Y56185D02*
D03*
X456323D02*
D03*
Y62091D02*
D03*
X462229Y56185D02*
D03*
Y62091D02*
D03*
X468134Y56185D02*
D03*
Y62091D02*
D03*
X474040Y56185D02*
D03*
Y62091D02*
D03*
X355929Y3036D02*
D03*
Y8941D02*
D03*
X361835Y3036D02*
D03*
Y8941D02*
D03*
X367740Y3036D02*
D03*
Y8941D02*
D03*
X373646Y3036D02*
D03*
Y8941D02*
D03*
X379551Y3036D02*
D03*
X385457D02*
D03*
X391362D02*
D03*
X397268D02*
D03*
Y8941D02*
D03*
X403173Y3036D02*
D03*
Y8941D02*
D03*
X409079Y3036D02*
D03*
Y8941D02*
D03*
X414985Y3036D02*
D03*
Y8941D02*
D03*
X420890Y3036D02*
D03*
Y8941D02*
D03*
X426795Y3036D02*
D03*
Y8941D02*
D03*
X432701Y3036D02*
D03*
Y8941D02*
D03*
X438607Y3036D02*
D03*
Y8941D02*
D03*
X444512Y3036D02*
D03*
X450418D02*
D03*
Y8941D02*
D03*
X456323Y3036D02*
D03*
Y8941D02*
D03*
X462229Y3036D02*
D03*
Y8941D02*
D03*
X468134Y3036D02*
D03*
X474040D02*
D03*
Y8941D02*
D03*
X340500Y192500D02*
D03*
X243000Y215000D02*
D03*
X333500Y186000D02*
D03*
X297500Y148000D02*
D03*
X324352Y146728D02*
D03*
X356109Y139728D02*
D03*
X261417Y176772D02*
D03*
X175197Y183858D02*
D03*
X299852Y162772D02*
D03*
X223000Y212000D02*
D03*
X227500D02*
D03*
X295740Y160760D02*
D03*
X274332Y160668D02*
D03*
X143500Y192500D02*
D03*
X165354Y183858D02*
D03*
X255512Y176772D02*
D03*
X274000Y166000D02*
D03*
X143500Y197500D02*
D03*
X261417Y183465D02*
D03*
X194882Y183858D02*
D03*
X258728Y199852D02*
D03*
X282912Y160450D02*
D03*
X143500Y170000D02*
D03*
X185039Y183858D02*
D03*
X255512Y183465D02*
D03*
X261356Y195856D02*
D03*
X254529Y66291D02*
D03*
X255500Y214000D02*
D03*
X273500Y197000D02*
D03*
X125000Y202500D02*
D03*
X122137Y178480D02*
D03*
X287828Y160283D02*
D03*
X155500Y160000D02*
D03*
X278500Y160500D02*
D03*
X143500Y174500D02*
D03*
X296000Y128260D02*
D03*
Y121173D02*
D03*
Y114087D02*
D03*
Y107000D02*
D03*
Y99913D02*
D03*
X288913Y128260D02*
D03*
Y121173D02*
D03*
Y114087D02*
D03*
Y107000D02*
D03*
Y99913D02*
D03*
X338606Y128233D02*
D03*
Y121146D02*
D03*
Y114059D02*
D03*
Y106973D02*
D03*
Y99886D02*
D03*
Y92800D02*
D03*
Y85713D02*
D03*
Y78626D02*
D03*
Y71540D02*
D03*
X331520Y128233D02*
D03*
Y121146D02*
D03*
Y114059D02*
D03*
Y106973D02*
D03*
Y99886D02*
D03*
Y92800D02*
D03*
Y85713D02*
D03*
Y78626D02*
D03*
Y71540D02*
D03*
X324433Y128233D02*
D03*
Y121146D02*
D03*
Y114059D02*
D03*
Y106973D02*
D03*
Y99886D02*
D03*
Y92800D02*
D03*
Y78626D02*
D03*
X317347Y128233D02*
D03*
Y121146D02*
D03*
Y114059D02*
D03*
Y106973D02*
D03*
Y99886D02*
D03*
X310260Y128233D02*
D03*
Y121146D02*
D03*
Y114059D02*
D03*
Y106973D02*
D03*
Y99886D02*
D03*
Y92800D02*
D03*
Y85713D02*
D03*
Y78626D02*
D03*
Y71540D02*
D03*
X303173Y128233D02*
D03*
Y121146D02*
D03*
Y114059D02*
D03*
Y106973D02*
D03*
Y99886D02*
D03*
Y92800D02*
D03*
Y85713D02*
D03*
Y78626D02*
D03*
Y71540D02*
D03*
X177583Y128233D02*
D03*
Y121146D02*
D03*
Y114059D02*
D03*
Y106973D02*
D03*
Y99886D02*
D03*
Y92800D02*
D03*
Y85713D02*
D03*
Y78626D02*
D03*
Y71540D02*
D03*
X170496Y128233D02*
D03*
Y121146D02*
D03*
Y114059D02*
D03*
Y106973D02*
D03*
Y99886D02*
D03*
Y92800D02*
D03*
Y85713D02*
D03*
Y78626D02*
D03*
Y71540D02*
D03*
X163410Y128233D02*
D03*
Y121146D02*
D03*
Y114059D02*
D03*
Y106973D02*
D03*
Y99886D02*
D03*
Y92800D02*
D03*
X156323Y128233D02*
D03*
Y121146D02*
D03*
Y114059D02*
D03*
Y106973D02*
D03*
Y99886D02*
D03*
Y92800D02*
D03*
X149237Y128233D02*
D03*
Y121146D02*
D03*
Y114059D02*
D03*
Y106973D02*
D03*
Y99886D02*
D03*
Y92800D02*
D03*
Y85713D02*
D03*
Y78626D02*
D03*
Y71540D02*
D03*
X142150Y128233D02*
D03*
Y121146D02*
D03*
Y114059D02*
D03*
Y106973D02*
D03*
Y99886D02*
D03*
Y92800D02*
D03*
Y85713D02*
D03*
Y78626D02*
D03*
Y71540D02*
D03*
X191756Y128233D02*
D03*
Y121146D02*
D03*
Y114059D02*
D03*
Y106973D02*
D03*
Y99886D02*
D03*
X184669Y128233D02*
D03*
Y121146D02*
D03*
Y114059D02*
D03*
Y106973D02*
D03*
Y99886D02*
D03*
X374262Y145000D02*
D03*
X263926Y74000D02*
D03*
X401696Y153112D02*
D03*
X428000Y122500D02*
D03*
X235000Y208500D02*
D03*
X214000D02*
D03*
X112415Y193554D02*
D03*
X104000Y158500D02*
D03*
X105500Y177500D02*
D03*
X108000Y171500D02*
D03*
X93500Y175000D02*
D03*
X112500Y199000D02*
D03*
X60500Y174000D02*
D03*
X83000D02*
D03*
X49500Y181500D02*
D03*
X49000Y172000D02*
D03*
X105000Y166500D02*
D03*
X37500Y174000D02*
D03*
X34000Y221500D02*
D03*
X56500Y221642D02*
D03*
X79500Y221142D02*
D03*
X102500Y221642D02*
D03*
X146500Y160000D02*
D03*
X24000Y184000D02*
D03*
D131*
X283714Y195118D02*
D03*
X281214Y189618D02*
D03*
Y183618D02*
D03*
X305000Y171000D02*
D03*
X299500D02*
D03*
X294000D02*
D03*
X43500Y185500D02*
D03*
X433500Y190500D02*
D03*
X441921Y193875D02*
D03*
X441999Y206520D02*
D03*
Y197520D02*
D03*
Y203520D02*
D03*
Y200520D02*
D03*
Y221520D02*
D03*
Y227520D02*
D03*
Y224520D02*
D03*
Y212520D02*
D03*
Y209520D02*
D03*
Y218520D02*
D03*
Y215520D02*
D03*
X295000Y197000D02*
D03*
X301500Y196500D02*
D03*
X308000Y189500D02*
D03*
X289000Y197000D02*
D03*
X308000Y176500D02*
D03*
Y183000D02*
D03*
X476922Y132355D02*
D03*
Y120855D02*
D03*
Y124355D02*
D03*
Y139355D02*
D03*
Y135855D02*
D03*
Y128855D02*
D03*
X477000Y114000D02*
D03*
X476922Y117355D02*
D03*
X439078Y121645D02*
D03*
Y124645D02*
D03*
Y114645D02*
D03*
Y118145D02*
D03*
X455500Y114500D02*
D03*
Y118000D02*
D03*
Y124500D02*
D03*
Y129000D02*
D03*
Y121500D02*
D03*
X439078Y132145D02*
D03*
Y135145D02*
D03*
Y138145D02*
D03*
Y129145D02*
D03*
X455500Y135000D02*
D03*
Y132000D02*
D03*
Y138000D02*
D03*
D132*
X412806Y150189D02*
D03*
X249282Y85502D02*
D03*
X242140D02*
D03*
X245782D02*
D03*
X242107Y82303D02*
D03*
X245749D02*
D03*
X245849Y78939D02*
D03*
X238601Y85579D02*
D03*
X234893Y85539D02*
D03*
X238568Y82380D02*
D03*
X234879Y82399D02*
D03*
X238630Y78954D02*
D03*
X231282Y85502D02*
D03*
X234971Y79015D02*
D03*
X242206Y78939D02*
D03*
X231249Y82303D02*
D03*
X249249D02*
D03*
X234241Y70823D02*
D03*
Y74827D02*
D03*
X237859Y74787D02*
D03*
X237818Y70722D02*
D03*
X244871Y70762D02*
D03*
X241436Y70681D02*
D03*
X241281Y74837D02*
D03*
X244988Y74754D02*
D03*
X231525Y52636D02*
D03*
X249525D02*
D03*
X246753Y63940D02*
D03*
X243046Y64024D02*
D03*
X243201Y59868D02*
D03*
X246637Y59949D02*
D03*
X238568Y56000D02*
D03*
X239583Y59908D02*
D03*
X239624Y63973D02*
D03*
X245803Y55924D02*
D03*
X249492Y49437D02*
D03*
X242144Y55985D02*
D03*
X245896Y52540D02*
D03*
X242207Y52559D02*
D03*
X245882Y49400D02*
D03*
X242174Y49360D02*
D03*
X236006Y64014D02*
D03*
Y60010D02*
D03*
X234926Y56000D02*
D03*
X235025Y52636D02*
D03*
X238667D02*
D03*
X234992Y49437D02*
D03*
X238634D02*
D03*
X231492D02*
D03*
X226426Y69500D02*
D03*
D133*
X12705Y219882D02*
D03*
X469205Y220382D02*
D03*
M02*
