G04*
G04 #@! TF.GenerationSoftware,Altium Limited,Altium Designer,25.8.1 (18)*
G04*
G04 Layer_Physical_Order=2*
G04 Layer_Color=32768*
%FSLAX25Y25*%
%MOIN*%
G70*
G04*
G04 #@! TF.SameCoordinates,E010760D-FB29-432B-967E-C6BB433EED36*
G04*
G04*
G04 #@! TF.FilePolarity,Negative*
G04*
G01*
G75*
%ADD146C,0.04000*%
%ADD147C,0.10299*%
%ADD148C,0.08331*%
%ADD149C,0.09512*%
%ADD150C,0.26441*%
%ADD151O,0.17779X0.07937*%
%ADD152O,0.06362X0.09118*%
%ADD153C,0.07347*%
%ADD154C,0.05500*%
%ADD155C,0.05181*%
%ADD156C,0.05378*%
%ADD157C,0.16000*%
G36*
X325315Y214000D02*
X264685D01*
Y236000D01*
X325315D01*
Y214000D01*
D02*
G37*
D146*
X2916Y233882D02*
G03*
X-1295Y229650I21J-4232D01*
G01*
X482205Y228382D02*
G03*
X476655Y233910I-5298J230D01*
G01*
X-1118Y2698D02*
G03*
X2698Y-1118I3816J0D01*
G01*
X478703Y-1119D02*
G03*
X482205Y2383I0J3502D01*
G01*
X2916Y233882D02*
X264685Y233882D01*
Y214000D02*
Y233882D01*
Y214000D02*
X325315D01*
Y233882D01*
X476655Y233882D01*
X476655Y233910D02*
X476655Y233882D01*
X482205Y2383D02*
X482205Y228382D01*
X-1295Y229650D02*
X-1118Y2698D01*
X2698Y-1118D02*
X2705Y-1118D01*
X478703Y-1119D01*
D147*
X318972Y39693D02*
D03*
Y26307D02*
D03*
X319000Y86386D02*
D03*
Y73000D02*
D03*
X160169Y39731D02*
D03*
Y26345D02*
D03*
X160197Y86038D02*
D03*
Y72652D02*
D03*
X121114Y26345D02*
D03*
Y39731D02*
D03*
X121142Y72652D02*
D03*
Y86038D02*
D03*
X358028Y39693D02*
D03*
Y26307D02*
D03*
X358055Y73000D02*
D03*
Y86386D02*
D03*
D148*
X446815Y26779D02*
D03*
X466500D02*
D03*
X34000Y26280D02*
D03*
X14315D02*
D03*
D149*
X416492Y84575D02*
D03*
X450744D02*
D03*
X64500Y84500D02*
D03*
X30248D02*
D03*
D150*
X261426Y22500D02*
D03*
D151*
X395500Y177091D02*
D03*
D152*
X238953Y227748D02*
D03*
X211394D02*
D03*
D153*
X235016Y217118D02*
D03*
X215331D02*
D03*
D154*
X354835Y126588D02*
D03*
X264835Y141088D02*
D03*
X242000Y146177D02*
D03*
X263500Y150457D02*
D03*
X247728Y146176D02*
D03*
X218000Y62500D02*
D03*
X340500Y192500D02*
D03*
X243000Y215000D02*
D03*
X333500Y186000D02*
D03*
X297500Y148000D02*
D03*
X324352Y146728D02*
D03*
X356109Y139728D02*
D03*
X261417Y176772D02*
D03*
X175197Y183858D02*
D03*
X299852Y162772D02*
D03*
X223000Y212000D02*
D03*
X227500D02*
D03*
X295740Y160760D02*
D03*
X274332Y160668D02*
D03*
X143500Y192500D02*
D03*
X165354Y183858D02*
D03*
X255512Y176772D02*
D03*
X274000Y166000D02*
D03*
X143500Y197500D02*
D03*
X261417Y183465D02*
D03*
X194882Y183858D02*
D03*
X258728Y199852D02*
D03*
X282912Y160450D02*
D03*
X143500Y170000D02*
D03*
X185039Y183858D02*
D03*
X255512Y183465D02*
D03*
X261356Y195856D02*
D03*
X254529Y66291D02*
D03*
X255500Y214000D02*
D03*
X273500Y197000D02*
D03*
X125000Y202500D02*
D03*
X122137Y178480D02*
D03*
X287828Y160283D02*
D03*
X155500Y160000D02*
D03*
X278500Y160500D02*
D03*
X143500Y174500D02*
D03*
X439078Y121645D02*
D03*
Y124645D02*
D03*
Y114645D02*
D03*
Y118145D02*
D03*
X455500Y114500D02*
D03*
Y118000D02*
D03*
Y124500D02*
D03*
Y129000D02*
D03*
Y121500D02*
D03*
X439078Y132145D02*
D03*
Y135145D02*
D03*
Y138145D02*
D03*
Y129145D02*
D03*
X455500Y135000D02*
D03*
Y132000D02*
D03*
Y138000D02*
D03*
X374262Y145000D02*
D03*
X263926Y74000D02*
D03*
X235000Y208500D02*
D03*
X214000D02*
D03*
X112415Y193554D02*
D03*
X104000Y158500D02*
D03*
X105500Y177500D02*
D03*
X108000Y171500D02*
D03*
X93500Y175000D02*
D03*
X112500Y199000D02*
D03*
X60500Y174000D02*
D03*
X83000D02*
D03*
X49500Y181500D02*
D03*
X49000Y172000D02*
D03*
X105000Y166500D02*
D03*
X37500Y174000D02*
D03*
X34000Y221500D02*
D03*
X56500Y221642D02*
D03*
X79500Y221142D02*
D03*
X102500Y221642D02*
D03*
X146500Y160000D02*
D03*
X24000Y184000D02*
D03*
D155*
X359000Y116000D02*
D03*
X431500Y153500D02*
D03*
Y158000D02*
D03*
X426000Y164500D02*
D03*
X417000Y192500D02*
D03*
X451000Y185000D02*
D03*
X431500Y140000D02*
D03*
Y135000D02*
D03*
X374264Y148500D02*
D03*
X402435Y164437D02*
D03*
X416500Y177000D02*
D03*
X249282Y85502D02*
D03*
X242140D02*
D03*
X245782D02*
D03*
X242107Y82303D02*
D03*
X245749D02*
D03*
X245849Y78939D02*
D03*
X238601Y85579D02*
D03*
X234893Y85539D02*
D03*
X238568Y82380D02*
D03*
X234879Y82399D02*
D03*
X238630Y78954D02*
D03*
X231282Y85502D02*
D03*
X234971Y79015D02*
D03*
X242206Y78939D02*
D03*
X231249Y82303D02*
D03*
X249249D02*
D03*
X234241Y70823D02*
D03*
Y74827D02*
D03*
X237859Y74787D02*
D03*
X237818Y70722D02*
D03*
X244871Y70762D02*
D03*
X241436Y70681D02*
D03*
X241281Y74837D02*
D03*
X244988Y74754D02*
D03*
X231525Y52636D02*
D03*
X249525D02*
D03*
X246753Y63940D02*
D03*
X243046Y64024D02*
D03*
X243201Y59868D02*
D03*
X246637Y59949D02*
D03*
X238568Y56000D02*
D03*
X239583Y59908D02*
D03*
X239624Y63973D02*
D03*
X245803Y55924D02*
D03*
X249492Y49437D02*
D03*
X242144Y55985D02*
D03*
X245896Y52540D02*
D03*
X242207Y52559D02*
D03*
X245882Y49400D02*
D03*
X242174Y49360D02*
D03*
X236006Y64014D02*
D03*
Y60010D02*
D03*
X234926Y56000D02*
D03*
X235025Y52636D02*
D03*
X238667D02*
D03*
X234992Y49437D02*
D03*
X238634D02*
D03*
X231492D02*
D03*
X226426Y69500D02*
D03*
X401696Y153112D02*
D03*
X428000Y122500D02*
D03*
D156*
X296000Y128260D02*
D03*
Y121173D02*
D03*
Y114087D02*
D03*
Y107000D02*
D03*
Y99913D02*
D03*
X288913Y128260D02*
D03*
Y121173D02*
D03*
Y114087D02*
D03*
Y107000D02*
D03*
Y99913D02*
D03*
X338606Y128233D02*
D03*
Y121146D02*
D03*
Y114059D02*
D03*
Y106973D02*
D03*
Y99886D02*
D03*
Y92800D02*
D03*
Y85713D02*
D03*
Y78626D02*
D03*
Y71540D02*
D03*
X331520Y128233D02*
D03*
Y121146D02*
D03*
Y114059D02*
D03*
Y106973D02*
D03*
Y99886D02*
D03*
Y92800D02*
D03*
Y85713D02*
D03*
Y78626D02*
D03*
Y71540D02*
D03*
X324433Y128233D02*
D03*
Y121146D02*
D03*
Y114059D02*
D03*
Y106973D02*
D03*
Y99886D02*
D03*
Y92800D02*
D03*
Y78626D02*
D03*
X317347Y128233D02*
D03*
Y121146D02*
D03*
Y114059D02*
D03*
Y106973D02*
D03*
Y99886D02*
D03*
X310260Y128233D02*
D03*
Y121146D02*
D03*
Y114059D02*
D03*
Y106973D02*
D03*
Y99886D02*
D03*
Y92800D02*
D03*
Y85713D02*
D03*
Y78626D02*
D03*
Y71540D02*
D03*
X303173Y128233D02*
D03*
Y121146D02*
D03*
Y114059D02*
D03*
Y106973D02*
D03*
Y99886D02*
D03*
Y92800D02*
D03*
Y85713D02*
D03*
Y78626D02*
D03*
Y71540D02*
D03*
X177583Y128233D02*
D03*
Y121146D02*
D03*
Y114059D02*
D03*
Y106973D02*
D03*
Y99886D02*
D03*
Y92800D02*
D03*
Y85713D02*
D03*
Y78626D02*
D03*
Y71540D02*
D03*
X170496Y128233D02*
D03*
Y121146D02*
D03*
Y114059D02*
D03*
Y106973D02*
D03*
Y99886D02*
D03*
Y92800D02*
D03*
Y85713D02*
D03*
Y78626D02*
D03*
Y71540D02*
D03*
X163410Y128233D02*
D03*
Y121146D02*
D03*
Y114059D02*
D03*
Y106973D02*
D03*
Y99886D02*
D03*
Y92800D02*
D03*
X156323Y128233D02*
D03*
Y121146D02*
D03*
Y114059D02*
D03*
Y106973D02*
D03*
Y99886D02*
D03*
Y92800D02*
D03*
X149237Y128233D02*
D03*
Y121146D02*
D03*
Y114059D02*
D03*
Y106973D02*
D03*
Y99886D02*
D03*
Y92800D02*
D03*
Y85713D02*
D03*
Y78626D02*
D03*
Y71540D02*
D03*
X142150Y128233D02*
D03*
Y121146D02*
D03*
Y114059D02*
D03*
Y106973D02*
D03*
Y99886D02*
D03*
Y92800D02*
D03*
Y85713D02*
D03*
Y78626D02*
D03*
Y71540D02*
D03*
X191756Y128233D02*
D03*
Y121146D02*
D03*
Y114059D02*
D03*
Y106973D02*
D03*
Y99886D02*
D03*
X184669Y128233D02*
D03*
Y121146D02*
D03*
Y114059D02*
D03*
Y106973D02*
D03*
Y99886D02*
D03*
D157*
X12705Y219882D02*
D03*
X469205Y220382D02*
D03*
M02*
