M48
;Layer_Color=9474304
;FILE_FORMAT=2:5
INCH
;TYPE=PLATED
T01F00S00C0.01181
T02F00S00C0.01378
T03F00S00C0.01500
T05F00S00C0.03346
T07F00S00C0.04331
T08F00S00C0.05512
T09F00S00C0.06299
T10F00S00C0.12000
T11F00S00C0.22441
%
T01
X0330287Y0318055
X0330320Y0321254
X0333820
X0333787Y0318055
X0337429
X0337462Y0321254
X0337363Y0324618
X0340939Y0324603
X0341002Y0321176
X0340969Y0317978
X0344676Y0318018
X0344690Y0321158
X0344598Y0324542
X0345431Y0328566
X0341996Y0328485
X0338378Y0328526
X0334801Y0328627
Y0332632
X0338419Y0332591
X0341841Y0332641
X0345548Y0332558
X0343666Y0339380
X0340231Y0339298
X0336613Y0339339
X0333036Y0339441
Y0343445
X0336653Y0343404
X0340076Y0343455
X0343782Y0343371
X0344643Y0347557
X0344544Y0350921
X0344577Y0354119
X0348077
X0348044Y0350921
X0340902
X0340935Y0354119
X0337396Y0354197
X0337363Y0350998
X0337425Y0347572
X0341001Y0347557
X0333766Y0347633
X0333674Y0351017
X0333688Y0354157
X0330077Y0354119
X0330044Y0350921
X0325221Y0338118
X0333721Y0324618
X0348320Y0321254
X0348287Y0318055
X0457795Y0384618
X0473059Y0417118
X0500491Y0421730
X0501230Y0433055
X0517295Y0432118
Y0426618
X0530295
Y0430618
X0524795Y0433118
X0530295Y0422118
Y0408618
Y0403618
X0526795Y0391118
X0518294Y0390488
Y0382488
X0511600Y0418807
X0515295Y0445618
X0515795Y0461118
X0549795Y0453618
T02
X0472441Y0271654
Y0277559
X0478346Y0271654
X0484252
X0490157
X0496063
Y0277559
X0501968
Y0271654
X0507874
Y0277559
X0513779
Y0271654
X0519685
Y0277559
X0525590
Y0271654
X0531496
Y0277559
X0537401
Y0271654
X0543307
X0549212
Y0277559
X0555118
Y0271654
X0561023
Y0277559
X0566929Y0271654
X0572834
Y0277559
X0466535
X0460630
X0454724
Y0271654
X0460630
X0466535
X0224409
X0218504
X0212598
X0206693
X0200787
X0194882
X0188976
X0183071
X0177165
X0171260
X0165354
X0159449
Y0277559
X0165354
X0171260
X0177165
X0206693
X0212598
X0218504
X0224409
X0153543
X0147638
X0141732
Y0271654
X0135827
X0129921
X0124016
X0118110
X0112205
X0106299
Y0277559
X0118110
X0124016
X0147638Y0271654
X0153543
Y0324803
X0147638
X0141732
X0135827
X0129921
X0124016
X0118110
X0112205
X0106299
Y0330709
X0112205
X0118110
X0135827
X0141732
X0147638
X0153543
X0159449Y0324803
X0165354
X0171260
Y0330709
X0177165Y0324803
X0183071
X0188976
X0206693
Y0330709
X0212598
Y0324803
X0218504
Y0330709
X0224409
Y0324803
X0240945Y0340157
X0248031
Y0347244
Y0354330
Y0361417
X0255118
X0262205
X0269291
X0276378
Y0368504
Y0375590
Y0382677
Y0389763
Y0396850
X0269291
Y0389763
Y0382677
Y0375590
Y0368504
X0262205
Y0375590
Y0382677
Y0389763
Y0396850
X0255118
Y0389763
Y0382677
Y0375590
Y0368504
X0248031
Y0375590
Y0382677
Y0389763
Y0396850
X0240945
Y0389763
Y0382677
Y0375590
Y0368504
Y0361417
Y0354330
Y0347244
X0269291
X0276378
Y0354330
X0269291
Y0340157
X0276378
X0283464Y0368504
X0290551
Y0375590
Y0382677
Y0389763
Y0396850
X0283464
Y0389763
Y0382677
Y0375590
X0387708Y0375618
X0394795
Y0382704
Y0389791
Y0396877
X0387708
Y0389791
Y0382704
Y0368531
X0394795
X0401968Y0368504
X0409055
X0416142
X0423228
X0430315
X0437401
Y0375590
Y0382677
Y0389763
Y0396850
X0430315
Y0389763
Y0382677
Y0375590
X0423228
Y0382677
Y0389763
Y0396850
X0416142
Y0389763
Y0382677
Y0375590
X0409055
Y0382677
Y0389763
Y0396850
X0401968
Y0389763
Y0382677
Y0375590
Y0361417
X0409055
Y0354330
Y0347244
Y0340157
X0401968
Y0347244
Y0354330
X0430315
X0437401
Y0361417
X0430315
X0423228
Y0347244
X0430315
X0437401
Y0340157
X0430315
X0454724Y0330709
Y0324803
X0460630
Y0330709
X0466535
Y0324803
X0472441
Y0330709
X0490157Y0324803
X0496063
X0501968
X0507874
Y0330709
X0513779Y0324803
X0519685
X0525590
Y0330709
X0531496
Y0324803
X0537401
Y0330709
X0543307
Y0324803
X0549212
X0555118
Y0330709
X0561023
Y0324803
X0566929
Y0330709
X0572834
Y0324803
T03
X0136295Y0430118
Y0442618
X0147795Y0440618
X0148295Y0450118
X0142295Y0454118
X0122795Y0452618
X0159795Y0446618
X0159295Y0442618
Y0430118
X0181295Y0429618
X0181795Y0442618
X0192295Y0443618
X0193795Y0453118
X0199795Y0448118
X0204295Y0446118
X0206795Y0440118
X0203795Y0435118
X0202795Y0427118
X0211795Y0429618
X0229795Y0424618
X0245295Y0428618
X0254295
X0242295Y0438618
Y0443118
Y0461118
Y0466118
X0211295Y0467618
X0211210Y0462172
X0220932Y0447098
X0264149Y0452476
X0273992
X0283834
X0293677
X0308795Y0444118
X0308721Y0348118
X0309556Y0336243
X0175295Y0453118
X0330887Y0445192
X0347926Y0445238
X0354307Y0445389
X0360212
Y0452082
X0354307
X0360151Y0464473
X0357523Y0468470
X0372295Y0465618
X0382509Y0463736
X0387795Y0465618
X0393795
X0400295Y0465118
X0406795Y0458118
Y0451618
Y0445118
X0403795Y0439618
X0398295
X0392795
X0394535Y0429378
X0398647Y0431389
X0386623Y0428901
X0381707Y0429068
X0377295Y0429118
X0373127Y0429286
X0372795Y0434618
X0380009Y0452236
Y0458236
X0432295Y0454618
X0439295Y0461118
X0423147Y0415346
X0396295Y0416618
X0362295Y0419074
X0363630Y0409706
X0346523Y0414793
X0340795Y0414795
X0342195Y0432418
X0353324Y0334908
X0362721Y0342618
X0370221Y0351618
X0366721Y0322118
X0314295Y0327118
X0316795Y0331118
X0314221Y0348118
X0453630Y0395206
X0454904Y0408346
X0473057Y0413618
X0537873Y0406763
Y0403763
Y0400763
Y0397763
Y0393263
Y0390263
Y0386763
Y0383263
X0554295Y0383118
Y0386618
Y0390118
Y0393118
Y0397618
Y0400618
Y0403618
Y0406618
X0575716Y0407972
Y0404472
Y0400972
Y0397472
Y0392972
Y0389472
Y0385972
X0575795Y0382618
X0540716Y0462492
X0540794Y0466138
X0532295Y0459118
X0540794Y0469138
Y0472138
Y0475138
Y0478138
Y0481138
Y0484138
Y0487138
Y0490138
Y0493138
Y0496138
X0435393Y0491197
Y0484697
X0354295Y0482618
Y0492118
X0341795Y0483618
X0338795Y0477118
X0333795
X0326295Y0480618
X0321795
X0312795Y0477118
X0281258Y0483517
X0257258
X0232909Y0483027
X0223795Y0471118
X0210409Y0483027
X0201295Y0490259
X0187559Y0482968
X0178295Y0489759
X0164559Y0482968
X0155295Y0490259
X0142295Y0483118
X0132795Y0490118
T05
X0314126Y0485736
X0333811
T07
X0545610Y0281618
Y0295397
X0565295
Y0281618
X0132795Y0281118
Y0294897
X0113110
Y0281118
T08
X0129043Y0333118
Y0353118
X0163295
Y0333118
X0515287Y0333192
Y0353192
X0549539
Y0333192
T09
X0417767Y0294925
Y0308311
X0456822
Y0294925
X0258964Y0294963
Y0308349
X0219909
Y0294963
X0219937Y0341270
Y0354656
X0258992
Y0341270
X0417795Y0341618
Y0355003
X0456850
Y0341618
T10
X0568000Y0489000
X0111500Y0488500
T11
X0316721Y0291118
X0360221
M30
