G04*
G04 #@! TF.GenerationSoftware,Altium Limited,Altium Designer,25.8.1 (18)*
G04*
G04 Layer_Physical_Order=1*
G04 Layer_Color=255*
%FSLAX25Y25*%
%MOIN*%
G70*
G04*
G04 #@! TF.SameCoordinates,E010760D-FB29-432B-967E-C6BB433EED36*
G04*
G04*
G04 #@! TF.FilePolarity,Positive*
G04*
G01*
G75*
%ADD17C,0.01968*%
%ADD18R,0.02816X0.02648*%
%ADD19R,0.02423X0.02254*%
%ADD20R,0.02254X0.02423*%
%ADD21C,0.02362*%
%ADD22R,0.03197X0.02593*%
G04:AMPARAMS|DCode=23|XSize=73.01mil|YSize=24.1mil|CornerRadius=12.05mil|HoleSize=0mil|Usage=FLASHONLY|Rotation=0.000|XOffset=0mil|YOffset=0mil|HoleType=Round|Shape=RoundedRectangle|*
%AMROUNDEDRECTD23*
21,1,0.07301,0.00000,0,0,0.0*
21,1,0.04891,0.02410,0,0,0.0*
1,1,0.02410,0.02445,0.00000*
1,1,0.02410,-0.02445,0.00000*
1,1,0.02410,-0.02445,0.00000*
1,1,0.02410,0.02445,0.00000*
%
%ADD23ROUNDEDRECTD23*%
%ADD24O,0.07301X0.02410*%
%ADD25R,0.01772X0.01772*%
%ADD26R,0.02756X0.02559*%
%ADD27R,0.02165X0.02165*%
%ADD28R,0.03150X0.03150*%
%ADD29R,0.03150X0.01575*%
%ADD30R,0.01575X0.03150*%
%ADD31R,0.04724X0.04724*%
%ADD32R,0.05544X0.03963*%
%ADD33R,0.02593X0.03197*%
G04:AMPARAMS|DCode=34|XSize=67.21mil|YSize=24.25mil|CornerRadius=12.12mil|HoleSize=0mil|Usage=FLASHONLY|Rotation=270.000|XOffset=0mil|YOffset=0mil|HoleType=Round|Shape=RoundedRectangle|*
%AMROUNDEDRECTD34*
21,1,0.06721,0.00000,0,0,270.0*
21,1,0.04296,0.02425,0,0,270.0*
1,1,0.02425,0.00000,-0.02148*
1,1,0.02425,0.00000,0.02148*
1,1,0.02425,0.00000,0.02148*
1,1,0.02425,0.00000,-0.02148*
%
%ADD34ROUNDEDRECTD34*%
%ADD35R,0.02425X0.06721*%
%ADD36R,0.05512X0.03740*%
%ADD37R,0.05906X0.04724*%
%ADD38R,0.02559X0.04134*%
G04:AMPARAMS|DCode=39|XSize=49.38mil|YSize=13.22mil|CornerRadius=6.61mil|HoleSize=0mil|Usage=FLASHONLY|Rotation=180.000|XOffset=0mil|YOffset=0mil|HoleType=Round|Shape=RoundedRectangle|*
%AMROUNDEDRECTD39*
21,1,0.04938,0.00000,0,0,180.0*
21,1,0.03615,0.01322,0,0,180.0*
1,1,0.01322,-0.01808,0.00000*
1,1,0.01322,0.01808,0.00000*
1,1,0.01322,0.01808,0.00000*
1,1,0.01322,-0.01808,0.00000*
%
%ADD39ROUNDEDRECTD39*%
G04:AMPARAMS|DCode=40|XSize=43.31mil|YSize=23.62mil|CornerRadius=2.01mil|HoleSize=0mil|Usage=FLASHONLY|Rotation=180.000|XOffset=0mil|YOffset=0mil|HoleType=Round|Shape=RoundedRectangle|*
%AMROUNDEDRECTD40*
21,1,0.04331,0.01961,0,0,180.0*
21,1,0.03929,0.02362,0,0,180.0*
1,1,0.00402,-0.01965,0.00980*
1,1,0.00402,0.01965,0.00980*
1,1,0.00402,0.01965,-0.00980*
1,1,0.00402,-0.01965,-0.00980*
%
%ADD40ROUNDEDRECTD40*%
%ADD41R,0.01000X0.01900*%
%ADD42R,0.01900X0.01000*%
%ADD43R,0.01575X0.05315*%
%ADD44R,0.02362X0.02126*%
%ADD45R,0.02648X0.02631*%
%ADD46R,0.05138X0.04355*%
%ADD47R,0.03765X0.06127*%
G04:AMPARAMS|DCode=48|XSize=47.64mil|YSize=23.23mil|CornerRadius=5.81mil|HoleSize=0mil|Usage=FLASHONLY|Rotation=180.000|XOffset=0mil|YOffset=0mil|HoleType=Round|Shape=RoundedRectangle|*
%AMROUNDEDRECTD48*
21,1,0.04764,0.01161,0,0,180.0*
21,1,0.03602,0.02323,0,0,180.0*
1,1,0.01161,-0.01801,0.00581*
1,1,0.01161,0.01801,0.00581*
1,1,0.01161,0.01801,-0.00581*
1,1,0.01161,-0.01801,-0.00581*
%
%ADD48ROUNDEDRECTD48*%
%ADD49R,0.04724X0.07087*%
%ADD50R,0.11040X0.06506*%
%ADD51R,0.06102X0.05906*%
%ADD52R,0.03740X0.05512*%
G04:AMPARAMS|DCode=53|XSize=47.64mil|YSize=23.23mil|CornerRadius=5.81mil|HoleSize=0mil|Usage=FLASHONLY|Rotation=90.000|XOffset=0mil|YOffset=0mil|HoleType=Round|Shape=RoundedRectangle|*
%AMROUNDEDRECTD53*
21,1,0.04764,0.01161,0,0,90.0*
21,1,0.03602,0.02323,0,0,90.0*
1,1,0.01161,0.00581,0.01801*
1,1,0.01161,0.00581,-0.01801*
1,1,0.01161,-0.00581,-0.01801*
1,1,0.01161,-0.00581,0.01801*
%
%ADD53ROUNDEDRECTD53*%
%ADD54R,0.02362X0.06102*%
%ADD55R,0.05906X0.06102*%
%ADD56R,0.01496X0.01575*%
%ADD57R,0.06506X0.11040*%
G04:AMPARAMS|DCode=58|XSize=17.72mil|YSize=11.81mil|CornerRadius=1.95mil|HoleSize=0mil|Usage=FLASHONLY|Rotation=180.000|XOffset=0mil|YOffset=0mil|HoleType=Round|Shape=RoundedRectangle|*
%AMROUNDEDRECTD58*
21,1,0.01772,0.00791,0,0,180.0*
21,1,0.01382,0.01181,0,0,180.0*
1,1,0.00390,-0.00691,0.00396*
1,1,0.00390,0.00691,0.00396*
1,1,0.00390,0.00691,-0.00396*
1,1,0.00390,-0.00691,-0.00396*
%
%ADD58ROUNDEDRECTD58*%
%ADD59R,0.05241X0.03985*%
%ADD60R,0.03661X0.03504*%
%ADD61R,0.03543X0.02559*%
G04:AMPARAMS|DCode=62|XSize=37.68mil|YSize=9.42mil|CornerRadius=4.71mil|HoleSize=0mil|Usage=FLASHONLY|Rotation=90.000|XOffset=0mil|YOffset=0mil|HoleType=Round|Shape=RoundedRectangle|*
%AMROUNDEDRECTD62*
21,1,0.03768,0.00000,0,0,90.0*
21,1,0.02826,0.00942,0,0,90.0*
1,1,0.00942,0.00000,0.01413*
1,1,0.00942,0.00000,-0.01413*
1,1,0.00942,0.00000,-0.01413*
1,1,0.00942,0.00000,0.01413*
%
%ADD62ROUNDEDRECTD62*%
G04:AMPARAMS|DCode=63|XSize=9.42mil|YSize=37.68mil|CornerRadius=4.71mil|HoleSize=0mil|Usage=FLASHONLY|Rotation=90.000|XOffset=0mil|YOffset=0mil|HoleType=Round|Shape=RoundedRectangle|*
%AMROUNDEDRECTD63*
21,1,0.00942,0.02826,0,0,90.0*
21,1,0.00000,0.03768,0,0,90.0*
1,1,0.00942,0.01413,0.00000*
1,1,0.00942,0.01413,0.00000*
1,1,0.00942,-0.01413,0.00000*
1,1,0.00942,-0.01413,0.00000*
%
%ADD63ROUNDEDRECTD63*%
%ADD65R,0.01968X0.02362*%
%ADD66R,0.03504X0.03661*%
%ADD67R,0.02362X0.02362*%
%ADD68R,0.08898X0.08504*%
%ADD69R,0.02365X0.04375*%
%ADD70R,0.06127X0.03765*%
%ADD71R,0.13228X0.19134*%
%ADD72R,0.05472X0.05512*%
%ADD73R,0.04938X0.01322*%
%ADD74R,0.03963X0.05544*%
%ADD75R,0.02756X0.00787*%
%ADD76R,0.12992X0.04134*%
%ADD77R,0.02165X0.02165*%
%ADD78R,0.01575X0.02362*%
%ADD80R,0.01843X0.01860*%
%ADD81R,0.02203X0.01860*%
%ADD82C,0.00848*%
%ADD83R,0.02559X0.02559*%
%ADD84R,0.21654X0.05630*%
%ADD85R,0.05906X0.07480*%
%ADD86R,0.03150X0.02362*%
%ADD87R,0.02237X0.02254*%
%ADD88R,0.04166X0.04748*%
%ADD89C,0.03937*%
G04:AMPARAMS|DCode=106|XSize=29.53mil|YSize=11.81mil|CornerRadius=1.95mil|HoleSize=0mil|Usage=FLASHONLY|Rotation=180.000|XOffset=0mil|YOffset=0mil|HoleType=Round|Shape=RoundedRectangle|*
%AMROUNDEDRECTD106*
21,1,0.02953,0.00791,0,0,180.0*
21,1,0.02563,0.01181,0,0,180.0*
1,1,0.00390,-0.01282,0.00396*
1,1,0.00390,0.01282,0.00396*
1,1,0.00390,0.01282,-0.00396*
1,1,0.00390,-0.01282,-0.00396*
%
%ADD106ROUNDEDRECTD106*%
%ADD109R,0.03543X0.05118*%
%ADD110C,0.01462*%
%ADD113R,0.00984X0.10433*%
%ADD114C,0.01550*%
G04:AMPARAMS|DCode=119|XSize=39.37mil|YSize=37.4mil|CornerRadius=2.06mil|HoleSize=0mil|Usage=FLASHONLY|Rotation=0.000|XOffset=0mil|YOffset=0mil|HoleType=Round|Shape=RoundedRectangle|*
%AMROUNDEDRECTD119*
21,1,0.03937,0.03329,0,0,0.0*
21,1,0.03526,0.03740,0,0,0.0*
1,1,0.00411,0.01763,-0.01664*
1,1,0.00411,-0.01763,-0.01664*
1,1,0.00411,-0.01763,0.01664*
1,1,0.00411,0.01763,0.01664*
%
%ADD119ROUNDEDRECTD119*%
%ADD126R,0.09646X0.09646*%
%ADD127C,0.09646*%
%ADD134C,0.01000*%
%ADD135R,0.01575X0.01575*%
%ADD136C,0.08268*%
%ADD137C,0.06496*%
%ADD138O,0.15748X0.07874*%
%ADD139O,0.07874X0.15748*%
%ADD140C,0.26378*%
%ADD141O,0.17717X0.07874*%
%ADD142C,0.05709*%
%ADD143C,0.03000*%
%ADD144C,0.01968*%
%ADD145C,0.15748*%
G36*
X241315Y225976D02*
X239347D01*
Y229520D01*
X241315D01*
X241315Y225976D01*
D02*
G37*
G36*
X211000Y225976D02*
X209032D01*
X209032Y229520D01*
X211000D01*
Y225976D01*
D02*
G37*
G36*
X239347Y224008D02*
X234228D01*
Y231488D01*
X239347D01*
Y224008D01*
D02*
G37*
G36*
X216118D02*
X211000D01*
Y231488D01*
X216118D01*
Y224008D01*
D02*
G37*
G36*
X407994Y230422D02*
Y196139D01*
X380566D01*
X380114Y195952D01*
X379927Y195500D01*
Y176073D01*
D01*
Y172000D01*
X380114Y171548D01*
X380566Y171361D01*
X380856D01*
X381728Y170852D01*
X381728Y170148D01*
X381998Y169496D01*
X382496Y168998D01*
X382631Y168942D01*
X382631Y150979D01*
X381954Y150303D01*
X381071Y150021D01*
X380929D01*
Y150021D01*
X377905D01*
Y149612D01*
X375657D01*
X375267Y150002D01*
X374616Y150272D01*
X373911D01*
X373260Y150002D01*
X372762Y149504D01*
X372492Y148852D01*
Y148148D01*
X372762Y147496D01*
X372854Y147404D01*
X373148Y146749D01*
X372854Y146098D01*
X372760Y146004D01*
X372490Y145352D01*
Y144648D01*
X372760Y143996D01*
X373258Y143498D01*
X373910Y143228D01*
X374614D01*
X375266Y143498D01*
X375656Y143888D01*
X378509D01*
X378892Y142964D01*
X376714Y140786D01*
X376473Y140426D01*
X376388Y140000D01*
X376388Y140000D01*
Y134378D01*
X373581Y131571D01*
X369583D01*
X368883Y131431D01*
X368289Y131035D01*
X368056Y130686D01*
X367813Y130623D01*
X367187D01*
X366944Y130686D01*
X366711Y131035D01*
X366117Y131431D01*
X365417Y131571D01*
X360526D01*
X359825Y131431D01*
X359231Y131035D01*
X358835Y130441D01*
X358695Y129740D01*
X358835Y129040D01*
X359231Y128446D01*
X358867Y127486D01*
X358449Y126860D01*
X358377Y126500D01*
X362971D01*
Y125500D01*
X358377D01*
X358449Y125140D01*
X358867Y124514D01*
X358989Y124193D01*
X358299Y123226D01*
X356717D01*
Y123489D01*
X356029D01*
Y125277D01*
X356337Y125585D01*
X356607Y126236D01*
Y126941D01*
X356337Y127592D01*
X355838Y128090D01*
X355187Y128360D01*
X354483D01*
X353831Y128090D01*
X353333Y127592D01*
X353063Y126941D01*
Y126236D01*
X353333Y125585D01*
X353806Y125112D01*
Y123489D01*
X353282D01*
Y119885D01*
X356717D01*
Y121002D01*
X359207D01*
X359231Y120965D01*
X359825Y120569D01*
X360526Y120429D01*
X365417D01*
X366117Y120569D01*
X366711Y120965D01*
X366944Y121314D01*
X367187Y121377D01*
X367813D01*
X368056Y121314D01*
X368289Y120965D01*
X368741Y120664D01*
Y118398D01*
X368551Y117476D01*
X365598Y117476D01*
X364598Y117476D01*
X362449D01*
Y117112D01*
X360394D01*
X360004Y117502D01*
X359352Y117772D01*
X358648D01*
X357996Y117502D01*
X357498Y117004D01*
X357228Y116352D01*
Y115648D01*
X357498Y114996D01*
X357996Y114498D01*
X358648Y114228D01*
X359352D01*
X360004Y114498D01*
X360394Y114888D01*
X362449D01*
Y114524D01*
X365402Y114524D01*
X366402Y114524D01*
X368551D01*
Y114888D01*
X370661D01*
Y114130D01*
X374598D01*
Y117870D01*
X370964D01*
Y120429D01*
X374474D01*
X375175Y120569D01*
X375769Y120965D01*
X376166Y121559D01*
X376305Y122260D01*
X376166Y122960D01*
X375769Y123554D01*
Y124706D01*
X376166Y125299D01*
X376305Y126000D01*
X376166Y126701D01*
X375792Y127259D01*
X375769Y127295D01*
X375769Y128446D01*
X375792Y128481D01*
X376166Y129040D01*
X376305Y129740D01*
X376166Y130441D01*
X375937Y130782D01*
X378286Y133131D01*
X378527Y133492D01*
X378612Y133917D01*
Y139539D01*
X381707Y142634D01*
X382631Y142252D01*
X382631Y106869D01*
X384324Y105176D01*
X480000Y105175D01*
Y103639D01*
X355639D01*
Y105500D01*
X355452Y105952D01*
X353452Y107952D01*
X353000Y108139D01*
X350565D01*
Y130074D01*
X350378Y130526D01*
X344952Y135952D01*
X344500Y136139D01*
X137500Y136139D01*
X137048Y135952D01*
X131187Y130091D01*
X131000Y129639D01*
X131000Y109639D01*
X130000Y108639D01*
X128500D01*
X128048Y108452D01*
X126048Y106452D01*
X125861Y106000D01*
Y104139D01*
X1122D01*
X1113Y104145D01*
Y144500D01*
X865D01*
Y229865D01*
X2422Y231422D01*
X21372D01*
X21551Y230422D01*
Y226453D01*
X24913D01*
X28276D01*
Y230422D01*
X28276Y230496D01*
X28455Y231422D01*
X35545D01*
X35724Y230422D01*
Y226453D01*
X39087D01*
X42449D01*
Y230422D01*
X42449Y230496D01*
X42628Y231422D01*
X43872D01*
X44051Y230422D01*
Y226453D01*
X47413D01*
X50776D01*
Y230422D01*
X50776Y230496D01*
X50955Y231422D01*
X58045D01*
X58224Y230422D01*
Y226453D01*
X61587D01*
X64949D01*
Y230422D01*
X64949Y230496D01*
X65128Y231422D01*
X66932D01*
X67083Y230422D01*
Y226441D01*
X70445D01*
X73807D01*
Y230422D01*
X73807Y230484D01*
X73958Y231422D01*
X81105D01*
X81256Y230422D01*
Y226441D01*
X84618D01*
X87980D01*
Y230422D01*
X87980Y230484D01*
X88131Y231422D01*
X89932D01*
X90083Y230422D01*
Y226441D01*
X93445D01*
X96807D01*
Y230422D01*
X96807Y230484D01*
X96958Y231422D01*
X104105D01*
X104256Y230422D01*
Y226441D01*
X107618D01*
X110980D01*
Y230422D01*
X110980Y230484D01*
X111131Y231422D01*
X112640D01*
X112933Y230422D01*
Y226500D01*
X116295D01*
X119658D01*
Y230422D01*
X119658Y230543D01*
X119951Y231422D01*
X126813D01*
X127106Y230422D01*
Y226500D01*
X130468D01*
X133831D01*
Y230422D01*
X133831Y230543D01*
X134124Y231422D01*
X136140D01*
X136433Y230422D01*
Y226500D01*
X139795D01*
X143157D01*
Y230422D01*
X143157Y230543D01*
X143451Y231422D01*
X150313D01*
X150606Y230422D01*
Y226500D01*
X153969D01*
X157331D01*
Y230422D01*
X157331Y230543D01*
X157624Y231422D01*
X160340D01*
X160520Y230422D01*
Y226453D01*
X163882D01*
X167244D01*
Y230422D01*
X167244Y230496D01*
X167423Y231422D01*
X174514D01*
X174693Y230422D01*
Y226453D01*
X178055D01*
X181417D01*
Y230422D01*
X181417Y230496D01*
X181597Y231422D01*
X184340D01*
X184520Y230422D01*
Y226453D01*
X187882D01*
X191244D01*
Y230422D01*
X191244Y230496D01*
X191423Y231422D01*
X198514D01*
X198693Y230422D01*
Y226453D01*
X202055D01*
X205417D01*
Y230422D01*
X205417Y230496D01*
X205597Y231422D01*
X207974D01*
X208137Y231295D01*
X208604Y230422D01*
X208507Y230188D01*
X208431Y229614D01*
X208392Y229520D01*
X208392Y225976D01*
X208431Y225882D01*
X208507Y225308D01*
X208765Y224686D01*
X209175Y224151D01*
X209709Y223741D01*
X210332Y223483D01*
X210906Y223408D01*
X211000Y223369D01*
X216118D01*
X216570Y223556D01*
X216757Y224008D01*
X217693Y223852D01*
Y223417D01*
X224780D01*
Y223417D01*
X225567D01*
Y223417D01*
X232653D01*
Y223852D01*
X233589Y224008D01*
X233776Y223556D01*
X234228Y223369D01*
X239347D01*
X239441Y223408D01*
X240015Y223483D01*
X240637Y223741D01*
X241172Y224151D01*
X241582Y224686D01*
X241840Y225308D01*
X241915Y225882D01*
X241954Y225976D01*
X241954Y229520D01*
X241915Y229614D01*
X241840Y230188D01*
X241743Y230422D01*
X242209Y231295D01*
X242373Y231422D01*
X264046D01*
Y214000D01*
X264076Y213928D01*
Y213706D01*
X264263Y213254D01*
X264715Y213067D01*
X264896D01*
Y211351D01*
X267471D01*
Y210351D01*
X264896D01*
Y208277D01*
Y207218D01*
X270046D01*
Y208277D01*
X271105D01*
Y210851D01*
X272105D01*
Y208277D01*
X274451D01*
Y210851D01*
X275451D01*
Y208277D01*
X277798D01*
Y210851D01*
X278798D01*
Y208277D01*
X281144D01*
Y210851D01*
X282144D01*
Y208277D01*
X284490D01*
Y210851D01*
X285490D01*
Y208277D01*
X287837D01*
Y210851D01*
X288837D01*
Y208277D01*
X291183D01*
Y210851D01*
X292183D01*
Y208277D01*
X294530D01*
Y210851D01*
X295530D01*
Y208277D01*
X297876D01*
Y210851D01*
X298876D01*
Y208277D01*
X301223D01*
Y210851D01*
X302223D01*
Y208277D01*
X304569D01*
Y210851D01*
X305569D01*
Y208277D01*
X307916D01*
Y210851D01*
X308916D01*
Y208277D01*
X311262D01*
Y210851D01*
X312262D01*
Y208277D01*
X314609D01*
Y210851D01*
X315609D01*
Y208277D01*
X317955D01*
Y210851D01*
X318955D01*
Y208277D01*
X320014D01*
Y207218D01*
X325164D01*
Y208277D01*
Y210351D01*
X322589D01*
Y211351D01*
X325164D01*
Y213067D01*
X325345D01*
X325797Y213254D01*
X325984Y213706D01*
Y231422D01*
X407169D01*
X407994Y230422D01*
D02*
G37*
G36*
X428860Y185101D02*
X428831Y184955D01*
Y184163D01*
X428842Y184109D01*
X428851Y183990D01*
X428852Y183767D01*
X428557Y183108D01*
X428464Y182952D01*
X428461Y182945D01*
X428422Y182905D01*
X428336Y182801D01*
X428336Y182801D01*
X428274Y182595D01*
X428191Y182396D01*
Y181667D01*
X428167Y181547D01*
X428135Y181499D01*
X428087Y181467D01*
X427966Y181443D01*
X426711D01*
X426591Y181467D01*
X426437Y181570D01*
X426393Y181578D01*
X426364Y181612D01*
X426158Y181625D01*
X425957Y181665D01*
X425920Y181640D01*
X425875Y181643D01*
X425407Y181484D01*
X425200Y181442D01*
X422000D01*
X421548Y181255D01*
X421458Y181038D01*
X413671D01*
X407682Y175049D01*
X407575Y175027D01*
X407214Y174786D01*
X404427Y172000D01*
X402576D01*
X402377Y173000D01*
X402705Y173136D01*
X403650Y173861D01*
X404376Y174807D01*
X404832Y175909D01*
X404988Y177091D01*
X404832Y178272D01*
X404376Y179374D01*
X403650Y180320D01*
X402705Y181045D01*
X401603Y181502D01*
X400421Y181657D01*
X390579D01*
X389397Y181502D01*
X388295Y181045D01*
X387350Y180320D01*
X386624Y179374D01*
X386168Y178272D01*
X386012Y177091D01*
X386168Y175909D01*
X386624Y174807D01*
X387350Y173861D01*
X388295Y173136D01*
X388623Y173000D01*
X388424Y172000D01*
X385085D01*
X384735Y172349D01*
X383934Y172681D01*
X383066D01*
X382264Y172349D01*
X381915Y172000D01*
X380566D01*
Y195500D01*
X408633D01*
Y231000D01*
X428860D01*
Y185101D01*
D02*
G37*
G36*
X466000Y179980D02*
Y174000D01*
X428371D01*
X427934Y174181D01*
X427066D01*
X426629Y174000D01*
X422000D01*
X422000Y180803D01*
X425263D01*
X425573Y180865D01*
X426081Y181038D01*
X426341Y180865D01*
X426648Y180804D01*
X428029D01*
X428336Y180865D01*
X428596Y181038D01*
X428769Y181298D01*
X428830Y181604D01*
Y182396D01*
X428916Y182500D01*
X463480D01*
X466000Y179980D01*
D02*
G37*
G36*
X414162Y164247D02*
X409977D01*
Y160061D01*
X405646D01*
Y170074D01*
X407072Y171500D01*
X414162D01*
Y164247D01*
D02*
G37*
G36*
X419872Y171500D02*
X421250Y170122D01*
X421250Y156290D01*
X419214Y154253D01*
X418320D01*
X418171Y154224D01*
X416906D01*
X416492Y154142D01*
X416431Y154101D01*
X415804Y153842D01*
X415005Y154471D01*
X415078Y171500D01*
X419872Y171500D01*
D02*
G37*
G36*
X465913Y148772D02*
X435308D01*
Y151012D01*
X434913D01*
X434913Y161807D01*
X438334Y165229D01*
X465913D01*
Y148772D01*
D02*
G37*
G36*
X409094Y147509D02*
X409269Y147233D01*
X409261Y147119D01*
X409200Y146966D01*
X409134Y146939D01*
X409001Y146807D01*
X408953Y146689D01*
X408863Y146599D01*
X408791Y146426D01*
Y146299D01*
X408743Y146182D01*
Y145644D01*
X408421Y145322D01*
Y143402D01*
X407135Y142116D01*
X407110Y142079D01*
X406548Y141524D01*
Y133584D01*
X406505Y133520D01*
X405051D01*
X403209Y131677D01*
Y123289D01*
X402422D01*
Y119460D01*
X403209D01*
Y118476D01*
X405351D01*
X407421Y116407D01*
Y107520D01*
X386980D01*
X385421Y109079D01*
Y143888D01*
X399496D01*
X399496Y143888D01*
X399922Y143973D01*
X400283Y144214D01*
X402126Y146057D01*
X404162Y148093D01*
X407292D01*
X407440Y148122D01*
X408341D01*
X409094Y147509D01*
D02*
G37*
G36*
X410120Y146487D02*
X410252Y146355D01*
X410324Y146182D01*
Y146088D01*
Y142791D01*
X409382D01*
Y146088D01*
Y146182D01*
X409453Y146355D01*
X409586Y146487D01*
X409759Y146559D01*
X409946D01*
X410120Y146487D01*
D02*
G37*
G36*
X466499Y107520D02*
X435499D01*
Y147375D01*
X466499D01*
Y107520D01*
D02*
G37*
G36*
X422826Y132772D02*
Y129426D01*
X423999D01*
Y107520D01*
X414999D01*
Y119657D01*
X415190D01*
Y123092D01*
X414999D01*
Y133520D01*
X422218D01*
X422826Y132772D01*
D02*
G37*
G36*
X479999Y227910D02*
Y107500D01*
X467500D01*
Y188000D01*
X436000D01*
X435999Y183988D01*
X429499D01*
Y231000D01*
X476222D01*
X479999Y227910D01*
D02*
G37*
G36*
X228755Y79960D02*
X228755Y74515D01*
X228569Y74229D01*
X227755Y73612D01*
X224576D01*
Y74272D01*
X221820D01*
Y74272D01*
X221032D01*
Y74272D01*
X218276D01*
Y73612D01*
X212785D01*
X212359Y73527D01*
X211999Y73286D01*
X211999Y73286D01*
X211413Y72701D01*
X211172Y72340D01*
X211137Y72162D01*
X211100Y72125D01*
X206991D01*
X206566Y72041D01*
X206205Y71800D01*
X206205Y71800D01*
X205619Y71214D01*
X205378Y70853D01*
X205293Y70428D01*
X205293Y70428D01*
Y67139D01*
X187500D01*
Y86361D01*
X222354D01*
X228755Y79960D01*
D02*
G37*
G36*
X249727Y76919D02*
Y74951D01*
X250908D01*
X251105Y74754D01*
Y73573D01*
X250908Y73376D01*
X248546D01*
X248349Y73573D01*
Y76919D01*
X248546Y77116D01*
X249530D01*
X249727Y76919D01*
D02*
G37*
G36*
X232601Y76919D02*
Y73573D01*
X232404Y73376D01*
X230042D01*
X229845Y73573D01*
Y74754D01*
X230042Y74951D01*
X231223D01*
Y76919D01*
X231420Y77116D01*
X232404D01*
X232601Y76919D01*
D02*
G37*
G36*
X218276Y70728D02*
X220239D01*
X221032Y70728D01*
X221221Y69807D01*
Y67228D01*
X220307Y67021D01*
X219252D01*
Y65643D01*
X217143D01*
Y66615D01*
X213708D01*
Y65643D01*
X211457D01*
X211457Y65643D01*
X211032Y65559D01*
X210832Y65425D01*
X208851D01*
X208146Y66134D01*
X208166Y69902D01*
X211560D01*
X211560Y69902D01*
X211986Y69986D01*
X212347Y70227D01*
X212985Y70866D01*
X212985Y70866D01*
X213075Y71000D01*
X218276D01*
Y70728D01*
D02*
G37*
G36*
X245623Y66092D02*
X247759D01*
Y61762D01*
X247759D01*
X247829Y61656D01*
X247710Y61368D01*
Y58022D01*
X247897Y57570D01*
X247897Y57570D01*
X248094Y57373D01*
X248546Y57186D01*
X249240D01*
X256426Y50000D01*
X302500D01*
Y883D01*
X177000D01*
Y50000D01*
X187500D01*
Y66500D01*
X205293D01*
Y53628D01*
X205293Y53628D01*
X205378Y53203D01*
X205619Y52842D01*
X206426Y52035D01*
Y50000D01*
X206901D01*
Y48539D01*
X209000D01*
Y50836D01*
X210000D01*
Y48539D01*
X212099D01*
Y50000D01*
X224580D01*
X224733Y50154D01*
X225028D01*
Y50449D01*
X225154Y50575D01*
Y54000D01*
X228579D01*
X231765Y57186D01*
X232404D01*
X232404Y57186D01*
X232404Y57186D01*
X232856Y57373D01*
X233053Y57570D01*
X233053Y57570D01*
X233131Y57757D01*
X233131Y57757D01*
X233131Y57757D01*
X233131Y57757D01*
X233131Y57757D01*
X233240Y58022D01*
Y61368D01*
X233121Y61656D01*
X233192Y61762D01*
X233192D01*
Y67126D01*
X234934D01*
Y66092D01*
X237099D01*
Y67126D01*
X238497D01*
Y66092D01*
X240662D01*
Y67126D01*
X242060D01*
Y66092D01*
X244225D01*
Y67126D01*
X245623D01*
Y66092D01*
D02*
G37*
G36*
X355000Y105500D02*
Y103000D01*
X480000D01*
Y65000D01*
X455469D01*
Y65197D01*
X455147Y66398D01*
X454525Y67476D01*
X453645Y68355D01*
X452568Y68977D01*
X451366Y69299D01*
X450122D01*
X448920Y68977D01*
X447843Y68355D01*
X446964Y67476D01*
X446342Y66398D01*
X446020Y65197D01*
Y65000D01*
X421216D01*
Y65197D01*
X420895Y66398D01*
X420273Y67476D01*
X419393Y68355D01*
X418316Y68977D01*
X417114Y69299D01*
X415870D01*
X414669Y68977D01*
X413591Y68355D01*
X412712Y67476D01*
X412090Y66398D01*
X411768Y65197D01*
Y65000D01*
X350565D01*
Y89500D01*
Y95500D01*
Y107500D01*
X353000D01*
X355000Y105500D01*
D02*
G37*
G36*
X131000Y103500D02*
Y96000D01*
Y65000D01*
X69224D01*
Y65122D01*
X68902Y66324D01*
X68281Y67401D01*
X67401Y68281D01*
X66324Y68902D01*
X65122Y69224D01*
X63878D01*
X62676Y68902D01*
X61599Y68281D01*
X60720Y67401D01*
X60098Y66324D01*
X59776Y65122D01*
Y65000D01*
X34972D01*
Y65122D01*
X34650Y66324D01*
X34029Y67401D01*
X33149Y68281D01*
X32072Y68902D01*
X30870Y69224D01*
X29626D01*
X28425Y68902D01*
X27347Y68281D01*
X26468Y67401D01*
X25846Y66324D01*
X25524Y65122D01*
Y65000D01*
X1122D01*
Y103500D01*
X126500D01*
Y106000D01*
X128500Y108000D01*
X131000D01*
X131000Y103500D01*
D02*
G37*
G36*
X454829Y65113D02*
Y65000D01*
X455017Y64548D01*
X455469Y64361D01*
X480000D01*
Y52234D01*
X350565Y52234D01*
Y64361D01*
X411768D01*
X412220Y64548D01*
X412407Y65000D01*
Y65113D01*
X412542Y65617D01*
X420442D01*
X420577Y65113D01*
Y65000D01*
X420764Y64548D01*
X421216Y64361D01*
X446020D01*
X446472Y64548D01*
X446659Y65000D01*
Y65113D01*
X446794Y65617D01*
X454694D01*
X454829Y65113D01*
D02*
G37*
G36*
X68772Y64548D02*
X69224Y64361D01*
X131000D01*
Y52139D01*
X1983Y52139D01*
X1483Y52379D01*
X1149Y52646D01*
X983Y52890D01*
Y64268D01*
X1122Y64361D01*
X25524D01*
X25976Y64548D01*
X26163Y65000D01*
X34333D01*
X34521Y64548D01*
X34972Y64361D01*
X59776D01*
X60228Y64548D01*
X60415Y65000D01*
X68585D01*
X68772Y64548D01*
D02*
G37*
G36*
X282287Y76921D02*
X282474Y76469D01*
X282926Y76282D01*
X292299D01*
X292389Y76245D01*
X292426Y76155D01*
Y50639D01*
X256691D01*
X250878Y56452D01*
X252977Y58551D01*
X253801Y58768D01*
X253973Y58660D01*
X254214Y58299D01*
X254800Y57714D01*
X254800Y57714D01*
X255160Y57473D01*
X255586Y57388D01*
X256937D01*
Y56783D01*
X260541D01*
Y60217D01*
X261237Y60579D01*
Y65421D01*
X262087Y65782D01*
X262615D01*
Y69217D01*
X263501Y69492D01*
X266751D01*
X267005Y69239D01*
Y66626D01*
X269314D01*
Y65224D01*
X268564D01*
Y61484D01*
X273288D01*
Y65224D01*
X271538D01*
Y66626D01*
X271847D01*
Y71311D01*
X268077D01*
X267998Y71391D01*
X267637Y71632D01*
X267462Y71666D01*
X267091Y71837D01*
X266547Y72383D01*
X266527Y72483D01*
X266286Y72844D01*
X265634Y73495D01*
X265698Y73648D01*
Y74352D01*
X265428Y75004D01*
X264930Y75502D01*
X264278Y75772D01*
X263574D01*
X262922Y75502D01*
X261989Y75982D01*
Y76594D01*
X260081D01*
Y74270D01*
X259081D01*
Y76594D01*
X258105D01*
X257593Y77594D01*
X257825Y77917D01*
X263221D01*
Y83083D01*
X262532Y83228D01*
Y86361D01*
X282287D01*
Y76921D01*
D02*
G37*
G36*
X251105Y61368D02*
Y60187D01*
X250908Y59990D01*
X249727D01*
Y58022D01*
X249530Y57825D01*
X248546D01*
X248349Y58022D01*
Y61368D01*
X248546Y61565D01*
X250908D01*
X251105Y61368D01*
D02*
G37*
G36*
X232601Y61368D02*
Y58022D01*
X232404Y57825D01*
X231420D01*
X231223Y58022D01*
Y59990D01*
X230042D01*
X229845Y60187D01*
Y61368D01*
X230042Y61565D01*
X232404D01*
X232601Y61368D01*
D02*
G37*
G36*
X216996Y60998D02*
X217648Y60728D01*
X218352D01*
X218926Y60345D01*
Y50639D01*
X212127D01*
Y61000D01*
X216995D01*
X216996Y60998D01*
D02*
G37*
G36*
X480000Y16594D02*
X467916D01*
X467005Y16839D01*
X465995D01*
X465084Y16594D01*
X448231D01*
X447320Y16839D01*
X446310D01*
X445399Y16594D01*
X350565D01*
Y51595D01*
X480000Y51595D01*
Y16594D01*
D02*
G37*
G36*
X131000Y16500D02*
X1179D01*
X1078Y50792D01*
X1784Y51500D01*
X131000Y51500D01*
Y16500D01*
D02*
G37*
G36*
X467751Y15977D02*
X467837Y15988D01*
X467916Y15955D01*
X480000D01*
Y2878D01*
X478006Y883D01*
X350565D01*
Y15955D01*
X445399D01*
X445478Y15988D01*
X445564Y15977D01*
X446394Y16199D01*
X447236D01*
X448066Y15977D01*
X448151Y15988D01*
X448231Y15955D01*
X465084D01*
X465164Y15988D01*
X465249Y15977D01*
X466079Y16199D01*
X466921D01*
X467751Y15977D01*
D02*
G37*
G36*
X344500Y135500D02*
X349926Y130074D01*
Y87000D01*
Y883D01*
X303139D01*
Y50000D01*
X302952Y50452D01*
X302500Y50639D01*
X293065D01*
Y76282D01*
X292878Y76734D01*
X292426Y76921D01*
X282926D01*
Y87000D01*
X258331D01*
X249087Y77755D01*
X248546D01*
X248546Y77755D01*
X248546Y77755D01*
X248094Y77568D01*
X247897Y77371D01*
X247897Y77371D01*
X247820Y77184D01*
X247820Y77184D01*
X247820Y77184D01*
X247820Y77184D01*
X247820Y77184D01*
X247710Y76919D01*
Y73573D01*
X247829Y73285D01*
X247759Y73179D01*
X247759D01*
Y71211D01*
Y67557D01*
X246084D01*
X246075Y67578D01*
X246017Y67602D01*
Y68848D01*
X243851D01*
Y67610D01*
X243773Y67578D01*
X243764Y67557D01*
X242521D01*
X242512Y67578D01*
X242454Y67602D01*
Y68848D01*
X240288D01*
Y67610D01*
X240210Y67578D01*
X240201Y67557D01*
X238958D01*
X238949Y67578D01*
X238891Y67602D01*
Y68848D01*
X236725D01*
Y67610D01*
X236647Y67578D01*
X236638Y67557D01*
X235395D01*
X235386Y67578D01*
X235328Y67602D01*
Y68848D01*
X233192D01*
Y73179D01*
X233192D01*
X233121Y73285D01*
X233240Y73573D01*
Y76919D01*
X233053Y77371D01*
X233053Y77371D01*
X232856Y77568D01*
X232404Y77755D01*
X231863D01*
X222619Y87000D01*
X187500D01*
X187048Y86813D01*
X186861Y86361D01*
Y67139D01*
X186993Y66820D01*
X186861Y66500D01*
Y50639D01*
X177000D01*
X176548Y50452D01*
X176361Y50000D01*
Y1011D01*
X131639D01*
Y15861D01*
X131507Y16180D01*
X131639Y16500D01*
Y51500D01*
X131507Y51820D01*
X131639Y52139D01*
Y64361D01*
X131507Y64680D01*
X131639Y65000D01*
Y87000D01*
Y103500D01*
Y103500D01*
X131639Y129639D01*
X137500Y135500D01*
X344500Y135500D01*
D02*
G37*
G36*
X131000Y883D02*
X3117D01*
X1000Y3000D01*
Y15741D01*
X1179Y15861D01*
X131000D01*
Y883D01*
D02*
G37*
%LPC*%
G36*
X61087Y225453D02*
X58224D01*
Y223837D01*
X58005Y223626D01*
X57224Y223259D01*
X56852Y223413D01*
X56148D01*
X55496Y223144D01*
X54998Y222645D01*
X54728Y221994D01*
Y221289D01*
X54998Y220638D01*
X54697Y219654D01*
X54697D01*
Y212370D01*
X55357D01*
Y210677D01*
X55357Y210476D01*
X55357Y210476D01*
X54572Y209690D01*
X54571Y209689D01*
X51613D01*
Y205311D01*
X55387D01*
Y205704D01*
X55711Y206599D01*
X56136Y206684D01*
X56497Y206925D01*
X57472Y207900D01*
X58326Y207046D01*
Y203311D01*
X58326Y202689D01*
X58326Y201689D01*
Y200494D01*
X55515D01*
Y201183D01*
X55424Y201640D01*
X55165Y202028D01*
X54778Y202286D01*
X54321Y202377D01*
X53159D01*
X52702Y202286D01*
X52315Y202028D01*
X52056Y201640D01*
X51965Y201183D01*
Y197581D01*
X52056Y197124D01*
X52064Y197112D01*
X51587Y196112D01*
X49740D01*
X48035Y197817D01*
Y200849D01*
X48958Y201771D01*
X48958Y201771D01*
X49199Y202132D01*
X49283Y202558D01*
X49283Y202558D01*
Y205311D01*
X50059D01*
Y209689D01*
X46284D01*
Y205311D01*
X47060D01*
Y203018D01*
X46419Y202377D01*
X45679D01*
X45222Y202286D01*
X44835Y202028D01*
X44576Y201640D01*
X44485Y201183D01*
Y197581D01*
X44576Y197124D01*
X44584Y197112D01*
X44106Y196112D01*
X42886D01*
X42886Y196112D01*
X42460Y196027D01*
X42100Y195786D01*
X42100Y195786D01*
X40274Y193961D01*
X36726D01*
X34690Y195996D01*
X34330Y196237D01*
X33904Y196322D01*
X33904Y196322D01*
X33851D01*
X33593Y196631D01*
X33244Y197283D01*
X33524Y198270D01*
X35826D01*
Y196535D01*
X41174D01*
Y201843D01*
X41174Y202465D01*
X41174Y203465D01*
Y208772D01*
X37399D01*
X35836Y210336D01*
X35836Y210336D01*
X35080Y211091D01*
Y212370D01*
X35740D01*
Y219654D01*
X35740Y219654D01*
X35597Y220482D01*
X36072Y221235D01*
X36670Y221410D01*
X38587D01*
Y225453D01*
X35724D01*
Y223695D01*
X35506Y223485D01*
X34724Y223118D01*
X34352Y223272D01*
X33648D01*
X32996Y223002D01*
X32498Y222504D01*
X32228Y221852D01*
Y221148D01*
X32433Y220654D01*
X32197Y219654D01*
X32197D01*
Y212370D01*
X32857D01*
Y210677D01*
X32857Y210630D01*
X32233Y209770D01*
X32102Y209689D01*
X29113D01*
Y205311D01*
X32887D01*
Y205704D01*
X33211Y206599D01*
X33636Y206684D01*
X33997Y206925D01*
X35049Y207977D01*
X35826Y207200D01*
Y203465D01*
X35826Y202843D01*
X35826Y201843D01*
Y200494D01*
X33275D01*
Y201183D01*
X33184Y201640D01*
X32925Y202028D01*
X32538Y202286D01*
X32081Y202377D01*
X30919D01*
X30462Y202286D01*
X30075Y202028D01*
X29816Y201640D01*
X29725Y201183D01*
Y197581D01*
X29777Y197322D01*
X29406Y196631D01*
X29149Y196322D01*
X27432D01*
X25795Y197959D01*
Y200849D01*
X26458Y201512D01*
X26458Y201512D01*
X26699Y201872D01*
X26783Y202298D01*
X26783Y202298D01*
Y205311D01*
X27559D01*
Y209689D01*
X23784D01*
Y205311D01*
X24560D01*
Y202759D01*
X24178Y202377D01*
X23439D01*
X22982Y202286D01*
X22594Y202028D01*
X22336Y201640D01*
X22245Y201183D01*
Y197581D01*
X22336Y197124D01*
X22594Y196736D01*
X22982Y196477D01*
X23439Y196387D01*
X24222D01*
X25637Y194971D01*
X25675Y194795D01*
X25486Y193765D01*
X25461Y193734D01*
X24222Y192495D01*
X23439D01*
X22982Y192404D01*
X22594Y192146D01*
X22336Y191758D01*
X22245Y191301D01*
Y187699D01*
X22336Y187242D01*
X22594Y186854D01*
X22898Y186652D01*
Y185403D01*
X22498Y185004D01*
X22228Y184352D01*
Y183648D01*
X22498Y182996D01*
X22996Y182498D01*
X23648Y182228D01*
X24352D01*
X25004Y182498D01*
X25502Y182996D01*
X25772Y183648D01*
Y184352D01*
X25502Y185004D01*
X25122Y185384D01*
Y186057D01*
X26122Y186487D01*
X26648Y185988D01*
Y185740D01*
X26648Y185740D01*
X26733Y185315D01*
X26974Y184954D01*
X31316Y180612D01*
X31201Y180043D01*
X30942Y179612D01*
X24272D01*
X24272Y179612D01*
X23846Y179527D01*
X23486Y179286D01*
X23486Y179286D01*
X21533Y177334D01*
X19530D01*
X19073Y177243D01*
X18685Y176984D01*
X18427Y176597D01*
X18336Y176140D01*
Y174978D01*
X18427Y174521D01*
X18685Y174134D01*
X19073Y173875D01*
X19530Y173784D01*
X23132D01*
X23589Y173875D01*
X23977Y174134D01*
X24236Y174521D01*
X24326Y174978D01*
Y176140D01*
X24236Y176594D01*
X24275Y176647D01*
X24860Y177388D01*
X39851D01*
X41505Y175734D01*
Y174951D01*
X41596Y174494D01*
X41854Y174106D01*
X42242Y173847D01*
X42699Y173757D01*
X45879D01*
X47113Y172523D01*
X46854Y171553D01*
X46305Y171415D01*
X38502D01*
X38303Y172415D01*
X38504Y172498D01*
X39002Y172996D01*
X39272Y173648D01*
Y174352D01*
X39002Y175004D01*
X38504Y175502D01*
X37852Y175772D01*
X37148D01*
X36496Y175502D01*
X35998Y175004D01*
X35728Y174352D01*
Y174316D01*
X34661Y173248D01*
X33853D01*
X33471Y173503D01*
X33014Y173594D01*
X29412D01*
X28955Y173503D01*
X28567Y173244D01*
X28308Y172857D01*
X28218Y172400D01*
Y171238D01*
X28308Y170781D01*
X28465Y170547D01*
X28567Y170383D01*
Y169515D01*
X28465Y169351D01*
X28308Y169116D01*
X28218Y168659D01*
Y167498D01*
X28308Y167041D01*
X28567Y166654D01*
X28955Y166395D01*
X29412Y166304D01*
X33014D01*
X33471Y166395D01*
X33858Y166654D01*
X34117Y167041D01*
X34208Y167498D01*
Y168281D01*
X35118Y169191D01*
X40596D01*
X41505Y168632D01*
Y167471D01*
X41596Y167014D01*
X41854Y166626D01*
X42242Y166367D01*
X42699Y166276D01*
X43388D01*
Y162390D01*
X43388Y162390D01*
X43398Y162342D01*
Y159257D01*
X42406Y158265D01*
X26280D01*
X25319Y159226D01*
Y164347D01*
X22443D01*
Y166304D01*
X23132D01*
X23589Y166395D01*
X23977Y166654D01*
X24236Y167041D01*
X24326Y167498D01*
Y168659D01*
X24236Y169116D01*
X23977Y169504D01*
X23589Y169763D01*
X23132Y169854D01*
X19530D01*
X19073Y169763D01*
X18685Y169504D01*
X18427Y169116D01*
X18336Y168659D01*
Y167498D01*
X18427Y167041D01*
X18685Y166654D01*
X19073Y166395D01*
X19530Y166304D01*
X20219D01*
Y163413D01*
X20304Y162988D01*
X20398Y162847D01*
Y157653D01*
X23746D01*
X25033Y156367D01*
X25033Y156367D01*
X25393Y156126D01*
X25819Y156042D01*
X42866D01*
X42866Y156042D01*
X43292Y156126D01*
X43652Y156367D01*
X44970Y157685D01*
X46746D01*
X48351Y156080D01*
X48351Y156080D01*
X48712Y155839D01*
X49138Y155754D01*
X49138Y155754D01*
X64921D01*
X64922Y155754D01*
X65347Y155839D01*
X65708Y156080D01*
X67600Y157973D01*
X69377D01*
X71135Y156214D01*
X71135Y156214D01*
X71496Y155973D01*
X71922Y155888D01*
X86598D01*
X86598Y155888D01*
X87024Y155973D01*
X87384Y156214D01*
X88812Y157642D01*
X91474D01*
X92761Y156356D01*
X92761Y156356D01*
X93121Y156114D01*
X93547Y156030D01*
X102101D01*
X102101Y156030D01*
X102526Y156114D01*
X102887Y156356D01*
X103303Y156772D01*
X103594Y156751D01*
X103648Y156728D01*
X103906D01*
X104314Y156699D01*
X104799Y156214D01*
X105160Y155973D01*
X105586Y155888D01*
X105586Y155888D01*
X117244D01*
X117244Y155888D01*
X117670Y155973D01*
X118030Y156214D01*
X119470Y157653D01*
X122819D01*
Y161888D01*
X125786Y164856D01*
X125786Y164856D01*
X126027Y165216D01*
X126112Y165642D01*
X126112Y165642D01*
Y167165D01*
X126808D01*
X127296Y167262D01*
X127710Y167539D01*
X127987Y167953D01*
X128031Y168173D01*
X129346Y169488D01*
X129587Y169849D01*
X129671Y170274D01*
X129671Y170274D01*
Y176844D01*
X129671Y176844D01*
X129587Y177269D01*
X129539Y177341D01*
X129527Y177399D01*
X129286Y177760D01*
X129286Y177760D01*
X123929Y183117D01*
X123568Y183358D01*
X123143Y183443D01*
X122819Y184338D01*
Y185404D01*
X122840Y185512D01*
X122840Y185512D01*
Y185954D01*
X125791Y188904D01*
X125791Y188904D01*
X126032Y189265D01*
X126117Y189690D01*
Y190224D01*
X126812D01*
X127301Y190321D01*
X127715Y190598D01*
X127991Y191012D01*
X128088Y191500D01*
X127991Y191988D01*
X127715Y192402D01*
Y193157D01*
X127991Y193571D01*
X128088Y194059D01*
X127991Y194547D01*
X127715Y194961D01*
Y195716D01*
X127991Y196130D01*
X128088Y196618D01*
X127991Y197107D01*
X127715Y197520D01*
Y198275D01*
X127991Y198689D01*
X128088Y199177D01*
X127991Y199665D01*
X127715Y200079D01*
X127301Y200356D01*
X126863Y200443D01*
X126762Y200595D01*
X126459Y201453D01*
X126502Y201496D01*
X126772Y202148D01*
Y202852D01*
X126502Y203504D01*
X126004Y204002D01*
X125352Y204272D01*
X124648D01*
X123996Y204002D01*
X123498Y203504D01*
X123228Y202852D01*
Y202148D01*
X123498Y201496D01*
X123541Y201453D01*
X123253Y200616D01*
X123139Y200442D01*
X122708Y200356D01*
X122294Y200079D01*
X122018Y199665D01*
X121315Y199612D01*
X121315Y199612D01*
X119313D01*
X119048Y200071D01*
X118571Y200548D01*
X117988Y200885D01*
X117337Y201059D01*
X116663D01*
X116012Y200885D01*
X115429Y200548D01*
X114985Y200103D01*
X114684Y200073D01*
X113928Y200078D01*
X113504Y200502D01*
X112852Y200772D01*
X112148D01*
X111496Y200502D01*
X110998Y200004D01*
X110728Y199352D01*
Y198648D01*
X110998Y197996D01*
X111496Y197498D01*
X112148Y197228D01*
X112852D01*
X113504Y197498D01*
X113644Y197638D01*
X114582D01*
X114615Y197512D01*
X114952Y196929D01*
X115270Y196611D01*
X115361Y196000D01*
X115270Y195389D01*
X114952Y195071D01*
X114856Y194904D01*
X114596Y194808D01*
X113781Y194759D01*
X113683Y194791D01*
X113418Y195056D01*
X112767Y195326D01*
X112063D01*
X111411Y195056D01*
X110913Y194557D01*
X110643Y193906D01*
Y193201D01*
X110757Y192927D01*
X110094Y192265D01*
X108346D01*
Y193744D01*
X106439D01*
X105544Y194068D01*
X105459Y194493D01*
X105219Y194854D01*
X105219Y194854D01*
X104691Y195381D01*
X105105Y196381D01*
X107806D01*
Y201689D01*
X107806Y202311D01*
X107806Y203311D01*
Y208618D01*
X104032D01*
X103612Y209038D01*
Y212358D01*
X104272D01*
Y219642D01*
X104272D01*
X104041Y220493D01*
X104536Y221319D01*
X105232Y221398D01*
X107118D01*
Y225441D01*
X104256D01*
Y223805D01*
X104004Y223584D01*
X103256Y223246D01*
X102852Y223413D01*
X102148D01*
X101496Y223144D01*
X100998Y222645D01*
X100728Y221994D01*
Y221289D01*
X100998Y220638D01*
X100728Y219642D01*
X100728D01*
Y212358D01*
X101388D01*
Y209802D01*
X100917Y209754D01*
X100020Y210189D01*
Y210189D01*
X96245D01*
Y205811D01*
X100020D01*
Y206927D01*
X100249Y206973D01*
X100609Y207214D01*
X100700Y207304D01*
X101794Y207304D01*
X102459Y206640D01*
Y203311D01*
X102459Y202689D01*
X102459Y201819D01*
X101752Y201112D01*
X99775D01*
Y201801D01*
X99684Y202258D01*
X99425Y202646D01*
X99038Y202905D01*
X98581Y202995D01*
X97419D01*
X96962Y202905D01*
X96575Y202646D01*
X96316Y202258D01*
X96225Y201801D01*
Y198199D01*
X96316Y197742D01*
X96343Y197702D01*
X95889Y196702D01*
X94170D01*
X92295Y198577D01*
Y201801D01*
X92204Y202258D01*
X91945Y202646D01*
X91632Y202855D01*
Y204953D01*
X92490Y205811D01*
X94691D01*
Y210189D01*
X90917D01*
Y207383D01*
X89733Y206200D01*
X89492Y205839D01*
X89408Y205413D01*
X89408Y205413D01*
Y202855D01*
X89095Y202646D01*
X88836Y202258D01*
X88745Y201801D01*
Y198199D01*
X88836Y197742D01*
X88862Y197702D01*
X88408Y196702D01*
X85674D01*
Y201689D01*
X85674Y202311D01*
X85674Y203311D01*
Y208618D01*
X81899D01*
X80612Y209906D01*
Y212358D01*
X81272D01*
Y219642D01*
X81272Y219642D01*
X81224Y220417D01*
X81674Y221118D01*
X82015Y221398D01*
X84118D01*
Y225441D01*
X81256D01*
Y223306D01*
X81004Y223084D01*
X80256Y222746D01*
X79852Y222913D01*
X79148D01*
X78496Y222644D01*
X77998Y222145D01*
X77728Y221494D01*
Y220789D01*
X77789Y220642D01*
X77728Y219642D01*
X77728D01*
Y212358D01*
X78388D01*
Y210982D01*
X77887Y210189D01*
X74113D01*
Y205811D01*
X77887D01*
Y206083D01*
X78346Y206888D01*
X78772Y206973D01*
X79132Y207214D01*
X79582Y207663D01*
X80326Y206994D01*
Y203311D01*
X80326Y202689D01*
X80326Y201701D01*
X79619Y200994D01*
X77775D01*
Y201683D01*
X77684Y202140D01*
X77425Y202527D01*
X77038Y202786D01*
X76581Y202877D01*
X75419D01*
X74962Y202786D01*
X74575Y202527D01*
X74316Y202140D01*
X74225Y201683D01*
Y198081D01*
X74316Y197624D01*
X74324Y197612D01*
X73846Y196612D01*
X72716D01*
X70295Y199033D01*
Y201683D01*
X70204Y202140D01*
X69945Y202527D01*
X69612Y202750D01*
Y205066D01*
X70357Y205811D01*
X72559D01*
Y210189D01*
X68784D01*
Y207383D01*
X67714Y206313D01*
X67473Y205952D01*
X67388Y205526D01*
X67388Y205526D01*
Y202724D01*
X67094Y202527D01*
X66836Y202140D01*
X66745Y201683D01*
Y198081D01*
X66836Y197624D01*
X66843Y197612D01*
X66366Y196612D01*
X64397D01*
X63674Y197369D01*
Y201689D01*
X63674Y202311D01*
X63674Y203311D01*
Y208618D01*
X59899D01*
X58259Y210259D01*
X58259Y210259D01*
X57580Y210937D01*
Y212370D01*
X58240D01*
Y219654D01*
X58240D01*
X58036Y220499D01*
X58579Y221328D01*
X59238Y221410D01*
X61087D01*
Y225453D01*
D02*
G37*
G36*
X143157Y225500D02*
X139795D01*
X136433D01*
Y221612D01*
X133831D01*
Y225500D01*
X130468D01*
X127106D01*
Y221457D01*
X126540Y220691D01*
X125549Y219701D01*
X123579D01*
Y219701D01*
X123185D01*
Y219701D01*
X119642D01*
Y212417D01*
X120177D01*
Y210189D01*
X119277D01*
Y205811D01*
X123051D01*
Y206888D01*
X133039D01*
X138214Y201714D01*
X138214Y201714D01*
X138575Y201473D01*
X139000Y201388D01*
X150039D01*
X153982Y197445D01*
X154343Y197204D01*
X154768Y197120D01*
X154768Y197120D01*
X156086D01*
Y195660D01*
X162811D01*
Y198310D01*
X163735Y198692D01*
X164819Y197609D01*
X164819Y197609D01*
X165180Y197368D01*
X165605Y197283D01*
X165929D01*
Y195660D01*
X172654D01*
Y200804D01*
X165929D01*
Y200804D01*
X165109Y200464D01*
X156786Y208786D01*
X156425Y209027D01*
X156000Y209112D01*
X156000Y209112D01*
X146020D01*
Y210189D01*
X145635D01*
Y212417D01*
X146685D01*
Y212417D01*
X147079D01*
Y212417D01*
X150622D01*
Y219388D01*
X167228D01*
Y212370D01*
X167301D01*
X167845Y211370D01*
X167817Y211230D01*
X167817Y211230D01*
Y210189D01*
X166245D01*
Y205811D01*
X170020D01*
Y206888D01*
X172039D01*
X177124Y201804D01*
X176710Y200804D01*
X175771D01*
Y195660D01*
X182497D01*
Y200804D01*
X180246D01*
Y201366D01*
X180161Y201792D01*
X179920Y202152D01*
X173286Y208786D01*
X172925Y209027D01*
X172500Y209112D01*
X172500Y209112D01*
X170041D01*
Y210946D01*
X170112Y211301D01*
X170112Y211301D01*
Y211643D01*
X170772Y212370D01*
X171165D01*
Y212370D01*
X174709D01*
Y219388D01*
X191228D01*
Y212370D01*
X191888D01*
Y210189D01*
X190245D01*
Y207685D01*
X188190Y205630D01*
X187949Y205269D01*
X187864Y204844D01*
X187864Y204844D01*
Y200804D01*
X185614D01*
Y195660D01*
X192339D01*
Y200804D01*
X190088D01*
Y204383D01*
X191516Y205811D01*
X194020D01*
Y208733D01*
X194027Y208744D01*
X194112Y209169D01*
X194112Y209169D01*
Y211643D01*
X194772Y212370D01*
X195165D01*
Y212370D01*
X198709D01*
Y217249D01*
X199633Y217631D01*
X214766Y202498D01*
Y200315D01*
X208137D01*
Y199967D01*
X206693D01*
Y202547D01*
X199606D01*
Y196641D01*
X206693D01*
Y197743D01*
X208137D01*
Y195172D01*
X214766D01*
Y192828D01*
X208137D01*
Y187685D01*
X210388D01*
Y185500D01*
X210388Y185500D01*
X210473Y185074D01*
X210714Y184714D01*
X211336Y184092D01*
X211336Y184092D01*
X219928Y175500D01*
X216539Y172112D01*
X159485D01*
X159059Y172027D01*
X158698Y171786D01*
X158698Y171786D01*
X156694Y169782D01*
X156453Y169421D01*
X156368Y168995D01*
X156368Y168995D01*
Y166750D01*
X155250D01*
Y171835D01*
X155250Y171835D01*
X155165Y172260D01*
X154924Y172621D01*
X154924Y172621D01*
X153319Y174226D01*
Y179347D01*
X148398D01*
X148112Y180228D01*
Y182000D01*
X148027Y182425D01*
X147786Y182786D01*
X147786Y182786D01*
X145786Y184786D01*
X145425Y185027D01*
X145000Y185112D01*
X144244Y185718D01*
Y187346D01*
X139323D01*
X139112Y188259D01*
Y190248D01*
X141059D01*
Y191150D01*
X141763Y191410D01*
X142059Y191435D01*
X142496Y190998D01*
X143148Y190728D01*
X143852D01*
X144504Y190998D01*
X145002Y191496D01*
X145272Y192148D01*
Y192852D01*
X145002Y193504D01*
X144504Y194002D01*
X143852Y194272D01*
X143355D01*
X143078Y194503D01*
X143100Y195660D01*
X143149Y195728D01*
X143852D01*
X144504Y195998D01*
X145002Y196496D01*
X145272Y197148D01*
Y197852D01*
X145002Y198504D01*
X144504Y199002D01*
X143852Y199272D01*
X143148D01*
X142496Y199002D01*
X141998Y198504D01*
X141728Y197852D01*
Y197842D01*
X141616Y197730D01*
X140396D01*
X140296Y197797D01*
X139808Y197894D01*
X136192D01*
X135704Y197797D01*
X135290Y197520D01*
X135013Y197107D01*
X134916Y196618D01*
X135013Y196130D01*
X135290Y195716D01*
Y194961D01*
X135013Y194547D01*
X134916Y194059D01*
X134977Y193752D01*
X134941Y192752D01*
X134941Y190248D01*
X136888D01*
Y185250D01*
X136888Y185250D01*
X136973Y184824D01*
X137214Y184464D01*
X138213Y183464D01*
X138574Y183223D01*
X138999Y183139D01*
X139323Y182244D01*
Y180654D01*
X144244D01*
Y181769D01*
X145136Y182139D01*
X145888Y181521D01*
Y177201D01*
X145888Y177201D01*
X145888Y177201D01*
Y175924D01*
X145424Y175704D01*
X144888Y175617D01*
X144504Y176002D01*
X143852Y176272D01*
X143148D01*
X142496Y176002D01*
X141998Y175504D01*
X141728Y174852D01*
Y174842D01*
X141557Y174671D01*
X140392D01*
X140292Y174738D01*
X139803Y174835D01*
X136188D01*
X135699Y174738D01*
X135285Y174461D01*
X135009Y174047D01*
X134912Y173559D01*
X135009Y173071D01*
X135285Y172657D01*
Y171902D01*
X135009Y171488D01*
X134912Y171000D01*
X134973Y170693D01*
X134936Y169693D01*
X134936Y167189D01*
X136883D01*
Y164788D01*
X136883Y164788D01*
X136968Y164363D01*
X137209Y164002D01*
X138741Y162470D01*
X138741Y162470D01*
X139102Y162229D01*
X139323Y162185D01*
Y157653D01*
X144244D01*
Y158403D01*
X145244Y158750D01*
X145496Y158498D01*
X146148Y158228D01*
X146852D01*
X147504Y158498D01*
X147965Y158449D01*
X148227Y158274D01*
X148535Y158213D01*
X152465D01*
X152773Y158274D01*
X153035Y158449D01*
X153117Y158571D01*
X153276Y158648D01*
X153718Y158733D01*
X154238Y158756D01*
X154496Y158498D01*
X155148Y158228D01*
X155852D01*
X156504Y158498D01*
X156894Y158888D01*
X157991D01*
X158026Y158711D01*
X158201Y158449D01*
X158463Y158274D01*
X158772Y158213D01*
X162701D01*
X163010Y158274D01*
X163271Y158449D01*
X163446Y158711D01*
X163508Y159020D01*
Y160980D01*
X163446Y161289D01*
X163271Y161551D01*
X163010Y161726D01*
X162701Y161787D01*
X158772D01*
X158463Y161726D01*
X158201Y161551D01*
X158026Y161289D01*
X157991Y161112D01*
X156894D01*
X156504Y161502D01*
X155852Y161772D01*
X155148D01*
X154497Y161502D01*
X153438Y161725D01*
X153156Y162045D01*
X153209Y162446D01*
X153226Y162530D01*
X153271Y162760D01*
Y163442D01*
X153426Y163473D01*
X153786Y163714D01*
X154598Y164526D01*
X156895D01*
X156895Y164526D01*
X157320Y164611D01*
X157681Y164851D01*
X158266Y165437D01*
X158267Y165437D01*
X158477Y165752D01*
X158772Y165693D01*
X162701D01*
X163010Y165755D01*
X163271Y165929D01*
X163446Y166191D01*
X163508Y166500D01*
Y168461D01*
X163446Y168769D01*
X163367Y168888D01*
X163529Y169459D01*
X163789Y169888D01*
X217000D01*
X217000Y169888D01*
X217425Y169973D01*
X217786Y170214D01*
X221461Y173888D01*
X222654D01*
Y173181D01*
X227774D01*
X229488Y171467D01*
Y164905D01*
X229488Y164905D01*
X229573Y164479D01*
X229814Y164119D01*
X230762Y163170D01*
X231123Y162929D01*
X231548Y162845D01*
X231548Y162845D01*
X235038D01*
X235038Y162845D01*
X235388Y162914D01*
X235501Y162906D01*
X236388Y162351D01*
Y161751D01*
X236388Y161751D01*
X236473Y161325D01*
X236714Y160964D01*
X239464Y158214D01*
X239464Y158214D01*
X239825Y157973D01*
X240251Y157888D01*
X251500D01*
X251500Y157888D01*
X251925Y157973D01*
X252286Y158214D01*
X252392Y158319D01*
X252510Y158398D01*
X253149Y159037D01*
X253149Y159037D01*
X253228Y159155D01*
X253736Y159663D01*
X255019D01*
X255019Y159663D01*
X255126Y159685D01*
X259863D01*
Y163388D01*
X262000D01*
X262000Y163388D01*
X262425Y163473D01*
X262786Y163714D01*
X264033Y164960D01*
X265146Y164849D01*
X265305Y164592D01*
X265305Y164182D01*
Y161836D01*
X265305D01*
Y161245D01*
X265305D01*
Y159139D01*
X264896Y158308D01*
X264896Y157659D01*
Y156233D01*
X267471D01*
Y155733D01*
X267971D01*
Y153158D01*
X269396D01*
X270046Y153158D01*
X270876Y153568D01*
X271046D01*
X273573Y153568D01*
X273983Y153568D01*
X275920D01*
X276329Y153568D01*
Y153568D01*
X276920D01*
Y153568D01*
X279266D01*
X279676Y153568D01*
Y153568D01*
X280266D01*
Y153568D01*
X283612Y153568D01*
X284022Y153568D01*
X286959Y153568D01*
X287368Y153568D01*
X290152Y153568D01*
X290859Y152861D01*
Y150753D01*
X290859Y150753D01*
X290944Y150327D01*
X291184Y149967D01*
X293677Y147474D01*
X294037Y147233D01*
X294463Y147149D01*
X295935D01*
X295998Y146996D01*
X296496Y146498D01*
X297148Y146228D01*
X297852D01*
X298504Y146498D01*
X299002Y146996D01*
X299272Y147648D01*
Y148352D01*
X299002Y149004D01*
X298504Y149502D01*
X297852Y149772D01*
X297148D01*
X296496Y149502D01*
X296367Y149373D01*
X294923D01*
X293083Y151213D01*
Y152804D01*
X293652Y153568D01*
X294083Y153568D01*
X296408D01*
Y153568D01*
X296998D01*
Y153568D01*
X300345Y153568D01*
X300754Y153568D01*
X303691Y153568D01*
X304101Y153568D01*
X307038Y153568D01*
X307447Y153568D01*
X310384Y153568D01*
X310794Y153568D01*
X313731Y153568D01*
X314140Y153568D01*
X317077Y153568D01*
X317487Y153568D01*
X319184D01*
X320014Y153158D01*
X320663Y153158D01*
X322089D01*
Y155733D01*
X322589D01*
Y156233D01*
X325164D01*
Y157659D01*
X325164Y158308D01*
X324754Y159139D01*
Y159308D01*
X324754Y161836D01*
X324754Y162245D01*
X324754Y165182D01*
X324754Y165592D01*
X324754Y168529D01*
X324754Y168938D01*
X324754Y171875D01*
X324754Y172284D01*
X324754Y175222D01*
X324754Y175631D01*
X324754Y178568D01*
X324754Y178977D01*
X324754Y181914D01*
X324754Y182324D01*
X324754Y185261D01*
X324754Y185670D01*
X324754Y188607D01*
X324754Y189017D01*
X324754Y191954D01*
X324754Y192363D01*
Y194060D01*
X325164Y194891D01*
X325164Y195540D01*
Y196178D01*
X320014D01*
Y194891D01*
X320424Y194060D01*
Y193891D01*
X320424Y191363D01*
X320424Y190954D01*
X320424Y188017D01*
X320424Y187607D01*
X320424Y184670D01*
X320424Y184261D01*
X320424Y181324D01*
X320424Y180914D01*
X320424Y177977D01*
X320424Y177568D01*
X320424Y174631D01*
X320424Y174222D01*
X320424Y171284D01*
X320424Y170875D01*
X320424Y167938D01*
X320424Y167529D01*
X320424Y164592D01*
X320424Y164182D01*
X320424Y161245D01*
X320424Y160836D01*
Y159139D01*
X320014Y158308D01*
X319184Y157899D01*
X319014D01*
X316487Y157899D01*
X316077Y157899D01*
X313140Y157899D01*
X312731Y157899D01*
X309794Y157899D01*
X309384Y157899D01*
X306447Y157899D01*
X306038Y157899D01*
X303101Y157899D01*
X302691Y157899D01*
X300754D01*
X300345Y157899D01*
X299488Y158245D01*
Y160835D01*
X299653Y161000D01*
X300205D01*
X300856Y161270D01*
X301354Y161768D01*
X301624Y162419D01*
Y163124D01*
X301354Y163775D01*
X300856Y164274D01*
X300205Y164543D01*
X299500D01*
X298849Y164274D01*
X298351Y163775D01*
X298081Y163124D01*
Y162860D01*
X297254Y162153D01*
X296744Y162262D01*
X296093Y162531D01*
X295388D01*
X294737Y162262D01*
X294238Y161763D01*
X293969Y161112D01*
Y160407D01*
X294058Y160190D01*
X294003Y160106D01*
X293918Y159681D01*
X293918Y159681D01*
Y158245D01*
X293061Y157899D01*
X292652Y157899D01*
X289908Y157899D01*
X289523Y158283D01*
X289330Y159279D01*
X289600Y159931D01*
Y160635D01*
X289330Y161286D01*
X288831Y161785D01*
X288180Y162055D01*
X287476D01*
X286824Y161785D01*
X286326Y161286D01*
X286056Y160635D01*
Y159931D01*
X286326Y159279D01*
X286781Y158825D01*
X286801Y158720D01*
X286126Y157899D01*
X283995D01*
X283796Y158899D01*
X283916Y158948D01*
X284414Y159447D01*
X284684Y160098D01*
Y160802D01*
X284414Y161454D01*
X283916Y161952D01*
X283264Y162222D01*
X282560D01*
X281908Y161952D01*
X281410Y161454D01*
X281216Y160986D01*
X280949Y160948D01*
X280219Y160985D01*
X280216Y160986D01*
X280002Y161504D01*
X279504Y162002D01*
X278852Y162272D01*
X278148D01*
X277496Y162002D01*
X276998Y161504D01*
X276992Y161489D01*
X275909D01*
X275834Y161672D01*
X275335Y162170D01*
X274684Y162440D01*
X274560D01*
X274160Y163317D01*
X274137Y163440D01*
X274358Y163772D01*
X274443Y164197D01*
Y164266D01*
X275004Y164498D01*
X275502Y164996D01*
X275772Y165648D01*
Y166352D01*
X275502Y167004D01*
X275004Y167502D01*
X274352Y167772D01*
X273648D01*
X272996Y167502D01*
X272498Y167004D01*
X272228Y166352D01*
Y165648D01*
X272368Y165311D01*
X272304Y165215D01*
X272219Y164790D01*
X272219Y164790D01*
Y164658D01*
X270636Y163075D01*
X269636Y163489D01*
X269636Y165182D01*
X269636Y165592D01*
Y167938D01*
X269636D01*
Y168529D01*
X269636D01*
Y171284D01*
X269636D01*
Y171875D01*
X269636D01*
X269636Y175222D01*
X269636Y175631D01*
X269636Y178568D01*
X269636Y178977D01*
X269636Y181914D01*
X269636Y182324D01*
X269636Y185261D01*
X269636Y185670D01*
X269636Y188607D01*
X269636Y189017D01*
Y190954D01*
X269636Y191363D01*
X269636D01*
Y191954D01*
X269636D01*
X269636Y195153D01*
X270343Y195861D01*
X272134D01*
X272496Y195498D01*
X273148Y195228D01*
X273852D01*
X274504Y195498D01*
X275002Y195996D01*
X275272Y196648D01*
Y197352D01*
X275002Y198004D01*
X274504Y198502D01*
X273852Y198772D01*
X273148D01*
X272496Y198502D01*
X272079Y198084D01*
X270403D01*
X269636Y198647D01*
X269636Y199084D01*
Y200753D01*
X270046Y201584D01*
X270046Y202233D01*
Y202871D01*
X264896D01*
X264896Y201584D01*
X263971Y201403D01*
X263479D01*
X260454Y204428D01*
X260093Y204669D01*
X259668Y204754D01*
X259668Y204754D01*
X253847D01*
Y206102D01*
X247153D01*
Y204612D01*
X244346D01*
Y206102D01*
X244112D01*
Y213606D01*
X244502Y213996D01*
X244772Y214648D01*
Y215352D01*
X244502Y216004D01*
X244004Y216502D01*
X243352Y216772D01*
X242648D01*
X241996Y216502D01*
X241498Y216004D01*
X241228Y215352D01*
Y214648D01*
X241498Y213996D01*
X241888Y213606D01*
Y206102D01*
X237653D01*
Y204612D01*
X235086D01*
X234660Y204527D01*
X234299Y204286D01*
X234299Y204286D01*
X233714Y203700D01*
X233473Y203340D01*
X233388Y202914D01*
X233388Y202914D01*
Y192637D01*
X233388Y192637D01*
X233473Y192211D01*
X233714Y191851D01*
X233953Y191612D01*
X233538Y190612D01*
X232195D01*
X231770Y190527D01*
X231409Y190286D01*
X231096Y189974D01*
X229931Y190222D01*
X229780Y190448D01*
X229184Y190846D01*
X228969Y191802D01*
X229372Y192482D01*
X229690Y192502D01*
X230283D01*
Y200404D01*
X226677D01*
Y195943D01*
X226596Y195822D01*
X226512Y195396D01*
X226512Y195396D01*
Y192902D01*
X225970Y192360D01*
X222997D01*
X222537Y193360D01*
X222698Y193602D01*
X222838Y194305D01*
Y198601D01*
X222698Y199305D01*
X222300Y199901D01*
X221968Y200123D01*
Y202606D01*
X224236D01*
Y209512D01*
X224236Y209890D01*
X224349Y210843D01*
X224502Y210996D01*
X224772Y211648D01*
X225728D01*
X225998Y210996D01*
X226496Y210498D01*
X227148Y210228D01*
X227852D01*
X228504Y210498D01*
X228553Y210547D01*
X229305Y210843D01*
X229870Y210558D01*
X232331Y208097D01*
X232331Y208096D01*
X232692Y207855D01*
X233117Y207771D01*
X233384D01*
X233498Y207496D01*
X233996Y206998D01*
X234648Y206728D01*
X235352D01*
X236004Y206998D01*
X236502Y207496D01*
X236772Y208148D01*
Y208852D01*
X236502Y209504D01*
X236004Y210002D01*
X235352Y210272D01*
X234648D01*
X233997Y210002D01*
X233161Y210411D01*
X231403Y212169D01*
Y213870D01*
X231669D01*
Y214178D01*
X232669Y214593D01*
X232901Y214362D01*
X233686Y213908D01*
X234562Y213673D01*
X235469D01*
X236345Y213908D01*
X237131Y214362D01*
X237772Y215003D01*
X238226Y215788D01*
X238461Y216665D01*
Y217572D01*
X238226Y218448D01*
X237772Y219233D01*
X237131Y219875D01*
X236345Y220328D01*
X235469Y220563D01*
X234562D01*
X233686Y220328D01*
X232901Y219875D01*
X232669Y219643D01*
X231669Y220058D01*
Y220366D01*
X221843D01*
Y220776D01*
X220555D01*
Y217118D01*
Y213461D01*
X220649D01*
X221273Y212461D01*
X221228Y212352D01*
Y211648D01*
X221498Y210996D01*
X221605Y210890D01*
X221191Y209890D01*
X217150D01*
Y209075D01*
X216150Y208570D01*
X215772Y208849D01*
Y208852D01*
X215502Y209504D01*
X215004Y210002D01*
X214352Y210272D01*
X213648D01*
X212996Y210002D01*
X212498Y209504D01*
X212446Y209377D01*
X211304Y209104D01*
X199999Y220409D01*
X200414Y221410D01*
X201555D01*
Y225453D01*
X198693D01*
Y222349D01*
X198594Y221592D01*
X197738Y221382D01*
X197707Y221375D01*
X197313Y221297D01*
X196972Y221069D01*
X196755Y221286D01*
X196394Y221527D01*
X195968Y221612D01*
X195968Y221612D01*
X191244D01*
Y225453D01*
X187882D01*
X184520D01*
Y221612D01*
X181417D01*
Y225453D01*
X178055D01*
X174693D01*
Y222239D01*
X173969Y221612D01*
X173543Y221527D01*
X173182Y221286D01*
X172394Y221527D01*
X171968Y221612D01*
X171968Y221612D01*
X167244D01*
Y225453D01*
X163882D01*
X160520D01*
Y221612D01*
X157331D01*
Y225500D01*
X153969D01*
X150606D01*
Y221612D01*
X149969D01*
X149543Y221527D01*
X149182Y221286D01*
X148394Y221527D01*
X147968Y221612D01*
X147968Y221612D01*
X143157D01*
Y225500D01*
D02*
G37*
G36*
X119658D02*
X116795D01*
Y221457D01*
X119658D01*
Y225500D01*
D02*
G37*
G36*
X115795D02*
X112933D01*
Y221457D01*
X115795D01*
Y225500D01*
D02*
G37*
G36*
X205417Y225453D02*
X202555D01*
Y221410D01*
X205417D01*
Y225453D01*
D02*
G37*
G36*
X64949D02*
X62087D01*
Y221410D01*
X64949D01*
Y225453D01*
D02*
G37*
G36*
X50776D02*
X47913D01*
Y221410D01*
X50776D01*
Y225453D01*
D02*
G37*
G36*
X46913D02*
X44051D01*
Y221410D01*
X46913D01*
Y225453D01*
D02*
G37*
G36*
X42449D02*
X39587D01*
Y221410D01*
X42449D01*
Y225453D01*
D02*
G37*
G36*
X28276D02*
X25413D01*
Y221410D01*
X28276D01*
Y225453D01*
D02*
G37*
G36*
X110980Y225441D02*
X108118D01*
Y221398D01*
X110980D01*
Y225441D01*
D02*
G37*
G36*
X96807D02*
X93945D01*
Y221398D01*
X96807D01*
Y225441D01*
D02*
G37*
G36*
X92945D02*
X90083D01*
Y221398D01*
X92945D01*
Y225441D01*
D02*
G37*
G36*
X73807D02*
X70945D01*
Y221398D01*
X73807D01*
Y225441D01*
D02*
G37*
G36*
X69945D02*
X67083D01*
Y221398D01*
X69945D01*
Y225441D01*
D02*
G37*
G36*
X87980D02*
X85118D01*
Y221398D01*
X87980D01*
Y225441D01*
D02*
G37*
G36*
X219555Y220776D02*
X218268D01*
Y220467D01*
X217881Y220188D01*
X217268Y219978D01*
X216660Y220328D01*
X215784Y220563D01*
X214877D01*
X214001Y220328D01*
X213215Y219875D01*
X212574Y219233D01*
X212121Y218448D01*
X211886Y217572D01*
Y216665D01*
X212121Y215788D01*
X212574Y215003D01*
X213215Y214362D01*
X214001Y213908D01*
X214877Y213673D01*
X215784D01*
X216660Y213908D01*
X217268Y214259D01*
X217881Y214048D01*
X218268Y213769D01*
Y213461D01*
X219555D01*
Y217118D01*
Y220776D01*
D02*
G37*
G36*
X13539Y228347D02*
X11871D01*
X10236Y228022D01*
X8696Y227384D01*
X7309Y226457D01*
X6130Y225278D01*
X5204Y223892D01*
X4566Y222351D01*
X4241Y220716D01*
Y219049D01*
X4566Y217413D01*
X5204Y215873D01*
X6130Y214487D01*
X7309Y213307D01*
X8696Y212381D01*
X10236Y211743D01*
X11871Y211418D01*
X13539D01*
X15174Y211743D01*
X16715Y212381D01*
X18101Y213307D01*
X19280Y214487D01*
X20206Y215873D01*
X20844Y217413D01*
X21170Y219049D01*
Y220567D01*
X21274Y220798D01*
X22051Y221410D01*
X24413D01*
Y225453D01*
X21551D01*
Y223258D01*
X20551Y223059D01*
X20206Y223892D01*
X19280Y225278D01*
X18101Y226457D01*
X16715Y227384D01*
X15174Y228022D01*
X13539Y228347D01*
D02*
G37*
G36*
X252874Y230075D02*
X249134D01*
Y224760D01*
X249892D01*
Y213736D01*
X249134D01*
Y208421D01*
X252874D01*
Y209382D01*
X253661Y209967D01*
X254087Y210051D01*
X254448Y210293D01*
X255904Y211748D01*
X255904Y211748D01*
X256145Y212109D01*
X256197Y212371D01*
X256504Y212498D01*
X257002Y212996D01*
X257272Y213648D01*
Y214352D01*
X257002Y215004D01*
X256504Y215502D01*
X255852Y215772D01*
X255148D01*
X254496Y215502D01*
X253998Y215004D01*
X253780Y214478D01*
X253020Y214087D01*
X252768Y213992D01*
X252225Y214236D01*
X252116Y214320D01*
Y224760D01*
X252874D01*
Y230075D01*
D02*
G37*
G36*
X270046Y206218D02*
X264896D01*
Y204930D01*
Y203871D01*
X270046D01*
Y204930D01*
Y206218D01*
D02*
G37*
G36*
X343106Y230405D02*
X339366D01*
Y225091D01*
X340124D01*
Y214067D01*
X339366D01*
Y208752D01*
X340124D01*
Y204440D01*
X337787Y202102D01*
X336863Y202485D01*
Y202815D01*
X330137D01*
Y197672D01*
X336863D01*
Y198040D01*
X337257Y198888D01*
X337682Y198973D01*
X338043Y199214D01*
X342022Y203193D01*
X342022Y203193D01*
X342264Y203554D01*
X342348Y203980D01*
X342348Y203980D01*
Y208752D01*
X343106D01*
Y214067D01*
X342348D01*
Y225091D01*
X343106D01*
Y230405D01*
D02*
G37*
G36*
X325164Y206218D02*
X320014D01*
Y204930D01*
X320424Y204100D01*
Y202642D01*
X320014Y201812D01*
X320014Y201163D01*
Y200525D01*
X325164D01*
Y201812D01*
X324754Y202642D01*
Y204100D01*
X325164Y204930D01*
X325164Y205579D01*
Y206218D01*
D02*
G37*
G36*
Y199525D02*
X320014D01*
Y198237D01*
Y197178D01*
X325164D01*
Y198237D01*
Y199525D01*
D02*
G37*
G36*
X336863Y195328D02*
X330137D01*
Y190185D01*
X336863D01*
Y191388D01*
X339106D01*
X339496Y190998D01*
X340148Y190728D01*
X340852D01*
X341504Y190998D01*
X342002Y191496D01*
X342272Y192148D01*
Y192852D01*
X342002Y193504D01*
X341504Y194002D01*
X340852Y194272D01*
X340148D01*
X339496Y194002D01*
X339106Y193612D01*
X336863D01*
Y195328D01*
D02*
G37*
G36*
X192339Y193316D02*
X185614D01*
Y188173D01*
X187864D01*
Y185039D01*
X187864Y185039D01*
X187949Y184614D01*
X188190Y184253D01*
X189371Y183072D01*
X189371Y183072D01*
X193164Y179279D01*
Y177051D01*
X196599D01*
Y180655D01*
X195347D01*
X195023Y181087D01*
X195099Y181447D01*
X195439Y182171D01*
X195885Y182356D01*
X196384Y182855D01*
X196653Y183506D01*
Y184211D01*
X196384Y184862D01*
X195885Y185360D01*
X195234Y185630D01*
X194529D01*
X193878Y185360D01*
X193488Y184970D01*
X190618D01*
X190088Y185500D01*
Y188173D01*
X192339D01*
Y193316D01*
D02*
G37*
G36*
X182497D02*
X175771D01*
Y188173D01*
X178022D01*
Y185039D01*
X178022Y185039D01*
X178107Y184614D01*
X178348Y184253D01*
X179529Y183072D01*
X179529Y183072D01*
X183322Y179279D01*
Y177051D01*
X186757D01*
Y180655D01*
X185504D01*
X185181Y181087D01*
X185257Y181447D01*
X185596Y182171D01*
X186043Y182356D01*
X186541Y182855D01*
X186811Y183506D01*
Y184211D01*
X186541Y184862D01*
X186043Y185360D01*
X185392Y185630D01*
X184687D01*
X184036Y185360D01*
X183646Y184970D01*
X180775D01*
X180246Y185500D01*
Y188173D01*
X182497D01*
Y193316D01*
D02*
G37*
G36*
X172654D02*
X165929D01*
Y188173D01*
X168179D01*
Y185039D01*
X168179Y185039D01*
X168264Y184614D01*
X168505Y184253D01*
X169686Y183072D01*
X169686Y183072D01*
X173479Y179279D01*
Y177051D01*
X176914D01*
Y180655D01*
X175662D01*
X175338Y181087D01*
X175414Y181447D01*
X175753Y182171D01*
X176200Y182356D01*
X176699Y182855D01*
X176969Y183506D01*
Y184211D01*
X176699Y184862D01*
X176200Y185360D01*
X175549Y185630D01*
X174845D01*
X174193Y185360D01*
X173803Y184970D01*
X170933D01*
X170403Y185500D01*
Y188173D01*
X172654D01*
Y193316D01*
D02*
G37*
G36*
X162811D02*
X156086D01*
Y188173D01*
X158337D01*
Y185039D01*
X158337Y185039D01*
X158422Y184614D01*
X158663Y184253D01*
X159844Y183072D01*
X159844Y183072D01*
X163637Y179279D01*
Y177051D01*
X167072D01*
Y180655D01*
X165819D01*
X165496Y181087D01*
X165572Y181447D01*
X165911Y182171D01*
X166358Y182356D01*
X166856Y182855D01*
X167126Y183506D01*
Y184211D01*
X166856Y184862D01*
X166358Y185360D01*
X165707Y185630D01*
X165002D01*
X164351Y185360D01*
X163961Y184970D01*
X161091D01*
X160561Y185500D01*
Y188173D01*
X162811D01*
Y193316D01*
D02*
G37*
G36*
X333852Y187772D02*
X333148D01*
X332496Y187502D01*
X331998Y187004D01*
X331728Y186352D01*
Y185648D01*
X331998Y184996D01*
X332388Y184606D01*
Y181858D01*
X330177D01*
Y176714D01*
X336902D01*
Y181858D01*
X334612D01*
Y184606D01*
X335002Y184996D01*
X335272Y185648D01*
Y186352D01*
X335002Y187004D01*
X334504Y187502D01*
X333852Y187772D01*
D02*
G37*
G36*
X336902Y174371D02*
X330177D01*
Y169227D01*
X336902D01*
Y169227D01*
X337418Y169440D01*
X337959Y168899D01*
X337959Y168899D01*
X338320Y168658D01*
X338746Y168573D01*
X339957D01*
Y166732D01*
X347043D01*
Y172638D01*
X339957D01*
Y171399D01*
X338957Y171046D01*
X338012Y171991D01*
X337651Y172232D01*
X337226Y172317D01*
X336902Y173212D01*
Y174371D01*
D02*
G37*
G36*
X325164Y155233D02*
X323089D01*
Y153158D01*
X325164D01*
Y155233D01*
D02*
G37*
G36*
X266971D02*
X264896D01*
Y153158D01*
X266971D01*
Y155233D01*
D02*
G37*
G36*
X349085Y155363D02*
X343941D01*
Y153112D01*
X339078D01*
X339078Y153112D01*
X338652Y153027D01*
X338291Y152786D01*
X338001Y152496D01*
X337154Y152847D01*
Y152847D01*
X329846D01*
Y151612D01*
X328124D01*
X328124Y151612D01*
X327698Y151527D01*
X327338Y151286D01*
X324552Y148500D01*
X324000D01*
X323349Y148230D01*
X322850Y147732D01*
X322581Y147081D01*
Y146376D01*
X322664Y146176D01*
X322850Y145725D01*
X323349Y145226D01*
X324000Y144957D01*
X324705D01*
X325356Y145226D01*
X325629Y145500D01*
X325854Y145725D01*
X325992Y146057D01*
X326124Y146376D01*
Y146927D01*
X328585Y149388D01*
X329846D01*
Y147901D01*
X337154D01*
Y148393D01*
X337478Y149288D01*
X337903Y149373D01*
X338264Y149614D01*
X339538Y150888D01*
X343941D01*
Y148637D01*
X349085D01*
Y152130D01*
Y155363D01*
D02*
G37*
G36*
X263852Y152228D02*
X263148D01*
X262496Y151959D01*
X261998Y151460D01*
X261998Y151459D01*
X261818D01*
X261392Y151374D01*
X261032Y151133D01*
X257186Y147287D01*
X249122D01*
X248732Y147677D01*
X248081Y147947D01*
X247376D01*
X246725Y147677D01*
X246226Y147179D01*
X245957Y146528D01*
Y146176D01*
Y145823D01*
X246226Y145172D01*
X246725Y144674D01*
X247376Y144404D01*
X248081D01*
X248732Y144674D01*
X249122Y145064D01*
X257646D01*
X257646Y145064D01*
X258072Y145148D01*
X258433Y145389D01*
X258543Y145500D01*
X259219Y146176D01*
D01*
X262247Y149204D01*
X262496Y148955D01*
X263148Y148685D01*
X263852D01*
X264504Y148955D01*
X265002Y149453D01*
X265272Y150104D01*
Y150809D01*
X265002Y151460D01*
X264504Y151959D01*
X263852Y152228D01*
D02*
G37*
G36*
X242352Y147949D02*
X241648D01*
X240996Y147679D01*
X240498Y147181D01*
X240228Y146530D01*
Y146176D01*
Y145825D01*
X240498Y145174D01*
X240996Y144675D01*
X241648Y144405D01*
X242199D01*
X246391Y140214D01*
X246391Y140214D01*
X246752Y139973D01*
X247177Y139888D01*
X263530D01*
X263831Y139586D01*
X264483Y139317D01*
X265187D01*
X265839Y139586D01*
X266337Y140085D01*
X266607Y140736D01*
Y141441D01*
X266337Y142092D01*
X265839Y142590D01*
X265187Y142860D01*
X264483D01*
X263831Y142590D01*
X263353Y142112D01*
X247638D01*
X244764Y144985D01*
D01*
X244574Y145176D01*
D01*
X243772Y145978D01*
Y146530D01*
X243502Y147181D01*
X243004Y147679D01*
X242352Y147949D01*
D02*
G37*
G36*
X356572Y155363D02*
X351428D01*
Y153166D01*
D01*
Y148637D01*
X354997D01*
Y144500D01*
Y141122D01*
X354607Y140732D01*
X354337Y140081D01*
Y139376D01*
X354607Y138725D01*
X355105Y138226D01*
X355756Y137957D01*
X356461D01*
X357112Y138226D01*
X357611Y138725D01*
X357880Y139376D01*
Y140081D01*
X357611Y140732D01*
X357221Y141122D01*
Y144500D01*
Y149100D01*
X357136Y149526D01*
X356895Y149887D01*
X356895Y149887D01*
X356572Y150210D01*
D01*
Y155363D01*
D02*
G37*
%LPD*%
G36*
X101654Y193744D02*
Y188823D01*
X101654Y188823D01*
X101324Y187959D01*
X101006Y187747D01*
X101006Y187747D01*
X100367Y187108D01*
X100126Y186747D01*
X100042Y186322D01*
X100042Y186322D01*
Y184809D01*
X97384Y182151D01*
X87958D01*
Y183961D01*
X89531Y185534D01*
X91793D01*
X91793Y185534D01*
X92218Y185618D01*
X92579Y185859D01*
X93558Y186838D01*
X93558Y186838D01*
X93610Y186916D01*
X93816Y187123D01*
X94841D01*
X95298Y187214D01*
X95685Y187472D01*
X95944Y187860D01*
X96035Y188317D01*
Y191919D01*
X95944Y192376D01*
X95685Y192764D01*
X95298Y193023D01*
X94841Y193114D01*
X93679D01*
X93222Y193023D01*
X92988Y192866D01*
X92824Y192764D01*
X91956D01*
X91792Y192866D01*
X91557Y193023D01*
X91100Y193114D01*
X89939D01*
X89482Y193023D01*
X89095Y192764D01*
X88836Y192376D01*
X88745Y191919D01*
Y189435D01*
X86347D01*
Y193744D01*
X86989Y194478D01*
X93709D01*
X93709Y194478D01*
X93709Y194478D01*
X101011D01*
X101654Y193744D01*
D02*
G37*
G36*
X121958Y192077D02*
X121997Y191885D01*
X121921Y191500D01*
X122018Y191012D01*
X122294Y190598D01*
X122672Y190345D01*
X122711Y190313D01*
X122987Y189246D01*
X121088Y187346D01*
X117898D01*
Y180654D01*
X119255D01*
X119789Y179654D01*
X119748Y179592D01*
X115413D01*
X115413Y179592D01*
X114988Y179508D01*
X114627Y179267D01*
X114627Y179267D01*
X111472Y176112D01*
X107924D01*
X107257Y177112D01*
X107272Y177148D01*
Y177852D01*
X107002Y178504D01*
X106504Y179002D01*
X105852Y179272D01*
X105148D01*
X104496Y179002D01*
X103998Y178504D01*
X103728Y177852D01*
Y177148D01*
X103830Y176902D01*
X100702Y173775D01*
X97140D01*
X96683Y173684D01*
X96295Y173425D01*
X96036Y173038D01*
X95946Y172581D01*
Y172543D01*
X95503Y171612D01*
X95503Y171612D01*
X91612D01*
X91553Y171624D01*
X91552Y171624D01*
X86566D01*
X86506Y171612D01*
X84424D01*
X84204Y172076D01*
X84117Y172612D01*
X84502Y172996D01*
X84772Y173648D01*
Y174352D01*
X84502Y175004D01*
X84004Y175502D01*
X83352Y175772D01*
X82648D01*
X81996Y175502D01*
X81498Y175004D01*
X81228Y174352D01*
Y174342D01*
X80589Y173703D01*
X79106D01*
X78742Y173775D01*
X75140D01*
X74683Y173684D01*
X74295Y173425D01*
X74037Y173038D01*
X73946Y172582D01*
X73761Y171666D01*
X73695Y171612D01*
X73695Y171612D01*
X69612D01*
X69552Y171624D01*
X69552Y171624D01*
X64566D01*
X64506Y171612D01*
X61924D01*
X61704Y172076D01*
X61617Y172612D01*
X62002Y172996D01*
X62272Y173648D01*
Y174352D01*
X62002Y175004D01*
X61504Y175502D01*
X60852Y175772D01*
X60148D01*
X59496Y175502D01*
X58998Y175004D01*
X58728Y174352D01*
Y174342D01*
X57803Y173417D01*
X56728D01*
X56640Y173475D01*
X56183Y173566D01*
X52581D01*
X52124Y173475D01*
X51736Y173216D01*
X51588Y172995D01*
X50919Y172929D01*
X50502Y173004D01*
X50004Y173502D01*
X49352Y173772D01*
X49009D01*
X47495Y175285D01*
Y176112D01*
X47405Y176569D01*
X47146Y176957D01*
X46758Y177216D01*
X46301Y177306D01*
X43077D01*
X41240Y179144D01*
X41354Y179713D01*
X41614Y180144D01*
X44756D01*
X44756Y180144D01*
X45181Y180229D01*
X45542Y180470D01*
X46728Y181656D01*
X47728Y181242D01*
Y181148D01*
X47998Y180496D01*
X48496Y179998D01*
X49148Y179728D01*
X49852D01*
X50504Y179998D01*
X51002Y180496D01*
X51272Y181148D01*
Y181852D01*
X51002Y182504D01*
X50504Y183002D01*
X49852Y183272D01*
X49758D01*
X49344Y184272D01*
X50624Y185552D01*
X50624Y185552D01*
X50865Y185912D01*
X50950Y186338D01*
X51038Y186595D01*
X51425Y186854D01*
X51684Y187242D01*
X51775Y187699D01*
Y191301D01*
X52683Y191860D01*
X54553D01*
X55531Y190882D01*
Y189473D01*
X55531Y189473D01*
X55615Y189047D01*
X55856Y188686D01*
X57006Y187537D01*
X57367Y187296D01*
X57792Y187211D01*
X57792Y187211D01*
X64208D01*
X64208Y187211D01*
X64633Y187296D01*
X64994Y187537D01*
X65745Y188287D01*
X66245Y188243D01*
X66794Y187949D01*
X66836Y187742D01*
X67094Y187354D01*
X67482Y187095D01*
X67939Y187005D01*
X69100D01*
X69557Y187095D01*
X69792Y187252D01*
X69955Y187354D01*
X70555D01*
X71430Y186606D01*
Y182958D01*
X71430Y182958D01*
X71515Y182532D01*
X71756Y182172D01*
X73123Y180805D01*
X72708Y179805D01*
X71019D01*
X71019Y179805D01*
X70593Y179720D01*
X70232Y179479D01*
X68600Y177847D01*
X68600Y177847D01*
X68268Y177515D01*
X65258D01*
X64801Y177424D01*
X64413Y177165D01*
X64155Y176778D01*
X64064Y176321D01*
Y175159D01*
X64155Y174702D01*
X64413Y174315D01*
X64801Y174056D01*
X65258Y173965D01*
X68860D01*
X69317Y174056D01*
X69705Y174315D01*
X69964Y174702D01*
X70054Y175159D01*
Y176156D01*
X70173Y176274D01*
X70173Y176274D01*
X71479Y177581D01*
X84425D01*
X86064Y175943D01*
Y175159D01*
X86155Y174702D01*
X86413Y174315D01*
X86801Y174056D01*
X87258Y173965D01*
X90860D01*
X91317Y174056D01*
X91998Y173996D01*
X92496Y173498D01*
X93148Y173228D01*
X93852D01*
X94504Y173498D01*
X95002Y173996D01*
X95272Y174648D01*
Y175352D01*
X95002Y176004D01*
X94504Y176502D01*
X93852Y176772D01*
X93148D01*
X92997Y176709D01*
X92172Y176764D01*
X91738Y177115D01*
X91705Y177165D01*
X91317Y177424D01*
X90860Y177515D01*
X87636D01*
X86224Y178927D01*
X86638Y179927D01*
X97845D01*
X97845Y179927D01*
X98270Y180012D01*
X98631Y180253D01*
X100320Y181942D01*
X101244Y181559D01*
Y181130D01*
X104500D01*
Y184000D01*
X105000D01*
Y184500D01*
X108756D01*
Y185225D01*
X109485Y185849D01*
X109911Y185933D01*
X110272Y186174D01*
X115505Y191408D01*
X116012Y191115D01*
X116663Y190941D01*
X117337D01*
X117988Y191115D01*
X118571Y191452D01*
X119048Y191929D01*
X119385Y192512D01*
X119485Y192885D01*
X121415D01*
X121958Y192077D01*
D02*
G37*
G36*
X32921Y191252D02*
Y189799D01*
X32921Y189799D01*
X33005Y189374D01*
X33246Y189013D01*
X34506Y187753D01*
X34867Y187512D01*
X35292Y187427D01*
X35292Y187427D01*
X41708D01*
X41708Y187427D01*
X42133Y187512D01*
X42494Y187753D01*
X43129Y188388D01*
X44485D01*
Y187699D01*
X44576Y187242D01*
X44835Y186854D01*
X45222Y186595D01*
X45679Y186505D01*
X46841D01*
X47062Y186549D01*
X47642Y185715D01*
X46511Y184583D01*
X46511Y184583D01*
X44295Y182368D01*
X32705D01*
X29287Y185786D01*
X29185Y186854D01*
X29444Y187242D01*
X29535Y187699D01*
Y191301D01*
X30443Y191860D01*
X32312D01*
X32921Y191252D01*
D02*
G37*
G36*
X77421Y191752D02*
Y189583D01*
X77421Y189583D01*
X77505Y189157D01*
X77746Y188796D01*
X79006Y187537D01*
X79367Y187296D01*
X79792Y187211D01*
X79792Y187211D01*
X86756D01*
X87139Y186287D01*
X86060Y185208D01*
X85819Y184847D01*
X85734Y184422D01*
X85734Y184422D01*
Y182151D01*
X74921D01*
X73654Y183418D01*
Y187334D01*
X73685Y187354D01*
X73944Y187742D01*
X74035Y188199D01*
Y191801D01*
X74943Y192360D01*
X76812D01*
X77421Y191752D01*
D02*
G37*
G36*
X106228Y171340D02*
Y171148D01*
X106498Y170496D01*
X106996Y169998D01*
X107648Y169728D01*
X108352D01*
X109004Y169998D01*
X109394Y170388D01*
X113500D01*
X113500Y170388D01*
X114100Y169953D01*
X114253Y168826D01*
X113039Y167612D01*
X106394D01*
X106004Y168002D01*
X105352Y168272D01*
X104648D01*
X103996Y168002D01*
X103498Y167504D01*
X103228Y166852D01*
Y166148D01*
X103498Y165496D01*
X103996Y164998D01*
X104648Y164728D01*
X105352D01*
X106004Y164998D01*
X106394Y165388D01*
X113500D01*
X113500Y165388D01*
X113926Y165473D01*
X114286Y165714D01*
X116151Y167578D01*
X116663Y167441D01*
X117337D01*
X117988Y167615D01*
X118571Y167952D01*
X119048Y168429D01*
X119313Y168888D01*
X121549D01*
X121916Y168441D01*
X122013Y167953D01*
X122290Y167539D01*
X122704Y167262D01*
X123192Y167165D01*
X123888D01*
Y166102D01*
X122132Y164347D01*
X117898D01*
Y159226D01*
X116783Y158112D01*
X106046D01*
X105772Y158387D01*
Y158852D01*
X105502Y159504D01*
X105004Y160002D01*
X104352Y160272D01*
X103648D01*
X102996Y160002D01*
X102498Y159504D01*
X102228Y158852D01*
Y158842D01*
X101640Y158254D01*
X94007D01*
X93047Y159214D01*
Y164335D01*
X89455D01*
Y166485D01*
X90860D01*
X91317Y166576D01*
X91705Y166835D01*
X91963Y167222D01*
X92054Y167679D01*
Y168841D01*
X92965Y169388D01*
X95042D01*
X95661Y168769D01*
X95661Y168769D01*
X95739Y168717D01*
X95946Y168510D01*
Y167679D01*
X96036Y167222D01*
X96295Y166835D01*
X96683Y166576D01*
X97140Y166485D01*
X100742D01*
X101199Y166576D01*
X101587Y166835D01*
X101845Y167222D01*
X101936Y167679D01*
Y168462D01*
X105228Y171754D01*
X106228Y171340D01*
D02*
G37*
G36*
X86064Y168841D02*
Y167679D01*
X86155Y167222D01*
X86413Y166835D01*
X86801Y166576D01*
X87231Y166490D01*
Y163830D01*
X87231Y163830D01*
X87316Y163404D01*
X87557Y163044D01*
X88126Y162475D01*
Y160100D01*
X86137Y158112D01*
X72382D01*
X70949Y159545D01*
Y164665D01*
X68171D01*
Y166485D01*
X68860D01*
X69317Y166576D01*
X69705Y166835D01*
X69964Y167222D01*
X70054Y167679D01*
Y168841D01*
X70965Y169388D01*
X73235D01*
X73661Y168962D01*
X73661Y168962D01*
X73739Y168910D01*
X73946Y168703D01*
Y167679D01*
X74037Y167222D01*
X74295Y166835D01*
X74683Y166576D01*
X75140Y166485D01*
X78742D01*
X79199Y166576D01*
X79587Y166835D01*
X79845Y167222D01*
X79936Y167679D01*
Y168703D01*
X80143Y168910D01*
X80221Y168962D01*
X80647Y169388D01*
X85153D01*
X86064Y168841D01*
D02*
G37*
G36*
X64064D02*
Y167679D01*
X64155Y167222D01*
X64413Y166835D01*
X64801Y166576D01*
X65258Y166485D01*
X65947D01*
Y163634D01*
X65947Y163634D01*
X66028Y163228D01*
Y159545D01*
X64461Y157978D01*
X49598D01*
X48319Y159257D01*
Y164378D01*
X45612D01*
Y166276D01*
X46301D01*
X46758Y166367D01*
X47146Y166626D01*
X47361Y166949D01*
X47449Y167024D01*
X48459Y167265D01*
X48459Y167265D01*
X48820Y167024D01*
X49245Y166939D01*
X49246Y166939D01*
X51527D01*
X51736Y166626D01*
X52124Y166367D01*
X52581Y166276D01*
X56183D01*
X56640Y166367D01*
X57028Y166626D01*
X57286Y167014D01*
X57377Y167471D01*
Y168254D01*
X58512Y169388D01*
X63153D01*
X64064Y168841D01*
D02*
G37*
%LPC*%
G36*
X108756Y183500D02*
X105500D01*
Y181130D01*
X108756D01*
Y183500D01*
D02*
G37*
%LPD*%
G36*
X143142Y212417D02*
X143411D01*
Y210189D01*
X142245D01*
Y205811D01*
X146020D01*
Y206888D01*
X155539D01*
X160700Y201727D01*
X160317Y200804D01*
X156086D01*
Y199688D01*
X155086Y199486D01*
X151286Y203286D01*
X150926Y203527D01*
X150500Y203612D01*
X150500Y203612D01*
X139461D01*
X134286Y208786D01*
X133925Y209027D01*
X133500Y209112D01*
X133500Y209112D01*
X123051D01*
Y210189D01*
X122401D01*
Y211897D01*
X123185Y212417D01*
X123579D01*
Y212417D01*
X127122D01*
Y218128D01*
X128112Y219119D01*
X128255Y219214D01*
X128429Y219388D01*
X143142D01*
Y212417D01*
D02*
G37*
G36*
X258148Y201530D02*
X257725Y201354D01*
X257226Y200856D01*
X256957Y200205D01*
Y199500D01*
X257226Y198849D01*
X257725Y198351D01*
X258376Y198081D01*
X258927D01*
X259294Y197714D01*
X259854Y196859D01*
X259584Y196208D01*
Y195503D01*
X259854Y194852D01*
X260352Y194354D01*
X261003Y194084D01*
X261012D01*
X265305Y189791D01*
X265305Y188017D01*
X265305Y187607D01*
Y185670D01*
X265305Y185261D01*
X264959Y184404D01*
X262946D01*
X262919Y184468D01*
X262421Y184967D01*
X261770Y185236D01*
X261065D01*
X260414Y184967D01*
X259915Y184468D01*
X259646Y183817D01*
Y183112D01*
X259869Y182573D01*
X259785Y182196D01*
X259448Y181514D01*
X259101Y181471D01*
X257283Y183289D01*
Y183817D01*
X257014Y184468D01*
X256515Y184967D01*
X255864Y185236D01*
X255159D01*
X254508Y184967D01*
X254010Y184468D01*
X253740Y183817D01*
Y183112D01*
X254010Y182461D01*
X254508Y181963D01*
X255159Y181693D01*
X255735D01*
X258268Y179160D01*
X258268Y179160D01*
X258629Y178919D01*
X259054Y178834D01*
X259054Y178834D01*
X259560D01*
X259974Y177834D01*
X259915Y177775D01*
X259646Y177124D01*
Y176419D01*
X259876Y175864D01*
X259673Y175397D01*
X259356Y174913D01*
X259161Y174912D01*
X257283Y176789D01*
Y177124D01*
X257014Y177775D01*
X256515Y178274D01*
X255864Y178543D01*
X255159D01*
X254508Y178274D01*
X254010Y177775D01*
X253740Y177124D01*
Y176419D01*
X254010Y175768D01*
X254508Y175270D01*
X255159Y175000D01*
X255864D01*
X255909Y175019D01*
X257612Y173315D01*
X257198Y172315D01*
X253137D01*
Y170855D01*
X251863D01*
Y172315D01*
X248188D01*
X247340Y172709D01*
X247255Y173135D01*
X247014Y173495D01*
X247014Y173495D01*
X246600Y173910D01*
X246239Y174151D01*
X245813Y174236D01*
X245813Y174236D01*
X239912D01*
X239877Y174288D01*
X239082Y175082D01*
X239319Y175654D01*
X239319D01*
Y182346D01*
X237970D01*
Y185858D01*
X242000D01*
Y193142D01*
X236111D01*
X236004Y193163D01*
X235612Y194012D01*
Y202388D01*
X237653D01*
Y201181D01*
X244346D01*
Y202388D01*
X247153D01*
Y201181D01*
X253847D01*
Y202530D01*
X257949D01*
X258148Y201530D01*
D02*
G37*
G36*
X219744Y199930D02*
X219700Y199901D01*
X219302Y199305D01*
X219162Y198601D01*
Y194305D01*
X219302Y193602D01*
X219700Y193005D01*
X219984Y192816D01*
Y192194D01*
X219984Y192194D01*
X220069Y191769D01*
X220203Y191223D01*
X219793Y190510D01*
X219700Y190448D01*
X219302Y189852D01*
X219162Y189148D01*
Y184852D01*
X219302Y184148D01*
X219700Y183552D01*
X220297Y183154D01*
X221000Y183014D01*
X221703Y183154D01*
X222300Y183552D01*
X222698Y184148D01*
X222838Y184852D01*
Y189148D01*
X223619Y190136D01*
X225861D01*
X226619Y189276D01*
X226644Y189159D01*
X226642Y189148D01*
Y184852D01*
X226782Y184148D01*
X227181Y183552D01*
X227411Y183398D01*
X227662Y182235D01*
X225214Y179786D01*
X224973Y179426D01*
X224888Y179000D01*
X224665Y178102D01*
X222654D01*
Y177282D01*
X221290D01*
X215716Y182856D01*
X216164Y183823D01*
X216303Y183851D01*
X216664Y184092D01*
X216905Y184452D01*
X216990Y184878D01*
Y201673D01*
X217150Y202606D01*
X217862Y202606D01*
X219744D01*
Y199930D01*
D02*
G37*
G36*
X244590Y171931D02*
X245116Y171225D01*
X245137Y171117D01*
Y167172D01*
X251863D01*
Y168632D01*
X253137D01*
Y167172D01*
X253137D01*
X253273Y166845D01*
X252647Y166220D01*
X252490Y166115D01*
X252490Y166115D01*
X251851Y165476D01*
X251746Y165319D01*
X251277Y164850D01*
X249981D01*
X249981Y164850D01*
X249874Y164828D01*
X245137D01*
Y162112D01*
X240961D01*
X240580Y162492D01*
Y164900D01*
X240559Y165007D01*
Y166425D01*
X243590D01*
Y171244D01*
X244308Y171940D01*
X244590Y171931D01*
D02*
G37*
G36*
X235746Y185390D02*
Y182346D01*
X234398D01*
Y175654D01*
X235256D01*
X236151Y175330D01*
X236235Y174904D01*
X236476Y174544D01*
X237979Y173041D01*
Y172928D01*
X237979Y172928D01*
X238063Y172502D01*
X238304Y172142D01*
X238359Y172087D01*
X238378Y171993D01*
Y170559D01*
X240510D01*
Y166441D01*
X234490D01*
Y168394D01*
Y172543D01*
X232982D01*
X232597Y172928D01*
X232237Y173169D01*
X231811Y173254D01*
X231811Y173254D01*
X230846D01*
X229346Y174754D01*
Y178102D01*
X228089D01*
X227675Y179102D01*
X234065Y185492D01*
X234746Y185786D01*
X235746Y185390D01*
D02*
G37*
%LPC*%
G36*
X470039Y228847D02*
X468371D01*
X466736Y228522D01*
X465196Y227884D01*
X463809Y226957D01*
X462630Y225778D01*
X461704Y224392D01*
X461066Y222851D01*
X460741Y221216D01*
Y219549D01*
X461066Y217913D01*
X461704Y216373D01*
X462630Y214986D01*
X463809Y213808D01*
X465196Y212881D01*
X466736Y212243D01*
X468371Y211918D01*
X470039D01*
X471674Y212243D01*
X473215Y212881D01*
X474601Y213808D01*
X475780Y214986D01*
X476706Y216373D01*
X477344Y217913D01*
X477670Y219549D01*
Y221216D01*
X477344Y222851D01*
X476706Y224392D01*
X475780Y225778D01*
X474601Y226957D01*
X473215Y227884D01*
X471674Y228522D01*
X470039Y228847D01*
D02*
G37*
G36*
X219010Y36279D02*
X216842D01*
X214699Y35940D01*
X212636Y35270D01*
X210704Y34285D01*
X208949Y33010D01*
X207416Y31477D01*
X206141Y29722D01*
X205156Y27790D01*
X204486Y25727D01*
X204147Y23584D01*
Y21416D01*
X204486Y19273D01*
X205156Y17210D01*
X206141Y15278D01*
X207416Y13523D01*
X208949Y11990D01*
X210704Y10715D01*
X212636Y9730D01*
X214699Y9060D01*
X216842Y8721D01*
X219010D01*
X221153Y9060D01*
X223216Y9730D01*
X225148Y10715D01*
X226903Y11990D01*
X228436Y13523D01*
X229711Y15278D01*
X230696Y17210D01*
X231366Y19273D01*
X231705Y21416D01*
Y23584D01*
X231366Y25727D01*
X230696Y27790D01*
X229711Y29722D01*
X228436Y31477D01*
X226903Y33010D01*
X225148Y34285D01*
X223216Y35270D01*
X221153Y35940D01*
X219010Y36279D01*
D02*
G37*
%LPD*%
D17*
X211984Y225976D02*
G03*
X211984Y225976I-984J0D01*
G01*
Y229520D02*
G03*
X211984Y229520I-984J0D01*
G01*
X240331Y225976D02*
G03*
X240331Y225976I-984J0D01*
G01*
Y229520D02*
G03*
X240331Y229520I-984J0D01*
G01*
D18*
X259581Y74270D02*
D03*
X255812D02*
D03*
X400653Y121375D02*
D03*
X404421D02*
D03*
D19*
X264187Y67500D02*
D03*
X260813D02*
D03*
X401813Y130000D02*
D03*
X405187D02*
D03*
X262113Y58500D02*
D03*
X258739D02*
D03*
D20*
X355000Y118313D02*
D03*
Y121687D02*
D03*
X165354Y175478D02*
D03*
Y178853D02*
D03*
X175197Y175478D02*
D03*
Y178853D02*
D03*
X185039Y175478D02*
D03*
Y178853D02*
D03*
X194882Y175478D02*
D03*
Y178853D02*
D03*
X215426Y68187D02*
D03*
Y64813D02*
D03*
D21*
X391500Y148500D02*
D03*
X433000Y110500D02*
D03*
X399000Y148000D02*
D03*
X418058Y139641D02*
D03*
X411500Y132500D02*
D03*
Y127000D02*
D03*
X427500Y172000D02*
D03*
X383500Y170500D02*
D03*
X354835Y126588D02*
D03*
X264835Y141088D02*
D03*
X242000Y146177D02*
D03*
X263500Y150457D02*
D03*
X247728Y146176D02*
D03*
X359000Y116000D02*
D03*
X218000Y62500D02*
D03*
X431500Y153500D02*
D03*
Y158000D02*
D03*
Y162000D02*
D03*
X426000Y164500D02*
D03*
X417000Y192500D02*
D03*
X451000Y185000D02*
D03*
X431500Y140000D02*
D03*
Y135000D02*
D03*
X374264Y148500D02*
D03*
X402435Y164437D02*
D03*
X416500Y177000D02*
D03*
X419499Y121870D02*
D03*
Y113870D02*
D03*
X418500Y163500D02*
D03*
Y158000D02*
D03*
X131000Y156000D02*
D03*
X113000Y161000D02*
D03*
X101000Y179500D02*
D03*
X95000Y184500D02*
D03*
X82500Y161000D02*
D03*
X76500Y184500D02*
D03*
X61000Y178000D02*
D03*
X60500Y161500D02*
D03*
X37500D02*
D03*
X43500Y214500D02*
D03*
X65764Y214350D02*
D03*
X88764D02*
D03*
X111614Y214409D02*
D03*
X134114D02*
D03*
X158463Y214899D02*
D03*
X182463D02*
D03*
X249131Y176620D02*
D03*
X243400Y163800D02*
D03*
X232092Y176574D02*
D03*
X210000Y175500D02*
D03*
X255500Y223500D02*
D03*
X240000Y208500D02*
D03*
X336598Y216079D02*
D03*
Y222580D02*
D03*
X215500Y58500D02*
D03*
X271426Y83000D02*
D03*
X267926Y53500D02*
D03*
X210761Y67625D02*
D03*
X215426Y79500D02*
D03*
X209926D02*
D03*
X7504Y3036D02*
D03*
Y8941D02*
D03*
X13410Y3036D02*
D03*
X19315D02*
D03*
Y8941D02*
D03*
X25221Y3036D02*
D03*
Y8941D02*
D03*
X31126Y3036D02*
D03*
X37032D02*
D03*
X42937D02*
D03*
Y8941D02*
D03*
X48843Y3036D02*
D03*
Y8941D02*
D03*
X54748Y3036D02*
D03*
Y8941D02*
D03*
X60654Y3036D02*
D03*
Y8941D02*
D03*
X66559Y3036D02*
D03*
Y8941D02*
D03*
X72465Y3036D02*
D03*
Y8941D02*
D03*
X78370Y3036D02*
D03*
Y8941D02*
D03*
X84276Y3036D02*
D03*
X90181D02*
D03*
X96087D02*
D03*
X101992D02*
D03*
X107898D02*
D03*
Y8941D02*
D03*
X113804Y3036D02*
D03*
Y8941D02*
D03*
X119709Y3036D02*
D03*
Y8941D02*
D03*
X125615Y3036D02*
D03*
Y8941D02*
D03*
X7504Y56185D02*
D03*
Y62091D02*
D03*
X13410Y56185D02*
D03*
Y62091D02*
D03*
X19315Y56185D02*
D03*
Y62091D02*
D03*
X25221Y56185D02*
D03*
X31126D02*
D03*
X37032D02*
D03*
Y62091D02*
D03*
X42937Y56185D02*
D03*
Y62091D02*
D03*
X48843Y56185D02*
D03*
Y62091D02*
D03*
X54748Y56185D02*
D03*
Y62091D02*
D03*
X60654Y56185D02*
D03*
X66559D02*
D03*
X72465D02*
D03*
Y62091D02*
D03*
X78370Y56185D02*
D03*
X84276D02*
D03*
X90181D02*
D03*
X107898D02*
D03*
Y62091D02*
D03*
X113804Y56185D02*
D03*
Y62091D02*
D03*
X119709Y56185D02*
D03*
Y62091D02*
D03*
X125615Y56185D02*
D03*
Y62091D02*
D03*
X355929Y56185D02*
D03*
Y62091D02*
D03*
X361835Y56185D02*
D03*
Y62091D02*
D03*
X367740Y56185D02*
D03*
Y62091D02*
D03*
X373646Y56185D02*
D03*
Y62091D02*
D03*
X391362Y56185D02*
D03*
X397268D02*
D03*
X403173D02*
D03*
X409079D02*
D03*
Y62091D02*
D03*
X414985Y56185D02*
D03*
X420890D02*
D03*
X426795D02*
D03*
Y62091D02*
D03*
X432701Y56185D02*
D03*
Y62091D02*
D03*
X438607Y56185D02*
D03*
Y62091D02*
D03*
X444512Y56185D02*
D03*
Y62091D02*
D03*
X450418Y56185D02*
D03*
X456323D02*
D03*
Y62091D02*
D03*
X462229Y56185D02*
D03*
Y62091D02*
D03*
X468134Y56185D02*
D03*
Y62091D02*
D03*
X474040Y56185D02*
D03*
Y62091D02*
D03*
X355929Y3036D02*
D03*
Y8941D02*
D03*
X361835Y3036D02*
D03*
Y8941D02*
D03*
X367740Y3036D02*
D03*
Y8941D02*
D03*
X373646Y3036D02*
D03*
Y8941D02*
D03*
X379551Y3036D02*
D03*
X385457D02*
D03*
X391362D02*
D03*
X397268D02*
D03*
Y8941D02*
D03*
X403173Y3036D02*
D03*
Y8941D02*
D03*
X409079Y3036D02*
D03*
Y8941D02*
D03*
X414985Y3036D02*
D03*
Y8941D02*
D03*
X420890Y3036D02*
D03*
Y8941D02*
D03*
X426795Y3036D02*
D03*
Y8941D02*
D03*
X432701Y3036D02*
D03*
Y8941D02*
D03*
X438607Y3036D02*
D03*
Y8941D02*
D03*
X444512Y3036D02*
D03*
X450418D02*
D03*
Y8941D02*
D03*
X456323Y3036D02*
D03*
Y8941D02*
D03*
X462229Y3036D02*
D03*
Y8941D02*
D03*
X468134Y3036D02*
D03*
X474040D02*
D03*
Y8941D02*
D03*
X340500Y192500D02*
D03*
X243000Y215000D02*
D03*
X333500Y186000D02*
D03*
X297500Y148000D02*
D03*
X324352Y146728D02*
D03*
X356109Y139728D02*
D03*
X261417Y176772D02*
D03*
X175197Y183858D02*
D03*
X299852Y162772D02*
D03*
X223000Y212000D02*
D03*
X227500D02*
D03*
X295740Y160760D02*
D03*
X274332Y160668D02*
D03*
X143500Y192500D02*
D03*
X165354Y183858D02*
D03*
X255512Y176772D02*
D03*
X274000Y166000D02*
D03*
X143500Y197500D02*
D03*
X261417Y183465D02*
D03*
X194882Y183858D02*
D03*
X258728Y199852D02*
D03*
X282912Y160450D02*
D03*
X143500Y170000D02*
D03*
X185039Y183858D02*
D03*
X255512Y183465D02*
D03*
X261356Y195856D02*
D03*
X254529Y66291D02*
D03*
X255500Y214000D02*
D03*
X273500Y197000D02*
D03*
X125000Y202500D02*
D03*
X122137Y178480D02*
D03*
X287828Y160283D02*
D03*
X155500Y160000D02*
D03*
X278500Y160500D02*
D03*
X143500Y174500D02*
D03*
X296000Y128260D02*
D03*
Y121173D02*
D03*
Y114087D02*
D03*
Y107000D02*
D03*
Y99913D02*
D03*
X288913Y128260D02*
D03*
Y121173D02*
D03*
Y114087D02*
D03*
Y107000D02*
D03*
Y99913D02*
D03*
X338606Y128233D02*
D03*
Y121146D02*
D03*
Y114059D02*
D03*
Y106973D02*
D03*
Y99886D02*
D03*
Y92800D02*
D03*
Y85713D02*
D03*
Y78626D02*
D03*
Y71540D02*
D03*
X331520Y128233D02*
D03*
Y121146D02*
D03*
Y114059D02*
D03*
Y106973D02*
D03*
Y99886D02*
D03*
Y92800D02*
D03*
Y85713D02*
D03*
Y78626D02*
D03*
Y71540D02*
D03*
X324433Y128233D02*
D03*
Y121146D02*
D03*
Y114059D02*
D03*
Y106973D02*
D03*
Y99886D02*
D03*
Y92800D02*
D03*
Y78626D02*
D03*
X317347Y128233D02*
D03*
Y121146D02*
D03*
Y114059D02*
D03*
Y106973D02*
D03*
Y99886D02*
D03*
X310260Y128233D02*
D03*
Y121146D02*
D03*
Y114059D02*
D03*
Y106973D02*
D03*
Y99886D02*
D03*
Y92800D02*
D03*
Y85713D02*
D03*
Y78626D02*
D03*
Y71540D02*
D03*
X303173Y128233D02*
D03*
Y121146D02*
D03*
Y114059D02*
D03*
Y106973D02*
D03*
Y99886D02*
D03*
Y92800D02*
D03*
Y85713D02*
D03*
Y78626D02*
D03*
Y71540D02*
D03*
X177583Y128233D02*
D03*
Y121146D02*
D03*
Y114059D02*
D03*
Y106973D02*
D03*
Y99886D02*
D03*
Y92800D02*
D03*
Y85713D02*
D03*
Y78626D02*
D03*
Y71540D02*
D03*
X170496Y128233D02*
D03*
Y121146D02*
D03*
Y114059D02*
D03*
Y106973D02*
D03*
Y99886D02*
D03*
Y92800D02*
D03*
Y85713D02*
D03*
Y78626D02*
D03*
Y71540D02*
D03*
X163410Y128233D02*
D03*
Y121146D02*
D03*
Y114059D02*
D03*
Y106973D02*
D03*
Y99886D02*
D03*
Y92800D02*
D03*
X156323Y128233D02*
D03*
Y121146D02*
D03*
Y114059D02*
D03*
Y106973D02*
D03*
Y99886D02*
D03*
Y92800D02*
D03*
X149237Y128233D02*
D03*
Y121146D02*
D03*
Y114059D02*
D03*
Y106973D02*
D03*
Y99886D02*
D03*
Y92800D02*
D03*
Y85713D02*
D03*
Y78626D02*
D03*
Y71540D02*
D03*
X142150Y128233D02*
D03*
Y121146D02*
D03*
Y114059D02*
D03*
Y106973D02*
D03*
Y99886D02*
D03*
Y92800D02*
D03*
Y85713D02*
D03*
Y78626D02*
D03*
Y71540D02*
D03*
X191756Y128233D02*
D03*
Y121146D02*
D03*
Y114059D02*
D03*
Y106973D02*
D03*
Y99886D02*
D03*
X184669Y128233D02*
D03*
Y121146D02*
D03*
Y114059D02*
D03*
Y106973D02*
D03*
Y99886D02*
D03*
X374262Y145000D02*
D03*
X263926Y74000D02*
D03*
X401696Y153112D02*
D03*
X428000Y122500D02*
D03*
X235000Y208500D02*
D03*
X214000D02*
D03*
X112415Y193554D02*
D03*
X104000Y158500D02*
D03*
X105500Y177500D02*
D03*
X108000Y171500D02*
D03*
X93500Y175000D02*
D03*
X112500Y199000D02*
D03*
X60500Y174000D02*
D03*
X83000D02*
D03*
X49500Y181500D02*
D03*
X49000Y172000D02*
D03*
X105000Y166500D02*
D03*
X37500Y174000D02*
D03*
X34000Y221500D02*
D03*
X56500Y221642D02*
D03*
X79500Y221142D02*
D03*
X102500Y221642D02*
D03*
X146500Y160000D02*
D03*
X24000Y184000D02*
D03*
D22*
X209500Y56164D02*
D03*
Y50836D02*
D03*
D23*
X372029Y129740D02*
D03*
Y126000D02*
D03*
Y122260D02*
D03*
X362971D02*
D03*
Y126000D02*
D03*
D24*
Y129740D02*
D03*
D25*
X363925Y116000D02*
D03*
X367075D02*
D03*
D26*
X372630D02*
D03*
X376370D02*
D03*
D27*
X424499Y134642D02*
D03*
Y131099D02*
D03*
X226926Y52228D02*
D03*
Y55772D02*
D03*
D28*
X267471Y210851D02*
D03*
Y155733D02*
D03*
X322589Y210851D02*
D03*
Y155733D02*
D03*
D29*
X267471Y206718D02*
D03*
Y203371D02*
D03*
Y200025D02*
D03*
Y196678D02*
D03*
Y193332D02*
D03*
Y189985D02*
D03*
Y186639D02*
D03*
Y183292D02*
D03*
Y179946D02*
D03*
Y176600D02*
D03*
Y173253D02*
D03*
Y169906D02*
D03*
Y166560D02*
D03*
Y163214D02*
D03*
Y159867D02*
D03*
X322589D02*
D03*
Y163214D02*
D03*
Y166560D02*
D03*
Y169906D02*
D03*
Y173253D02*
D03*
Y176600D02*
D03*
Y179946D02*
D03*
Y183292D02*
D03*
Y186639D02*
D03*
Y189985D02*
D03*
Y193332D02*
D03*
Y196678D02*
D03*
Y200025D02*
D03*
Y203371D02*
D03*
Y206718D02*
D03*
D30*
X271605Y155733D02*
D03*
X274951D02*
D03*
X278297D02*
D03*
X281644D02*
D03*
X284990D02*
D03*
X288337D02*
D03*
X291683D02*
D03*
X295030D02*
D03*
X298376D02*
D03*
X301723D02*
D03*
X305069D02*
D03*
X308416D02*
D03*
X311762D02*
D03*
X315109D02*
D03*
X318455D02*
D03*
Y210851D02*
D03*
X315109D02*
D03*
X311762D02*
D03*
X308416D02*
D03*
X305069D02*
D03*
X301723D02*
D03*
X298376D02*
D03*
X295030D02*
D03*
X291683D02*
D03*
X288337D02*
D03*
X284990D02*
D03*
X281644D02*
D03*
X278297D02*
D03*
X274951D02*
D03*
X271605D02*
D03*
D31*
X295030Y183292D02*
D03*
Y189788D02*
D03*
X301526D02*
D03*
Y183292D02*
D03*
Y176796D02*
D03*
X295030D02*
D03*
X288534D02*
D03*
Y183292D02*
D03*
D32*
X179134Y198232D02*
D03*
Y190745D02*
D03*
X333539Y179286D02*
D03*
X169291Y198232D02*
D03*
Y190745D02*
D03*
X211500Y190257D02*
D03*
X256500Y169744D02*
D03*
X333500Y192756D02*
D03*
X248500Y169744D02*
D03*
Y162257D02*
D03*
X159449Y198232D02*
D03*
Y190745D02*
D03*
X188976Y198232D02*
D03*
Y190745D02*
D03*
X256500Y162257D02*
D03*
X333500Y200243D02*
D03*
X211500Y197743D02*
D03*
X333539Y171799D02*
D03*
D33*
X192133Y208000D02*
D03*
X186804D02*
D03*
X115836D02*
D03*
X138804D02*
D03*
X162804D02*
D03*
X144133D02*
D03*
X121164D02*
D03*
X168133D02*
D03*
X92804D02*
D03*
X70672D02*
D03*
X48172Y207500D02*
D03*
X25672D02*
D03*
X31000D02*
D03*
X53500D02*
D03*
X76000Y208000D02*
D03*
X98133D02*
D03*
D34*
X221000Y187000D02*
D03*
Y196453D02*
D03*
X228480Y187000D02*
D03*
X224740Y196453D02*
D03*
D35*
X228480D02*
D03*
D36*
X226000Y168358D02*
D03*
X400500Y12858D02*
D03*
X400468Y60858D02*
D03*
X79633Y61420D02*
D03*
X80000Y12827D02*
D03*
X38500Y184216D02*
D03*
X61000Y184000D02*
D03*
X83000D02*
D03*
X241000Y196358D02*
D03*
X250500D02*
D03*
X105000Y184000D02*
D03*
X260926Y54142D02*
D03*
X219426Y84000D02*
D03*
X226000Y175642D02*
D03*
X241000Y203642D02*
D03*
X250500D02*
D03*
X219426Y91284D02*
D03*
X260926Y46858D02*
D03*
X80000Y20110D02*
D03*
X79633Y68704D02*
D03*
X400500Y20142D02*
D03*
X400468Y68142D02*
D03*
X105000Y191284D02*
D03*
X396000Y155858D02*
D03*
X388000D02*
D03*
X396000Y163142D02*
D03*
X83000Y191284D02*
D03*
X61000D02*
D03*
X38500Y191500D02*
D03*
X388000Y163142D02*
D03*
D37*
X203150Y188964D02*
D03*
X343500Y180315D02*
D03*
X203150Y199594D02*
D03*
X343500Y169685D02*
D03*
D38*
X332772Y227748D02*
D03*
Y211409D02*
D03*
X259469Y227417D02*
D03*
Y211079D02*
D03*
X251004D02*
D03*
Y227417D02*
D03*
X341236Y227748D02*
D03*
Y211409D02*
D03*
D39*
X137995Y176118D02*
D03*
X138000Y199177D02*
D03*
Y194059D02*
D03*
Y196618D02*
D03*
X137995Y171000D02*
D03*
X125005Y199177D02*
D03*
X125000Y176118D02*
D03*
X137995Y173559D02*
D03*
X125000D02*
D03*
Y171000D02*
D03*
Y168441D02*
D03*
X125005Y191500D02*
D03*
Y196618D02*
D03*
Y194059D02*
D03*
D40*
X160736Y163740D02*
D03*
X150500D02*
D03*
X160736Y160000D02*
D03*
Y167480D02*
D03*
X150500D02*
D03*
Y160000D02*
D03*
D41*
X237500Y172100D02*
D03*
X235531D02*
D03*
X239469D02*
D03*
X235531Y164900D02*
D03*
X239469D02*
D03*
X237500D02*
D03*
D42*
X242050Y165547D02*
D03*
X232950Y171453D02*
D03*
Y165547D02*
D03*
Y167516D02*
D03*
Y169484D02*
D03*
X242050Y171453D02*
D03*
Y169484D02*
D03*
Y167516D02*
D03*
D43*
X220055Y217118D02*
D03*
X225173D02*
D03*
X227732D02*
D03*
X222614D02*
D03*
X230291D02*
D03*
D44*
X425999Y158221D02*
D03*
Y154819D02*
D03*
D45*
X417999Y131566D02*
D03*
Y135520D02*
D03*
D46*
X417651Y169020D02*
D03*
X411347D02*
D03*
D47*
X402748Y112500D02*
D03*
X412000D02*
D03*
D48*
X31213Y175559D02*
D03*
X54382Y175531D02*
D03*
X76941Y175740D02*
D03*
X98941D02*
D03*
Y168260D02*
D03*
X76941D02*
D03*
X54382Y168051D02*
D03*
X31213Y168079D02*
D03*
Y171819D02*
D03*
X21331Y175559D02*
D03*
Y168079D02*
D03*
X89059Y168260D02*
D03*
X67059D02*
D03*
X44500Y168051D02*
D03*
Y175531D02*
D03*
X89059Y175740D02*
D03*
X67059D02*
D03*
X54382Y171791D02*
D03*
X76941Y172000D02*
D03*
X98941D02*
D03*
D49*
X130468Y226000D02*
D03*
X116295D02*
D03*
X24913Y225953D02*
D03*
X39087D02*
D03*
X70445Y225941D02*
D03*
X47413Y225953D02*
D03*
X61587D02*
D03*
X84618Y225941D02*
D03*
X93445D02*
D03*
X107618D02*
D03*
X163882Y225953D02*
D03*
X139795Y226000D02*
D03*
X153969D02*
D03*
X202055Y225953D02*
D03*
X178055D02*
D03*
X187882D02*
D03*
D50*
X381000Y11282D02*
D03*
X380968Y59782D02*
D03*
X99133Y59345D02*
D03*
X99500Y10751D02*
D03*
Y21186D02*
D03*
X99133Y69780D02*
D03*
X381000Y21718D02*
D03*
X380968Y70218D02*
D03*
D51*
X392000Y12457D02*
D03*
Y60957D02*
D03*
X88133Y61019D02*
D03*
X88500Y12425D02*
D03*
Y19512D02*
D03*
X88133Y68105D02*
D03*
X392000Y19543D02*
D03*
Y68043D02*
D03*
D52*
X30142Y161000D02*
D03*
X53142Y161031D02*
D03*
X75772Y161319D02*
D03*
X97870Y160988D02*
D03*
X127642Y161000D02*
D03*
X134500D02*
D03*
X127642Y184000D02*
D03*
X134500D02*
D03*
X158142Y176000D02*
D03*
X244142Y179000D02*
D03*
X215284Y53500D02*
D03*
X141783Y161000D02*
D03*
Y184000D02*
D03*
X150858Y176000D02*
D03*
X236858Y179000D02*
D03*
X222568Y53500D02*
D03*
X120358Y184000D02*
D03*
Y161000D02*
D03*
X90586Y160988D02*
D03*
X68489Y161319D02*
D03*
X45858Y161031D02*
D03*
X22858Y161000D02*
D03*
D53*
X31500Y189500D02*
D03*
X53740D02*
D03*
X76000Y190000D02*
D03*
X98000Y190118D02*
D03*
X90520Y200000D02*
D03*
X68520Y199882D02*
D03*
X46260Y199382D02*
D03*
X24020D02*
D03*
X98000Y200000D02*
D03*
X90520Y190118D02*
D03*
X94260D02*
D03*
X72260Y190000D02*
D03*
X50000Y189500D02*
D03*
X27760D02*
D03*
X68520Y190000D02*
D03*
X46260Y189500D02*
D03*
X24020D02*
D03*
X31500Y199382D02*
D03*
X53740D02*
D03*
X76000Y199882D02*
D03*
D54*
X75563Y216000D02*
D03*
X30031Y216012D02*
D03*
X52531D02*
D03*
X98563Y216000D02*
D03*
X144913Y216059D02*
D03*
X148850D02*
D03*
X172937Y216012D02*
D03*
X196937D02*
D03*
X125350Y216059D02*
D03*
X121413D02*
D03*
X193000Y216012D02*
D03*
X169000D02*
D03*
X79500Y216000D02*
D03*
X102500D02*
D03*
X33968Y216012D02*
D03*
X56468D02*
D03*
D55*
X227780Y206248D02*
D03*
X238457Y189500D02*
D03*
X220693Y206248D02*
D03*
X245543Y189500D02*
D03*
D56*
X407921Y137375D02*
D03*
X405708D02*
D03*
D57*
X471718Y119000D02*
D03*
Y133000D02*
D03*
X435717Y224000D02*
D03*
Y211500D02*
D03*
Y199000D02*
D03*
X461282Y119000D02*
D03*
Y133000D02*
D03*
X425282Y199000D02*
D03*
Y211500D02*
D03*
Y224000D02*
D03*
D58*
X430323Y184559D02*
D03*
X438000D02*
D03*
X419661Y179441D02*
D03*
Y184559D02*
D03*
Y182000D02*
D03*
X427339D02*
D03*
Y184559D02*
D03*
Y179441D02*
D03*
X438000Y182000D02*
D03*
Y179441D02*
D03*
X430323D02*
D03*
Y182000D02*
D03*
D59*
X265841Y80500D02*
D03*
X260011D02*
D03*
D60*
X269426Y75032D02*
D03*
Y68968D02*
D03*
X424499Y150051D02*
D03*
Y143989D02*
D03*
D61*
X270926Y57646D02*
D03*
Y63354D02*
D03*
D62*
X415758Y155703D02*
D03*
X409853D02*
D03*
X411821Y144675D02*
D03*
X415758D02*
D03*
X411821Y155703D02*
D03*
X413790D02*
D03*
Y144675D02*
D03*
D63*
X407292Y147236D02*
D03*
X418320Y151173D02*
D03*
X407292Y153142D02*
D03*
X418320Y147236D02*
D03*
Y149205D02*
D03*
X407292D02*
D03*
Y151173D02*
D03*
X418320Y153142D02*
D03*
D65*
X264895Y85000D02*
D03*
X260958D02*
D03*
D66*
X264957Y63000D02*
D03*
X258894D02*
D03*
D67*
X218859Y69000D02*
D03*
X222993D02*
D03*
D68*
X196500Y79146D02*
D03*
Y59854D02*
D03*
D69*
X209926Y74291D02*
D03*
Y60709D02*
D03*
D70*
X333500Y159626D02*
D03*
Y150374D02*
D03*
D71*
X282926Y64500D02*
D03*
D72*
X279314Y80177D02*
D03*
X286558D02*
D03*
D73*
X138000Y191500D02*
D03*
X137995Y168441D02*
D03*
D74*
X346513Y152000D02*
D03*
X354000D02*
D03*
D75*
X249727Y67471D02*
D03*
X231223Y62746D02*
D03*
Y64321D02*
D03*
Y65896D02*
D03*
Y67471D02*
D03*
Y69045D02*
D03*
Y70620D02*
D03*
Y72195D02*
D03*
X249727D02*
D03*
Y70620D02*
D03*
Y69045D02*
D03*
Y65896D02*
D03*
Y64321D02*
D03*
Y62746D02*
D03*
D76*
X459499Y145272D02*
D03*
X443499D02*
D03*
X459499Y151768D02*
D03*
X443499D02*
D03*
D77*
X433216Y145256D02*
D03*
X429672D02*
D03*
X433225Y148929D02*
D03*
X429682D02*
D03*
D78*
X219654Y72500D02*
D03*
X223198D02*
D03*
D80*
X220843Y59500D02*
D03*
X224009D02*
D03*
X382583Y148500D02*
D03*
X379417D02*
D03*
D81*
X223907Y62500D02*
D03*
X220945D02*
D03*
X223907Y65500D02*
D03*
X220945D02*
D03*
D82*
X409853Y144626D02*
D03*
D83*
X411968Y162020D02*
D03*
X408031D02*
D03*
D84*
X452999Y161567D02*
D03*
Y177473D02*
D03*
D85*
X221236Y227748D02*
D03*
X229110D02*
D03*
D86*
X402500Y161000D02*
D03*
Y167693D02*
D03*
D87*
X409921Y121375D02*
D03*
X413481D02*
D03*
D88*
X38500Y199500D02*
D03*
Y205808D02*
D03*
X105133Y199346D02*
D03*
Y205654D02*
D03*
X61000D02*
D03*
Y199346D02*
D03*
X83000Y205654D02*
D03*
Y199346D02*
D03*
D89*
X117000Y170000D02*
D03*
Y175000D02*
D03*
Y193500D02*
D03*
Y198500D02*
D03*
D106*
X433787Y184559D02*
D03*
X423874Y179441D02*
D03*
D109*
X412806Y150189D02*
D03*
D110*
X231740Y74188D02*
D03*
X249210D02*
D03*
D113*
X246706Y71900D02*
D03*
X243143D02*
D03*
X239580D02*
D03*
X236017D02*
D03*
X244934Y63041D02*
D03*
X237808D02*
D03*
X241371D02*
D03*
X234245D02*
D03*
D114*
X231740Y60704D02*
D03*
X249210D02*
D03*
D119*
X423500Y183280D02*
D03*
X434161Y180720D02*
D03*
D126*
X318972Y39693D02*
D03*
X319000Y86386D02*
D03*
X160169Y26345D02*
D03*
X160197Y72652D02*
D03*
D127*
X318972Y26307D02*
D03*
X319000Y73000D02*
D03*
X160169Y39731D02*
D03*
X160197Y86038D02*
D03*
X121114Y26345D02*
D03*
Y39731D02*
D03*
X121142Y72652D02*
D03*
Y86038D02*
D03*
X358028Y39693D02*
D03*
Y26307D02*
D03*
X358055Y73000D02*
D03*
Y86386D02*
D03*
D134*
X254621Y70604D02*
G03*
X254635Y70604I0J1591D01*
G01*
X425500Y125178D02*
Y130098D01*
Y125178D02*
X428000Y122678D01*
X424499Y131099D02*
X425500Y130098D01*
X210388Y198855D02*
X211500Y197743D01*
X203888Y198855D02*
X210388D01*
X203150Y199594D02*
X203888Y198855D01*
X249727Y69014D02*
X257845D01*
X259359Y67500D02*
X260813D01*
X391500Y148500D02*
Y150500D01*
X402747D01*
X411968Y162020D02*
X412221Y161766D01*
Y159826D02*
Y161766D01*
Y159826D02*
X413761Y158287D01*
X411821Y155703D02*
Y157679D01*
X409206Y158677D02*
X410822D01*
X411821Y157679D01*
X206405Y53628D02*
Y70428D01*
Y53628D02*
X207335Y52699D01*
Y52699D02*
Y52699D01*
Y52699D02*
X209198Y50836D01*
X209500D01*
X209530Y56194D02*
Y61317D01*
X206991Y71013D02*
X211560D01*
X206405Y70428D02*
X206991Y71013D01*
X369370Y126000D02*
X372029D01*
X365630Y122260D02*
X369370Y126000D01*
X362971Y122260D02*
X365630D01*
X362826Y122114D02*
X362971Y122260D01*
X355146Y122114D02*
X362826D01*
X355000Y121968D02*
X355146Y122114D01*
X354918Y122051D02*
X355000Y121968D01*
X354918Y122051D02*
Y126506D01*
X354835Y126588D02*
X354918Y126506D01*
X247177Y141000D02*
X264847D01*
X242000Y146177D02*
X247177Y141000D01*
X263390Y150347D02*
X263500Y150457D01*
X247728Y146176D02*
X257646D01*
X261818Y150347D02*
X263390D01*
X257646Y146176D02*
X261818Y150347D01*
X423621Y135520D02*
X424499Y134642D01*
X417991Y135520D02*
X423621D01*
X373323Y129740D02*
X377500Y133917D01*
X374262Y145000D02*
X382500D01*
X377500Y133917D02*
Y140000D01*
X382500Y145000D01*
X399496D01*
X372029Y129740D02*
X373323D01*
X369852Y121608D02*
X370504Y122260D01*
X369852Y116000D02*
X372630D01*
X367075D02*
X369852D01*
X370504Y122260D02*
X372029D01*
X369852Y116000D02*
Y121608D01*
X359000Y116000D02*
X363925D01*
X217761Y62261D02*
X218000Y62500D01*
X213728Y62261D02*
X217761D01*
X211457Y64531D02*
X213728Y62261D01*
X211457Y64531D02*
X215426D01*
X431500Y153131D02*
Y153500D01*
X429881Y151512D02*
X431500Y153131D01*
X429881Y149512D02*
X430265D01*
X429881D02*
Y151512D01*
X428688Y154819D02*
X431500Y157631D01*
X425999Y154819D02*
X428688D01*
X431500Y157631D02*
Y158000D01*
X428095Y158302D02*
X431500Y161707D01*
X426080Y158302D02*
X428095D01*
X425999Y158221D02*
X426080Y158302D01*
X431500Y161707D02*
Y162000D01*
X429696Y148943D02*
X430265Y149512D01*
X429557Y148943D02*
X429696D01*
X422421Y160921D02*
X426000Y164500D01*
X422421Y155888D02*
Y160921D01*
X408000Y174000D02*
X416713D01*
X417713Y175000D01*
X403965Y169965D02*
X408000Y174000D01*
X417713Y175000D02*
X423689D01*
X416761Y177261D02*
Y178855D01*
X417346Y179441D02*
X419661D01*
X416761Y178855D02*
X417346Y179441D01*
X438000Y184559D02*
X450190D01*
X450631Y185000D02*
X451000D01*
X450190Y184559D02*
X450631Y185000D01*
X436952Y141520D02*
X437999D01*
X433216Y145256D02*
X436952Y141520D01*
X424578Y150051D02*
X428791Y145839D01*
X429089D02*
X429672Y145256D01*
X428791Y145839D02*
X429089D01*
X425547Y143020D02*
X430021D01*
X431239Y140261D02*
X431500Y140000D01*
X431239Y140261D02*
Y141802D01*
X430021Y143020D02*
X431239Y141802D01*
X434979Y135000D02*
X436499Y136520D01*
X431500Y135000D02*
X434979D01*
X423956Y152894D02*
X425881Y154819D01*
X255000Y59086D02*
X255586Y58500D01*
X251557Y65805D02*
X255000Y62362D01*
X255586Y58500D02*
X258457D01*
X255000Y59086D02*
Y62362D01*
X249727Y65805D02*
X251557D01*
X235086Y203500D02*
X250500D01*
X263018Y200291D02*
X268480D01*
X236858Y187000D02*
X238457D01*
X239469Y173124D02*
X245813D01*
X172937Y219531D02*
X173000D01*
X220856Y196108D02*
Y205390D01*
X120916Y183143D02*
Y184558D01*
X61000Y192500D02*
X62414D01*
X97764Y168067D02*
X99968D01*
X68510Y190000D02*
Y191211D01*
X98998Y171864D02*
X99745Y172612D01*
X264000Y166500D02*
X268315D01*
X263052Y170000D02*
X268330D01*
X385585Y155773D02*
X394500D01*
X409824D01*
X395689Y162830D02*
X401134Y157385D01*
X412047Y111375D02*
Y116249D01*
X255500Y183500D02*
X259054Y179946D01*
X261506Y176683D02*
X268293D01*
X169083Y190733D02*
X169181Y190634D01*
X169234Y190581D02*
X169291D01*
X255500Y177000D02*
X259247Y173253D01*
X270426Y63354D02*
Y67131D01*
X269005Y68968D02*
X270257Y67716D01*
X254635Y70604D02*
X256745Y70620D01*
X250042Y70604D02*
X254621D01*
X328124Y150500D02*
X333500D01*
X265299Y193619D02*
X268460D01*
X266417Y190252D02*
X268480D01*
X169194Y198395D02*
X169357Y198232D01*
X169291Y190581D02*
Y190745D01*
Y185039D02*
Y190581D01*
X150500Y202500D02*
X154768Y198232D01*
X139000Y202500D02*
X150500D01*
X154768Y198232D02*
X159449D01*
X133500Y208000D02*
X139000Y202500D01*
X121164Y208000D02*
X133500D01*
X121164D02*
X121289Y208125D01*
Y215934D01*
X121413Y216059D01*
X165605Y198395D02*
X169194D01*
X156000Y208000D02*
X165605Y198395D01*
X168929Y208797D02*
Y211230D01*
X169000Y211301D02*
Y216012D01*
X168929Y211230D02*
X169000Y211301D01*
X168133Y208000D02*
X168929Y208797D01*
X179134Y198232D02*
Y201366D01*
X172500Y208000D02*
X179134Y201366D01*
X168133Y208000D02*
X172500D01*
X188976Y198232D02*
Y204844D01*
X192133Y208000D01*
Y208302D02*
X193000Y209169D01*
Y216012D01*
X384000Y157358D02*
X385585Y155773D01*
X384000Y165643D02*
X386086Y167728D01*
X384000Y157358D02*
Y165643D01*
X390842Y166138D02*
X397387D01*
X388000Y163142D02*
X388886D01*
X390256Y164512D02*
Y165552D01*
X388886Y163142D02*
X390256Y164512D01*
Y165552D02*
X390842Y166138D01*
X397387D02*
X398942Y167693D01*
X337478Y150400D02*
X339078Y152000D01*
X346513D01*
X333526Y150400D02*
X337478D01*
X333500Y150374D02*
X333526Y150400D01*
X265500Y70604D02*
Y72057D01*
X263926Y73631D02*
X265500Y72057D01*
X263926Y73631D02*
Y74000D01*
X265500Y70604D02*
X267211D01*
X230386Y172142D02*
X230600D01*
X226886Y175642D02*
X230386Y172142D01*
X226000Y175642D02*
X226886D01*
X225472Y176170D02*
X226000Y175642D01*
X374264Y148500D02*
X379417D01*
X402435Y161065D02*
Y164437D01*
Y161065D02*
X402500Y161000D01*
X227500Y76000D02*
X229312Y74188D01*
X231740D01*
X31500Y199382D02*
X38382D01*
X38500Y199500D01*
X46000D02*
Y200386D01*
X48172Y202558D01*
Y207500D01*
X416500Y177000D02*
X416761Y177261D01*
X239469Y172550D02*
Y173124D01*
Y172100D02*
Y172550D01*
X105000Y191284D02*
X105131Y191153D01*
X104432Y191851D02*
X105000Y191284D01*
X298376Y155733D02*
Y161295D01*
Y154920D02*
Y155733D01*
X68510Y190000D02*
X68520D01*
X65858D02*
X68510D01*
X248500Y162257D02*
X249981Y163738D01*
X247243Y161000D02*
X248500Y162257D01*
X388886Y163142D02*
X396000D01*
X438437Y151768D02*
X440004Y153335D01*
X438292Y151623D02*
X438437Y151768D01*
X443499D01*
X435519D02*
X438437D01*
X226926Y55772D02*
X227237Y56083D01*
X226654Y55500D02*
X226926Y55772D01*
X323716Y206697D02*
X328847D01*
X332772Y210622D01*
X407292Y147236D02*
X408793D01*
X409199Y147643D01*
X409301D01*
X332772Y210622D02*
Y211409D01*
Y227748D01*
X409301Y147643D02*
X409307Y147650D01*
X410766D02*
X411247Y148130D01*
X409307Y147650D02*
X410766D01*
X411247Y148130D02*
X411534D01*
X412806Y149401D02*
Y150189D01*
X411534Y148130D02*
X412806Y149401D01*
X333756Y192500D02*
X340500D01*
X333500Y192756D02*
X333756Y192500D01*
X243000Y205012D02*
Y215000D01*
X241630Y203642D02*
X243000Y205012D01*
X241000Y203642D02*
X241630D01*
X237262Y175330D02*
Y178596D01*
X236858Y179000D02*
X237262Y178596D01*
Y175330D02*
X239090Y173502D01*
X236858Y179000D02*
Y187000D01*
X239090Y172928D02*
Y173502D01*
Y172928D02*
X239469Y172550D01*
X236858Y187902D02*
X238457Y189500D01*
X234000Y187000D02*
X236858D01*
Y187902D01*
X238457Y187000D02*
Y189500D01*
X250500Y203642D02*
X259668D01*
X263018Y200291D01*
X333500Y179325D02*
X333539Y179286D01*
X333500Y179325D02*
Y186000D01*
X291971Y150753D02*
Y155446D01*
X294463Y148261D02*
X297239D01*
X291971Y150753D02*
X294463Y148261D01*
X297239D02*
X297500Y148000D01*
X291683Y155733D02*
X291971Y155446D01*
X324352Y146728D02*
X328124Y150500D01*
X356109Y139728D02*
Y149100D01*
X354000Y151209D02*
X356109Y149100D01*
X261417Y176772D02*
X261506Y176683D01*
X144133Y208000D02*
X144523Y208390D01*
Y215669D01*
X144913Y216059D01*
X144523Y208000D02*
X156000D01*
X170472Y183858D02*
X175197Y179134D01*
X169291Y185039D02*
X170472Y183858D01*
X175197D01*
X211500Y185500D02*
X212122Y184878D01*
X125350Y216059D02*
Y217929D01*
X127421Y220000D01*
X127469D02*
X127969Y220500D01*
X127421Y220000D02*
X127469D01*
X127969Y220500D02*
X147968D01*
X148969Y216177D02*
Y219500D01*
X149969Y220500D01*
X147968D02*
X148969Y219500D01*
X149969Y220500D02*
X171968D01*
X196937Y216012D02*
X196968Y216043D01*
X211500Y185500D02*
Y190257D01*
X196968Y216043D02*
Y219500D01*
X172937Y216012D02*
Y219531D01*
X173000D02*
X173969Y220500D01*
X171968D02*
X172937Y219531D01*
X173969Y220500D02*
X195968D01*
X196968Y219500D01*
X231548Y163957D02*
X235038D01*
X230600Y164905D02*
X231548Y163957D01*
X235038D02*
X235531Y164450D01*
X226000Y176331D02*
Y179000D01*
X234000Y187000D01*
X230600Y164905D02*
Y172142D01*
X231811D02*
X232500Y171453D01*
X230600Y172142D02*
X231811D01*
X246228Y171225D02*
Y172709D01*
Y171225D02*
X247709Y169744D01*
X245813Y173124D02*
X246228Y172709D01*
X247709Y169744D02*
X248500D01*
X256500D01*
X228480Y187000D02*
Y187254D01*
X229138Y187912D01*
X230607D01*
X232195Y189500D02*
X238457D01*
X230607Y187912D02*
X232195Y189500D01*
X234500Y192637D02*
Y202914D01*
X235086Y203500D01*
X236004Y192051D02*
X238457Y189598D01*
Y189500D02*
Y189598D01*
X234500Y192637D02*
X235086Y192051D01*
X236004D01*
X150858Y175114D02*
X154138Y171835D01*
X137995Y164788D02*
X139527Y163256D01*
X141783Y161000D02*
Y161886D01*
X137995Y164788D02*
Y168441D01*
X140413Y163256D02*
X141783Y161886D01*
X139527Y163256D02*
X140413D01*
X150500Y163740D02*
X151181Y164421D01*
X152672D01*
X152751Y164500D02*
X153000D01*
X154138Y165638D01*
X152672Y164421D02*
X152751Y164500D01*
X144256Y163256D02*
X147000Y166000D01*
X143154Y163256D02*
X144256D01*
X141783Y161886D02*
X143154Y163256D01*
X148850Y216059D02*
X148969Y216177D01*
X198567Y220270D02*
X215878Y202958D01*
Y184878D02*
Y202958D01*
X197738Y220270D02*
X198567D01*
X196968Y219500D02*
X197738Y220270D01*
X138000Y185250D02*
X138999Y184251D01*
X138000Y185250D02*
Y191500D01*
X138999Y184251D02*
X141533D01*
X141783Y184000D01*
X145000D02*
X147000Y182000D01*
X141783Y184000D02*
X145000D01*
X150858Y175114D02*
Y176000D01*
X147000Y177201D02*
X148074Y176127D01*
X150732D02*
X150858Y176000D01*
X147000Y166000D02*
Y177201D01*
X148074Y176127D02*
X150732D01*
X147000Y177201D02*
Y182000D01*
X221000Y175000D02*
X225358D01*
X226000Y175642D01*
X212122Y184878D02*
X215878D01*
X220830Y176170D02*
X225472D01*
X212122Y184878D02*
X220830Y176170D01*
X154138Y165638D02*
Y171835D01*
Y165638D02*
X156895D01*
X157480Y166224D01*
Y168995D01*
X217000Y171000D02*
X221000Y175000D01*
X157480Y168995D02*
X159485Y171000D01*
X217000D01*
X298376Y161295D02*
X299852Y162772D01*
X224886Y216831D02*
X225173Y217118D01*
X224886Y214357D02*
Y216831D01*
X223000Y212471D02*
X224886Y214357D01*
X223000Y212000D02*
Y212471D01*
X295030Y155733D02*
Y159681D01*
X295740Y160391D02*
Y160760D01*
X295030Y159681D02*
X295740Y160391D01*
X227500Y212000D02*
X227616Y212116D01*
Y217002D01*
X227732Y217118D01*
X259724Y166672D02*
X263052Y170000D01*
X251738Y163738D02*
X252637Y164637D01*
X249981Y163738D02*
X251738D01*
X252637Y164637D02*
Y164690D01*
X253276Y165328D02*
X253328D01*
X252637Y164690D02*
X253276Y165328D01*
X253328D02*
X254672Y166672D01*
X259724D01*
X239469Y162031D02*
Y164900D01*
X240500Y161000D02*
X247243D01*
X239469Y162031D02*
X240500Y161000D01*
X272315Y158442D02*
X274332Y160459D01*
Y160668D01*
X272315Y156444D02*
Y158442D01*
X271605Y155733D02*
X272315Y156444D01*
X141409Y194059D02*
X142968Y192500D01*
X143500D01*
X138000Y194059D02*
X141409D01*
X259247Y173253D02*
X267471D01*
X159449Y185039D02*
Y190745D01*
X160630Y183858D02*
X165354Y179134D01*
X159449Y185039D02*
X160630Y183858D01*
X165354D01*
X267471Y159867D02*
X267758Y160155D01*
X269288D01*
X270689Y161556D02*
X273331Y164197D01*
X269288Y160155D02*
X270689Y161556D01*
X270689D01*
X274000Y165459D02*
Y166000D01*
X273331Y164790D02*
X274000Y165459D01*
X273331Y164197D02*
Y164790D01*
X142959Y197500D02*
X143500D01*
X142077Y196618D02*
X142959Y197500D01*
X138000Y196618D02*
X142077D01*
X261590Y183292D02*
X267471D01*
X261417Y183465D02*
X261590Y183292D01*
X188976Y185039D02*
Y190745D01*
X190157Y183858D02*
X194882Y179134D01*
X188976Y185039D02*
X190157Y183858D01*
X194882D01*
X258728Y199852D02*
X260453Y198127D01*
X262297D02*
X263627Y196797D01*
X260453Y198127D02*
X262297D01*
X263627Y195291D02*
X265299Y193619D01*
X263627Y195291D02*
Y196797D01*
X268460Y193619D02*
X268480Y193598D01*
X278585Y156808D02*
X278814D01*
X278297Y156521D02*
X278585Y156808D01*
X278814D02*
X280405Y158399D01*
X280861D01*
X278297Y155733D02*
Y156521D01*
X280861Y158399D02*
X282912Y160450D01*
X141964Y171000D02*
X142964Y170000D01*
X143500D01*
X137995Y171000D02*
X141964D01*
X259054Y179946D02*
X267471D01*
X180315Y183858D02*
X185039D01*
X180315D02*
X185039Y179134D01*
X179134Y185039D02*
X180315Y183858D01*
X179134Y185039D02*
Y190745D01*
X261616Y195052D02*
X266417Y190252D01*
X261356Y195856D02*
X261616Y195595D01*
Y195052D02*
Y195595D01*
X249802Y67396D02*
X252216D01*
X252938Y66673D01*
X254147D01*
X254529Y66291D01*
X257156D01*
X257819Y65628D01*
Y64076D02*
Y65628D01*
Y64076D02*
X258894Y63000D01*
X251004Y211079D02*
X253661D01*
X251004D02*
Y227417D01*
X255117Y212535D02*
Y213617D01*
X255500Y214000D01*
X253661Y211079D02*
X255117Y212535D01*
X268480Y196945D02*
X268508Y196972D01*
X273472D01*
X273500Y197000D01*
X288089Y155982D02*
X288337Y155733D01*
X288089Y155982D02*
Y160022D01*
X125000Y199182D02*
Y202500D01*
Y199182D02*
X125005Y199177D01*
X124663Y176118D02*
X125000D01*
X122137Y178480D02*
X122520Y178098D01*
X115413Y178480D02*
X122137D01*
X124514Y176267D02*
Y177296D01*
X123712Y178098D02*
X124514Y177296D01*
Y176267D02*
X124663Y176118D01*
X122520Y178098D02*
X123712D01*
X287828Y160283D02*
X288089Y160022D01*
X155500Y160000D02*
X160736D01*
X111933Y175000D02*
X115413Y178480D01*
X106902Y175000D02*
X111933D01*
X99968Y168067D02*
X106902Y175000D01*
X86566Y170512D02*
X91553D01*
X86554Y170500D02*
X86566Y170512D01*
X91553D02*
X91564Y170500D01*
X80186D02*
X86554D01*
X79434Y169748D02*
X80186Y170500D01*
X96447Y169555D02*
X96473D01*
X95503Y170500D02*
X96447Y169555D01*
X96473D02*
X97109Y168920D01*
X91564Y170500D02*
X95503D01*
X79409Y169748D02*
X79434D01*
X69552Y170512D02*
X69564Y170500D01*
X64566Y170512D02*
X69552D01*
X69564Y170500D02*
X73695D01*
X58051D02*
X64554D01*
X64566Y170512D01*
X74473Y169748D02*
X75109Y169112D01*
X74448Y169748D02*
X74473D01*
X78773Y169112D02*
X79409Y169748D01*
X34658Y170303D02*
X46993D01*
X73695Y170500D02*
X74448Y169748D01*
X97109Y168722D02*
Y168920D01*
X78773Y168915D02*
Y169112D01*
X78118Y168260D02*
X78773Y168915D01*
X97109Y168722D02*
X97764Y168067D01*
X75764Y168260D02*
X76941D01*
X78118D01*
X55602Y168051D02*
X58051Y170500D01*
X46993Y170303D02*
X49245Y168051D01*
X32433Y168079D02*
X34658Y170303D01*
X75109Y168915D02*
X75764Y168260D01*
X75109Y168915D02*
Y169112D01*
X54382Y168051D02*
X55602D01*
X31213Y168079D02*
X32433D01*
X49245Y168051D02*
X54382D01*
X275840Y157409D02*
Y157840D01*
X275238Y156021D02*
Y156808D01*
X275840Y157840D02*
X278500Y160500D01*
X274951Y155733D02*
X275238Y156021D01*
Y156808D02*
X275840Y157409D01*
X142959Y174500D02*
X143500D01*
X142018Y173559D02*
X142959Y174500D01*
X137995Y173559D02*
X142018D01*
X262000Y164500D02*
X264000Y166500D01*
X252363Y159863D02*
X253275Y160775D01*
X255019D01*
X251685Y159185D02*
X251724D01*
X252363Y159823D01*
Y159863D01*
X258772Y163914D02*
X259358Y164500D01*
X257291Y162257D02*
X258772Y163738D01*
X259358Y164500D02*
X262000D01*
X256500Y162257D02*
X257291D01*
X255019Y160775D02*
X256500Y162257D01*
X258772Y163738D02*
Y163914D01*
X237500Y161751D02*
Y164900D01*
X240251Y159000D02*
X251500D01*
X251685Y159185D01*
X237500Y161751D02*
X240251Y159000D01*
X386086Y167728D02*
X396728D01*
X418320Y151173D02*
X418349Y151202D01*
X420525D01*
X422217Y152894D01*
X423956D01*
X433000Y110500D02*
X437000D01*
X441851Y145057D02*
X441921Y145127D01*
X399496Y145000D02*
X401339Y146843D01*
X212199Y71914D02*
X212785Y72500D01*
X212199Y71652D02*
Y71914D01*
X212785Y72500D02*
X219654D01*
X211560Y71013D02*
X212199Y71652D01*
X223438Y55500D02*
X226654D01*
X222068Y54130D02*
X223438Y55500D01*
X222068Y54000D02*
Y54130D01*
X227237Y56083D02*
Y57311D01*
X231686Y60650D02*
X231740Y60704D01*
X227237Y57311D02*
X230576Y60650D01*
X231686D01*
X354000Y151209D02*
Y152000D01*
X210526Y63600D02*
X211457Y64531D01*
X209926Y60709D02*
Y61317D01*
X210526Y61918D02*
Y63600D01*
X209926Y61317D02*
X210526Y61918D01*
X215426Y64531D02*
X219805D01*
X220773Y65500D01*
X226426Y66349D02*
Y69500D01*
Y66349D02*
X227274Y65500D01*
X222993Y69000D02*
X223198Y69205D01*
Y72500D01*
X228755Y68200D02*
Y71914D01*
X223198Y72500D02*
X228169D01*
X228755Y71914D01*
Y68200D02*
X229394Y67561D01*
X230345D01*
X255719Y73294D02*
Y74270D01*
X229586Y62656D02*
X230345D01*
X226431Y59500D02*
X229586Y62656D01*
X224009Y59500D02*
X226431D01*
X223907Y62500D02*
X226524D01*
X228330Y64305D01*
X231207D01*
X227670Y65896D02*
X231223D01*
X227274Y65500D02*
X227670Y65896D01*
X223907Y65500D02*
X227274D01*
X220843Y59500D02*
X220894Y59551D01*
Y62449D01*
X220945Y62500D01*
Y65500D01*
X220773D02*
X220945D01*
X250202Y74276D02*
X256426Y80500D01*
X249210Y74188D02*
X249299Y74276D01*
X256426Y80500D02*
X260011D01*
X249299Y74276D02*
X250202D01*
X256910Y70620D02*
X256926Y70604D01*
X256745Y70620D02*
X256910D01*
X268847Y68968D02*
X269005D01*
X270257Y67300D02*
X270426Y67131D01*
X270257Y67300D02*
Y67716D01*
X257845Y69014D02*
X259359Y67500D01*
X256926Y70604D02*
X265500D01*
X267211D02*
X268847Y68968D01*
X249727Y72195D02*
X254621D01*
X255719Y73294D01*
X260958Y84803D02*
Y85000D01*
X260011Y83856D02*
X260958Y84803D01*
X260011Y80500D02*
Y83856D01*
X403701Y149205D02*
X407292D01*
X401339Y146843D02*
X403701Y149205D01*
X399369Y148000D02*
X400526Y146843D01*
X401339D01*
X399000Y148000D02*
X399369D01*
X415758Y137752D02*
X417991Y135520D01*
X415758Y137752D02*
Y139500D01*
Y144675D01*
X415899Y139641D02*
X418058D01*
X415758Y139500D02*
X415899Y139641D01*
X423652Y149205D02*
X424499Y150051D01*
X418320Y149205D02*
X423652D01*
X418320Y153142D02*
X419675D01*
X422421Y155888D01*
X413761Y155732D02*
Y158287D01*
Y155732D02*
X413790Y155703D01*
X401710Y153127D02*
X405907D01*
X401696Y153112D02*
X401710Y153127D01*
X411414Y136914D02*
Y142913D01*
X408836Y134336D02*
X411414Y136914D01*
X407407Y132907D02*
X408836Y134336D01*
X409664D02*
X411500Y132500D01*
X408836Y134336D02*
X409664D01*
X406416Y130000D02*
X407407Y130991D01*
Y132907D01*
X411500Y127000D02*
X413790D01*
Y144675D01*
X409853Y143262D02*
Y144626D01*
X407921Y141330D02*
X409853Y143262D01*
X407921Y137375D02*
Y141330D01*
X411414Y142913D02*
X411792Y143291D01*
X427500Y172000D02*
Y174500D01*
X423766Y176334D02*
X424234Y176803D01*
X396728Y167728D02*
X398965Y169965D01*
X403965D01*
X418320Y147236D02*
X419675D01*
X420860Y146051D01*
Y144696D02*
Y146051D01*
Y144696D02*
X421567Y143989D01*
X424499D01*
X424578D02*
X425547Y143020D01*
X428000Y122500D02*
Y122678D01*
X382583Y148500D02*
X384583Y150500D01*
X383500Y170500D02*
Y175000D01*
X398942Y167693D02*
X402500D01*
X402606Y168374D02*
X402999D01*
X402747Y150500D02*
X403420Y151173D01*
X384583Y150500D02*
X391500D01*
X230291Y211709D02*
X233117Y208883D01*
X234617D01*
X230291Y211709D02*
Y217118D01*
X234617Y208883D02*
X235000Y208500D01*
X216252Y206248D02*
X220693D01*
X227624Y195396D02*
X228336Y196108D01*
X227624Y192441D02*
Y195396D01*
X226430Y191248D02*
X227624Y192441D01*
X222042Y191248D02*
X226430D01*
X220856Y196108D02*
X221096Y195868D01*
Y192194D02*
X222042Y191248D01*
X221096Y192194D02*
Y195868D01*
X92804Y207698D02*
Y208000D01*
X214000Y208500D02*
X216252Y206248D01*
X90520Y205413D02*
X92804Y207698D01*
X90520Y200000D02*
Y205413D01*
Y198779D02*
Y200000D01*
X112415Y193013D02*
Y193554D01*
X93709Y195590D02*
X102910D01*
X104432Y194068D01*
X90520Y198779D02*
X93709Y195590D01*
X104432Y191851D02*
Y194068D01*
X125005Y189690D02*
Y191500D01*
X121728Y186414D02*
X125005Y189690D01*
X121728Y185512D02*
Y186414D01*
X123143Y182331D02*
X128500Y176973D01*
X121728Y182331D02*
X123143D01*
X120845Y184628D02*
X121728Y185512D01*
X120358Y184000D02*
X120916Y184558D01*
Y183143D02*
X121728Y182331D01*
X128500Y176903D02*
X128559Y176844D01*
Y170274D02*
Y176844D01*
X128500Y176903D02*
Y176973D01*
X126726Y168441D02*
X128559Y170274D01*
X125000Y168441D02*
X126726D01*
X120358Y161000D02*
X125000Y165642D01*
Y168441D01*
X117244Y157000D02*
X120358Y160114D01*
X110573Y191171D02*
X112415Y193013D01*
X110573Y191153D02*
Y191171D01*
X105131Y191153D02*
X110573D01*
X120358Y160114D02*
Y161000D01*
X89216Y163244D02*
X90586Y161874D01*
Y160988D02*
Y161874D01*
X103459Y158500D02*
X104000D01*
X104086D01*
X102101Y157142D02*
X103459Y158500D01*
X105586Y157000D02*
X117244D01*
X104086Y158500D02*
X105586Y157000D01*
X90586Y160102D02*
X93547Y157142D01*
X90586Y160102D02*
Y160988D01*
X93547Y157142D02*
X102101D01*
X85590Y195590D02*
X93709D01*
X70672Y207698D02*
Y208000D01*
X84068Y194068D02*
X85590Y195590D01*
X68520Y199236D02*
X72256Y195500D01*
X68500Y205526D02*
X70672Y207698D01*
X68500Y199902D02*
X68520Y199882D01*
X68500Y199902D02*
Y205526D01*
X68520Y199236D02*
Y199882D01*
X72256Y195500D02*
X80500D01*
X81932Y194068D01*
X64000Y195500D02*
X72256D01*
X84068Y192351D02*
Y194068D01*
X81932Y192351D02*
Y194068D01*
X62568D02*
X64000Y195500D01*
X62568Y192654D02*
Y194068D01*
X59432Y192654D02*
Y194068D01*
X62414Y192500D02*
X62568Y192654D01*
X25672Y202298D02*
Y207500D01*
X24020Y200646D02*
X25672Y202298D01*
X24020Y199382D02*
Y200646D01*
Y198161D02*
Y199382D01*
X46000Y198280D02*
X49279Y195000D01*
X58500D01*
X42886D02*
X49279D01*
X58500D02*
X59432Y194068D01*
X39386Y191500D02*
X42886Y195000D01*
X26971Y195210D02*
X33904D01*
X24020Y198161D02*
X26971Y195210D01*
X38500Y191500D02*
X39386D01*
X37614D02*
X38500D01*
X88998Y168260D02*
X89059D01*
X88343Y167605D02*
X88998Y168260D01*
X88343Y163830D02*
X88929Y163244D01*
X88343Y163830D02*
Y167605D01*
X83000Y191284D02*
X84068Y192351D01*
X81932Y192351D02*
X83000Y191284D01*
X67059Y163634D02*
Y168260D01*
X88929Y163244D02*
X89216D01*
X68489Y160433D02*
X71922Y157000D01*
X86598D02*
X90586Y160988D01*
X71922Y157000D02*
X86598D01*
X68489Y161319D02*
Y162205D01*
Y160433D02*
Y161319D01*
X67059Y163634D02*
X68489Y162205D01*
X64922Y156866D02*
X68489Y160433D01*
X61000Y191284D02*
Y192500D01*
X60802Y191284D02*
X61000D01*
X59432Y192654D02*
X60802Y191284D01*
X44500Y162390D02*
Y168051D01*
X33904Y195210D02*
X37614Y191500D01*
X21331Y163413D02*
Y168079D01*
X42866Y157153D02*
X45858Y160146D01*
X44500Y162390D02*
X45858Y161031D01*
X49138Y156866D02*
X64922D01*
X45858Y160146D02*
X49138Y156866D01*
X22858Y160114D02*
Y161000D01*
X25819Y157153D02*
X42866D01*
X22858Y160114D02*
X25819Y157153D01*
X104479Y200000D02*
X105133Y199346D01*
X98000Y200000D02*
X104479D01*
X105500Y177000D02*
Y177500D01*
X101112Y172612D02*
X105500Y177000D01*
X86208Y181039D02*
X97845D01*
X101154Y184348D01*
Y186322D01*
X99745Y172612D02*
X101112D01*
X101792Y186961D02*
X109485D01*
X115060Y192535D01*
X115240D01*
X116205Y193500D01*
X117000D01*
X117497Y193997D01*
X101154Y186322D02*
X101792Y186961D01*
X89070Y186646D02*
X91793D01*
X86847Y181678D02*
Y184422D01*
X89070Y186646D01*
X92772Y187625D02*
Y187650D01*
X93407Y188286D01*
X93605D01*
X94260Y188941D01*
Y190118D01*
X91793Y186646D02*
X92772Y187625D01*
X74461Y181039D02*
X86208D01*
X86847Y181678D01*
X72542Y182958D02*
X74461Y181039D01*
X72542Y182958D02*
Y189718D01*
X113500Y171500D02*
X117000Y175000D01*
X108000Y171500D02*
X113500D01*
X93130Y175370D02*
X93500Y175000D01*
X89429Y175370D02*
X93130D01*
X89059Y175740D02*
X89429Y175370D01*
X116750Y198750D02*
X117000Y198500D01*
X112750Y198750D02*
X116750D01*
X112500Y199000D02*
X112750Y198750D01*
X113500Y166500D02*
X117000Y170000D01*
X105000Y166500D02*
X113500D01*
X59959Y174000D02*
X60500D01*
X58264Y172305D02*
X59959Y174000D01*
X77531Y172591D02*
X81049D01*
X82459Y174000D02*
X83000D01*
X81049Y172591D02*
X82459Y174000D01*
X47297Y183703D02*
X49500Y181500D01*
X47297Y183703D02*
Y183797D01*
X49838Y186338D01*
X49000Y172000D02*
Y172208D01*
X45677Y175531D02*
X49000Y172208D01*
X44500Y175531D02*
X45677D01*
X123197Y196618D02*
X125005D01*
X121315Y198500D02*
X123197Y196618D01*
X117000Y198500D02*
X121315D01*
X123105Y171000D02*
X125000D01*
X122105Y170000D02*
X123105Y171000D01*
X117000Y170000D02*
X122105D01*
X123105Y173559D02*
X125000D01*
X121664Y175000D02*
X123105Y173559D01*
X117000Y175000D02*
X121664D01*
X71019Y178693D02*
X84886D01*
X69386Y177060D02*
X71019Y178693D01*
X84886D02*
X87839Y175740D01*
X69386Y177060D02*
Y177060D01*
X67059Y175740D02*
X68236D01*
X68891Y176395D01*
Y176565D01*
X69386Y177060D01*
X21331Y175559D02*
X24272Y178500D01*
X40311D02*
X43279Y175531D01*
X24272Y178500D02*
X40311D01*
X43279Y175531D02*
X44500D01*
X87839Y175740D02*
X89059D01*
X76941Y172000D02*
X77531Y172591D01*
X54896Y172305D02*
X58264D01*
X54382Y171791D02*
X54896Y172305D01*
X72260Y190000D02*
X72542Y189718D01*
X49838Y189338D02*
X50000Y189500D01*
X49838Y186338D02*
Y189338D01*
X44756Y181256D02*
X47297Y183797D01*
X32244Y181256D02*
X44756D01*
X27760Y185740D02*
Y189500D01*
Y185740D02*
X32244Y181256D01*
X34033Y189799D02*
Y191713D01*
X35292Y188539D02*
X41708D01*
X34033Y189799D02*
X35292Y188539D01*
X41708D02*
X42668Y189500D01*
X79792Y188323D02*
X89864D01*
X78533Y189583D02*
X79792Y188323D01*
X78533Y189583D02*
Y192213D01*
X102500Y216000D02*
Y221642D01*
X79500Y216000D02*
Y221142D01*
X56484Y221626D02*
X56500Y221642D01*
X56484Y216028D02*
Y221626D01*
X56468Y216012D02*
X56484Y216028D01*
X33984Y221484D02*
X34000Y221500D01*
X33984Y216028D02*
Y221484D01*
X33968Y216012D02*
X33984Y216028D01*
X31213Y171819D02*
X31530Y172136D01*
X35121D01*
X36985Y174000D01*
X37500D01*
X33211Y207711D02*
X35049Y209549D01*
X31211Y207711D02*
X33211D01*
X31000Y207500D02*
X31211Y207711D01*
X33968Y210630D02*
X35049Y209549D01*
X38500Y206099D01*
Y205808D02*
Y206099D01*
X33968Y210630D02*
Y216012D01*
X53500Y207500D02*
X53711Y207711D01*
X55711D01*
X56468Y210476D02*
X57472Y209472D01*
X61000Y205945D01*
X55711Y207711D02*
X57472Y209472D01*
X56468Y210476D02*
Y216012D01*
X61000Y205654D02*
Y205945D01*
X79500Y209154D02*
X79791D01*
X83000Y205945D01*
X76000Y208000D02*
X78346D01*
X79500Y209154D01*
X83000Y205654D02*
Y205945D01*
X79500Y209154D02*
Y216000D01*
X98133Y208000D02*
X99823D01*
X100401Y208578D01*
X102500D01*
Y216000D01*
Y208578D02*
X105133Y205945D01*
Y205654D02*
Y205945D01*
X60964Y199382D02*
X61000Y199346D01*
X53740Y199382D02*
X60964D01*
X24010Y189490D02*
X24020Y189500D01*
X24010Y184010D02*
Y189490D01*
X24000Y184000D02*
X24010Y184010D01*
X24020Y189500D02*
Y190720D01*
X26272Y192972D01*
X32773D01*
X34033Y191713D01*
X42668Y189500D02*
X46260D01*
X46255Y190716D02*
X48512Y192972D01*
X55013D01*
X56643Y191343D01*
Y189473D02*
Y191343D01*
Y189473D02*
X57792Y188323D01*
X64208D01*
X65033Y189148D01*
Y189175D01*
X65858Y190000D01*
X68510Y191211D02*
X70772Y193472D01*
X77273D01*
X78533Y192213D01*
X89864Y188323D02*
X90520Y188978D01*
Y190118D01*
X146500Y160000D02*
X150201D01*
X117497Y193997D02*
X124943D01*
X125005Y194059D01*
X82464Y199882D02*
X83000Y199346D01*
X76000Y199882D02*
X82464D01*
X401134Y157385D02*
X407913D01*
X403420Y151173D02*
X407292D01*
X403094Y161000D02*
X407011D01*
X408031Y162020D01*
X407913Y157385D02*
X409206Y158677D01*
X333500Y200243D02*
X333744Y200000D01*
X337257D01*
X341236Y203980D01*
X333539Y171799D02*
X334133Y171205D01*
X337226D01*
X338746Y169685D01*
X343500D01*
X341236Y211409D02*
Y227748D01*
Y203980D02*
Y211409D01*
X433271Y149520D02*
X435519Y151768D01*
X408005Y124875D02*
X413790D01*
X413481Y121375D02*
X413790Y121683D01*
Y124875D01*
Y127000D01*
X404421Y121375D02*
X404505D01*
X408005Y124875D01*
X409921Y118375D02*
X412047Y116249D01*
X409921Y118375D02*
Y121375D01*
D135*
X288534Y189788D02*
D03*
D136*
X450744Y64575D02*
D03*
X416492D02*
D03*
X64500Y64500D02*
D03*
X30248D02*
D03*
X416492Y84575D02*
D03*
X450744D02*
D03*
X64500Y84500D02*
D03*
X30248D02*
D03*
D137*
X446815Y13000D02*
D03*
X466500D02*
D03*
X34000Y12500D02*
D03*
X14315D02*
D03*
X446815Y26779D02*
D03*
X466500D02*
D03*
X34000Y26280D02*
D03*
X14315D02*
D03*
D138*
X395500Y201500D02*
D03*
D139*
X375815Y189689D02*
D03*
D140*
X217926Y22500D02*
D03*
X261426D02*
D03*
D141*
X395500Y177091D02*
D03*
D142*
X235016Y217118D02*
D03*
X215331D02*
D03*
D143*
X283714Y195118D02*
D03*
X281214Y189618D02*
D03*
Y183618D02*
D03*
X305000Y171000D02*
D03*
X299500D02*
D03*
X294000D02*
D03*
X43500Y185500D02*
D03*
X433500Y190500D02*
D03*
X441921Y193875D02*
D03*
X441999Y206520D02*
D03*
Y197520D02*
D03*
Y203520D02*
D03*
Y200520D02*
D03*
Y221520D02*
D03*
Y227520D02*
D03*
Y224520D02*
D03*
Y212520D02*
D03*
Y209520D02*
D03*
Y218520D02*
D03*
Y215520D02*
D03*
X295000Y197000D02*
D03*
X301500Y196500D02*
D03*
X308000Y189500D02*
D03*
X289000Y197000D02*
D03*
X308000Y176500D02*
D03*
Y183000D02*
D03*
X476922Y132355D02*
D03*
Y120855D02*
D03*
Y124355D02*
D03*
Y139355D02*
D03*
Y135855D02*
D03*
Y128855D02*
D03*
X477000Y114000D02*
D03*
X476922Y117355D02*
D03*
X439078Y121645D02*
D03*
Y124645D02*
D03*
Y114645D02*
D03*
Y118145D02*
D03*
X455500Y114500D02*
D03*
Y118000D02*
D03*
Y124500D02*
D03*
Y129000D02*
D03*
Y121500D02*
D03*
X439078Y132145D02*
D03*
Y135145D02*
D03*
Y138145D02*
D03*
Y129145D02*
D03*
X455500Y135000D02*
D03*
Y132000D02*
D03*
Y138000D02*
D03*
D144*
X412806Y150189D02*
D03*
X249282Y85502D02*
D03*
X242140D02*
D03*
X245782D02*
D03*
X242107Y82303D02*
D03*
X245749D02*
D03*
X245849Y78939D02*
D03*
X238601Y85579D02*
D03*
X234893Y85539D02*
D03*
X238568Y82380D02*
D03*
X234879Y82399D02*
D03*
X238630Y78954D02*
D03*
X231282Y85502D02*
D03*
X234971Y79015D02*
D03*
X242206Y78939D02*
D03*
X231249Y82303D02*
D03*
X249249D02*
D03*
X234241Y70823D02*
D03*
Y74827D02*
D03*
X237859Y74787D02*
D03*
X237818Y70722D02*
D03*
X244871Y70762D02*
D03*
X241436Y70681D02*
D03*
X241281Y74837D02*
D03*
X244988Y74754D02*
D03*
X231525Y52636D02*
D03*
X249525D02*
D03*
X246753Y63940D02*
D03*
X243046Y64024D02*
D03*
X243201Y59868D02*
D03*
X246637Y59949D02*
D03*
X238568Y56000D02*
D03*
X239583Y59908D02*
D03*
X239624Y63973D02*
D03*
X245803Y55924D02*
D03*
X249492Y49437D02*
D03*
X242144Y55985D02*
D03*
X245896Y52540D02*
D03*
X242207Y52559D02*
D03*
X245882Y49400D02*
D03*
X242174Y49360D02*
D03*
X236006Y64014D02*
D03*
Y60010D02*
D03*
X234926Y56000D02*
D03*
X235025Y52636D02*
D03*
X238667D02*
D03*
X234992Y49437D02*
D03*
X238634D02*
D03*
X231492D02*
D03*
X226426Y69500D02*
D03*
D145*
X12705Y219882D02*
D03*
X469205Y220382D02*
D03*
M02*
