G04*
G04 #@! TF.GenerationSoftware,Altium Limited,Altium Designer,25.8.1 (18)*
G04*
G04 Layer_Physical_Order=3*
G04 Layer_Color=128*
%FSLAX25Y25*%
%MOIN*%
G70*
G04*
G04 #@! TF.SameCoordinates,E010760D-FB29-432B-967E-C6BB433EED36*
G04*
G04*
G04 #@! TF.FilePolarity,Negative*
G04*
G01*
G75*
%ADD146C,0.04000*%
%ADD147C,0.10299*%
%ADD148C,0.08331*%
%ADD149C,0.09512*%
%ADD150C,0.26441*%
%ADD151O,0.17779X0.07937*%
%ADD152O,0.06362X0.09118*%
%ADD153C,0.07347*%
%ADD154C,0.05500*%
%ADD155C,0.05181*%
%ADD156C,0.05378*%
%ADD157C,0.16000*%
%ADD158O,0.15811X0.07937*%
%ADD159O,0.07937X0.15811*%
G36*
X325315Y214000D02*
X264685D01*
Y236000D01*
X325315D01*
Y214000D01*
D02*
G37*
D146*
X2916Y233882D02*
G03*
X-1295Y229650I21J-4232D01*
G01*
X482205Y228382D02*
G03*
X476655Y233910I-5298J230D01*
G01*
X-1118Y2698D02*
G03*
X2698Y-1118I3816J0D01*
G01*
X478703Y-1119D02*
G03*
X482205Y2383I0J3502D01*
G01*
X2916Y233882D02*
X264685Y233882D01*
Y214000D02*
Y233882D01*
Y214000D02*
X325315D01*
Y233882D01*
X476655Y233882D01*
X476655Y233910D02*
X476655Y233882D01*
X482205Y2383D02*
X482205Y228382D01*
X-1295Y229650D02*
X-1118Y2698D01*
X2698Y-1118D02*
X2705Y-1118D01*
X478703Y-1119D01*
D147*
X121114Y26345D02*
D03*
Y39731D02*
D03*
X121142Y72652D02*
D03*
Y86038D02*
D03*
X358028Y39693D02*
D03*
Y26307D02*
D03*
X358055Y73000D02*
D03*
Y86386D02*
D03*
D148*
X446815Y13000D02*
D03*
X466500D02*
D03*
X34000Y12500D02*
D03*
X14315D02*
D03*
X446815Y26779D02*
D03*
X466500D02*
D03*
X34000Y26280D02*
D03*
X14315D02*
D03*
D149*
X450744Y64575D02*
D03*
X416492D02*
D03*
X64500Y64500D02*
D03*
X30248D02*
D03*
X416492Y84575D02*
D03*
X450744D02*
D03*
X64500Y84500D02*
D03*
X30248D02*
D03*
D150*
X217926Y22500D02*
D03*
X261426D02*
D03*
D151*
X395500Y177091D02*
D03*
D152*
X238953Y227748D02*
D03*
X211394D02*
D03*
D153*
X235016Y217118D02*
D03*
X215331D02*
D03*
D154*
X354835Y126588D02*
D03*
X264835Y141088D02*
D03*
X242000Y146177D02*
D03*
X263500Y150457D02*
D03*
X247728Y146176D02*
D03*
X218000Y62500D02*
D03*
X283714Y195118D02*
D03*
X281214Y189618D02*
D03*
Y183618D02*
D03*
X305000Y171000D02*
D03*
X299500D02*
D03*
X294000D02*
D03*
X43500Y185500D02*
D03*
X433500Y190500D02*
D03*
X441921Y193875D02*
D03*
X441999Y206520D02*
D03*
Y197520D02*
D03*
Y203520D02*
D03*
Y200520D02*
D03*
Y221520D02*
D03*
Y227520D02*
D03*
Y224520D02*
D03*
Y212520D02*
D03*
Y209520D02*
D03*
Y218520D02*
D03*
Y215520D02*
D03*
X295000Y197000D02*
D03*
X301500Y196500D02*
D03*
X308000Y189500D02*
D03*
X289000Y197000D02*
D03*
X308000Y176500D02*
D03*
Y183000D02*
D03*
X476922Y132355D02*
D03*
Y120855D02*
D03*
Y124355D02*
D03*
Y139355D02*
D03*
Y135855D02*
D03*
Y128855D02*
D03*
X477000Y114000D02*
D03*
X476922Y117355D02*
D03*
X131000Y156000D02*
D03*
X113000Y161000D02*
D03*
X101000Y179500D02*
D03*
X95000Y184500D02*
D03*
X82500Y161000D02*
D03*
X76500Y184500D02*
D03*
X61000Y178000D02*
D03*
X60500Y161500D02*
D03*
X37500D02*
D03*
X43500Y214500D02*
D03*
X65764Y214350D02*
D03*
X88764D02*
D03*
X111614Y214409D02*
D03*
X134114D02*
D03*
X158463Y214899D02*
D03*
X182463D02*
D03*
X249131Y176620D02*
D03*
X243400Y163800D02*
D03*
X232092Y176574D02*
D03*
X210000Y175500D02*
D03*
X255500Y223500D02*
D03*
X240000Y208500D02*
D03*
X336598Y216079D02*
D03*
Y222580D02*
D03*
X215500Y58500D02*
D03*
X271426Y83000D02*
D03*
X267926Y53500D02*
D03*
X210761Y67625D02*
D03*
X215426Y79500D02*
D03*
X209926D02*
D03*
X340500Y192500D02*
D03*
X243000Y215000D02*
D03*
X333500Y186000D02*
D03*
X297500Y148000D02*
D03*
X324352Y146728D02*
D03*
X356109Y139728D02*
D03*
X261417Y176772D02*
D03*
X175197Y183858D02*
D03*
X299852Y162772D02*
D03*
X223000Y212000D02*
D03*
X227500D02*
D03*
X295740Y160760D02*
D03*
X274332Y160668D02*
D03*
X143500Y192500D02*
D03*
X165354Y183858D02*
D03*
X255512Y176772D02*
D03*
X274000Y166000D02*
D03*
X143500Y197500D02*
D03*
X261417Y183465D02*
D03*
X194882Y183858D02*
D03*
X258728Y199852D02*
D03*
X282912Y160450D02*
D03*
X143500Y170000D02*
D03*
X185039Y183858D02*
D03*
X255512Y183465D02*
D03*
X261356Y195856D02*
D03*
X254529Y66291D02*
D03*
X255500Y214000D02*
D03*
X273500Y197000D02*
D03*
X125000Y202500D02*
D03*
X122137Y178480D02*
D03*
X287828Y160283D02*
D03*
X155500Y160000D02*
D03*
X278500Y160500D02*
D03*
X143500Y174500D02*
D03*
X374262Y145000D02*
D03*
X263926Y74000D02*
D03*
X235000Y208500D02*
D03*
X214000D02*
D03*
X112415Y193554D02*
D03*
X104000Y158500D02*
D03*
X105500Y177500D02*
D03*
X108000Y171500D02*
D03*
X93500Y175000D02*
D03*
X112500Y199000D02*
D03*
X60500Y174000D02*
D03*
X83000D02*
D03*
X49500Y181500D02*
D03*
X49000Y172000D02*
D03*
X105000Y166500D02*
D03*
X37500Y174000D02*
D03*
X34000Y221500D02*
D03*
X56500Y221642D02*
D03*
X79500Y221142D02*
D03*
X102500Y221642D02*
D03*
X146500Y160000D02*
D03*
X24000Y184000D02*
D03*
D155*
X359000Y116000D02*
D03*
X431500Y153500D02*
D03*
Y162000D02*
D03*
X426000Y164500D02*
D03*
X417000Y192500D02*
D03*
X451000Y185000D02*
D03*
X431500Y140000D02*
D03*
X374264Y148500D02*
D03*
X402435Y164437D02*
D03*
X416500Y177000D02*
D03*
X419499Y121870D02*
D03*
Y113870D02*
D03*
X412806Y150189D02*
D03*
X418500Y163500D02*
D03*
Y158000D02*
D03*
X231525Y52636D02*
D03*
X249525D02*
D03*
X246753Y63940D02*
D03*
X243046Y64024D02*
D03*
X243201Y59868D02*
D03*
X246637Y59949D02*
D03*
X238568Y56000D02*
D03*
X239583Y59908D02*
D03*
X239624Y63973D02*
D03*
X245803Y55924D02*
D03*
X249492Y49437D02*
D03*
X242144Y55985D02*
D03*
X245896Y52540D02*
D03*
X242207Y52559D02*
D03*
X245882Y49400D02*
D03*
X242174Y49360D02*
D03*
X236006Y64014D02*
D03*
Y60010D02*
D03*
X234926Y56000D02*
D03*
X235025Y52636D02*
D03*
X238667D02*
D03*
X234992Y49437D02*
D03*
X238634D02*
D03*
X231492D02*
D03*
X226426Y69500D02*
D03*
X401696Y153112D02*
D03*
X428000Y122500D02*
D03*
D156*
X7504Y3036D02*
D03*
Y8941D02*
D03*
X13410Y3036D02*
D03*
X19315D02*
D03*
Y8941D02*
D03*
X25221Y3036D02*
D03*
Y8941D02*
D03*
X31126Y3036D02*
D03*
X37032D02*
D03*
X42937D02*
D03*
Y8941D02*
D03*
X48843Y3036D02*
D03*
Y8941D02*
D03*
X54748Y3036D02*
D03*
Y8941D02*
D03*
X60654Y3036D02*
D03*
Y8941D02*
D03*
X66559Y3036D02*
D03*
Y8941D02*
D03*
X72465Y3036D02*
D03*
Y8941D02*
D03*
X78370Y3036D02*
D03*
Y8941D02*
D03*
X84276Y3036D02*
D03*
X90181D02*
D03*
X96087D02*
D03*
X101992D02*
D03*
X107898D02*
D03*
Y8941D02*
D03*
X113804Y3036D02*
D03*
Y8941D02*
D03*
X119709Y3036D02*
D03*
Y8941D02*
D03*
X125615Y3036D02*
D03*
Y8941D02*
D03*
X7504Y56185D02*
D03*
Y62091D02*
D03*
X13410Y56185D02*
D03*
Y62091D02*
D03*
X19315Y56185D02*
D03*
Y62091D02*
D03*
X25221Y56185D02*
D03*
X31126D02*
D03*
X37032D02*
D03*
Y62091D02*
D03*
X42937Y56185D02*
D03*
Y62091D02*
D03*
X48843Y56185D02*
D03*
Y62091D02*
D03*
X54748Y56185D02*
D03*
Y62091D02*
D03*
X60654Y56185D02*
D03*
X66559D02*
D03*
X72465D02*
D03*
Y62091D02*
D03*
X78370Y56185D02*
D03*
X84276D02*
D03*
X90181D02*
D03*
X107898D02*
D03*
Y62091D02*
D03*
X113804Y56185D02*
D03*
Y62091D02*
D03*
X119709Y56185D02*
D03*
Y62091D02*
D03*
X125615Y56185D02*
D03*
Y62091D02*
D03*
X355929Y56185D02*
D03*
Y62091D02*
D03*
X361835Y56185D02*
D03*
Y62091D02*
D03*
X367740Y56185D02*
D03*
Y62091D02*
D03*
X373646Y56185D02*
D03*
Y62091D02*
D03*
X391362Y56185D02*
D03*
X397268D02*
D03*
X403173D02*
D03*
X409079D02*
D03*
Y62091D02*
D03*
X414985Y56185D02*
D03*
X420890D02*
D03*
X426795D02*
D03*
Y62091D02*
D03*
X432701Y56185D02*
D03*
Y62091D02*
D03*
X438607Y56185D02*
D03*
Y62091D02*
D03*
X444512Y56185D02*
D03*
Y62091D02*
D03*
X450418Y56185D02*
D03*
X456323D02*
D03*
Y62091D02*
D03*
X462229Y56185D02*
D03*
Y62091D02*
D03*
X468134Y56185D02*
D03*
Y62091D02*
D03*
X474040Y56185D02*
D03*
Y62091D02*
D03*
X355929Y3036D02*
D03*
Y8941D02*
D03*
X361835Y3036D02*
D03*
Y8941D02*
D03*
X367740Y3036D02*
D03*
Y8941D02*
D03*
X373646Y3036D02*
D03*
Y8941D02*
D03*
X379551Y3036D02*
D03*
X385457D02*
D03*
X391362D02*
D03*
X397268D02*
D03*
Y8941D02*
D03*
X403173Y3036D02*
D03*
Y8941D02*
D03*
X409079Y3036D02*
D03*
Y8941D02*
D03*
X414985Y3036D02*
D03*
Y8941D02*
D03*
X420890Y3036D02*
D03*
Y8941D02*
D03*
X426795Y3036D02*
D03*
Y8941D02*
D03*
X432701Y3036D02*
D03*
Y8941D02*
D03*
X438607Y3036D02*
D03*
Y8941D02*
D03*
X444512Y3036D02*
D03*
X450418D02*
D03*
Y8941D02*
D03*
X456323Y3036D02*
D03*
Y8941D02*
D03*
X462229Y3036D02*
D03*
Y8941D02*
D03*
X468134Y3036D02*
D03*
X474040D02*
D03*
Y8941D02*
D03*
D157*
X12705Y219882D02*
D03*
X469205Y220382D02*
D03*
D158*
X395500Y201500D02*
D03*
D159*
X375815Y189689D02*
D03*
M02*
