G04*
G04 #@! TF.GenerationSoftware,Altium Limited,Altium Designer,25.8.1 (18)*
G04*
G04 Layer_Physical_Order=4*
G04 Layer_Color=16711680*
%FSLAX25Y25*%
%MOIN*%
G70*
G04*
G04 #@! TF.SameCoordinates,E010760D-FB29-432B-967E-C6BB433EED36*
G04*
G04*
G04 #@! TF.FilePolarity,Positive*
G04*
G01*
G75*
%ADD21C,0.02362*%
%ADD126R,0.09646X0.09646*%
%ADD127C,0.09646*%
%ADD134C,0.01000*%
%ADD136C,0.08268*%
%ADD137C,0.06496*%
%ADD138O,0.15748X0.07874*%
%ADD139O,0.07874X0.15748*%
%ADD140C,0.26378*%
%ADD141O,0.17717X0.07874*%
%ADD142C,0.05709*%
%ADD143C,0.03000*%
%ADD144C,0.01968*%
%ADD145C,0.15748*%
G36*
X415000Y182500D02*
X405000Y172500D01*
X403519D01*
X403179Y173500D01*
X403650Y173861D01*
X404376Y174807D01*
X404832Y175909D01*
X404988Y177091D01*
X404832Y178272D01*
X404376Y179374D01*
X403650Y180320D01*
X402705Y181045D01*
X401603Y181502D01*
X400421Y181657D01*
X390579D01*
X389397Y181502D01*
X388295Y181045D01*
X387350Y180320D01*
X386624Y179374D01*
X386168Y178272D01*
X386012Y177091D01*
X386168Y175909D01*
X386624Y174807D01*
X387350Y173861D01*
X387821Y173500D01*
X387481Y172500D01*
X380933D01*
Y196000D01*
X415000D01*
Y182500D01*
D02*
G37*
G36*
X444500Y194747D02*
X431314Y176386D01*
X425214Y170286D01*
X424973Y169925D01*
X424888Y169500D01*
X424888Y169500D01*
Y167439D01*
X420982Y162000D01*
X416367Y162000D01*
X416367Y170867D01*
X420367Y174867D01*
Y189598D01*
X420898Y230520D01*
X444500D01*
Y194747D01*
D02*
G37*
G36*
X423785Y125603D02*
X423785Y125603D01*
X423870Y125178D01*
X423921Y125101D01*
Y107500D01*
X385421D01*
Y153000D01*
X399924D01*
Y152760D01*
X400194Y152109D01*
X400692Y151610D01*
X401343Y151341D01*
X402048D01*
X402699Y151610D01*
X403198Y152109D01*
X403467Y152760D01*
Y153000D01*
X414921D01*
X414921Y158793D01*
X415628Y159500D01*
X423785Y159500D01*
Y125603D01*
D02*
G37*
G36*
X479999Y107520D02*
X467921D01*
Y190500D01*
X479999D01*
Y107520D01*
D02*
G37*
G36*
X465421D02*
X435499D01*
Y147375D01*
X465421D01*
Y107520D01*
D02*
G37*
G36*
X254500Y69013D02*
X228117D01*
X228001Y69187D01*
Y69813D01*
X227761Y70392D01*
X227318Y70835D01*
X226739Y71075D01*
X226568D01*
X226557Y71086D01*
Y88000D01*
X254500D01*
Y69013D01*
D02*
G37*
G36*
X350000Y130000D02*
Y68000D01*
X286500D01*
Y136000D01*
X344000D01*
X350000Y130000D01*
D02*
G37*
G36*
X195000Y68000D02*
X131500D01*
Y129500D01*
X138000Y136000D01*
X195000D01*
Y68000D01*
D02*
G37*
G36*
X480000Y2878D02*
X478006Y883D01*
X407500D01*
Y1000D01*
X315926D01*
Y883D01*
X64000D01*
Y1000D01*
X3000D01*
X1000Y3000D01*
Y96000D01*
X73500D01*
Y67266D01*
X120326D01*
X120429Y67239D01*
X121854D01*
X121957Y67266D01*
X154783D01*
Y67239D01*
X165610D01*
Y67266D01*
X186500D01*
Y65500D01*
X216723D01*
Y63729D01*
X216498Y63504D01*
X216228Y62852D01*
Y62148D01*
X216498Y61496D01*
X216996Y60998D01*
X217648Y60728D01*
X218352D01*
X219004Y60998D01*
X219502Y61496D01*
X219772Y62148D01*
Y62852D01*
X219502Y63504D01*
X219004Y64002D01*
X218947Y64025D01*
Y65500D01*
X225829D01*
X225829Y52531D01*
X226016Y52079D01*
X231019Y47077D01*
X231471Y46890D01*
X249529D01*
X249981Y47077D01*
X254952Y52048D01*
X255139Y52500D01*
Y64519D01*
X255101Y64610D01*
X255533Y64789D01*
X255923Y65179D01*
X258248D01*
X258248Y65179D01*
X258674Y65263D01*
X259028Y65500D01*
X294617D01*
Y67170D01*
X294850Y67266D01*
X407500D01*
Y96000D01*
X480000D01*
X480000Y2878D01*
D02*
G37*
G36*
X253028Y65287D02*
X253526Y64789D01*
X254177Y64519D01*
X254500D01*
Y52500D01*
X249529Y47529D01*
X231471D01*
X226468Y52531D01*
X226468Y65529D01*
X252927D01*
X253028Y65287D01*
D02*
G37*
%LPC*%
G36*
X451366Y89299D02*
X450122D01*
X448920Y88977D01*
X447843Y88355D01*
X446964Y87476D01*
X446342Y86398D01*
X446020Y85197D01*
Y83953D01*
X446342Y82751D01*
X446964Y81674D01*
X447843Y80794D01*
X448920Y80172D01*
X450122Y79850D01*
X451366D01*
X452568Y80172D01*
X453645Y80794D01*
X454525Y81674D01*
X455147Y82751D01*
X455469Y83953D01*
Y85197D01*
X455147Y86398D01*
X454525Y87476D01*
X453645Y88355D01*
X452568Y88977D01*
X451366Y89299D01*
D02*
G37*
G36*
X417114D02*
X415870D01*
X414669Y88977D01*
X413591Y88355D01*
X412712Y87476D01*
X412090Y86398D01*
X411768Y85197D01*
Y83953D01*
X412090Y82751D01*
X412712Y81674D01*
X413591Y80794D01*
X414669Y80172D01*
X415870Y79850D01*
X417114D01*
X418316Y80172D01*
X419393Y80794D01*
X420273Y81674D01*
X420895Y82751D01*
X421216Y83953D01*
Y85197D01*
X420895Y86398D01*
X420273Y87476D01*
X419393Y88355D01*
X418316Y88977D01*
X417114Y89299D01*
D02*
G37*
G36*
X65122Y89224D02*
X63878D01*
X62676Y88902D01*
X61599Y88280D01*
X60720Y87401D01*
X60098Y86324D01*
X59776Y85122D01*
Y83878D01*
X60098Y82676D01*
X60720Y81599D01*
X61599Y80720D01*
X62676Y80098D01*
X63878Y79776D01*
X65122D01*
X66324Y80098D01*
X67401Y80720D01*
X68281Y81599D01*
X68902Y82676D01*
X69224Y83878D01*
Y85122D01*
X68902Y86324D01*
X68281Y87401D01*
X67401Y88280D01*
X66324Y88902D01*
X65122Y89224D01*
D02*
G37*
G36*
X30870D02*
X29626D01*
X28425Y88902D01*
X27347Y88280D01*
X26468Y87401D01*
X25846Y86324D01*
X25524Y85122D01*
Y83878D01*
X25846Y82676D01*
X26468Y81599D01*
X27347Y80720D01*
X28425Y80098D01*
X29626Y79776D01*
X30870D01*
X32072Y80098D01*
X33149Y80720D01*
X34029Y81599D01*
X34650Y82676D01*
X34972Y83878D01*
Y85122D01*
X34650Y86324D01*
X34029Y87401D01*
X33149Y88280D01*
X32072Y88902D01*
X30870Y89224D01*
D02*
G37*
G36*
X160882Y45144D02*
X159457D01*
X158080Y44776D01*
X156845Y44063D01*
X155838Y43055D01*
X155125Y41820D01*
X154756Y40444D01*
Y39018D01*
X155125Y37642D01*
X155838Y36407D01*
X156845Y35399D01*
X158080Y34686D01*
X159457Y34318D01*
X160882D01*
X162259Y34686D01*
X163493Y35399D01*
X164501Y36407D01*
X165214Y37642D01*
X165583Y39018D01*
Y40444D01*
X165214Y41820D01*
X164501Y43055D01*
X163493Y44063D01*
X162259Y44776D01*
X160882Y45144D01*
D02*
G37*
G36*
X121827D02*
X120402D01*
X119025Y44776D01*
X117790Y44063D01*
X116782Y43055D01*
X116070Y41820D01*
X115701Y40444D01*
Y39018D01*
X116070Y37642D01*
X116782Y36407D01*
X117790Y35399D01*
X119025Y34686D01*
X120402Y34318D01*
X121827D01*
X123204Y34686D01*
X124438Y35399D01*
X125446Y36407D01*
X126159Y37642D01*
X126528Y39018D01*
Y40444D01*
X126159Y41820D01*
X125446Y43055D01*
X124438Y44063D01*
X123204Y44776D01*
X121827Y45144D01*
D02*
G37*
G36*
X358740Y45106D02*
X357315D01*
X355938Y44737D01*
X354704Y44025D01*
X353696Y43017D01*
X352983Y41782D01*
X352614Y40406D01*
Y38980D01*
X352983Y37603D01*
X353696Y36369D01*
X354704Y35361D01*
X355938Y34648D01*
X357315Y34280D01*
X358740D01*
X360117Y34648D01*
X361351Y35361D01*
X362359Y36369D01*
X363072Y37603D01*
X363441Y38980D01*
Y40406D01*
X363072Y41782D01*
X362359Y43017D01*
X361351Y44025D01*
X360117Y44737D01*
X358740Y45106D01*
D02*
G37*
G36*
X324386D02*
X313559D01*
Y34280D01*
X324386D01*
Y45106D01*
D02*
G37*
G36*
X467005Y30618D02*
X465995D01*
X465018Y30356D01*
X464143Y29851D01*
X463428Y29136D01*
X462923Y28261D01*
X462661Y27285D01*
Y26274D01*
X462923Y25298D01*
X463428Y24423D01*
X464143Y23708D01*
X465018Y23202D01*
X465995Y22941D01*
X467005D01*
X467982Y23202D01*
X468857Y23708D01*
X469572Y24423D01*
X470077Y25298D01*
X470339Y26274D01*
Y27285D01*
X470077Y28261D01*
X469572Y29136D01*
X468857Y29851D01*
X467982Y30356D01*
X467005Y30618D01*
D02*
G37*
G36*
X447320D02*
X446310D01*
X445333Y30356D01*
X444458Y29851D01*
X443743Y29136D01*
X443238Y28261D01*
X442976Y27285D01*
Y26274D01*
X443238Y25298D01*
X443743Y24423D01*
X444458Y23708D01*
X445333Y23202D01*
X446310Y22941D01*
X447320D01*
X448297Y23202D01*
X449172Y23708D01*
X449887Y24423D01*
X450392Y25298D01*
X450654Y26274D01*
Y27285D01*
X450392Y28261D01*
X449887Y29136D01*
X449172Y29851D01*
X448297Y30356D01*
X447320Y30618D01*
D02*
G37*
G36*
X34505Y30118D02*
X33495D01*
X32518Y29857D01*
X31643Y29351D01*
X30928Y28637D01*
X30423Y27761D01*
X30161Y26785D01*
Y25774D01*
X30423Y24798D01*
X30928Y23923D01*
X31643Y23208D01*
X32518Y22703D01*
X33495Y22441D01*
X34505D01*
X35482Y22703D01*
X36357Y23208D01*
X37072Y23923D01*
X37577Y24798D01*
X37839Y25774D01*
Y26785D01*
X37577Y27761D01*
X37072Y28637D01*
X36357Y29351D01*
X35482Y29857D01*
X34505Y30118D01*
D02*
G37*
G36*
X14820D02*
X13810D01*
X12833Y29857D01*
X11958Y29351D01*
X11243Y28637D01*
X10738Y27761D01*
X10476Y26785D01*
Y25774D01*
X10738Y24798D01*
X11243Y23923D01*
X11958Y23208D01*
X12833Y22703D01*
X13810Y22441D01*
X14820D01*
X15797Y22703D01*
X16672Y23208D01*
X17387Y23923D01*
X17892Y24798D01*
X18154Y25774D01*
Y26785D01*
X17892Y27761D01*
X17387Y28637D01*
X16672Y29351D01*
X15797Y29857D01*
X14820Y30118D01*
D02*
G37*
G36*
X165583Y31758D02*
X154756D01*
Y30000D01*
Y20932D01*
X165583D01*
Y31758D01*
D02*
G37*
G36*
X121827D02*
X120402D01*
X119025Y31390D01*
X117790Y30677D01*
X117113Y30000D01*
X116782Y29669D01*
X116070Y28435D01*
X115701Y27058D01*
Y25633D01*
X116070Y24256D01*
X116782Y23021D01*
X117790Y22013D01*
X119025Y21301D01*
X120402Y20932D01*
X121827D01*
X123204Y21301D01*
X124438Y22013D01*
X125446Y23021D01*
X126159Y24256D01*
X126528Y25633D01*
Y27058D01*
X126159Y28435D01*
X125446Y29669D01*
X125115Y30000D01*
X124438Y30677D01*
X123204Y31390D01*
X121827Y31758D01*
D02*
G37*
G36*
X358740Y31721D02*
X357315D01*
X355938Y31352D01*
X354704Y30639D01*
X354065Y30000D01*
X353696Y29631D01*
X352983Y28397D01*
X352614Y27020D01*
Y25594D01*
X352983Y24218D01*
X353696Y22983D01*
X354704Y21975D01*
X355938Y21263D01*
X357315Y20894D01*
X358740D01*
X360117Y21263D01*
X361351Y21975D01*
X362359Y22983D01*
X363072Y24218D01*
X363441Y25594D01*
Y27020D01*
X363072Y28397D01*
X362359Y29631D01*
X361990Y30000D01*
X361351Y30639D01*
X360117Y31352D01*
X358740Y31721D01*
D02*
G37*
G36*
X319685D02*
X318260D01*
X316883Y31352D01*
X315649Y30639D01*
X315010Y30000D01*
X314641Y29631D01*
X313928Y28397D01*
X313559Y27020D01*
Y25594D01*
X313928Y24218D01*
X314641Y22983D01*
X315649Y21975D01*
X316883Y21263D01*
X318260Y20894D01*
X319685D01*
X321062Y21263D01*
X322296Y21975D01*
X323304Y22983D01*
X324017Y24218D01*
X324386Y25594D01*
Y27020D01*
X324017Y28397D01*
X323304Y29631D01*
X322935Y30000D01*
X322296Y30639D01*
X321062Y31352D01*
X319685Y31721D01*
D02*
G37*
G36*
X262510Y36279D02*
X260342D01*
X258199Y35940D01*
X256136Y35270D01*
X254204Y34285D01*
X252449Y33010D01*
X250916Y31477D01*
X249641Y29722D01*
X248656Y27790D01*
X247986Y25727D01*
X247646Y23584D01*
Y21416D01*
X247986Y19273D01*
X248656Y17210D01*
X249641Y15278D01*
X250916Y13523D01*
X252449Y11990D01*
X254204Y10715D01*
X256136Y9730D01*
X258199Y9060D01*
X260342Y8721D01*
X262510D01*
X264653Y9060D01*
X266716Y9730D01*
X268648Y10715D01*
X270403Y11990D01*
X271936Y13523D01*
X273211Y15278D01*
X274196Y17210D01*
X274866Y19273D01*
X275205Y21416D01*
Y23584D01*
X274866Y25727D01*
X274196Y27790D01*
X273211Y29722D01*
X271936Y31477D01*
X270403Y33010D01*
X268648Y34285D01*
X266716Y35270D01*
X264653Y35940D01*
X262510Y36279D01*
D02*
G37*
%LPD*%
D21*
X354835Y126588D02*
D03*
X264835Y141088D02*
D03*
X242000Y146177D02*
D03*
X263500Y150457D02*
D03*
X247728Y146176D02*
D03*
X359000Y116000D02*
D03*
X218000Y62500D02*
D03*
X431500Y153500D02*
D03*
Y158000D02*
D03*
Y162000D02*
D03*
X426000Y164500D02*
D03*
X417000Y192500D02*
D03*
X451000Y185000D02*
D03*
X431500Y140000D02*
D03*
Y135000D02*
D03*
X374264Y148500D02*
D03*
X402435Y164437D02*
D03*
X416500Y177000D02*
D03*
X419499Y121870D02*
D03*
Y113870D02*
D03*
X418500Y163500D02*
D03*
Y158000D02*
D03*
X131000Y156000D02*
D03*
X113000Y161000D02*
D03*
X101000Y179500D02*
D03*
X95000Y184500D02*
D03*
X82500Y161000D02*
D03*
X76500Y184500D02*
D03*
X61000Y178000D02*
D03*
X60500Y161500D02*
D03*
X37500D02*
D03*
X43500Y214500D02*
D03*
X65764Y214350D02*
D03*
X88764D02*
D03*
X111614Y214409D02*
D03*
X134114D02*
D03*
X158463Y214899D02*
D03*
X182463D02*
D03*
X249131Y176620D02*
D03*
X243400Y163800D02*
D03*
X232092Y176574D02*
D03*
X210000Y175500D02*
D03*
X255500Y223500D02*
D03*
X240000Y208500D02*
D03*
X336598Y216079D02*
D03*
Y222580D02*
D03*
X215500Y58500D02*
D03*
X271426Y83000D02*
D03*
X267926Y53500D02*
D03*
X210761Y67625D02*
D03*
X215426Y79500D02*
D03*
X209926D02*
D03*
X7504Y3036D02*
D03*
Y8941D02*
D03*
X13410Y3036D02*
D03*
X19315D02*
D03*
Y8941D02*
D03*
X25221Y3036D02*
D03*
Y8941D02*
D03*
X31126Y3036D02*
D03*
X37032D02*
D03*
X42937D02*
D03*
Y8941D02*
D03*
X48843Y3036D02*
D03*
Y8941D02*
D03*
X54748Y3036D02*
D03*
Y8941D02*
D03*
X60654Y3036D02*
D03*
Y8941D02*
D03*
X66559Y3036D02*
D03*
Y8941D02*
D03*
X72465Y3036D02*
D03*
Y8941D02*
D03*
X78370Y3036D02*
D03*
Y8941D02*
D03*
X84276Y3036D02*
D03*
X90181D02*
D03*
X96087D02*
D03*
X101992D02*
D03*
X107898D02*
D03*
Y8941D02*
D03*
X113804Y3036D02*
D03*
Y8941D02*
D03*
X119709Y3036D02*
D03*
Y8941D02*
D03*
X125615Y3036D02*
D03*
Y8941D02*
D03*
X7504Y56185D02*
D03*
Y62091D02*
D03*
X13410Y56185D02*
D03*
Y62091D02*
D03*
X19315Y56185D02*
D03*
Y62091D02*
D03*
X25221Y56185D02*
D03*
X31126D02*
D03*
X37032D02*
D03*
Y62091D02*
D03*
X42937Y56185D02*
D03*
Y62091D02*
D03*
X48843Y56185D02*
D03*
Y62091D02*
D03*
X54748Y56185D02*
D03*
Y62091D02*
D03*
X60654Y56185D02*
D03*
X66559D02*
D03*
X72465D02*
D03*
Y62091D02*
D03*
X78370Y56185D02*
D03*
X84276D02*
D03*
X90181D02*
D03*
X107898D02*
D03*
Y62091D02*
D03*
X113804Y56185D02*
D03*
Y62091D02*
D03*
X119709Y56185D02*
D03*
Y62091D02*
D03*
X125615Y56185D02*
D03*
Y62091D02*
D03*
X355929Y56185D02*
D03*
Y62091D02*
D03*
X361835Y56185D02*
D03*
Y62091D02*
D03*
X367740Y56185D02*
D03*
Y62091D02*
D03*
X373646Y56185D02*
D03*
Y62091D02*
D03*
X391362Y56185D02*
D03*
X397268D02*
D03*
X403173D02*
D03*
X409079D02*
D03*
Y62091D02*
D03*
X414985Y56185D02*
D03*
X420890D02*
D03*
X426795D02*
D03*
Y62091D02*
D03*
X432701Y56185D02*
D03*
Y62091D02*
D03*
X438607Y56185D02*
D03*
Y62091D02*
D03*
X444512Y56185D02*
D03*
Y62091D02*
D03*
X450418Y56185D02*
D03*
X456323D02*
D03*
Y62091D02*
D03*
X462229Y56185D02*
D03*
Y62091D02*
D03*
X468134Y56185D02*
D03*
Y62091D02*
D03*
X474040Y56185D02*
D03*
Y62091D02*
D03*
X355929Y3036D02*
D03*
Y8941D02*
D03*
X361835Y3036D02*
D03*
Y8941D02*
D03*
X367740Y3036D02*
D03*
Y8941D02*
D03*
X373646Y3036D02*
D03*
Y8941D02*
D03*
X379551Y3036D02*
D03*
X385457D02*
D03*
X391362D02*
D03*
X397268D02*
D03*
Y8941D02*
D03*
X403173Y3036D02*
D03*
Y8941D02*
D03*
X409079Y3036D02*
D03*
Y8941D02*
D03*
X414985Y3036D02*
D03*
Y8941D02*
D03*
X420890Y3036D02*
D03*
Y8941D02*
D03*
X426795Y3036D02*
D03*
Y8941D02*
D03*
X432701Y3036D02*
D03*
Y8941D02*
D03*
X438607Y3036D02*
D03*
Y8941D02*
D03*
X444512Y3036D02*
D03*
X450418D02*
D03*
Y8941D02*
D03*
X456323Y3036D02*
D03*
Y8941D02*
D03*
X462229Y3036D02*
D03*
Y8941D02*
D03*
X468134Y3036D02*
D03*
X474040D02*
D03*
Y8941D02*
D03*
X340500Y192500D02*
D03*
X243000Y215000D02*
D03*
X333500Y186000D02*
D03*
X297500Y148000D02*
D03*
X324352Y146728D02*
D03*
X356109Y139728D02*
D03*
X261417Y176772D02*
D03*
X175197Y183858D02*
D03*
X299852Y162772D02*
D03*
X223000Y212000D02*
D03*
X227500D02*
D03*
X295740Y160760D02*
D03*
X274332Y160668D02*
D03*
X143500Y192500D02*
D03*
X165354Y183858D02*
D03*
X255512Y176772D02*
D03*
X274000Y166000D02*
D03*
X143500Y197500D02*
D03*
X261417Y183465D02*
D03*
X194882Y183858D02*
D03*
X258728Y199852D02*
D03*
X282912Y160450D02*
D03*
X143500Y170000D02*
D03*
X185039Y183858D02*
D03*
X255512Y183465D02*
D03*
X261356Y195856D02*
D03*
X254529Y66291D02*
D03*
X255500Y214000D02*
D03*
X273500Y197000D02*
D03*
X125000Y202500D02*
D03*
X122137Y178480D02*
D03*
X287828Y160283D02*
D03*
X155500Y160000D02*
D03*
X278500Y160500D02*
D03*
X143500Y174500D02*
D03*
X296000Y128260D02*
D03*
Y121173D02*
D03*
Y114087D02*
D03*
Y107000D02*
D03*
Y99913D02*
D03*
X288913Y128260D02*
D03*
Y121173D02*
D03*
Y114087D02*
D03*
Y107000D02*
D03*
Y99913D02*
D03*
X338606Y128233D02*
D03*
Y121146D02*
D03*
Y114059D02*
D03*
Y106973D02*
D03*
Y99886D02*
D03*
Y92800D02*
D03*
Y85713D02*
D03*
Y78626D02*
D03*
Y71540D02*
D03*
X331520Y128233D02*
D03*
Y121146D02*
D03*
Y114059D02*
D03*
Y106973D02*
D03*
Y99886D02*
D03*
Y92800D02*
D03*
Y85713D02*
D03*
Y78626D02*
D03*
Y71540D02*
D03*
X324433Y128233D02*
D03*
Y121146D02*
D03*
Y114059D02*
D03*
Y106973D02*
D03*
Y99886D02*
D03*
Y92800D02*
D03*
Y78626D02*
D03*
X317347Y128233D02*
D03*
Y121146D02*
D03*
Y114059D02*
D03*
Y106973D02*
D03*
Y99886D02*
D03*
X310260Y128233D02*
D03*
Y121146D02*
D03*
Y114059D02*
D03*
Y106973D02*
D03*
Y99886D02*
D03*
Y92800D02*
D03*
Y85713D02*
D03*
Y78626D02*
D03*
Y71540D02*
D03*
X303173Y128233D02*
D03*
Y121146D02*
D03*
Y114059D02*
D03*
Y106973D02*
D03*
Y99886D02*
D03*
Y92800D02*
D03*
Y85713D02*
D03*
Y78626D02*
D03*
Y71540D02*
D03*
X177583Y128233D02*
D03*
Y121146D02*
D03*
Y114059D02*
D03*
Y106973D02*
D03*
Y99886D02*
D03*
Y92800D02*
D03*
Y85713D02*
D03*
Y78626D02*
D03*
Y71540D02*
D03*
X170496Y128233D02*
D03*
Y121146D02*
D03*
Y114059D02*
D03*
Y106973D02*
D03*
Y99886D02*
D03*
Y92800D02*
D03*
Y85713D02*
D03*
Y78626D02*
D03*
Y71540D02*
D03*
X163410Y128233D02*
D03*
Y121146D02*
D03*
Y114059D02*
D03*
Y106973D02*
D03*
Y99886D02*
D03*
Y92800D02*
D03*
X156323Y128233D02*
D03*
Y121146D02*
D03*
Y114059D02*
D03*
Y106973D02*
D03*
Y99886D02*
D03*
Y92800D02*
D03*
X149237Y128233D02*
D03*
Y121146D02*
D03*
Y114059D02*
D03*
Y106973D02*
D03*
Y99886D02*
D03*
Y92800D02*
D03*
Y85713D02*
D03*
Y78626D02*
D03*
Y71540D02*
D03*
X142150Y128233D02*
D03*
Y121146D02*
D03*
Y114059D02*
D03*
Y106973D02*
D03*
Y99886D02*
D03*
Y92800D02*
D03*
Y85713D02*
D03*
Y78626D02*
D03*
Y71540D02*
D03*
X191756Y128233D02*
D03*
Y121146D02*
D03*
Y114059D02*
D03*
Y106973D02*
D03*
Y99886D02*
D03*
X184669Y128233D02*
D03*
Y121146D02*
D03*
Y114059D02*
D03*
Y106973D02*
D03*
Y99886D02*
D03*
X374262Y145000D02*
D03*
X263926Y74000D02*
D03*
X401696Y153112D02*
D03*
X428000Y122500D02*
D03*
X235000Y208500D02*
D03*
X214000D02*
D03*
X112415Y193554D02*
D03*
X104000Y158500D02*
D03*
X105500Y177500D02*
D03*
X108000Y171500D02*
D03*
X93500Y175000D02*
D03*
X112500Y199000D02*
D03*
X60500Y174000D02*
D03*
X83000D02*
D03*
X49500Y181500D02*
D03*
X49000Y172000D02*
D03*
X105000Y166500D02*
D03*
X37500Y174000D02*
D03*
X34000Y221500D02*
D03*
X56500Y221642D02*
D03*
X79500Y221142D02*
D03*
X102500Y221642D02*
D03*
X146500Y160000D02*
D03*
X24000Y184000D02*
D03*
D126*
X318972Y39693D02*
D03*
X319000Y86386D02*
D03*
X160169Y26345D02*
D03*
X160197Y72652D02*
D03*
D127*
X318972Y26307D02*
D03*
X319000Y73000D02*
D03*
X160169Y39731D02*
D03*
X160197Y86038D02*
D03*
X121114Y26345D02*
D03*
Y39731D02*
D03*
X121142Y72652D02*
D03*
Y86038D02*
D03*
X358028Y39693D02*
D03*
Y26307D02*
D03*
X358055Y73000D02*
D03*
Y86386D02*
D03*
D134*
X426000Y164500D02*
Y169500D01*
X441500Y185000D02*
X451000D01*
X426000Y169500D02*
X441500Y185000D01*
X354835Y126588D02*
Y136165D01*
X329180Y141088D02*
X349912D01*
X354835Y136165D01*
X311742Y139319D02*
X327411D01*
X264835Y141088D02*
X309973D01*
X311742Y139319D01*
X327411D02*
X329180Y141088D01*
X232841Y107091D02*
X241414D01*
X242000Y107676D01*
Y146000D01*
X246172Y148447D02*
X255840D01*
X258559Y145728D01*
X290750Y150457D02*
X302124Y161831D01*
X263500Y150457D02*
X290750D01*
X245139Y109139D02*
Y147414D01*
X246172Y148447D01*
X246725Y106526D02*
Y108475D01*
X246729Y108480D01*
Y144909D02*
X247728Y145908D01*
X246729Y108480D02*
Y144909D01*
X247728Y145908D02*
Y146176D01*
X246725Y106526D02*
X261500Y91751D01*
X359000Y112500D02*
X365500Y106000D01*
X359000Y112500D02*
Y116000D01*
X365500Y106000D02*
X424000D01*
X428000Y110000D01*
Y122500D01*
X245123Y109123D02*
X245139Y109139D01*
X242659Y105500D02*
X245123Y107965D01*
Y109123D01*
X233500Y105500D02*
X242659D01*
X217835Y92085D02*
X232841Y107091D01*
X217835Y62665D02*
Y92085D01*
Y62665D02*
X218000Y62500D01*
X427102Y153233D02*
X431500Y157631D01*
X427102Y139398D02*
Y153233D01*
X431500Y140000D02*
Y153500D01*
Y157631D02*
Y158000D01*
X417000Y186231D02*
Y192500D01*
Y186231D02*
X419000Y184231D01*
Y175787D02*
Y184231D01*
X427102Y139398D02*
X431500Y135000D01*
X219426Y91426D02*
X233500Y105500D01*
X261500Y69542D02*
Y91751D01*
X263926Y74000D02*
Y91574D01*
X249091Y106410D02*
Y143371D01*
Y106410D02*
X263926Y91574D01*
X219426Y76644D02*
X226426Y69644D01*
X219426Y76644D02*
Y91426D01*
X254529Y66291D02*
X258248D01*
X261500Y69542D01*
X258559Y145728D02*
X309832D01*
X313060Y142500D01*
X326752Y140910D02*
X330342Y144500D01*
X309354Y143957D02*
X312401Y140910D01*
X249676Y143957D02*
X309354D01*
X312401Y140910D02*
X326752D01*
X351337Y144500D02*
X356109Y139728D01*
X330342Y144500D02*
X351337D01*
X249091Y143371D02*
X249676Y143957D01*
X313060Y142500D02*
X326093D01*
X332093Y148500D02*
X370762D01*
X326093Y142500D02*
X332093Y148500D01*
X370762D02*
X374262Y145000D01*
X113285Y193449D02*
Y194785D01*
X374000Y148500D02*
X389937Y164437D01*
X402435D01*
X424897Y125603D02*
X428000Y122500D01*
X424897Y125603D02*
Y160121D01*
X424311Y160707D02*
X424897Y160121D01*
X415446Y160707D02*
X424311D01*
X413500Y162653D02*
Y170287D01*
Y162653D02*
X415446Y160707D01*
X413500Y170287D02*
X419000Y175787D01*
X411350Y162766D02*
Y171850D01*
X416500Y177000D01*
X401696Y153112D02*
X411350Y162766D01*
X224890Y181587D02*
X227686Y184382D01*
X254245D02*
X255162Y183465D01*
X227686Y184382D02*
X254245D01*
X255162Y183465D02*
X255512D01*
X274787Y192500D02*
X340500D01*
X265163Y202124D02*
X274787Y192500D01*
X255876Y202124D02*
X265163D01*
X243000Y215000D02*
X255876Y202124D01*
X232723Y211583D02*
X240167D01*
X268960Y182789D01*
X325434Y144091D02*
X333500Y152156D01*
Y186000D01*
X309809Y148000D02*
X313719Y144091D01*
X325434D01*
X297500Y148000D02*
X309809D01*
X315370Y155711D02*
Y159130D01*
Y155711D02*
X324352Y146728D01*
X258724Y176772D02*
X261417D01*
X254533Y180000D02*
X255496D01*
X258724Y176772D01*
X251742Y182791D02*
X254533Y180000D01*
X228344Y182791D02*
X251742D01*
X226230Y180677D02*
X228344Y182791D01*
X226230Y180677D02*
X226230D01*
X179146Y179909D02*
X224660D01*
X225549Y179996D02*
X226230Y180677D01*
X224747Y179996D02*
X225549D01*
X175197Y183858D02*
X179146Y179909D01*
X224660D02*
X224747Y179996D01*
X290718Y163031D02*
X299593D01*
X270551Y183199D02*
X290718Y163031D01*
X299593D02*
X299852Y162772D01*
X240826Y213173D02*
X270551Y183448D01*
Y183199D02*
Y183448D01*
X225590Y214591D02*
X231964D01*
X233382Y213173D01*
X223000Y212000D02*
X225590Y214591D01*
X233382Y213173D02*
X240826D01*
X232306Y212000D02*
X232723Y211583D01*
X227500Y212000D02*
X232306D01*
X295479Y161021D02*
X295740Y160760D01*
X290479Y161021D02*
X295479D01*
X268960Y182540D02*
X290479Y161021D01*
X268960Y182540D02*
Y182789D01*
X269573Y155909D02*
X274332Y160668D01*
X180591Y155909D02*
X269573D01*
X144000Y192500D02*
X180591Y155909D01*
X143500Y192500D02*
X144000D01*
X229003Y181201D02*
X251083D01*
X255512Y176772D01*
X226208Y178406D02*
X229003Y181201D01*
X225319Y178319D02*
X225406Y178406D01*
X226208D01*
X165354Y183858D02*
X170894Y178319D01*
X225319D01*
X273879Y163879D02*
Y165879D01*
X274000Y166000D01*
X267500Y157500D02*
X273879Y163879D01*
X143500Y197500D02*
X143883Y197117D01*
Y195781D02*
X182164Y157500D01*
X267500D01*
X143883Y195781D02*
Y197117D01*
X258882Y186000D02*
X261417Y183465D01*
X227054Y186000D02*
X258882D01*
X194882Y183858D02*
X195250D01*
X224232Y183177D02*
X227054Y186000D01*
X195932Y183177D02*
X224232D01*
X195250Y183858D02*
X195932Y183177D01*
X307000Y167500D02*
X315370Y159130D01*
X300586Y167500D02*
X307000D01*
X292409Y168091D02*
X299995D01*
X300586Y167500D01*
X260648Y199852D02*
X292409Y168091D01*
X258728Y199852D02*
X260648D01*
X275190Y152728D02*
X282912Y160450D01*
X162001Y170000D02*
X179273Y152728D01*
X275190D01*
X143500Y170000D02*
X162001D01*
X185039Y183858D02*
X187311Y181587D01*
X224890D01*
X290711Y166500D02*
X299337D01*
X302124Y163713D01*
X261356Y195856D02*
X290711Y166500D01*
X302124Y161831D02*
Y163713D01*
X258500Y211000D02*
X267000D01*
X255500Y214000D02*
X258500Y211000D01*
X267000D02*
X273500Y204500D01*
Y197000D02*
Y204500D01*
X247000Y202500D02*
X267370Y182130D01*
X125086Y202500D02*
X247000D01*
X125000Y180796D02*
Y202500D01*
X267370Y180630D02*
Y182130D01*
X124293Y180089D02*
X125000Y180796D01*
X122679Y178480D02*
X131356D01*
X124287Y180089D02*
X124293D01*
X122679Y178480D02*
X124287Y180089D01*
X122137Y178480D02*
X122679D01*
X287717Y160283D02*
X287828D01*
X267370Y180630D02*
X287717Y160283D01*
X131356Y178480D02*
X142427Y167409D01*
X155324Y160176D02*
X155500Y160000D01*
X155324Y160176D02*
Y162066D01*
X142427Y167409D02*
X149980D01*
X155324Y162066D01*
X272319Y154319D02*
X278500Y160500D01*
X143500Y174500D02*
X159751D01*
X179932Y154319D01*
X272319D01*
X226426Y69500D02*
Y69644D01*
X214000Y208500D02*
X235000D01*
X127000D02*
X214000D01*
X113285Y194785D02*
X127000Y208500D01*
X112918Y193082D02*
X113285Y193449D01*
X112415Y193554D02*
X112903Y193066D01*
Y167403D02*
Y193066D01*
X104000Y158500D02*
X112903Y167403D01*
X34000Y177500D02*
Y221500D01*
Y177500D02*
X37500Y174000D01*
X104000Y183000D02*
X105500Y181500D01*
X102500Y221556D02*
X104000Y220056D01*
X105500Y177500D02*
Y181500D01*
X102500Y221556D02*
Y221642D01*
X104000Y183000D02*
Y220056D01*
X109095Y177432D02*
Y195595D01*
X106573Y174909D02*
X109095Y177432D01*
X93590Y174909D02*
X106573D01*
X93500Y175000D02*
X93590Y174909D01*
X139909Y153409D02*
X146500Y160000D01*
X11500Y162500D02*
X20591Y153409D01*
X139909D01*
X109095Y195595D02*
X112500Y199000D01*
X107909Y171409D02*
X108000Y171500D01*
X59427Y171409D02*
X107909D01*
X49129Y181129D02*
X49500Y181500D01*
X46409Y176909D02*
X49129Y179629D01*
X46409Y167591D02*
Y176909D01*
X49129Y179629D02*
Y181129D01*
X47500Y166500D02*
X105000D01*
X46409Y167591D02*
X47500Y166500D01*
X56500Y178000D02*
X60500Y174000D01*
X79500Y177500D02*
X83000Y174000D01*
X49000Y172000D02*
X58836D01*
X59427Y171409D01*
X56500Y178000D02*
Y221642D01*
X79500Y177500D02*
Y221142D01*
X11500Y175500D02*
X20000Y184000D01*
X11500Y162500D02*
Y175500D01*
X20000Y184000D02*
X24000D01*
D136*
X450744Y64575D02*
D03*
X416492D02*
D03*
X64500Y64500D02*
D03*
X30248D02*
D03*
X416492Y84575D02*
D03*
X450744D02*
D03*
X64500Y84500D02*
D03*
X30248D02*
D03*
D137*
X446815Y13000D02*
D03*
X466500D02*
D03*
X34000Y12500D02*
D03*
X14315D02*
D03*
X446815Y26779D02*
D03*
X466500D02*
D03*
X34000Y26280D02*
D03*
X14315D02*
D03*
D138*
X395500Y201500D02*
D03*
D139*
X375815Y189689D02*
D03*
D140*
X217926Y22500D02*
D03*
X261426D02*
D03*
D141*
X395500Y177091D02*
D03*
D142*
X235016Y217118D02*
D03*
X215331D02*
D03*
D143*
X283714Y195118D02*
D03*
X281214Y189618D02*
D03*
Y183618D02*
D03*
X305000Y171000D02*
D03*
X299500D02*
D03*
X294000D02*
D03*
X43500Y185500D02*
D03*
X433500Y190500D02*
D03*
X441921Y193875D02*
D03*
X441999Y206520D02*
D03*
Y197520D02*
D03*
Y203520D02*
D03*
Y200520D02*
D03*
Y221520D02*
D03*
Y227520D02*
D03*
Y224520D02*
D03*
Y212520D02*
D03*
Y209520D02*
D03*
Y218520D02*
D03*
Y215520D02*
D03*
X295000Y197000D02*
D03*
X301500Y196500D02*
D03*
X308000Y189500D02*
D03*
X289000Y197000D02*
D03*
X308000Y176500D02*
D03*
Y183000D02*
D03*
X476922Y132355D02*
D03*
Y120855D02*
D03*
Y124355D02*
D03*
Y139355D02*
D03*
Y135855D02*
D03*
Y128855D02*
D03*
X477000Y114000D02*
D03*
X476922Y117355D02*
D03*
X439078Y121645D02*
D03*
Y124645D02*
D03*
Y114645D02*
D03*
Y118145D02*
D03*
X455500Y114500D02*
D03*
Y118000D02*
D03*
Y124500D02*
D03*
Y129000D02*
D03*
Y121500D02*
D03*
X439078Y132145D02*
D03*
Y135145D02*
D03*
Y138145D02*
D03*
Y129145D02*
D03*
X455500Y135000D02*
D03*
Y132000D02*
D03*
Y138000D02*
D03*
D144*
X412806Y150189D02*
D03*
X249282Y85502D02*
D03*
X242140D02*
D03*
X245782D02*
D03*
X242107Y82303D02*
D03*
X245749D02*
D03*
X245849Y78939D02*
D03*
X238601Y85579D02*
D03*
X234893Y85539D02*
D03*
X238568Y82380D02*
D03*
X234879Y82399D02*
D03*
X238630Y78954D02*
D03*
X231282Y85502D02*
D03*
X234971Y79015D02*
D03*
X242206Y78939D02*
D03*
X231249Y82303D02*
D03*
X249249D02*
D03*
X234241Y70823D02*
D03*
Y74827D02*
D03*
X237859Y74787D02*
D03*
X237818Y70722D02*
D03*
X244871Y70762D02*
D03*
X241436Y70681D02*
D03*
X241281Y74837D02*
D03*
X244988Y74754D02*
D03*
X231525Y52636D02*
D03*
X249525D02*
D03*
X246753Y63940D02*
D03*
X243046Y64024D02*
D03*
X243201Y59868D02*
D03*
X246637Y59949D02*
D03*
X238568Y56000D02*
D03*
X239583Y59908D02*
D03*
X239624Y63973D02*
D03*
X245803Y55924D02*
D03*
X249492Y49437D02*
D03*
X242144Y55985D02*
D03*
X245896Y52540D02*
D03*
X242207Y52559D02*
D03*
X245882Y49400D02*
D03*
X242174Y49360D02*
D03*
X236006Y64014D02*
D03*
Y60010D02*
D03*
X234926Y56000D02*
D03*
X235025Y52636D02*
D03*
X238667D02*
D03*
X234992Y49437D02*
D03*
X238634D02*
D03*
X231492D02*
D03*
X226426Y69500D02*
D03*
D145*
X12705Y219882D02*
D03*
X469205Y220382D02*
D03*
M02*
