G04*
G04 #@! TF.GenerationSoftware,Altium Limited,Altium Designer,25.8.1 (18)*
G04*
G04 Layer_Color=8421504*
%FSLAX25Y25*%
%MOIN*%
G70*
G04*
G04 #@! TF.SameCoordinates,E010760D-FB29-432B-967E-C6BB433EED36*
G04*
G04*
G04 #@! TF.FilePolarity,Positive*
G04*
G01*
G75*
%ADD16R,0.02019X0.03594*%
%ADD17C,0.01968*%
%ADD18R,0.02816X0.02648*%
%ADD19R,0.02423X0.02254*%
%ADD20R,0.02254X0.02423*%
%ADD21C,0.02362*%
%ADD22R,0.03197X0.02593*%
G04:AMPARAMS|DCode=23|XSize=73.01mil|YSize=24.1mil|CornerRadius=12.05mil|HoleSize=0mil|Usage=FLASHONLY|Rotation=0.000|XOffset=0mil|YOffset=0mil|HoleType=Round|Shape=RoundedRectangle|*
%AMROUNDEDRECTD23*
21,1,0.07301,0.00000,0,0,0.0*
21,1,0.04891,0.02410,0,0,0.0*
1,1,0.02410,0.02445,0.00000*
1,1,0.02410,-0.02445,0.00000*
1,1,0.02410,-0.02445,0.00000*
1,1,0.02410,0.02445,0.00000*
%
%ADD23ROUNDEDRECTD23*%
%ADD24O,0.07301X0.02410*%
%ADD25R,0.01772X0.01772*%
%ADD26R,0.02756X0.02559*%
%ADD27R,0.02165X0.02165*%
%ADD28R,0.03150X0.03150*%
%ADD29R,0.03150X0.01575*%
%ADD30R,0.01575X0.03150*%
%ADD31R,0.04724X0.04724*%
%ADD32R,0.05544X0.03963*%
%ADD33R,0.02593X0.03197*%
G04:AMPARAMS|DCode=34|XSize=67.21mil|YSize=24.25mil|CornerRadius=12.12mil|HoleSize=0mil|Usage=FLASHONLY|Rotation=270.000|XOffset=0mil|YOffset=0mil|HoleType=Round|Shape=RoundedRectangle|*
%AMROUNDEDRECTD34*
21,1,0.06721,0.00000,0,0,270.0*
21,1,0.04296,0.02425,0,0,270.0*
1,1,0.02425,0.00000,-0.02148*
1,1,0.02425,0.00000,0.02148*
1,1,0.02425,0.00000,0.02148*
1,1,0.02425,0.00000,-0.02148*
%
%ADD34ROUNDEDRECTD34*%
%ADD35R,0.02425X0.06721*%
%ADD36R,0.05512X0.03740*%
%ADD37R,0.05906X0.04724*%
%ADD38R,0.02559X0.04134*%
G04:AMPARAMS|DCode=39|XSize=49.38mil|YSize=13.22mil|CornerRadius=6.61mil|HoleSize=0mil|Usage=FLASHONLY|Rotation=180.000|XOffset=0mil|YOffset=0mil|HoleType=Round|Shape=RoundedRectangle|*
%AMROUNDEDRECTD39*
21,1,0.04938,0.00000,0,0,180.0*
21,1,0.03615,0.01322,0,0,180.0*
1,1,0.01322,-0.01808,0.00000*
1,1,0.01322,0.01808,0.00000*
1,1,0.01322,0.01808,0.00000*
1,1,0.01322,-0.01808,0.00000*
%
%ADD39ROUNDEDRECTD39*%
G04:AMPARAMS|DCode=40|XSize=43.31mil|YSize=23.62mil|CornerRadius=2.01mil|HoleSize=0mil|Usage=FLASHONLY|Rotation=180.000|XOffset=0mil|YOffset=0mil|HoleType=Round|Shape=RoundedRectangle|*
%AMROUNDEDRECTD40*
21,1,0.04331,0.01961,0,0,180.0*
21,1,0.03929,0.02362,0,0,180.0*
1,1,0.00402,-0.01965,0.00980*
1,1,0.00402,0.01965,0.00980*
1,1,0.00402,0.01965,-0.00980*
1,1,0.00402,-0.01965,-0.00980*
%
%ADD40ROUNDEDRECTD40*%
%ADD41R,0.01000X0.01900*%
%ADD42R,0.01900X0.01000*%
%ADD43R,0.01575X0.05315*%
%ADD44R,0.02362X0.02126*%
%ADD45R,0.02648X0.02631*%
%ADD46R,0.05138X0.04355*%
%ADD47R,0.03765X0.06127*%
G04:AMPARAMS|DCode=48|XSize=47.64mil|YSize=23.23mil|CornerRadius=5.81mil|HoleSize=0mil|Usage=FLASHONLY|Rotation=180.000|XOffset=0mil|YOffset=0mil|HoleType=Round|Shape=RoundedRectangle|*
%AMROUNDEDRECTD48*
21,1,0.04764,0.01161,0,0,180.0*
21,1,0.03602,0.02323,0,0,180.0*
1,1,0.01161,-0.01801,0.00581*
1,1,0.01161,0.01801,0.00581*
1,1,0.01161,0.01801,-0.00581*
1,1,0.01161,-0.01801,-0.00581*
%
%ADD48ROUNDEDRECTD48*%
%ADD49R,0.04724X0.07087*%
%ADD50R,0.11040X0.06506*%
%ADD51R,0.06102X0.05906*%
%ADD52R,0.03740X0.05512*%
G04:AMPARAMS|DCode=53|XSize=47.64mil|YSize=23.23mil|CornerRadius=5.81mil|HoleSize=0mil|Usage=FLASHONLY|Rotation=90.000|XOffset=0mil|YOffset=0mil|HoleType=Round|Shape=RoundedRectangle|*
%AMROUNDEDRECTD53*
21,1,0.04764,0.01161,0,0,90.0*
21,1,0.03602,0.02323,0,0,90.0*
1,1,0.01161,0.00581,0.01801*
1,1,0.01161,0.00581,-0.01801*
1,1,0.01161,-0.00581,-0.01801*
1,1,0.01161,-0.00581,0.01801*
%
%ADD53ROUNDEDRECTD53*%
%ADD54R,0.02362X0.06102*%
%ADD55R,0.05906X0.06102*%
%ADD56R,0.01496X0.01575*%
%ADD57R,0.06506X0.11040*%
G04:AMPARAMS|DCode=58|XSize=17.72mil|YSize=11.81mil|CornerRadius=1.95mil|HoleSize=0mil|Usage=FLASHONLY|Rotation=180.000|XOffset=0mil|YOffset=0mil|HoleType=Round|Shape=RoundedRectangle|*
%AMROUNDEDRECTD58*
21,1,0.01772,0.00791,0,0,180.0*
21,1,0.01382,0.01181,0,0,180.0*
1,1,0.00390,-0.00691,0.00396*
1,1,0.00390,0.00691,0.00396*
1,1,0.00390,0.00691,-0.00396*
1,1,0.00390,-0.00691,-0.00396*
%
%ADD58ROUNDEDRECTD58*%
%ADD59R,0.05241X0.03985*%
%ADD60R,0.03661X0.03504*%
%ADD61R,0.03543X0.02559*%
G04:AMPARAMS|DCode=62|XSize=37.68mil|YSize=9.42mil|CornerRadius=4.71mil|HoleSize=0mil|Usage=FLASHONLY|Rotation=90.000|XOffset=0mil|YOffset=0mil|HoleType=Round|Shape=RoundedRectangle|*
%AMROUNDEDRECTD62*
21,1,0.03768,0.00000,0,0,90.0*
21,1,0.02826,0.00942,0,0,90.0*
1,1,0.00942,0.00000,0.01413*
1,1,0.00942,0.00000,-0.01413*
1,1,0.00942,0.00000,-0.01413*
1,1,0.00942,0.00000,0.01413*
%
%ADD62ROUNDEDRECTD62*%
G04:AMPARAMS|DCode=63|XSize=9.42mil|YSize=37.68mil|CornerRadius=4.71mil|HoleSize=0mil|Usage=FLASHONLY|Rotation=90.000|XOffset=0mil|YOffset=0mil|HoleType=Round|Shape=RoundedRectangle|*
%AMROUNDEDRECTD63*
21,1,0.00942,0.02826,0,0,90.0*
21,1,0.00000,0.03768,0,0,90.0*
1,1,0.00942,0.01413,0.00000*
1,1,0.00942,0.01413,0.00000*
1,1,0.00942,-0.01413,0.00000*
1,1,0.00942,-0.01413,0.00000*
%
%ADD63ROUNDEDRECTD63*%
%ADD64C,0.00100*%
%ADD65R,0.01968X0.02362*%
%ADD66R,0.03504X0.03661*%
%ADD67R,0.02362X0.02362*%
%ADD68R,0.08898X0.08504*%
%ADD69R,0.02365X0.04375*%
%ADD70R,0.06127X0.03765*%
%ADD71R,0.13228X0.19134*%
%ADD72R,0.05472X0.05512*%
%ADD73R,0.04938X0.01322*%
%ADD74R,0.03963X0.05544*%
%ADD75R,0.02756X0.00787*%
%ADD76R,0.12992X0.04134*%
%ADD77R,0.02165X0.02165*%
%ADD78R,0.01575X0.02362*%
%ADD79C,0.00100*%
%ADD80R,0.01843X0.01860*%
%ADD81R,0.02203X0.01860*%
%ADD82C,0.00848*%
%ADD83R,0.02559X0.02559*%
%ADD84R,0.21654X0.05630*%
%ADD85R,0.05906X0.07480*%
%ADD86R,0.03150X0.02362*%
%ADD87R,0.02237X0.02254*%
%ADD88R,0.04166X0.04748*%
%ADD89C,0.03937*%
G36*
X241315Y225976D02*
X239347D01*
Y229520D01*
X241315D01*
X241315Y225976D01*
D02*
G37*
G36*
X211000Y225976D02*
X209032D01*
X209032Y229520D01*
X211000D01*
Y225976D01*
D02*
G37*
G36*
X239347Y224008D02*
X234228D01*
Y231488D01*
X239347D01*
Y224008D01*
D02*
G37*
G36*
X216118D02*
X211000D01*
Y231488D01*
X216118D01*
Y224008D01*
D02*
G37*
G36*
X290896Y187426D02*
X286172D01*
Y189788D01*
X288534Y192151D01*
X290896D01*
Y187426D01*
D02*
G37*
G36*
X435080Y185100D02*
X435135Y185045D01*
X435165Y184972D01*
Y184933D01*
Y184185D01*
Y184146D01*
X435135Y184073D01*
X435080Y184018D01*
X435008Y183988D01*
X432567D01*
X432495Y184018D01*
X432439Y184073D01*
X432409Y184146D01*
Y184185D01*
Y184933D01*
Y184972D01*
X432439Y185045D01*
X432495Y185100D01*
X432567Y185130D01*
X435008D01*
X435080Y185100D01*
D02*
G37*
G36*
X425186Y184942D02*
X425242Y184887D01*
X425272Y184815D01*
Y184776D01*
Y181783D01*
Y181744D01*
X425242Y181672D01*
X425186Y181617D01*
X425114Y181587D01*
X421886D01*
X421814Y181617D01*
X421758Y181672D01*
X421728Y181744D01*
Y181783D01*
Y184776D01*
Y184815D01*
X421758Y184887D01*
X421814Y184942D01*
X421886Y184972D01*
X425114D01*
X425186Y184942D01*
D02*
G37*
G36*
X435848Y182383D02*
X435903Y182328D01*
X435933Y182256D01*
Y182217D01*
Y179224D01*
Y179185D01*
X435903Y179113D01*
X435848Y179058D01*
X435775Y179028D01*
X432548D01*
X432475Y179058D01*
X432420Y179113D01*
X432390Y179185D01*
Y179224D01*
Y182217D01*
Y182256D01*
X432420Y182328D01*
X432475Y182383D01*
X432548Y182413D01*
X435775D01*
X435848Y182383D01*
D02*
G37*
G36*
X425167Y179982D02*
X425222Y179927D01*
X425252Y179854D01*
Y179815D01*
Y179067D01*
Y179028D01*
X425222Y178955D01*
X425167Y178900D01*
X425094Y178870D01*
X422654D01*
X422581Y178900D01*
X422526Y178955D01*
X422496Y179028D01*
Y179067D01*
Y179815D01*
Y179854D01*
X422526Y179927D01*
X422581Y179982D01*
X422654Y180012D01*
X425094D01*
X425167Y179982D01*
D02*
G37*
G36*
X410120Y146487D02*
X410252Y146355D01*
X410324Y146182D01*
Y146088D01*
Y142791D01*
X409382D01*
Y146088D01*
Y146182D01*
X409453Y146355D01*
X409586Y146487D01*
X409759Y146559D01*
X409946D01*
X410120Y146487D01*
D02*
G37*
G36*
X249727Y76919D02*
Y74754D01*
X250908D01*
X251105Y74557D01*
Y73573D01*
X250908Y73376D01*
X248546D01*
X248349Y73573D01*
Y76919D01*
X248546Y77116D01*
X249530D01*
X249727Y76919D01*
D02*
G37*
G36*
X232601Y76919D02*
Y73573D01*
X232404Y73376D01*
X230042D01*
X229845Y73573D01*
Y74557D01*
X230042Y74754D01*
X231223D01*
Y76919D01*
X231420Y77116D01*
X232404D01*
X232601Y76919D01*
D02*
G37*
G36*
X247198Y76673D02*
Y72441D01*
X247001Y72244D01*
X246410D01*
X246213Y72441D01*
Y76673D01*
X246410Y76870D01*
X247001D01*
X247198Y76673D01*
D02*
G37*
G36*
X243635D02*
Y72441D01*
X243438Y72244D01*
X242847D01*
X242650Y72441D01*
Y76673D01*
X242847Y76870D01*
X243438D01*
X243635Y76673D01*
D02*
G37*
G36*
X240072D02*
Y72441D01*
X239875Y72244D01*
X239284D01*
X239087Y72441D01*
Y76673D01*
X239284Y76870D01*
X239875D01*
X240072Y76673D01*
D02*
G37*
G36*
X236509D02*
Y72441D01*
X236312Y72244D01*
X235721D01*
X235524Y72441D01*
Y76673D01*
X235721Y76870D01*
X236312D01*
X236509Y76673D01*
D02*
G37*
G36*
X247198Y71358D02*
Y67126D01*
X247001Y66929D01*
X246410D01*
X246213Y67126D01*
Y71358D01*
X246410Y71555D01*
X247001D01*
X247198Y71358D01*
D02*
G37*
G36*
X243635D02*
Y67126D01*
X243438Y66929D01*
X242847D01*
X242650Y67126D01*
Y71358D01*
X242847Y71555D01*
X243438D01*
X243635Y71358D01*
D02*
G37*
G36*
X240072D02*
Y67126D01*
X239875Y66929D01*
X239284D01*
X239087Y67126D01*
Y71358D01*
X239284Y71555D01*
X239875D01*
X240072Y71358D01*
D02*
G37*
G36*
X236509D02*
Y67126D01*
X236312Y66929D01*
X235721D01*
X235524Y67126D01*
Y71358D01*
X235721Y71555D01*
X236312D01*
X236509Y71358D01*
D02*
G37*
G36*
X245426Y67815D02*
Y63583D01*
X245229Y63386D01*
X244639D01*
X244442Y63583D01*
Y67815D01*
X244639Y68012D01*
X245229D01*
X245426Y67815D01*
D02*
G37*
G36*
X241863D02*
Y63583D01*
X241666Y63386D01*
X241076D01*
X240879Y63583D01*
Y67815D01*
X241076Y68012D01*
X241666D01*
X241863Y67815D01*
D02*
G37*
G36*
X238300D02*
Y63583D01*
X238103Y63386D01*
X237513D01*
X237316Y63583D01*
Y67815D01*
X237513Y68012D01*
X238103D01*
X238300Y67815D01*
D02*
G37*
G36*
X234737D02*
Y63583D01*
X234540Y63386D01*
X233950D01*
X233753Y63583D01*
Y67815D01*
X233950Y68012D01*
X234540D01*
X234737Y67815D01*
D02*
G37*
G36*
X245426Y62500D02*
Y58268D01*
X245229Y58071D01*
X244639D01*
X244442Y58268D01*
Y62500D01*
X244639Y62697D01*
X245229D01*
X245426Y62500D01*
D02*
G37*
G36*
X241863D02*
Y58268D01*
X241666Y58071D01*
X241076D01*
X240879Y58268D01*
Y62500D01*
X241076Y62697D01*
X241666D01*
X241863Y62500D01*
D02*
G37*
G36*
X238300D02*
Y58268D01*
X238103Y58071D01*
X237513D01*
X237316Y58268D01*
Y62500D01*
X237513Y62697D01*
X238103D01*
X238300Y62500D01*
D02*
G37*
G36*
X234737D02*
Y58268D01*
X234540Y58071D01*
X233950D01*
X233753Y58268D01*
Y62500D01*
X233950Y62697D01*
X234540D01*
X234737Y62500D01*
D02*
G37*
G36*
X251105Y61368D02*
Y60384D01*
X250908Y60187D01*
X249727D01*
Y58022D01*
X249530Y57825D01*
X248546D01*
X248349Y58022D01*
Y61368D01*
X248546Y61565D01*
X250908D01*
X251105Y61368D01*
D02*
G37*
G36*
X232601Y61368D02*
Y58022D01*
X232404Y57825D01*
X231420D01*
X231223Y58022D01*
Y60187D01*
X230042D01*
X229845Y60384D01*
Y61368D01*
X230042Y61565D01*
X232404D01*
X232601Y61368D01*
D02*
G37*
D16*
X412806Y150189D02*
D03*
D17*
X211984Y225976D02*
G03*
X211984Y225976I-984J0D01*
G01*
Y229520D02*
G03*
X211984Y229520I-984J0D01*
G01*
X240331Y225976D02*
G03*
X240331Y225976I-984J0D01*
G01*
Y229520D02*
G03*
X240331Y229520I-984J0D01*
G01*
D18*
X259581Y74270D02*
D03*
X255812D02*
D03*
X400653Y121375D02*
D03*
X404421D02*
D03*
D19*
X264187Y67500D02*
D03*
X260813D02*
D03*
X401813Y130000D02*
D03*
X405187D02*
D03*
X262113Y58500D02*
D03*
X258739D02*
D03*
D20*
X355000Y118313D02*
D03*
Y121687D02*
D03*
X165354Y175478D02*
D03*
Y178853D02*
D03*
X175197Y175478D02*
D03*
Y178853D02*
D03*
X185039Y175478D02*
D03*
Y178853D02*
D03*
X194882Y175478D02*
D03*
Y178853D02*
D03*
X215426Y68187D02*
D03*
Y64813D02*
D03*
D21*
X391500Y148500D02*
D03*
X433000Y110500D02*
D03*
X399000Y148000D02*
D03*
X418058Y139641D02*
D03*
X411500Y132500D02*
D03*
Y127000D02*
D03*
X427500Y172000D02*
D03*
X383500Y170500D02*
D03*
D22*
X209500Y56164D02*
D03*
Y50836D02*
D03*
D23*
X372029Y129740D02*
D03*
Y126000D02*
D03*
Y122260D02*
D03*
X362971D02*
D03*
Y126000D02*
D03*
D24*
Y129740D02*
D03*
D25*
X363925Y116000D02*
D03*
X367075D02*
D03*
D26*
X372630D02*
D03*
X376370D02*
D03*
D27*
X424499Y134642D02*
D03*
Y131099D02*
D03*
X226926Y52228D02*
D03*
Y55772D02*
D03*
D28*
X267471Y210851D02*
D03*
Y155733D02*
D03*
X322589Y210851D02*
D03*
Y155733D02*
D03*
D29*
X267471Y206718D02*
D03*
Y203371D02*
D03*
Y200025D02*
D03*
Y196678D02*
D03*
Y193332D02*
D03*
Y189985D02*
D03*
Y186639D02*
D03*
Y183292D02*
D03*
Y179946D02*
D03*
Y176600D02*
D03*
Y173253D02*
D03*
Y169906D02*
D03*
Y166560D02*
D03*
Y163214D02*
D03*
Y159867D02*
D03*
X322589D02*
D03*
Y163214D02*
D03*
Y166560D02*
D03*
Y169906D02*
D03*
Y173253D02*
D03*
Y176600D02*
D03*
Y179946D02*
D03*
Y183292D02*
D03*
Y186639D02*
D03*
Y189985D02*
D03*
Y193332D02*
D03*
Y196678D02*
D03*
Y200025D02*
D03*
Y203371D02*
D03*
Y206718D02*
D03*
D30*
X271605Y155733D02*
D03*
X274951D02*
D03*
X278297D02*
D03*
X281644D02*
D03*
X284990D02*
D03*
X288337D02*
D03*
X291683D02*
D03*
X295030D02*
D03*
X298376D02*
D03*
X301723D02*
D03*
X305069D02*
D03*
X308416D02*
D03*
X311762D02*
D03*
X315109D02*
D03*
X318455D02*
D03*
Y210851D02*
D03*
X315109D02*
D03*
X311762D02*
D03*
X308416D02*
D03*
X305069D02*
D03*
X301723D02*
D03*
X298376D02*
D03*
X295030D02*
D03*
X291683D02*
D03*
X288337D02*
D03*
X284990D02*
D03*
X281644D02*
D03*
X278297D02*
D03*
X274951D02*
D03*
X271605D02*
D03*
D31*
X295030Y183292D02*
D03*
Y189788D02*
D03*
X301526D02*
D03*
Y183292D02*
D03*
Y176796D02*
D03*
X295030D02*
D03*
X288534D02*
D03*
Y183292D02*
D03*
D32*
X179134Y198232D02*
D03*
Y190745D02*
D03*
X333539Y179286D02*
D03*
X169291Y198232D02*
D03*
Y190745D02*
D03*
X211500Y190257D02*
D03*
X256500Y169744D02*
D03*
X333500Y192756D02*
D03*
X248500Y169744D02*
D03*
Y162257D02*
D03*
X159449Y198232D02*
D03*
Y190745D02*
D03*
X188976Y198232D02*
D03*
Y190745D02*
D03*
X256500Y162257D02*
D03*
X333500Y200243D02*
D03*
X211500Y197743D02*
D03*
X333539Y171799D02*
D03*
D33*
X192133Y208000D02*
D03*
X186804D02*
D03*
X115836D02*
D03*
X138804D02*
D03*
X162804D02*
D03*
X144133D02*
D03*
X121164D02*
D03*
X168133D02*
D03*
X92804D02*
D03*
X70672D02*
D03*
X48172Y207500D02*
D03*
X25672D02*
D03*
X31000D02*
D03*
X53500D02*
D03*
X76000Y208000D02*
D03*
X98133D02*
D03*
D34*
X221000Y187000D02*
D03*
Y196453D02*
D03*
X228480Y187000D02*
D03*
X224740Y196453D02*
D03*
D35*
X228480D02*
D03*
D36*
X226000Y168358D02*
D03*
X400500Y12858D02*
D03*
X400468Y60858D02*
D03*
X79633Y61420D02*
D03*
X80000Y12827D02*
D03*
X38500Y184216D02*
D03*
X61000Y184000D02*
D03*
X83000D02*
D03*
X241000Y196358D02*
D03*
X250500D02*
D03*
X105000Y184000D02*
D03*
X260926Y54142D02*
D03*
X219426Y84000D02*
D03*
X226000Y175642D02*
D03*
X241000Y203642D02*
D03*
X250500D02*
D03*
X219426Y91284D02*
D03*
X260926Y46858D02*
D03*
X80000Y20110D02*
D03*
X79633Y68704D02*
D03*
X400500Y20142D02*
D03*
X400468Y68142D02*
D03*
X105000Y191284D02*
D03*
X396000Y155858D02*
D03*
X388000D02*
D03*
X396000Y163142D02*
D03*
X83000Y191284D02*
D03*
X61000D02*
D03*
X38500Y191500D02*
D03*
X388000Y163142D02*
D03*
D37*
X203150Y188964D02*
D03*
X343500Y180315D02*
D03*
X203150Y199594D02*
D03*
X343500Y169685D02*
D03*
D38*
X332772Y227748D02*
D03*
Y211409D02*
D03*
X259469Y227417D02*
D03*
Y211079D02*
D03*
X251004D02*
D03*
Y227417D02*
D03*
X341236Y227748D02*
D03*
Y211409D02*
D03*
D39*
X137995Y176118D02*
D03*
X138000Y199177D02*
D03*
Y194059D02*
D03*
Y196618D02*
D03*
X137995Y171000D02*
D03*
X125005Y199177D02*
D03*
X125000Y176118D02*
D03*
X137995Y173559D02*
D03*
X125000D02*
D03*
Y171000D02*
D03*
Y168441D02*
D03*
X125005Y191500D02*
D03*
Y196618D02*
D03*
Y194059D02*
D03*
D40*
X160736Y163740D02*
D03*
X150500D02*
D03*
X160736Y160000D02*
D03*
Y167480D02*
D03*
X150500D02*
D03*
Y160000D02*
D03*
D41*
X237500Y172100D02*
D03*
X235531D02*
D03*
X239469D02*
D03*
X235531Y164900D02*
D03*
X239469D02*
D03*
X237500D02*
D03*
D42*
X242050Y165547D02*
D03*
X232950Y171453D02*
D03*
Y165547D02*
D03*
Y167516D02*
D03*
Y169484D02*
D03*
X242050Y171453D02*
D03*
Y169484D02*
D03*
Y167516D02*
D03*
D43*
X220055Y217118D02*
D03*
X225173D02*
D03*
X227732D02*
D03*
X222614D02*
D03*
X230291D02*
D03*
D44*
X425999Y158221D02*
D03*
Y154819D02*
D03*
D45*
X417999Y131566D02*
D03*
Y135520D02*
D03*
D46*
X417651Y169020D02*
D03*
X411347D02*
D03*
D47*
X402748Y112500D02*
D03*
X412000D02*
D03*
D48*
X31213Y175559D02*
D03*
X54382Y175531D02*
D03*
X76941Y175740D02*
D03*
X98941D02*
D03*
Y168260D02*
D03*
X76941D02*
D03*
X54382Y168051D02*
D03*
X31213Y168079D02*
D03*
Y171819D02*
D03*
X21331Y175559D02*
D03*
Y168079D02*
D03*
X89059Y168260D02*
D03*
X67059D02*
D03*
X44500Y168051D02*
D03*
Y175531D02*
D03*
X89059Y175740D02*
D03*
X67059D02*
D03*
X54382Y171791D02*
D03*
X76941Y172000D02*
D03*
X98941D02*
D03*
D49*
X130468Y226000D02*
D03*
X116295D02*
D03*
X24913Y225953D02*
D03*
X39087D02*
D03*
X70445Y225941D02*
D03*
X47413Y225953D02*
D03*
X61587D02*
D03*
X84618Y225941D02*
D03*
X93445D02*
D03*
X107618D02*
D03*
X163882Y225953D02*
D03*
X139795Y226000D02*
D03*
X153969D02*
D03*
X202055Y225953D02*
D03*
X178055D02*
D03*
X187882D02*
D03*
D50*
X381000Y11282D02*
D03*
X380968Y59782D02*
D03*
X99133Y59345D02*
D03*
X99500Y10751D02*
D03*
Y21186D02*
D03*
X99133Y69780D02*
D03*
X381000Y21718D02*
D03*
X380968Y70218D02*
D03*
D51*
X392000Y12457D02*
D03*
Y60957D02*
D03*
X88133Y61019D02*
D03*
X88500Y12425D02*
D03*
Y19512D02*
D03*
X88133Y68105D02*
D03*
X392000Y19543D02*
D03*
Y68043D02*
D03*
D52*
X30142Y161000D02*
D03*
X53142Y161031D02*
D03*
X75772Y161319D02*
D03*
X97870Y160988D02*
D03*
X127642Y161000D02*
D03*
X134500D02*
D03*
X127642Y184000D02*
D03*
X134500D02*
D03*
X158142Y176000D02*
D03*
X244142Y179000D02*
D03*
X215284Y53500D02*
D03*
X141783Y161000D02*
D03*
Y184000D02*
D03*
X150858Y176000D02*
D03*
X236858Y179000D02*
D03*
X222568Y53500D02*
D03*
X120358Y184000D02*
D03*
Y161000D02*
D03*
X90586Y160988D02*
D03*
X68489Y161319D02*
D03*
X45858Y161031D02*
D03*
X22858Y161000D02*
D03*
D53*
X31500Y189500D02*
D03*
X53740D02*
D03*
X76000Y190000D02*
D03*
X98000Y190118D02*
D03*
X90520Y200000D02*
D03*
X68520Y199882D02*
D03*
X46260Y199382D02*
D03*
X24020D02*
D03*
X98000Y200000D02*
D03*
X90520Y190118D02*
D03*
X94260D02*
D03*
X72260Y190000D02*
D03*
X50000Y189500D02*
D03*
X27760D02*
D03*
X68520Y190000D02*
D03*
X46260Y189500D02*
D03*
X24020D02*
D03*
X31500Y199382D02*
D03*
X53740D02*
D03*
X76000Y199882D02*
D03*
D54*
X75563Y216000D02*
D03*
X30031Y216012D02*
D03*
X52531D02*
D03*
X98563Y216000D02*
D03*
X144913Y216059D02*
D03*
X148850D02*
D03*
X172937Y216012D02*
D03*
X196937D02*
D03*
X125350Y216059D02*
D03*
X121413D02*
D03*
X193000Y216012D02*
D03*
X169000D02*
D03*
X79500Y216000D02*
D03*
X102500D02*
D03*
X33968Y216012D02*
D03*
X56468D02*
D03*
D55*
X227780Y206248D02*
D03*
X238457Y189500D02*
D03*
X220693Y206248D02*
D03*
X245543Y189500D02*
D03*
D56*
X407921Y137375D02*
D03*
X405708D02*
D03*
D57*
X471718Y119000D02*
D03*
Y133000D02*
D03*
X435717Y224000D02*
D03*
Y211500D02*
D03*
Y199000D02*
D03*
X461282Y119000D02*
D03*
Y133000D02*
D03*
X425282Y199000D02*
D03*
Y211500D02*
D03*
Y224000D02*
D03*
D58*
X430323Y184559D02*
D03*
X438000D02*
D03*
X419661Y179441D02*
D03*
Y184559D02*
D03*
Y182000D02*
D03*
X427339D02*
D03*
Y184559D02*
D03*
Y179441D02*
D03*
X438000Y182000D02*
D03*
Y179441D02*
D03*
X430323D02*
D03*
Y182000D02*
D03*
D59*
X265841Y80500D02*
D03*
X260011D02*
D03*
D60*
X269426Y75032D02*
D03*
Y68968D02*
D03*
X424499Y150051D02*
D03*
Y143989D02*
D03*
D61*
X270926Y57646D02*
D03*
Y63354D02*
D03*
D62*
X415758Y155703D02*
D03*
X409853D02*
D03*
X411821Y144675D02*
D03*
X415758D02*
D03*
X411821Y155703D02*
D03*
X413790D02*
D03*
Y144675D02*
D03*
D63*
X407292Y147236D02*
D03*
X418320Y151173D02*
D03*
X407292Y153142D02*
D03*
X418320Y147236D02*
D03*
Y149205D02*
D03*
X407292D02*
D03*
Y151173D02*
D03*
X418320Y153142D02*
D03*
D64*
X231740Y74188D02*
D03*
X249210D02*
D03*
D65*
X264895Y85000D02*
D03*
X260958D02*
D03*
D66*
X264957Y63000D02*
D03*
X258894D02*
D03*
D67*
X218859Y69000D02*
D03*
X222993D02*
D03*
D68*
X196500Y79146D02*
D03*
Y59854D02*
D03*
D69*
X209926Y74291D02*
D03*
Y60709D02*
D03*
D70*
X333500Y159626D02*
D03*
Y150374D02*
D03*
D71*
X282926Y64500D02*
D03*
D72*
X279314Y80177D02*
D03*
X286558D02*
D03*
D73*
X138000Y191500D02*
D03*
X137995Y168441D02*
D03*
D74*
X346513Y152000D02*
D03*
X354000D02*
D03*
D75*
X249727Y67471D02*
D03*
X231223Y62746D02*
D03*
Y64321D02*
D03*
Y65896D02*
D03*
Y67471D02*
D03*
Y69045D02*
D03*
Y70620D02*
D03*
Y72195D02*
D03*
X249727D02*
D03*
Y70620D02*
D03*
Y69045D02*
D03*
Y65896D02*
D03*
Y64321D02*
D03*
Y62746D02*
D03*
D76*
X459499Y145272D02*
D03*
X443499D02*
D03*
X459499Y151768D02*
D03*
X443499D02*
D03*
D77*
X433216Y145256D02*
D03*
X429672D02*
D03*
X433225Y148929D02*
D03*
X429682D02*
D03*
D78*
X219654Y72500D02*
D03*
X223198D02*
D03*
D79*
X231740Y60704D02*
D03*
X249210D02*
D03*
D80*
X220843Y59500D02*
D03*
X224009D02*
D03*
X382583Y148500D02*
D03*
X379417D02*
D03*
D81*
X223907Y62500D02*
D03*
X220945D02*
D03*
X223907Y65500D02*
D03*
X220945D02*
D03*
D82*
X409853Y144626D02*
D03*
D83*
X411968Y162020D02*
D03*
X408031D02*
D03*
D84*
X452999Y161567D02*
D03*
Y177473D02*
D03*
D85*
X221236Y227748D02*
D03*
X229110D02*
D03*
D86*
X402500Y161000D02*
D03*
Y167693D02*
D03*
D87*
X409921Y121375D02*
D03*
X413481D02*
D03*
D88*
X38500Y199500D02*
D03*
Y205808D02*
D03*
X105133Y199346D02*
D03*
Y205654D02*
D03*
X61000D02*
D03*
Y199346D02*
D03*
X83000Y205654D02*
D03*
Y199346D02*
D03*
D89*
X117000Y170000D02*
D03*
Y175000D02*
D03*
Y193500D02*
D03*
Y198500D02*
D03*
M02*
